<svg xmlns="http://www.w3.org/2000/svg" width="787" height="445" viewBox="0 0 787 445" fill="none">
	<path d="M149.912 438.328H56.7304M637.087 437.564H728.93M662.5 444H722.243M771.285 444L785.998 431.127M771.285 444V412.623L785.998 401.762M771.285 444H739.185M785.998 431.127V401.762M785.998 431.127L752.114 431.53L739.185 444M785.998 401.762V59.0246M728.93 437.564H764.598L779.311 423.886V392.509M728.93 437.564L722.243 444M722.243 444H739.185M779.311 392.509L785.998 386.727M779.311 392.509V53.7951M785.998 59.0246L779.311 53.7951M785.998 59.0246V45.3474M779.311 53.7951V22.4179L772.177 15.3782M785.998 15.5793L772.177 15.3782M785.998 15.5793V45.3474M785.998 15.5793L772.177 3.51116M772.177 15.3782L765.044 8.33842H728.484M772.177 15.3782H751.668L738.739 3.51116M785.998 45.3474L772.177 34.0838V3.51116M772.177 3.51116C745.427 3.51116 727.741 3.24298 722.243 3.10889M722.243 3.10889L728.484 8.33842M722.243 3.10889L398.5 4.43171M728.484 8.33842L399.392 9.66123L394.487 13.4112L390.029 9.66123L56.7305 9.54306M398.5 4.43171L394.487 1L390.475 4.43171M398.5 4.43171L394.487 8.0921L390.475 4.43171M390.475 4.43171L62.5264 3.29961M62.5264 3.29961L56.7305 9.54306M62.5264 3.29961H47.3677M56.7305 9.54306L21.985 9.81503L6.52238 23.0779L6.79597 54.7903M47.3677 3.29961L34.8841 15.3677H1M47.3677 3.29961L14.2537 3.18361M1 15.3677L14.2537 3.18361M1 15.3677V45.9404M14.2537 3.18361L14.3753 33.8722L1 45.9404M1 45.9404V60.0199M1 60.0199L6.79597 54.7903M1 60.0199V387.642M6.79597 54.7903L6.79597 392.469M1 387.642L6.79597 392.469M1 387.642V401.722M6.79597 392.469V425.455L21.9546 438.328H56.7304M1 401.722L13.9295 412.985V443.558M1 401.722V431.489M13.9295 443.558L1 431.489M13.9295 443.558H48.2594M1 431.489H34.8841L48.2594 443.558M48.2594 443.558H62.9723M62.9723 443.558L56.7304 438.328M62.9723 443.558H129.403" stroke="#B19F63"/>
</svg>