<svg width="72" height="84" viewBox="0 0 72 84" fill="none" xmlns="http://www.w3.org/2000/svg">
<g id="Logo_Strelok" filter="url(#filter0_d_2387_14044)">
<path fill-rule="evenodd" clip-rule="evenodd" d="M69 40.0799C65.8837 42.5648 57.9226 45.9148 53.6331 46.5866C54.1184 44.7282 55.4912 43.2079 55.6133 41.0355C53.1283 41.0355 50.7759 40.9253 48.4413 41.0884C47.4943 41.1548 47.1266 40.803 46.7648 40.1433C47.1757 39.2616 47.6923 38.9008 48.7524 38.9763C50.9917 39.1348 53.2489 39.0246 55.859 39.0246C55.0207 37.0409 54.2941 35.3214 53.508 33.4599C59.0541 34.8594 64.1789 36.9171 69 40.0799ZM45.4545 38.1339C45.2491 38.5898 44.7905 38.9416 44.4108 39.2994C43.915 39.7629 43.7602 40.3652 44.3617 40.6656C45.2892 41.1276 45.5573 41.9972 45.9086 42.7898C46.8943 45.006 47.807 47.2584 48.6899 49.5184C48.8358 49.8928 48.8194 50.4363 48.6661 50.8107C45.9831 57.3612 42.9279 63.6943 38.3048 69.114C37.3683 70.2116 36.542 71.4148 35.7439 72.6255C35.0233 73.7186 34.7032 74.9791 35.2094 76.2352C35.4506 76.8315 36.0655 77.2648 36.4928 77.7871C36.7281 78.074 36.9276 78.391 37.142 78.6945C36.7802 78.8016 36.3946 79.0477 36.0581 78.9919C34.6019 78.7503 33.4302 77.0957 33.3602 75.192C33.2932 73.3819 33.4972 71.6654 34.6138 70.0998C36.1087 68.0059 37.5202 65.8395 38.8304 63.6203C41.2394 59.5336 42.1477 55.1601 40.4414 50.5752C39.6225 48.3801 38.4835 46.2937 37.3415 44.2451C36.8591 43.3816 35.9911 42.7399 35.1975 41.89C35.7618 41.5669 36.3097 41.2635 36.8457 40.9434C37.8031 40.3758 37.8105 39.6994 36.8651 39.1303C36.3261 38.8072 35.7737 38.5068 35.1692 38.1626C35.3672 37.8924 35.458 37.7248 35.5891 37.598C39.8309 33.4388 41.774 28.3663 41.0533 22.4136C40.7407 19.8351 39.6404 17.4815 38.0249 15.374C36.8531 13.8477 35.9464 12.1101 34.9176 10.469C34.587 9.94216 34.1835 9.45454 33.9185 8.89747C32.8659 6.69333 33.1845 3.35543 34.6704 1.83066C35.0992 1.39134 35.8094 1.20112 36.4243 1.00788C36.6119 0.950516 37.005 1.21773 37.1271 1.43663C37.1971 1.56496 36.9663 2.04503 36.7832 2.10844C35.7514 2.46472 35.2883 3.21654 35.0784 4.25067C34.8267 5.48559 35.1349 6.61634 35.8139 7.57499C37.209 9.54814 38.7694 11.4005 40.1615 13.3767C43.653 18.333 46.394 23.7119 48.6542 29.3491C48.7882 29.6812 48.8567 30.1492 48.7301 30.4602C47.676 33.0342 46.5906 35.5961 45.4545 38.1339ZM12.8387 33.0976C11.9304 34.0925 11.0326 34.2948 9.6137 34.2057C17.3054 25.9266 24.8496 17.8046 32.4653 9.60702C33.253 10.9446 33.244 11.0774 32.3343 12.0572C25.8249 19.0606 19.2856 26.0353 12.8387 33.0976ZM14.262 35.4255C14.5643 35.4361 15.0125 35.6067 15.1316 35.8422C16.4775 38.4857 18.8151 39.0156 21.4296 38.9944C24.9687 38.9673 28.5093 38.8736 32.047 38.9476C33.0952 38.9703 34.1359 39.4639 35.1737 39.9289C34.1701 40.4769 33.378 41.2031 32.1601 41.1835C28.0493 41.117 23.9384 41.1578 19.8276 41.1895C17.9292 41.2046 16.4507 42.0727 15.4844 43.7363C15.0809 44.4308 14.6283 44.6889 13.8005 44.6693C10.7795 44.6014 7.75555 44.6784 4.73457 44.6165C4.15688 44.6044 3.56132 45.3411 3 44.6029C3 44.5395 3 44.473 3 44.4081C3.15931 44.2224 3.34691 44.0534 3.47496 43.8465C3.9261 43.1219 4.31023 42.3459 4.81199 41.659C5.23931 41.0748 5.79318 40.5856 6.12074 40.2384C5.12317 38.7 4.1807 37.2462 3.23227 35.7954C3.18462 35.7229 3.07891 35.6912 3 35.6399C3 35.575 3 35.5101 3 35.4452C3.32756 35.4104 3.65363 35.3606 3.98267 35.3455C4.16879 35.3365 4.35788 35.4074 4.54697 35.4089C6.7967 35.4286 9.04792 35.4497 11.2991 35.4557C12.2878 35.4572 13.2764 35.3893 14.262 35.4255ZM29.2553 64.8401C30.2871 65.9482 31.2653 67.1077 32.3343 68.1735C33.1011 68.9404 33.25 69.6636 32.4534 70.6328C24.8511 62.4488 17.3039 54.3267 9.60179 46.0371C11.0177 45.9661 11.9111 46.1367 12.8267 47.1437C18.2404 53.1009 23.7687 58.9509 29.2553 64.8401Z" fill="url(#paint0_linear_2387_14044)"/>
</g>
<defs>
<filter id="filter0_d_2387_14044" x="0.172" y="0.172" width="71.656" height="83.656" filterUnits="userSpaceOnUse" color-interpolation-filters="sRGB">
<feFlood flood-opacity="0" result="BackgroundImageFix"/>
<feColorMatrix in="SourceAlpha" type="matrix" values="0 0 0 0 0 0 0 0 0 0 0 0 0 0 0 0 0 0 127 0" result="hardAlpha"/>
<feOffset dy="2"/>
<feGaussianBlur stdDeviation="1.414"/>
<feColorMatrix type="matrix" values="0 0 0 0 0 0 0 0 0 0 0 0 0 0 0 0 0 0 0.3 0"/>
<feBlend mode="normal" in2="BackgroundImageFix" result="effect1_dropShadow_2387_14044"/>
<feBlend mode="normal" in="SourceGraphic" in2="effect1_dropShadow_2387_14044" result="shape"/>
</filter>
<linearGradient id="paint0_linear_2387_14044" x1="2.85096" y1="81.2721" x2="2.99203" y2="0.999986" gradientUnits="userSpaceOnUse">
<stop offset="0.496356" stop-color="#C6B073"/>
<stop offset="1" stop-color="#E0D1A9"/>
</linearGradient>
</defs>
</svg>
