<svg width="63" height="82" viewBox="0 0 63 82" fill="none" xmlns="http://www.w3.org/2000/svg">
<g id="Logo_Voin" filter="url(#filter0_d_2320_11661)">
<path fill-rule="evenodd" clip-rule="evenodd" d="M57.1521 50.9613C54.8812 56.4929 51.1983 61.6463 46.8309 65.5756C44.4242 67.7403 41.6458 69.4275 39.1206 70.6902V65.8759C40.6662 65.0339 42.2875 63.9542 43.8217 62.5737C47.6523 59.1277 50.8041 54.0905 52.7962 49.2386C55.7762 41.9784 56.171 22.1162 56.171 22.1162C56.171 22.1162 48.7687 21.8621 42.1867 19.4608C41.2411 19.1159 40.1868 18.6061 39.1206 18.0293V13.0468C40.6912 14.0087 42.2901 14.8651 43.6843 15.3739C51.1869 18.1116 61 17.9566 61 17.9566C61 17.9566 60.5499 42.6835 57.1521 50.9613ZM55.1877 48.1631C54.465 48.1631 53.8802 48.7552 53.8802 49.4853C53.8802 50.2159 54.465 50.808 55.1877 50.808C55.9088 50.808 56.4942 50.2159 56.4942 49.4853C56.4942 48.7552 55.9088 48.1631 55.1877 48.1631ZM58.3119 19.5213C57.5897 19.5213 57.0049 20.1134 57.0049 20.8434C57.0049 21.574 57.5897 22.1661 58.3119 22.1661C59.034 22.1661 59.6194 21.574 59.6194 20.8434C59.6194 20.1134 59.034 19.5213 58.3119 19.5213ZM41.4223 52.4092C46.4367 51.728 46.0962 47.6845 46.0962 47.6845H47.1406C47.1406 47.6845 47.5041 49.9959 47.1406 51.3985C46.0487 55.6109 40.7068 53.64 37.2193 56.1735C36.1572 56.9451 34.6085 58.2958 34.6085 58.2958H31.9454H28.3424C28.3424 58.2958 27.1261 56.9405 26.2538 56.1735C23.0118 53.3231 17.1806 54.6705 16.3325 51.3985C15.969 49.9959 16.3325 47.6845 16.3325 47.6845H17.3769C17.3769 47.6845 17.9852 51.728 23.0006 52.4092C28.015 53.0899 28.3727 52.4092 28.3727 52.4092L27.6057 50.5682L31.9454 46.6234L36.8167 50.5682L36.0486 52.4092C36.0486 52.4092 36.4074 53.0894 41.4223 52.4092ZM33.491 18.5037L31.9454 14.7897L30.3808 18.4505V45.5092L27.2477 48.162L27.2532 11.1814L31.9501 2L36.647 11.1814L36.6468 48.162L33.5138 45.5092L33.491 18.5037ZM6.82851 22.1162C6.82851 22.1162 7.22327 41.9784 10.2038 49.2386C12.1948 54.0905 15.3467 59.1277 19.1773 62.5737C20.8253 64.0561 22.573 65.1915 24.2194 66.0584V70.9545C21.561 69.6928 18.581 67.9632 16.0218 65.6961C11.6168 61.7938 8.11827 56.4929 5.84787 50.9613C2.45011 42.6835 2 17.9566 2 17.9566C2 17.9566 11.8126 18.1116 19.3152 15.3739C20.8101 14.8285 22.5406 13.883 24.2194 12.8362V17.8458C23.0377 18.4999 21.8592 19.0788 20.8122 19.4608C14.2313 21.8621 6.82851 22.1162 6.82851 22.1162ZM4.53253 19.5213C3.81506 19.5213 3.23337 20.1134 3.23337 20.8434C3.23337 21.574 3.81506 22.1661 4.53253 22.1661C5.24999 22.1661 5.83116 21.574 5.83116 20.8434C5.83116 20.1134 5.24999 19.5213 4.53253 19.5213ZM6.35855 49.4853C6.35855 50.2159 6.94338 50.808 7.66555 50.808C8.38719 50.808 8.97254 50.2159 8.97254 49.4853C8.97254 48.7552 8.38719 48.1631 7.66555 48.1631C6.94338 48.1631 6.35855 48.7552 6.35855 49.4853ZM35.0753 69.3888C35.0753 69.6822 34.8414 69.9199 34.5526 69.9199H29.3293C29.0411 69.9199 28.8072 69.6822 28.8072 69.3888V68.3245C28.8072 68.0311 29.0411 67.7939 29.3293 67.7939H34.5526C34.8414 67.7939 35.0753 68.0311 35.0753 68.3245V69.3888ZM34.5526 62.4824H29.3293C29.0411 62.4824 28.8072 62.2453 28.8072 61.9519V60.9024C28.8072 60.6096 29.0411 60.3719 29.3293 60.3719H34.5526C34.8414 60.3719 35.0753 60.6096 35.0753 60.9024V61.9519C35.0753 62.2453 34.8414 62.4824 34.5526 62.4824ZM35.0753 65.678C35.0753 65.9714 34.8414 66.2086 34.5526 66.2086H29.3293C29.0411 66.2086 28.8072 65.9714 28.8072 65.678V64.6132C28.8072 64.3203 29.0411 64.0826 29.3293 64.0826H34.5526C34.8414 64.0826 35.0753 64.3203 35.0753 64.6132V65.678ZM28.851 73.2401V73.2391V72.0347C28.851 71.7418 29.085 71.5041 29.3732 71.5041H34.5255C34.8137 71.5041 35.0476 71.7418 35.0476 72.0347V73.2391H35.0487L36.5979 74.9029C36.5979 74.9029 36.9462 77.1371 35.823 78.134C34.6999 79.1304 31.9501 80 31.9501 80C31.9501 80 29.2004 79.1304 28.0772 78.1335C26.954 77.1371 27.3028 74.9029 27.3028 74.9029L28.851 73.2401Z" fill="url(#paint0_linear_2320_11661)"/>
</g>
<defs>
<filter id="filter0_d_2320_11661" x="0" y="0" width="63" height="82" filterUnits="userSpaceOnUse" color-interpolation-filters="sRGB">
<feFlood flood-opacity="0" result="BackgroundImageFix"/>
<feColorMatrix in="SourceAlpha" type="matrix" values="0 0 0 0 0 0 0 0 0 0 0 0 0 0 0 0 0 0 127 0" result="hardAlpha"/>
<feOffset/>
<feGaussianBlur stdDeviation="1"/>
<feColorMatrix type="matrix" values="0 0 0 0 0 0 0 0 0 0 0 0 0 0 0 0 0 0 1 0"/>
<feBlend mode="normal" in2="BackgroundImageFix" result="effect1_dropShadow_2320_11661"/>
<feBlend mode="normal" in="SourceGraphic" in2="effect1_dropShadow_2320_11661" result="shape"/>
</filter>
<linearGradient id="paint0_linear_2320_11661" x1="1.86677" y1="82.2721" x2="2.02457" y2="2.00005" gradientUnits="userSpaceOnUse">
<stop offset="0.496356" stop-color="#C6B073"/>
<stop offset="1" stop-color="#E0D1A9"/>
</linearGradient>
</defs>
</svg>
