<svg width="52" height="70" viewBox="0 0 52 70" fill="none" xmlns="http://www.w3.org/2000/svg">
<g id="Logo_Mag" filter="url(#filter0_d_2411_2992)">
<path id="Vector" fill-rule="evenodd" clip-rule="evenodd" d="M22.5236 49.292C23.7416 50.0657 24.8111 50.7563 25.9005 51.4149C26.0145 51.4833 26.2786 51.4028 26.4202 51.3093C27.3542 50.6897 28.2744 50.0475 29.3034 49.3413C28.6603 48.9034 28.1043 48.5261 27.3939 48.0432C28.0413 47.0921 29.1014 46.5425 29.9551 45.787C30.8295 45.0124 31.7264 44.2647 32.6699 43.4573C34.1124 44.5616 35.5039 45.626 36.8945 46.6922C38.0728 47.594 39.2486 48.4984 40.4277 49.3993C41.1943 49.9852 41.158 49.9281 40.3716 50.488C39.2753 51.2678 38.2541 52.1522 37.182 52.9683C34.9506 54.668 32.7165 56.3643 30.4601 58.0311C29.9922 58.3773 29.8023 58.7304 29.8127 59.3249C29.8524 61.5249 29.8282 63.7248 29.8282 66C27.2886 66 24.6471 66 22.0471 66C22.0471 63.9974 21.9806 62.0182 22.0756 60.0467C22.1239 59.0532 21.928 58.418 21.0596 57.8096C17.7379 55.4841 14.4904 53.0514 11.2024 50.6758C10.7078 50.3184 10.5792 50.0839 11.1256 49.6278C17.2631 44.4923 23.3834 39.3369 29.5105 34.1894C32.2901 31.8536 35.0533 29.497 37.8683 27.2045C38.7539 26.4836 39.2425 25.6761 39.4082 24.532C39.6758 22.6835 40.1394 20.8643 40.4553 19.0227C40.6211 18.0526 40.6452 17.0582 40.7419 16.0759C40.7575 15.9201 40.817 15.7695 40.8015 15.8284C43.8228 18.6791 46.8605 21.5446 50 24.5078C41.4057 33.5282 32.1779 41.5196 22.5236 49.292ZM35.8794 24.1045C35.8414 24.3252 35.5842 24.5338 35.3865 24.6939C34.8107 25.1603 34.2177 25.6043 33.6247 26.0483C31.4485 27.677 29.2645 29.2962 27.0961 30.9345C26.7922 31.1638 26.554 31.4806 26.1586 31.8856C26.0041 31.8856 25.7098 31.8856 25.5397 31.8856C25.2626 31.5541 25.0856 31.2443 24.825 31.0453C22.1136 28.9847 19.4324 26.8791 16.6356 24.9422C16.0045 24.5043 15.8828 24.0976 15.7853 23.4944C15.1845 19.8051 14.5595 16.12 13.9846 12.4273C13.9319 12.088 14.0649 11.593 14.2988 11.3541C16.4137 9.19314 18.4414 6.91793 20.7583 4.99494C22.382 3.64747 23.5966 1.98411 25.0667 0.532783C25.7771 -0.169081 26.0136 -0.19764 26.7059 0.5674C28.7889 2.87118 30.8408 5.20438 32.9669 7.46748C34.3524 8.94303 35.8319 10.3295 37.2994 11.7254C37.7086 12.1148 37.8147 12.5155 37.7258 13.0452C37.1095 16.731 36.5113 20.4212 35.8794 24.1045ZM25.9178 5.40083C25.5639 8.01097 25.0261 10.4948 23.3937 12.4974C21.7536 14.5095 19.3771 15.5134 16.8574 16.4913C22.2629 17.5169 24.471 21.3447 25.8928 26.0128C27.3007 21.3222 29.5192 17.4892 34.7978 16.4437C29.3741 14.7258 26.1586 11.3031 25.9178 5.40083ZM24.1516 36.0622C23.5267 36.5728 22.9483 37.0539 22.3596 37.523C21.2849 38.3789 20.1886 39.208 19.1329 40.0873C18.6969 40.4499 18.4103 40.501 17.9606 40.07C12.9358 35.2625 7.88333 30.4827 2.85333 25.6796C1.69834 24.5762 1.73632 23.7964 2.84297 22.7034C5.30661 20.2698 7.75816 17.8241 10.2054 15.3749C10.4359 15.1447 10.6016 14.8496 10.7967 14.5839C10.8891 14.6358 10.9823 14.6878 11.0747 14.7397C11.0211 18.5147 11.9905 22.1417 12.6293 25.8163C12.688 26.1547 12.9107 26.5329 13.1732 26.7571C16.4966 29.5957 19.8416 32.4092 23.1814 35.2296C23.474 35.4763 23.7632 35.729 24.1516 36.0622Z" fill="#F2D993"/>
</g>
<defs>
<filter id="filter0_d_2411_2992" x="0" y="0" width="52" height="70" filterUnits="userSpaceOnUse" color-interpolation-filters="sRGB">
<feFlood flood-opacity="0" result="BackgroundImageFix"/>
<feColorMatrix in="SourceAlpha" type="matrix" values="0 0 0 0 0 0 0 0 0 0 0 0 0 0 0 0 0 0 127 0" result="hardAlpha"/>
<feOffset dy="2"/>
<feGaussianBlur stdDeviation="1"/>
<feColorMatrix type="matrix" values="0 0 0 0 0 0 0 0 0 0 0 0 0 0 0 0 0 0 1 0"/>
<feBlend mode="normal" in2="BackgroundImageFix" result="effect1_dropShadow_2411_2992"/>
<feBlend mode="normal" in="SourceGraphic" in2="effect1_dropShadow_2411_2992" result="shape"/>
</filter>
</defs>
</svg>
