<svg width="53" height="56" viewBox="0 0 53 56" fill="none" xmlns="http://www.w3.org/2000/svg">
<g id="ico">
<path id="Vector" fill-rule="evenodd" clip-rule="evenodd" d="M51.2762 5.63215C48.0041 9.67503 44.7289 13.7153 41.4569 17.7582C41.4013 17.8268 41.3734 17.9183 41.3538 17.9573C39.0226 15.6099 36.7608 13.3324 34.4437 10.9991C34.5117 10.9368 34.6285 10.8192 34.7557 10.7145C38.6684 7.49404 42.5814 4.27406 46.4958 1.05567C47.617 0.133958 48.8588 -0.0952003 50.1658 0.560014C51.4217 1.18965 52.0377 2.26831 52.01 3.68743C51.9959 4.41574 51.7325 5.06819 51.2762 5.63215ZM39.2167 20.5335C37.759 22.1292 36.7845 24.2083 34.4424 24.8881C33.4066 21.2499 31.1069 18.932 27.5436 17.9064C27.9032 16.4047 28.9477 15.2488 31.8592 13.129C33.0663 14.3454 34.2809 15.5706 35.497 16.7945C36.7173 18.0225 37.9388 19.2491 39.2167 20.5335ZM24.4413 33.0196C24.4392 33.0009 24.4368 32.9821 24.4345 32.9634C23.5427 33.0484 22.6462 33.1004 21.7602 33.2268C20.6819 33.3807 19.6836 33.7606 18.7838 34.4082C18.6187 34.5271 18.2171 34.5312 18.0809 34.4101C17.9493 34.2931 17.9088 33.8653 18.0184 33.7125C19.1393 32.1504 19.3729 30.3633 19.4225 28.5132C19.4492 27.5216 19.4143 26.509 19.6026 25.5448C20.0937 23.0311 22.0723 21.27 24.5751 20.9744C27.1612 20.6688 29.6114 22.007 30.78 24.3026C32.4937 27.6694 30.775 32.7727 25.7348 33.0169C25.3045 33.0378 24.8725 33.0196 24.4413 33.0196ZM24.2517 17.3814C24.2079 17.5465 24.025 17.773 23.8785 17.7968C19.8568 18.4503 15.9334 21.5789 16.1203 27.7866C16.1307 28.1304 16.146 28.475 16.1366 28.8185C16.1046 29.9947 15.8272 31.0691 15.1788 32.0956C13.813 34.2584 14.9412 37.0702 17.3753 37.7456C18.4373 38.0403 19.4833 37.9354 20.3668 37.2845C21.4401 36.4939 22.6411 36.3272 23.8909 36.3391C25.3524 36.353 26.8085 36.3466 28.2183 35.9083C31.671 34.835 33.6575 32.4173 34.4334 28.9292C34.5367 28.4655 34.6702 28.2191 35.1886 28.0819C36.9385 27.6188 38.4008 26.6467 39.5551 25.2397C41.2959 23.1179 43.0164 20.9792 44.7461 18.848C44.824 18.7521 44.9059 18.6596 45.0507 18.4893C45.0507 25.6459 45.0507 32.7088 45.0507 39.8352C30.0423 39.8352 15.0638 39.8352 0.0161903 39.8352C0.00797094 39.6507 -0.00760253 39.4612 -0.00774673 39.2716C-0.00890032 32.3166 -0.0120727 25.3618 -0.00688154 18.4069C-0.00486276 15.831 1.85141 13.9221 4.40243 13.9168C11.4714 13.902 18.5404 13.9115 25.6093 13.9121C25.6967 13.9121 25.7841 13.9218 25.928 13.9302C25.8504 14.0672 25.8021 14.1755 25.7341 14.2689C25.0464 15.2133 24.5524 16.2475 24.2517 17.3814ZM45.0329 43.1603C45.4834 45.8516 44.1689 48.1196 41.8 48.7122C41.3352 48.8285 40.8395 48.8593 40.3578 48.8609C36.6346 48.8725 32.9114 48.8673 29.1882 48.8673C28.9757 48.8673 28.763 48.8673 28.5164 48.8673C28.5164 50.114 28.5164 51.3177 28.5164 52.5897C29.2495 52.5897 29.9804 52.5897 30.7112 52.5897C31.9222 52.5899 32.5545 52.9726 32.7726 53.8374C32.9744 54.6384 32.61 55.2735 31.6175 55.8503C25.573 55.8503 19.5285 55.8503 13.4839 55.8503C13.1157 55.5048 12.6146 55.2257 12.4055 54.8008C11.9048 53.7835 12.7032 52.6306 13.8633 52.595C14.7435 52.5679 15.6249 52.5765 16.5056 52.5678C16.5193 52.5676 16.5329 52.5473 16.5754 52.5132C16.5754 51.3339 16.5754 50.1316 16.5754 48.8673C16.336 48.8673 16.1254 48.8673 15.9148 48.8673C12.1197 48.8673 8.3245 48.8757 4.52933 48.8641C2.15149 48.8568 0.368612 47.3681 0.0417135 45.0905C-0.0469688 44.4726 0.028303 43.8309 0.028303 43.1603C15.028 43.1603 30.0322 43.1603 45.0329 43.1603Z" fill="#B19F63"/>
</g>
</svg>
