<svg>
	<symbol id="pvp" viewBox="0 0 49 49" fill="none" xmlns="http://www.w3.org/2000/svg">
		<path fill-rule="evenodd" clip-rule="evenodd" d="M46.8616 8.69287C43.172 12.4792 38.1657 17.5994 33.2068 22.6676L29.9509 19.6239C33.1308 16.3878 39.1857 10.2403 40.9273 8.37899C41.434 7.83756 41.6914 7.0598 42.0636 6.39106C41.9027 6.24034 41.7419 6.09035 41.581 5.93963C40.909 6.39691 40.142 6.75543 39.579 7.32613C37.0104 9.92791 32.8624 14.1562 28.6742 18.4305L25.5316 15.4937C30.3486 10.5615 35.8061 4.98115 39.3684 1.34333C39.6704 1.03457 40.1333 0.681908 40.4667 0.64752C42.9527 0.392902 45.4248 0.214377 48.0344 0C47.8399 2.60032 47.668 5.12309 47.4377 7.65757C47.4085 7.97438 47.1306 8.41703 46.8616 8.69287ZM36.2909 28.6402C35.4099 29.5357 34.5653 30.4854 33.5943 31.2917C33.4327 31.4263 32.6146 31.048 32.2811 30.7159C28.9609 27.3971 25.0651 23.4124 21.7719 20.0651C19.6427 17.9016 11.4725 9.51379 9.29875 7.39856C8.76937 6.88347 8.01041 6.62153 7.35601 6.24327C7.20904 6.40716 7.06207 6.57032 6.91511 6.73421C7.36186 7.41685 7.71282 8.19607 8.26998 8.76896C13.5001 14.1364 25.4461 26.2901 30.7018 31.6334C31.0937 32.0321 31.4863 32.4309 32.0274 32.9811C31.1149 33.9088 30.3172 34.8066 29.4018 35.5697C29.2394 35.7043 28.4841 35.3941 28.1756 35.0956C26.5063 33.483 24.2762 31.1841 22.6442 29.5306C17.3139 24.1287 7.74061 14.3976 2.42275 8.98261C2.1215 8.67531 1.77639 8.20558 1.74275 7.86609C1.49415 5.33966 1.3194 2.82787 1.11028 0.175599C3.65113 0.373879 6.11666 0.548014 8.59462 0.782146C8.90391 0.811412 9.33604 1.09457 9.60584 1.36821C16.7363 8.59117 28.7079 20.7865 35.8244 28.0241C35.9524 28.1543 36.0482 28.3175 36.2909 28.6402ZM3.29066 41.8247C3.53487 42.2066 3.88364 42.0917 4.28945 41.6718C5.84686 40.0607 8.57634 37.265 10.1528 35.6721C10.6017 35.2192 10.6639 34.8827 10.3268 34.5447C9.63143 33.8481 9.05527 32.9965 8.22976 32.477C7.69674 32.1419 6.80835 32.2816 5.99967 32.2004C6.20221 30.8571 6.41133 29.464 6.60728 28.1616C7.94095 27.9612 9.32434 27.7526 10.7545 27.5368C10.7531 27.5302 10.8101 27.6231 10.7823 27.7117C10.2127 29.4991 10.9885 30.4554 11.9792 31.3941C13.9322 33.2445 15.8004 35.1893 17.6291 37.1677C18.2666 37.8569 18.9569 38.2322 20.08 37.911C20.3717 37.8284 20.6627 37.854 20.9296 37.832C20.6993 39.2917 20.4799 40.6862 20.2774 41.9754C19.0461 42.1525 17.6642 42.3515 16.1747 42.5651C16.2076 42.6785 16.1426 42.5944 16.1652 42.5088C16.8072 40.0606 14.8557 39.5273 13.8533 38.3032C13.7787 38.2132 13.2676 38.3778 13.0862 38.5593C11.4725 40.1675 8.72916 43.0056 7.12495 44.624C6.60801 45.145 6.75717 45.4603 7.09644 45.6996C7.81665 46.2088 7.58487 46.7297 6.80762 47.476C4.80566 49.4003 5.31675 49.4471 3.78493 47.9275C2.63406 46.7868 1.50951 45.6162 0.321343 44.5157C-0.165622 44.065 -0.0976225 43.6663 0.515105 43.1014C0.826587 42.8154 1.12856 42.5081 1.39691 42.1817C2.11273 41.3089 2.74081 40.9664 3.29066 41.8247ZM15.7536 31.6341C14.8403 30.7005 13.9571 29.884 13.2062 28.9474C13.0731 28.7814 13.3795 28.008 13.6727 27.6926C14.3351 26.98 15.1167 26.1657 15.9188 25.3389L18.9181 28.3972C18.2491 29.0821 17.6217 29.7237 17.0799 30.2776C16.6873 30.6786 16.2947 31.0802 15.7536 31.6341ZM23.2635 32.8282C22.3342 33.7786 21.4473 34.6844 20.6313 35.5192C20.5033 35.6502 20.3425 35.7482 20.0251 35.9963C19.1433 35.0949 18.2089 34.2308 17.4156 33.2379C17.2832 33.0718 17.6554 32.2348 17.9822 31.8938C18.6776 31.171 19.4066 30.4174 20.1487 29.652L23.2635 32.8282ZM31.7927 36.8165C33.6016 34.8315 35.502 32.9335 37.4359 31.0744C38.1094 30.4276 38.4764 29.7252 38.1627 28.5838C38.0808 28.2882 38.1064 27.9919 38.0845 27.7212C39.5118 27.9546 40.8747 28.1777 42.1345 28.3841C42.3078 29.6352 42.5015 31.04 42.7107 32.5523C42.8218 32.5194 42.7392 32.5853 42.6558 32.5626C40.2627 31.9099 39.7421 33.8935 38.5459 34.9127C38.4574 34.988 38.6183 35.5068 38.7959 35.6919C40.368 37.3316 43.1413 40.1192 44.7236 41.7501C45.2325 42.2747 45.5403 42.1232 45.7743 41.7786C46.2722 41.0462 46.7811 41.2818 47.5108 42.072C49.3914 44.1067 49.4368 43.5865 47.9517 45.1435C46.8367 46.3134 45.6931 47.4563 44.6176 48.6643C44.1774 49.1581 43.787 49.0901 43.2356 48.4667C42.9556 48.1506 42.6551 47.8433 42.3363 47.5712C41.4837 46.8432 41.1481 46.2051 41.9875 45.6462C42.3604 45.3974 42.2478 45.0433 41.8384 44.6313C40.2634 43.0488 37.531 40.2743 35.9743 38.6727C35.5312 38.2169 35.2022 38.1539 34.8724 38.4956C34.191 39.2024 33.3589 39.7877 32.8515 40.627C32.5232 41.1684 32.6599 42.0713 32.5809 42.8936C31.2685 42.6873 29.907 42.4744 28.634 42.2754C28.4373 40.9204 28.2341 39.5148 28.0228 38.0618C28.0169 38.0625 28.1068 38.0047 28.1939 38.0332C29.9414 38.6112 30.8758 37.824 31.7927 36.8165Z" fill="currentColor"/>
	</symbol>
	<symbol id="pve" viewBox="0 0 49 41" fill="none" xmlns="http://www.w3.org/2000/svg">
		<path fill-rule="evenodd" clip-rule="evenodd" d="M45.9546 18.8721L36.4466 22.0853L32.2498 16.7027L35.0275 10.7643L38.8269 11.6441L41.9839 9.58749L41.2685 6.02299L35.7568 4.57724L32.2418 1.44503L31.8232 0L36.2497 1.93875L44.0061 2.61536L49 12.046L45.9546 18.8721ZM29.5625 17.2507L34.3245 23.4211L34.3734 23.4045C34.4762 23.5281 34.579 23.651 34.6818 23.7746C35.1566 23.6315 35.6306 23.4891 36.125 23.3402C36.125 24.3435 36.1688 25.258 36.1141 26.1673C36.0434 27.3565 35.996 28.4379 36.9082 29.468C37.7024 30.3636 37.3633 31.3048 36.2723 31.8303C35.6029 32.152 34.8656 32.3291 34.1663 32.5922C33.0534 33.0115 31.9471 33.4481 30.8379 33.8775C30.8715 33.957 30.905 34.0365 30.9386 34.1161C31.3484 34.1587 31.7575 34.2006 32.2622 34.2527C32.0405 35.0074 31.8618 35.6384 31.6664 36.2645C31.5388 36.675 31.188 37.1305 31.2791 37.4745C31.5657 38.5596 31.0502 38.9694 30.1313 39.2651C29.9388 38.5249 29.7681 37.8678 29.5406 36.9909C28.2972 38.0955 29.2941 39.453 28.6866 40.4217C28.1798 40.4217 27.6788 40.4217 27.1494 40.4217C27.0429 39.5803 26.9474 38.8314 26.8533 38.0825C26.6848 38.0745 26.5171 38.0673 26.3487 38.0601C26.232 39.0273 26.1153 39.9952 25.9935 41C25.4808 41 24.9901 41 24.4993 41C24.0092 41 23.5177 41 23.0058 41C22.884 39.9952 22.7673 39.0273 22.6499 38.0601C22.4822 38.0673 22.3137 38.0745 22.146 38.0825C22.0512 38.8314 21.9564 39.5803 21.8499 40.4217C21.3197 40.4217 20.8187 40.4217 20.3126 40.4217C19.7044 39.453 20.7013 38.0955 19.4587 36.9909C19.2304 37.8678 19.0598 38.5249 18.8672 39.2651C17.9484 38.9694 17.4335 38.5596 17.7201 37.4745C17.8106 37.1305 17.4605 36.675 17.3322 36.2645C17.1367 35.6384 16.9595 35.0074 16.7371 34.2527C17.241 34.2006 17.6509 34.1587 18.0607 34.1161C18.0942 34.0365 18.1278 33.957 18.1613 33.8775C17.0521 33.4481 15.9459 33.0115 14.833 32.5922C14.1337 32.3291 13.3964 32.152 12.7277 31.8303C11.636 31.3048 11.2969 30.3636 12.091 29.468C13.0033 28.4379 12.9552 27.3565 12.8852 26.1673C12.8312 25.258 12.8742 24.3435 12.8742 23.3402C13.3687 23.4891 13.8427 23.6315 14.3174 23.7746C14.4203 23.651 14.5224 23.5281 14.6252 23.4045L14.6748 23.4211L19.4368 17.2507L16.7714 9.74796C18.1227 8.88702 19.657 8.27041 21.2978 7.98776C22.0329 7.86126 22.7812 7.80415 23.5257 7.74488C23.8203 7.72102 24.1215 7.77885 24.4993 7.80488C24.8778 7.77885 25.1789 7.72102 25.4736 7.74488C26.2181 7.80415 26.9663 7.86126 27.7007 7.98776C29.3422 8.27041 30.8759 8.88702 32.2279 9.74796L29.5625 17.2507ZM18.084 27.5047C16.8166 26.6379 15.6957 26.6076 14.4049 27.5538C15.7643 27.4895 16.2952 27.9781 16.3302 29.3726C16.3491 30.1063 17.1017 31.0511 17.7858 31.4913C19.4762 32.5792 21.2344 32.0617 22.5113 30.4395C20.9755 29.4239 19.5163 28.4841 18.084 27.5047ZM25.9848 35.3652L25.0608 32.4737C24.8858 31.9265 24.1135 31.9265 23.9385 32.4737L23.0145 35.3652C22.9321 35.6218 23.1232 35.8842 23.3923 35.8842H25.6063C25.8754 35.8842 26.0664 35.6218 25.9848 35.3652ZM26.4879 30.4395C27.7649 32.0617 29.5231 32.5792 31.2135 31.4913C31.8968 31.0511 32.6501 30.1063 32.6684 29.3726C32.7034 27.9781 33.2343 27.4895 34.5943 27.5538C33.3035 26.6076 32.1827 26.6379 30.9152 27.5047C29.483 28.4841 28.0238 29.4239 26.4879 30.4395ZM13.244 4.57724L7.73154 6.02299L7.01688 9.58749L10.1731 11.6441L13.9732 10.7643L16.751 16.7027L12.5534 22.0853L3.04609 18.8721L0 12.046L4.99466 2.61536L12.7503 1.93875L17.1776 0L16.7582 1.44503L13.244 4.57724Z" fill="currentColor"/>
	</symbol>
	<symbol id="trade" viewBox="0 0 49 49" fill="none" xmlns="http://www.w3.org/2000/svg">
		<path fill-rule="evenodd" clip-rule="evenodd" d="M31.8244 6.36958H25.2755L21.4562 0.49008L27.4587 1.95959L31.8244 0L36.1894 1.95959L42.1919 0.49008L38.3726 6.36958H31.8244ZM22.9862 9.31007H40.6618V14.2101H22.9862V9.31007ZM33.3428 32.2312C33.3289 32.2319 33.3157 32.2334 33.3018 32.2341C33.2974 32.278 33.2864 32.3219 33.2886 32.3658C33.304 32.801 33.247 33.2275 33.0912 33.6327C32.8908 34.1528 32.5565 34.5697 32.0782 34.8689C31.6255 35.1527 31.1369 35.2536 30.6117 35.1585C30.4845 35.1358 30.3572 35.0846 30.2417 35.0232C29.7333 34.7533 29.2923 34.4073 28.9354 33.9465C28.517 33.4074 28.2369 32.812 28.0716 32.1551C28.0211 31.9547 27.9597 31.7594 27.9809 31.5502C27.9875 31.4873 27.9992 31.4251 28.0087 31.363C28.0175 31.3608 28.0255 31.3586 28.0343 31.3564C28.351 32.014 28.89 32.4141 29.5607 32.6372C30.1597 32.8354 30.3967 32.8573 30.5503 32.7864C30.502 32.741 30.4669 32.6928 30.4201 32.6672C30.0288 32.4536 29.6895 32.1763 29.3954 31.8421C29.0809 31.4851 28.8996 31.0718 28.8623 30.5971C28.8542 30.4911 28.8381 30.3857 28.8388 30.2797C28.8388 29.6938 29.0356 29.1905 29.4686 28.7845C29.8635 28.4137 30.3455 28.2374 30.8648 28.1394C31.0637 28.1014 31.2627 28.0597 31.4631 28.0348C31.6021 28.018 31.7447 28.026 31.8858 28.0231C32.3225 28.015 32.7496 28.0845 33.1672 28.2096C33.4152 28.2835 33.6397 28.4086 33.8394 28.5907C33.3311 28.5856 32.8579 28.6982 32.4373 28.9828C31.9297 29.3266 31.4507 29.8576 31.466 30.0748C31.5157 30.0522 31.5618 30.0368 31.6021 30.0119C32.0314 29.7501 32.4944 29.5826 32.9939 29.5277C33.421 29.4809 33.8357 29.5394 34.2182 29.7493C34.4062 29.8525 34.6052 29.9483 34.7661 30.0858C35.0389 30.3199 35.2641 30.6015 35.3621 30.957C35.4068 31.1194 35.4214 31.2913 35.4324 31.4602C35.4419 31.6138 35.4294 31.7682 35.4236 31.9225C35.4097 32.3007 35.2656 32.6408 35.1091 32.9758C35.0184 33.1711 34.9365 33.3745 34.8151 33.5493C34.5898 33.8726 34.3492 34.1864 34.0954 34.4878C33.9301 34.6838 33.715 34.8294 33.4576 34.9135C33.6924 34.4878 33.7904 34.035 33.7553 33.5537C33.7202 33.0804 33.628 32.624 33.3428 32.2312ZM27.4375 27.5257C27.4572 27.7049 27.4616 27.8819 27.4375 28.0553V27.5257ZM31.8244 17.1499H31.8697H41.1124C41.1124 17.1499 49.8364 27.9624 48.9346 35.2799C48.0328 42.5982 41.6017 45.0801 41.6017 45.0801H31.8697H31.8244H27.4375V41.1602H23.518V35.77H27.4375V35.6113C27.7052 35.702 27.978 35.7708 28.2706 35.7561C28.302 35.7539 28.3459 35.7678 28.3642 35.7905C28.4885 35.9448 28.6085 36.1021 28.7255 36.2623C28.7438 36.2872 28.7569 36.3354 28.7452 36.3618C28.607 36.6734 28.4388 36.9667 28.2318 37.2395C28.0599 37.4656 27.8888 37.6916 27.6533 37.8532C27.1713 38.1831 26.6812 38.5013 26.1963 38.8283C25.8423 39.066 25.4715 39.2854 25.1468 39.5583C24.8096 39.8421 24.5185 40.18 24.2091 40.4967C24.1353 40.5721 24.0702 40.6569 24.0014 40.7374C24.0073 40.744 24.0131 40.7506 24.0197 40.7571C24.038 40.7484 24.057 40.741 24.0738 40.7301C24.3364 40.5574 24.5938 40.3775 24.8608 40.2122C25.4818 39.8267 26.14 39.5261 26.856 39.3593C27.1939 39.281 27.5333 39.2035 27.8646 39.1018C28.5734 38.8846 29.1994 38.5218 29.7319 38.0032C29.8855 37.8532 30.0369 37.7004 30.2022 37.5643C30.483 37.3332 30.7924 37.1547 31.1691 37.1254C31.387 37.1079 31.605 37.0874 31.82 37.0523C31.9378 37.0333 32.0504 36.9806 32.1652 36.9433C32.1711 36.9535 32.1762 36.963 32.182 36.9733C32.1711 37.0055 32.1616 37.0376 32.1499 37.0691C32.0094 37.4451 31.7776 37.7603 31.515 38.0602C31.3731 38.2226 31.2663 38.4157 31.1471 38.5979C31.1303 38.6242 31.1362 38.6652 31.131 38.6995C31.1398 38.7025 31.1486 38.7061 31.1566 38.7098C31.1742 38.6937 31.1925 38.6791 31.2086 38.6615C31.4433 38.4026 31.7118 38.1934 32.0336 38.0427C32.664 37.7486 33.2111 37.35 33.5651 36.7297C33.579 36.7056 33.6112 36.6807 33.6375 36.677C33.8379 36.6485 34.0383 36.6236 34.2395 36.6032C34.2665 36.6002 34.3089 36.6185 34.3243 36.6405C34.4252 36.786 34.5335 36.9279 34.6147 37.0837C34.8202 37.4773 35.0286 37.8752 35.0689 38.3258C35.1201 38.9043 35.1471 39.4859 35.1881 40.0652C35.2195 40.4945 35.2393 40.9254 35.2978 41.3504C35.3358 41.6283 35.4324 41.8982 35.5077 42.1703C35.5662 42.3781 35.632 42.5829 35.6964 42.7884C35.7125 42.8382 35.7359 42.885 35.7556 42.9332C35.7798 42.9069 35.7827 42.8864 35.7812 42.8659C35.7622 42.5624 35.7337 42.2581 35.7242 41.9538C35.7044 41.3452 35.7322 40.7388 35.8836 40.1464C35.9809 39.7638 36.1067 39.3893 36.2054 39.0082C36.4212 38.178 36.4431 37.3463 36.2091 36.5132C36.1594 36.3376 36.1162 36.1592 36.0891 35.9785C36.0497 35.7152 36.0102 35.4453 36.1001 35.1863C36.1806 34.9537 36.2874 34.7299 36.3824 34.5024C36.4007 34.4585 36.4241 34.4154 36.4373 34.37C36.4753 34.2391 36.5097 34.1074 36.547 33.9721C36.566 33.9823 36.5755 33.9853 36.5814 33.9918C36.6033 34.016 36.6238 34.0401 36.6435 34.0657C36.8549 34.3334 37.0122 34.6275 37.1211 34.9522C37.1987 35.1834 37.3091 35.4028 37.4108 35.6245C37.4349 35.6771 37.4686 35.7386 37.5607 35.7393C37.5527 35.7064 37.549 35.683 37.5417 35.661C37.4364 35.3399 37.3735 35.0144 37.4144 34.675C37.4269 34.5726 37.4356 34.4702 37.4349 34.3671C37.4313 33.7702 37.3581 33.188 37.0458 32.6591C37.0283 32.6298 37.0209 32.5816 37.0334 32.5523C37.1065 32.368 37.184 32.1851 37.266 32.0044C37.2791 31.9767 37.3201 31.9452 37.3493 31.9445C37.6156 31.935 37.8833 31.913 38.148 31.9328C38.4157 31.9532 38.6929 31.9803 38.943 32.0688C39.3387 32.2093 39.7205 32.3929 40.0987 32.5772C40.5031 32.7754 40.8951 32.9992 41.2952 33.2055C41.4554 33.2882 41.6185 33.3694 41.7882 33.4257C42.0712 33.5193 42.3601 33.5968 42.6483 33.6744C42.875 33.7351 43.1047 33.7863 43.3329 33.8397C43.3914 33.8536 43.4521 33.858 43.5121 33.8675C43.5143 33.858 43.5157 33.8492 43.5179 33.8404C43.4974 33.8287 43.477 33.8141 43.455 33.8053C43.0952 33.6693 42.7617 33.4835 42.4289 33.2926C41.7779 32.9202 41.2001 32.4616 40.7013 31.8998C40.3502 31.5049 39.9677 31.1428 39.5172 30.859C39.2005 30.6593 38.8721 30.483 38.5166 30.3623C38.1853 30.2504 37.8343 30.1999 37.519 30.0353C37.3172 29.93 37.0963 29.8503 36.9456 29.6696C36.7964 29.4897 36.664 29.2958 36.5207 29.11C36.46 29.031 36.3941 28.9564 36.3261 28.884C36.2647 28.8182 36.1967 28.7575 36.1206 28.6836C36.1645 28.6734 36.1857 28.6668 36.2076 28.6631C36.547 28.6068 36.8834 28.6046 37.2235 28.6763C37.4773 28.7297 37.7384 28.7465 37.9974 28.7728C38.0522 28.7787 38.1093 28.7538 38.1656 28.7429C38.1656 28.7304 38.1656 28.7187 38.1656 28.7063C38.1349 28.696 38.1056 28.6843 38.0749 28.677C37.7831 28.6068 37.4971 28.522 37.2484 28.3435C36.9836 28.154 36.7116 27.9785 36.4051 27.8614C36.0277 27.7173 35.6496 27.5835 35.2371 27.5981C35.2086 27.5988 35.1691 27.5857 35.153 27.5652C35.0242 27.4014 34.8984 27.2353 34.7756 27.0678C34.7602 27.0473 34.7551 27.0049 34.7653 26.9822C34.9065 26.664 35.0813 26.3678 35.2927 26.0891C35.4602 25.8675 35.6306 25.6495 35.8602 25.4922C36.3422 25.1623 36.8322 24.8442 37.3172 24.5179C37.6712 24.2795 38.0317 24.0491 38.3682 23.7887C38.5876 23.619 38.7712 23.4039 38.9665 23.2057C39.1244 23.0455 39.2766 22.8802 39.4294 22.7156C39.4594 22.6834 39.4792 22.6417 39.504 22.6051C39.4682 22.6008 39.4484 22.6088 39.4324 22.6212C39.3204 22.7076 39.2188 22.81 39.0974 22.8802C38.6702 23.1274 38.2431 23.379 37.8021 23.6014C37.3091 23.8508 36.773 23.9818 36.234 24.0966C35.4221 24.27 34.6805 24.5984 34.0398 25.1302C33.7911 25.3364 33.5636 25.569 33.3164 25.7775C32.988 26.0547 32.6143 26.2369 32.1747 26.2617C32.0116 26.2705 31.8471 26.2822 31.6862 26.3085C31.5743 26.3268 31.466 26.3715 31.3453 26.4073C31.349 26.3729 31.3468 26.3568 31.3519 26.3429C31.4689 26.0394 31.6108 25.7519 31.831 25.5039C32.0087 25.3028 32.1682 25.0841 32.3276 24.8683C32.3693 24.812 32.381 24.7352 32.4059 24.6671C32.3949 24.6613 32.3832 24.6554 32.3715 24.6489C32.3539 24.6642 32.3349 24.6774 32.3195 24.6942C32.0826 24.9561 31.812 25.1667 31.4865 25.3181C30.8611 25.6078 30.3236 26.0101 29.963 26.615C29.9498 26.6377 29.925 26.6648 29.9023 26.6684C29.6931 26.7013 29.4839 26.7306 29.274 26.7555C29.247 26.7584 29.2038 26.7394 29.1899 26.7174C29.0495 26.4943 28.8981 26.2771 28.7811 26.0423C28.6202 25.7175 28.4651 25.384 28.4373 25.0146C28.3934 24.4287 28.3612 23.8413 28.3196 23.2554C28.2903 22.8356 28.2684 22.415 28.212 21.9988C28.1769 21.7398 28.0862 21.4882 28.016 21.2351C27.9539 21.012 27.8858 20.7904 27.8186 20.5688C27.8025 20.5161 27.7769 20.4663 27.7557 20.4151C27.7461 20.4173 27.7366 20.4195 27.7271 20.4217C27.7279 20.4481 27.7279 20.4737 27.7301 20.4993C27.7527 20.7487 27.7871 20.9967 27.7973 21.2461C27.8251 21.9329 27.7908 22.6154 27.624 23.2839C27.534 23.6446 27.4104 23.9971 27.3175 24.357C27.2634 24.5677 27.2239 24.7791 27.1954 24.9904H17.503C19.7696 20.6375 22.5818 17.1499 22.5818 17.1499H31.8244ZM24.4973 32.8303H3.91954V27.9302H24.4973V32.8303ZM20.5778 41.1602H0V36.2601H20.5778V41.1602ZM24.4973 49H3.91954V44.0999H24.4973V49Z" fill="currentColor"/>
	</symbol>
	<symbol id="clans" viewBox="0 0 49 49" fill="none" xmlns="http://www.w3.org/2000/svg">
		<path fill-rule="evenodd" clip-rule="evenodd" d="M46.8441 10.8025V2.97945H49V10.8025H46.8441ZM24.7391 49L5.31582 38.0476L5.31509 0H12.5206V12.9782H36.644V0H43.8502L43.8495 38.0476L24.7391 49ZM31.002 28.3552L24.4993 16.7746L17.9966 28.3552L11.7929 22.3166L14.4834 36.5447H24.4993H34.5151L37.2056 22.3166L31.002 28.3552ZM15.4392 2.97945H33.3933V10.8025H15.4392V2.97945ZM0 2.97945H2.32261V10.8025H0V2.97945Z" fill="currentColor"/>
	</symbol>
	<symbol id="proffesion" viewBox="0 0 49 49" fill="none" xmlns="http://www.w3.org/2000/svg">
	<path fill-rule="evenodd" clip-rule="evenodd" d="M47.1516 10.2479L45.2328 8.40443L43.3872 6.62965L44.0353 6.00661L45.4032 5.79893L46.6731 7.02014L48.0155 8.3101L47.7997 9.62491L47.1516 10.2479ZM46.8487 11.094C46.8487 11.094 49.1113 14.0644 48.9957 18.5602C48.8553 24.0228 46.2606 27.5892 46.2606 27.5892C46.2606 27.5892 45.7068 28.1413 45.7427 27.0919C45.7785 26.0418 45.2321 21.1738 44.7792 19.3412C44.3564 17.6315 43.6337 17.2198 42.8553 17.2081C41.505 17.1877 40.4143 18.2743 40.4143 18.2743L38.9351 19.6959L33.9776 14.931C33.9776 14.931 36.6191 11.9854 36.5665 11.1635C36.5167 10.3979 35.7845 9.36166 35.0325 8.79858L35.012 8.81686C35.012 8.81686 35.0091 8.80151 34.9886 8.76641C34.9469 8.73642 34.9052 8.70132 34.8642 8.67427C34.8723 8.66695 34.8884 8.65087 34.8971 8.64282C34.7691 8.48706 34.4977 8.21357 33.9023 7.74995C32.8343 6.91923 31.2388 7.74922 31.2388 7.74922L29.3149 5.90058V5.18906L32.1254 2.48776L34.7143 0H35.4538L37.3777 1.84937C37.3777 1.84937 36.5138 3.3821 37.3785 4.4088C38.2431 5.43549 38.4882 5.47571 38.4882 5.47571L38.4092 5.55835C38.595 5.72507 38.9798 5.97736 39.6718 6.04464C40.7288 6.14701 41.3674 6.25597 41.8912 6.3291C42.4157 6.40296 46.8487 11.094 46.8487 11.094ZM35.7486 17.5196L37.6667 19.3632L31.1137 25.6616C29.9791 24.6575 28.3998 23.2623 27.1855 22.2019L33.9023 15.7456L35.7486 17.5196ZM45.7134 38.8638C46.1677 39.617 45.8458 41.1315 45.1699 41.7655C44.3703 42.515 42.5591 42.6715 42.115 42.2642C41.6703 41.8576 41.4969 40.6203 41.4969 40.6203L17.1527 19.1906C17.1527 19.1906 16.6252 19.0926 15.8337 18.9902C16.1878 18.52 16.4021 17.9482 16.4021 17.3237C16.4021 16.9127 16.3078 16.5244 16.1454 16.1712C17.7715 16.0761 18.9449 16.0739 18.9449 16.0739L44.0894 38.2773C44.0894 38.2773 45.2591 38.1106 45.7134 38.8638ZM13.4373 19.0334C12.4549 19.0334 11.659 18.2677 11.659 17.3237C11.659 16.3796 12.4549 15.614 13.4373 15.614C14.4197 15.614 15.2163 16.3796 15.2163 17.3237C15.2163 18.2677 14.4197 19.0334 13.4373 19.0334ZM13.4373 14.4739C13.1769 14.4739 12.9281 14.5171 12.6875 14.5778C13.0979 11.6725 11.9106 11.0114 10.6129 10.0264C9.22081 8.9697 6.51053 9.50133 6.51053 9.50133L5.80753 9.40919L0.804672 4.77077L2.21138 4.95432C2.21138 4.95432 5.37228 7.53788 6.09649 7.76823C6.82142 7.99931 11.25 7.33532 12.6319 8.72984C14.3912 10.5032 14.8864 12.5595 14.7701 14.7913C14.3678 14.5953 13.9194 14.4739 13.4373 14.4739ZM4.94288 10.9536C4.94288 10.9536 4.40009 13.5606 5.50468 14.8944C6.56466 16.1749 7.27204 17.3398 10.5244 16.8286C10.4951 16.9902 10.4732 17.154 10.4732 17.3237C10.4732 17.8831 10.6465 18.4008 10.9362 18.841C8.43735 19.0487 6.13672 18.6341 4.16308 16.8403C2.70809 15.5167 3.38108 11.2578 3.13895 10.5624C2.89609 9.86696 0.196047 6.83879 0.196047 6.83879L0 5.48741L4.84485 10.2779L4.94288 10.9536ZM21.5323 34.8711L8.67143 47.2317H7.95162C7.95162 47.2317 6.39348 45.7596 6.39348 45.734C6.36715 45.734 4.90776 44.3059 4.90776 44.3059V43.6134L18.0729 30.9596L21.5323 34.8711ZM23.5162 25.7281L27.2806 29.3464L25.5622 30.9976L21.9961 27.1899L23.5162 25.7281ZM11.8901 22.9398C11.8901 22.9398 11.8879 21.5957 12.0094 19.8063C12.4344 20.033 12.9164 20.1734 13.4373 20.1734C13.9684 20.1734 14.4599 20.0279 14.8908 19.7931C15.0086 20.637 15.1264 21.2052 15.1264 21.2052L37.2878 44.741C37.2878 44.741 38.576 44.9026 39.001 45.3282C39.426 45.7538 39.2702 47.4957 38.4933 48.2664C37.8364 48.9187 36.2622 49.2339 35.4765 48.8002C34.6909 48.3659 34.8606 47.2412 34.8606 47.2412L11.8901 22.9398Z" fill="currentColor"/>
	</symbol>
	<symbol id="platforms" viewBox="0 0 53 45" fill="none" xmlns="http://www.w3.org/2000/svg">
		<path id="Vector" fill-rule="evenodd" clip-rule="evenodd" d="M52.1492 40.5839C52.1465 42.9991 50.6189 44.5422 48.2271 44.545C45.937 44.5479 43.6469 44.5495 41.3569 44.5447C39.066 44.54 37.4971 42.981 37.4947 40.6977C37.4895 35.9131 37.4895 31.1286 37.4947 26.344C37.4971 24.0608 39.0669 22.503 41.3577 22.4989C43.6478 22.4949 45.9378 22.4959 48.2279 22.4987C50.6211 22.5016 52.1465 24.0426 52.1492 26.4599C52.1519 28.8139 52.1498 31.1678 52.1498 33.5218C52.1498 35.8758 52.1519 38.2297 52.1492 40.5839ZM46.6482 26.2128C45.3955 26.2128 44.2078 26.2128 42.9939 26.2128C42.9939 26.881 42.9664 27.5107 43.0002 28.1371C43.0519 29.091 43.8768 29.8445 44.82 29.8452C45.7662 29.846 46.5873 29.099 46.6414 28.1403C46.677 27.5138 46.6482 26.8835 46.6482 26.2128ZM43.7902 18.825C42.4193 18.8694 41.0211 18.7624 39.6836 18.9993C36.4251 19.5765 34.0326 22.4343 33.8362 25.7555C33.8294 25.8692 33.8218 25.9829 33.8122 26.1342C22.843 26.1342 11.8818 26.1342 0.851017 26.1342C0.851017 25.8813 0.851017 25.6725 0.851017 25.4639C0.851017 19.0914 0.850383 12.7189 0.851333 6.3463C0.851967 2.7824 3.17265 0.450824 6.7209 0.450666C17.4644 0.449713 28.2078 0.449713 38.9512 0.450666C42.4982 0.450824 44.82 2.78304 44.8211 6.34535C44.8225 10.2875 44.8214 14.2296 44.8214 18.1719C44.8214 18.3615 44.8214 18.5512 44.8214 18.8234C44.4601 18.8234 44.1247 18.8142 43.7902 18.825ZM33.8017 29.8839C33.8017 32.3328 33.8017 34.7359 33.8017 37.1935C32.3957 37.1935 31.0157 37.1935 29.5452 37.1935C30.1278 38.4025 30.6647 39.5354 31.2271 40.6553C31.2833 40.7673 31.4877 40.8363 31.6346 40.8627C31.8574 40.9027 32.0949 40.8606 32.3177 40.9008C33.2358 41.0664 33.8934 41.9278 33.8232 42.8489C33.7548 43.7489 33.0116 44.4833 32.0963 44.5392C31.7732 44.5589 31.4479 44.5455 31.1237 44.5457C25.363 44.5458 19.6026 44.5482 13.8419 44.5439C12.4085 44.5428 11.4608 43.2759 11.9772 42.044C12.2945 41.2871 12.8891 40.8398 13.7159 40.8887C14.2552 40.9205 14.4878 40.7023 14.6942 40.2534C15.1551 39.2522 15.6653 38.2737 16.1998 37.1965C15.917 37.1965 15.7177 37.1965 15.5184 37.1965C12.5426 37.1965 9.56709 37.1999 6.59138 37.1956C3.23504 37.1907 0.861308 34.8157 0.851333 31.4602C0.84975 30.9467 0.851175 30.4331 0.851175 29.8839C11.8461 29.8839 22.8025 29.8839 33.8017 29.8839Z" fill="currentColor"/>
	</symbol>
	<symbol id="grafic" viewBox="0 0 53 56" fill="none" xmlns="http://www.w3.org/2000/svg">
		<path id="Vector" fill-rule="evenodd" clip-rule="evenodd" d="M51.2762 5.63215C48.0041 9.67503 44.7289 13.7153 41.4569 17.7582C41.4013 17.8268 41.3734 17.9183 41.3538 17.9573C39.0226 15.6099 36.7608 13.3324 34.4437 10.9991C34.5117 10.9368 34.6285 10.8192 34.7557 10.7145C38.6684 7.49404 42.5814 4.27406 46.4958 1.05567C47.617 0.133958 48.8588 -0.0952003 50.1658 0.560014C51.4217 1.18965 52.0377 2.26831 52.01 3.68743C51.9959 4.41574 51.7325 5.06819 51.2762 5.63215ZM39.2167 20.5335C37.759 22.1292 36.7845 24.2083 34.4424 24.8881C33.4066 21.2499 31.1069 18.932 27.5436 17.9064C27.9032 16.4047 28.9477 15.2488 31.8592 13.129C33.0663 14.3454 34.2809 15.5706 35.497 16.7945C36.7173 18.0225 37.9388 19.2491 39.2167 20.5335ZM24.4413 33.0196C24.4392 33.0009 24.4368 32.9821 24.4345 32.9634C23.5427 33.0484 22.6462 33.1004 21.7602 33.2268C20.6819 33.3807 19.6836 33.7606 18.7838 34.4082C18.6187 34.5271 18.2171 34.5312 18.0809 34.4101C17.9493 34.2931 17.9088 33.8653 18.0184 33.7125C19.1393 32.1504 19.3729 30.3633 19.4225 28.5132C19.4492 27.5216 19.4143 26.509 19.6026 25.5448C20.0937 23.0311 22.0723 21.27 24.5751 20.9744C27.1612 20.6688 29.6114 22.007 30.78 24.3026C32.4937 27.6694 30.775 32.7727 25.7348 33.0169C25.3045 33.0378 24.8725 33.0196 24.4413 33.0196ZM24.2517 17.3814C24.2079 17.5465 24.025 17.773 23.8785 17.7968C19.8568 18.4503 15.9334 21.5789 16.1203 27.7866C16.1307 28.1304 16.146 28.475 16.1366 28.8185C16.1046 29.9947 15.8272 31.0691 15.1788 32.0956C13.813 34.2584 14.9412 37.0702 17.3753 37.7456C18.4373 38.0403 19.4833 37.9354 20.3668 37.2845C21.4401 36.4939 22.6411 36.3272 23.8909 36.3391C25.3524 36.353 26.8085 36.3466 28.2183 35.9083C31.671 34.835 33.6575 32.4173 34.4334 28.9292C34.5367 28.4655 34.6702 28.2191 35.1886 28.0819C36.9385 27.6188 38.4008 26.6467 39.5551 25.2397C41.2959 23.1179 43.0164 20.9792 44.7461 18.848C44.824 18.7521 44.9059 18.6596 45.0507 18.4893C45.0507 25.6459 45.0507 32.7088 45.0507 39.8352C30.0423 39.8352 15.0638 39.8352 0.0161903 39.8352C0.00797094 39.6507 -0.00760253 39.4612 -0.00774673 39.2716C-0.00890032 32.3166 -0.0120727 25.3618 -0.00688154 18.4069C-0.00486276 15.831 1.85141 13.9221 4.40243 13.9168C11.4714 13.902 18.5404 13.9115 25.6093 13.9121C25.6967 13.9121 25.7841 13.9218 25.928 13.9302C25.8504 14.0672 25.8021 14.1755 25.7341 14.2689C25.0464 15.2133 24.5524 16.2475 24.2517 17.3814ZM45.0329 43.1603C45.4834 45.8516 44.1689 48.1196 41.8 48.7122C41.3352 48.8285 40.8395 48.8593 40.3578 48.8609C36.6346 48.8725 32.9114 48.8673 29.1882 48.8673C28.9757 48.8673 28.763 48.8673 28.5164 48.8673C28.5164 50.114 28.5164 51.3177 28.5164 52.5897C29.2495 52.5897 29.9804 52.5897 30.7112 52.5897C31.9222 52.5899 32.5545 52.9726 32.7726 53.8374C32.9744 54.6384 32.61 55.2735 31.6175 55.8503C25.573 55.8503 19.5285 55.8503 13.4839 55.8503C13.1157 55.5048 12.6146 55.2257 12.4055 54.8008C11.9048 53.7835 12.7032 52.6306 13.8633 52.595C14.7435 52.5679 15.6249 52.5765 16.5056 52.5678C16.5193 52.5676 16.5329 52.5473 16.5754 52.5132C16.5754 51.3339 16.5754 50.1316 16.5754 48.8673C16.336 48.8673 16.1254 48.8673 15.9148 48.8673C12.1197 48.8673 8.3245 48.8757 4.52933 48.8641C2.15149 48.8568 0.368612 47.3681 0.0417135 45.0905C-0.0469688 44.4726 0.028303 43.8309 0.028303 43.1603C15.028 43.1603 30.0322 43.1603 45.0329 43.1603Z" fill="currentColor"/>
	</symbol>
	<symbol id="world" viewBox="0 0 51 51" fill="none" xmlns="http://www.w3.org/2000/svg">
		<path id="Vector" fill-rule="evenodd" clip-rule="evenodd" d="M1.07474 29.8303C1.15709 30.369 1.13734 31.0764 1.46581 31.3791C1.7624 31.6524 2.4702 31.4978 2.99666 31.4987C6.6083 31.5045 10.2201 31.3855 13.8317 31.3855C14.02 31.3855 14.2083 31.3855 14.4535 31.3855C14.103 26.9324 14.1388 22.4253 14.6314 17.8783C14.4467 17.8668 14.2934 17.8491 14.1402 17.8491C10.2221 17.8476 6.30409 17.8541 2.38605 17.8382C2.00363 17.8366 1.85907 17.9706 1.75892 18.317C1.24278 20.1046 0.885532 21.9188 0.768471 23.7782C0.759438 23.9204 0.716198 24.0605 0.804996 24.2014C0.804996 25.1059 0.804996 26.0104 0.804996 26.9148C0.815449 27.887 0.926575 28.8615 1.07474 29.8303ZM14.5278 14.9512C14.9532 14.9534 15.0581 14.8001 15.1247 14.4158C15.7927 10.5572 16.758 6.7882 18.6082 3.30123C18.9391 2.67741 19.3259 2.08344 19.7384 1.38894C12.1188 3.39569 6.64005 7.89888 3.05513 14.9038C3.29467 14.9201 3.44542 14.9392 3.5963 14.9394C7.24007 14.941 10.8841 14.9326 14.5278 14.9512ZM17.9609 14.9002C22.9746 14.9002 27.9276 14.9002 32.9599 14.9002C32.8484 14.3022 32.7528 13.7225 32.6311 13.1484C31.9739 10.0479 31.1073 7.01858 29.5324 4.2389C29.2708 3.77737 28.9702 3.3356 28.6604 2.90417C27.9628 1.93252 27.0981 1.16282 25.9534 0.75C25.6308 0.75 25.3081 0.75 24.9854 0.75C23.2823 1.36258 22.2834 2.71527 21.4302 4.19601C19.9837 6.70628 19.1491 9.44642 18.5045 12.2509C18.3064 13.1126 18.1478 13.9833 17.9609 14.9002ZM35.8216 14.4617C35.8791 14.8052 35.9769 14.9512 36.361 14.9497C40.0527 14.9344 43.7443 14.9406 47.436 14.9396C47.5474 14.9396 47.6588 14.926 47.8884 14.9112C44.3001 7.90146 38.8197 3.40202 31.3152 1.41943C31.9688 2.70002 32.6728 3.931 33.2406 5.22193C34.5392 8.17397 35.2921 11.2898 35.8216 14.4617ZM36.5121 17.8529C36.4655 17.8529 36.4191 17.8724 36.3151 17.8955C36.7913 22.4016 36.846 26.9196 36.4819 31.3855C36.7123 31.3855 36.8842 31.3855 37.0561 31.3855C41.0387 31.3855 45.0213 31.494 49.0037 31.5127C49.4315 31.5148 49.6042 31.3784 49.6585 30.9747C49.8174 29.7932 49.9932 28.6141 50.1648 27.4344C50.1855 27.2924 50.2212 27.1526 50.25 27.0117C50.25 25.9587 50.25 25.1382 50.25 24.2014C50.1215 23.2134 50.0359 22.2172 49.8525 21.2395C49.6598 20.2121 49.386 19.199 49.1137 18.1888C49.0759 18.0484 48.8442 17.863 48.7016 17.8625C44.6385 17.8459 40.5752 17.8503 36.5121 17.8529ZM36.6892 34.4004C36.2901 34.3989 36.1493 34.4913 36.0896 34.9162C35.5208 38.9533 34.6452 42.9136 32.9152 46.6332C32.4344 47.6669 31.8397 48.6474 31.297 49.6528C39.4787 47.8034 46.0603 41.4179 48.5761 34.4383C48.4104 34.428 48.2583 34.4103 48.1062 34.4101C44.3006 34.4086 40.4948 34.4146 36.6892 34.4004ZM33.1861 34.8148C33.206 34.7064 33.2004 34.5932 33.2088 34.4453C28.0523 34.4453 22.9178 34.4453 17.7038 34.4453C17.8095 35.119 17.9006 35.781 18.0186 36.4383C18.6335 39.8625 19.4875 43.2138 21.1013 46.3249C21.6909 47.4613 22.3584 48.5587 23.3552 49.3824C23.8392 49.7824 24.4383 50.0428 24.9854 50.25C25.3081 50.25 25.6308 50.25 25.9534 50.25C27.6544 49.7496 28.6558 48.3988 29.5102 46.9169C30.9501 44.4197 31.7939 41.696 32.4215 38.903C32.7254 37.5513 32.9364 36.1786 33.1861 34.8148ZM33.3846 17.8751C28.1024 17.8751 22.8496 17.8751 17.6021 17.8751C17.0825 19.959 16.9544 29.6136 17.4241 31.4742C22.7827 31.4742 28.148 31.4742 33.5663 31.4742C33.9484 26.9338 33.9002 22.4153 33.3846 17.8751ZM13.849 34.409C10.2203 34.409 6.59165 34.409 2.96297 34.409C2.77441 34.409 2.58584 34.409 2.38089 34.409C4.58649 40.9068 11.1572 47.7917 19.7054 49.6611C16.8552 45.2699 15.6768 40.3696 14.9108 35.3329C14.7707 34.4117 14.7885 34.409 13.849 34.409Z" fill="currentColor"/>
	</symbol>
	<symbol id="story" viewBox="0 0 55 34" fill="none" xmlns="http://www.w3.org/2000/svg">
		<path id="Vector" fill-rule="evenodd" clip-rule="evenodd" d="M1.79829 15.8689C3.0815 16.599 4.36746 17.3241 5.65808 18.0414C6.57697 18.5522 7.25388 18.3797 7.78232 17.4917C10.207 13.4167 12.6274 9.33919 15.0415 5.25809C15.1876 5.01125 15.2654 4.72617 15.4329 4.31728C15.1871 4.00039 14.9944 3.55121 14.6482 3.34089C13.2687 2.50336 11.8499 1.72554 10.4285 0.955552C9.65636 0.537413 8.99847 0.763566 8.51404 1.57602C6.58938 4.80391 4.67246 8.03618 2.7528 11.2669C2.25032 12.1127 1.74397 12.9562 1.24761 13.8055C0.71917 14.71 0.88876 15.3517 1.79829 15.8689ZM12.6693 18.2765C12.8467 18.3571 13.1683 18.2693 13.3643 18.1598C16.9508 16.1556 20.5458 14.165 24.0988 12.1058C25.4995 11.294 26.8812 11.1884 28.3532 11.7715C28.9661 12.0145 29.5797 12.2644 30.1615 12.5682C30.4049 12.6951 30.6185 12.942 30.756 13.1828C31.2619 14.069 31.7046 14.9896 32.2201 15.87C32.6841 16.662 33.4887 16.9856 34.3671 17.1263C35.013 17.2298 35.3453 16.9658 35.3246 16.3255C35.2718 14.685 35.1792 13.0457 35.0875 11.4067C35.0799 11.27 34.989 11.1083 34.8847 11.0106C33.6699 9.87142 32.4639 8.72201 31.2176 7.61569C29.7712 6.33165 28.0708 5.99015 26.1718 6.41613C22.8359 7.16449 19.4965 7.3303 16.155 6.41817C16.012 6.37914 15.7234 6.49762 15.647 6.62473C13.6329 9.97972 11.6376 13.3455 9.60316 16.7704C10.6639 17.2989 11.6537 17.8147 12.6693 18.2765ZM36.2825 11.1443C36.3933 12.7432 36.4691 14.3449 36.5305 15.9465C36.6038 17.8585 35.4373 18.7075 33.5423 18.1532C32.4558 17.8352 31.5874 17.239 31.0318 16.269C30.6221 15.5534 30.2872 14.7968 29.8642 14.0893C29.6972 13.8101 29.4083 13.5762 29.1262 13.3921C28.8302 13.1988 28.4765 13.0888 28.147 12.9445C26.9241 12.4091 25.7963 12.4788 24.6027 13.172C20.8954 15.3246 17.139 17.3971 13.404 19.5046C12.5765 19.9717 12.2882 20.5475 12.4881 21.2814C12.7889 22.3849 13.8571 22.85 14.8856 22.2918C16.0603 21.6539 17.2146 20.9803 18.3782 20.323C18.517 20.2445 18.6658 20.0966 18.7968 20.1093C19.0656 20.1353 19.4523 20.177 19.5529 20.3459C19.6512 20.5108 19.4933 20.8625 19.3704 21.0932C19.2996 21.2259 19.0765 21.2828 18.9203 21.3714C17.4285 22.2178 15.931 23.0552 14.4468 23.9142C13.7994 24.2888 13.5358 24.8715 13.6691 25.4919C13.8207 26.1981 14.3353 26.7685 15.0196 26.8086C15.4115 26.8316 15.8611 26.713 16.209 26.5254C17.7367 25.7013 19.2369 24.8287 20.7471 23.9739C20.8513 23.915 20.9593 23.862 21.0605 23.7987C21.4371 23.5633 21.8279 23.4465 22.0945 23.9054C22.3668 24.3745 22.0128 24.6155 21.6431 24.8245C20.4274 25.5117 19.2094 26.1947 18.0009 26.8935C17.2936 27.3026 17.0171 27.8923 17.1806 28.5568C17.459 29.6889 18.5563 30.1775 19.6053 29.6056C20.8492 28.9275 22.074 28.2166 23.3071 27.5198C23.4461 27.4413 23.5839 27.361 23.8691 27.2847C24.0712 27.0955 24.3861 27.1067 24.6053 27.4648C24.8294 27.8309 24.6685 28.0995 24.3287 28.2937C23.2895 28.8874 22.2394 29.4632 21.2099 30.0724C20.2986 30.6113 20.1163 31.5788 20.7399 32.3847C21.2088 32.9907 21.9807 33.2111 22.669 32.8545C23.6421 32.3503 24.5842 31.7896 25.5613 31.2407C24.8968 29.1519 25.5933 28.0448 28.0297 27.2078C27.119 24.8462 28.0871 23.3411 30.7596 22.9629C30.672 20.6652 33.2067 18.9805 35.4702 20.4368C35.8637 19.6847 36.4196 19.091 37.2548 18.7929C38.4229 18.3762 39.6049 18.7022 40.3761 19.6836C40.8268 20.2572 41.2419 20.8575 41.7979 21.6163C41.895 21.4345 41.9464 21.2842 42.0417 21.1679C43.0926 19.8828 44.159 18.6096 45.1952 17.3135C45.3192 17.1583 45.4006 16.8253 45.3145 16.6786C43.3146 13.2686 41.2888 9.87299 39.2665 6.47537C39.2473 6.44324 39.211 6.42052 39.1358 6.34842C37.3783 6.95824 35.5926 7.57777 33.7978 8.20043C34.5252 8.93343 35.2337 9.61596 35.8982 10.3366C36.0951 10.55 36.2632 10.8652 36.2825 11.1443ZM47.2134 17.4975C47.7291 18.364 48.4063 18.548 49.2868 18.0618C50.5971 17.3385 51.9013 16.6048 53.2014 15.8642C54.0918 15.3572 54.2804 14.7065 53.7716 13.8481C51.3443 9.75231 48.9112 5.65962 46.4734 1.5696C45.9569 0.702913 45.3028 0.53851 44.3956 1.03893C43.0852 1.76205 41.7844 2.50132 40.4781 3.23134C39.9942 3.502 39.6668 3.86654 39.6761 4.60456C39.729 4.73291 39.8075 5.01784 39.9537 5.26499C42.368 9.34561 44.7883 13.4228 47.2134 17.4975ZM39.4332 20.4139C39.0036 19.8419 38.3191 19.666 37.662 19.8958C37.0056 20.1254 36.5501 20.7147 36.4602 21.3819C36.5998 21.6972 36.6936 22.0424 36.8872 22.3225C37.5819 23.3265 38.2989 24.3164 39.0292 25.2965C39.6389 26.1151 40.4802 26.2619 41.2806 25.7247C42.0934 25.1793 42.2474 24.3137 41.6548 23.4768C40.926 22.4479 40.1907 21.4228 39.4332 20.4139ZM34.9521 21.7196C34.5091 21.1157 33.8781 20.9311 33.2051 21.1392C32.529 21.3482 32.0304 21.9686 32.0189 22.7722C32.0768 22.9207 32.1352 23.244 32.3093 23.4896C33.5626 25.2567 34.8257 27.0176 36.1154 28.7598C36.6786 29.5208 37.5828 29.6301 38.3421 29.1002C39.0971 28.5738 39.2725 27.7118 38.7253 26.9409C37.4826 25.1902 36.2224 23.4514 34.9521 21.7196ZM31.7558 24.7872C31.2637 24.119 30.3901 24.0024 29.6592 24.4538C28.8962 24.9249 28.59 25.7753 29.0654 26.4712C30.1428 28.0478 31.2683 29.5951 32.4261 31.1169C32.6496 31.4109 33.1097 31.5347 33.3183 31.655C34.1649 31.609 34.6792 31.3522 35.0122 30.7997C35.3417 30.2534 35.2972 29.7078 34.9366 29.2008C33.8857 27.7232 32.8314 26.2477 31.7558 24.7872ZM29.3285 28.9776C28.9033 28.4481 28.2813 28.32 27.6447 28.5498C26.9831 28.7886 26.5237 29.3787 26.5117 30.1485C26.5454 30.2549 26.5717 30.5256 26.7066 30.7276C27.1438 31.3824 27.5876 32.0381 28.0917 32.644C28.6071 33.2634 29.5246 33.3062 30.2129 32.816C30.8834 32.3384 31.1054 31.5227 30.678 30.847C30.2684 30.1996 29.8101 29.5773 29.3285 28.9776Z" fill="currentColor"/>
	</symbol>
</svg>