<svg width="53" height="45" viewBox="0 0 53 45" fill="none" xmlns="http://www.w3.org/2000/svg">
<g id="ico">
<path id="Vector" fill-rule="evenodd" clip-rule="evenodd" d="M52.1492 40.5839C52.1465 42.9991 50.6189 44.5422 48.2271 44.545C45.937 44.5479 43.6469 44.5495 41.3569 44.5447C39.066 44.54 37.4971 42.981 37.4947 40.6977C37.4895 35.9131 37.4895 31.1286 37.4947 26.344C37.4971 24.0608 39.0669 22.503 41.3577 22.4989C43.6478 22.4949 45.9378 22.4959 48.2279 22.4987C50.6211 22.5016 52.1465 24.0426 52.1492 26.4599C52.1519 28.8139 52.1498 31.1678 52.1498 33.5218C52.1498 35.8758 52.1519 38.2297 52.1492 40.5839ZM46.6482 26.2128C45.3955 26.2128 44.2078 26.2128 42.9939 26.2128C42.9939 26.881 42.9664 27.5107 43.0002 28.1371C43.0519 29.091 43.8768 29.8445 44.82 29.8452C45.7662 29.846 46.5873 29.099 46.6414 28.1403C46.677 27.5138 46.6482 26.8835 46.6482 26.2128ZM43.7902 18.825C42.4193 18.8694 41.0211 18.7624 39.6836 18.9993C36.4251 19.5765 34.0326 22.4343 33.8362 25.7555C33.8294 25.8692 33.8218 25.9829 33.8122 26.1342C22.843 26.1342 11.8818 26.1342 0.851017 26.1342C0.851017 25.8813 0.851017 25.6725 0.851017 25.4639C0.851017 19.0914 0.850383 12.7189 0.851333 6.3463C0.851967 2.7824 3.17265 0.450824 6.7209 0.450666C17.4644 0.449713 28.2078 0.449713 38.9512 0.450666C42.4982 0.450824 44.82 2.78304 44.8211 6.34535C44.8225 10.2875 44.8214 14.2296 44.8214 18.1719C44.8214 18.3615 44.8214 18.5512 44.8214 18.8234C44.4601 18.8234 44.1247 18.8142 43.7902 18.825ZM33.8017 29.8839C33.8017 32.3328 33.8017 34.7359 33.8017 37.1935C32.3957 37.1935 31.0157 37.1935 29.5452 37.1935C30.1278 38.4025 30.6647 39.5354 31.2271 40.6553C31.2833 40.7673 31.4877 40.8363 31.6346 40.8627C31.8574 40.9027 32.0949 40.8606 32.3177 40.9008C33.2358 41.0664 33.8934 41.9278 33.8232 42.8489C33.7548 43.7489 33.0116 44.4833 32.0963 44.5392C31.7732 44.5589 31.4479 44.5455 31.1237 44.5457C25.363 44.5458 19.6026 44.5482 13.8419 44.5439C12.4085 44.5428 11.4608 43.2759 11.9772 42.044C12.2945 41.2871 12.8891 40.8398 13.7159 40.8887C14.2552 40.9205 14.4878 40.7023 14.6942 40.2534C15.1551 39.2522 15.6653 38.2737 16.1998 37.1965C15.917 37.1965 15.7177 37.1965 15.5184 37.1965C12.5426 37.1965 9.56709 37.1999 6.59138 37.1956C3.23504 37.1907 0.861308 34.8157 0.851333 31.4602C0.84975 30.9467 0.851175 30.4331 0.851175 29.8839C11.8461 29.8839 22.8025 29.8839 33.8017 29.8839Z" fill="#B19F63"/>
</g>
</svg>
