<svg width="49" height="49" viewBox="0 0 49 49" fill="none" xmlns="http://www.w3.org/2000/svg">
<g id="ico">
<path id="&#208;&#154;&#209;&#128;&#208;&#176;&#209;&#132;&#209;&#130;" fill-rule="evenodd" clip-rule="evenodd" d="M47.1516 10.2479L45.2328 8.40443L43.3872 6.62965L44.0353 6.00661L45.4032 5.79893L46.6731 7.02014L48.0155 8.3101L47.7997 9.62491L47.1516 10.2479ZM46.8487 11.094C46.8487 11.094 49.1113 14.0644 48.9957 18.5602C48.8553 24.0228 46.2606 27.5892 46.2606 27.5892C46.2606 27.5892 45.7068 28.1413 45.7427 27.0919C45.7785 26.0418 45.2321 21.1738 44.7792 19.3412C44.3564 17.6315 43.6337 17.2198 42.8553 17.2081C41.505 17.1877 40.4143 18.2743 40.4143 18.2743L38.9351 19.6959L33.9776 14.931C33.9776 14.931 36.6191 11.9854 36.5665 11.1635C36.5167 10.3979 35.7845 9.36166 35.0325 8.79858L35.012 8.81686C35.012 8.81686 35.0091 8.80151 34.9886 8.76641C34.9469 8.73642 34.9052 8.70132 34.8642 8.67427C34.8723 8.66695 34.8884 8.65087 34.8971 8.64282C34.7691 8.48706 34.4977 8.21357 33.9023 7.74995C32.8343 6.91923 31.2388 7.74922 31.2388 7.74922L29.3149 5.90058V5.18906L32.1254 2.48776L34.7143 0H35.4538L37.3777 1.84937C37.3777 1.84937 36.5138 3.3821 37.3785 4.4088C38.2431 5.43549 38.4882 5.47571 38.4882 5.47571L38.4092 5.55835C38.595 5.72507 38.9798 5.97736 39.6718 6.04464C40.7288 6.14701 41.3674 6.25597 41.8912 6.3291C42.4157 6.40296 46.8487 11.094 46.8487 11.094ZM35.7486 17.5196L37.6667 19.3632L31.1137 25.6616C29.9791 24.6575 28.3998 23.2623 27.1855 22.2019L33.9023 15.7456L35.7486 17.5196ZM45.7134 38.8638C46.1677 39.617 45.8458 41.1315 45.1699 41.7655C44.3703 42.515 42.5591 42.6715 42.115 42.2642C41.6703 41.8576 41.4969 40.6203 41.4969 40.6203L17.1527 19.1906C17.1527 19.1906 16.6252 19.0926 15.8337 18.9902C16.1878 18.52 16.4021 17.9482 16.4021 17.3237C16.4021 16.9127 16.3078 16.5244 16.1454 16.1712C17.7715 16.0761 18.9449 16.0739 18.9449 16.0739L44.0894 38.2773C44.0894 38.2773 45.2591 38.1106 45.7134 38.8638ZM13.4373 19.0334C12.4549 19.0334 11.659 18.2677 11.659 17.3237C11.659 16.3796 12.4549 15.614 13.4373 15.614C14.4197 15.614 15.2163 16.3796 15.2163 17.3237C15.2163 18.2677 14.4197 19.0334 13.4373 19.0334ZM13.4373 14.4739C13.1769 14.4739 12.9281 14.5171 12.6875 14.5778C13.0979 11.6725 11.9106 11.0114 10.6129 10.0264C9.22081 8.9697 6.51053 9.50133 6.51053 9.50133L5.80753 9.40919L0.804672 4.77077L2.21138 4.95432C2.21138 4.95432 5.37228 7.53788 6.09649 7.76823C6.82142 7.99931 11.25 7.33532 12.6319 8.72984C14.3912 10.5032 14.8864 12.5595 14.7701 14.7913C14.3678 14.5953 13.9194 14.4739 13.4373 14.4739ZM4.94288 10.9536C4.94288 10.9536 4.40009 13.5606 5.50468 14.8944C6.56466 16.1749 7.27204 17.3398 10.5244 16.8286C10.4951 16.9902 10.4732 17.154 10.4732 17.3237C10.4732 17.8831 10.6465 18.4008 10.9362 18.841C8.43735 19.0487 6.13672 18.6341 4.16308 16.8403C2.70809 15.5167 3.38108 11.2578 3.13895 10.5624C2.89609 9.86696 0.196047 6.83879 0.196047 6.83879L0 5.48741L4.84485 10.2779L4.94288 10.9536ZM21.5323 34.8711L8.67143 47.2317H7.95162C7.95162 47.2317 6.39348 45.7596 6.39348 45.734C6.36715 45.734 4.90776 44.3059 4.90776 44.3059V43.6134L18.0729 30.9596L21.5323 34.8711ZM23.5162 25.7281L27.2806 29.3464L25.5622 30.9976L21.9961 27.1899L23.5162 25.7281ZM11.8901 22.9398C11.8901 22.9398 11.8879 21.5957 12.0094 19.8063C12.4344 20.033 12.9164 20.1734 13.4373 20.1734C13.9684 20.1734 14.4599 20.0279 14.8908 19.7931C15.0086 20.637 15.1264 21.2052 15.1264 21.2052L37.2878 44.741C37.2878 44.741 38.576 44.9026 39.001 45.3282C39.426 45.7538 39.2702 47.4957 38.4933 48.2664C37.8364 48.9187 36.2622 49.2339 35.4765 48.8002C34.6909 48.3659 34.8606 47.2412 34.8606 47.2412L11.8901 22.9398Z" fill="#B19F63"/>
</g>
</svg>
