<svg width="49" height="41" viewBox="0 0 49 41" fill="none" xmlns="http://www.w3.org/2000/svg">
<g id="ico">
<path id="PvE" fill-rule="evenodd" clip-rule="evenodd" d="M45.9546 18.8721L36.4466 22.0853L32.2498 16.7027L35.0275 10.7643L38.8269 11.6441L41.9839 9.58749L41.2685 6.02299L35.7568 4.57724L32.2418 1.44503L31.8232 0L36.2497 1.93875L44.0061 2.61536L49 12.046L45.9546 18.8721ZM29.5625 17.2507L34.3245 23.4211L34.3734 23.4045C34.4762 23.5281 34.579 23.651 34.6818 23.7746C35.1566 23.6315 35.6306 23.4891 36.125 23.3402C36.125 24.3435 36.1688 25.258 36.1141 26.1673C36.0434 27.3565 35.996 28.4379 36.9082 29.468C37.7024 30.3636 37.3633 31.3048 36.2723 31.8303C35.6029 32.152 34.8656 32.3291 34.1663 32.5922C33.0534 33.0115 31.9471 33.4481 30.8379 33.8775C30.8715 33.957 30.905 34.0365 30.9386 34.1161C31.3484 34.1587 31.7575 34.2006 32.2622 34.2527C32.0405 35.0074 31.8618 35.6384 31.6664 36.2645C31.5388 36.675 31.188 37.1305 31.2791 37.4745C31.5657 38.5596 31.0502 38.9694 30.1313 39.2651C29.9388 38.5249 29.7681 37.8678 29.5406 36.9909C28.2972 38.0955 29.2941 39.453 28.6866 40.4217C28.1798 40.4217 27.6788 40.4217 27.1494 40.4217C27.0429 39.5803 26.9474 38.8314 26.8533 38.0825C26.6848 38.0745 26.5171 38.0673 26.3487 38.0601C26.232 39.0273 26.1153 39.9952 25.9935 41C25.4808 41 24.9901 41 24.4993 41C24.0092 41 23.5177 41 23.0058 41C22.884 39.9952 22.7673 39.0273 22.6499 38.0601C22.4822 38.0673 22.3137 38.0745 22.146 38.0825C22.0512 38.8314 21.9564 39.5803 21.8499 40.4217C21.3197 40.4217 20.8187 40.4217 20.3126 40.4217C19.7044 39.453 20.7013 38.0955 19.4587 36.9909C19.2304 37.8678 19.0598 38.5249 18.8672 39.2651C17.9484 38.9694 17.4335 38.5596 17.7201 37.4745C17.8106 37.1305 17.4605 36.675 17.3322 36.2645C17.1367 35.6384 16.9595 35.0074 16.7371 34.2527C17.241 34.2006 17.6509 34.1587 18.0607 34.1161C18.0942 34.0365 18.1278 33.957 18.1613 33.8775C17.0521 33.4481 15.9459 33.0115 14.833 32.5922C14.1337 32.3291 13.3964 32.152 12.7277 31.8303C11.636 31.3048 11.2969 30.3636 12.091 29.468C13.0033 28.4379 12.9552 27.3565 12.8852 26.1673C12.8312 25.258 12.8742 24.3435 12.8742 23.3402C13.3687 23.4891 13.8427 23.6315 14.3174 23.7746C14.4203 23.651 14.5224 23.5281 14.6252 23.4045L14.6748 23.4211L19.4368 17.2507L16.7714 9.74796C18.1227 8.88702 19.657 8.27041 21.2978 7.98776C22.0329 7.86126 22.7812 7.80415 23.5257 7.74488C23.8203 7.72102 24.1215 7.77885 24.4993 7.80488C24.8778 7.77885 25.1789 7.72102 25.4736 7.74488C26.2181 7.80415 26.9663 7.86126 27.7007 7.98776C29.3422 8.27041 30.8759 8.88702 32.2279 9.74796L29.5625 17.2507ZM18.084 27.5047C16.8166 26.6379 15.6957 26.6076 14.4049 27.5538C15.7643 27.4895 16.2952 27.9781 16.3302 29.3726C16.3491 30.1063 17.1017 31.0511 17.7858 31.4913C19.4762 32.5792 21.2344 32.0617 22.5113 30.4395C20.9755 29.4239 19.5163 28.4841 18.084 27.5047ZM25.9848 35.3652L25.0608 32.4737C24.8858 31.9265 24.1135 31.9265 23.9385 32.4737L23.0145 35.3652C22.9321 35.6218 23.1232 35.8842 23.3923 35.8842H25.6063C25.8754 35.8842 26.0664 35.6218 25.9848 35.3652ZM26.4879 30.4395C27.7649 32.0617 29.5231 32.5792 31.2135 31.4913C31.8968 31.0511 32.6501 30.1063 32.6684 29.3726C32.7034 27.9781 33.2343 27.4895 34.5943 27.5538C33.3035 26.6076 32.1827 26.6379 30.9152 27.5047C29.483 28.4841 28.0238 29.4239 26.4879 30.4395ZM13.244 4.57724L7.73154 6.02299L7.01688 9.58749L10.1731 11.6441L13.9732 10.7643L16.751 16.7027L12.5534 22.0853L3.04609 18.8721L0 12.046L4.99466 2.61536L12.7503 1.93875L17.1776 0L16.7582 1.44503L13.244 4.57724Z" fill="#B19F63"/>
</g>
</svg>
