<svg width="49" height="49" viewBox="0 0 49 49" fill="none" xmlns="http://www.w3.org/2000/svg">
<path fill-rule="evenodd" clip-rule="evenodd" d="M46.8616 8.69287C43.172 12.4792 38.1657 17.5994 33.2068 22.6676L29.9509 19.6239C33.1308 16.3878 39.1857 10.2403 40.9273 8.37899C41.434 7.83756 41.6914 7.0598 42.0636 6.39106C41.9027 6.24034 41.7419 6.09035 41.581 5.93963C40.909 6.39691 40.142 6.75543 39.579 7.32613C37.0104 9.92791 32.8624 14.1562 28.6742 18.4305L25.5316 15.4937C30.3486 10.5615 35.8061 4.98115 39.3684 1.34333C39.6704 1.03457 40.1333 0.681908 40.4667 0.64752C42.9527 0.392902 45.4248 0.214377 48.0344 0C47.8399 2.60032 47.668 5.12309 47.4377 7.65757C47.4085 7.97438 47.1306 8.41703 46.8616 8.69287ZM36.2909 28.6402C35.4099 29.5357 34.5653 30.4854 33.5943 31.2917C33.4327 31.4263 32.6146 31.048 32.2811 30.7159C28.9609 27.3971 25.0651 23.4124 21.7719 20.0651C19.6427 17.9016 11.4725 9.51379 9.29875 7.39856C8.76937 6.88347 8.01041 6.62153 7.35601 6.24327C7.20904 6.40716 7.06207 6.57032 6.91511 6.73421C7.36186 7.41685 7.71282 8.19607 8.26998 8.76896C13.5001 14.1364 25.4461 26.2901 30.7018 31.6334C31.0937 32.0321 31.4863 32.4309 32.0274 32.9811C31.1149 33.9088 30.3172 34.8066 29.4018 35.5697C29.2394 35.7043 28.4841 35.3941 28.1756 35.0956C26.5063 33.483 24.2762 31.1841 22.6442 29.5306C17.3139 24.1287 7.74061 14.3976 2.42275 8.98261C2.1215 8.67531 1.77639 8.20558 1.74275 7.86609C1.49415 5.33966 1.3194 2.82787 1.11028 0.175599C3.65113 0.373879 6.11666 0.548014 8.59462 0.782146C8.90391 0.811412 9.33604 1.09457 9.60584 1.36821C16.7363 8.59117 28.7079 20.7865 35.8244 28.0241C35.9524 28.1543 36.0482 28.3175 36.2909 28.6402ZM3.29066 41.8247C3.53487 42.2066 3.88364 42.0917 4.28945 41.6718C5.84686 40.0607 8.57634 37.265 10.1528 35.6721C10.6017 35.2192 10.6639 34.8827 10.3268 34.5447C9.63143 33.8481 9.05527 32.9965 8.22976 32.477C7.69674 32.1419 6.80835 32.2816 5.99967 32.2004C6.20221 30.8571 6.41133 29.464 6.60728 28.1616C7.94095 27.9612 9.32434 27.7526 10.7545 27.5368C10.7531 27.5302 10.8101 27.6231 10.7823 27.7117C10.2127 29.4991 10.9885 30.4554 11.9792 31.3941C13.9322 33.2445 15.8004 35.1893 17.6291 37.1677C18.2666 37.8569 18.9569 38.2322 20.08 37.911C20.3717 37.8284 20.6627 37.854 20.9296 37.832C20.6993 39.2917 20.4799 40.6862 20.2774 41.9754C19.0461 42.1525 17.6642 42.3515 16.1747 42.5651C16.2076 42.6785 16.1426 42.5944 16.1652 42.5088C16.8072 40.0606 14.8557 39.5273 13.8533 38.3032C13.7787 38.2132 13.2676 38.3778 13.0862 38.5593C11.4725 40.1675 8.72916 43.0056 7.12495 44.624C6.60801 45.145 6.75717 45.4603 7.09644 45.6996C7.81665 46.2088 7.58487 46.7297 6.80762 47.476C4.80566 49.4003 5.31675 49.4471 3.78493 47.9275C2.63406 46.7868 1.50951 45.6162 0.321343 44.5157C-0.165622 44.065 -0.0976225 43.6663 0.515105 43.1014C0.826587 42.8154 1.12856 42.5081 1.39691 42.1817C2.11273 41.3089 2.74081 40.9664 3.29066 41.8247ZM15.7536 31.6341C14.8403 30.7005 13.9571 29.884 13.2062 28.9474C13.0731 28.7814 13.3795 28.008 13.6727 27.6926C14.3351 26.98 15.1167 26.1657 15.9188 25.3389L18.9181 28.3972C18.2491 29.0821 17.6217 29.7237 17.0799 30.2776C16.6873 30.6786 16.2947 31.0802 15.7536 31.6341ZM23.2635 32.8282C22.3342 33.7786 21.4473 34.6844 20.6313 35.5192C20.5033 35.6502 20.3425 35.7482 20.0251 35.9963C19.1433 35.0949 18.2089 34.2308 17.4156 33.2379C17.2832 33.0718 17.6554 32.2348 17.9822 31.8938C18.6776 31.171 19.4066 30.4174 20.1487 29.652L23.2635 32.8282ZM31.7927 36.8165C33.6016 34.8315 35.502 32.9335 37.4359 31.0744C38.1094 30.4276 38.4764 29.7252 38.1627 28.5838C38.0808 28.2882 38.1064 27.9919 38.0845 27.7212C39.5118 27.9546 40.8747 28.1777 42.1345 28.3841C42.3078 29.6352 42.5015 31.04 42.7107 32.5523C42.8218 32.5194 42.7392 32.5853 42.6558 32.5626C40.2627 31.9099 39.7421 33.8935 38.5459 34.9127C38.4574 34.988 38.6183 35.5068 38.7959 35.6919C40.368 37.3316 43.1413 40.1192 44.7236 41.7501C45.2325 42.2747 45.5403 42.1232 45.7743 41.7786C46.2722 41.0462 46.7811 41.2818 47.5108 42.072C49.3914 44.1067 49.4368 43.5865 47.9517 45.1435C46.8367 46.3134 45.6931 47.4563 44.6176 48.6643C44.1774 49.1581 43.787 49.0901 43.2356 48.4667C42.9556 48.1506 42.6551 47.8433 42.3363 47.5712C41.4837 46.8432 41.1481 46.2051 41.9875 45.6462C42.3604 45.3974 42.2478 45.0433 41.8384 44.6313C40.2634 43.0488 37.531 40.2743 35.9743 38.6727C35.5312 38.2169 35.2022 38.1539 34.8724 38.4956C34.191 39.2024 33.3589 39.7877 32.8515 40.627C32.5232 41.1684 32.6599 42.0713 32.5809 42.8936C31.2685 42.6873 29.907 42.4744 28.634 42.2754C28.4373 40.9204 28.2341 39.5148 28.0228 38.0618C28.0169 38.0625 28.1068 38.0047 28.1939 38.0332C29.9414 38.6112 30.8758 37.824 31.7927 36.8165Z" fill="currentColor"/>
</svg>
