<svg width="55" height="34" viewBox="0 0 55 34" fill="none" xmlns="http://www.w3.org/2000/svg">
<g id="ico">
<path id="Vector" fill-rule="evenodd" clip-rule="evenodd" d="M1.79829 15.8689C3.0815 16.599 4.36746 17.3241 5.65808 18.0414C6.57697 18.5522 7.25388 18.3797 7.78232 17.4917C10.207 13.4167 12.6274 9.33919 15.0415 5.25809C15.1876 5.01125 15.2654 4.72617 15.4329 4.31728C15.1871 4.00039 14.9944 3.55121 14.6482 3.34089C13.2687 2.50336 11.8499 1.72554 10.4285 0.955552C9.65636 0.537413 8.99847 0.763566 8.51404 1.57602C6.58938 4.80391 4.67246 8.03618 2.7528 11.2669C2.25032 12.1127 1.74397 12.9562 1.24761 13.8055C0.71917 14.71 0.88876 15.3517 1.79829 15.8689ZM12.6693 18.2765C12.8467 18.3571 13.1683 18.2693 13.3643 18.1598C16.9508 16.1556 20.5458 14.165 24.0988 12.1058C25.4995 11.294 26.8812 11.1884 28.3532 11.7715C28.9661 12.0145 29.5797 12.2644 30.1615 12.5682C30.4049 12.6951 30.6185 12.942 30.756 13.1828C31.2619 14.069 31.7046 14.9896 32.2201 15.87C32.6841 16.662 33.4887 16.9856 34.3671 17.1263C35.013 17.2298 35.3453 16.9658 35.3246 16.3255C35.2718 14.685 35.1792 13.0457 35.0875 11.4067C35.0799 11.27 34.989 11.1083 34.8847 11.0106C33.6699 9.87142 32.4639 8.72201 31.2176 7.61569C29.7712 6.33165 28.0708 5.99015 26.1718 6.41613C22.8359 7.16449 19.4965 7.3303 16.155 6.41817C16.012 6.37914 15.7234 6.49762 15.647 6.62473C13.6329 9.97972 11.6376 13.3455 9.60316 16.7704C10.6639 17.2989 11.6537 17.8147 12.6693 18.2765ZM36.2825 11.1443C36.3933 12.7432 36.4691 14.3449 36.5305 15.9465C36.6038 17.8585 35.4373 18.7075 33.5423 18.1532C32.4558 17.8352 31.5874 17.239 31.0318 16.269C30.6221 15.5534 30.2872 14.7968 29.8642 14.0893C29.6972 13.8101 29.4083 13.5762 29.1262 13.3921C28.8302 13.1988 28.4765 13.0888 28.147 12.9445C26.9241 12.4091 25.7963 12.4788 24.6027 13.172C20.8954 15.3246 17.139 17.3971 13.404 19.5046C12.5765 19.9717 12.2882 20.5475 12.4881 21.2814C12.7889 22.3849 13.8571 22.85 14.8856 22.2918C16.0603 21.6539 17.2146 20.9803 18.3782 20.323C18.517 20.2445 18.6658 20.0966 18.7968 20.1093C19.0656 20.1353 19.4523 20.177 19.5529 20.3459C19.6512 20.5108 19.4933 20.8625 19.3704 21.0932C19.2996 21.2259 19.0765 21.2828 18.9203 21.3714C17.4285 22.2178 15.931 23.0552 14.4468 23.9142C13.7994 24.2888 13.5358 24.8715 13.6691 25.4919C13.8207 26.1981 14.3353 26.7685 15.0196 26.8086C15.4115 26.8316 15.8611 26.713 16.209 26.5254C17.7367 25.7013 19.2369 24.8287 20.7471 23.9739C20.8513 23.915 20.9593 23.862 21.0605 23.7987C21.4371 23.5633 21.8279 23.4465 22.0945 23.9054C22.3668 24.3745 22.0128 24.6155 21.6431 24.8245C20.4274 25.5117 19.2094 26.1947 18.0009 26.8935C17.2936 27.3026 17.0171 27.8923 17.1806 28.5568C17.459 29.6889 18.5563 30.1775 19.6053 29.6056C20.8492 28.9275 22.074 28.2166 23.3071 27.5198C23.4461 27.4413 23.5839 27.361 23.8691 27.2847C24.0712 27.0955 24.3861 27.1067 24.6053 27.4648C24.8294 27.8309 24.6685 28.0995 24.3287 28.2937C23.2895 28.8874 22.2394 29.4632 21.2099 30.0724C20.2986 30.6113 20.1163 31.5788 20.7399 32.3847C21.2088 32.9907 21.9807 33.2111 22.669 32.8545C23.6421 32.3503 24.5842 31.7896 25.5613 31.2407C24.8968 29.1519 25.5933 28.0448 28.0297 27.2078C27.119 24.8462 28.0871 23.3411 30.7596 22.9629C30.672 20.6652 33.2067 18.9805 35.4702 20.4368C35.8637 19.6847 36.4196 19.091 37.2548 18.7929C38.4229 18.3762 39.6049 18.7022 40.3761 19.6836C40.8268 20.2572 41.2419 20.8575 41.7979 21.6163C41.895 21.4345 41.9464 21.2842 42.0417 21.1679C43.0926 19.8828 44.159 18.6096 45.1952 17.3135C45.3192 17.1583 45.4006 16.8253 45.3145 16.6786C43.3146 13.2686 41.2888 9.87299 39.2665 6.47537C39.2473 6.44324 39.211 6.42052 39.1358 6.34842C37.3783 6.95824 35.5926 7.57777 33.7978 8.20043C34.5252 8.93343 35.2337 9.61596 35.8982 10.3366C36.0951 10.55 36.2632 10.8652 36.2825 11.1443ZM47.2134 17.4975C47.7291 18.364 48.4063 18.548 49.2868 18.0618C50.5971 17.3385 51.9013 16.6048 53.2014 15.8642C54.0918 15.3572 54.2804 14.7065 53.7716 13.8481C51.3443 9.75231 48.9112 5.65962 46.4734 1.5696C45.9569 0.702913 45.3028 0.53851 44.3956 1.03893C43.0852 1.76205 41.7844 2.50132 40.4781 3.23134C39.9942 3.502 39.6668 3.86654 39.6761 4.60456C39.729 4.73291 39.8075 5.01784 39.9537 5.26499C42.368 9.34561 44.7883 13.4228 47.2134 17.4975ZM39.4332 20.4139C39.0036 19.8419 38.3191 19.666 37.662 19.8958C37.0056 20.1254 36.5501 20.7147 36.4602 21.3819C36.5998 21.6972 36.6936 22.0424 36.8872 22.3225C37.5819 23.3265 38.2989 24.3164 39.0292 25.2965C39.6389 26.1151 40.4802 26.2619 41.2806 25.7247C42.0934 25.1793 42.2474 24.3137 41.6548 23.4768C40.926 22.4479 40.1907 21.4228 39.4332 20.4139ZM34.9521 21.7196C34.5091 21.1157 33.8781 20.9311 33.2051 21.1392C32.529 21.3482 32.0304 21.9686 32.0189 22.7722C32.0768 22.9207 32.1352 23.244 32.3093 23.4896C33.5626 25.2567 34.8257 27.0176 36.1154 28.7598C36.6786 29.5208 37.5828 29.6301 38.3421 29.1002C39.0971 28.5738 39.2725 27.7118 38.7253 26.9409C37.4826 25.1902 36.2224 23.4514 34.9521 21.7196ZM31.7558 24.7872C31.2637 24.119 30.3901 24.0024 29.6592 24.4538C28.8962 24.9249 28.59 25.7753 29.0654 26.4712C30.1428 28.0478 31.2683 29.5951 32.4261 31.1169C32.6496 31.4109 33.1097 31.5347 33.3183 31.655C34.1649 31.609 34.6792 31.3522 35.0122 30.7997C35.3417 30.2534 35.2972 29.7078 34.9366 29.2008C33.8857 27.7232 32.8314 26.2477 31.7558 24.7872ZM29.3285 28.9776C28.9033 28.4481 28.2813 28.32 27.6447 28.5498C26.9831 28.7886 26.5237 29.3787 26.5117 30.1485C26.5454 30.2549 26.5717 30.5256 26.7066 30.7276C27.1438 31.3824 27.5876 32.0381 28.0917 32.644C28.6071 33.2634 29.5246 33.3062 30.2129 32.816C30.8834 32.3384 31.1054 31.5227 30.678 30.847C30.2684 30.1996 29.8101 29.5773 29.3285 28.9776Z" fill="#B19F63"/>
</g>
</svg>
