<svg width="49" height="49" viewBox="0 0 49 49" fill="none" xmlns="http://www.w3.org/2000/svg">
<g id="ico">
<path id="&#208;&#162;&#208;&#190;&#209;&#128;&#208;&#179;" fill-rule="evenodd" clip-rule="evenodd" d="M31.8244 6.36958H25.2755L21.4562 0.49008L27.4587 1.95959L31.8244 0L36.1894 1.95959L42.1919 0.49008L38.3726 6.36958H31.8244ZM22.9862 9.31007H40.6618V14.2101H22.9862V9.31007ZM33.3428 32.2312C33.3289 32.2319 33.3157 32.2334 33.3018 32.2341C33.2974 32.278 33.2864 32.3219 33.2886 32.3658C33.304 32.801 33.247 33.2275 33.0912 33.6327C32.8908 34.1528 32.5565 34.5697 32.0782 34.8689C31.6255 35.1527 31.1369 35.2536 30.6117 35.1585C30.4845 35.1358 30.3572 35.0846 30.2417 35.0232C29.7333 34.7533 29.2923 34.4073 28.9354 33.9465C28.517 33.4074 28.2369 32.812 28.0716 32.1551C28.0211 31.9547 27.9597 31.7594 27.9809 31.5502C27.9875 31.4873 27.9992 31.4251 28.0087 31.363C28.0175 31.3608 28.0255 31.3586 28.0343 31.3564C28.351 32.014 28.89 32.4141 29.5607 32.6372C30.1597 32.8354 30.3967 32.8573 30.5503 32.7864C30.502 32.741 30.4669 32.6928 30.4201 32.6672C30.0288 32.4536 29.6895 32.1763 29.3954 31.8421C29.0809 31.4851 28.8996 31.0718 28.8623 30.5971C28.8542 30.4911 28.8381 30.3857 28.8388 30.2797C28.8388 29.6938 29.0356 29.1905 29.4686 28.7845C29.8635 28.4137 30.3455 28.2374 30.8648 28.1394C31.0637 28.1014 31.2627 28.0597 31.4631 28.0348C31.6021 28.018 31.7447 28.026 31.8858 28.0231C32.3225 28.015 32.7496 28.0845 33.1672 28.2096C33.4152 28.2835 33.6397 28.4086 33.8394 28.5907C33.3311 28.5856 32.8579 28.6982 32.4373 28.9828C31.9297 29.3266 31.4507 29.8576 31.466 30.0748C31.5157 30.0522 31.5618 30.0368 31.6021 30.0119C32.0314 29.7501 32.4944 29.5826 32.9939 29.5277C33.421 29.4809 33.8357 29.5394 34.2182 29.7493C34.4062 29.8525 34.6052 29.9483 34.7661 30.0858C35.0389 30.3199 35.2641 30.6015 35.3621 30.957C35.4068 31.1194 35.4214 31.2913 35.4324 31.4602C35.4419 31.6138 35.4294 31.7682 35.4236 31.9225C35.4097 32.3007 35.2656 32.6408 35.1091 32.9758C35.0184 33.1711 34.9365 33.3745 34.8151 33.5493C34.5898 33.8726 34.3492 34.1864 34.0954 34.4878C33.9301 34.6838 33.715 34.8294 33.4576 34.9135C33.6924 34.4878 33.7904 34.035 33.7553 33.5537C33.7202 33.0804 33.628 32.624 33.3428 32.2312ZM27.4375 27.5257C27.4572 27.7049 27.4616 27.8819 27.4375 28.0553V27.5257ZM31.8244 17.1499H31.8697H41.1124C41.1124 17.1499 49.8364 27.9624 48.9346 35.2799C48.0328 42.5982 41.6017 45.0801 41.6017 45.0801H31.8697H31.8244H27.4375V41.1602H23.518V35.77H27.4375V35.6113C27.7052 35.702 27.978 35.7708 28.2706 35.7561C28.302 35.7539 28.3459 35.7678 28.3642 35.7905C28.4885 35.9448 28.6085 36.1021 28.7255 36.2623C28.7438 36.2872 28.7569 36.3354 28.7452 36.3618C28.607 36.6734 28.4388 36.9667 28.2318 37.2395C28.0599 37.4656 27.8888 37.6916 27.6533 37.8532C27.1713 38.1831 26.6812 38.5013 26.1963 38.8283C25.8423 39.066 25.4715 39.2854 25.1468 39.5583C24.8096 39.8421 24.5185 40.18 24.2091 40.4967C24.1353 40.5721 24.0702 40.6569 24.0014 40.7374C24.0073 40.744 24.0131 40.7506 24.0197 40.7571C24.038 40.7484 24.057 40.741 24.0738 40.7301C24.3364 40.5574 24.5938 40.3775 24.8608 40.2122C25.4818 39.8267 26.14 39.5261 26.856 39.3593C27.1939 39.281 27.5333 39.2035 27.8646 39.1018C28.5734 38.8846 29.1994 38.5218 29.7319 38.0032C29.8855 37.8532 30.0369 37.7004 30.2022 37.5643C30.483 37.3332 30.7924 37.1547 31.1691 37.1254C31.387 37.1079 31.605 37.0874 31.82 37.0523C31.9378 37.0333 32.0504 36.9806 32.1652 36.9433C32.1711 36.9535 32.1762 36.963 32.182 36.9733C32.1711 37.0055 32.1616 37.0376 32.1499 37.0691C32.0094 37.4451 31.7776 37.7603 31.515 38.0602C31.3731 38.2226 31.2663 38.4157 31.1471 38.5979C31.1303 38.6242 31.1362 38.6652 31.131 38.6995C31.1398 38.7025 31.1486 38.7061 31.1566 38.7098C31.1742 38.6937 31.1925 38.6791 31.2086 38.6615C31.4433 38.4026 31.7118 38.1934 32.0336 38.0427C32.664 37.7486 33.2111 37.35 33.5651 36.7297C33.579 36.7056 33.6112 36.6807 33.6375 36.677C33.8379 36.6485 34.0383 36.6236 34.2395 36.6032C34.2665 36.6002 34.3089 36.6185 34.3243 36.6405C34.4252 36.786 34.5335 36.9279 34.6147 37.0837C34.8202 37.4773 35.0286 37.8752 35.0689 38.3258C35.1201 38.9043 35.1471 39.4859 35.1881 40.0652C35.2195 40.4945 35.2393 40.9254 35.2978 41.3504C35.3358 41.6283 35.4324 41.8982 35.5077 42.1703C35.5662 42.3781 35.632 42.5829 35.6964 42.7884C35.7125 42.8382 35.7359 42.885 35.7556 42.9332C35.7798 42.9069 35.7827 42.8864 35.7812 42.8659C35.7622 42.5624 35.7337 42.2581 35.7242 41.9538C35.7044 41.3452 35.7322 40.7388 35.8836 40.1464C35.9809 39.7638 36.1067 39.3893 36.2054 39.0082C36.4212 38.178 36.4431 37.3463 36.2091 36.5132C36.1594 36.3376 36.1162 36.1592 36.0891 35.9785C36.0497 35.7152 36.0102 35.4453 36.1001 35.1863C36.1806 34.9537 36.2874 34.7299 36.3824 34.5024C36.4007 34.4585 36.4241 34.4154 36.4373 34.37C36.4753 34.2391 36.5097 34.1074 36.547 33.9721C36.566 33.9823 36.5755 33.9853 36.5814 33.9918C36.6033 34.016 36.6238 34.0401 36.6435 34.0657C36.8549 34.3334 37.0122 34.6275 37.1211 34.9522C37.1987 35.1834 37.3091 35.4028 37.4108 35.6245C37.4349 35.6771 37.4686 35.7386 37.5607 35.7393C37.5527 35.7064 37.549 35.683 37.5417 35.661C37.4364 35.3399 37.3735 35.0144 37.4144 34.675C37.4269 34.5726 37.4356 34.4702 37.4349 34.3671C37.4313 33.7702 37.3581 33.188 37.0458 32.6591C37.0283 32.6298 37.0209 32.5816 37.0334 32.5523C37.1065 32.368 37.184 32.1851 37.266 32.0044C37.2791 31.9767 37.3201 31.9452 37.3493 31.9445C37.6156 31.935 37.8833 31.913 38.148 31.9328C38.4157 31.9532 38.6929 31.9803 38.943 32.0688C39.3387 32.2093 39.7205 32.3929 40.0987 32.5772C40.5031 32.7754 40.8951 32.9992 41.2952 33.2055C41.4554 33.2882 41.6185 33.3694 41.7882 33.4257C42.0712 33.5193 42.3601 33.5968 42.6483 33.6744C42.875 33.7351 43.1047 33.7863 43.3329 33.8397C43.3914 33.8536 43.4521 33.858 43.5121 33.8675C43.5143 33.858 43.5157 33.8492 43.5179 33.8404C43.4974 33.8287 43.477 33.8141 43.455 33.8053C43.0952 33.6693 42.7617 33.4835 42.4289 33.2926C41.7779 32.9202 41.2001 32.4616 40.7013 31.8998C40.3502 31.5049 39.9677 31.1428 39.5172 30.859C39.2005 30.6593 38.8721 30.483 38.5166 30.3623C38.1853 30.2504 37.8343 30.1999 37.519 30.0353C37.3172 29.93 37.0963 29.8503 36.9456 29.6696C36.7964 29.4897 36.664 29.2958 36.5207 29.11C36.46 29.031 36.3941 28.9564 36.3261 28.884C36.2647 28.8182 36.1967 28.7575 36.1206 28.6836C36.1645 28.6734 36.1857 28.6668 36.2076 28.6631C36.547 28.6068 36.8834 28.6046 37.2235 28.6763C37.4773 28.7297 37.7384 28.7465 37.9974 28.7728C38.0522 28.7787 38.1093 28.7538 38.1656 28.7429C38.1656 28.7304 38.1656 28.7187 38.1656 28.7063C38.1349 28.696 38.1056 28.6843 38.0749 28.677C37.7831 28.6068 37.4971 28.522 37.2484 28.3435C36.9836 28.154 36.7116 27.9785 36.4051 27.8614C36.0277 27.7173 35.6496 27.5835 35.2371 27.5981C35.2086 27.5988 35.1691 27.5857 35.153 27.5652C35.0242 27.4014 34.8984 27.2353 34.7756 27.0678C34.7602 27.0473 34.7551 27.0049 34.7653 26.9822C34.9065 26.664 35.0813 26.3678 35.2927 26.0891C35.4602 25.8675 35.6306 25.6495 35.8602 25.4922C36.3422 25.1623 36.8322 24.8442 37.3172 24.5179C37.6712 24.2795 38.0317 24.0491 38.3682 23.7887C38.5876 23.619 38.7712 23.4039 38.9665 23.2057C39.1244 23.0455 39.2766 22.8802 39.4294 22.7156C39.4594 22.6834 39.4792 22.6417 39.504 22.6051C39.4682 22.6008 39.4484 22.6088 39.4324 22.6212C39.3204 22.7076 39.2188 22.81 39.0974 22.8802C38.6702 23.1274 38.2431 23.379 37.8021 23.6014C37.3091 23.8508 36.773 23.9818 36.234 24.0966C35.4221 24.27 34.6805 24.5984 34.0398 25.1302C33.7911 25.3364 33.5636 25.569 33.3164 25.7775C32.988 26.0547 32.6143 26.2369 32.1747 26.2617C32.0116 26.2705 31.8471 26.2822 31.6862 26.3085C31.5743 26.3268 31.466 26.3715 31.3453 26.4073C31.349 26.3729 31.3468 26.3568 31.3519 26.3429C31.4689 26.0394 31.6108 25.7519 31.831 25.5039C32.0087 25.3028 32.1682 25.0841 32.3276 24.8683C32.3693 24.812 32.381 24.7352 32.4059 24.6671C32.3949 24.6613 32.3832 24.6554 32.3715 24.6489C32.3539 24.6642 32.3349 24.6774 32.3195 24.6942C32.0826 24.9561 31.812 25.1667 31.4865 25.3181C30.8611 25.6078 30.3236 26.0101 29.963 26.615C29.9498 26.6377 29.925 26.6648 29.9023 26.6684C29.6931 26.7013 29.4839 26.7306 29.274 26.7555C29.247 26.7584 29.2038 26.7394 29.1899 26.7174C29.0495 26.4943 28.8981 26.2771 28.7811 26.0423C28.6202 25.7175 28.4651 25.384 28.4373 25.0146C28.3934 24.4287 28.3612 23.8413 28.3196 23.2554C28.2903 22.8356 28.2684 22.415 28.212 21.9988C28.1769 21.7398 28.0862 21.4882 28.016 21.2351C27.9539 21.012 27.8858 20.7904 27.8186 20.5688C27.8025 20.5161 27.7769 20.4663 27.7557 20.4151C27.7461 20.4173 27.7366 20.4195 27.7271 20.4217C27.7279 20.4481 27.7279 20.4737 27.7301 20.4993C27.7527 20.7487 27.7871 20.9967 27.7973 21.2461C27.8251 21.9329 27.7908 22.6154 27.624 23.2839C27.534 23.6446 27.4104 23.9971 27.3175 24.357C27.2634 24.5677 27.2239 24.7791 27.1954 24.9904H17.503C19.7696 20.6375 22.5818 17.1499 22.5818 17.1499H31.8244ZM24.4973 32.8303H3.91954V27.9302H24.4973V32.8303ZM20.5778 41.1602H0V36.2601H20.5778V41.1602ZM24.4973 49H3.91954V44.0999H24.4973V49Z" fill="#B19F63"/>
</g>
</svg>
