<svg width="51" height="51" viewBox="0 0 51 51" fill="none" xmlns="http://www.w3.org/2000/svg">
<g id="ico">
<path id="Vector" fill-rule="evenodd" clip-rule="evenodd" d="M1.07474 29.8303C1.15709 30.369 1.13734 31.0764 1.46581 31.3791C1.7624 31.6524 2.4702 31.4978 2.99666 31.4987C6.6083 31.5045 10.2201 31.3855 13.8317 31.3855C14.02 31.3855 14.2083 31.3855 14.4535 31.3855C14.103 26.9324 14.1388 22.4253 14.6314 17.8783C14.4467 17.8668 14.2934 17.8491 14.1402 17.8491C10.2221 17.8476 6.30409 17.8541 2.38605 17.8382C2.00363 17.8366 1.85907 17.9706 1.75892 18.317C1.24278 20.1046 0.885532 21.9188 0.768471 23.7782C0.759438 23.9204 0.716198 24.0605 0.804996 24.2014C0.804996 25.1059 0.804996 26.0104 0.804996 26.9148C0.815449 27.887 0.926575 28.8615 1.07474 29.8303ZM14.5278 14.9512C14.9532 14.9534 15.0581 14.8001 15.1247 14.4158C15.7927 10.5572 16.758 6.7882 18.6082 3.30123C18.9391 2.67741 19.3259 2.08344 19.7384 1.38894C12.1188 3.39569 6.64005 7.89888 3.05513 14.9038C3.29467 14.9201 3.44542 14.9392 3.5963 14.9394C7.24007 14.941 10.8841 14.9326 14.5278 14.9512ZM17.9609 14.9002C22.9746 14.9002 27.9276 14.9002 32.9599 14.9002C32.8484 14.3022 32.7528 13.7225 32.6311 13.1484C31.9739 10.0479 31.1073 7.01858 29.5324 4.2389C29.2708 3.77737 28.9702 3.3356 28.6604 2.90417C27.9628 1.93252 27.0981 1.16282 25.9534 0.75C25.6308 0.75 25.3081 0.75 24.9854 0.75C23.2823 1.36258 22.2834 2.71527 21.4302 4.19601C19.9837 6.70628 19.1491 9.44642 18.5045 12.2509C18.3064 13.1126 18.1478 13.9833 17.9609 14.9002ZM35.8216 14.4617C35.8791 14.8052 35.9769 14.9512 36.361 14.9497C40.0527 14.9344 43.7443 14.9406 47.436 14.9396C47.5474 14.9396 47.6588 14.926 47.8884 14.9112C44.3001 7.90146 38.8197 3.40202 31.3152 1.41943C31.9688 2.70002 32.6728 3.931 33.2406 5.22193C34.5392 8.17397 35.2921 11.2898 35.8216 14.4617ZM36.5121 17.8529C36.4655 17.8529 36.4191 17.8724 36.3151 17.8955C36.7913 22.4016 36.846 26.9196 36.4819 31.3855C36.7123 31.3855 36.8842 31.3855 37.0561 31.3855C41.0387 31.3855 45.0213 31.494 49.0037 31.5127C49.4315 31.5148 49.6042 31.3784 49.6585 30.9747C49.8174 29.7932 49.9932 28.6141 50.1648 27.4344C50.1855 27.2924 50.2212 27.1526 50.25 27.0117C50.25 25.9587 50.25 25.1382 50.25 24.2014C50.1215 23.2134 50.0359 22.2172 49.8525 21.2395C49.6598 20.2121 49.386 19.199 49.1137 18.1888C49.0759 18.0484 48.8442 17.863 48.7016 17.8625C44.6385 17.8459 40.5752 17.8503 36.5121 17.8529ZM36.6892 34.4004C36.2901 34.3989 36.1493 34.4913 36.0896 34.9162C35.5208 38.9533 34.6452 42.9136 32.9152 46.6332C32.4344 47.6669 31.8397 48.6474 31.297 49.6528C39.4787 47.8034 46.0603 41.4179 48.5761 34.4383C48.4104 34.428 48.2583 34.4103 48.1062 34.4101C44.3006 34.4086 40.4948 34.4146 36.6892 34.4004ZM33.1861 34.8148C33.206 34.7064 33.2004 34.5932 33.2088 34.4453C28.0523 34.4453 22.9178 34.4453 17.7038 34.4453C17.8095 35.119 17.9006 35.781 18.0186 36.4383C18.6335 39.8625 19.4875 43.2138 21.1013 46.3249C21.6909 47.4613 22.3584 48.5587 23.3552 49.3824C23.8392 49.7824 24.4383 50.0428 24.9854 50.25C25.3081 50.25 25.6308 50.25 25.9534 50.25C27.6544 49.7496 28.6558 48.3988 29.5102 46.9169C30.9501 44.4197 31.7939 41.696 32.4215 38.903C32.7254 37.5513 32.9364 36.1786 33.1861 34.8148ZM33.3846 17.8751C28.1024 17.8751 22.8496 17.8751 17.6021 17.8751C17.0825 19.959 16.9544 29.6136 17.4241 31.4742C22.7827 31.4742 28.148 31.4742 33.5663 31.4742C33.9484 26.9338 33.9002 22.4153 33.3846 17.8751ZM13.849 34.409C10.2203 34.409 6.59165 34.409 2.96297 34.409C2.77441 34.409 2.58584 34.409 2.38089 34.409C4.58649 40.9068 11.1572 47.7917 19.7054 49.6611C16.8552 45.2699 15.6768 40.3696 14.9108 35.3329C14.7707 34.4117 14.7885 34.409 13.849 34.409Z" fill="#B19F63"/>
</g>
</svg>
