<svg width="32" height="32" viewBox="0 0 32 32" fill="none" xmlns="http://www.w3.org/2000/svg">
<path fill-rule="evenodd" clip-rule="evenodd" d="M5.99267 20.8822C5.99267 20.8822 9.51246 15.4113 10.7702 13.5398L11.3354 12.8638C12.042 11.9167 13.5451 12.4011 13.8791 13.2695C14.0104 13.6107 13.7828 13.6505 14.1618 13.6752C14.6404 13.7064 14.9442 13.1585 15.4152 13.0713C16.3545 12.8975 17.3139 13.3294 17.5533 14.2162C17.6362 14.5232 17.2517 14.9839 17.5533 15.0282C17.7788 15.0614 17.9531 14.7154 18.2599 14.6225C19.2924 14.3101 20.446 15.068 20.5645 16.0985C20.6258 16.6321 20.2483 16.8853 20.1432 17.4126C19.6731 18.4108 25.9671 12.979 26.8721 12.2976C28.2073 11.2921 29.9237 13.0551 28.4071 14.3079C27.6841 14.9049 24.9511 17.8103 24.2179 18.6032C23.4848 19.3958 22.1298 20.7447 19.9601 22.2414C21.0304 22.0504 24.1911 20.6876 26.0095 21.9781C27.0674 22.7288 26.5038 24.1075 24.5407 24.3749C23.2787 24.5467 21.8257 25.5985 20.3888 26.5042C18.97 27.398 15.4781 27.91 12.6269 27.6427C13.0867 29.095 12.6453 31.095 11.4808 30.9965C7.53076 30.6623 2.96823 27.9319 3.00017 21.7446C3.00949 19.9576 5.99267 20.8822 5.99267 20.8822Z" fill="#F9DF94"/>
<path fill-rule="evenodd" clip-rule="evenodd" d="M23 10L24 7.04999C24 7.04999 16.8308 7 14 7C9.65027 7 7 7.5 7 7.5V3.5C7 3.5 8.56092 4.00064 14 4C18.34 3.99949 24 4 24 4L23 1L29 5.5L23 10Z" fill="#F9DF94"/>
<path fill-rule="evenodd" clip-rule="evenodd" d="M10 10L9 7.04999C9 7.04999 16.1692 7 19 7C23.3497 7 25 7.5 25 7.5V3.5C25 3.5 24.4391 4.00064 19 4C14.66 3.99949 9 4 9 4L10 1L4 5.5L10 10Z" fill="#F9DF94"/>
</svg>
