<svg>
	<symbol id="download" viewBox="0 0 36 36" fill="none" xmlns="http://www.w3.org/2000/svg">
	<path id="download" fill-rule="evenodd" clip-rule="evenodd" d="M35.9966 22.1831C35.9967 25.6738 35.9974 29.1644 35.9964 32.6552C35.9958 34.702 34.701 35.9994 32.6578 35.9996C22.8853 36.0001 13.1126 36.0001 3.34002 35.9996C1.29619 35.9994 0.00143158 34.7026 0.00112071 32.6559C0.000498982 27.7948 -0.00178069 22.9337 0.00277867 18.0725C0.00402213 16.7405 1.19443 15.8396 2.42359 16.2237C3.21785 16.4718 3.72228 17.186 3.72332 18.0879C3.72653 20.8417 3.72456 23.5955 3.72456 26.3493C3.72456 28.1722 3.72456 29.9951 3.72456 31.818C3.72456 31.957 3.72456 32.0961 3.72456 32.2688C13.2613 32.2688 22.7357 32.2688 32.273 32.2688C32.273 32.1153 32.273 31.9671 32.273 31.8188C32.273 27.2421 32.2715 22.6654 32.2742 18.0887C32.2749 17.0449 32.978 16.2383 33.952 16.1445C35.0421 16.0396 35.9815 16.878 35.9926 17.9942C36.0065 19.3905 35.9965 20.7868 35.9966 22.1831ZM23.8058 23.5165C22.3708 24.9522 20.9361 26.3882 19.4998 27.8226C18.5151 28.8061 17.4823 28.8037 16.4937 27.8156C14.244 25.5671 11.9936 23.3193 9.74789 21.067C8.97404 20.2909 8.90804 19.2104 9.57184 18.4511C10.2974 17.6212 11.5059 17.5814 12.3232 18.3851C13.4938 19.5365 14.6481 20.7045 15.8102 21.8645C15.8973 21.9515 15.991 22.0321 16.1369 22.1667C16.1369 21.9563 16.1369 21.819 16.1369 21.6818C16.1369 15.1132 16.136 8.54457 16.1378 1.97602C16.1382 0.828912 16.9464 -0.0117684 18.0234 0.000124612C18.9932 0.01088 19.801 0.782374 19.8561 1.75388C19.8648 1.90859 19.8604 2.06413 19.8604 2.21925C19.8607 8.69742 19.8607 15.1755 19.8607 21.6537C19.8607 21.7954 19.8607 21.9372 19.8607 22.1725C20.0058 22.0372 20.1028 21.9521 20.1939 21.8611C21.3556 20.7007 22.5075 19.5301 23.6803 18.381C24.7217 17.3607 26.3992 17.7676 26.7961 19.1318C27.0043 19.8479 26.8289 20.4871 26.2999 21.0189C25.4702 21.853 24.6376 22.6844 23.8058 23.5165Z" fill="currentColor"/>
	</symbol>
</svg>
