<svg width="42" height="38" viewBox="0 0 42 38" fill="none" xmlns="http://www.w3.org/2000/svg">
<g id="State=Hover, Name=RuTube, Size=32px" filter="url(#filter0_d_5098_25213)">
<path id="Vector" d="M26.2197 10H5V33H10.906V25.5173H22.2232L27.3868 33H34L28.3062 25.4829C30.0746 25.2071 31.3477 24.5518 32.1258 23.5174C32.9037 22.4829 33.2928 20.8277 33.2928 18.6208V16.8967C33.2928 15.5863 33.1515 14.5519 32.9039 13.7588C32.6562 12.9657 32.2318 12.2759 31.6306 11.6553C30.994 11.0691 30.2868 10.6553 29.438 10.3795C28.5891 10.1382 27.5281 10 26.2197 10ZM25.2649 20.4486H10.906V15.069H25.2649C26.078 15.069 26.6439 15.2068 26.9269 15.4483C27.2098 15.6896 27.3868 16.1378 27.3868 16.7931V18.7242C27.3868 19.4137 27.2098 19.862 26.9269 20.1033C26.6439 20.3446 26.0782 20.4482 25.2649 20.4482V20.4486Z" fill="#F9DF94"/>
<path id="Vector_2" d="M34.5005 10C35.8805 10 37 8.88075 37 7.5C37 6.11925 35.8805 5 34.5005 5C33.1195 5 32 6.11925 32 7.5C32 8.88075 33.1195 10 34.5005 10Z" fill="#F9DF94"/>
</g>
<defs>
<filter id="filter0_d_5098_25213" x="0" y="-2" width="42" height="42" filterUnits="userSpaceOnUse" color-interpolation-filters="sRGB">
<feFlood flood-opacity="0" result="BackgroundImageFix"/>
<feColorMatrix in="SourceAlpha" type="matrix" values="0 0 0 0 0 0 0 0 0 0 0 0 0 0 0 0 0 0 127 0" result="hardAlpha"/>
<feOffset/>
<feGaussianBlur stdDeviation="2.5"/>
<feComposite in2="hardAlpha" operator="out"/>
<feColorMatrix type="matrix" values="0 0 0 0 1 0 0 0 0 0.87451 0 0 0 0 0.533333 0 0 0 0.8 0"/>
<feBlend mode="normal" in2="BackgroundImageFix" result="effect1_dropShadow_5098_25213"/>
<feBlend mode="normal" in="SourceGraphic" in2="effect1_dropShadow_5098_25213" result="shape"/>
</filter>
</defs>
</svg>
