<svg width="32" height="32" viewBox="0 0 32 32" fill="none" xmlns="http://www.w3.org/2000/svg">
<g id="Icon Social Media">
<path id="Vector" d="M21.2197 7H0V30H5.90605V22.5173H17.2232L22.3868 30H29L23.3062 22.4829C25.0746 22.2071 26.3477 21.5518 27.1258 20.5174C27.9037 19.4829 28.2928 17.8277 28.2928 15.6208V13.8967C28.2928 12.5863 28.1515 11.5519 27.9039 10.7588C27.6562 9.96567 27.2318 9.27593 26.6306 8.65527C25.994 8.06907 25.2868 7.6553 24.438 7.37952C23.5891 7.13819 22.5281 7 21.2197 7ZM20.2649 17.4486H5.90605V12.069H20.2649C21.078 12.069 21.6439 12.2068 21.9269 12.4483C22.2098 12.6896 22.3868 13.1378 22.3868 13.7931V15.7242C22.3868 16.4137 22.2098 16.862 21.9269 17.1033C21.6439 17.3446 21.0782 17.4482 20.2649 17.4482V17.4486Z" fill="#B19F63"/>
<path id="Vector_2" d="M29.5005 7C30.8805 7 32 5.88075 32 4.5C32 3.11925 30.8805 2 29.5005 2C28.1195 2 27 3.11925 27 4.5C27 5.88075 28.1195 7 29.5005 7Z" fill="#B19F63"/>
</g>
</svg>
