<svg width="40" height="40" viewBox="0 0 40 40" fill="none" xmlns="http://www.w3.org/2000/svg">
<g id="Icon Button">
<path id="Union" fill-rule="evenodd" clip-rule="evenodd" d="M13.1384 10.6759L20.1881 3.60719L27.2378 10.6759L20.1881 17.7445L13.1384 10.6759ZM9.5409 10.6759L11.3397 8.87227L18.3894 1.8036L20.1881 0L21.9869 1.8036L29.0366 8.87227L30.8354 10.6759L29.0366 12.4795L21.9869 19.5481L20.1881 21.3517L18.3894 19.5481L11.3397 12.4795L9.5409 10.6759ZM36.0931 16.1709L40 20.0883L23.9526 36.1789L20.2282 40L20.1844 39.9572L20.161 39.9806L18.1205 37.9346L0 20.1775L3.85863 16.2187L20.1366 32.1702L36.0931 16.1709Z" fill="#B19F63"/>
</g>
</svg>
