<svg width="42" height="36" viewBox="0 0 42 36" fill="none" xmlns="http://www.w3.org/2000/svg">
<g filter="url(#filter0_d_413_400)">
<path d="M32.0894 7.15526C30.0498 6.15768 27.8626 5.42271 25.5759 5.00177C25.5342 4.99364 25.4926 5.01394 25.4712 5.05455C25.1899 5.58784 24.8783 6.28356 24.6601 6.83039C22.2005 6.43787 19.7536 6.43787 17.3444 6.83039C17.1262 6.2714 16.8033 5.58784 16.5208 5.05455C16.4993 5.0153 16.4577 4.995 16.4161 5.00177C14.1305 5.42137 11.9434 6.15634 9.90258 7.15526C9.88491 7.16338 9.86977 7.17693 9.85972 7.19451C5.71119 13.8012 4.57473 20.2454 5.13224 26.6098C5.13476 26.6409 5.15116 26.6707 5.17386 26.6896C7.91095 28.8323 10.5623 30.1331 13.1644 30.9953C13.206 31.0088 13.2501 30.9926 13.2766 30.956C13.8922 30.06 14.4409 29.1152 14.9113 28.1217C14.9391 28.0635 14.9126 27.9945 14.8558 27.9715C13.9855 27.6195 13.1568 27.1905 12.3596 26.7032C12.2966 26.6639 12.2915 26.5678 12.3495 26.5218C12.5173 26.3878 12.6851 26.2484 12.8453 26.1076C12.8743 26.0819 12.9146 26.0765 12.9487 26.0927C18.1857 28.6415 23.8554 28.6415 29.0306 26.0927C29.0647 26.0751 29.1051 26.0806 29.1353 26.1063C29.2955 26.247 29.4633 26.3878 29.6323 26.5218C29.6903 26.5678 29.6865 26.6639 29.6235 26.7032C28.8263 27.1999 27.9976 27.6195 27.126 27.9701C27.0693 27.9931 27.044 28.0635 27.0718 28.1217C27.5523 29.1138 28.101 30.0586 28.7052 30.9547C28.7304 30.9926 28.7758 31.0088 28.8175 30.9953C31.4322 30.1331 34.0835 28.8323 36.8206 26.6896C36.8446 26.6707 36.8597 26.6423 36.8622 26.6111C37.5294 19.2532 35.7447 12.8618 32.131 7.19585C32.1221 7.17693 32.107 7.16338 32.0894 7.15526ZM15.6934 22.7346C14.1167 22.7346 12.8175 21.1916 12.8175 19.2966C12.8175 17.4016 14.0915 15.8586 15.6934 15.8586C17.3078 15.8586 18.5944 17.4151 18.5692 19.2966C18.5692 21.1916 17.2952 22.7346 15.6934 22.7346ZM26.3263 22.7346C24.7497 22.7346 23.4505 21.1916 23.4505 19.2966C23.4505 17.4016 24.7244 15.8586 26.3263 15.8586C27.9408 15.8586 29.2274 17.4151 29.2022 19.2966C29.2022 21.1916 27.9408 22.7346 26.3263 22.7346Z" fill="#F9DF94"/>
</g>
<defs>
<filter id="filter0_d_413_400" x="0" y="0" width="42" height="36" filterUnits="userSpaceOnUse" color-interpolation-filters="sRGB">
<feFlood flood-opacity="0" result="BackgroundImageFix"/>
<feColorMatrix in="SourceAlpha" type="matrix" values="0 0 0 0 0 0 0 0 0 0 0 0 0 0 0 0 0 0 127 0" result="hardAlpha"/>
<feOffset/>
<feGaussianBlur stdDeviation="2.5"/>
<feComposite in2="hardAlpha" operator="out"/>
<feColorMatrix type="matrix" values="0 0 0 0 1 0 0 0 0 0.87451 0 0 0 0 0.533333 0 0 0 0.8 0"/>
<feBlend mode="normal" in2="BackgroundImageFix" result="effect1_dropShadow_413_400"/>
<feBlend mode="normal" in="SourceGraphic" in2="effect1_dropShadow_413_400" result="shape"/>
</filter>
</defs>
</svg>
