<svg width="32" height="32" viewBox="0 0 32 32" fill="none" xmlns="http://www.w3.org/2000/svg">
<g id="Icon Social Media">
<path id="vector" d="M27.0894 5.15526C25.0498 4.15768 22.8626 3.42271 20.5759 3.00177C20.5342 2.99364 20.4926 3.01394 20.4712 3.05455C20.1899 3.58784 19.8783 4.28356 19.6601 4.83039C17.2005 4.43787 14.7536 4.43787 12.3444 4.83039C12.1262 4.2714 11.8033 3.58784 11.5208 3.05455C11.4993 3.0153 11.4577 2.995 11.4161 3.00177C9.13055 3.42137 6.94341 4.15634 4.90258 5.15526C4.88491 5.16338 4.86977 5.17693 4.85972 5.19451C0.711189 11.8012 -0.425267 18.2454 0.13224 24.6098C0.134763 24.6409 0.15116 24.6707 0.173864 24.6896C2.91095 26.8323 5.56228 28.1331 8.16437 28.9953C8.20602 29.0088 8.25014 28.9926 8.27664 28.956C8.89217 28.06 9.44086 27.1152 9.9113 26.1217C9.93906 26.0635 9.91256 25.9945 9.85582 25.9715C8.98551 25.6195 8.1568 25.1905 7.35964 24.7032C7.29659 24.6639 7.29154 24.5678 7.34954 24.5218C7.5173 24.3878 7.68509 24.2484 7.84527 24.1076C7.87425 24.0819 7.91464 24.0765 7.94871 24.0927C13.1857 26.6415 18.8554 26.6415 24.0306 24.0927C24.0647 24.0751 24.1051 24.0806 24.1353 24.1063C24.2955 24.247 24.4633 24.3878 24.6323 24.5218C24.6903 24.5678 24.6865 24.6639 24.6235 24.7032C23.8263 25.1999 22.9976 25.6195 22.126 25.9701C22.0693 25.9931 22.044 26.0635 22.0718 26.1217C22.5523 27.1138 23.101 28.0586 23.7052 28.9547C23.7304 28.9926 23.7758 29.0088 23.8175 28.9953C26.4322 28.1331 29.0835 26.8323 31.8206 24.6896C31.8446 24.6707 31.8597 24.6423 31.8622 24.6111C32.5294 17.2532 30.7447 10.8618 27.131 5.19585C27.1221 5.17693 27.107 5.16338 27.0894 5.15526ZM10.6934 20.7346C9.11666 20.7346 7.81751 19.1916 7.81751 17.2966C7.81751 15.4016 9.09147 13.8586 10.6934 13.8586C12.3078 13.8586 13.5944 15.4151 13.5692 17.2966C13.5692 19.1916 12.2952 20.7346 10.6934 20.7346ZM21.3263 20.7346C19.7497 20.7346 18.4505 19.1916 18.4505 17.2966C18.4505 15.4016 19.7244 13.8586 21.3263 13.8586C22.9408 13.8586 24.2274 15.4151 24.2022 17.2966C24.2022 19.1916 22.9408 20.7346 21.3263 20.7346Z" fill="#B19F63"/>
</g>
</svg>
