<svg width="42" height="32" viewBox="0 0 42 32" fill="none" xmlns="http://www.w3.org/2000/svg">
<g filter="url(#filter0_d_413_386)">
<path d="M36.9156 6.4574C36.9769 6.246 37.0062 6.05 36.9982 5.875C36.9782 5.3682 36.6462 5 35.8649 5H32.3743C31.493 5 31.0863 5.56 30.849 6.1214C30.849 6.1214 28.673 10.824 26.1651 13.925C25.3517 14.8224 24.9384 14.8 24.4984 14.8C24.2624 14.8 23.6664 14.5004 23.6664 13.6786V6.4196C23.6664 5.448 23.4358 5 22.6904 5H16.4918C15.9492 5 15.6665 5.448 15.6665 5.8974C15.6665 6.8312 16.8638 7.0552 16.9998 9.6718V14.744C16.9998 15.976 16.7958 16.2 16.3558 16.2C15.1692 16.2 12.8332 12 11.2692 6.4952C10.9306 5.4116 10.5919 5 9.7106 5H6.18665C5.16933 5 5 5.5236 5 6.0836C5 7.093 5.79999 12.5502 10.1666 18.825C13.3332 23.375 17.5052 26 21.1985 26C23.4358 26 23.6651 25.4022 23.6651 24.4684V20.3076C23.6664 19.1862 23.9104 19 24.6224 19C25.1304 19 26.1664 19.35 28.1664 21.8C30.473 24.6252 30.8917 26 32.2143 26H35.7049C36.5156 26 36.9809 25.643 36.9996 24.95C37.0036 24.7736 36.9796 24.5762 36.9249 24.3564C36.6662 23.55 35.4796 21.5788 33.9996 19.7C33.1796 18.6598 32.3703 17.6294 31.9983 17.0694C31.749 16.704 31.6543 16.4464 31.6663 16.2C31.6783 15.941 31.8063 15.6946 31.9983 15.3502C31.9636 15.3502 36.4756 8.6988 36.9156 6.4574Z" fill="#F9DF94"/>
</g>
<defs>
<filter id="filter0_d_413_386" x="0" y="0" width="42" height="31" filterUnits="userSpaceOnUse" color-interpolation-filters="sRGB">
<feFlood flood-opacity="0" result="BackgroundImageFix"/>
<feColorMatrix in="SourceAlpha" type="matrix" values="0 0 0 0 0 0 0 0 0 0 0 0 0 0 0 0 0 0 127 0" result="hardAlpha"/>
<feOffset/>
<feGaussianBlur stdDeviation="2.5"/>
<feComposite in2="hardAlpha" operator="out"/>
<feColorMatrix type="matrix" values="0 0 0 0 1 0 0 0 0 0.87451 0 0 0 0 0.533333 0 0 0 0.8 0"/>
<feBlend mode="normal" in2="BackgroundImageFix" result="effect1_dropShadow_413_386"/>
<feBlend mode="normal" in="SourceGraphic" in2="effect1_dropShadow_413_386" result="shape"/>
</filter>
</defs>
</svg>
