<svg width="32" height="32" viewBox="0 0 32 32" fill="none" xmlns="http://www.w3.org/2000/svg">
<g id="State=Default, Name=Youtube, Size=32px">
<path id="Vector" d="M12.8 20.7143L21.104 16L12.8 11.2857V20.7143ZM31.296 8.41C31.504 9.14857 31.648 10.1386 31.744 11.3957C31.856 12.6529 31.904 13.7371 31.904 14.68L32 16C32 19.4414 31.744 21.9714 31.296 23.59C30.896 25.0043 29.968 25.9157 28.528 26.3086C27.776 26.5129 26.4 26.6543 24.288 26.7486C22.208 26.8586 20.304 26.9057 18.544 26.9057L16 27C9.296 27 5.12 26.7486 3.472 26.3086C2.032 25.9157 1.104 25.0043 0.704 23.59C0.496 22.8514 0.352 21.8614 0.256 20.6043C0.144 19.3471 0.0959999 18.2629 0.0959999 17.32L0 16C0 12.5586 0.256 10.0286 0.704 8.41C1.104 6.99571 2.032 6.08429 3.472 5.69143C4.224 5.48714 5.6 5.34571 7.712 5.25143C9.792 5.14143 11.696 5.09429 13.456 5.09429L16 5C22.704 5 26.88 5.25143 28.528 5.69143C29.968 6.08429 30.896 6.99571 31.296 8.41Z" fill="#B19F63"/>
</g>
</svg>
