<svg width="42" height="32" viewBox="0 0 42 32" fill="none" xmlns="http://www.w3.org/2000/svg">
<g id="State=Hover, Name=Youtube, Size=32px">
<g id="Vector" filter="url(#filter0_d_413_396)">
<path d="M17.8 20.7143L26.104 16L17.8 11.2857V20.7143ZM36.296 8.41C36.504 9.14857 36.648 10.1386 36.744 11.3957C36.856 12.6529 36.904 13.7371 36.904 14.68L37 16C37 19.4414 36.744 21.9714 36.296 23.59C35.896 25.0043 34.968 25.9157 33.528 26.3086C32.776 26.5129 31.4 26.6543 29.288 26.7486C27.208 26.8586 25.304 26.9057 23.544 26.9057L21 27C14.296 27 10.12 26.7486 8.472 26.3086C7.032 25.9157 6.104 25.0043 5.704 23.59C5.496 22.8514 5.352 21.8614 5.256 20.6043C5.144 19.3471 5.096 18.2629 5.096 17.32L5 16C5 12.5586 5.256 10.0286 5.704 8.41C6.104 6.99571 7.032 6.08429 8.472 5.69143C9.224 5.48714 10.6 5.34571 12.712 5.25143C14.792 5.14143 16.696 5.09429 18.456 5.09429L21 5C27.704 5 31.88 5.25143 33.528 5.69143C34.968 6.08429 35.896 6.99571 36.296 8.41Z" fill="#F9DF94"/>
</g>
</g>
<defs>
<filter id="filter0_d_413_396" x="0" y="0" width="42" height="32" filterUnits="userSpaceOnUse" color-interpolation-filters="sRGB">
<feFlood flood-opacity="0" result="BackgroundImageFix"/>
<feColorMatrix in="SourceAlpha" type="matrix" values="0 0 0 0 0 0 0 0 0 0 0 0 0 0 0 0 0 0 127 0" result="hardAlpha"/>
<feOffset/>
<feGaussianBlur stdDeviation="2.5"/>
<feComposite in2="hardAlpha" operator="out"/>
<feColorMatrix type="matrix" values="0 0 0 0 1 0 0 0 0 0.87451 0 0 0 0 0.533333 0 0 0 0.8 0"/>
<feBlend mode="normal" in2="BackgroundImageFix" result="effect1_dropShadow_413_396"/>
<feBlend mode="normal" in="SourceGraphic" in2="effect1_dropShadow_413_396" result="shape"/>
</filter>
</defs>
</svg>
