<svg width="32" height="32" viewBox="0 0 32 32" fill="none" xmlns="http://www.w3.org/2000/svg">
<g id="&#208;&#180;&#209;&#137;&#209;&#132;&#208;&#178;">
<path id="Vector" fill-rule="evenodd" clip-rule="evenodd" d="M30.9968 11.0061C30.4862 11.1906 29.2954 11.4468 28.4422 11.425C27.5881 11.4043 25.754 11.5231 24.9841 11.6642C24.2148 11.8052 23.0298 12.4839 22.9587 12.6212C22.8882 12.7586 23.017 13.4797 23.0526 13.5783C23.0886 13.6764 23.6045 13.9362 23.8935 14.2061C24.1835 14.476 24.8765 15.4919 25.1093 16.0306C25.341 16.5688 25.9179 16.8976 25.8876 16.9575C25.8564 17.0185 25.78 17.0005 25.5138 16.8377C25.2471 16.6759 24.6093 16.1197 24.298 15.94C23.9868 15.7613 23.56 15.5084 23.4571 15.5222C23.3553 15.5349 23.5197 15.9506 23.5823 16.239C23.5579 16.1303 23.6628 17.1786 23.832 17.6749C24.0457 18.3027 25.2954 18.8754 26.1989 20.8447C26.657 21.8431 26.648 22.8346 27.4762 24.673C27.7826 25.3517 28.7906 26.6927 28.7535 26.7367C28.7164 26.7807 28.4735 26.5246 27.9438 26.0786C27.4141 25.6322 26.3431 24.4434 25.8882 23.5669C25.4327 22.6888 24.3861 21.2561 23.7074 20.8452C23.0276 20.4353 22.561 20.2026 22.4614 20.2174C22.3606 20.2312 22.2991 20.3234 22.0865 20.4862C21.8749 20.6501 21.6814 20.7254 21.6814 20.7254C21.6814 20.7254 21.6692 20.7657 21.6188 21.3235C21.5695 21.8818 21.3399 22.5547 20.779 23.297C20.2169 24.0415 20.1242 24.7907 20.0616 24.823C19.999 24.8543 19.999 24.9524 19.9688 24.6131C19.9365 24.2737 20.0436 23.9715 20.1242 23.3872C20.2048 22.8028 20.1687 22.0632 20.0616 22.0711C19.9555 22.0801 19.85 22.3087 19.5006 22.5801C19.1523 22.8506 18.9465 22.8235 18.411 23.507C17.9678 24.0722 17.9195 25.3411 16.9466 26.7367C16.192 27.8205 15.3458 28.0686 13.8936 29.9971C13.095 31.0581 12.7663 32.0157 12.7101 31.9998C12.6539 31.985 12.8421 31.4356 12.9901 30.6843C13.1391 29.9329 13.5765 29.2394 13.9874 28.3815C14.3792 27.5644 15.041 26.6025 15.3273 25.6301C15.5086 25.015 15.5022 23.744 15.3898 23.6263C15.2769 23.5086 14.6184 23.2292 14.5176 23.2371C14.4169 23.2451 14.2005 23.3607 13.489 23.5961C12.779 23.8326 11.6576 23.708 11.1836 23.7159C10.7101 23.7239 10.0755 23.9535 10.0002 23.8951C9.9254 23.8384 10.2944 23.6364 11.1534 23.3569C12.0123 23.0786 12.5049 22.6496 12.524 22.5801C12.541 22.5107 12.3618 22.5006 12.0871 22.4301C11.813 22.3606 11.2843 22.069 10.6237 21.8919C9.96198 21.7153 9.24088 22.0881 7.72551 22.2811C6.21174 22.4741 4.19426 21.4767 2.30562 21.3542C0.993323 21.2678 -0.0172734 21.4709 0.00022379 21.3542C0.0182512 21.2365 1.50287 20.903 2.24358 20.7561C2.98377 20.6082 5.42278 20.5679 6.60517 20.4571C7.78862 20.3452 8.75574 19.4862 8.81724 19.4104C8.87875 19.3351 8.78118 19.2524 8.75467 18.9915C8.72975 18.7296 8.6921 18.4825 8.6921 18.4825C8.6921 18.4825 8.42541 18.4088 7.75733 17.7645C7.09032 17.1208 6.78013 16.3276 6.54259 15.9108C6.30611 15.494 5.85755 15.1038 5.85755 15.1038C5.85755 15.1038 6.03359 15.1245 6.29392 15.2836C6.57388 15.4543 6.94556 15.7692 7.1041 15.9405C7.40845 16.2719 8.25149 16.5731 8.31883 16.5386C8.38723 16.5052 8.26953 16.3456 8.19476 15.9707C8.11894 15.5959 8.3761 15.6754 7.91375 14.5349C7.66613 13.9219 6.31831 12.8577 5.67038 11.4844C4.94717 9.94936 5.16084 9.30512 4.48693 7.74622C4.01557 6.65553 2.86712 5.31563 2.92968 5.26366C2.99013 5.2117 4.16986 6.33262 4.58078 6.78863C4.99064 7.24569 6.85914 10.1551 7.41534 10.7071C7.97154 11.2585 9.21118 11.8773 9.28489 11.8731C9.35752 11.8683 9.52773 11.7092 9.65869 11.6032C9.79072 11.4971 10.0951 11.3041 10.0951 11.3041C10.0951 11.3041 10.076 10.6069 10.3448 9.92922C10.612 9.25052 11.1115 8.70436 11.4037 8.10467C11.6476 7.60465 11.7371 6.93338 11.7774 7.44665C11.8008 7.73297 11.6322 8.30775 11.5913 8.82155C11.5489 9.33535 11.4975 9.75317 11.6226 9.95837C11.6528 10.0082 11.6571 10.0506 11.6539 10.0809C11.6741 10.0395 11.7165 9.97216 11.84 9.8396C12.2239 9.42601 13.1497 9.20491 13.4911 8.34274C13.8336 7.48164 14.0219 6.85278 14.6131 5.71224C15.2043 4.57064 16.3066 3.88186 17.1666 3.0197C18.0287 2.15753 19.0987 0 19.0987 0C19.0987 0 19.0038 0.637346 18.7907 1.3537C18.6215 1.9237 18.3538 2.54249 18.165 2.93009C17.7382 3.8071 16.4821 6.06697 16.358 6.66879C16.2329 7.2722 16.2721 8.32631 16.3267 8.46364C16.3538 8.53257 16.5621 8.57446 16.7769 8.65665C16.9895 8.73831 17.2069 8.86079 17.2615 8.85177C17.3681 8.83534 17.7811 8.50182 18.7249 8.37297C19.6687 8.24571 19.8956 8.37297 20.5632 8.37297C21.1332 8.37403 21.7106 8.09459 21.7466 8.13383C21.8214 8.21443 21.7599 8.21125 21.5292 8.37297C21.2975 8.53575 20.657 8.68898 20.1581 8.91168C19.6607 9.13438 19.2313 9.40694 19.2233 9.47958C19.2064 9.62964 19.8861 9.6169 20.5319 9.9886C20.9821 10.2474 21.0658 10.1731 21.5292 10.1975C22.2684 10.2367 23.7 9.72667 24.7074 9.80832C25.4879 9.87195 26.2636 9.97906 27.2609 10.2882C28.2593 10.5963 29.7439 10.8089 30.5949 10.767C31.4449 10.724 32.0493 10.5952 31.9968 10.6768C31.9406 10.759 31.5074 10.8227 30.9968 11.0061ZM21.8437 13.9065C21.2906 12.4913 19.8766 10.7765 17.5112 10.1185C14.9153 9.39473 12.7499 10.7177 11.9423 11.2644C11.1354 11.8094 9.22762 13.3827 9.63165 17.1404C10.0012 20.579 13.6194 22.3018 16.1274 22.1438C19.3951 21.9375 21.6671 19.3584 21.9481 17.9575C22.1894 16.7576 22.3675 15.2464 21.8437 13.9065ZM16.1051 21.6835C13.6958 21.6697 10.5924 20.1888 10.1863 17.0471C9.72497 13.476 11.5341 12.1949 12.2732 11.6949C13.0123 11.1949 14.7281 9.88044 17.2583 10.6191C19.9969 11.4165 20.973 12.9542 21.3389 14.0873C21.7047 15.2199 21.6846 16.6972 21.464 17.7958C21.2058 19.0774 18.8983 21.6999 16.1051 21.6835ZM20.8718 14.5953C20.4688 13.1223 19.7132 12.3964 18.6597 12.143C17.4784 11.8598 16.2212 12.1461 15.2329 13.2199C14.3957 14.1292 14.4954 14.3821 14.3607 14.2957C14.2265 14.2103 14.3093 13.1324 14.8904 12.2029C15.4715 11.2739 16.253 11.0395 16.261 10.9462C16.2689 10.8539 15.0685 10.8121 14.2976 11.1864C13.5282 11.5602 12.8066 11.7564 11.9927 12.7103C11.1788 13.6658 10.5532 14.274 11.0267 15.8509C11.1656 16.3149 11.7621 17.431 13.0516 17.8547C14.2626 18.2529 15.068 18.0254 15.1385 18.1834C15.2101 18.3425 13.8071 18.8552 12.4291 18.7216C11.2907 18.6108 11.1682 18.0302 10.9959 18.2136C10.8236 18.396 12.3395 20.088 14.0802 20.6951C14.9916 21.0138 16.2408 21.262 17.1958 20.8754C18.0632 20.5234 18.7095 19.6082 18.9094 18.6617C19.2578 16.9994 18.1549 15.7851 18.192 15.6711C18.2302 15.5571 19.1311 15.9543 19.7504 17.0768C20.3686 18.1988 20.2048 18.6733 20.2175 18.7216C20.2297 18.7699 20.3834 18.7179 20.5287 18.4517C20.674 18.1877 21.2747 16.0694 20.8718 14.5953Z" fill="#FAFAFA"/>
</g>
</svg>
