<svg width="25" height="25" viewBox="0 0 25 25" fill="none" xmlns="http://www.w3.org/2000/svg">
<path id="Subtract" fill-rule="evenodd" clip-rule="evenodd" d="M10.6871 0.982422H13.8135L24.2505 11.4194V14.5458L13.8135 24.9824H10.6871L0.250488 14.5458V11.4194L10.6871 0.982422ZM10.1645 4.84642L11.4365 16.5104H13.0925L14.3405 4.84642H10.1645ZM10.8845 21.7664C11.2685 22.0384 11.7325 22.1744 12.2765 22.1744C12.8045 22.1744 13.2605 22.0384 13.6445 21.7664C14.0445 21.4784 14.2445 20.9744 14.2445 20.2544C14.2445 19.5184 14.0445 19.0144 13.6445 18.7424C13.2605 18.4704 12.8045 18.3344 12.2765 18.3344C11.7325 18.3344 11.2685 18.4704 10.8845 18.7424C10.5005 19.0144 10.3085 19.5184 10.3085 20.2544C10.3085 20.9744 10.5005 21.4784 10.8845 21.7664Z" fill="#2E86D1"/>
</svg>
