<svg width="22" height="24" viewBox="0 0 22 24" fill="none" xmlns="http://www.w3.org/2000/svg">
<path d="M2.35473 21.9188C4.81564 24.3788 8.80384 24.3785 11.2644 21.9185L18.2646 14.9186C18.6162 14.567 18.6159 13.9973 18.2646 13.646C17.913 13.2944 17.3433 13.2941 16.9917 13.6457L9.99184 20.6459C8.23744 22.4003 5.38204 22.4003 3.62764 20.6459C1.87324 18.8915 1.87324 16.0361 3.62764 14.282L15.0825 2.82652C16.1349 1.77442 17.8488 1.77442 18.9012 2.82652C19.953 3.87892 19.953 5.59282 18.9009 6.64522L7.44544 18.1004C7.09564 18.4505 6.52294 18.4505 6.17284 18.1007C5.82274 17.7503 5.82274 17.1776 6.17284 16.8278L16.3551 6.64492C16.7067 6.29362 16.7067 5.72392 16.3554 5.37262C16.0038 5.02102 15.4341 5.02102 15.0828 5.37262L4.90084 15.5543C3.84843 16.6064 3.84843 18.3206 4.90084 19.3727C5.95294 20.4251 7.66714 20.4251 8.71924 19.3727L20.1738 7.91782C21.9303 6.16162 21.9303 3.31072 20.1738 1.55422C18.4176 -0.202879 15.5664 -0.202579 13.8099 1.55422L2.35443 13.0091C-0.105865 15.4694 -0.105865 19.4576 2.35473 21.9188Z" fill="#61646B"/>
</svg>
