<svg width="10" height="21" viewBox="0 0 10 21" fill="none" xmlns="http://www.w3.org/2000/svg">
<g id="Arrow" clip-path="url(#clip0_12505_4719)">
<g id="Vector 129">
<path d="M-0.999997 0L-0.999995 21L-1 22L4.76837e-06 22L9.49303e-06 21L10 11L10 10L7.85984e-06 -4.37118e-08L7.81613e-06 -1L-0.999997 -1L-0.999997 0Z" fill="#252E32"/>
<path d="M-0.499995 21L-0.499995 21L-0.499997 -2.18559e-08L-0.499992 -0.5L-0.499992 -2.18561e-08L-0.499992 0.207108L-0.353545 0.353554L9.50001 10.2071L9.50001 10.7929L-0.353544 20.6464L-0.49999 20.7929L-0.499991 21L-0.499993 21.5L-0.499998 21.5L-0.499995 21Z" stroke="#455A61" stroke-opacity="0.3"/>
</g>
</g>
<defs>
<clipPath id="clip0_12505_4719">
<rect width="10" height="21" fill="white" transform="matrix(1 -8.74228e-08 -8.74228e-08 -1 0 21)"/>
</clipPath>
</defs>
</svg>
