<svg width="342" height="342" viewBox="0 0 342 342" fill="none" xmlns="http://www.w3.org/2000/svg">
<path fill-rule="evenodd" clip-rule="evenodd" d="M117.616 10.6919C119.587 16.1501 122.323 28.8753 122.092 37.9939C121.872 47.1233 123.14 66.7277 124.65 74.9528C126.159 83.1778 133.413 95.8384 134.881 96.6028C136.348 97.3564 144.053 95.9783 145.112 95.6015C146.16 95.2139 148.938 89.7019 151.821 86.6121C154.704 83.5115 165.564 76.1047 171.319 73.6178C177.074 71.1417 180.585 64.9729 181.225 65.2959C181.875 65.6296 181.686 66.4478 179.946 69.29C178.216 72.1429 172.273 78.9576 170.354 82.2842C168.446 85.6109 165.742 90.1756 165.889 91.2737C166.025 92.361 170.47 90.6062 173.552 89.9387C172.388 90.1971 183.594 89.0775 188.898 87.2688C195.607 84.9865 201.729 71.6261 222.778 61.9692C233.45 57.0708 244.048 57.1677 263.692 48.3183C270.946 45.0455 285.276 34.2689 285.748 34.6673C286.22 35.0656 283.484 37.6602 278.714 43.3229C273.944 48.9857 261.239 60.4298 251.868 65.2959C242.486 70.162 227.171 81.3477 222.778 88.6038C218.396 95.8707 215.912 100.855 216.069 101.921C216.216 102.998 217.201 103.654 218.942 105.926C220.692 108.187 221.499 110.254 221.499 110.254C221.499 110.254 221.929 110.383 227.894 110.921C233.858 111.449 241.05 113.903 248.985 119.9C256.941 125.907 264.95 126.898 265.296 127.565C265.632 128.233 266.68 128.233 263.053 128.556C259.426 128.9 256.197 127.759 249.949 126.898C243.702 126.036 235.798 126.424 235.882 127.565C235.976 128.695 238.418 129.826 241.322 133.562C244.215 137.287 243.922 139.483 251.228 145.21C257.266 149.947 270.831 150.464 285.748 160.864C297.331 168.927 299.983 177.97 320.592 193.495C331.935 202.032 342.166 205.542 341.998 206.144C341.841 206.747 335.97 204.734 327.941 203.152C319.911 201.558 312.5 196.886 303.327 192.493C294.595 188.306 284.312 181.232 273.923 178.175C267.351 176.237 253.765 176.302 252.507 177.507C251.249 178.713 248.262 185.754 248.346 186.831C248.429 187.907 249.666 190.222 252.182 197.823C254.709 205.412 253.377 217.395 253.461 222.465C253.545 227.525 255.998 234.308 255.379 235.115C254.771 235.912 252.612 231.972 249.624 222.788C246.647 213.605 242.066 208.341 241.322 208.136C240.578 207.953 240.473 209.869 239.718 212.808C238.974 215.737 235.861 221.389 233.963 228.451C232.076 235.524 236.06 243.233 238.125 259.424C240.19 275.605 229.529 297.169 228.219 317.355C227.296 331.383 229.466 342.181 228.219 341.998C226.961 341.804 223.397 325.935 221.824 318.022C220.241 310.109 219.812 284.046 218.627 271.407C217.432 258.757 208.249 248.422 207.442 247.765C206.635 247.108 205.754 248.152 202.966 248.432C200.167 248.702 197.525 249.1 197.525 249.1C197.525 249.1 196.739 251.953 189.852 259.09C182.975 266.217 174.495 269.533 170.04 272.074C165.585 274.604 161.413 279.395 161.413 279.395C161.413 279.395 161.633 277.511 163.331 274.733C165.155 271.74 168.52 267.768 170.354 266.077C173.897 262.826 177.116 253.815 176.749 253.094C176.392 252.362 174.684 253.621 170.679 254.418C166.675 255.226 167.524 252.48 155.333 257.422C148.781 260.07 137.407 274.475 122.731 281.397C106.326 289.127 99.4389 286.845 82.7819 294.047C71.1251 299.085 56.8057 311.358 56.2501 310.691C55.6946 310.045 67.6763 297.438 72.5507 293.046C77.4357 288.664 108.527 268.694 114.429 262.751C120.32 256.808 126.935 243.556 126.893 242.77C126.841 241.994 125.142 240.175 124.01 238.775C122.878 237.365 120.813 234.114 120.813 234.114C120.813 234.114 113.36 234.318 106.116 231.444C98.8623 228.591 93.0234 223.251 86.6185 220.129C81.2723 217.524 74.1022 216.566 79.5846 216.135C82.6456 215.887 88.7884 217.685 94.2814 218.127C99.7743 218.579 104.24 219.128 106.431 217.793C106.965 217.47 107.416 217.427 107.741 217.459C107.301 217.244 106.578 216.792 105.162 215.468C100.739 211.366 98.3801 201.472 89.1658 197.823C79.962 194.162 73.2426 192.149 61.0512 185.829C48.8494 179.51 41.4905 167.732 32.2762 158.538C23.0619 149.323 -8.92195e-06 137.889 -8.92195e-06 137.889C-8.92195e-06 137.889 6.81374 138.901 14.4661 141.184C20.5566 142.992 27.1711 145.856 31.3118 147.869C40.6833 152.434 64.8355 165.859 71.2719 167.183C77.7187 168.518 88.9876 168.098 90.4552 167.517C91.189 167.226 91.6397 164.998 92.5203 162.705C93.3903 160.433 94.7007 158.108 94.6063 157.526C94.4281 156.385 90.864 151.971 89.4908 141.884C88.128 131.796 89.4908 129.374 89.4908 122.236C89.5012 116.143 86.5137 109.974 86.933 109.586C87.7926 108.79 87.7611 109.446 89.4908 111.912C91.2309 114.388 92.8662 121.235 95.2458 126.564C97.6253 131.882 100.54 136.468 101.315 136.555C102.919 136.738 102.783 129.471 106.756 122.57C109.523 117.757 108.727 116.864 108.989 111.912C109.408 104.01 103.957 88.7114 104.827 77.9457C105.508 69.6022 106.651 61.3125 109.953 50.6544C113.245 39.9855 115.519 24.1168 115.069 15.0197C114.607 5.93343 113.234 -0.526016 114.104 0.0337984C114.974 0.604385 115.656 5.23363 117.616 10.6919ZM147.5 101.921C122.925 111.128 107.872 127.398 100.5 152.5C91.5718 181.119 107.153 210.634 115 217.793C123.394 228.694 146.235 248.773 184.5 242.77C222.134 236.893 245.235 207.386 244 171C242.879 137.977 224.347 111.576 193 101.5C179 97 164.14 95.6867 147.5 101.921ZM234 170C235 196 216.292 227.003 182.179 233.113C144.119 237.508 125.958 215.851 120.5 208.5C116.023 202.715 103.476 185.84 110 155C118.522 125.728 138.392 115.408 150.5 111.5C163.672 106.425 179.186 108.295 190 110.921C207.519 115.175 235.097 138.855 234 170ZM155.972 118.909C140.227 123.216 132.47 131.29 129.765 142.551C126.736 155.179 129.797 168.615 141.275 179.176C150.993 188.123 153.697 187.057 152.775 188.499C151.863 189.931 140.342 189.048 130.405 182.837C120.478 176.625 117.972 168.27 116.976 168.184C115.991 168.098 115.54 180.931 119.545 189.167C123.539 197.392 125.635 205.1 135.835 213.799C146.045 222.498 152.544 229.183 169.4 224.123C174.359 222.638 186.288 216.264 190.816 202.484C195.072 189.544 192.64 180.931 194.328 180.177C196.026 179.413 201.509 194.41 200.083 209.137C198.899 221.303 192.693 222.616 194.653 224.457C196.603 226.298 214.686 210.096 221.174 191.492C224.581 181.749 227.233 168.4 223.103 158.194C219.34 148.924 209.56 142.013 199.444 139.881C181.676 136.156 168.698 147.945 167.482 147.546C166.266 147.137 170.512 137.513 182.504 130.892C194.496 124.282 199.57 126.036 200.083 125.896C200.597 125.767 200.041 124.12 197.2 122.57C194.37 121.02 171.728 114.603 155.972 118.909Z" fill="#484848" style="mix-blend-mode:overlay"/>
<path fill-rule="evenodd" clip-rule="evenodd" d="M117.616 10.6919C119.587 16.1501 122.323 28.8753 122.092 37.9939C121.872 47.1233 123.14 66.7277 124.65 74.9528C126.159 83.1778 133.413 95.8384 134.881 96.6028C136.348 97.3564 144.053 95.9783 145.112 95.6015C146.16 95.2139 148.938 89.7019 151.821 86.6121C154.704 83.5115 165.564 76.1047 171.319 73.6178C177.074 71.1417 180.585 64.9729 181.225 65.2959C181.875 65.6296 181.686 66.4478 179.946 69.29C178.216 72.1429 172.273 78.9576 170.354 82.2842C168.446 85.6109 165.742 90.1756 165.889 91.2737C166.025 92.361 170.47 90.6062 173.552 89.9387C172.388 90.1971 183.594 89.0775 188.898 87.2688C195.607 84.9865 201.729 71.6261 222.778 61.9692C233.45 57.0708 244.048 57.1677 263.692 48.3183C270.946 45.0455 285.276 34.2689 285.748 34.6673C286.22 35.0656 283.484 37.6602 278.714 43.3229C273.944 48.9857 261.239 60.4298 251.868 65.2959C242.486 70.162 227.171 81.3477 222.778 88.6038C218.396 95.8707 215.912 100.855 216.069 101.921C216.216 102.998 217.201 103.654 218.942 105.926C220.692 108.187 221.499 110.254 221.499 110.254C221.499 110.254 221.929 110.383 227.894 110.921C233.858 111.449 241.05 113.903 248.985 119.9C256.941 125.907 264.95 126.898 265.296 127.565C265.632 128.233 266.68 128.233 263.053 128.556C259.426 128.9 256.197 127.759 249.949 126.898C243.702 126.036 235.798 126.424 235.882 127.565C235.976 128.695 238.418 129.826 241.322 133.562C244.215 137.287 243.922 139.483 251.228 145.21C257.266 149.947 270.831 150.464 285.748 160.864C297.331 168.927 299.983 177.97 320.592 193.495C331.935 202.032 342.166 205.542 341.998 206.144C341.841 206.747 335.97 204.734 327.941 203.152C319.911 201.558 312.5 196.886 303.327 192.493C294.595 188.306 284.312 181.232 273.923 178.175C267.351 176.237 253.765 176.302 252.507 177.507C251.249 178.713 248.262 185.754 248.346 186.831C248.429 187.907 249.666 190.222 252.182 197.823C254.709 205.412 253.377 217.395 253.461 222.465C253.545 227.525 255.998 234.308 255.379 235.115C254.771 235.912 252.612 231.972 249.624 222.788C246.647 213.605 242.066 208.341 241.322 208.136C240.578 207.953 240.473 209.869 239.718 212.808C238.974 215.737 235.861 221.389 233.963 228.451C232.076 235.524 236.06 243.233 238.125 259.424C240.19 275.605 229.529 297.169 228.219 317.355C227.296 331.383 229.466 342.181 228.219 341.998C226.961 341.804 223.397 325.935 221.824 318.022C220.241 310.109 219.812 284.046 218.627 271.407C217.432 258.757 208.249 248.422 207.442 247.765C206.635 247.108 205.754 248.152 202.966 248.432C200.167 248.702 197.525 249.1 197.525 249.1C197.525 249.1 196.739 251.953 189.852 259.09C182.975 266.217 174.495 269.533 170.04 272.074C165.585 274.604 161.413 279.395 161.413 279.395C161.413 279.395 161.633 277.511 163.331 274.733C165.155 271.74 168.52 267.768 170.354 266.077C173.897 262.826 177.116 253.815 176.749 253.094C176.392 252.362 174.684 253.621 170.679 254.418C166.675 255.226 167.524 252.48 155.333 257.422C148.781 260.07 137.407 274.475 122.731 281.397C106.326 289.127 99.4389 286.845 82.7819 294.047C71.1251 299.085 56.8057 311.358 56.2501 310.691C55.6946 310.045 67.6763 297.438 72.5507 293.046C77.4357 288.664 108.527 268.694 114.429 262.751C120.32 256.808 126.935 243.556 126.893 242.77C126.841 241.994 125.142 240.175 124.01 238.775C122.878 237.365 120.813 234.114 120.813 234.114C120.813 234.114 113.36 234.318 106.116 231.444C98.8623 228.591 93.0234 223.251 86.6185 220.129C81.2723 217.524 74.1022 216.566 79.5846 216.135C82.6456 215.887 88.7884 217.685 94.2814 218.127C99.7743 218.579 104.24 219.128 106.431 217.793C106.965 217.47 107.416 217.427 107.741 217.459C107.301 217.244 106.578 216.792 105.162 215.468C100.739 211.366 98.3801 201.472 89.1658 197.823C79.962 194.162 73.2426 192.149 61.0512 185.829C48.8494 179.51 41.4905 167.732 32.2762 158.538C23.0619 149.323 -8.92195e-06 137.889 -8.92195e-06 137.889C-8.92195e-06 137.889 6.81374 138.901 14.4661 141.184C20.5566 142.992 27.1711 145.856 31.3118 147.869C40.6833 152.434 64.8355 165.859 71.2719 167.183C77.7187 168.518 88.9876 168.098 90.4552 167.517C91.189 167.226 91.6397 164.998 92.5203 162.705C93.3903 160.433 94.7007 158.108 94.6063 157.526C94.4281 156.385 90.864 151.971 89.4908 141.884C88.128 131.796 89.4908 129.374 89.4908 122.236C89.5012 116.143 86.5137 109.974 86.933 109.586C87.7926 108.79 87.7611 109.446 89.4908 111.912C91.2309 114.388 92.8662 121.235 95.2458 126.564C97.6253 131.882 100.54 136.468 101.315 136.555C102.919 136.738 102.783 129.471 106.756 122.57C109.523 117.757 108.727 116.864 108.989 111.912C109.408 104.01 103.957 88.7114 104.827 77.9457C105.508 69.6022 106.651 61.3125 109.953 50.6544C113.245 39.9855 115.519 24.1168 115.069 15.0197C114.607 5.93343 113.234 -0.526016 114.104 0.0337984C114.974 0.604385 115.656 5.23363 117.616 10.6919ZM147.5 101.921C122.925 111.128 107.872 127.398 100.5 152.5C91.5718 181.119 107.153 210.634 115 217.793C123.394 228.694 146.235 248.773 184.5 242.77C222.134 236.893 245.235 207.386 244 171C242.879 137.977 224.347 111.576 193 101.5C179 97 164.14 95.6867 147.5 101.921ZM234 170C235 196 216.292 227.003 182.179 233.113C144.119 237.508 125.958 215.851 120.5 208.5C116.023 202.715 103.476 185.84 110 155C118.522 125.728 138.392 115.408 150.5 111.5C163.672 106.425 179.186 108.295 190 110.921C207.519 115.175 235.097 138.855 234 170ZM155.972 118.909C140.227 123.216 132.47 131.29 129.765 142.551C126.736 155.179 129.797 168.615 141.275 179.176C150.993 188.123 153.697 187.057 152.775 188.499C151.863 189.931 140.342 189.048 130.405 182.837C120.478 176.625 117.972 168.27 116.976 168.184C115.991 168.098 115.54 180.931 119.545 189.167C123.539 197.392 125.635 205.1 135.835 213.799C146.045 222.498 152.544 229.183 169.4 224.123C174.359 222.638 186.288 216.264 190.816 202.484C195.072 189.544 192.64 180.931 194.328 180.177C196.026 179.413 201.509 194.41 200.083 209.137C198.899 221.303 192.693 222.616 194.653 224.457C196.603 226.298 214.686 210.096 221.174 191.492C224.581 181.749 227.233 168.4 223.103 158.194C219.34 148.924 209.56 142.013 199.444 139.881C181.676 136.156 168.698 147.945 167.482 147.546C166.266 147.137 170.512 137.513 182.504 130.892C194.496 124.282 199.57 126.036 200.083 125.896C200.597 125.767 200.041 124.12 197.2 122.57C194.37 121.02 171.728 114.603 155.972 118.909Z" fill="url(#paint0_radial_1528_14800)"/>
<defs>
<radialGradient id="paint0_radial_1528_14800" cx="0" cy="0" r="1" gradientUnits="userSpaceOnUse" gradientTransform="translate(170.533 170.548) scale(171 171)">
<stop stop-color="#128A8C"/>
<stop offset="1" stop-color="#093A43"/>
</radialGradient>
</defs>
</svg>
