<svg width="32" height="33" viewBox="0 0 32 33" fill="none" xmlns="http://www.w3.org/2000/svg">
<g id="Group">
<path id="Vector" d="M28.8754 24.3127C28.4504 24.5377 28.0129 24.7377 27.5629 24.9002C26.1254 25.4377 24.6129 25.7127 23.0754 25.7127C17.1629 25.7127 12.0129 21.6502 12.0129 16.4252C12.0254 15.0002 12.8129 13.6877 14.0629 13.0127C8.71289 13.2377 7.33789 18.8127 7.33789 22.0752C7.33789 31.3127 15.8504 32.2502 17.6879 32.2502C18.6754 32.2502 20.1629 31.9627 21.0629 31.6752L21.2254 31.6252C24.6754 30.4377 27.6004 28.1127 29.5504 25.0252C29.7004 24.7877 29.6254 24.4877 29.4004 24.3377C29.2379 24.2377 29.0379 24.2252 28.8754 24.3127Z" fill="url(#paint0_linear_8402_6884)"/>
<path id="Vector_2" opacity="0.35" d="M28.8754 24.3127C28.4504 24.5377 28.0129 24.7377 27.5629 24.9002C26.1254 25.4377 24.6129 25.7127 23.0754 25.7127C17.1629 25.7127 12.0129 21.6502 12.0129 16.4252C12.0254 15.0002 12.8129 13.6877 14.0629 13.0127C8.71289 13.2377 7.33789 18.8127 7.33789 22.0752C7.33789 31.3127 15.8504 32.2502 17.6879 32.2502C18.6754 32.2502 20.1629 31.9627 21.0629 31.6752L21.2254 31.6252C24.6754 30.4377 27.6004 28.1127 29.5504 25.0252C29.7004 24.7877 29.6254 24.4877 29.4004 24.3377C29.2379 24.2377 29.0379 24.2252 28.8754 24.3127Z" fill="url(#paint1_radial_8402_6884)"/>
<path id="Vector_3" d="M13.2126 30.6749C12.1001 29.9874 11.1376 29.0749 10.3751 28.0124C7.08757 23.5124 8.07507 17.1999 12.5751 13.9124C13.0501 13.5749 13.5376 13.2624 14.0626 13.0124C14.4501 12.8249 15.1126 12.4999 16.0001 12.5124C17.2626 12.5249 18.4501 13.1249 19.2126 14.1374C19.7126 14.8124 20.0001 15.6249 20.0126 16.4749C20.0126 16.4499 23.0751 6.5249 10.0126 6.5249C4.52507 6.5249 0.0125718 11.7374 0.0125718 16.2999C-0.0124282 18.7124 0.512572 21.1124 1.52507 23.2999C4.97507 30.6499 13.3751 34.2499 21.0751 31.6874C18.4376 32.5124 15.5626 32.1499 13.2126 30.6749Z" fill="url(#paint2_linear_8402_6884)"/>
<path id="Vector_4" opacity="0.41" d="M13.2126 30.6749C12.1001 29.9874 11.1376 29.0749 10.3751 28.0124C7.08757 23.5124 8.07507 17.1999 12.5751 13.9124C13.0501 13.5749 13.5376 13.2624 14.0626 13.0124C14.4501 12.8249 15.1126 12.4999 16.0001 12.5124C17.2626 12.5249 18.4501 13.1249 19.2126 14.1374C19.7126 14.8124 20.0001 15.6249 20.0126 16.4749C20.0126 16.4499 23.0751 6.5249 10.0126 6.5249C4.52507 6.5249 0.0125718 11.7374 0.0125718 16.2999C-0.0124282 18.7124 0.512572 21.1124 1.52507 23.2999C4.97507 30.6499 13.3751 34.2499 21.0751 31.6874C18.4376 32.5124 15.5626 32.1499 13.2126 30.6749Z" fill="url(#paint3_radial_8402_6884)"/>
<path id="Vector_5" d="M19.0375 19.1125C18.9375 19.2375 18.625 19.425 18.625 19.825C18.625 20.15 18.8375 20.4625 19.2125 20.725C21.0125 21.975 24.4 21.8125 24.4125 21.8125C25.75 21.8125 27.05 21.45 28.2 20.775C30.55 19.4 32 16.8875 32 14.1625C32.0375 11.3625 31 9.5 30.5875 8.675C27.9375 3.4875 22.2125 0.5 16 0.5C7.25 0.5 0.125 7.525 0 16.275C0.0625 11.7125 4.6 8.025 10 8.025C10.4375 8.025 12.9375 8.0625 15.25 9.2875C17.2875 10.3625 18.3625 11.65 19.1 12.9375C19.875 14.275 20.0125 15.95 20.0125 16.625C20.0125 17.2875 19.675 18.2875 19.0375 19.1125Z" fill="url(#paint4_radial_8402_6884)"/>
<path id="Vector_6" d="M19.0375 19.1125C18.9375 19.2375 18.625 19.425 18.625 19.825C18.625 20.15 18.8375 20.4625 19.2125 20.725C21.0125 21.975 24.4 21.8125 24.4125 21.8125C25.75 21.8125 27.05 21.45 28.2 20.775C30.55 19.4 32 16.8875 32 14.1625C32.0375 11.3625 31 9.5 30.5875 8.675C27.9375 3.4875 22.2125 0.5 16 0.5C7.25 0.5 0.125 7.525 0 16.275C0.0625 11.7125 4.6 8.025 10 8.025C10.4375 8.025 12.9375 8.0625 15.25 9.2875C17.2875 10.3625 18.3625 11.65 19.1 12.9375C19.875 14.275 20.0125 15.95 20.0125 16.625C20.0125 17.2875 19.675 18.2875 19.0375 19.1125Z" fill="url(#paint5_radial_8402_6884)"/>
</g>
<defs>
<linearGradient id="paint0_linear_8402_6884" x1="7.33843" y1="22.6277" x2="29.6237" y2="22.6277" gradientUnits="userSpaceOnUse">
<stop stop-color="#0C59A4"/>
<stop offset="1" stop-color="#114A8B"/>
</linearGradient>
<radialGradient id="paint1_radial_8402_6884" cx="0" cy="0" r="1" gradientUnits="userSpaceOnUse" gradientTransform="translate(19.6494 22.8047) scale(11.9213 11.324)">
<stop offset="0.72" stop-opacity="0"/>
<stop offset="0.95" stop-opacity="0.53"/>
<stop offset="1"/>
</radialGradient>
<linearGradient id="paint2_linear_8402_6884" x1="19.0965" y1="12.9682" x2="5.17477" y2="28.1322" gradientUnits="userSpaceOnUse">
<stop stop-color="#1B9DE2"/>
<stop offset="0.16" stop-color="#1595DF"/>
<stop offset="0.67" stop-color="#0680D7"/>
<stop offset="1" stop-color="#0078D4"/>
</linearGradient>
<radialGradient id="paint3_radial_8402_6884" cx="0" cy="0" r="1" gradientUnits="userSpaceOnUse" gradientTransform="translate(8.82609 25.376) rotate(-81.3826) scale(17.9247 14.4842)">
<stop offset="0.76" stop-opacity="0"/>
<stop offset="0.95" stop-opacity="0.5"/>
<stop offset="1"/>
</radialGradient>
<radialGradient id="paint4_radial_8402_6884" cx="0" cy="0" r="1" gradientUnits="userSpaceOnUse" gradientTransform="translate(3.23157 6.42406) rotate(92.2909) scale(25.3189 53.9323)">
<stop stop-color="#35C1F1"/>
<stop offset="0.11" stop-color="#34C1ED"/>
<stop offset="0.23" stop-color="#2FC2DF"/>
<stop offset="0.31" stop-color="#2BC3D2"/>
<stop offset="0.67" stop-color="#36C752"/>
</radialGradient>
<radialGradient id="paint5_radial_8402_6884" cx="0" cy="0" r="1" gradientUnits="userSpaceOnUse" gradientTransform="translate(30.0075 10.1757) rotate(73.7366) scale(12.1652 9.89461)">
<stop stop-color="#66EB6E"/>
<stop offset="1" stop-color="#66EB6E" stop-opacity="0"/>
</radialGradient>
</defs>
</svg>
