<svg>
	<symbol id="footer" viewBox="0 0 190 79" fill="none" xmlns="http://www.w3.org/2000/svg">
		<g id="Group" filter="url(#filter0_d_1678_2447)">
		<path id="Vector" fill-rule="evenodd" clip-rule="evenodd" d="M150.747 73.7041H39.2493C19.5443 73.7041 3.57031 57.7171 3.57031 37.9971C3.57031 18.2761 19.5443 2.28906 39.2493 2.28906H150.747C170.452 2.28906 186.426 18.2761 186.426 37.9971C186.426 57.7171 170.452 73.7041 150.747 73.7041ZM150.747 6.91706H39.2493C30.9543 6.91706 23.1563 10.1501 17.2913 16.0201C11.4253 21.8911 8.19531 29.6951 8.19531 37.9971C8.19531 46.2971 11.4253 54.1031 17.2913 59.9721C23.1563 65.8431 30.9543 69.0751 39.2493 69.0751H150.747C159.042 69.0751 166.84 65.8431 172.705 59.9721C178.571 54.1031 181.801 46.2981 181.801 37.9971C181.801 29.6951 178.571 21.8911 172.705 16.0201C166.84 10.1501 159.041 6.91706 150.747 6.91706ZM149.26 64.7771C134.481 64.7771 122.501 52.7871 122.501 37.9971C122.501 23.2061 134.481 11.2161 149.26 11.2161C164.039 11.2161 176.019 23.2061 176.019 37.9971C176.019 52.7871 164.039 64.7771 149.26 64.7771ZM149.26 21.6301C140.061 21.6301 132.907 28.7901 132.907 37.9971C132.907 47.2031 140.061 54.3621 149.26 54.3621C158.459 54.3621 165.613 47.2031 165.613 37.9971C165.613 28.7901 158.459 21.6301 149.26 21.6301ZM94.1003 64.6751C83.9003 64.2541 75.5323 56.9461 73.8353 47.4891C73.5033 45.6411 74.9413 43.9471 76.8173 43.9471C78.8873 43.9471 81.3573 43.9471 83.1983 43.9471C84.5763 43.9471 85.7563 44.8841 86.1243 46.2121C87.1303 49.8421 90.4843 52.6011 94.5253 52.8151C99.8363 53.0961 104.259 48.9031 104.259 43.7691C104.259 43.7691 104.267 32.8251 104.272 23.4271C104.276 16.7451 109.742 11.2951 116.419 11.2981C116.458 11.2981 116.497 11.2981 116.536 11.2981C116.517 15.8451 116.554 43.6751 116.554 43.6751C116.554 55.5381 106.38 65.1831 94.1003 64.6751ZM79.6283 37.9971C76.2113 37.9971 73.4423 35.2241 73.4423 31.8061V17.4071C73.4423 13.9881 76.2113 11.2161 79.6283 11.2161C83.0443 11.2161 85.8143 13.9881 85.8143 17.4071V31.8061C85.8143 35.2241 83.0443 37.9971 79.6283 37.9971ZM40.7363 64.7771C25.9573 64.7771 13.9763 52.7871 13.9763 37.9971C13.9763 23.2061 25.9573 11.2161 40.7363 11.2161C55.5153 11.2161 67.4953 23.2061 67.4953 37.9971C67.4953 52.7871 55.5153 64.7771 40.7363 64.7771ZM40.7363 21.6301C31.5373 21.6301 24.3833 28.7901 24.3833 37.9971C24.3833 47.2031 31.5373 54.3621 40.7363 54.3621C49.9353 54.3621 57.0893 47.2031 57.0893 37.9971C57.0893 28.7901 49.9353 21.6301 40.7363 21.6301Z" fill="#B19F63"/>
		</g>
		<defs>
		<filter id="filter0_d_1678_2447" x="0.270313" y="0.989063" width="189.455" height="78.015" filterUnits="userSpaceOnUse" color-interpolation-filters="sRGB">
		<feFlood flood-opacity="0" result="BackgroundImageFix"/>
		<feColorMatrix in="SourceAlpha" type="matrix" values="0 0 0 0 0 0 0 0 0 0 0 0 0 0 0 0 0 0 127 0" result="hardAlpha"/>
		<feOffset dy="2"/>
		<feGaussianBlur stdDeviation="1.65"/>
		<feColorMatrix type="matrix" values="0 0 0 0 0 0 0 0 0 0 0 0 0 0 0 0 0 0 0.25 0"/>
		<feBlend mode="normal" in2="BackgroundImageFix" result="effect1_dropShadow_1678_2447"/>
		<feBlend mode="normal" in="SourceGraphic" in2="effect1_dropShadow_1678_2447" result="shape"/>
		</filter>
		</defs>
	</symbol>
	<symbol id="footer-hovered" viewBox="0 0 192 82" fill="none" xmlns="http://www.w3.org/2000/svg">
		<g clip-path="url(#clip0_950_9320)">
		<g filter="url(#filter0_d_950_9320)">
		<path fill-rule="evenodd" clip-rule="evenodd" d="M151.747 75.7041H40.2493C20.5443 75.7041 4.57031 59.7171 4.57031 39.9971C4.57031 20.2761 20.5443 4.28906 40.2493 4.28906H151.747C171.452 4.28906 187.426 20.2761 187.426 39.9971C187.426 59.7171 171.452 75.7041 151.747 75.7041ZM151.747 8.91706H40.2493C31.9543 8.91706 24.1563 12.1501 18.2913 18.0201C12.4253 23.8911 9.19531 31.6951 9.19531 39.9971C9.19531 48.2971 12.4253 56.1031 18.2913 61.9721C24.1563 67.8431 31.9543 71.0751 40.2493 71.0751H151.747C160.042 71.0751 167.84 67.8431 173.705 61.9721C179.571 56.1031 182.801 48.2981 182.801 39.9971C182.801 31.6951 179.571 23.8911 173.705 18.0201C167.84 12.1501 160.041 8.91706 151.747 8.91706ZM150.26 66.7771C135.481 66.7771 123.501 54.7871 123.501 39.9971C123.501 25.2061 135.481 13.2161 150.26 13.2161C165.039 13.2161 177.019 25.2061 177.019 39.9971C177.019 54.7871 165.039 66.7771 150.26 66.7771ZM150.26 23.6301C141.061 23.6301 133.907 30.7901 133.907 39.9971C133.907 49.2031 141.061 56.3621 150.26 56.3621C159.459 56.3621 166.613 49.2031 166.613 39.9971C166.613 30.7901 159.459 23.6301 150.26 23.6301ZM95.1003 66.6751C84.9003 66.2541 76.5323 58.9461 74.8353 49.4891C74.5033 47.6411 75.9413 45.9471 77.8173 45.9471C79.8873 45.9471 82.3573 45.9471 84.1983 45.9471C85.5763 45.9471 86.7563 46.8841 87.1243 48.2121C88.1303 51.8421 91.4843 54.6011 95.5253 54.8151C100.836 55.0961 105.259 50.9031 105.259 45.7691C105.259 45.7691 105.267 34.8251 105.272 25.4271C105.276 18.7451 110.742 13.2951 117.419 13.2981C117.458 13.2981 117.497 13.2981 117.536 13.2981C117.517 17.8451 117.554 45.6751 117.554 45.6751C117.554 57.5381 107.38 67.1831 95.1003 66.6751ZM80.6283 39.9971C77.2113 39.9971 74.4423 37.2241 74.4423 33.8061V19.4071C74.4423 15.9881 77.2113 13.2161 80.6283 13.2161C84.0443 13.2161 86.8143 15.9881 86.8143 19.4071V33.8061C86.8143 37.2241 84.0443 39.9971 80.6283 39.9971ZM41.7363 66.7771C26.9573 66.7771 14.9763 54.7871 14.9763 39.9971C14.9763 25.2061 26.9573 13.2161 41.7363 13.2161C56.5153 13.2161 68.4953 25.2061 68.4953 39.9971C68.4953 54.7871 56.5153 66.7771 41.7363 66.7771ZM41.7363 23.6301C32.5373 23.6301 25.3833 30.7901 25.3833 39.9971C25.3833 49.2031 32.5373 56.3621 41.7363 56.3621C50.9353 56.3621 58.0893 49.2031 58.0893 39.9971C58.0893 30.7901 50.9353 23.6301 41.7363 23.6301Z" fill="#F9DF94"/>
		</g>
		</g>
		<defs>
		<filter id="filter0_d_950_9320" x="-0.429688" y="-0.710938" width="192.855" height="81.415" filterUnits="userSpaceOnUse" color-interpolation-filters="sRGB">
		<feFlood flood-opacity="0" result="BackgroundImageFix"/>
		<feColorMatrix in="SourceAlpha" type="matrix" values="0 0 0 0 0 0 0 0 0 0 0 0 0 0 0 0 0 0 127 0" result="hardAlpha"/>
		<feOffset/>
		<feGaussianBlur stdDeviation="2.5"/>
		<feComposite in2="hardAlpha" operator="out"/>
		<feColorMatrix type="matrix" values="0 0 0 0 1 0 0 0 0 0.87451 0 0 0 0 0.533333 0 0 0 0.8 0"/>
		<feBlend mode="normal" in2="BackgroundImageFix" result="effect1_dropShadow_950_9320"/>
		<feBlend mode="normal" in="SourceGraphic" in2="effect1_dropShadow_950_9320" result="shape"/>
		</filter>
		<clipPath id="clip0_950_9320">
		<rect width="192" height="82" fill="white"/>
		</clipPath>
		</defs>
		</symbol>


</svg>