<svg width="120" height="41" viewBox="0 0 120 41" fill="none" xmlns="http://www.w3.org/2000/svg">
<g clip-path="url(#clip0_6944_1039)">
<path d="M110.444 0.00013325H9.56145C9.19372 0.00013325 8.8304 0.00013325 8.46364 0.00218325C8.15663 0.00423325 7.85207 0.0101885 7.54211 0.0152007C6.86874 0.0233001 6.19695 0.0838514 5.53259 0.196328C4.86915 0.311254 4.2265 0.527922 3.62637 0.839003C3.02697 1.15272 2.47929 1.56035 2.00318 2.04713C1.52457 2.53254 1.12561 3.0936 0.82165 3.70875C0.516847 4.32267 0.305496 4.98055 0.194896 5.65965C0.083244 6.3379 0.0231632 7.02397 0.0151925 7.7117C0.00588648 8.02596 0.00490373 8.34128 0 8.65558V32.3477C0.00490373 32.666 0.00588648 32.9743 0.0151925 33.2926C0.0231657 33.9803 0.0832464 34.6664 0.194896 35.3446C0.30519 36.0241 0.516554 36.6823 0.82165 37.2965C1.12548 37.9097 1.52449 38.4684 2.00318 38.9512C2.47748 39.4401 3.02552 39.848 3.62637 40.1593C4.2265 40.4712 4.86908 40.6892 5.53259 40.8059C6.19707 40.9175 6.86879 40.978 7.54211 40.9871C7.85207 40.9941 8.15663 40.9981 8.46364 40.9981C8.83039 41.0001 9.19374 41.0001 9.56145 41.0001H110.444C110.804 41.0001 111.171 41.0001 111.531 40.9981C111.837 40.9981 112.15 40.9941 112.455 40.9871C113.128 40.9785 113.798 40.9179 114.461 40.8059C115.127 40.6884 115.772 40.4705 116.375 40.1593C116.975 39.8478 117.522 39.4399 117.996 38.9512C118.474 38.4666 118.874 37.9082 119.181 37.2965C119.484 36.6819 119.693 36.0237 119.802 35.3446C119.914 34.6663 119.976 33.9804 119.988 33.2926C119.992 32.9743 119.992 32.666 119.992 32.3477C120 31.9753 120 31.605 120 31.2266V9.77467C120 9.3993 120 9.02694 119.992 8.65558C119.992 8.34128 119.992 8.02596 119.988 7.71166C119.976 7.02387 119.914 6.33795 119.802 5.65961C119.693 4.9809 119.484 4.32307 119.181 3.70871C118.562 2.47571 117.581 1.47206 116.375 0.838911C115.772 0.52859 115.127 0.31198 114.461 0.196236C113.798 0.0832636 113.128 0.0226912 112.455 0.0150572C112.15 0.0100552 111.837 0.00404875 111.531 0.00205C111.171 0 110.804 0 110.444 0V0.00013325Z" fill="#999999"/>
<path d="M8.46808 40.1027C8.16254 40.1027 7.86439 40.0987 7.56125 40.0918C6.93327 40.0834 6.30676 40.0275 5.68686 39.9246C5.10883 39.8228 4.54888 39.6336 4.02547 39.363C3.50686 39.0947 3.03385 38.7428 2.62455 38.321C2.20933 37.9041 1.86363 37.4206 1.60117 36.8896C1.33582 36.3551 1.15218 35.7823 1.05665 35.1909C0.953484 34.5555 0.897668 33.9131 0.889681 33.2691C0.883323 33.0529 0.875 32.3331 0.875 32.3331V8.65506C0.875 8.65506 0.883865 7.94636 0.889731 7.73815C0.897379 7.09515 0.95287 6.45368 1.05573 5.81928C1.15143 5.22634 1.33522 4.65183 1.60071 4.11563C1.86221 3.585 2.20598 3.10112 2.6187 2.68273C3.03096 2.26037 3.50549 1.90673 4.02498 1.6347C4.54718 1.36501 5.10608 1.17706 5.68294 1.07716C6.30488 0.973191 6.93356 0.91698 7.56371 0.909L8.46857 0.896484H111.526L112.441 0.909502C113.066 0.917086 113.689 0.972796 114.305 1.07616C114.888 1.17731 115.452 1.36657 115.98 1.6377C117.021 2.18592 117.868 3.05325 118.402 4.11813C118.664 4.65063 118.844 5.22045 118.939 5.80827C119.043 6.44788 119.101 7.09439 119.113 7.74266C119.116 8.03294 119.116 8.34475 119.116 8.65506C119.124 9.03943 119.124 9.40529 119.124 9.77414V31.226C119.124 31.5984 119.124 31.9618 119.116 32.3281C119.116 32.6614 119.116 32.9668 119.112 33.2811C119.101 33.9178 119.043 34.5527 118.941 35.1809C118.847 35.7765 118.665 36.3538 118.399 36.8926C118.135 37.4179 117.791 37.8972 117.381 38.313C116.971 38.7371 116.497 39.091 115.978 39.361C115.451 39.6337 114.887 39.8237 114.305 39.9246C113.685 40.0281 113.058 40.084 112.43 40.0918C112.137 40.0987 111.829 40.1027 111.531 40.1027L110.443 40.1048L8.46808 40.1027Z" fill="black"/>
<path fill-rule="evenodd" clip-rule="evenodd" d="M18.3934 12H9.99609V30.883H18.3934V12ZM16.7142 12.8574H11.6758V14.5741H16.7142V12.8574ZM11.6758 15.4336H16.7142V17.1502H11.6758V15.4336ZM14.1951 29.1657C15.1226 29.1657 15.8746 28.3971 15.8746 27.4491C15.8746 26.501 15.1226 25.7324 14.1951 25.7324C13.2675 25.7324 12.5156 26.501 12.5156 27.4491C12.5156 28.3971 13.2675 29.1657 14.1951 29.1657Z" fill="white"/>
<rect x="15.5" y="11.5" width="15" height="12" fill="black" stroke="white"/>
<rect x="21.5195" y="24" width="3.35894" height="6.86654" fill="white"/>
<rect width="8.39734" height="0.858318" transform="matrix(1 0 0 -1 19 30.8672)" fill="white"/>
<rect width="6.71787" height="0.858318" transform="matrix(1 0 0 -1 19.8398 30.0078)" fill="white"/>
<rect width="5.0384" height="0.858318" transform="matrix(1 0 0 -1 20.6797 29.1504)" fill="white"/>
<path d="M51.212 18.4H53.642L50.744 31.09H48.35L46.334 23.224L46.064 21.91L45.812 23.206L43.796 31.09H41.42L38.504 18.4H40.934L42.644 26.878L42.824 28.462L43.094 26.842L45.218 18.4H46.928L49.106 26.878L49.43 28.48L49.592 26.878L51.212 18.4ZM62.1962 26.518C62.1962 26.938 62.1902 27.208 62.1782 27.328L56.4902 27.346C56.5262 28.894 57.3062 29.668 58.8302 29.668C59.7422 29.668 60.5462 29.56 61.2422 29.344L61.5662 29.218V30.748C60.8342 31.096 59.8382 31.27 58.5782 31.27C55.7102 31.27 54.2762 29.674 54.2762 26.482C54.2762 25.066 54.6182 23.92 55.3022 23.044C55.9862 22.168 57.0182 21.73 58.3982 21.73C60.9302 21.73 62.1962 23.326 62.1962 26.518ZM56.4362 25.978H60.1622C60.1622 24.19 59.5622 23.296 58.3622 23.296C57.0782 23.296 56.4362 24.19 56.4362 25.978ZM64.3495 30.532L63.9355 30.298V18.4H66.0595L66.0415 22.36C66.5695 21.976 67.1995 21.784 67.9315 21.784C68.5915 21.784 69.1555 21.922 69.6235 22.198C70.1035 22.462 70.4695 22.828 70.7215 23.296C70.9735 23.764 71.1535 24.268 71.2615 24.808C71.3815 25.336 71.4415 25.912 71.4415 26.536C71.4415 27.988 71.1235 29.14 70.4875 29.992C69.8635 30.832 68.8495 31.252 67.4455 31.252C66.1855 31.252 65.1535 31.012 64.3495 30.532ZM67.6075 23.422C67.1395 23.422 66.6175 23.62 66.0415 24.016V29.182C66.4855 29.482 66.9955 29.632 67.5715 29.632C67.9675 29.632 68.2915 29.536 68.5435 29.344C68.8075 29.14 68.9935 28.864 69.1015 28.516C69.2095 28.156 69.2755 27.832 69.2995 27.544C69.3355 27.244 69.3535 26.89 69.3535 26.482C69.3535 26.158 69.3475 25.888 69.3355 25.672C69.3235 25.444 69.2815 25.174 69.2095 24.862C69.1495 24.55 69.0595 24.304 68.9395 24.124C68.8315 23.932 68.6635 23.77 68.4355 23.638C68.2075 23.494 67.9315 23.422 67.6075 23.422Z" fill="white"/>
<path d="M40.142 11.5452L40.406 8.26523H43.734V13.0172L44.39 13.0412L44.31 14.9932H43.534L43.494 13.8652H40.262L40.222 14.9932H39.446L39.366 13.0492C39.7927 13.0492 40.0514 12.5479 40.142 11.5452ZM42.742 13.0172V9.08123H41.294L41.086 11.6412C41.038 12.2492 40.9074 12.7079 40.694 13.0172H42.742ZM44.9496 11.8572C44.9496 10.4279 45.5496 9.71323 46.7496 9.71323C47.9496 9.71323 48.5496 10.4279 48.5496 11.8572C48.5496 13.2812 47.9496 13.9932 46.7496 13.9932C46.1203 13.9932 45.6616 13.8012 45.3736 13.4172C45.0909 13.0332 44.9496 12.5132 44.9496 11.8572ZM45.9096 11.8652C45.9096 12.7986 46.1896 13.2652 46.7496 13.2652C46.9309 13.2652 47.0803 13.2226 47.1976 13.1372C47.3203 13.0519 47.4083 12.9319 47.4616 12.7772C47.5149 12.6226 47.5496 12.4786 47.5656 12.3452C47.5816 12.2066 47.5896 12.0466 47.5896 11.8652C47.5896 11.7212 47.5843 11.5959 47.5736 11.4892C47.5683 11.3772 47.5496 11.2519 47.5176 11.1132C47.4856 10.9692 47.4403 10.8519 47.3816 10.7612C47.3229 10.6652 47.2403 10.5852 47.1336 10.5212C47.0269 10.4572 46.8989 10.4252 46.7496 10.4252C46.6003 10.4252 46.4723 10.4572 46.3656 10.5212C46.2589 10.5852 46.1763 10.6652 46.1176 10.7612C46.0589 10.8519 46.0136 10.9692 45.9816 11.1132C45.9496 11.2519 45.9283 11.3772 45.9176 11.4892C45.9123 11.5959 45.9096 11.7212 45.9096 11.8652ZM52.0718 13.1372L52.1758 13.0972L52.1838 13.7852C51.9224 13.9186 51.5598 13.9852 51.0958 13.9852C50.4718 13.9852 50.0024 13.7906 49.6878 13.4012C49.3731 13.0119 49.2158 12.4972 49.2158 11.8572C49.2158 11.2119 49.3758 10.6946 49.6958 10.3052C50.0158 9.9159 50.4904 9.72123 51.1198 9.72123C51.5091 9.72123 51.8158 9.76923 52.0398 9.86523L52.1438 9.91323V10.5932C51.8824 10.5026 51.5944 10.4572 51.2798 10.4572C50.5704 10.4572 50.2158 10.9239 50.2158 11.8572C50.2158 12.7852 50.5704 13.2492 51.2798 13.2492C51.5731 13.2492 51.8371 13.2119 52.0718 13.1372ZM53.9518 10.5772H52.6878V9.85723H56.1598V10.5772H54.9038V13.8652H53.9518V10.5772ZM57.7813 14.1372L57.9093 13.7772L56.4613 9.86523H57.4853L58.3093 12.4092L58.3893 12.8572L59.3173 9.86523H60.3013L58.6693 14.3052C58.4613 14.8386 58.2293 15.1959 57.9733 15.3772C57.7173 15.5639 57.3039 15.6572 56.7333 15.6572V14.9772C57.0586 14.9612 57.2853 14.8972 57.4133 14.7852C57.5466 14.6786 57.6693 14.4626 57.7813 14.1372ZM64.3937 13.8652H63.4337V10.5772H61.9057V13.8652H60.9537V9.85723H64.3937V13.8652ZM67.8234 11.4332V9.85723H68.7434V13.8652H67.8234V12.1932H66.2954V13.8652H65.3834V9.85723H66.2954V11.4332H67.8234ZM69.559 11.8572C69.559 10.4279 70.159 9.71323 71.359 9.71323C72.559 9.71323 73.159 10.4279 73.159 11.8572C73.159 13.2812 72.559 13.9932 71.359 13.9932C70.7296 13.9932 70.271 13.8012 69.983 13.4172C69.7003 13.0332 69.559 12.5132 69.559 11.8572ZM70.519 11.8652C70.519 12.7986 70.799 13.2652 71.359 13.2652C71.5403 13.2652 71.6896 13.2226 71.807 13.1372C71.9296 13.0519 72.0176 12.9319 72.071 12.7772C72.1243 12.6226 72.159 12.4786 72.175 12.3452C72.191 12.2066 72.199 12.0466 72.199 11.8652C72.199 11.7212 72.1936 11.5959 72.183 11.4892C72.1776 11.3772 72.159 11.2519 72.127 11.1132C72.095 10.9692 72.0496 10.8519 71.991 10.7612C71.9323 10.6652 71.8496 10.5852 71.743 10.5212C71.6363 10.4572 71.5083 10.4252 71.359 10.4252C71.2096 10.4252 71.0816 10.4572 70.975 10.5212C70.8683 10.5852 70.7856 10.6652 70.727 10.7612C70.6683 10.8519 70.623 10.9692 70.591 11.1132C70.559 11.2519 70.5376 11.3772 70.527 11.4892C70.5216 11.5959 70.519 11.7212 70.519 11.8652ZM78.0578 11.4332V9.85723H78.9778V13.8652H78.0578V12.1932H76.5298V13.8652H75.6178V9.85723H76.5298V11.4332H78.0578ZM83.1615 11.3692V13.8652H82.4895L82.3775 13.5212C82.0469 13.8039 81.6549 13.9452 81.2015 13.9452C80.7855 13.9452 80.4442 13.8359 80.1775 13.6172C79.9109 13.3986 79.7775 13.0866 79.7775 12.6812C79.7775 12.4306 79.8309 12.2172 79.9375 12.0412C80.0442 11.8599 80.1909 11.7239 80.3775 11.6332C80.5642 11.5426 80.7589 11.4786 80.9615 11.4412C81.1642 11.3986 81.3855 11.3772 81.6255 11.3772H82.2255V11.2892C82.2255 11.0066 82.1722 10.7959 82.0655 10.6572C81.9535 10.5292 81.7482 10.4652 81.4495 10.4652C81.1562 10.4652 80.7722 10.5106 80.2975 10.6012L80.0975 10.6492V9.96923C80.5722 9.82523 81.0522 9.75323 81.5375 9.75323C82.1029 9.75323 82.5135 9.88123 82.7695 10.1372C83.0309 10.3932 83.1615 10.8039 83.1615 11.3692ZM81.4255 13.2252C81.7082 13.2252 81.9722 13.1292 82.2175 12.9372V11.9932H81.7055C81.0335 11.9932 80.6975 12.2039 80.6975 12.6252C80.6975 12.8226 80.7669 12.9719 80.9055 13.0732C81.0495 13.1746 81.2229 13.2252 81.4255 13.2252Z" fill="white"/>
</g>
<defs>
<clipPath id="clip0_6944_1039">
<rect width="120" height="41" fill="white"/>
</clipPath>
</defs>
</svg>
