<svg width="136" height="41" viewBox="0 0 136 41" fill="none" xmlns="http://www.w3.org/2000/svg">
<g clip-path="url(#clip0_6944_974)">
<path d="M130.844 40.6523H5.45312C2.69453 40.6523 0.4375 38.3674 0.4375 35.5748V5.10952C0.4375 2.31687 2.69453 0.0319767 5.45312 0.0319767H130.844C133.602 0.0319767 135.859 2.31687 135.859 5.10952V35.5748C135.859 38.3674 133.602 40.6523 130.844 40.6523Z" fill="black"/>
<path d="M130.844 0.0319767H5.45312C2.69453 0.0319767 0.4375 2.31687 0.4375 5.10952V35.5748C0.4375 38.3674 2.69453 40.6523 5.45312 40.6523H130.844C133.602 40.6523 135.859 38.3674 135.859 35.5748V5.10952C135.859 2.31687 133.602 0.0319767 130.844 0.0319767ZM130.844 0.844387C133.167 0.844387 135.057 2.75801 135.057 5.10952V35.5748C135.057 37.9267 133.167 39.8403 130.844 39.8403H5.45312C3.13029 39.8403 1.24 37.9267 1.24 35.5748V5.10952C1.24 2.75801 3.13029 0.844387 5.45312 0.844387H130.844Z" fill="#999999"/>
<path d="M107.709 30.4973H109.581V17.8022H107.709V30.4973ZM124.569 22.3753L122.423 27.8792H122.359L120.132 22.3753H118.116L121.455 30.068L119.551 34.3471H121.504L126.651 22.3753H124.569ZM113.954 29.0554C113.34 29.0554 112.485 28.7451 112.485 27.9772C112.485 26.9973 113.551 26.6217 114.47 26.6217C115.293 26.6217 115.679 26.8014 116.18 27.0466C116.034 28.2224 115.034 29.0554 113.954 29.0554ZM114.18 22.0975C112.824 22.0975 111.421 22.702 110.84 24.0413L112.501 24.7434C112.857 24.0413 113.518 23.8124 114.212 23.8124C115.18 23.8124 116.164 24.4007 116.18 25.446V25.5764C115.841 25.3805 115.116 25.0866 114.228 25.0866C112.437 25.0866 110.614 26.0826 110.614 27.9446C110.614 29.6433 112.082 30.7377 113.727 30.7377C114.986 30.7377 115.679 30.166 116.116 29.4965H116.18V30.4763H117.987V25.6089C117.987 23.3554 116.325 22.0975 114.18 22.0975ZM102.612 23.9207H99.9493V19.5691H102.612C104.011 19.5691 104.805 20.742 104.805 21.7448C104.805 22.7287 104.011 23.9207 102.612 23.9207ZM102.563 17.8022H98.0785V30.4973H99.9493V25.6875H102.563C104.638 25.6875 106.677 24.167 106.677 21.7448C106.677 19.3227 104.638 17.8022 102.563 17.8022ZM78.1063 29.0577C76.8131 29.0577 75.7305 27.9617 75.7305 26.4563C75.7305 24.9351 76.8131 23.8224 78.1063 23.8224C79.3829 23.8224 80.3849 24.9351 80.3849 26.4563C80.3849 27.9617 79.3829 29.0577 78.1063 29.0577ZM80.2556 23.0861H80.1909C79.7709 22.5791 78.9624 22.121 77.9445 22.121C75.8112 22.121 73.8559 24.0187 73.8559 26.4563C73.8559 28.8777 75.8112 30.7591 77.9445 30.7591C78.9624 30.7591 79.7709 30.3009 80.1909 29.7777H80.2556V30.3993C80.2556 32.0519 79.3829 32.9353 77.977 32.9353C76.8296 32.9353 76.1185 32.1007 75.8273 31.3973L74.1953 32.0844C74.664 33.2296 75.9084 34.6367 77.977 34.6367C80.1748 34.6367 82.0333 33.3276 82.0333 30.1375V22.3828H80.2556V23.0861ZM83.326 30.4973H85.2007V17.8018H83.326V30.4973ZM87.9643 26.3091C87.9157 24.6402 89.241 23.7898 90.1943 23.7898C90.9382 23.7898 91.5682 24.1658 91.7779 24.7062L87.9643 26.3091ZM93.7821 24.8696C93.427 23.904 92.3436 22.121 90.1296 22.121C87.9318 22.121 86.1058 23.8715 86.1058 26.44C86.1058 28.8614 87.9157 30.7591 90.3397 30.7591C92.2955 30.7591 93.427 29.5484 93.8955 28.8451L92.4409 27.8633C91.9564 28.5833 91.2934 29.0577 90.3397 29.0577C89.3863 29.0577 88.7077 28.6159 88.2711 27.749L93.9757 25.3602L93.7821 24.8696ZM48.3323 23.4462V25.2785H52.6633C52.534 26.3091 52.1946 27.0616 51.6774 27.5852C51.0474 28.2235 50.0615 28.9268 48.3323 28.9268C45.6657 28.9268 43.5811 26.751 43.5811 24.0516C43.5811 21.3521 45.6657 19.176 48.3323 19.176C49.7707 19.176 50.8209 19.7487 51.5967 20.485L52.8734 19.1927C51.7907 18.1454 50.3522 17.3437 48.3323 17.3437C44.6798 17.3437 41.6094 20.3541 41.6094 24.0516C41.6094 27.749 44.6798 30.7591 48.3323 30.7591C50.3041 30.7591 51.7907 30.105 52.9541 28.8777C54.15 27.667 54.5219 25.9656 54.5219 24.5915C54.5219 24.1658 54.4897 23.7735 54.4247 23.4462H48.3323ZM59.4458 29.0577C58.1527 29.0577 57.0375 27.9779 57.0375 26.44C57.0375 24.8858 58.1527 23.8224 59.4458 23.8224C60.7385 23.8224 61.8536 24.8858 61.8536 26.44C61.8536 27.9779 60.7385 29.0577 59.4458 29.0577ZM59.4458 22.121C57.0861 22.121 55.1629 23.9369 55.1629 26.44C55.1629 28.9268 57.0861 30.7591 59.4458 30.7591C61.8051 30.7591 63.7283 28.9268 63.7283 26.44C63.7283 23.9369 61.8051 22.121 59.4458 22.121ZM68.7881 29.0577C67.4955 29.0577 66.3802 27.9779 66.3802 26.44C66.3802 24.8858 67.4955 23.8224 68.7881 23.8224C70.0809 23.8224 71.196 24.8858 71.196 26.44C71.196 27.9779 70.0809 29.0577 68.7881 29.0577ZM68.7881 22.121C66.4285 22.121 64.5057 23.9369 64.5057 26.44C64.5057 28.9268 66.4285 30.7591 68.7881 30.7591C71.1475 30.7591 73.0707 28.9268 73.0707 26.44C73.0707 23.9369 71.1475 22.121 68.7881 22.121Z" fill="white"/>
<path d="M10.9802 32.9238L10.9057 32.8516C10.6137 32.539 10.4414 32.0534 10.4414 31.4247V31.5727V9.11369C10.4414 9.11166 10.4414 9.11014 10.4414 9.10851C10.4414 9.11044 10.4414 9.11206 10.4414 9.1141V9.26246C10.4414 8.58166 10.6423 8.06883 10.979 7.76134L23.4075 20.343L10.9802 32.9238ZM10.4414 9.10729C10.4414 9.05134 10.4429 8.99701 10.4457 8.94349C10.4429 8.9966 10.4414 9.05134 10.4414 9.10729ZM10.4457 8.94106C10.4457 8.94034 10.4457 8.93953 10.446 8.93872C10.4457 8.93953 10.4457 8.94034 10.4457 8.94106ZM10.446 8.93395C10.446 8.93354 10.446 8.93313 10.446 8.93273C10.446 8.93313 10.446 8.93354 10.446 8.93395Z" fill="url(#paint0_linear_6944_974)"/>
<path d="M27.5485 24.6875L27.6429 24.6332L32.5511 21.81C33.0191 21.5406 33.331 21.2142 33.4866 20.8687C33.3314 21.2142 33.0194 21.541 32.5511 21.8104L27.6429 24.6336L27.5485 24.6875ZM27.5497 24.5387L23.4062 20.3435L27.5493 16.1489L32.5511 19.0256C33.1863 19.391 33.5429 19.8619 33.6025 20.343C33.6025 20.3435 33.6025 20.3443 33.6025 20.345C33.5429 20.825 33.1863 21.2963 32.5511 21.6616L27.5497 24.5387Z" fill="url(#paint1_linear_6944_974)"/>
<path d="M11.8682 33.4043C11.5211 33.4043 11.2181 33.2901 10.9819 33.0743L10.9823 33.0738C11.2185 33.2896 11.5219 33.4043 11.869 33.4043C11.8991 33.4043 11.9297 33.4035 11.9607 33.402C11.9293 33.4035 11.8983 33.4043 11.8682 33.4043ZM11.8686 33.2555C11.5215 33.2559 11.2185 33.1413 10.9823 32.9255V32.9252L23.4096 20.3443L27.553 24.5396L12.9924 32.9148C12.5896 33.1461 12.2079 33.2555 11.8686 33.2555ZM10.9788 33.0715C10.9568 33.0513 10.9352 33.0299 10.9141 33.0076L10.9788 33.0715Z" fill="url(#paint2_linear_6944_974)"/>
<path d="M23.409 20.3438L10.9805 7.7621C11.2167 7.54671 11.5192 7.43247 11.866 7.43247C12.2062 7.43247 12.5882 7.54235 12.9918 7.77398L27.552 16.1492L23.409 20.3438ZM27.6457 16.0544L12.9918 7.62572C12.5882 7.39398 12.2062 7.2841 11.866 7.2841C11.8644 7.2841 11.8633 7.2841 11.8617 7.2841C11.8637 7.2841 11.8652 7.2841 11.8676 7.2841C12.207 7.2841 12.5886 7.39357 12.9918 7.62531L27.6457 16.0544Z" fill="url(#paint3_linear_6944_974)"/>
<path d="M11.9592 33.4004C12.2746 33.3821 12.6238 33.2722 12.9909 33.0616L27.5503 24.6868L12.9909 33.0616C12.6241 33.2726 12.2746 33.3821 11.9592 33.4004ZM10.9804 33.0727L10.9773 33.0699C10.9784 33.0708 10.9796 33.0719 10.9804 33.0727ZM10.9126 33.0061L10.9062 32.9998V32.9994C10.9087 33.0017 10.9106 33.004 10.9126 33.0061Z" fill="black"/>
<path d="M27.5508 24.6875L27.6453 24.6332L27.5508 24.6875Z" fill="url(#paint4_linear_6944_974)"/>
<path d="M11.8675 33.4043C11.5204 33.4043 11.217 33.2896 10.9808 33.0738L10.9804 33.0743C10.9796 33.0734 10.9784 33.0723 10.9773 33.0715L10.9126 33.0076C10.9106 33.0056 10.9087 33.0033 10.9062 33.0009L10.9808 32.9255C11.217 33.1413 11.52 33.2559 11.8671 33.2555C12.2064 33.2555 12.5881 33.1461 12.9909 32.9148L27.5515 24.5396L27.6448 24.6341L27.5503 24.6884L12.9909 33.0632C12.6238 33.2738 12.2746 33.3837 11.9592 33.402C11.9282 33.4035 11.8976 33.4043 11.8675 33.4043Z" fill="url(#paint5_linear_6944_974)"/>
<path d="M10.9057 33C10.6137 32.6873 10.4414 32.2018 10.4414 31.5731V31.5727C10.4414 32.2018 10.6137 32.6869 10.9057 32.9996V33Z" fill="black"/>
<path d="M10.9057 33C10.6137 32.6873 10.4414 32.2022 10.4414 31.5731V31.4251C10.4414 32.0538 10.6137 32.5394 10.9057 32.852L10.9802 32.9242L10.9057 33Z" fill="url(#paint6_linear_6944_974)"/>
<path d="M10.9062 33L10.9808 32.9242V32.9246L10.9062 33Z" fill="url(#paint7_linear_6944_974)"/>
<path d="M33.4883 20.8691C33.5654 20.6977 33.6042 20.5216 33.6042 20.3454C33.6042 20.3451 33.6042 20.3447 33.6042 20.3447C33.6042 20.5212 33.5654 20.6973 33.4883 20.8691Z" fill="black"/>
<path d="M27.6441 24.6348L27.5508 24.5403L32.5523 21.6632C33.1874 21.2979 33.5441 20.8266 33.6036 20.3466C33.6036 20.5228 33.5648 20.6989 33.4877 20.8703C33.3321 21.2157 33.0202 21.5422 32.5523 21.8115L27.6441 24.6348Z" fill="url(#paint8_linear_6944_974)"/>
<path d="M33.604 20.3438C33.5445 19.8626 33.1878 19.3917 32.5527 19.0263L27.5508 16.1496L27.6441 16.0552H27.6445L32.5527 18.8784C33.2529 19.2814 33.6036 19.8125 33.604 20.3438Z" fill="url(#paint9_linear_6944_974)"/>
<path d="M10.4414 9.26367V9.11531C10.4414 9.11327 10.4414 9.11165 10.4414 9.10972C10.4414 9.10932 10.4414 9.10891 10.4414 9.1085C10.4414 9.05255 10.4429 8.99781 10.4457 8.9447C10.4457 8.94389 10.4457 8.94308 10.4457 8.94227C10.4457 8.94155 10.4457 8.94074 10.446 8.93993C10.446 8.9383 10.446 8.93678 10.446 8.93516C10.446 8.93475 10.446 8.93434 10.446 8.93394C10.4762 8.39247 10.6423 7.97001 10.9057 7.68801L10.979 7.76255C10.6423 8.07004 10.4414 8.58287 10.4414 9.26367ZM10.977 7.61702L10.9798 7.61418C10.979 7.6154 10.9778 7.61621 10.977 7.61702Z" fill="url(#paint10_linear_6944_974)"/>
<path d="M27.5511 16.1484L12.9909 7.77323C12.5873 7.54159 12.2053 7.43171 11.8651 7.43171C11.5184 7.43171 11.2158 7.54596 10.9796 7.76135L10.9062 7.68681C10.9294 7.66223 10.9529 7.63837 10.9776 7.61582C10.9784 7.61501 10.9796 7.6142 10.9804 7.61339C11.2147 7.39962 11.514 7.28538 11.8577 7.28335C11.8585 7.28335 11.8596 7.28335 11.8608 7.28335C11.8624 7.28335 11.8635 7.28335 11.8651 7.28335C12.2053 7.28335 12.5873 7.39322 12.9909 7.62496L27.6448 16.0537L27.6444 16.054L27.5511 16.1484Z" fill="url(#paint11_linear_6944_974)"/>
<path d="M43.2859 9.48864L43.5499 6.20864H46.8779V10.9606L47.5339 10.9846L47.4539 12.9366H46.6779L46.6379 11.8086H43.4059L43.3659 12.9366H42.5899L42.5099 10.9926C42.9365 10.9926 43.1952 10.4913 43.2859 9.48864ZM45.8859 10.9606V7.02464H44.4379L44.2299 9.58464C44.1819 10.1926 44.0512 10.6513 43.8379 10.9606H45.8859ZM48.0934 9.80064C48.0934 8.37131 48.6934 7.65664 49.8934 7.65664C51.0934 7.65664 51.6934 8.37131 51.6934 9.80064C51.6934 11.2246 51.0934 11.9366 49.8934 11.9366C49.2641 11.9366 48.8054 11.7446 48.5174 11.3606C48.2348 10.9766 48.0934 10.4566 48.0934 9.80064ZM49.0534 9.80864C49.0534 10.742 49.3334 11.2086 49.8934 11.2086C50.0748 11.2086 50.2241 11.166 50.3414 11.0806C50.4641 10.9953 50.5521 10.8753 50.6054 10.7206C50.6588 10.566 50.6934 10.422 50.7094 10.2886C50.7254 10.15 50.7334 9.98997 50.7334 9.80864C50.7334 9.66464 50.7281 9.53931 50.7174 9.43264C50.7121 9.32064 50.6934 9.19531 50.6614 9.05664C50.6294 8.91264 50.5841 8.79531 50.5254 8.70464C50.4668 8.60864 50.3841 8.52864 50.2774 8.46464C50.1708 8.40064 50.0428 8.36864 49.8934 8.36864C49.7441 8.36864 49.6161 8.40064 49.5094 8.46464C49.4028 8.52864 49.3201 8.60864 49.2614 8.70464C49.2028 8.79531 49.1574 8.91264 49.1254 9.05664C49.0934 9.19531 49.0721 9.32064 49.0614 9.43264C49.0561 9.53931 49.0534 9.66464 49.0534 9.80864ZM55.2156 11.0806L55.3196 11.0406L55.3276 11.7286C55.0663 11.862 54.7036 11.9286 54.2396 11.9286C53.6156 11.9286 53.1463 11.734 52.8316 11.3446C52.517 10.9553 52.3596 10.4406 52.3596 9.80064C52.3596 9.15531 52.5196 8.63797 52.8396 8.24864C53.1596 7.85931 53.6343 7.66464 54.2636 7.66464C54.653 7.66464 54.9596 7.71264 55.1836 7.80864L55.2876 7.85664V8.53664C55.0263 8.44597 54.7383 8.40064 54.4236 8.40064C53.7143 8.40064 53.3596 8.86731 53.3596 9.80064C53.3596 10.7286 53.7143 11.1926 54.4236 11.1926C54.717 11.1926 54.981 11.1553 55.2156 11.0806ZM57.0957 8.52064H55.8317V7.80064H59.3037V8.52064H58.0477V11.8086H57.0957V8.52064ZM60.9251 12.0806L61.0531 11.7206L59.6051 7.80864H60.6291L61.4531 10.3526L61.5331 10.8006L62.4611 7.80864H63.4451L61.8131 12.2486C61.6051 12.782 61.3731 13.1393 61.1171 13.3206C60.8611 13.5073 60.4478 13.6006 59.8771 13.6006V12.9206C60.2025 12.9046 60.4291 12.8406 60.5571 12.7286C60.6905 12.622 60.8131 12.406 60.9251 12.0806ZM67.5376 11.8086H66.5776V8.52064H65.0496V11.8086H64.0976V7.80064H67.5376V11.8086ZM70.9673 9.37664V7.80064H71.8873V11.8086H70.9673V10.1366H69.4393V11.8086H68.5273V7.80064H69.4393V9.37664H70.9673ZM72.7028 9.80064C72.7028 8.37131 73.3028 7.65664 74.5028 7.65664C75.7028 7.65664 76.3028 8.37131 76.3028 9.80064C76.3028 11.2246 75.7028 11.9366 74.5028 11.9366C73.8735 11.9366 73.4148 11.7446 73.1268 11.3606C72.8441 10.9766 72.7028 10.4566 72.7028 9.80064ZM73.6628 9.80864C73.6628 10.742 73.9428 11.2086 74.5028 11.2086C74.6841 11.2086 74.8335 11.166 74.9508 11.0806C75.0735 10.9953 75.1615 10.8753 75.2148 10.7206C75.2681 10.566 75.3028 10.422 75.3188 10.2886C75.3348 10.15 75.3428 9.98997 75.3428 9.80864C75.3428 9.66464 75.3375 9.53931 75.3268 9.43264C75.3215 9.32064 75.3028 9.19531 75.2708 9.05664C75.2388 8.91264 75.1935 8.79531 75.1348 8.70464C75.0761 8.60864 74.9935 8.52864 74.8868 8.46464C74.7801 8.40064 74.6521 8.36864 74.5028 8.36864C74.3535 8.36864 74.2255 8.40064 74.1188 8.46464C74.0121 8.52864 73.9295 8.60864 73.8708 8.70464C73.8121 8.79531 73.7668 8.91264 73.7348 9.05664C73.7028 9.19531 73.6815 9.32064 73.6708 9.43264C73.6655 9.53931 73.6628 9.66464 73.6628 9.80864ZM80.3616 11.8086H78.7616V7.80064H80.4016C81.5323 7.80064 82.0976 8.14731 82.0976 8.84064C82.0976 9.02731 82.0363 9.20331 81.9136 9.36864C81.791 9.52864 81.639 9.63264 81.4576 9.68064C81.6976 9.73397 81.8923 9.84331 82.0416 10.0086C82.1963 10.1686 82.2736 10.3686 82.2736 10.6086C82.2736 10.8433 82.2123 11.046 82.0896 11.2166C81.9723 11.382 81.8096 11.5046 81.6016 11.5846C81.399 11.6646 81.1963 11.7233 80.9936 11.7606C80.7963 11.7926 80.5856 11.8086 80.3616 11.8086ZM80.4496 10.0006H79.6656V11.1286L80.3856 11.1366C80.6256 11.1366 80.8336 11.094 81.0096 11.0086C81.191 10.918 81.2816 10.766 81.2816 10.5526C81.2816 10.35 81.199 10.2086 81.0336 10.1286C80.8683 10.0433 80.6736 10.0006 80.4496 10.0006ZM79.6656 8.42464V9.46464H80.4416C80.6443 9.46464 80.8176 9.42197 80.9616 9.33664C81.1056 9.25131 81.1776 9.11531 81.1776 8.92864C81.1776 8.77931 81.1136 8.65664 80.9856 8.56064C80.847 8.46997 80.6523 8.42464 80.4016 8.42464H79.6656Z" fill="white"/>
</g>
<defs>
<linearGradient id="paint0_linear_6944_974" x1="22.3055" y1="8.87677" x2="5.26397" y2="25.7105" gradientUnits="userSpaceOnUse">
<stop stop-color="#00A0FF"/>
<stop offset="0.00657445" stop-color="#00A1FF"/>
<stop offset="0.2601" stop-color="#00BEFF"/>
<stop offset="0.5122" stop-color="#00D2FF"/>
<stop offset="0.7604" stop-color="#00DFFF"/>
<stop offset="1" stop-color="#00E3FF"/>
</linearGradient>
<linearGradient id="paint1_linear_6944_974" x1="34.3764" y1="20.3441" x2="10.1038" y2="20.3441" gradientUnits="userSpaceOnUse">
<stop stop-color="#FFE000"/>
<stop offset="0.4087" stop-color="#FFBD00"/>
<stop offset="0.7754" stop-color="#FFA500"/>
<stop offset="1" stop-color="#FF9C00"/>
</linearGradient>
<linearGradient id="paint2_linear_6944_974" x1="25.3442" y1="22.6752" x2="2.23468" y2="45.5029" gradientUnits="userSpaceOnUse">
<stop stop-color="#FF3A44"/>
<stop offset="1" stop-color="#C31162"/>
</linearGradient>
<linearGradient id="paint3_linear_6944_974" x1="7.75913" y1="0.211689" x2="18.0785" y2="10.4052" gradientUnits="userSpaceOnUse">
<stop stop-color="#32A071"/>
<stop offset="0.0685" stop-color="#2DA771"/>
<stop offset="0.4762" stop-color="#15CF74"/>
<stop offset="0.8009" stop-color="#06E775"/>
<stop offset="1" stop-color="#00F076"/>
</linearGradient>
<linearGradient id="paint4_linear_6944_974" x1="34.3785" y1="20.344" x2="10.1068" y2="20.344" gradientUnits="userSpaceOnUse">
<stop stop-color="#CCB300"/>
<stop offset="0.4087" stop-color="#CC9700"/>
<stop offset="0.7754" stop-color="#CC8400"/>
<stop offset="1" stop-color="#CC7D00"/>
</linearGradient>
<linearGradient id="paint5_linear_6944_974" x1="25.3427" y1="22.6752" x2="2.23319" y2="45.5029" gradientUnits="userSpaceOnUse">
<stop stop-color="#CC2E36"/>
<stop offset="1" stop-color="#9C0E4E"/>
</linearGradient>
<linearGradient id="paint6_linear_6944_974" x1="22.3055" y1="8.87718" x2="5.26396" y2="25.7109" gradientUnits="userSpaceOnUse">
<stop stop-color="#008DE0"/>
<stop offset="0.00657445" stop-color="#008DE0"/>
<stop offset="0.2601" stop-color="#00A7E0"/>
<stop offset="0.5122" stop-color="#00B8E0"/>
<stop offset="0.7604" stop-color="#00C4E0"/>
<stop offset="1" stop-color="#00C7E0"/>
</linearGradient>
<linearGradient id="paint7_linear_6944_974" x1="25.3429" y1="22.6748" x2="2.23445" y2="45.5028" gradientUnits="userSpaceOnUse">
<stop stop-color="#E0333C"/>
<stop offset="1" stop-color="#AB0F56"/>
</linearGradient>
<linearGradient id="paint8_linear_6944_974" x1="34.3775" y1="20.3457" x2="10.1049" y2="20.3457" gradientUnits="userSpaceOnUse">
<stop stop-color="#E0C500"/>
<stop offset="0.4087" stop-color="#E0A600"/>
<stop offset="0.7754" stop-color="#E09100"/>
<stop offset="1" stop-color="#E08900"/>
</linearGradient>
<linearGradient id="paint9_linear_6944_974" x1="34.3779" y1="20.3448" x2="10.1053" y2="20.3448" gradientUnits="userSpaceOnUse">
<stop stop-color="#FFE840"/>
<stop offset="0.4087" stop-color="#FFCE40"/>
<stop offset="0.7754" stop-color="#FFBC40"/>
<stop offset="1" stop-color="#FFB540"/>
</linearGradient>
<linearGradient id="paint10_linear_6944_974" x1="22.3055" y1="8.87798" x2="5.26395" y2="25.7116" gradientUnits="userSpaceOnUse">
<stop stop-color="#40B8FF"/>
<stop offset="0.00657445" stop-color="#40B9FF"/>
<stop offset="0.2601" stop-color="#40CEFF"/>
<stop offset="0.5122" stop-color="#40DDFF"/>
<stop offset="0.7604" stop-color="#40E7FF"/>
<stop offset="1" stop-color="#40EAFF"/>
</linearGradient>
<linearGradient id="paint11_linear_6944_974" x1="7.75824" y1="0.210933" x2="18.0776" y2="10.4044" gradientUnits="userSpaceOnUse">
<stop stop-color="#65B895"/>
<stop offset="0.0685" stop-color="#62BD95"/>
<stop offset="0.4762" stop-color="#50DB97"/>
<stop offset="0.8009" stop-color="#44ED98"/>
<stop offset="1" stop-color="#40F498"/>
</linearGradient>
<clipPath id="clip0_6944_974">
<rect width="136" height="41" fill="white"/>
</clipPath>
</defs>
</svg>
