<svg width="120" height="41" viewBox="0 0 120 41" fill="none" xmlns="http://www.w3.org/2000/svg">
<g clip-path="url(#clip0_6944_938)">
<path d="M110.444 0.00013325H9.56145C9.19372 0.00013325 8.8304 0.00013325 8.46364 0.00218325C8.15663 0.00423325 7.85207 0.0101885 7.54211 0.0152007C6.86874 0.0233001 6.19695 0.0838514 5.53259 0.196328C4.86915 0.311254 4.2265 0.527922 3.62637 0.839003C3.02697 1.15272 2.47929 1.56035 2.00318 2.04713C1.52457 2.53254 1.12561 3.0936 0.82165 3.70875C0.516847 4.32267 0.305496 4.98055 0.194896 5.65965C0.083244 6.3379 0.0231632 7.02397 0.0151925 7.7117C0.00588648 8.02596 0.00490373 8.34128 0 8.65558V32.3477C0.00490373 32.666 0.00588648 32.9743 0.0151925 33.2926C0.0231657 33.9803 0.0832464 34.6664 0.194896 35.3446C0.30519 36.0241 0.516554 36.6823 0.82165 37.2965C1.12548 37.9097 1.52449 38.4684 2.00318 38.9512C2.47748 39.4401 3.02552 39.848 3.62637 40.1593C4.2265 40.4712 4.86908 40.6892 5.53259 40.8059C6.19707 40.9175 6.86879 40.978 7.54211 40.9871C7.85207 40.9941 8.15663 40.9981 8.46364 40.9981C8.83039 41.0001 9.19374 41.0001 9.56145 41.0001H110.444C110.804 41.0001 111.171 41.0001 111.531 40.9981C111.837 40.9981 112.15 40.9941 112.455 40.9871C113.128 40.9785 113.798 40.9179 114.461 40.8059C115.127 40.6884 115.772 40.4705 116.375 40.1593C116.975 39.8478 117.522 39.4399 117.996 38.9512C118.474 38.4666 118.874 37.9082 119.181 37.2965C119.484 36.6819 119.693 36.0237 119.802 35.3446C119.914 34.6663 119.976 33.9804 119.988 33.2926C119.992 32.9743 119.992 32.666 119.992 32.3477C120 31.9753 120 31.605 120 31.2266V9.77467C120 9.3993 120 9.02694 119.992 8.65558C119.992 8.34128 119.992 8.02596 119.988 7.71166C119.976 7.02387 119.914 6.33795 119.802 5.65961C119.693 4.9809 119.484 4.32307 119.181 3.70871C118.562 2.47571 117.581 1.47206 116.375 0.838911C115.772 0.52859 115.127 0.31198 114.461 0.196236C113.798 0.0832636 113.128 0.0226912 112.455 0.0150572C112.15 0.0100552 111.837 0.00404875 111.531 0.00205C111.171 0 110.804 0 110.444 0V0.00013325Z" fill="#999999"/>
<path d="M8.46808 40.1027C8.16254 40.1027 7.86439 40.0987 7.56125 40.0918C6.93327 40.0834 6.30676 40.0275 5.68686 39.9246C5.10883 39.8228 4.54888 39.6336 4.02547 39.363C3.50686 39.0947 3.03385 38.7428 2.62455 38.321C2.20933 37.9041 1.86363 37.4206 1.60117 36.8896C1.33582 36.3551 1.15218 35.7823 1.05665 35.1909C0.953484 34.5555 0.897668 33.9131 0.889681 33.2691C0.883323 33.0529 0.875 32.3331 0.875 32.3331V8.65506C0.875 8.65506 0.883865 7.94636 0.889731 7.73815C0.897379 7.09515 0.95287 6.45368 1.05573 5.81928C1.15143 5.22634 1.33522 4.65183 1.60071 4.11563C1.86221 3.585 2.20598 3.10112 2.6187 2.68273C3.03096 2.26037 3.50549 1.90673 4.02498 1.6347C4.54718 1.36501 5.10608 1.17706 5.68294 1.07716C6.30488 0.973191 6.93356 0.91698 7.56371 0.909L8.46857 0.896484H111.526L112.441 0.909502C113.066 0.917086 113.689 0.972796 114.305 1.07616C114.888 1.17731 115.452 1.36657 115.98 1.6377C117.021 2.18592 117.868 3.05325 118.402 4.11813C118.664 4.65063 118.844 5.22045 118.939 5.80827C119.043 6.44788 119.101 7.09439 119.113 7.74266C119.116 8.03294 119.116 8.34475 119.116 8.65506C119.124 9.03943 119.124 9.40529 119.124 9.77414V31.226C119.124 31.5984 119.124 31.9618 119.116 32.3281C119.116 32.6614 119.116 32.9668 119.112 33.2811C119.101 33.9178 119.043 34.5527 118.941 35.1809C118.847 35.7765 118.665 36.3538 118.399 36.8926C118.135 37.4179 117.791 37.8972 117.381 38.313C116.971 38.7371 116.497 39.091 115.978 39.361C115.451 39.6337 114.887 39.8237 114.305 39.9246C113.685 40.0281 113.058 40.084 112.43 40.0918C112.137 40.0987 111.829 40.1027 111.531 40.1027L110.443 40.1048L8.46808 40.1027Z" fill="black"/>
<path d="M24.8389 20.8081C24.8496 19.9526 25.072 19.1138 25.4851 18.3697C25.8983 17.6256 26.4889 17.0004 27.202 16.5523C26.749 15.891 26.1514 15.3468 25.4566 14.9628C24.7619 14.5789 23.9891 14.3659 23.1997 14.3406C21.5157 14.16 19.8832 15.3706 19.0251 15.3706C18.1504 15.3706 16.8292 14.3586 15.4064 14.3885C14.4862 14.4189 13.5893 14.6924 12.8033 15.1824C12.0172 15.6724 11.3687 16.3622 10.921 17.1846C8.98154 20.6167 10.4282 25.6608 12.286 28.4351C13.2155 29.7935 14.3018 31.311 15.7232 31.2572C17.1142 31.1982 17.6337 30.3506 19.3127 30.3506C20.9761 30.3506 21.4635 31.2572 22.9138 31.223C24.4063 31.1982 25.3467 29.8585 26.2436 28.4871C26.9114 27.5191 27.4254 26.4493 27.7663 25.3173C26.8992 24.9424 26.1592 24.3149 25.6386 23.5131C25.118 22.7112 24.8399 21.7705 24.8389 20.8081Z" fill="white"/>
<path d="M22.0994 12.5154C22.9132 11.5168 23.3142 10.2333 23.2171 8.9375C21.9738 9.07098 20.8253 9.67835 20.0005 10.6386C19.5972 11.1077 19.2884 11.6535 19.0916 12.2446C18.8948 12.8358 18.8139 13.4609 18.8536 14.084C19.4754 14.0906 20.0907 13.9528 20.6529 13.6811C21.2151 13.4094 21.7097 13.0108 22.0994 12.5154Z" fill="white"/>
<path d="M42.4205 27.8174H37.6739L36.5339 31.2577H34.5234L39.0194 18.5293H41.1083L45.6043 31.2577H43.5595L42.4205 27.8174ZM38.1655 26.2298H41.928L40.0732 20.6464H40.0213L38.1655 26.2298Z" fill="white"/>
<path d="M55.314 26.6182C55.314 29.5021 53.8039 31.3549 51.5251 31.3549C50.9478 31.3857 50.3737 31.2498 49.8685 30.9627C49.3633 30.6755 48.9474 30.2488 48.6685 29.7313H48.6253V34.3278H46.7617V21.9777H48.5656V23.5212H48.5999C48.8917 23.0062 49.3146 22.5816 49.8236 22.2928C50.3327 22.0039 50.9089 21.8614 51.4908 21.8806C53.7951 21.8806 55.314 23.7424 55.314 26.6182ZM53.3985 26.6182C53.3985 24.7394 52.4486 23.5042 50.9992 23.5042C49.5753 23.5042 48.6175 24.7654 48.6175 26.6182C48.6175 28.4881 49.5753 29.7403 50.9992 29.7403C52.4486 29.7403 53.3985 28.5141 53.3985 26.6182Z" fill="white"/>
<path d="M65.3062 26.6182C65.3062 29.5021 63.7961 31.3549 61.5173 31.3549C60.94 31.3857 60.3659 31.2498 59.8607 30.9627C59.3555 30.6755 58.9396 30.2488 58.6606 29.7313H58.6175V34.3277H56.7539V21.9777H58.5578V23.5212H58.5921C58.8838 23.0062 59.3067 22.5816 59.8158 22.2928C60.3249 22.0039 60.901 21.8614 61.483 21.8806C63.7873 21.8806 65.3062 23.7424 65.3062 26.6182ZM63.3907 26.6182C63.3907 24.7394 62.4407 23.5042 60.9914 23.5042C59.5675 23.5042 58.6097 24.7654 58.6097 26.6182C58.6097 28.4881 59.5675 29.7403 60.9914 29.7403C62.4408 29.7403 63.3907 28.5141 63.3907 26.6182H63.3907Z" fill="white"/>
<path d="M71.9116 27.7106C72.0497 28.9729 73.2494 29.8016 74.8887 29.8016C76.4595 29.8016 77.5896 28.9728 77.5896 27.8347C77.5896 26.8467 76.908 26.2552 75.2941 25.8498L73.6803 25.4524C71.3936 24.8878 70.332 23.7948 70.332 22.021C70.332 19.8249 72.2044 18.3164 74.8632 18.3164C77.4946 18.3164 79.2985 19.8249 79.3592 22.021H77.478C77.3653 20.7508 76.3381 19.984 74.8368 19.984C73.3355 19.984 72.3082 20.7598 72.3082 21.8889C72.3082 22.7888 72.9644 23.3183 74.5694 23.7237L75.9414 24.068C78.4964 24.6856 79.558 25.7346 79.558 27.5964C79.558 29.9777 77.7022 31.4692 74.7506 31.4692C71.989 31.4692 70.1244 30.0128 70.0039 27.7105L71.9116 27.7106Z" fill="white"/>
<path d="M83.5792 19.7812V21.9774H85.3058V23.4859H83.5792V28.6019C83.5792 29.3966 83.9249 29.767 84.6839 29.767C84.8889 29.7633 85.0935 29.7486 85.2969 29.7229V31.2224C84.9557 31.2876 84.6089 31.3171 84.2618 31.3105C82.4237 31.3105 81.7068 30.6048 81.7068 28.805V23.4859H80.3867V21.9774H81.7068V19.7812H83.5792Z" fill="white"/>
<path d="M86.3047 26.6179C86.3047 23.6981 87.9871 21.8633 90.6107 21.8633C93.2431 21.8633 94.9177 23.698 94.9177 26.6179C94.9177 29.5458 93.2519 31.3726 90.6107 31.3726C87.9704 31.3726 86.3047 29.5458 86.3047 26.6179ZM93.0188 26.6179C93.0188 24.615 92.1208 23.4328 90.6107 23.4328C89.1006 23.4328 88.2036 24.624 88.2036 26.6179C88.2036 28.6289 89.1006 29.802 90.6107 29.802C92.1208 29.802 93.0187 28.6289 93.0187 26.6179H93.0188Z" fill="white"/>
<path d="M96.4531 21.9776H98.2306V23.5572H98.2737C98.3939 23.0638 98.6767 22.6279 99.0744 22.3225C99.4721 22.0172 99.9605 21.8611 100.458 21.8805C100.672 21.8798 100.886 21.9036 101.096 21.9516V23.7333C100.825 23.6486 100.542 23.6098 100.259 23.6182C99.988 23.607 99.7181 23.6558 99.4675 23.7612C99.217 23.8667 98.9917 24.0263 98.8072 24.2292C98.6227 24.432 98.4834 24.6733 98.3987 24.9363C98.314 25.1994 98.2861 25.4781 98.3167 25.7533V31.2577H96.4531L96.4531 21.9776Z" fill="white"/>
<path d="M109.69 28.5318C109.439 30.2164 107.834 31.3726 105.781 31.3726C103.139 31.3726 101.5 29.5638 101.5 26.662C101.5 23.7511 103.148 21.8633 105.702 21.8633C108.214 21.8633 109.794 23.627 109.794 26.4407V27.0934H103.381V27.2085C103.352 27.55 103.393 27.8941 103.504 28.2178C103.614 28.5416 103.791 28.8376 104.022 29.0862C104.253 29.3348 104.533 29.5303 104.844 29.6598C105.154 29.7892 105.488 29.8497 105.824 29.8371C106.264 29.8792 106.706 29.775 107.084 29.5398C107.462 29.3046 107.755 28.9511 107.92 28.5318L109.69 28.5318ZM103.39 25.7621H107.929C107.946 25.455 107.9 25.1477 107.795 24.8595C107.69 24.5712 107.528 24.3083 107.319 24.0871C107.11 23.8659 106.858 23.6913 106.58 23.5743C106.302 23.4572 106.003 23.4002 105.702 23.4068C105.399 23.4049 105.098 23.4645 104.817 23.5821C104.536 23.6998 104.281 23.873 104.066 24.092C103.851 24.311 103.681 24.5713 103.565 24.858C103.449 25.1446 103.389 25.4519 103.39 25.7621V25.7621Z" fill="white"/>
<path d="M36.2677 11.5452L36.5317 8.26523H39.8597V13.0172L40.5157 13.0412L40.4357 14.9932H39.6597L39.6197 13.8652H36.3877L36.3477 14.9932H35.5717L35.4917 13.0492C35.9183 13.0492 36.177 12.5479 36.2677 11.5452ZM38.8677 13.0172V9.08123H37.4197L37.2117 11.6412C37.1637 12.2492 37.033 12.7079 36.8197 13.0172H38.8677ZM41.0752 11.8572C41.0752 10.4279 41.6752 9.71323 42.8752 9.71323C44.0752 9.71323 44.6752 10.4279 44.6752 11.8572C44.6752 13.2812 44.0752 13.9932 42.8752 13.9932C42.2459 13.9932 41.7872 13.8012 41.4992 13.4172C41.2166 13.0332 41.0752 12.5132 41.0752 11.8572ZM42.0352 11.8652C42.0352 12.7986 42.3152 13.2652 42.8752 13.2652C43.0566 13.2652 43.2059 13.2226 43.3232 13.1372C43.4459 13.0519 43.5339 12.9319 43.5872 12.7772C43.6406 12.6226 43.6752 12.4786 43.6912 12.3452C43.7072 12.2066 43.7152 12.0466 43.7152 11.8652C43.7152 11.7212 43.7099 11.5959 43.6992 11.4892C43.6939 11.3772 43.6752 11.2519 43.6432 11.1132C43.6112 10.9692 43.5659 10.8519 43.5072 10.7612C43.4486 10.6652 43.3659 10.5852 43.2592 10.5212C43.1526 10.4572 43.0246 10.4252 42.8752 10.4252C42.7259 10.4252 42.5979 10.4572 42.4912 10.5212C42.3846 10.5852 42.3019 10.6652 42.2432 10.7612C42.1846 10.8519 42.1392 10.9692 42.1072 11.1132C42.0752 11.2519 42.0539 11.3772 42.0432 11.4892C42.0379 11.5959 42.0352 11.7212 42.0352 11.8652ZM48.1974 13.1372L48.3014 13.0972L48.3094 13.7852C48.0481 13.9186 47.6854 13.9852 47.2214 13.9852C46.5974 13.9852 46.1281 13.7906 45.8134 13.4012C45.4987 13.0119 45.3414 12.4972 45.3414 11.8572C45.3414 11.2119 45.5014 10.6946 45.8214 10.3052C46.1414 9.9159 46.6161 9.72123 47.2454 9.72123C47.6347 9.72123 47.9414 9.76923 48.1654 9.86523L48.2694 9.91323V10.5932C48.0081 10.5026 47.7201 10.4572 47.4054 10.4572C46.6961 10.4572 46.3414 10.9239 46.3414 11.8572C46.3414 12.7852 46.6961 13.2492 47.4054 13.2492C47.6987 13.2492 47.9627 13.2119 48.1974 13.1372ZM50.0775 10.5772H48.8135V9.85723H52.2855V10.5772H51.0295V13.8652H50.0775V10.5772ZM53.9069 14.1372L54.0349 13.7772L52.5869 9.86523H53.6109L54.4349 12.4092L54.5149 12.8572L55.4429 9.86523H56.4269L54.7949 14.3052C54.5869 14.8386 54.3549 15.1959 54.0989 15.3772C53.8429 15.5639 53.4296 15.6572 52.8589 15.6572V14.9772C53.1842 14.9612 53.4109 14.8972 53.5389 14.7852C53.6722 14.6786 53.7949 14.4626 53.9069 14.1372ZM60.5193 13.8652H59.5593V10.5772H58.0313V13.8652H57.0793V9.85723H60.5193V13.8652ZM63.949 11.4332V9.85723H64.869V13.8652H63.949V12.1932H62.421V13.8652H61.509V9.85723H62.421V11.4332H63.949ZM65.6846 11.8572C65.6846 10.4279 66.2846 9.71323 67.4846 9.71323C68.6846 9.71323 69.2846 10.4279 69.2846 11.8572C69.2846 13.2812 68.6846 13.9932 67.4846 13.9932C66.8553 13.9932 66.3966 13.8012 66.1086 13.4172C65.8259 13.0332 65.6846 12.5132 65.6846 11.8572ZM66.6446 11.8652C66.6446 12.7986 66.9246 13.2652 67.4846 13.2652C67.6659 13.2652 67.8153 13.2226 67.9326 13.1372C68.0553 13.0519 68.1433 12.9319 68.1966 12.7772C68.2499 12.6226 68.2846 12.4786 68.3006 12.3452C68.3166 12.2066 68.3246 12.0466 68.3246 11.8652C68.3246 11.7212 68.3193 11.5959 68.3086 11.4892C68.3033 11.3772 68.2846 11.2519 68.2526 11.1132C68.2206 10.9692 68.1753 10.8519 68.1166 10.7612C68.0579 10.6652 67.9753 10.5852 67.8686 10.5212C67.7619 10.4572 67.6339 10.4252 67.4846 10.4252C67.3353 10.4252 67.2073 10.4572 67.1006 10.5212C66.9939 10.5852 66.9113 10.6652 66.8526 10.7612C66.7939 10.8519 66.7486 10.9692 66.7166 11.1132C66.6846 11.2519 66.6633 11.3772 66.6526 11.4892C66.6473 11.5959 66.6446 11.7212 66.6446 11.8652ZM73.3434 13.8652H71.7434V9.85723H73.3834C74.5141 9.85723 75.0794 10.2039 75.0794 10.8972C75.0794 11.0839 75.0181 11.2599 74.8954 11.4252C74.7727 11.5852 74.6207 11.6892 74.4394 11.7372C74.6794 11.7906 74.8741 11.8999 75.0234 12.0652C75.1781 12.2252 75.2554 12.4252 75.2554 12.6652C75.2554 12.8999 75.1941 13.1026 75.0714 13.2732C74.9541 13.4386 74.7914 13.5612 74.5834 13.6412C74.3807 13.7212 74.1781 13.7799 73.9754 13.8172C73.7781 13.8492 73.5674 13.8652 73.3434 13.8652ZM73.4314 12.0572H72.6474V13.1852L73.3674 13.1932C73.6074 13.1932 73.8154 13.1506 73.9914 13.0652C74.1727 12.9746 74.2634 12.8226 74.2634 12.6092C74.2634 12.4066 74.1807 12.2652 74.0154 12.1852C73.8501 12.0999 73.6554 12.0572 73.4314 12.0572ZM72.6474 10.4812V11.5212H73.4234C73.6261 11.5212 73.7994 11.4786 73.9434 11.3932C74.0874 11.3079 74.1594 11.1719 74.1594 10.9852C74.1594 10.8359 74.0954 10.7132 73.9674 10.6172C73.8287 10.5266 73.6341 10.4812 73.3834 10.4812H72.6474Z" fill="white"/>
</g>
<defs>
<clipPath id="clip0_6944_938">
<rect width="120" height="41" fill="white"/>
</clipPath>
</defs>
</svg>
