<svg width="120" height="41" viewBox="0 0 120 41" fill="none" xmlns="http://www.w3.org/2000/svg">
<g clip-path="url(#clip0_6944_1089)">
<path d="M110.444 0.00013325H9.56145C9.19372 0.00013325 8.8304 0.00013325 8.46364 0.00218325C8.15663 0.00423325 7.85207 0.0101885 7.54211 0.0152007C6.86874 0.0233001 6.19695 0.0838514 5.53259 0.196328C4.86915 0.311254 4.2265 0.527922 3.62637 0.839003C3.02697 1.15272 2.47929 1.56035 2.00318 2.04713C1.52457 2.53254 1.12561 3.0936 0.82165 3.70875C0.516847 4.32267 0.305496 4.98055 0.194896 5.65965C0.083244 6.3379 0.0231632 7.02397 0.0151925 7.7117C0.00588648 8.02596 0.00490373 8.34128 0 8.65558V32.3477C0.00490373 32.666 0.00588648 32.9743 0.0151925 33.2926C0.0231657 33.9803 0.0832464 34.6664 0.194896 35.3446C0.30519 36.0241 0.516554 36.6823 0.82165 37.2965C1.12548 37.9097 1.52449 38.4684 2.00318 38.9512C2.47748 39.4401 3.02552 39.848 3.62637 40.1593C4.2265 40.4712 4.86908 40.6892 5.53259 40.8059C6.19707 40.9175 6.86879 40.978 7.54211 40.9871C7.85207 40.9941 8.15663 40.9981 8.46364 40.9981C8.83039 41.0001 9.19374 41.0001 9.56145 41.0001H110.444C110.804 41.0001 111.171 41.0001 111.531 40.9981C111.837 40.9981 112.15 40.9941 112.455 40.9871C113.128 40.9785 113.798 40.9179 114.461 40.8059C115.127 40.6884 115.772 40.4705 116.375 40.1593C116.975 39.8478 117.522 39.4399 117.996 38.9512C118.474 38.4666 118.874 37.9082 119.181 37.2965C119.484 36.6819 119.693 36.0237 119.802 35.3446C119.914 34.6663 119.976 33.9804 119.988 33.2926C119.992 32.9743 119.992 32.666 119.992 32.3477C120 31.9753 120 31.605 120 31.2266V9.77467C120 9.3993 120 9.02694 119.992 8.65558C119.992 8.34128 119.992 8.02596 119.988 7.71166C119.976 7.02387 119.914 6.33795 119.802 5.65961C119.693 4.9809 119.484 4.32307 119.181 3.70871C118.562 2.47571 117.581 1.47206 116.375 0.838911C115.772 0.52859 115.127 0.31198 114.461 0.196236C113.798 0.0832636 113.128 0.0226912 112.455 0.0150572C112.15 0.0100552 111.837 0.00404875 111.531 0.00205C111.171 0 110.804 0 110.444 0V0.00013325Z" fill="#999999"/>
<path d="M8.46808 40.1027C8.16254 40.1027 7.86439 40.0987 7.56125 40.0918C6.93327 40.0834 6.30676 40.0275 5.68686 39.9246C5.10883 39.8228 4.54888 39.6336 4.02547 39.363C3.50686 39.0947 3.03385 38.7428 2.62455 38.321C2.20933 37.9041 1.86363 37.4206 1.60117 36.8896C1.33582 36.3551 1.15218 35.7823 1.05665 35.1909C0.953484 34.5555 0.897668 33.9131 0.889681 33.2691C0.883323 33.0529 0.875 32.3331 0.875 32.3331V8.65506C0.875 8.65506 0.883865 7.94636 0.889731 7.73815C0.897379 7.09515 0.95287 6.45368 1.05573 5.81928C1.15143 5.22634 1.33522 4.65183 1.60071 4.11563C1.86221 3.585 2.20598 3.10112 2.6187 2.68273C3.03096 2.26037 3.50549 1.90673 4.02498 1.6347C4.54718 1.36501 5.10608 1.17706 5.68294 1.07716C6.30488 0.973191 6.93356 0.91698 7.56371 0.909L8.46857 0.896484H111.526L112.441 0.909502C113.066 0.917086 113.689 0.972796 114.305 1.07616C114.888 1.17731 115.452 1.36657 115.98 1.6377C117.021 2.18592 117.868 3.05325 118.402 4.11813C118.664 4.65063 118.844 5.22045 118.939 5.80827C119.043 6.44788 119.101 7.09439 119.113 7.74266C119.116 8.03294 119.116 8.34475 119.116 8.65506C119.124 9.03943 119.124 9.40529 119.124 9.77414V31.226C119.124 31.5984 119.124 31.9618 119.116 32.3281C119.116 32.6614 119.116 32.9668 119.112 33.2811C119.101 33.9178 119.043 34.5527 118.941 35.1809C118.847 35.7765 118.665 36.3538 118.399 36.8926C118.135 37.4179 117.791 37.8972 117.381 38.313C116.971 38.7371 116.497 39.091 115.978 39.361C115.451 39.6337 114.887 39.8237 114.305 39.9246C113.685 40.0281 113.058 40.084 112.43 40.0918C112.137 40.0987 111.829 40.1027 111.531 40.1027L110.443 40.1048L8.46808 40.1027Z" fill="black"/>
<path fill-rule="evenodd" clip-rule="evenodd" d="M17 19.5776C17.4715 13.6585 22.429 9 28.4807 9C34.8426 9 40 14.1501 40 20.5005C40 26.851 34.8415 32 28.4796 32C23.2063 32 18.7633 28.461 17.3964 23.6343L21.8129 25.4562C22.1121 26.9461 23.4326 28.0711 25.0104 28.0711C26.8079 28.0711 28.2709 26.6107 28.2709 24.815C28.2709 24.7637 28.2698 24.7124 28.2676 24.661L32.1839 21.8713C32.2159 21.8735 32.2491 21.8735 32.2822 21.8735C34.6781 21.8735 36.6269 19.9282 36.6269 17.5361C36.6269 15.144 34.6781 13.1987 32.2822 13.1987C29.8862 13.1987 27.9374 15.1451 27.9374 17.5361V17.5929L25.1915 21.5655C25.1308 21.5622 25.07 21.5601 25.0093 21.5601C24.3292 21.5601 23.6976 21.7687 23.1743 22.1258L17 19.5776ZM23 25.8658L24.2177 26.3435H24.2167C25.0069 26.6566 25.915 26.3015 26.2436 25.5501C26.5722 24.7996 26.199 23.9373 25.4087 23.6242L24.1512 23.1304C24.6365 22.9569 25.1884 22.9488 25.7032 23.1528C26.2227 23.3585 26.6264 23.7441 26.8401 24.2378C27.0547 24.7316 27.0528 25.2755 26.8372 25.7683C26.3908 26.7872 25.1561 27.2702 24.0847 26.8462C23.5889 26.6494 23.2156 26.2925 23 25.8658ZM29.7517 17.9949C29.7517 16.7498 30.7609 15.7416 32.0057 15.7416C33.2506 15.7416 34.2597 16.7498 34.2597 17.9949C34.2597 19.24 33.2506 20.2482 32.0057 20.2482C30.7609 20.2482 29.7517 19.2389 29.7517 17.9949ZM35 18.0006C35 16.3461 33.6545 15 32 15C30.3455 15 29 16.3461 29 18.0006C29 19.6551 30.3455 21 32 21C33.6545 21 35 19.6539 35 18.0006ZM53.3944 23.4431L54.2311 21.9405C53.6055 21.4547 52.475 21 51.0706 21C49.0541 21 47.6534 22.0267 47.6534 23.8129C47.6534 25.3979 48.7098 26.0812 50.2352 26.6008C50.3347 26.6345 50.4314 26.6669 50.5251 26.6983L50.5276 26.6991L50.5282 26.6993C51.6941 27.0899 52.4034 27.3276 52.4034 28.0022C52.4034 28.6392 51.8592 29.0701 50.7152 29.0701C49.8662 29.0701 48.9147 28.8153 48.1187 28.3857L47.5078 30.0519C48.4877 30.6602 49.7625 30.9387 50.8189 30.9387C52.9872 30.9387 54.4952 29.8383 54.4952 27.8798C54.4952 26.4484 53.6153 25.7976 52.0851 25.2455C51.8663 25.1653 51.6586 25.093 51.4636 25.0252L51.4635 25.0252L51.4628 25.0249L51.4625 25.0248L51.4624 25.0248C50.3888 24.6512 49.7033 24.4126 49.7033 23.7342C49.7033 23.0747 50.2426 22.7062 51.1138 22.7062C51.8765 22.7062 52.7502 22.9822 53.3944 23.4431ZM60.7716 22.889V30.773H58.802V22.889H55.9414V21.1641H63.6236V22.889H60.7716ZM67.7782 25.0499V22.884H72.153V21.1641H65.8086V30.773H72.153V29.0319H67.7782V26.7761H71.5496V25.0499H67.7782ZM78.3687 23.4561L77.0841 27.3032H79.6806L78.3687 23.4561ZM76.5485 28.9082L75.9252 30.7743H73.8594L77.3876 21.1641H79.3708L82.9991 30.7743H80.8628L80.226 28.9082H76.5485ZM90.5402 30.4932L93.1145 24.8775V30.773H95.0015V21.1641H93.1022L90.0528 28.1001L86.8898 21.1641H85.0078V30.773H86.8947V24.9275L89.4283 30.4932H90.5402Z" fill="white"/>
<path d="M48.1537 11.5452L48.4177 8.26523H51.7457V13.0172L52.4017 13.0412L52.3217 14.9932H51.5457L51.5057 13.8652H48.2737L48.2337 14.9932H47.4577L47.3777 13.0492C47.8044 13.0492 48.0631 12.5479 48.1537 11.5452ZM50.7537 13.0172V9.08123H49.3057L49.0977 11.6412C49.0497 12.2492 48.9191 12.7079 48.7057 13.0172H50.7537ZM52.9613 11.8572C52.9613 10.4279 53.5613 9.71323 54.7613 9.71323C55.9613 9.71323 56.5613 10.4279 56.5613 11.8572C56.5613 13.2812 55.9613 13.9932 54.7613 13.9932C54.132 13.9932 53.6733 13.8012 53.3853 13.4172C53.1026 13.0332 52.9613 12.5132 52.9613 11.8572ZM53.9213 11.8652C53.9213 12.7986 54.2013 13.2652 54.7613 13.2652C54.9426 13.2652 55.092 13.2226 55.2093 13.1372C55.332 13.0519 55.42 12.9319 55.4733 12.7772C55.5266 12.6226 55.5613 12.4786 55.5773 12.3452C55.5933 12.2066 55.6013 12.0466 55.6013 11.8652C55.6013 11.7212 55.596 11.5959 55.5853 11.4892C55.58 11.3772 55.5613 11.2519 55.5293 11.1132C55.4973 10.9692 55.452 10.8519 55.3933 10.7612C55.3346 10.6652 55.252 10.5852 55.1453 10.5212C55.0386 10.4572 54.9106 10.4252 54.7613 10.4252C54.612 10.4252 54.484 10.4572 54.3773 10.5212C54.2706 10.5852 54.188 10.6652 54.1293 10.7612C54.0706 10.8519 54.0253 10.9692 53.9933 11.1132C53.9613 11.2519 53.94 11.3772 53.9293 11.4892C53.924 11.5959 53.9213 11.7212 53.9213 11.8652ZM60.0835 13.1372L60.1875 13.0972L60.1955 13.7852C59.9342 13.9186 59.5715 13.9852 59.1075 13.9852C58.4835 13.9852 58.0142 13.7906 57.6995 13.4012C57.3848 13.0119 57.2275 12.4972 57.2275 11.8572C57.2275 11.2119 57.3875 10.6946 57.7075 10.3052C58.0275 9.9159 58.5022 9.72123 59.1315 9.72123C59.5208 9.72123 59.8275 9.76923 60.0515 9.86523L60.1555 9.91323V10.5932C59.8942 10.5026 59.6062 10.4572 59.2915 10.4572C58.5822 10.4572 58.2275 10.9239 58.2275 11.8572C58.2275 12.7852 58.5822 13.2492 59.2915 13.2492C59.5848 13.2492 59.8488 13.2119 60.0835 13.1372ZM61.9636 10.5772H60.6996V9.85723H64.1716V10.5772H62.9156V13.8652H61.9636V10.5772ZM65.793 14.1372L65.921 13.7772L64.473 9.86523H65.497L66.321 12.4092L66.401 12.8572L67.329 9.86523H68.313L66.681 14.3052C66.473 14.8386 66.241 15.1959 65.985 15.3772C65.729 15.5639 65.3157 15.6572 64.745 15.6572V14.9772C65.0703 14.9612 65.297 14.8972 65.425 14.7852C65.5583 14.6786 65.681 14.4626 65.793 14.1372ZM72.4054 13.8652H71.4454V10.5772H69.9174V13.8652H68.9654V9.85723H72.4054V13.8652ZM75.8351 11.4332V9.85723H76.7551V13.8652H75.8351V12.1932H74.3071V13.8652H73.3951V9.85723H74.3071V11.4332H75.8351ZM77.5707 11.8572C77.5707 10.4279 78.1707 9.71323 79.3707 9.71323C80.5707 9.71323 81.1707 10.4279 81.1707 11.8572C81.1707 13.2812 80.5707 13.9932 79.3707 13.9932C78.7414 13.9932 78.2827 13.8012 77.9947 13.4172C77.712 13.0332 77.5707 12.5132 77.5707 11.8572ZM78.5307 11.8652C78.5307 12.7986 78.8107 13.2652 79.3707 13.2652C79.552 13.2652 79.7014 13.2226 79.8187 13.1372C79.9414 13.0519 80.0294 12.9319 80.0827 12.7772C80.136 12.6226 80.1707 12.4786 80.1867 12.3452C80.2027 12.2066 80.2107 12.0466 80.2107 11.8652C80.2107 11.7212 80.2054 11.5959 80.1947 11.4892C80.1894 11.3772 80.1707 11.2519 80.1387 11.1132C80.1067 10.9692 80.0614 10.8519 80.0027 10.7612C79.944 10.6652 79.8614 10.5852 79.7547 10.5212C79.648 10.4572 79.52 10.4252 79.3707 10.4252C79.2214 10.4252 79.0934 10.4572 78.9867 10.5212C78.88 10.5852 78.7974 10.6652 78.7387 10.7612C78.68 10.8519 78.6347 10.9692 78.6027 11.1132C78.5707 11.2519 78.5494 11.3772 78.5387 11.4892C78.5334 11.5959 78.5307 11.7212 78.5307 11.8652ZM86.0695 11.4332V9.85723H86.9895V13.8652H86.0695V12.1932H84.5415V13.8652H83.6295V9.85723H84.5415V11.4332H86.0695ZM91.1732 11.3692V13.8652H90.5012L90.3892 13.5212C90.0586 13.8039 89.6666 13.9452 89.2132 13.9452C88.7972 13.9452 88.4559 13.8359 88.1892 13.6172C87.9226 13.3986 87.7892 13.0866 87.7892 12.6812C87.7892 12.4306 87.8426 12.2172 87.9492 12.0412C88.0559 11.8599 88.2026 11.7239 88.3892 11.6332C88.5759 11.5426 88.7706 11.4786 88.9732 11.4412C89.1759 11.3986 89.3972 11.3772 89.6372 11.3772H90.2372V11.2892C90.2372 11.0066 90.1839 10.7959 90.0772 10.6572C89.9652 10.5292 89.7599 10.4652 89.4612 10.4652C89.1679 10.4652 88.7839 10.5106 88.3092 10.6012L88.1092 10.6492V9.96923C88.5839 9.82523 89.0639 9.75323 89.5492 9.75323C90.1146 9.75323 90.5252 9.88123 90.7812 10.1372C91.0426 10.3932 91.1732 10.8039 91.1732 11.3692ZM89.4372 13.2252C89.7199 13.2252 89.9839 13.1292 90.2292 12.9372V11.9932H89.7172C89.0452 11.9932 88.7092 12.2039 88.7092 12.6252C88.7092 12.8226 88.7786 12.9719 88.9172 13.0732C89.0612 13.1746 89.2346 13.2252 89.4372 13.2252Z" fill="white"/>
</g>
<defs>
<clipPath id="clip0_6944_1089">
<rect width="120" height="41" fill="white"/>
</clipPath>
</defs>
</svg>
