<svg width="40" height="40" viewBox="0 0 40 40" fill="none" xmlns="http://www.w3.org/2000/svg">
<g id="Logo">
<g id="Vector" filter="url(#filter0_d_1449_6585)">
<path fill-rule="evenodd" clip-rule="evenodd" d="M34.9996 15.005C34.4889 15.1894 33.2982 15.4454 32.445 15.4238C31.5908 15.4032 29.7565 15.5219 28.9869 15.6631C28.2173 15.8044 27.0327 16.4831 26.9611 16.6204C26.8906 16.7577 27.0196 17.4787 27.0548 17.5777C27.0911 17.6758 27.6068 17.9357 27.8959 18.2055C28.1861 18.4752 28.8791 19.4913 29.1118 20.0298C29.3435 20.5683 29.9207 20.8969 29.8904 20.9567C29.8592 21.0175 29.7827 20.9999 29.5167 20.837C29.2498 20.6752 28.6122 20.1191 28.3009 19.9396C27.9896 19.7611 27.5625 19.508 27.4598 19.5217C27.358 19.5345 27.5222 19.9504 27.5847 20.2387C27.5605 20.1299 27.6653 21.1784 27.8345 21.6747C28.0481 22.3024 29.2981 22.8752 30.2017 24.8447C30.66 25.8432 30.651 26.8349 31.479 28.673C31.7852 29.3517 32.7936 30.6925 32.7563 30.7366C32.719 30.7808 32.4762 30.5248 31.9464 30.0785C31.4165 29.6322 30.3458 28.4434 29.8904 27.5666C29.4351 26.6887 28.3885 25.2557 27.7096 24.8447C27.0296 24.4348 26.5633 24.2023 26.4635 24.217C26.3628 24.2307 26.3014 24.3229 26.0888 24.4858C25.8773 24.6496 25.6839 24.7251 25.6839 24.7251C25.6839 24.7251 25.6718 24.7653 25.6214 25.3234C25.5721 25.8815 25.3424 26.5543 24.7813 27.2968C24.2192 28.0413 24.1265 28.7907 24.0641 28.823C24.0016 28.8544 24.0016 28.9525 23.9714 28.6131C23.9392 28.2738 24.046 27.9717 24.1265 27.3871C24.2071 26.8025 24.1709 26.0629 24.0641 26.0708C23.9583 26.0796 23.8525 26.3082 23.503 26.5798C23.1545 26.8506 22.949 26.8231 22.4131 27.5067C21.9699 28.0717 21.9215 29.3409 20.9484 30.7366C20.194 31.8205 19.3478 32.0686 17.8952 33.9969C17.0964 35.0582 16.768 36.0155 16.7116 35.9998C16.6552 35.9851 16.8436 35.4358 16.9917 34.6845C17.1408 33.9332 17.5779 33.2397 17.9889 32.3815C18.3808 31.5645 19.0426 30.6023 19.3287 29.6303C19.51 29.0153 19.5039 27.7441 19.3911 27.6264C19.2783 27.5087 18.6195 27.2292 18.5188 27.237C18.418 27.2449 18.2015 27.3606 17.4903 27.596C16.7801 27.8324 15.659 27.7078 15.1845 27.7157C14.7111 27.7235 14.0765 27.953 14.0009 27.8952C13.9264 27.8383 14.2951 27.6362 15.1543 27.3567C16.0136 27.0781 16.5061 26.6495 16.5253 26.5798C16.5424 26.5102 16.3631 26.5004 16.0881 26.4298C15.8141 26.3601 15.2853 26.0688 14.6245 25.8913C13.9626 25.7148 13.2414 26.0875 11.7264 26.2807C10.2124 26.4739 8.19471 25.4764 6.30598 25.3538C4.99344 25.2675 3.98309 25.4705 4.00021 25.3538C4.01835 25.2361 5.50314 24.9026 6.24352 24.7555C6.98391 24.6074 9.42264 24.5672 10.6052 24.4563C11.7888 24.3445 12.7559 23.4853 12.8173 23.4098C12.8788 23.3343 12.7811 23.2519 12.7549 22.991C12.7297 22.7291 12.6924 22.4819 12.6924 22.4819C12.6924 22.4819 12.4255 22.4083 11.7576 21.7639C11.0908 21.1205 10.7805 20.327 10.5428 19.9102C10.3061 19.4933 9.8578 19.1029 9.8578 19.1029C9.8578 19.1029 10.0341 19.1235 10.294 19.2824C10.574 19.4531 10.9457 19.7679 11.1039 19.9396C11.4081 20.2711 12.2512 20.5722 12.3187 20.5379C12.3872 20.5045 12.2693 20.3447 12.1948 19.97C12.1192 19.5953 12.3761 19.6748 11.9138 18.534C11.6659 17.921 10.3181 16.8568 9.67044 15.4836C8.94718 13.9486 9.16073 13.3042 8.48683 11.7457C8.01541 10.655 6.86706 9.31516 6.92951 9.26317C6.98995 9.21119 8.16953 10.3323 8.58052 10.7884C8.9905 11.2454 10.8591 14.1546 11.4151 14.7068C11.9712 15.258 13.2112 15.877 13.2847 15.873C13.3572 15.8681 13.5275 15.7092 13.6584 15.6033C13.7904 15.4974 14.0946 15.3041 14.0946 15.3041C14.0946 15.3041 14.0755 14.6068 14.3444 13.929C14.6114 13.2503 15.111 12.7039 15.4031 12.1047C15.6469 11.6044 15.7365 10.9335 15.7768 11.4465C15.8 11.7329 15.6318 12.3077 15.5905 12.8216C15.5482 13.3356 15.4968 13.7534 15.6217 13.9584C15.6519 14.0085 15.656 14.0506 15.6529 14.081C15.6731 14.0398 15.7154 13.9722 15.8393 13.8398C16.2231 13.4258 17.1488 13.2052 17.4903 12.343C17.8328 11.4818 18.0212 10.8531 18.6125 9.7124C19.2038 8.5707 20.3058 7.88215 21.166 7.02C22.0283 6.15784 23.0981 4 23.0981 4C23.0981 4 23.0034 4.63754 22.7898 5.35356C22.6206 5.92342 22.3526 6.54233 22.1643 6.92976C21.7372 7.80663 20.481 10.0665 20.3571 10.6687C20.2322 11.2719 20.2715 12.3263 20.3259 12.4636C20.3531 12.5323 20.5616 12.5745 20.7762 12.6569C20.9887 12.7383 21.2063 12.8609 21.2607 12.8521C21.3675 12.8354 21.7805 12.5019 22.7243 12.3734C23.6682 12.2459 23.8949 12.3734 24.5627 12.3734C25.1329 12.3744 25.7101 12.0948 25.7463 12.1341C25.8209 12.2145 25.7594 12.2116 25.5287 12.3734C25.2971 12.5362 24.6564 12.6892 24.1578 12.9119C23.6602 13.1345 23.231 13.4072 23.223 13.4798C23.2058 13.6299 23.8858 13.6171 24.5315 13.9888C24.9818 14.2478 25.0654 14.1732 25.5287 14.1978C26.2681 14.237 27.6995 13.727 28.7068 13.8084C29.4875 13.8721 30.2632 13.979 31.2604 14.288C32.2587 14.596 33.7435 14.8088 34.5947 14.7666C35.4448 14.7235 36.0492 14.595 35.9968 14.6764C35.9435 14.7578 35.5103 14.8216 34.9996 15.005ZM25.846 17.9053C25.293 16.49 23.8787 14.7755 21.5135 14.1173C18.9177 13.3935 16.7519 14.7166 15.9441 15.263C15.1372 15.8083 13.2293 17.3816 13.6332 21.1391C14.0029 24.578 17.6212 26.3003 20.1295 26.1424C23.3972 25.9364 25.6698 23.3568 25.9508 21.9562C26.1916 20.7566 26.3699 19.2451 25.846 17.9053ZM20.1073 25.6824C17.6978 25.6687 14.5942 24.1876 14.1883 21.046C13.7269 17.4747 15.5361 16.1938 16.2755 15.6935C17.0148 15.1933 18.7303 13.879 21.2607 14.6176C23.9996 15.415 24.9757 16.9529 25.3414 18.0858C25.707 19.2187 25.6869 20.6958 25.4663 21.7943C25.2084 23.0763 22.9006 25.6991 20.1073 25.6824ZM24.874 18.5939C24.471 17.1207 23.7156 16.3948 22.6619 16.1418C21.4803 15.8583 20.2232 16.1447 19.235 17.2187C18.3979 18.128 18.4976 18.381 18.3626 18.2947C18.2287 18.2094 18.3113 17.1314 18.8925 16.2016C19.4737 15.2728 20.2554 15.0383 20.2635 14.9452C20.2715 14.853 19.0708 14.8108 18.3002 15.1855C17.5306 15.5592 16.8093 15.7553 15.9954 16.7097C15.1815 17.665 14.556 18.2731 15.0294 19.8503C15.1684 20.3143 15.7647 21.4305 17.0541 21.8542C18.2649 22.2524 19.0708 22.0248 19.1413 22.1828C19.2128 22.3417 17.8096 22.8546 16.4316 22.7212C15.2933 22.6104 15.1704 22.0297 14.9982 22.2132C14.8259 22.3956 16.3419 24.0875 18.0826 24.6947C18.9942 25.0135 20.2433 25.2616 21.1983 24.8752C22.0656 24.523 22.7123 23.6079 22.9117 22.6614C23.2602 20.9989 22.1572 19.7846 22.1945 19.6708C22.2328 19.5571 23.1333 19.9543 23.7528 21.0764C24.3713 22.1985 24.2071 22.6732 24.2202 22.7212C24.2323 22.7693 24.3864 22.7173 24.5315 22.4515C24.6765 22.1867 25.2769 20.0681 24.874 18.5939Z" fill="url(#paint0_linear_1449_6585)"/>
</g>
</g>
<defs>
<filter id="filter0_d_1449_6585" x="0" y="0" width="40" height="40" filterUnits="userSpaceOnUse" color-interpolation-filters="sRGB">
<feFlood flood-opacity="0" result="BackgroundImageFix"/>
<feColorMatrix in="SourceAlpha" type="matrix" values="0 0 0 0 0 0 0 0 0 0 0 0 0 0 0 0 0 0 127 0" result="hardAlpha"/>
<feOffset/>
<feGaussianBlur stdDeviation="2"/>
<feColorMatrix type="matrix" values="0 0 0 0 0 0 0 0 0 0 0 0 0 0 0 0 0 0 0.2 0"/>
<feBlend mode="normal" in2="BackgroundImageFix" result="effect1_dropShadow_1449_6585"/>
<feBlend mode="normal" in="SourceGraphic" in2="effect1_dropShadow_1449_6585" result="shape"/>
</filter>
<linearGradient id="paint0_linear_1449_6585" x1="4.29905" y1="36.6215" x2="4.29905" y2="3.27299" gradientUnits="userSpaceOnUse">
<stop stop-color="#7D5C2C"/>
<stop offset="1" stop-color="#C6B073"/>
</linearGradient>
</defs>
</svg>
