<svg width="181" height="42" viewBox="0 0 181 42" fill="none" xmlns="http://www.w3.org/2000/svg">
<g id="Logo">
<g id="Vector">
<mask id="path-1-outside-1_1473_754" maskUnits="userSpaceOnUse" x="0" y="12" width="181" height="17" fill="black">
<rect fill="white" y="12" width="181" height="17"/>
<path fill-rule="evenodd" clip-rule="evenodd" d="M179.325 13.5049C178.822 13.5565 178.645 13.7372 178.627 14.2658C178.602 14.971 178.585 15.6752 178.582 16.3804C178.571 19.9383 178.567 23.4953 178.557 27.0532C178.556 27.236 178.522 27.4187 178.511 27.6015C178.494 27.8823 178.339 27.8709 178.169 27.7584C178.002 27.649 177.847 27.5168 177.7 27.3795C174.362 24.2521 171.17 20.9739 168.012 17.6586C167.528 17.1506 166.989 16.6953 166.531 16.2678C166.531 16.5507 166.522 16.9648 166.533 17.3778C166.568 18.7871 166.612 20.1964 166.651 21.6048C166.688 22.882 166.706 24.1591 166.767 25.4343C166.791 25.9185 166.886 26.4038 166.997 26.8767C167.094 27.301 167.392 27.5209 167.832 27.5147C168.106 27.5127 168.38 27.5147 168.655 27.5147C168.654 27.5581 168.653 27.6004 168.652 27.6428C167.095 27.6428 165.537 27.6428 163.981 27.6428C163.978 27.619 163.976 27.5953 163.974 27.5715C164.19 27.5519 164.405 27.5261 164.622 27.5147C165.054 27.493 165.266 27.3454 165.375 26.9149C165.444 26.6412 165.492 26.3542 165.497 26.0723C165.518 24.7033 165.525 23.3342 165.531 21.9641C165.543 19.2042 165.548 16.4444 165.569 13.6845C165.571 13.4657 165.681 13.2468 165.74 13.0289C165.78 13.0289 165.82 13.0289 165.86 13.0289C166.601 13.7847 167.345 14.5394 168.084 15.2973C169.864 17.1196 171.644 18.9389 173.419 20.7674C174.685 22.0725 175.94 23.3899 177.201 24.7002C177.317 24.821 177.439 24.9325 177.561 25.0502C177.561 24.5277 177.57 24.0321 177.559 23.5376C177.498 20.6156 177.435 17.6937 177.365 14.7728C177.361 14.5611 177.318 14.3474 177.265 14.143C177.158 13.7362 176.929 13.5534 176.519 13.5162C176.179 13.4863 175.839 13.4595 175.499 13.4305C175.501 13.4037 175.502 13.3758 175.503 13.349C177.001 13.349 178.496 13.349 179.993 13.349C179.995 13.3758 179.998 13.4037 180 13.4316C179.775 13.4564 179.551 13.4811 179.325 13.5049ZM159.656 13.476C159.14 13.5452 158.913 13.762 158.847 14.2896C158.803 14.6427 158.778 14.9999 158.775 15.3572C158.757 17.3602 158.748 19.3632 158.737 21.3673C158.731 22.4246 158.628 23.4684 158.283 24.4699C157.633 26.3656 156.23 27.3671 154.389 27.8049C153.908 27.9184 153.406 27.937 152.914 28C152.833 28 152.754 28 152.673 28C152.18 27.9381 151.683 27.905 151.197 27.809C148.802 27.3392 147.372 25.7678 147.052 23.3125C146.952 22.5474 146.934 21.7669 146.928 20.9925C146.91 19.101 146.926 17.2095 146.916 15.3179C146.914 14.9638 146.878 14.6035 146.806 14.2576C146.706 13.7806 146.447 13.571 145.979 13.5121C145.726 13.4791 145.471 13.4574 145.208 13.3634C145.323 13.3428 145.438 13.3025 145.552 13.3025C146.96 13.3036 148.368 13.3087 149.775 13.3159C149.882 13.3159 149.987 13.3366 150.093 13.3469C150.095 13.3748 150.098 13.4016 150.1 13.4295C149.996 13.4388 149.892 13.4522 149.789 13.4574C149.091 13.4904 148.843 13.7124 148.773 14.429C148.729 14.874 148.708 15.3241 148.708 15.7733C148.705 17.9714 148.689 20.1696 148.726 22.3678C148.744 23.4777 148.939 24.5711 149.598 25.4983C150.372 26.5886 151.433 27.1461 152.754 27.2091C153.801 27.2597 154.775 27.0491 155.651 26.443C156.647 25.7543 157.109 24.7301 157.281 23.5655C157.396 22.7818 157.45 21.9816 157.461 21.1887C157.487 19.4303 157.479 17.672 157.464 15.9127C157.46 15.3644 157.42 14.812 157.345 14.2689C157.28 13.8043 156.992 13.572 156.531 13.5131C156.271 13.4801 156.011 13.4553 155.752 13.4275C155.754 13.4006 155.755 13.3748 155.756 13.3469C157.222 13.3469 158.688 13.3469 160.154 13.3469C160.156 13.3769 160.157 13.4058 160.159 13.4347C159.992 13.4481 159.823 13.4543 159.656 13.476ZM137.445 18.911C138.373 19.6183 139.325 20.2904 140.115 21.1691C141.14 22.3069 141.489 23.6171 141.035 25.0966C140.566 26.6247 139.453 27.4445 137.97 27.779C137.536 27.8761 137.089 27.9091 136.647 27.9721C136.548 27.9721 136.447 27.9721 136.347 27.9721C135.875 27.9102 135.398 27.8761 134.932 27.778C134.536 27.6944 134.149 27.5519 133.771 27.4022C133.666 27.3619 133.534 27.2019 133.536 27.0986C133.551 26.3449 133.595 25.5912 133.636 24.8375C133.639 24.7662 133.684 24.6971 133.709 24.6269C133.735 24.6289 133.761 24.632 133.787 24.6341C133.798 24.758 133.829 24.8819 133.818 25.0037C133.743 25.9237 134.187 26.4791 134.986 26.8126C135.828 27.1627 136.7 27.3144 137.591 27.1513C139.811 26.7435 140.145 24.4978 139.312 23.0657C138.857 22.2862 138.154 21.7514 137.466 21.2062C136.576 20.499 135.655 19.8309 134.92 18.9368C133.926 17.7288 133.696 16.146 134.366 14.8905C134.926 13.8404 135.867 13.3552 136.965 13.127C137.197 13.0774 137.432 13.0423 137.666 13C138.025 13 138.385 13 138.745 13C139.391 13.1043 140.036 13.2199 140.685 13.3025C140.907 13.3304 140.955 13.3603 140.92 13.6112C140.853 14.1037 140.862 14.6066 140.834 15.1052C140.824 15.2839 140.801 15.4604 140.783 15.638C140.753 15.6432 140.724 15.6473 140.693 15.6514C140.664 15.5472 140.612 15.4429 140.611 15.3376C140.595 14.6799 140.283 14.2411 139.685 14.0191C138.785 13.6835 137.85 13.5803 136.926 13.8281C135.172 14.2999 135.081 16.2441 135.759 17.2776C136.201 17.9508 136.821 18.435 137.445 18.911ZM96.8466 14.0573C96.8088 14.3195 96.7839 14.5859 96.7829 14.8513C96.7749 18.3782 96.7739 21.9062 96.7649 25.4343C96.7629 26.1178 96.74 26.8023 96.7161 27.4858C96.7121 27.5973 96.6723 27.7636 96.6005 27.7987C96.5248 27.8348 96.3654 27.7729 96.2876 27.7016C95.5782 27.0573 94.8598 26.4224 94.1822 25.745C91.8765 23.4364 89.5808 21.1164 87.2911 18.7902C86.4551 17.9405 85.649 17.0608 84.8279 16.1956C84.802 16.1677 84.7721 16.1429 84.7333 16.1057C84.7333 16.6984 84.7213 17.2714 84.7353 17.8455C84.7731 19.3467 84.821 20.8479 84.8668 22.3492C84.9007 23.4725 84.9206 24.5969 84.9824 25.7192C85.0043 26.1302 85.1019 26.5432 85.2135 26.9417C85.3212 27.3227 85.6061 27.5168 86.0037 27.5147C86.2887 27.5127 86.5736 27.5147 86.8586 27.5147C86.8586 27.5571 86.8576 27.5994 86.8576 27.6428C85.2992 27.6428 83.7418 27.6428 82.1845 27.6428C82.1815 27.6211 82.1884 27.5488 82.1845 27.5271C82.3309 27.5096 82.4674 27.524 82.6129 27.5271C83.3214 27.5416 83.5356 27.3433 83.6492 26.5215C83.708 26.0992 83.713 25.6666 83.7149 25.2391C83.7249 22.4473 83.7239 19.6554 83.7329 16.8646C83.7369 15.7402 83.7538 14.6158 83.7767 13.4915C83.7797 13.3366 83.7767 13.1762 83.7767 13.0289C83.8365 13.0289 84.0149 13.0289 84.0746 13.0289C87.9656 17.0308 91.8576 21.0317 95.7635 25.0491C95.7635 24.3233 95.7755 23.6222 95.7615 22.9233C95.7227 21.0524 95.6768 19.1836 95.626 17.3137C95.6011 16.3742 95.5672 15.4356 95.5244 14.4971C95.4945 13.8384 95.2354 13.5741 94.5898 13.509C94.2908 13.478 93.9899 13.4564 93.691 13.4305C93.692 13.4037 93.693 13.3769 93.695 13.35C95.1966 13.35 96.6992 13.35 98.2007 13.35C98.2027 13.3789 98.2037 13.4078 98.2057 13.4367C97.9457 13.4615 97.6856 13.4873 97.4265 13.5121C97.0778 13.5472 96.8974 13.7042 96.8466 14.0573ZM76.9752 27.7522C75.3282 27.7223 73.6811 27.6892 72.034 27.6717C71.217 27.6624 70.3999 27.6851 69.5819 27.6913C69.4792 27.6923 69.3776 27.6799 69.275 27.6737C69.274 27.6479 69.273 27.6211 69.272 27.5942C69.3607 27.5849 69.4493 27.5756 69.539 27.5674C70.1359 27.5034 70.4288 27.2525 70.5245 26.6474C70.5952 26.1962 70.643 25.7347 70.644 25.2784C70.654 21.8536 70.651 18.4288 70.646 15.0041C70.646 14.7718 70.6191 14.5343 70.5693 14.3071C70.4567 13.7919 70.1787 13.5648 69.6486 13.5121C69.4175 13.4894 69.1873 13.4564 68.9571 13.4285C68.9551 13.4016 68.9551 13.3758 68.9541 13.349C69.0926 13.3376 69.2301 13.3159 69.3686 13.317C71.3356 13.3283 73.3025 13.3531 75.2694 13.35C75.9509 13.349 76.6315 13.2839 77.311 13.2468C77.2283 13.9468 77.1347 14.7222 77.042 15.4966C77.0201 15.5017 76.9981 15.5059 76.9772 15.51C76.9493 15.4325 76.8995 15.3561 76.8975 15.2777C76.8786 14.5043 76.5667 14.2875 75.8413 14.2163C74.7124 14.1037 73.5735 14.1017 72.4097 14.0521C72.4097 15.9312 72.4097 17.7742 72.4097 19.6265C72.4266 19.6348 72.4525 19.6565 72.4794 19.6554C73.7259 19.6368 74.9734 19.6306 76.2199 19.5821C76.474 19.5728 76.7231 19.4087 76.9882 19.3106C76.9005 20.086 76.8078 20.912 76.7152 21.738C76.6922 21.739 76.6683 21.7411 76.6454 21.7421C76.6255 21.7039 76.5856 21.6636 76.5886 21.6264C76.6504 20.9409 76.2608 20.6032 75.5693 20.5289C74.53 20.4153 73.4808 20.406 72.3997 20.3503C72.3917 20.5103 72.3828 20.6187 72.3828 20.7261C72.3818 22.28 72.3808 23.8329 72.3838 25.3878C72.3848 25.5695 72.3937 25.7554 72.4246 25.935C72.5322 26.5566 72.7166 26.8095 73.3114 26.8684C74.0727 26.9438 74.8429 26.9365 75.6082 26.9283C75.9429 26.9241 76.2767 26.8374 76.6076 26.7724C77.1964 26.6547 77.5203 26.2788 77.605 25.6738C77.6219 25.5499 77.6677 25.4291 77.6996 25.3062C77.7255 25.3083 77.7524 25.3083 77.7773 25.3104C77.7933 25.3899 77.8311 25.4735 77.8192 25.5489C77.7295 26.1312 77.6279 26.7104 77.5332 27.2927C77.4804 27.62 77.2931 27.7584 76.9752 27.7522ZM66.5647 27.6913C65.9659 27.6934 65.3651 27.6634 64.7672 27.6985C63.5386 27.7677 62.5153 27.3186 61.6036 26.507C59.6815 24.7921 57.901 22.9294 56.1443 21.041C55.8852 20.7623 55.6291 20.4804 55.3332 20.1572C55.3252 20.2997 55.3163 20.3854 55.3173 20.4721C55.3322 22.1571 55.3372 23.8442 55.3701 25.5303C55.38 25.9743 55.4478 26.4255 55.5455 26.8591C55.6481 27.3155 55.9091 27.492 56.3635 27.5147C56.6226 27.5271 56.8816 27.5374 57.1407 27.5519C57.1656 27.554 57.1875 27.5839 57.2782 27.649C55.5753 27.649 53.9412 27.649 52.3081 27.649C52.3051 27.6242 52.3021 27.5984 52.2991 27.5736C52.4656 27.5581 52.6319 27.5385 52.7984 27.5271C53.2119 27.4992 53.3673 27.4197 53.45 26.9944C53.5666 26.3976 53.6732 25.7863 53.6772 25.1823C53.6981 21.8185 53.6901 18.4536 53.6822 15.0898C53.6812 14.7676 53.6343 14.4393 53.5696 14.1223C53.4938 13.7517 53.2388 13.5565 52.8731 13.5152C52.61 13.4853 52.347 13.4584 52.073 13.3614C52.1985 13.3407 52.3231 13.3025 52.4476 13.3036C53.7659 13.3036 55.0831 13.3077 56.4014 13.3159C56.513 13.3159 56.6256 13.3407 56.7362 13.4285C56.5299 13.4512 56.3226 13.4791 56.1154 13.4987C55.7726 13.5307 55.5474 13.7269 55.4867 14.0562C55.4119 14.4651 55.3601 14.8833 55.3531 15.2983C55.3292 16.8305 55.3272 18.3648 55.3183 19.8981C55.3173 19.9456 55.3242 19.992 55.3342 20.1149C55.7079 19.7556 56.0417 19.4427 56.3675 19.1206C57.7585 17.7412 59.1495 16.3618 60.5345 14.9741C60.7756 14.7325 61.0018 14.4692 61.2031 14.1905C61.504 13.7733 61.3774 13.5142 60.8703 13.4574C60.8075 13.4512 60.7447 13.4367 60.6829 13.4254C60.6839 13.3996 60.6859 13.3758 60.6869 13.35C62.042 13.35 63.3972 13.35 64.7523 13.35C64.7553 13.3727 64.7583 13.3944 64.7612 13.4171C64.7044 13.4305 64.6477 13.4564 64.5909 13.4553C63.9751 13.444 63.427 13.6432 62.9667 14.0511C61.7989 15.0887 60.6371 16.1336 59.4843 17.1898C58.7629 17.8517 58.0644 18.5383 57.3529 19.2104C57.2144 19.3415 57.06 19.4572 56.9046 19.5862C57.0072 19.7112 57.052 19.7773 57.1058 19.832C58.8336 21.5759 60.5484 23.3342 62.2961 25.0553C62.9269 25.6779 63.6273 26.2272 64.3159 26.7837C64.9247 27.2762 65.6122 27.5767 66.4133 27.523C66.5627 27.5137 66.7152 27.554 66.8657 27.5715C66.8657 27.6035 66.8647 27.6355 66.8637 27.6675C66.764 27.6758 66.6644 27.6903 66.5647 27.6913ZM40.2207 27.9453C40.0931 27.9639 39.9666 27.9824 39.84 28C39.7404 28 39.6408 28 39.5401 28C39.008 27.9391 38.472 27.8957 37.9429 27.8131C35.0085 27.3516 32.7506 25.1245 32.1039 22.1757C31.2331 18.211 33.7809 13.9612 38.0395 13.2127C38.4192 13.1445 38.7998 13.0898 39.1804 13.0289C39.6009 13.0289 40.0194 13.0289 40.4399 13.0289C40.968 13.1125 41.5031 13.1631 42.0232 13.2839C44.4973 13.8601 46.4124 15.1858 47.2653 17.7288C48.6084 21.7338 46.6077 26.4822 41.9574 27.6799C41.3924 27.8255 40.7996 27.8596 40.2207 27.9453ZM45.7737 20.755C45.6949 20.1097 45.6561 19.4551 45.5305 18.8191C45.1828 17.0639 44.3269 15.6308 42.8333 14.652C41.4861 13.7692 40.0074 13.5452 38.4471 13.8229C36.5439 14.1616 35.132 15.1724 34.3807 17.0308C33.739 18.6209 33.7161 20.2677 34.0609 21.929C34.3538 23.3404 34.9666 24.5866 36.0198 25.5654C37.4845 26.9272 39.2243 27.4383 41.1643 27.1317C42.6459 26.8973 43.8606 26.1622 44.6946 24.8499C45.4847 23.6068 45.7089 22.2119 45.7737 20.755ZM30.5844 27.6903C29.9048 27.6933 29.2253 27.6737 28.5467 27.6964C27.3779 27.7357 26.4214 27.2824 25.6751 26.3873C24.7933 25.331 23.9423 24.2479 23.0824 23.1731C22.7227 22.7219 22.381 22.2552 22.0193 21.8061C21.9515 21.7204 21.8319 21.6275 21.7353 21.6264C20.8883 21.612 20.0404 21.6182 19.1606 21.6182C19.1556 21.7276 19.1446 21.836 19.1456 21.9445C19.1685 23.3135 19.1835 24.6826 19.2253 26.0507C19.2343 26.3604 19.313 26.6763 19.4077 26.9727C19.5163 27.3113 19.7734 27.4972 20.1311 27.5137C20.3503 27.524 20.5695 27.5292 20.7897 27.5405C20.8814 27.5447 20.972 27.5612 21.0647 27.5715C21.0627 27.5984 21.0597 27.6262 21.0577 27.6541C19.4117 27.6541 17.7666 27.6541 16.1205 27.6541C16.1185 27.6273 16.1165 27.6015 16.1155 27.5756C16.277 27.5602 16.4384 27.5395 16.5998 27.5282C17.0163 27.5003 17.2086 27.3722 17.2913 26.952C17.385 26.474 17.4726 25.9846 17.4756 25.5003C17.5005 22.3513 17.5055 19.2022 17.5065 16.0531C17.5065 15.4924 17.4876 14.9287 17.4228 14.3732C17.3571 13.8146 17.0771 13.5751 16.539 13.5111C16.2979 13.4811 16.0567 13.4564 15.8086 13.3572C15.9352 13.3387 16.0617 13.3036 16.1883 13.3046C18.0157 13.3128 19.8431 13.3036 21.6685 13.3469C22.6639 13.3696 23.6354 13.5844 24.4615 14.2008C25.6791 15.1104 26.0697 16.5982 25.5386 18.1728C25.1829 19.2269 24.5033 20.0467 23.7301 20.8005C23.6364 20.8913 23.5398 20.9791 23.4451 21.0699C23.4312 21.0834 23.4252 21.104 23.3933 21.1608C23.9144 21.7989 24.4156 22.4473 24.9517 23.0637C25.8883 24.1395 26.8239 25.2164 27.8024 26.2499C28.3883 26.8694 29.0818 27.3599 29.9547 27.4848C30.131 27.5106 30.3124 27.5044 30.4907 27.5209C30.6233 27.5333 30.7558 27.5581 30.8883 27.5756C30.8883 27.6046 30.8873 27.6324 30.8873 27.6603C30.7857 27.6706 30.686 27.6903 30.5844 27.6903ZM23.7859 19.387C24.0808 18.5961 24.1436 17.7794 24.0161 16.9482C23.8277 15.7289 23.2937 14.7511 22.1328 14.239C21.246 13.8487 20.3234 13.9076 19.3977 14.0346C19.1755 14.0655 19.1446 14.2111 19.1456 14.4073C19.1506 15.3985 19.1476 16.3897 19.1476 17.3819C19.1476 18.3834 19.1556 19.3849 19.1416 20.3864C19.1376 20.6549 19.2343 20.7974 19.4804 20.8221C20.152 20.8892 20.8246 20.9822 21.4981 20.9987C22.6291 21.0245 23.3804 20.4742 23.7859 19.387ZM6.63968 27.7419C5.73295 27.7553 4.82522 27.6737 3.91749 27.6613C3.15025 27.651 2.38202 27.682 1.61379 27.6903C1.51315 27.6923 1.41251 27.6758 1.31188 27.6675C1.31287 27.6376 1.31287 27.6066 1.31387 27.5756C1.48326 27.5602 1.65265 27.5395 1.82303 27.5271C2.23156 27.4982 2.39896 27.3857 2.49362 26.9685C2.5823 26.5741 2.66799 26.1663 2.67198 25.7636C2.70486 22.5041 2.72479 19.2455 2.73375 15.986C2.73575 15.4367 2.70486 14.8812 2.62415 14.3391C2.54145 13.7837 2.28138 13.5741 1.74432 13.5111C1.49721 13.4811 1.24811 13.476 1 13.4584C1 13.4171 1 13.3769 1 13.3356C1.5271 13.3366 2.0552 13.3366 2.5823 13.3366C3.83977 13.3366 5.09724 13.3252 6.3547 13.3418C6.98742 13.35 7.59822 13.51 8.16917 13.794C9.61994 14.5126 10.147 16.0324 9.48443 17.5553C9.21241 18.1821 8.77897 18.688 8.31962 19.1712C8.19607 19.3023 8.05259 19.4118 7.93999 19.5109C8.5209 19.8351 9.08487 20.0963 9.59304 20.4453C10.5048 21.071 11.1544 21.9248 11.2959 23.0657C11.5061 24.7621 10.8047 26.0393 9.42265 26.9386C8.57869 27.4879 7.62812 27.7274 6.63968 27.7419ZM8.1313 16.2038C7.91409 14.9638 7.18073 14.1203 6.06076 13.9272C5.58946 13.8466 5.09026 13.9323 4.60401 13.9447C4.40174 13.9489 4.34495 14.0593 4.34694 14.2617C4.3569 15.0774 4.35093 15.8961 4.35093 16.7128H4.35192C4.35192 17.5306 4.3579 18.3473 4.34794 19.165C4.34594 19.3519 4.39676 19.4623 4.58209 19.4685C5.17994 19.4882 5.77778 19.5109 6.37563 19.516C7.12593 19.5222 7.58328 19.0793 7.9101 18.4402C8.27578 17.7236 8.26582 16.9679 8.1313 16.2038ZM9.43361 23.234C9.04401 21.6543 8.10639 20.5372 6.50317 20.1892C5.82163 20.0405 5.09923 20.0839 4.39576 20.0405C4.39576 21.9589 4.39078 23.7967 4.39776 25.6335C4.40075 26.5091 4.56615 26.7848 5.60042 26.9964C6.15841 27.11 6.75128 27.1152 7.32122 27.0697C8.47706 26.9799 9.37482 26.1725 9.53425 25.0192C9.61396 24.4369 9.5741 23.804 9.43361 23.234Z"/>
</mask>
<path fill-rule="evenodd" clip-rule="evenodd" d="M179.325 13.5049C178.822 13.5565 178.645 13.7372 178.627 14.2658C178.602 14.971 178.585 15.6752 178.582 16.3804C178.571 19.9383 178.567 23.4953 178.557 27.0532C178.556 27.236 178.522 27.4187 178.511 27.6015C178.494 27.8823 178.339 27.8709 178.169 27.7584C178.002 27.649 177.847 27.5168 177.7 27.3795C174.362 24.2521 171.17 20.9739 168.012 17.6586C167.528 17.1506 166.989 16.6953 166.531 16.2678C166.531 16.5507 166.522 16.9648 166.533 17.3778C166.568 18.7871 166.612 20.1964 166.651 21.6048C166.688 22.882 166.706 24.1591 166.767 25.4343C166.791 25.9185 166.886 26.4038 166.997 26.8767C167.094 27.301 167.392 27.5209 167.832 27.5147C168.106 27.5127 168.38 27.5147 168.655 27.5147C168.654 27.5581 168.653 27.6004 168.652 27.6428C167.095 27.6428 165.537 27.6428 163.981 27.6428C163.978 27.619 163.976 27.5953 163.974 27.5715C164.19 27.5519 164.405 27.5261 164.622 27.5147C165.054 27.493 165.266 27.3454 165.375 26.9149C165.444 26.6412 165.492 26.3542 165.497 26.0723C165.518 24.7033 165.525 23.3342 165.531 21.9641C165.543 19.2042 165.548 16.4444 165.569 13.6845C165.571 13.4657 165.681 13.2468 165.74 13.0289C165.78 13.0289 165.82 13.0289 165.86 13.0289C166.601 13.7847 167.345 14.5394 168.084 15.2973C169.864 17.1196 171.644 18.9389 173.419 20.7674C174.685 22.0725 175.94 23.3899 177.201 24.7002C177.317 24.821 177.439 24.9325 177.561 25.0502C177.561 24.5277 177.57 24.0321 177.559 23.5376C177.498 20.6156 177.435 17.6937 177.365 14.7728C177.361 14.5611 177.318 14.3474 177.265 14.143C177.158 13.7362 176.929 13.5534 176.519 13.5162C176.179 13.4863 175.839 13.4595 175.499 13.4305C175.501 13.4037 175.502 13.3758 175.503 13.349C177.001 13.349 178.496 13.349 179.993 13.349C179.995 13.3758 179.998 13.4037 180 13.4316C179.775 13.4564 179.551 13.4811 179.325 13.5049ZM159.656 13.476C159.14 13.5452 158.913 13.762 158.847 14.2896C158.803 14.6427 158.778 14.9999 158.775 15.3572C158.757 17.3602 158.748 19.3632 158.737 21.3673C158.731 22.4246 158.628 23.4684 158.283 24.4699C157.633 26.3656 156.23 27.3671 154.389 27.8049C153.908 27.9184 153.406 27.937 152.914 28C152.833 28 152.754 28 152.673 28C152.18 27.9381 151.683 27.905 151.197 27.809C148.802 27.3392 147.372 25.7678 147.052 23.3125C146.952 22.5474 146.934 21.7669 146.928 20.9925C146.91 19.101 146.926 17.2095 146.916 15.3179C146.914 14.9638 146.878 14.6035 146.806 14.2576C146.706 13.7806 146.447 13.571 145.979 13.5121C145.726 13.4791 145.471 13.4574 145.208 13.3634C145.323 13.3428 145.438 13.3025 145.552 13.3025C146.96 13.3036 148.368 13.3087 149.775 13.3159C149.882 13.3159 149.987 13.3366 150.093 13.3469C150.095 13.3748 150.098 13.4016 150.1 13.4295C149.996 13.4388 149.892 13.4522 149.789 13.4574C149.091 13.4904 148.843 13.7124 148.773 14.429C148.729 14.874 148.708 15.3241 148.708 15.7733C148.705 17.9714 148.689 20.1696 148.726 22.3678C148.744 23.4777 148.939 24.5711 149.598 25.4983C150.372 26.5886 151.433 27.1461 152.754 27.2091C153.801 27.2597 154.775 27.0491 155.651 26.443C156.647 25.7543 157.109 24.7301 157.281 23.5655C157.396 22.7818 157.45 21.9816 157.461 21.1887C157.487 19.4303 157.479 17.672 157.464 15.9127C157.46 15.3644 157.42 14.812 157.345 14.2689C157.28 13.8043 156.992 13.572 156.531 13.5131C156.271 13.4801 156.011 13.4553 155.752 13.4275C155.754 13.4006 155.755 13.3748 155.756 13.3469C157.222 13.3469 158.688 13.3469 160.154 13.3469C160.156 13.3769 160.157 13.4058 160.159 13.4347C159.992 13.4481 159.823 13.4543 159.656 13.476ZM137.445 18.911C138.373 19.6183 139.325 20.2904 140.115 21.1691C141.14 22.3069 141.489 23.6171 141.035 25.0966C140.566 26.6247 139.453 27.4445 137.97 27.779C137.536 27.8761 137.089 27.9091 136.647 27.9721C136.548 27.9721 136.447 27.9721 136.347 27.9721C135.875 27.9102 135.398 27.8761 134.932 27.778C134.536 27.6944 134.149 27.5519 133.771 27.4022C133.666 27.3619 133.534 27.2019 133.536 27.0986C133.551 26.3449 133.595 25.5912 133.636 24.8375C133.639 24.7662 133.684 24.6971 133.709 24.6269C133.735 24.6289 133.761 24.632 133.787 24.6341C133.798 24.758 133.829 24.8819 133.818 25.0037C133.743 25.9237 134.187 26.4791 134.986 26.8126C135.828 27.1627 136.7 27.3144 137.591 27.1513C139.811 26.7435 140.145 24.4978 139.312 23.0657C138.857 22.2862 138.154 21.7514 137.466 21.2062C136.576 20.499 135.655 19.8309 134.92 18.9368C133.926 17.7288 133.696 16.146 134.366 14.8905C134.926 13.8404 135.867 13.3552 136.965 13.127C137.197 13.0774 137.432 13.0423 137.666 13C138.025 13 138.385 13 138.745 13C139.391 13.1043 140.036 13.2199 140.685 13.3025C140.907 13.3304 140.955 13.3603 140.92 13.6112C140.853 14.1037 140.862 14.6066 140.834 15.1052C140.824 15.2839 140.801 15.4604 140.783 15.638C140.753 15.6432 140.724 15.6473 140.693 15.6514C140.664 15.5472 140.612 15.4429 140.611 15.3376C140.595 14.6799 140.283 14.2411 139.685 14.0191C138.785 13.6835 137.85 13.5803 136.926 13.8281C135.172 14.2999 135.081 16.2441 135.759 17.2776C136.201 17.9508 136.821 18.435 137.445 18.911ZM96.8466 14.0573C96.8088 14.3195 96.7839 14.5859 96.7829 14.8513C96.7749 18.3782 96.7739 21.9062 96.7649 25.4343C96.7629 26.1178 96.74 26.8023 96.7161 27.4858C96.7121 27.5973 96.6723 27.7636 96.6005 27.7987C96.5248 27.8348 96.3654 27.7729 96.2876 27.7016C95.5782 27.0573 94.8598 26.4224 94.1822 25.745C91.8765 23.4364 89.5808 21.1164 87.2911 18.7902C86.4551 17.9405 85.649 17.0608 84.8279 16.1956C84.802 16.1677 84.7721 16.1429 84.7333 16.1057C84.7333 16.6984 84.7213 17.2714 84.7353 17.8455C84.7731 19.3467 84.821 20.8479 84.8668 22.3492C84.9007 23.4725 84.9206 24.5969 84.9824 25.7192C85.0043 26.1302 85.1019 26.5432 85.2135 26.9417C85.3212 27.3227 85.6061 27.5168 86.0037 27.5147C86.2887 27.5127 86.5736 27.5147 86.8586 27.5147C86.8586 27.5571 86.8576 27.5994 86.8576 27.6428C85.2992 27.6428 83.7418 27.6428 82.1845 27.6428C82.1815 27.6211 82.1884 27.5488 82.1845 27.5271C82.3309 27.5096 82.4674 27.524 82.6129 27.5271C83.3214 27.5416 83.5356 27.3433 83.6492 26.5215C83.708 26.0992 83.713 25.6666 83.7149 25.2391C83.7249 22.4473 83.7239 19.6554 83.7329 16.8646C83.7369 15.7402 83.7538 14.6158 83.7767 13.4915C83.7797 13.3366 83.7767 13.1762 83.7767 13.0289C83.8365 13.0289 84.0149 13.0289 84.0746 13.0289C87.9656 17.0308 91.8576 21.0317 95.7635 25.0491C95.7635 24.3233 95.7755 23.6222 95.7615 22.9233C95.7227 21.0524 95.6768 19.1836 95.626 17.3137C95.6011 16.3742 95.5672 15.4356 95.5244 14.4971C95.4945 13.8384 95.2354 13.5741 94.5898 13.509C94.2908 13.478 93.9899 13.4564 93.691 13.4305C93.692 13.4037 93.693 13.3769 93.695 13.35C95.1966 13.35 96.6992 13.35 98.2007 13.35C98.2027 13.3789 98.2037 13.4078 98.2057 13.4367C97.9457 13.4615 97.6856 13.4873 97.4265 13.5121C97.0778 13.5472 96.8974 13.7042 96.8466 14.0573ZM76.9752 27.7522C75.3282 27.7223 73.6811 27.6892 72.034 27.6717C71.217 27.6624 70.3999 27.6851 69.5819 27.6913C69.4792 27.6923 69.3776 27.6799 69.275 27.6737C69.274 27.6479 69.273 27.6211 69.272 27.5942C69.3607 27.5849 69.4493 27.5756 69.539 27.5674C70.1359 27.5034 70.4288 27.2525 70.5245 26.6474C70.5952 26.1962 70.643 25.7347 70.644 25.2784C70.654 21.8536 70.651 18.4288 70.646 15.0041C70.646 14.7718 70.6191 14.5343 70.5693 14.3071C70.4567 13.7919 70.1787 13.5648 69.6486 13.5121C69.4175 13.4894 69.1873 13.4564 68.9571 13.4285C68.9551 13.4016 68.9551 13.3758 68.9541 13.349C69.0926 13.3376 69.2301 13.3159 69.3686 13.317C71.3356 13.3283 73.3025 13.3531 75.2694 13.35C75.9509 13.349 76.6315 13.2839 77.311 13.2468C77.2283 13.9468 77.1347 14.7222 77.042 15.4966C77.0201 15.5017 76.9981 15.5059 76.9772 15.51C76.9493 15.4325 76.8995 15.3561 76.8975 15.2777C76.8786 14.5043 76.5667 14.2875 75.8413 14.2163C74.7124 14.1037 73.5735 14.1017 72.4097 14.0521C72.4097 15.9312 72.4097 17.7742 72.4097 19.6265C72.4266 19.6348 72.4525 19.6565 72.4794 19.6554C73.7259 19.6368 74.9734 19.6306 76.2199 19.5821C76.474 19.5728 76.7231 19.4087 76.9882 19.3106C76.9005 20.086 76.8078 20.912 76.7152 21.738C76.6922 21.739 76.6683 21.7411 76.6454 21.7421C76.6255 21.7039 76.5856 21.6636 76.5886 21.6264C76.6504 20.9409 76.2608 20.6032 75.5693 20.5289C74.53 20.4153 73.4808 20.406 72.3997 20.3503C72.3917 20.5103 72.3828 20.6187 72.3828 20.7261C72.3818 22.28 72.3808 23.8329 72.3838 25.3878C72.3848 25.5695 72.3937 25.7554 72.4246 25.935C72.5322 26.5566 72.7166 26.8095 73.3114 26.8684C74.0727 26.9438 74.8429 26.9365 75.6082 26.9283C75.9429 26.9241 76.2767 26.8374 76.6076 26.7724C77.1964 26.6547 77.5203 26.2788 77.605 25.6738C77.6219 25.5499 77.6677 25.4291 77.6996 25.3062C77.7255 25.3083 77.7524 25.3083 77.7773 25.3104C77.7933 25.3899 77.8311 25.4735 77.8192 25.5489C77.7295 26.1312 77.6279 26.7104 77.5332 27.2927C77.4804 27.62 77.2931 27.7584 76.9752 27.7522ZM66.5647 27.6913C65.9659 27.6934 65.3651 27.6634 64.7672 27.6985C63.5386 27.7677 62.5153 27.3186 61.6036 26.507C59.6815 24.7921 57.901 22.9294 56.1443 21.041C55.8852 20.7623 55.6291 20.4804 55.3332 20.1572C55.3252 20.2997 55.3163 20.3854 55.3173 20.4721C55.3322 22.1571 55.3372 23.8442 55.3701 25.5303C55.38 25.9743 55.4478 26.4255 55.5455 26.8591C55.6481 27.3155 55.9091 27.492 56.3635 27.5147C56.6226 27.5271 56.8816 27.5374 57.1407 27.5519C57.1656 27.554 57.1875 27.5839 57.2782 27.649C55.5753 27.649 53.9412 27.649 52.3081 27.649C52.3051 27.6242 52.3021 27.5984 52.2991 27.5736C52.4656 27.5581 52.6319 27.5385 52.7984 27.5271C53.2119 27.4992 53.3673 27.4197 53.45 26.9944C53.5666 26.3976 53.6732 25.7863 53.6772 25.1823C53.6981 21.8185 53.6901 18.4536 53.6822 15.0898C53.6812 14.7676 53.6343 14.4393 53.5696 14.1223C53.4938 13.7517 53.2388 13.5565 52.8731 13.5152C52.61 13.4853 52.347 13.4584 52.073 13.3614C52.1985 13.3407 52.3231 13.3025 52.4476 13.3036C53.7659 13.3036 55.0831 13.3077 56.4014 13.3159C56.513 13.3159 56.6256 13.3407 56.7362 13.4285C56.5299 13.4512 56.3226 13.4791 56.1154 13.4987C55.7726 13.5307 55.5474 13.7269 55.4867 14.0562C55.4119 14.4651 55.3601 14.8833 55.3531 15.2983C55.3292 16.8305 55.3272 18.3648 55.3183 19.8981C55.3173 19.9456 55.3242 19.992 55.3342 20.1149C55.7079 19.7556 56.0417 19.4427 56.3675 19.1206C57.7585 17.7412 59.1495 16.3618 60.5345 14.9741C60.7756 14.7325 61.0018 14.4692 61.2031 14.1905C61.504 13.7733 61.3774 13.5142 60.8703 13.4574C60.8075 13.4512 60.7447 13.4367 60.6829 13.4254C60.6839 13.3996 60.6859 13.3758 60.6869 13.35C62.042 13.35 63.3972 13.35 64.7523 13.35C64.7553 13.3727 64.7583 13.3944 64.7612 13.4171C64.7044 13.4305 64.6477 13.4564 64.5909 13.4553C63.9751 13.444 63.427 13.6432 62.9667 14.0511C61.7989 15.0887 60.6371 16.1336 59.4843 17.1898C58.7629 17.8517 58.0644 18.5383 57.3529 19.2104C57.2144 19.3415 57.06 19.4572 56.9046 19.5862C57.0072 19.7112 57.052 19.7773 57.1058 19.832C58.8336 21.5759 60.5484 23.3342 62.2961 25.0553C62.9269 25.6779 63.6273 26.2272 64.3159 26.7837C64.9247 27.2762 65.6122 27.5767 66.4133 27.523C66.5627 27.5137 66.7152 27.554 66.8657 27.5715C66.8657 27.6035 66.8647 27.6355 66.8637 27.6675C66.764 27.6758 66.6644 27.6903 66.5647 27.6913ZM40.2207 27.9453C40.0931 27.9639 39.9666 27.9824 39.84 28C39.7404 28 39.6408 28 39.5401 28C39.008 27.9391 38.472 27.8957 37.9429 27.8131C35.0085 27.3516 32.7506 25.1245 32.1039 22.1757C31.2331 18.211 33.7809 13.9612 38.0395 13.2127C38.4192 13.1445 38.7998 13.0898 39.1804 13.0289C39.6009 13.0289 40.0194 13.0289 40.4399 13.0289C40.968 13.1125 41.5031 13.1631 42.0232 13.2839C44.4973 13.8601 46.4124 15.1858 47.2653 17.7288C48.6084 21.7338 46.6077 26.4822 41.9574 27.6799C41.3924 27.8255 40.7996 27.8596 40.2207 27.9453ZM45.7737 20.755C45.6949 20.1097 45.6561 19.4551 45.5305 18.8191C45.1828 17.0639 44.3269 15.6308 42.8333 14.652C41.4861 13.7692 40.0074 13.5452 38.4471 13.8229C36.5439 14.1616 35.132 15.1724 34.3807 17.0308C33.739 18.6209 33.7161 20.2677 34.0609 21.929C34.3538 23.3404 34.9666 24.5866 36.0198 25.5654C37.4845 26.9272 39.2243 27.4383 41.1643 27.1317C42.6459 26.8973 43.8606 26.1622 44.6946 24.8499C45.4847 23.6068 45.7089 22.2119 45.7737 20.755ZM30.5844 27.6903C29.9048 27.6933 29.2253 27.6737 28.5467 27.6964C27.3779 27.7357 26.4214 27.2824 25.6751 26.3873C24.7933 25.331 23.9423 24.2479 23.0824 23.1731C22.7227 22.7219 22.381 22.2552 22.0193 21.8061C21.9515 21.7204 21.8319 21.6275 21.7353 21.6264C20.8883 21.612 20.0404 21.6182 19.1606 21.6182C19.1556 21.7276 19.1446 21.836 19.1456 21.9445C19.1685 23.3135 19.1835 24.6826 19.2253 26.0507C19.2343 26.3604 19.313 26.6763 19.4077 26.9727C19.5163 27.3113 19.7734 27.4972 20.1311 27.5137C20.3503 27.524 20.5695 27.5292 20.7897 27.5405C20.8814 27.5447 20.972 27.5612 21.0647 27.5715C21.0627 27.5984 21.0597 27.6262 21.0577 27.6541C19.4117 27.6541 17.7666 27.6541 16.1205 27.6541C16.1185 27.6273 16.1165 27.6015 16.1155 27.5756C16.277 27.5602 16.4384 27.5395 16.5998 27.5282C17.0163 27.5003 17.2086 27.3722 17.2913 26.952C17.385 26.474 17.4726 25.9846 17.4756 25.5003C17.5005 22.3513 17.5055 19.2022 17.5065 16.0531C17.5065 15.4924 17.4876 14.9287 17.4228 14.3732C17.3571 13.8146 17.0771 13.5751 16.539 13.5111C16.2979 13.4811 16.0567 13.4564 15.8086 13.3572C15.9352 13.3387 16.0617 13.3036 16.1883 13.3046C18.0157 13.3128 19.8431 13.3036 21.6685 13.3469C22.6639 13.3696 23.6354 13.5844 24.4615 14.2008C25.6791 15.1104 26.0697 16.5982 25.5386 18.1728C25.1829 19.2269 24.5033 20.0467 23.7301 20.8005C23.6364 20.8913 23.5398 20.9791 23.4451 21.0699C23.4312 21.0834 23.4252 21.104 23.3933 21.1608C23.9144 21.7989 24.4156 22.4473 24.9517 23.0637C25.8883 24.1395 26.8239 25.2164 27.8024 26.2499C28.3883 26.8694 29.0818 27.3599 29.9547 27.4848C30.131 27.5106 30.3124 27.5044 30.4907 27.5209C30.6233 27.5333 30.7558 27.5581 30.8883 27.5756C30.8883 27.6046 30.8873 27.6324 30.8873 27.6603C30.7857 27.6706 30.686 27.6903 30.5844 27.6903ZM23.7859 19.387C24.0808 18.5961 24.1436 17.7794 24.0161 16.9482C23.8277 15.7289 23.2937 14.7511 22.1328 14.239C21.246 13.8487 20.3234 13.9076 19.3977 14.0346C19.1755 14.0655 19.1446 14.2111 19.1456 14.4073C19.1506 15.3985 19.1476 16.3897 19.1476 17.3819C19.1476 18.3834 19.1556 19.3849 19.1416 20.3864C19.1376 20.6549 19.2343 20.7974 19.4804 20.8221C20.152 20.8892 20.8246 20.9822 21.4981 20.9987C22.6291 21.0245 23.3804 20.4742 23.7859 19.387ZM6.63968 27.7419C5.73295 27.7553 4.82522 27.6737 3.91749 27.6613C3.15025 27.651 2.38202 27.682 1.61379 27.6903C1.51315 27.6923 1.41251 27.6758 1.31188 27.6675C1.31287 27.6376 1.31287 27.6066 1.31387 27.5756C1.48326 27.5602 1.65265 27.5395 1.82303 27.5271C2.23156 27.4982 2.39896 27.3857 2.49362 26.9685C2.5823 26.5741 2.66799 26.1663 2.67198 25.7636C2.70486 22.5041 2.72479 19.2455 2.73375 15.986C2.73575 15.4367 2.70486 14.8812 2.62415 14.3391C2.54145 13.7837 2.28138 13.5741 1.74432 13.5111C1.49721 13.4811 1.24811 13.476 1 13.4584C1 13.4171 1 13.3769 1 13.3356C1.5271 13.3366 2.0552 13.3366 2.5823 13.3366C3.83977 13.3366 5.09724 13.3252 6.3547 13.3418C6.98742 13.35 7.59822 13.51 8.16917 13.794C9.61994 14.5126 10.147 16.0324 9.48443 17.5553C9.21241 18.1821 8.77897 18.688 8.31962 19.1712C8.19607 19.3023 8.05259 19.4118 7.93999 19.5109C8.5209 19.8351 9.08487 20.0963 9.59304 20.4453C10.5048 21.071 11.1544 21.9248 11.2959 23.0657C11.5061 24.7621 10.8047 26.0393 9.42265 26.9386C8.57869 27.4879 7.62812 27.7274 6.63968 27.7419ZM8.1313 16.2038C7.91409 14.9638 7.18073 14.1203 6.06076 13.9272C5.58946 13.8466 5.09026 13.9323 4.60401 13.9447C4.40174 13.9489 4.34495 14.0593 4.34694 14.2617C4.3569 15.0774 4.35093 15.8961 4.35093 16.7128H4.35192C4.35192 17.5306 4.3579 18.3473 4.34794 19.165C4.34594 19.3519 4.39676 19.4623 4.58209 19.4685C5.17994 19.4882 5.77778 19.5109 6.37563 19.516C7.12593 19.5222 7.58328 19.0793 7.9101 18.4402C8.27578 17.7236 8.26582 16.9679 8.1313 16.2038ZM9.43361 23.234C9.04401 21.6543 8.10639 20.5372 6.50317 20.1892C5.82163 20.0405 5.09923 20.0839 4.39576 20.0405C4.39576 21.9589 4.39078 23.7967 4.39776 25.6335C4.40075 26.5091 4.56615 26.7848 5.60042 26.9964C6.15841 27.11 6.75128 27.1152 7.32122 27.0697C8.47706 26.9799 9.37482 26.1725 9.53425 25.0192C9.61396 24.4369 9.5741 23.804 9.43361 23.234Z" fill="#3A5E78"/>
<path fill-rule="evenodd" clip-rule="evenodd" d="M179.325 13.5049C178.822 13.5565 178.645 13.7372 178.627 14.2658C178.602 14.971 178.585 15.6752 178.582 16.3804C178.571 19.9383 178.567 23.4953 178.557 27.0532C178.556 27.236 178.522 27.4187 178.511 27.6015C178.494 27.8823 178.339 27.8709 178.169 27.7584C178.002 27.649 177.847 27.5168 177.7 27.3795C174.362 24.2521 171.17 20.9739 168.012 17.6586C167.528 17.1506 166.989 16.6953 166.531 16.2678C166.531 16.5507 166.522 16.9648 166.533 17.3778C166.568 18.7871 166.612 20.1964 166.651 21.6048C166.688 22.882 166.706 24.1591 166.767 25.4343C166.791 25.9185 166.886 26.4038 166.997 26.8767C167.094 27.301 167.392 27.5209 167.832 27.5147C168.106 27.5127 168.38 27.5147 168.655 27.5147C168.654 27.5581 168.653 27.6004 168.652 27.6428C167.095 27.6428 165.537 27.6428 163.981 27.6428C163.978 27.619 163.976 27.5953 163.974 27.5715C164.19 27.5519 164.405 27.5261 164.622 27.5147C165.054 27.493 165.266 27.3454 165.375 26.9149C165.444 26.6412 165.492 26.3542 165.497 26.0723C165.518 24.7033 165.525 23.3342 165.531 21.9641C165.543 19.2042 165.548 16.4444 165.569 13.6845C165.571 13.4657 165.681 13.2468 165.74 13.0289C165.78 13.0289 165.82 13.0289 165.86 13.0289C166.601 13.7847 167.345 14.5394 168.084 15.2973C169.864 17.1196 171.644 18.9389 173.419 20.7674C174.685 22.0725 175.94 23.3899 177.201 24.7002C177.317 24.821 177.439 24.9325 177.561 25.0502C177.561 24.5277 177.57 24.0321 177.559 23.5376C177.498 20.6156 177.435 17.6937 177.365 14.7728C177.361 14.5611 177.318 14.3474 177.265 14.143C177.158 13.7362 176.929 13.5534 176.519 13.5162C176.179 13.4863 175.839 13.4595 175.499 13.4305C175.501 13.4037 175.502 13.3758 175.503 13.349C177.001 13.349 178.496 13.349 179.993 13.349C179.995 13.3758 179.998 13.4037 180 13.4316C179.775 13.4564 179.551 13.4811 179.325 13.5049ZM159.656 13.476C159.14 13.5452 158.913 13.762 158.847 14.2896C158.803 14.6427 158.778 14.9999 158.775 15.3572C158.757 17.3602 158.748 19.3632 158.737 21.3673C158.731 22.4246 158.628 23.4684 158.283 24.4699C157.633 26.3656 156.23 27.3671 154.389 27.8049C153.908 27.9184 153.406 27.937 152.914 28C152.833 28 152.754 28 152.673 28C152.18 27.9381 151.683 27.905 151.197 27.809C148.802 27.3392 147.372 25.7678 147.052 23.3125C146.952 22.5474 146.934 21.7669 146.928 20.9925C146.91 19.101 146.926 17.2095 146.916 15.3179C146.914 14.9638 146.878 14.6035 146.806 14.2576C146.706 13.7806 146.447 13.571 145.979 13.5121C145.726 13.4791 145.471 13.4574 145.208 13.3634C145.323 13.3428 145.438 13.3025 145.552 13.3025C146.96 13.3036 148.368 13.3087 149.775 13.3159C149.882 13.3159 149.987 13.3366 150.093 13.3469C150.095 13.3748 150.098 13.4016 150.1 13.4295C149.996 13.4388 149.892 13.4522 149.789 13.4574C149.091 13.4904 148.843 13.7124 148.773 14.429C148.729 14.874 148.708 15.3241 148.708 15.7733C148.705 17.9714 148.689 20.1696 148.726 22.3678C148.744 23.4777 148.939 24.5711 149.598 25.4983C150.372 26.5886 151.433 27.1461 152.754 27.2091C153.801 27.2597 154.775 27.0491 155.651 26.443C156.647 25.7543 157.109 24.7301 157.281 23.5655C157.396 22.7818 157.45 21.9816 157.461 21.1887C157.487 19.4303 157.479 17.672 157.464 15.9127C157.46 15.3644 157.42 14.812 157.345 14.2689C157.28 13.8043 156.992 13.572 156.531 13.5131C156.271 13.4801 156.011 13.4553 155.752 13.4275C155.754 13.4006 155.755 13.3748 155.756 13.3469C157.222 13.3469 158.688 13.3469 160.154 13.3469C160.156 13.3769 160.157 13.4058 160.159 13.4347C159.992 13.4481 159.823 13.4543 159.656 13.476ZM137.445 18.911C138.373 19.6183 139.325 20.2904 140.115 21.1691C141.14 22.3069 141.489 23.6171 141.035 25.0966C140.566 26.6247 139.453 27.4445 137.97 27.779C137.536 27.8761 137.089 27.9091 136.647 27.9721C136.548 27.9721 136.447 27.9721 136.347 27.9721C135.875 27.9102 135.398 27.8761 134.932 27.778C134.536 27.6944 134.149 27.5519 133.771 27.4022C133.666 27.3619 133.534 27.2019 133.536 27.0986C133.551 26.3449 133.595 25.5912 133.636 24.8375C133.639 24.7662 133.684 24.6971 133.709 24.6269C133.735 24.6289 133.761 24.632 133.787 24.6341C133.798 24.758 133.829 24.8819 133.818 25.0037C133.743 25.9237 134.187 26.4791 134.986 26.8126C135.828 27.1627 136.7 27.3144 137.591 27.1513C139.811 26.7435 140.145 24.4978 139.312 23.0657C138.857 22.2862 138.154 21.7514 137.466 21.2062C136.576 20.499 135.655 19.8309 134.92 18.9368C133.926 17.7288 133.696 16.146 134.366 14.8905C134.926 13.8404 135.867 13.3552 136.965 13.127C137.197 13.0774 137.432 13.0423 137.666 13C138.025 13 138.385 13 138.745 13C139.391 13.1043 140.036 13.2199 140.685 13.3025C140.907 13.3304 140.955 13.3603 140.92 13.6112C140.853 14.1037 140.862 14.6066 140.834 15.1052C140.824 15.2839 140.801 15.4604 140.783 15.638C140.753 15.6432 140.724 15.6473 140.693 15.6514C140.664 15.5472 140.612 15.4429 140.611 15.3376C140.595 14.6799 140.283 14.2411 139.685 14.0191C138.785 13.6835 137.85 13.5803 136.926 13.8281C135.172 14.2999 135.081 16.2441 135.759 17.2776C136.201 17.9508 136.821 18.435 137.445 18.911ZM96.8466 14.0573C96.8088 14.3195 96.7839 14.5859 96.7829 14.8513C96.7749 18.3782 96.7739 21.9062 96.7649 25.4343C96.7629 26.1178 96.74 26.8023 96.7161 27.4858C96.7121 27.5973 96.6723 27.7636 96.6005 27.7987C96.5248 27.8348 96.3654 27.7729 96.2876 27.7016C95.5782 27.0573 94.8598 26.4224 94.1822 25.745C91.8765 23.4364 89.5808 21.1164 87.2911 18.7902C86.4551 17.9405 85.649 17.0608 84.8279 16.1956C84.802 16.1677 84.7721 16.1429 84.7333 16.1057C84.7333 16.6984 84.7213 17.2714 84.7353 17.8455C84.7731 19.3467 84.821 20.8479 84.8668 22.3492C84.9007 23.4725 84.9206 24.5969 84.9824 25.7192C85.0043 26.1302 85.1019 26.5432 85.2135 26.9417C85.3212 27.3227 85.6061 27.5168 86.0037 27.5147C86.2887 27.5127 86.5736 27.5147 86.8586 27.5147C86.8586 27.5571 86.8576 27.5994 86.8576 27.6428C85.2992 27.6428 83.7418 27.6428 82.1845 27.6428C82.1815 27.6211 82.1884 27.5488 82.1845 27.5271C82.3309 27.5096 82.4674 27.524 82.6129 27.5271C83.3214 27.5416 83.5356 27.3433 83.6492 26.5215C83.708 26.0992 83.713 25.6666 83.7149 25.2391C83.7249 22.4473 83.7239 19.6554 83.7329 16.8646C83.7369 15.7402 83.7538 14.6158 83.7767 13.4915C83.7797 13.3366 83.7767 13.1762 83.7767 13.0289C83.8365 13.0289 84.0149 13.0289 84.0746 13.0289C87.9656 17.0308 91.8576 21.0317 95.7635 25.0491C95.7635 24.3233 95.7755 23.6222 95.7615 22.9233C95.7227 21.0524 95.6768 19.1836 95.626 17.3137C95.6011 16.3742 95.5672 15.4356 95.5244 14.4971C95.4945 13.8384 95.2354 13.5741 94.5898 13.509C94.2908 13.478 93.9899 13.4564 93.691 13.4305C93.692 13.4037 93.693 13.3769 93.695 13.35C95.1966 13.35 96.6992 13.35 98.2007 13.35C98.2027 13.3789 98.2037 13.4078 98.2057 13.4367C97.9457 13.4615 97.6856 13.4873 97.4265 13.5121C97.0778 13.5472 96.8974 13.7042 96.8466 14.0573ZM76.9752 27.7522C75.3282 27.7223 73.6811 27.6892 72.034 27.6717C71.217 27.6624 70.3999 27.6851 69.5819 27.6913C69.4792 27.6923 69.3776 27.6799 69.275 27.6737C69.274 27.6479 69.273 27.6211 69.272 27.5942C69.3607 27.5849 69.4493 27.5756 69.539 27.5674C70.1359 27.5034 70.4288 27.2525 70.5245 26.6474C70.5952 26.1962 70.643 25.7347 70.644 25.2784C70.654 21.8536 70.651 18.4288 70.646 15.0041C70.646 14.7718 70.6191 14.5343 70.5693 14.3071C70.4567 13.7919 70.1787 13.5648 69.6486 13.5121C69.4175 13.4894 69.1873 13.4564 68.9571 13.4285C68.9551 13.4016 68.9551 13.3758 68.9541 13.349C69.0926 13.3376 69.2301 13.3159 69.3686 13.317C71.3356 13.3283 73.3025 13.3531 75.2694 13.35C75.9509 13.349 76.6315 13.2839 77.311 13.2468C77.2283 13.9468 77.1347 14.7222 77.042 15.4966C77.0201 15.5017 76.9981 15.5059 76.9772 15.51C76.9493 15.4325 76.8995 15.3561 76.8975 15.2777C76.8786 14.5043 76.5667 14.2875 75.8413 14.2163C74.7124 14.1037 73.5735 14.1017 72.4097 14.0521C72.4097 15.9312 72.4097 17.7742 72.4097 19.6265C72.4266 19.6348 72.4525 19.6565 72.4794 19.6554C73.7259 19.6368 74.9734 19.6306 76.2199 19.5821C76.474 19.5728 76.7231 19.4087 76.9882 19.3106C76.9005 20.086 76.8078 20.912 76.7152 21.738C76.6922 21.739 76.6683 21.7411 76.6454 21.7421C76.6255 21.7039 76.5856 21.6636 76.5886 21.6264C76.6504 20.9409 76.2608 20.6032 75.5693 20.5289C74.53 20.4153 73.4808 20.406 72.3997 20.3503C72.3917 20.5103 72.3828 20.6187 72.3828 20.7261C72.3818 22.28 72.3808 23.8329 72.3838 25.3878C72.3848 25.5695 72.3937 25.7554 72.4246 25.935C72.5322 26.5566 72.7166 26.8095 73.3114 26.8684C74.0727 26.9438 74.8429 26.9365 75.6082 26.9283C75.9429 26.9241 76.2767 26.8374 76.6076 26.7724C77.1964 26.6547 77.5203 26.2788 77.605 25.6738C77.6219 25.5499 77.6677 25.4291 77.6996 25.3062C77.7255 25.3083 77.7524 25.3083 77.7773 25.3104C77.7933 25.3899 77.8311 25.4735 77.8192 25.5489C77.7295 26.1312 77.6279 26.7104 77.5332 27.2927C77.4804 27.62 77.2931 27.7584 76.9752 27.7522ZM66.5647 27.6913C65.9659 27.6934 65.3651 27.6634 64.7672 27.6985C63.5386 27.7677 62.5153 27.3186 61.6036 26.507C59.6815 24.7921 57.901 22.9294 56.1443 21.041C55.8852 20.7623 55.6291 20.4804 55.3332 20.1572C55.3252 20.2997 55.3163 20.3854 55.3173 20.4721C55.3322 22.1571 55.3372 23.8442 55.3701 25.5303C55.38 25.9743 55.4478 26.4255 55.5455 26.8591C55.6481 27.3155 55.9091 27.492 56.3635 27.5147C56.6226 27.5271 56.8816 27.5374 57.1407 27.5519C57.1656 27.554 57.1875 27.5839 57.2782 27.649C55.5753 27.649 53.9412 27.649 52.3081 27.649C52.3051 27.6242 52.3021 27.5984 52.2991 27.5736C52.4656 27.5581 52.6319 27.5385 52.7984 27.5271C53.2119 27.4992 53.3673 27.4197 53.45 26.9944C53.5666 26.3976 53.6732 25.7863 53.6772 25.1823C53.6981 21.8185 53.6901 18.4536 53.6822 15.0898C53.6812 14.7676 53.6343 14.4393 53.5696 14.1223C53.4938 13.7517 53.2388 13.5565 52.8731 13.5152C52.61 13.4853 52.347 13.4584 52.073 13.3614C52.1985 13.3407 52.3231 13.3025 52.4476 13.3036C53.7659 13.3036 55.0831 13.3077 56.4014 13.3159C56.513 13.3159 56.6256 13.3407 56.7362 13.4285C56.5299 13.4512 56.3226 13.4791 56.1154 13.4987C55.7726 13.5307 55.5474 13.7269 55.4867 14.0562C55.4119 14.4651 55.3601 14.8833 55.3531 15.2983C55.3292 16.8305 55.3272 18.3648 55.3183 19.8981C55.3173 19.9456 55.3242 19.992 55.3342 20.1149C55.7079 19.7556 56.0417 19.4427 56.3675 19.1206C57.7585 17.7412 59.1495 16.3618 60.5345 14.9741C60.7756 14.7325 61.0018 14.4692 61.2031 14.1905C61.504 13.7733 61.3774 13.5142 60.8703 13.4574C60.8075 13.4512 60.7447 13.4367 60.6829 13.4254C60.6839 13.3996 60.6859 13.3758 60.6869 13.35C62.042 13.35 63.3972 13.35 64.7523 13.35C64.7553 13.3727 64.7583 13.3944 64.7612 13.4171C64.7044 13.4305 64.6477 13.4564 64.5909 13.4553C63.9751 13.444 63.427 13.6432 62.9667 14.0511C61.7989 15.0887 60.6371 16.1336 59.4843 17.1898C58.7629 17.8517 58.0644 18.5383 57.3529 19.2104C57.2144 19.3415 57.06 19.4572 56.9046 19.5862C57.0072 19.7112 57.052 19.7773 57.1058 19.832C58.8336 21.5759 60.5484 23.3342 62.2961 25.0553C62.9269 25.6779 63.6273 26.2272 64.3159 26.7837C64.9247 27.2762 65.6122 27.5767 66.4133 27.523C66.5627 27.5137 66.7152 27.554 66.8657 27.5715C66.8657 27.6035 66.8647 27.6355 66.8637 27.6675C66.764 27.6758 66.6644 27.6903 66.5647 27.6913ZM40.2207 27.9453C40.0931 27.9639 39.9666 27.9824 39.84 28C39.7404 28 39.6408 28 39.5401 28C39.008 27.9391 38.472 27.8957 37.9429 27.8131C35.0085 27.3516 32.7506 25.1245 32.1039 22.1757C31.2331 18.211 33.7809 13.9612 38.0395 13.2127C38.4192 13.1445 38.7998 13.0898 39.1804 13.0289C39.6009 13.0289 40.0194 13.0289 40.4399 13.0289C40.968 13.1125 41.5031 13.1631 42.0232 13.2839C44.4973 13.8601 46.4124 15.1858 47.2653 17.7288C48.6084 21.7338 46.6077 26.4822 41.9574 27.6799C41.3924 27.8255 40.7996 27.8596 40.2207 27.9453ZM45.7737 20.755C45.6949 20.1097 45.6561 19.4551 45.5305 18.8191C45.1828 17.0639 44.3269 15.6308 42.8333 14.652C41.4861 13.7692 40.0074 13.5452 38.4471 13.8229C36.5439 14.1616 35.132 15.1724 34.3807 17.0308C33.739 18.6209 33.7161 20.2677 34.0609 21.929C34.3538 23.3404 34.9666 24.5866 36.0198 25.5654C37.4845 26.9272 39.2243 27.4383 41.1643 27.1317C42.6459 26.8973 43.8606 26.1622 44.6946 24.8499C45.4847 23.6068 45.7089 22.2119 45.7737 20.755ZM30.5844 27.6903C29.9048 27.6933 29.2253 27.6737 28.5467 27.6964C27.3779 27.7357 26.4214 27.2824 25.6751 26.3873C24.7933 25.331 23.9423 24.2479 23.0824 23.1731C22.7227 22.7219 22.381 22.2552 22.0193 21.8061C21.9515 21.7204 21.8319 21.6275 21.7353 21.6264C20.8883 21.612 20.0404 21.6182 19.1606 21.6182C19.1556 21.7276 19.1446 21.836 19.1456 21.9445C19.1685 23.3135 19.1835 24.6826 19.2253 26.0507C19.2343 26.3604 19.313 26.6763 19.4077 26.9727C19.5163 27.3113 19.7734 27.4972 20.1311 27.5137C20.3503 27.524 20.5695 27.5292 20.7897 27.5405C20.8814 27.5447 20.972 27.5612 21.0647 27.5715C21.0627 27.5984 21.0597 27.6262 21.0577 27.6541C19.4117 27.6541 17.7666 27.6541 16.1205 27.6541C16.1185 27.6273 16.1165 27.6015 16.1155 27.5756C16.277 27.5602 16.4384 27.5395 16.5998 27.5282C17.0163 27.5003 17.2086 27.3722 17.2913 26.952C17.385 26.474 17.4726 25.9846 17.4756 25.5003C17.5005 22.3513 17.5055 19.2022 17.5065 16.0531C17.5065 15.4924 17.4876 14.9287 17.4228 14.3732C17.3571 13.8146 17.0771 13.5751 16.539 13.5111C16.2979 13.4811 16.0567 13.4564 15.8086 13.3572C15.9352 13.3387 16.0617 13.3036 16.1883 13.3046C18.0157 13.3128 19.8431 13.3036 21.6685 13.3469C22.6639 13.3696 23.6354 13.5844 24.4615 14.2008C25.6791 15.1104 26.0697 16.5982 25.5386 18.1728C25.1829 19.2269 24.5033 20.0467 23.7301 20.8005C23.6364 20.8913 23.5398 20.9791 23.4451 21.0699C23.4312 21.0834 23.4252 21.104 23.3933 21.1608C23.9144 21.7989 24.4156 22.4473 24.9517 23.0637C25.8883 24.1395 26.8239 25.2164 27.8024 26.2499C28.3883 26.8694 29.0818 27.3599 29.9547 27.4848C30.131 27.5106 30.3124 27.5044 30.4907 27.5209C30.6233 27.5333 30.7558 27.5581 30.8883 27.5756C30.8883 27.6046 30.8873 27.6324 30.8873 27.6603C30.7857 27.6706 30.686 27.6903 30.5844 27.6903ZM23.7859 19.387C24.0808 18.5961 24.1436 17.7794 24.0161 16.9482C23.8277 15.7289 23.2937 14.7511 22.1328 14.239C21.246 13.8487 20.3234 13.9076 19.3977 14.0346C19.1755 14.0655 19.1446 14.2111 19.1456 14.4073C19.1506 15.3985 19.1476 16.3897 19.1476 17.3819C19.1476 18.3834 19.1556 19.3849 19.1416 20.3864C19.1376 20.6549 19.2343 20.7974 19.4804 20.8221C20.152 20.8892 20.8246 20.9822 21.4981 20.9987C22.6291 21.0245 23.3804 20.4742 23.7859 19.387ZM6.63968 27.7419C5.73295 27.7553 4.82522 27.6737 3.91749 27.6613C3.15025 27.651 2.38202 27.682 1.61379 27.6903C1.51315 27.6923 1.41251 27.6758 1.31188 27.6675C1.31287 27.6376 1.31287 27.6066 1.31387 27.5756C1.48326 27.5602 1.65265 27.5395 1.82303 27.5271C2.23156 27.4982 2.39896 27.3857 2.49362 26.9685C2.5823 26.5741 2.66799 26.1663 2.67198 25.7636C2.70486 22.5041 2.72479 19.2455 2.73375 15.986C2.73575 15.4367 2.70486 14.8812 2.62415 14.3391C2.54145 13.7837 2.28138 13.5741 1.74432 13.5111C1.49721 13.4811 1.24811 13.476 1 13.4584C1 13.4171 1 13.3769 1 13.3356C1.5271 13.3366 2.0552 13.3366 2.5823 13.3366C3.83977 13.3366 5.09724 13.3252 6.3547 13.3418C6.98742 13.35 7.59822 13.51 8.16917 13.794C9.61994 14.5126 10.147 16.0324 9.48443 17.5553C9.21241 18.1821 8.77897 18.688 8.31962 19.1712C8.19607 19.3023 8.05259 19.4118 7.93999 19.5109C8.5209 19.8351 9.08487 20.0963 9.59304 20.4453C10.5048 21.071 11.1544 21.9248 11.2959 23.0657C11.5061 24.7621 10.8047 26.0393 9.42265 26.9386C8.57869 27.4879 7.62812 27.7274 6.63968 27.7419ZM8.1313 16.2038C7.91409 14.9638 7.18073 14.1203 6.06076 13.9272C5.58946 13.8466 5.09026 13.9323 4.60401 13.9447C4.40174 13.9489 4.34495 14.0593 4.34694 14.2617C4.3569 15.0774 4.35093 15.8961 4.35093 16.7128H4.35192C4.35192 17.5306 4.3579 18.3473 4.34794 19.165C4.34594 19.3519 4.39676 19.4623 4.58209 19.4685C5.17994 19.4882 5.77778 19.5109 6.37563 19.516C7.12593 19.5222 7.58328 19.0793 7.9101 18.4402C8.27578 17.7236 8.26582 16.9679 8.1313 16.2038ZM9.43361 23.234C9.04401 21.6543 8.10639 20.5372 6.50317 20.1892C5.82163 20.0405 5.09923 20.0839 4.39576 20.0405C4.39576 21.9589 4.39078 23.7967 4.39776 25.6335C4.40075 26.5091 4.56615 26.7848 5.60042 26.9964C6.15841 27.11 6.75128 27.1152 7.32122 27.0697C8.47706 26.9799 9.37482 26.1725 9.53425 25.0192C9.61396 24.4369 9.5741 23.804 9.43361 23.234Z" stroke="#1E2533" mask="url(#path-1-outside-1_1473_754)"/>
</g>
<g id="Vector_2" filter="url(#filter0_d_1473_754)">
<path fill-rule="evenodd" clip-rule="evenodd" d="M130.937 15.6928C130.394 15.8887 129.129 16.1607 128.223 16.1378C127.315 16.1159 125.366 16.242 124.549 16.3921C123.731 16.5421 122.472 17.2633 122.396 17.4092C122.321 17.5551 122.458 18.3211 122.496 18.4263C122.534 18.5305 123.082 18.8067 123.389 19.0933C123.698 19.3799 124.434 20.4595 124.681 21.0317C124.927 21.6038 125.541 21.9529 125.509 22.0165C125.475 22.0811 125.394 22.0624 125.112 21.8894C124.828 21.7174 124.15 21.1265 123.82 20.9358C123.489 20.7461 123.035 20.4773 122.926 20.4919C122.818 20.5054 122.992 20.9473 123.059 21.2537C123.033 21.138 123.144 22.252 123.324 22.7794C123.551 23.4463 124.879 24.0549 125.839 26.1475C126.326 27.2084 126.317 28.262 127.196 30.215C127.522 30.9362 128.593 32.3608 128.554 32.4077C128.514 32.4546 128.256 32.1826 127.693 31.7084C127.13 31.2342 125.992 29.9712 125.509 29.0395C125.025 28.1068 123.913 26.5842 123.191 26.1475C122.469 25.7119 121.973 25.4649 121.868 25.4806C121.76 25.4952 121.695 25.5931 121.469 25.7661C121.245 25.9402 121.039 26.0204 121.039 26.0204C121.039 26.0204 121.026 26.0631 120.973 26.6561C120.92 27.2491 120.676 27.964 120.08 28.7529C119.483 29.5439 119.384 30.3401 119.318 30.3745C119.252 30.4078 119.252 30.512 119.22 30.1514C119.185 29.7909 119.299 29.4699 119.384 28.8488C119.47 28.2277 119.432 27.4419 119.318 27.4502C119.206 27.4596 119.093 27.7024 118.722 27.9911C118.352 28.2787 118.133 28.2495 117.564 28.9759C117.093 29.5762 117.042 30.9247 116.008 32.4077C115.206 33.5592 114.307 33.8229 112.764 35.8717C111.915 36.9993 111.566 38.0165 111.506 37.9998C111.446 37.9842 111.646 37.4006 111.804 36.6023C111.962 35.804 112.427 35.0672 112.863 34.1553C113.28 33.2872 113.983 32.2649 114.287 31.2321C114.479 30.5787 114.473 29.2281 114.353 29.1031C114.233 28.978 113.533 28.681 113.426 28.6893C113.319 28.6977 113.089 28.8206 112.333 29.0707C111.579 29.3219 110.388 29.1895 109.884 29.1979C109.381 29.2062 108.706 29.4501 108.626 29.3886C108.547 29.3282 108.939 29.1135 109.851 28.8165C110.764 28.5205 111.288 28.0651 111.308 27.9911C111.326 27.9171 111.136 27.9067 110.844 27.8316C110.552 27.7577 109.991 27.4481 109.288 27.2595C108.585 27.0719 107.819 27.4679 106.209 27.6732C104.601 27.8785 102.457 26.8187 100.45 26.6884C99.0555 26.5967 97.982 26.8124 98.0002 26.6884C98.0195 26.5634 99.5971 26.209 100.384 26.0527C101.17 25.8953 103.762 25.8526 105.018 25.7349C106.276 25.6161 107.303 24.7031 107.368 24.6229C107.434 24.5427 107.33 24.4551 107.302 24.1779C107.275 23.8997 107.236 23.637 107.236 23.637C107.236 23.637 106.952 23.5589 106.242 22.8742C105.534 22.1905 105.204 21.3475 104.952 20.9045C104.7 20.4616 104.224 20.0469 104.224 20.0469C104.224 20.0469 104.411 20.0687 104.687 20.2376C104.985 20.4189 105.38 20.7534 105.548 20.9358C105.871 21.2881 106.767 21.608 106.839 21.5715C106.911 21.5361 106.786 21.3662 106.707 20.9681C106.627 20.57 106.9 20.6544 106.408 19.4424C106.145 18.7911 104.713 17.6604 104.025 16.2014C103.256 14.5704 103.483 13.8857 102.767 12.2298C102.266 11.0709 101.046 9.64735 101.113 9.59212C101.177 9.53689 102.43 10.7281 102.867 11.2126C103.302 11.6983 105.288 14.7893 105.879 15.376C106.469 15.9617 107.787 16.6193 107.865 16.6151C107.942 16.6099 108.123 16.4411 108.262 16.3285C108.402 16.216 108.726 16.0107 108.726 16.0107C108.726 16.0107 108.705 15.2697 108.991 14.5496C109.275 13.8284 109.805 13.2479 110.116 12.6112C110.375 12.0797 110.47 11.3669 110.513 11.9119C110.538 12.2162 110.359 12.8269 110.315 13.373C110.27 13.9191 110.215 14.363 110.348 14.5808C110.38 14.634 110.384 14.6788 110.381 14.7111C110.403 14.6673 110.448 14.5954 110.579 14.4547C110.987 14.015 111.971 13.7805 112.333 12.8644C112.697 11.9494 112.897 11.2814 113.526 10.0694C114.154 8.85637 115.325 8.12479 116.239 7.20875C117.155 6.29271 118.292 4 118.292 4C118.292 4 118.191 4.67739 117.964 5.43815C117.784 6.04364 117.5 6.70122 117.3 7.11287C116.846 8.04454 115.511 10.4456 115.379 11.0855C115.247 11.7264 115.288 12.8467 115.346 12.9926C115.375 13.0656 115.597 13.1104 115.825 13.1979C116.051 13.2844 116.282 13.4147 116.339 13.4053C116.453 13.3876 116.892 13.0333 117.895 12.8967C118.897 12.7613 119.138 12.8967 119.848 12.8967C120.454 12.8978 121.067 12.6008 121.105 12.6425C121.185 12.7279 121.119 12.7248 120.874 12.8967C120.628 13.0697 119.947 13.2323 119.418 13.4689C118.889 13.7054 118.433 13.9952 118.424 14.0723C118.406 14.2317 119.129 14.2182 119.815 14.6131C120.293 14.8883 120.382 14.8091 120.874 14.8351C121.66 14.8768 123.181 14.3349 124.251 14.4214C125.08 14.4891 125.905 14.6027 126.964 14.931C128.025 15.2582 129.602 15.4844 130.507 15.4396C131.41 15.3937 132.052 15.2572 131.997 15.3437C131.94 15.4302 131.48 15.4979 130.937 15.6928ZM121.211 18.7744C120.624 17.2706 119.121 15.4489 116.608 14.7497C113.85 13.9806 111.549 15.3864 110.691 15.9669C109.833 16.5463 107.806 18.2179 108.235 22.2103C108.628 25.8641 112.473 27.6941 115.138 27.5263C118.61 27.3074 121.024 24.5666 121.323 23.0784C121.579 21.8039 121.768 20.198 121.211 18.7744ZM115.114 27.0375C112.554 27.0229 109.256 25.4493 108.825 22.1113C108.335 18.3169 110.257 16.9559 111.043 16.4244C111.828 15.8929 113.651 14.4964 116.339 15.2812C119.25 16.1284 120.287 17.7625 120.675 18.9662C121.064 20.1698 121.042 21.7393 120.808 22.9065C120.534 24.2686 118.082 27.0552 115.114 27.0375ZM120.179 19.506C119.75 17.9407 118.948 17.1695 117.828 16.9006C116.573 16.5995 115.237 16.9038 114.187 18.0449C113.298 19.011 113.404 19.2798 113.26 19.1881C113.118 19.0975 113.206 17.9522 113.823 16.9642C114.441 15.9773 115.271 15.7282 115.28 15.6292C115.288 15.5313 114.013 15.4865 113.194 15.8846C112.376 16.2816 111.61 16.49 110.745 17.504C109.88 18.5191 109.216 19.1652 109.719 20.841C109.866 21.3339 110.5 22.5199 111.87 22.9701C113.156 23.3932 114.013 23.1514 114.088 23.3192C114.164 23.488 112.673 24.033 111.209 23.8913C109.999 23.7736 109.869 23.1566 109.686 23.3515C109.503 23.5453 111.113 25.343 112.963 25.9881C113.931 26.3268 115.259 26.5905 116.273 26.1799C117.195 25.8057 117.882 24.8334 118.094 23.8277C118.464 22.0613 117.292 20.7711 117.332 20.6503C117.372 20.5294 118.329 20.9514 118.987 22.1436C119.645 23.3359 119.47 23.8402 119.484 23.8913C119.497 23.9424 119.661 23.8871 119.815 23.6047C119.969 23.3233 120.607 21.0723 120.179 19.506Z" fill="url(#paint0_linear_1473_754)"/>
</g>
</g>
<defs>
<filter id="filter0_d_1473_754" x="94" y="0" width="42" height="42" filterUnits="userSpaceOnUse" color-interpolation-filters="sRGB">
<feFlood flood-opacity="0" result="BackgroundImageFix"/>
<feColorMatrix in="SourceAlpha" type="matrix" values="0 0 0 0 0 0 0 0 0 0 0 0 0 0 0 0 0 0 127 0" result="hardAlpha"/>
<feOffset/>
<feGaussianBlur stdDeviation="2"/>
<feColorMatrix type="matrix" values="0 0 0 0 0 0 0 0 0 0 0 0 0 0 0 0 0 0 0.2 0"/>
<feBlend mode="normal" in2="BackgroundImageFix" result="effect1_dropShadow_1473_754"/>
<feBlend mode="normal" in="SourceGraphic" in2="effect1_dropShadow_1473_754" result="shape"/>
</filter>
<linearGradient id="paint0_linear_1473_754" x1="98.3177" y1="38.6603" x2="98.3177" y2="3.22755" gradientUnits="userSpaceOnUse">
<stop stop-color="#7D5C2C"/>
<stop offset="1" stop-color="#C6B073"/>
</linearGradient>
</defs>
</svg>
