<svg width="360" height="72" viewBox="0 0 360 72" fill="none" xmlns="http://www.w3.org/2000/svg">
<mask id="path-1-outside-1_875_12653" maskUnits="userSpaceOnUse" x="0.0078125" y="20.5176" width="359" height="31" fill="black">
<rect fill="white" x="0.0078125" y="20.5176" width="359" height="31"/>
<path fill-rule="evenodd" clip-rule="evenodd" d="M356.966 22.4956C355.962 22.5956 355.608 22.9456 355.572 23.9696C355.522 25.3356 355.488 26.6996 355.482 28.0656C355.461 34.9576 355.453 41.8476 355.433 48.7396C355.431 49.0936 355.363 49.4476 355.341 49.8016C355.307 50.3456 354.997 50.3236 354.657 50.1056C354.325 49.8936 354.015 49.6376 353.722 49.3716C347.059 43.3136 340.687 36.9636 334.384 30.5416C333.417 29.5576 332.341 28.6756 331.426 27.8476C331.426 28.3956 331.408 29.1976 331.43 29.9976C331.502 32.7276 331.589 35.4576 331.667 38.1856C331.74 40.6596 331.776 43.1336 331.898 45.6036C331.945 46.5416 332.136 47.4816 332.357 48.3976C332.552 49.2196 333.147 49.6456 334.024 49.6336C334.571 49.6296 335.118 49.6336 335.667 49.6336C335.665 49.7176 335.663 49.7996 335.661 49.8816C332.552 49.8816 329.443 49.8816 326.336 49.8816C326.33 49.8356 326.326 49.7896 326.322 49.7436C326.754 49.7056 327.184 49.6556 327.617 49.6336C328.479 49.5916 328.902 49.3056 329.119 48.4716C329.258 47.9416 329.354 47.3856 329.364 46.8396C329.405 44.1876 329.419 41.5356 329.431 38.8816C329.455 33.5356 329.465 28.1896 329.507 22.8436C329.511 22.4196 329.73 21.9956 329.849 21.5736C329.928 21.5736 330.008 21.5736 330.088 21.5736C331.567 23.0376 333.051 24.4996 334.527 25.9676C338.079 29.4976 341.633 33.0216 345.176 36.5636C347.704 39.0916 350.208 41.6436 352.726 44.1816C352.957 44.4156 353.201 44.6316 353.444 44.8596C353.444 43.8476 353.462 42.8876 353.44 41.9296C353.319 36.2696 353.193 30.6096 353.054 24.9516C353.044 24.5416 352.959 24.1276 352.853 23.7316C352.64 22.9436 352.183 22.5896 351.363 22.5176C350.685 22.4596 350.007 22.4076 349.329 22.3516C349.333 22.2996 349.335 22.2456 349.337 22.1936C352.326 22.1936 355.311 22.1936 358.299 22.1936C358.303 22.2456 358.309 22.2996 358.313 22.3536C357.863 22.4016 357.416 22.4496 356.966 22.4956ZM317.704 22.4396C316.674 22.5736 316.221 22.9936 316.089 24.0156C316.002 24.6996 315.952 25.3916 315.946 26.0836C315.908 29.9636 315.89 33.8436 315.869 37.7256C315.857 39.7736 315.652 41.7956 314.964 43.7356C313.665 47.4076 310.864 49.3476 307.191 50.1956C306.23 50.4156 305.228 50.4516 304.245 50.5736C304.084 50.5736 303.927 50.5736 303.766 50.5736C302.781 50.4536 301.789 50.3896 300.818 50.2036C296.039 49.2936 293.183 46.2496 292.544 41.4936C292.345 40.0116 292.309 38.4996 292.298 36.9996C292.262 33.3356 292.294 29.6716 292.274 26.0076C292.27 25.3216 292.198 24.6236 292.053 23.9536C291.854 23.0296 291.337 22.6236 290.402 22.5096C289.897 22.4456 289.39 22.4036 288.865 22.2216C289.093 22.1816 289.322 22.1036 289.551 22.1036C292.361 22.1056 295.172 22.1156 297.98 22.1296C298.193 22.1296 298.404 22.1696 298.614 22.1896C298.618 22.2436 298.624 22.2956 298.628 22.3496C298.422 22.3676 298.215 22.3936 298.008 22.4036C296.616 22.4676 296.12 22.8976 295.979 24.2856C295.892 25.1476 295.85 26.0196 295.85 26.8896C295.844 31.1476 295.812 35.4056 295.886 39.6636C295.921 41.8136 296.311 43.9316 297.626 45.7276C299.171 47.8396 301.29 48.9196 303.927 49.0416C306.017 49.1396 307.961 48.7316 309.709 47.5576C311.698 46.2236 312.621 44.2396 312.963 41.9836C313.193 40.4656 313.301 38.9156 313.323 37.3796C313.374 33.9736 313.359 30.5676 313.329 27.1596C313.321 26.0976 313.241 25.0276 313.09 23.9756C312.961 23.0756 312.386 22.6256 311.465 22.5116C310.948 22.4476 310.429 22.3996 309.912 22.3456C309.916 22.2936 309.918 22.2436 309.92 22.1896C312.845 22.1896 315.771 22.1896 318.697 22.1896C318.701 22.2476 318.705 22.3036 318.709 22.3596C318.375 22.3856 318.036 22.3976 317.704 22.4396ZM273.369 32.9676C275.22 34.3376 277.12 35.6396 278.697 37.3416C280.744 39.5456 281.44 42.0836 280.535 44.9496C279.598 47.9096 277.376 49.4976 274.417 50.1456C273.55 50.3336 272.657 50.3976 271.776 50.5196C271.577 50.5196 271.376 50.5196 271.177 50.5196C270.234 50.3996 269.281 50.3336 268.353 50.1436C267.561 49.9816 266.789 49.7056 266.033 49.4156C265.825 49.3376 265.562 49.0276 265.566 48.8276C265.596 47.3676 265.683 45.9076 265.765 44.4476C265.771 44.3096 265.86 44.1756 265.91 44.0396C265.962 44.0436 266.014 44.0496 266.065 44.0536C266.089 44.2936 266.151 44.5336 266.129 44.7696C265.978 46.5516 266.865 47.6276 268.46 48.2736C270.141 48.9516 271.881 49.2456 273.659 48.9296C278.09 48.1396 278.757 43.7896 277.094 41.0156C276.187 39.5056 274.783 38.4696 273.41 37.4136C271.634 36.0436 269.795 34.7496 268.329 33.0176C266.344 30.6776 265.884 27.6116 267.223 25.1796C268.341 23.1456 270.218 22.2056 272.41 21.7636C272.873 21.6676 273.343 21.5996 273.808 21.5176C274.526 21.5176 275.244 21.5176 275.962 21.5176C277.253 21.7196 278.54 21.9436 279.835 22.1036C280.278 22.1576 280.374 22.2156 280.304 22.7016C280.171 23.6556 280.189 24.6296 280.133 25.5956C280.113 25.9416 280.067 26.2836 280.032 26.6276C279.972 26.6376 279.912 26.6456 279.851 26.6536C279.793 26.4516 279.69 26.2496 279.688 26.0456C279.656 24.7716 279.033 23.9216 277.84 23.4916C276.042 22.8416 274.176 22.6416 272.332 23.1216C268.83 24.0356 268.649 27.8016 270.003 29.8036C270.884 31.1076 272.122 32.0456 273.369 32.9676ZM192.329 23.5656C192.253 24.0736 192.204 24.5896 192.202 25.1036C192.186 31.9356 192.184 38.7696 192.166 45.6036C192.162 46.9276 192.116 48.2536 192.068 49.5776C192.06 49.7936 191.981 50.1156 191.838 50.1836C191.686 50.2536 191.368 50.1336 191.213 49.9956C189.797 48.7476 188.363 47.5176 187.01 46.2056C182.408 41.7336 177.825 37.2396 173.255 32.7336C171.586 31.0876 169.977 29.3836 168.338 27.7076C168.286 27.6536 168.227 27.6056 168.149 27.5336C168.149 28.6816 168.125 29.7916 168.153 30.9036C168.229 33.8116 168.324 36.7196 168.416 39.6276C168.483 41.8036 168.523 43.9816 168.646 46.1556C168.69 46.9516 168.885 47.7516 169.108 48.5236C169.323 49.2616 169.892 49.6376 170.685 49.6336C171.254 49.6296 171.823 49.6336 172.392 49.6336C172.392 49.7156 172.39 49.7976 172.39 49.8816C169.279 49.8816 166.17 49.8816 163.061 49.8816C163.056 49.8396 163.069 49.6996 163.061 49.6576C163.354 49.6236 163.626 49.6516 163.917 49.6576C165.331 49.6856 165.759 49.3016 165.985 47.7096C166.103 46.8916 166.113 46.0536 166.117 45.2256C166.136 39.8176 166.134 34.4096 166.152 29.0036C166.16 26.8256 166.194 24.6476 166.24 22.4696C166.246 22.1696 166.24 21.8589 166.24 21.5736C166.359 21.5736 166.715 21.5736 166.835 21.5736C174.601 29.3256 182.37 37.0756 190.167 44.8576C190.167 43.4516 190.191 42.0936 190.163 40.7396C190.085 37.1156 189.994 33.4956 189.892 29.8736C189.843 28.0536 189.775 26.2356 189.69 24.4176C189.63 23.1416 189.113 22.6296 187.824 22.5036C187.227 22.4436 186.627 22.4016 186.03 22.3516C186.032 22.2996 186.034 22.2476 186.038 22.1956C189.035 22.1956 192.035 22.1956 195.032 22.1956C195.036 22.2516 195.038 22.3076 195.042 22.3636C194.523 22.4116 194.004 22.4616 193.486 22.5096C192.79 22.5776 192.43 22.8816 192.329 23.5656ZM152.663 50.0936C149.376 50.0356 146.088 49.9716 142.8 49.9376C141.169 49.9196 139.538 49.9636 137.905 49.9756C137.7 49.9776 137.498 49.9536 137.293 49.9416C137.291 49.8916 137.289 49.8396 137.287 49.7876C137.464 49.7696 137.641 49.7516 137.82 49.7356C139.011 49.6116 139.596 49.1256 139.787 47.9536C139.928 47.0796 140.023 46.1856 140.025 45.3016C140.045 38.6676 140.039 32.0336 140.029 25.3996C140.029 24.9496 139.976 24.4896 139.876 24.0496C139.652 23.0516 139.097 22.6116 138.039 22.5096C137.577 22.4656 137.118 22.4016 136.658 22.3476C136.654 22.2956 136.654 22.2456 136.652 22.1936C136.929 22.1716 137.203 22.1296 137.48 22.1316C141.406 22.1536 145.332 22.2016 149.258 22.1956C150.619 22.1936 151.977 22.0676 153.334 21.9956C153.168 23.3516 152.981 24.8536 152.797 26.3536C152.753 26.3636 152.709 26.3716 152.667 26.3796C152.612 26.2296 152.512 26.0816 152.508 25.9296C152.47 24.4316 151.848 24.0116 150.4 23.8736C148.146 23.6556 145.873 23.6516 143.55 23.5556C143.55 27.1956 143.55 30.7656 143.55 34.3536C143.584 34.3696 143.635 34.4116 143.689 34.4096C146.177 34.3736 148.667 34.3616 151.156 34.2676C151.663 34.2496 152.16 33.9316 152.689 33.7416C152.514 35.2436 152.329 36.8436 152.144 38.4436C152.098 38.4456 152.051 38.4496 152.005 38.4516C151.965 38.3776 151.886 38.2996 151.892 38.2276C152.015 36.8996 151.237 36.2456 149.857 36.1016C147.782 35.8816 145.688 35.8636 143.53 35.7556C143.514 36.0656 143.496 36.2756 143.496 36.4836C143.494 39.4936 143.492 42.5016 143.498 45.5136C143.5 45.8656 143.518 46.2256 143.58 46.5736C143.795 47.7776 144.162 48.2676 145.35 48.3816C146.869 48.5276 148.407 48.5136 149.934 48.4976C150.603 48.4896 151.269 48.3216 151.929 48.1956C153.105 47.9676 153.751 47.2396 153.92 46.0676C153.954 45.8276 154.046 45.5936 154.109 45.3556C154.161 45.3596 154.215 45.3596 154.264 45.3636C154.296 45.5176 154.372 45.6796 154.348 45.8256C154.169 46.9536 153.966 48.0756 153.777 49.2036C153.672 49.8376 153.298 50.1056 152.663 50.0936ZM131.883 49.9756C130.687 49.9796 129.488 49.9216 128.295 49.9896C125.842 50.1236 123.8 49.2536 121.98 47.6816C118.143 44.3596 114.589 40.7516 111.082 37.0936C110.565 36.5536 110.054 36.0076 109.463 35.3816C109.447 35.6576 109.429 35.8236 109.431 35.9916C109.461 39.2556 109.471 42.5236 109.537 45.7896C109.557 46.6496 109.692 47.5236 109.887 48.3636C110.092 49.2476 110.613 49.5896 111.52 49.6336C112.037 49.6576 112.554 49.6776 113.071 49.7056C113.121 49.7096 113.165 49.7676 113.346 49.8936C109.947 49.8936 106.685 49.8936 103.425 49.8936C103.419 49.8456 103.413 49.7956 103.407 49.7476C103.739 49.7176 104.071 49.6796 104.403 49.6576C105.229 49.6036 105.539 49.4496 105.704 48.6256C105.937 47.4696 106.15 46.2856 106.158 45.1156C106.199 38.5996 106.184 32.0816 106.168 25.5656C106.166 24.9416 106.072 24.3056 105.943 23.6916C105.792 22.9736 105.283 22.5956 104.553 22.5156C104.027 22.4576 103.502 22.4056 102.955 22.2176C103.206 22.1776 103.455 22.1036 103.703 22.1056C106.335 22.1056 108.964 22.1136 111.595 22.1296C111.818 22.1296 112.043 22.1776 112.264 22.3476C111.852 22.3916 111.438 22.4456 111.025 22.4836C110.34 22.5456 109.891 22.9256 109.77 23.5636C109.62 24.3556 109.517 25.1656 109.503 25.9696C109.455 28.9376 109.451 31.9096 109.433 34.8796C109.431 34.9716 109.445 35.0616 109.465 35.2996C110.211 34.6036 110.877 33.9976 111.528 33.3736C114.304 30.7016 117.081 28.0296 119.846 25.3416C120.327 24.8736 120.778 24.3636 121.18 23.8236C121.781 23.0156 121.528 22.5136 120.516 22.4036C120.391 22.3916 120.265 22.3636 120.142 22.3416C120.144 22.2916 120.148 22.2456 120.15 22.1956C122.855 22.1956 125.56 22.1956 128.265 22.1956C128.271 22.2396 128.277 22.2816 128.283 22.3256C128.169 22.3516 128.056 22.4016 127.943 22.3996C126.713 22.3776 125.62 22.7636 124.701 23.5536C122.37 25.5636 120.05 27.5876 117.749 29.6336C116.309 30.9156 114.915 32.2456 113.495 33.5476C113.218 33.8016 112.91 34.0256 112.6 34.2756C112.805 34.5176 112.894 34.6456 113.002 34.7516C116.45 38.1296 119.873 41.5356 123.362 44.8696C124.621 46.0756 126.019 47.1396 127.394 48.2176C128.609 49.1716 129.981 49.7536 131.58 49.6496C131.879 49.6316 132.183 49.7096 132.483 49.7436C132.483 49.8056 132.481 49.8676 132.479 49.9296C132.281 49.9456 132.082 49.9736 131.883 49.9756ZM79.2969 50.4676C79.0423 50.5036 78.7897 50.5396 78.5371 50.5736C78.3382 50.5736 78.1393 50.5736 77.9384 50.5736C76.8763 50.4556 75.8063 50.3716 74.7501 50.2116C68.8927 49.3176 64.3857 45.0036 63.0949 39.2916C61.3565 31.6116 66.4423 23.3796 74.9431 21.9296C75.7008 21.7976 76.4606 21.6916 77.2204 21.5736C78.0597 21.5736 78.8951 21.5736 79.7344 21.5736C80.7886 21.7356 81.8567 21.8336 82.8949 22.0676C87.8334 23.1836 91.6562 25.7516 93.3587 30.6776C96.0398 38.4356 92.046 47.6336 82.7636 49.9536C81.6359 50.2356 80.4524 50.3016 79.2969 50.4676ZM90.3813 36.5396C90.2242 35.2896 90.1466 34.0216 89.896 32.7896C89.2018 29.3896 87.4933 26.6136 84.5119 24.7176C81.8228 23.0076 78.8712 22.5736 75.7565 23.1116C71.9576 23.7676 69.1393 25.7256 67.6396 29.3256C66.3587 32.4056 66.313 35.5956 67.0012 38.8136C67.5859 41.5476 68.8091 43.9616 70.9115 45.8576C73.8352 48.4956 77.3079 49.4856 81.1804 48.8916C84.138 48.4376 86.5625 47.0136 88.2273 44.4716C89.8045 42.0636 90.252 39.3616 90.3813 36.5396ZM60.0617 49.9736C58.7053 49.9796 57.3488 49.9416 55.9943 49.9856C53.6613 50.0616 51.7519 49.1836 50.2622 47.4496C48.502 45.4036 46.8034 43.3056 45.0869 41.2236C44.3689 40.3496 43.6867 39.4456 42.9647 38.5756C42.8295 38.4096 42.5908 38.2296 42.3979 38.2276C40.7073 38.1996 39.0147 38.2116 37.2584 38.2116C37.2485 38.4236 37.2266 38.6336 37.2286 38.8436C37.2743 41.4956 37.3042 44.1476 37.3877 46.7976C37.4056 47.3976 37.5627 48.0096 37.7517 48.5836C37.9685 49.2396 38.4816 49.5996 39.1957 49.6316C39.6332 49.6516 40.0708 49.6616 40.5104 49.6836C40.6933 49.6916 40.8743 49.7236 41.0593 49.7436C41.0553 49.7956 41.0494 49.8496 41.0454 49.9036C37.7596 49.9036 34.4759 49.9036 31.1901 49.9036C31.1862 49.8516 31.1822 49.8016 31.1802 49.7516C31.5024 49.7216 31.8246 49.6816 32.1468 49.6596C32.9782 49.6056 33.3621 49.3576 33.5271 48.5436C33.7141 47.6176 33.8891 46.6696 33.8951 45.7316C33.9448 39.6316 33.9548 33.5316 33.9568 27.4316C33.9568 26.3456 33.919 25.2536 33.7897 24.1776C33.6584 23.0956 33.0995 22.6316 32.0255 22.5076C31.5442 22.4496 31.0628 22.4016 30.5676 22.2096C30.8202 22.1736 31.0728 22.1056 31.3254 22.1076C34.9731 22.1236 38.6208 22.1056 42.2646 22.1896C44.2516 22.2336 46.1908 22.6496 47.8396 23.8436C50.2701 25.6056 51.0498 28.4876 49.9897 31.5376C49.2796 33.5796 47.9232 35.1676 46.3797 36.6276C46.1928 36.8036 45.9999 36.9736 45.8109 37.1496C45.7831 37.1756 45.7711 37.2156 45.7075 37.3256C46.7477 38.5616 47.7481 39.8176 48.8182 41.0116C50.6878 43.0956 52.5554 45.1816 54.5086 47.1836C55.6781 48.3836 57.0624 49.3336 58.8047 49.5756C59.1568 49.6256 59.5187 49.6136 59.8748 49.6456C60.1393 49.6696 60.4038 49.7176 60.6684 49.7516C60.6684 49.8076 60.6664 49.8616 60.6664 49.9156C60.4635 49.9356 60.2646 49.9736 60.0617 49.9736ZM46.4911 33.8896C47.0799 32.3576 47.2052 30.7756 46.9506 29.1656C46.5747 26.8036 45.5086 24.9096 43.1915 23.9176C41.4213 23.1616 39.5795 23.2756 37.7318 23.5216C37.2883 23.5816 37.2266 23.8636 37.2286 24.2436C37.2385 26.1636 37.2326 28.0836 37.2326 30.0056C37.2326 31.9456 37.2485 33.8856 37.2206 35.8256C37.2127 36.3456 37.4056 36.6216 37.8969 36.6696C39.2374 36.7996 40.58 36.9796 41.9245 37.0116C44.182 37.0616 45.6816 35.9956 46.4911 33.8896ZM12.2653 50.0736C10.4553 50.0996 8.64339 49.9416 6.83146 49.9176C5.29997 49.8976 3.76649 49.9576 2.23301 49.9736C2.03212 49.9776 1.83124 49.9456 1.63035 49.9296C1.63234 49.8716 1.63234 49.8116 1.63433 49.7516C1.97245 49.7216 2.31058 49.6816 2.65069 49.6576C3.46616 49.6016 3.8003 49.3836 3.98925 48.5756C4.16627 47.8116 4.33732 47.0216 4.34527 46.2416C4.41091 39.9276 4.45069 33.6156 4.46859 27.3016C4.47256 26.2376 4.41091 25.1616 4.2498 24.1116C4.08472 23.0356 3.5656 22.6296 2.49356 22.5076C2.0003 22.4496 1.50306 22.4396 1.00781 22.4056C1.00781 22.3256 1.00781 22.2476 1.00781 22.1676C2.05997 22.1696 3.11411 22.1696 4.16627 22.1696C6.67632 22.1696 9.18638 22.1476 11.6964 22.1796C12.9594 22.1956 14.1786 22.5056 15.3183 23.0556C18.2142 24.4476 19.2664 27.3916 17.9437 30.3416C17.4007 31.5556 16.5355 32.5356 15.6186 33.4716C15.372 33.7256 15.0856 33.9376 14.8608 34.1296C16.0204 34.7576 17.1462 35.2636 18.1605 35.9396C19.9804 37.1516 21.2772 38.8056 21.5596 41.0156C21.9793 44.3016 20.5791 46.7756 17.8204 48.5176C16.1358 49.5816 14.2383 50.0456 12.2653 50.0736ZM15.2427 27.7236C14.8091 25.3216 13.3453 23.6876 11.1097 23.3136C10.1689 23.1576 9.17245 23.3236 8.20185 23.3476C7.79809 23.3556 7.68472 23.5696 7.6887 23.9616C7.70859 25.5416 7.69665 27.1276 7.69665 28.7096H7.69864C7.69864 30.2936 7.71057 31.8756 7.69069 33.4596C7.68671 33.8216 7.78814 34.0356 8.15809 34.0476C9.35146 34.0856 10.5448 34.1296 11.7382 34.1396C13.2359 34.1516 14.1488 33.2936 14.8012 32.0556C15.5311 30.6676 15.5112 29.2036 15.2427 27.7236ZM17.8423 41.3416C17.0646 38.2816 15.193 36.1176 11.9928 35.4436C10.6323 35.1556 9.19035 35.2396 7.78615 35.1556C7.78615 38.8716 7.77621 42.4316 7.79013 45.9896C7.7961 47.6856 8.12627 48.2196 10.1908 48.6296C11.3046 48.8496 12.488 48.8596 13.6257 48.7716C15.9329 48.5976 17.7249 47.0336 18.0432 44.7996C18.2023 43.6716 18.1227 42.4456 17.8423 41.3416Z"/>
</mask>
<path fill-rule="evenodd" clip-rule="evenodd" d="M356.966 22.4956C355.962 22.5956 355.608 22.9456 355.572 23.9696C355.522 25.3356 355.488 26.6996 355.482 28.0656C355.461 34.9576 355.453 41.8476 355.433 48.7396C355.431 49.0936 355.363 49.4476 355.341 49.8016C355.307 50.3456 354.997 50.3236 354.657 50.1056C354.325 49.8936 354.015 49.6376 353.722 49.3716C347.059 43.3136 340.687 36.9636 334.384 30.5416C333.417 29.5576 332.341 28.6756 331.426 27.8476C331.426 28.3956 331.408 29.1976 331.43 29.9976C331.502 32.7276 331.589 35.4576 331.667 38.1856C331.74 40.6596 331.776 43.1336 331.898 45.6036C331.945 46.5416 332.136 47.4816 332.357 48.3976C332.552 49.2196 333.147 49.6456 334.024 49.6336C334.571 49.6296 335.118 49.6336 335.667 49.6336C335.665 49.7176 335.663 49.7996 335.661 49.8816C332.552 49.8816 329.443 49.8816 326.336 49.8816C326.33 49.8356 326.326 49.7896 326.322 49.7436C326.754 49.7056 327.184 49.6556 327.617 49.6336C328.479 49.5916 328.902 49.3056 329.119 48.4716C329.258 47.9416 329.354 47.3856 329.364 46.8396C329.405 44.1876 329.419 41.5356 329.431 38.8816C329.455 33.5356 329.465 28.1896 329.507 22.8436C329.511 22.4196 329.73 21.9956 329.849 21.5736C329.928 21.5736 330.008 21.5736 330.088 21.5736C331.567 23.0376 333.051 24.4996 334.527 25.9676C338.079 29.4976 341.633 33.0216 345.176 36.5636C347.704 39.0916 350.208 41.6436 352.726 44.1816C352.957 44.4156 353.201 44.6316 353.444 44.8596C353.444 43.8476 353.462 42.8876 353.44 41.9296C353.319 36.2696 353.193 30.6096 353.054 24.9516C353.044 24.5416 352.959 24.1276 352.853 23.7316C352.64 22.9436 352.183 22.5896 351.363 22.5176C350.685 22.4596 350.007 22.4076 349.329 22.3516C349.333 22.2996 349.335 22.2456 349.337 22.1936C352.326 22.1936 355.311 22.1936 358.299 22.1936C358.303 22.2456 358.309 22.2996 358.313 22.3536C357.863 22.4016 357.416 22.4496 356.966 22.4956ZM317.704 22.4396C316.674 22.5736 316.221 22.9936 316.089 24.0156C316.002 24.6996 315.952 25.3916 315.946 26.0836C315.908 29.9636 315.89 33.8436 315.869 37.7256C315.857 39.7736 315.652 41.7956 314.964 43.7356C313.665 47.4076 310.864 49.3476 307.191 50.1956C306.23 50.4156 305.228 50.4516 304.245 50.5736C304.084 50.5736 303.927 50.5736 303.766 50.5736C302.781 50.4536 301.789 50.3896 300.818 50.2036C296.039 49.2936 293.183 46.2496 292.544 41.4936C292.345 40.0116 292.309 38.4996 292.298 36.9996C292.262 33.3356 292.294 29.6716 292.274 26.0076C292.27 25.3216 292.198 24.6236 292.053 23.9536C291.854 23.0296 291.337 22.6236 290.402 22.5096C289.897 22.4456 289.39 22.4036 288.865 22.2216C289.093 22.1816 289.322 22.1036 289.551 22.1036C292.361 22.1056 295.172 22.1156 297.98 22.1296C298.193 22.1296 298.404 22.1696 298.614 22.1896C298.618 22.2436 298.624 22.2956 298.628 22.3496C298.422 22.3676 298.215 22.3936 298.008 22.4036C296.616 22.4676 296.12 22.8976 295.979 24.2856C295.892 25.1476 295.85 26.0196 295.85 26.8896C295.844 31.1476 295.812 35.4056 295.886 39.6636C295.921 41.8136 296.311 43.9316 297.626 45.7276C299.171 47.8396 301.29 48.9196 303.927 49.0416C306.017 49.1396 307.961 48.7316 309.709 47.5576C311.698 46.2236 312.621 44.2396 312.963 41.9836C313.193 40.4656 313.301 38.9156 313.323 37.3796C313.374 33.9736 313.359 30.5676 313.329 27.1596C313.321 26.0976 313.241 25.0276 313.09 23.9756C312.961 23.0756 312.386 22.6256 311.465 22.5116C310.948 22.4476 310.429 22.3996 309.912 22.3456C309.916 22.2936 309.918 22.2436 309.92 22.1896C312.845 22.1896 315.771 22.1896 318.697 22.1896C318.701 22.2476 318.705 22.3036 318.709 22.3596C318.375 22.3856 318.036 22.3976 317.704 22.4396ZM273.369 32.9676C275.22 34.3376 277.12 35.6396 278.697 37.3416C280.744 39.5456 281.44 42.0836 280.535 44.9496C279.598 47.9096 277.376 49.4976 274.417 50.1456C273.55 50.3336 272.657 50.3976 271.776 50.5196C271.577 50.5196 271.376 50.5196 271.177 50.5196C270.234 50.3996 269.281 50.3336 268.353 50.1436C267.561 49.9816 266.789 49.7056 266.033 49.4156C265.825 49.3376 265.562 49.0276 265.566 48.8276C265.596 47.3676 265.683 45.9076 265.765 44.4476C265.771 44.3096 265.86 44.1756 265.91 44.0396C265.962 44.0436 266.014 44.0496 266.065 44.0536C266.089 44.2936 266.151 44.5336 266.129 44.7696C265.978 46.5516 266.865 47.6276 268.46 48.2736C270.141 48.9516 271.881 49.2456 273.659 48.9296C278.09 48.1396 278.757 43.7896 277.094 41.0156C276.187 39.5056 274.783 38.4696 273.41 37.4136C271.634 36.0436 269.795 34.7496 268.329 33.0176C266.344 30.6776 265.884 27.6116 267.223 25.1796C268.341 23.1456 270.218 22.2056 272.41 21.7636C272.873 21.6676 273.343 21.5996 273.808 21.5176C274.526 21.5176 275.244 21.5176 275.962 21.5176C277.253 21.7196 278.54 21.9436 279.835 22.1036C280.278 22.1576 280.374 22.2156 280.304 22.7016C280.171 23.6556 280.189 24.6296 280.133 25.5956C280.113 25.9416 280.067 26.2836 280.032 26.6276C279.972 26.6376 279.912 26.6456 279.851 26.6536C279.793 26.4516 279.69 26.2496 279.688 26.0456C279.656 24.7716 279.033 23.9216 277.84 23.4916C276.042 22.8416 274.176 22.6416 272.332 23.1216C268.83 24.0356 268.649 27.8016 270.003 29.8036C270.884 31.1076 272.122 32.0456 273.369 32.9676ZM192.329 23.5656C192.253 24.0736 192.204 24.5896 192.202 25.1036C192.186 31.9356 192.184 38.7696 192.166 45.6036C192.162 46.9276 192.116 48.2536 192.068 49.5776C192.06 49.7936 191.981 50.1156 191.838 50.1836C191.686 50.2536 191.368 50.1336 191.213 49.9956C189.797 48.7476 188.363 47.5176 187.01 46.2056C182.408 41.7336 177.825 37.2396 173.255 32.7336C171.586 31.0876 169.977 29.3836 168.338 27.7076C168.286 27.6536 168.227 27.6056 168.149 27.5336C168.149 28.6816 168.125 29.7916 168.153 30.9036C168.229 33.8116 168.324 36.7196 168.416 39.6276C168.483 41.8036 168.523 43.9816 168.646 46.1556C168.69 46.9516 168.885 47.7516 169.108 48.5236C169.323 49.2616 169.892 49.6376 170.685 49.6336C171.254 49.6296 171.823 49.6336 172.392 49.6336C172.392 49.7156 172.39 49.7976 172.39 49.8816C169.279 49.8816 166.17 49.8816 163.061 49.8816C163.056 49.8396 163.069 49.6996 163.061 49.6576C163.354 49.6236 163.626 49.6516 163.917 49.6576C165.331 49.6856 165.759 49.3016 165.985 47.7096C166.103 46.8916 166.113 46.0536 166.117 45.2256C166.136 39.8176 166.134 34.4096 166.152 29.0036C166.16 26.8256 166.194 24.6476 166.24 22.4696C166.246 22.1696 166.24 21.8589 166.24 21.5736C166.359 21.5736 166.715 21.5736 166.835 21.5736C174.601 29.3256 182.37 37.0756 190.167 44.8576C190.167 43.4516 190.191 42.0936 190.163 40.7396C190.085 37.1156 189.994 33.4956 189.892 29.8736C189.843 28.0536 189.775 26.2356 189.69 24.4176C189.63 23.1416 189.113 22.6296 187.824 22.5036C187.227 22.4436 186.627 22.4016 186.03 22.3516C186.032 22.2996 186.034 22.2476 186.038 22.1956C189.035 22.1956 192.035 22.1956 195.032 22.1956C195.036 22.2516 195.038 22.3076 195.042 22.3636C194.523 22.4116 194.004 22.4616 193.486 22.5096C192.79 22.5776 192.43 22.8816 192.329 23.5656ZM152.663 50.0936C149.376 50.0356 146.088 49.9716 142.8 49.9376C141.169 49.9196 139.538 49.9636 137.905 49.9756C137.7 49.9776 137.498 49.9536 137.293 49.9416C137.291 49.8916 137.289 49.8396 137.287 49.7876C137.464 49.7696 137.641 49.7516 137.82 49.7356C139.011 49.6116 139.596 49.1256 139.787 47.9536C139.928 47.0796 140.023 46.1856 140.025 45.3016C140.045 38.6676 140.039 32.0336 140.029 25.3996C140.029 24.9496 139.976 24.4896 139.876 24.0496C139.652 23.0516 139.097 22.6116 138.039 22.5096C137.577 22.4656 137.118 22.4016 136.658 22.3476C136.654 22.2956 136.654 22.2456 136.652 22.1936C136.929 22.1716 137.203 22.1296 137.48 22.1316C141.406 22.1536 145.332 22.2016 149.258 22.1956C150.619 22.1936 151.977 22.0676 153.334 21.9956C153.168 23.3516 152.981 24.8536 152.797 26.3536C152.753 26.3636 152.709 26.3716 152.667 26.3796C152.612 26.2296 152.512 26.0816 152.508 25.9296C152.47 24.4316 151.848 24.0116 150.4 23.8736C148.146 23.6556 145.873 23.6516 143.55 23.5556C143.55 27.1956 143.55 30.7656 143.55 34.3536C143.584 34.3696 143.635 34.4116 143.689 34.4096C146.177 34.3736 148.667 34.3616 151.156 34.2676C151.663 34.2496 152.16 33.9316 152.689 33.7416C152.514 35.2436 152.329 36.8436 152.144 38.4436C152.098 38.4456 152.051 38.4496 152.005 38.4516C151.965 38.3776 151.886 38.2996 151.892 38.2276C152.015 36.8996 151.237 36.2456 149.857 36.1016C147.782 35.8816 145.688 35.8636 143.53 35.7556C143.514 36.0656 143.496 36.2756 143.496 36.4836C143.494 39.4936 143.492 42.5016 143.498 45.5136C143.5 45.8656 143.518 46.2256 143.58 46.5736C143.795 47.7776 144.162 48.2676 145.35 48.3816C146.869 48.5276 148.407 48.5136 149.934 48.4976C150.603 48.4896 151.269 48.3216 151.929 48.1956C153.105 47.9676 153.751 47.2396 153.92 46.0676C153.954 45.8276 154.046 45.5936 154.109 45.3556C154.161 45.3596 154.215 45.3596 154.264 45.3636C154.296 45.5176 154.372 45.6796 154.348 45.8256C154.169 46.9536 153.966 48.0756 153.777 49.2036C153.672 49.8376 153.298 50.1056 152.663 50.0936ZM131.883 49.9756C130.687 49.9796 129.488 49.9216 128.295 49.9896C125.842 50.1236 123.8 49.2536 121.98 47.6816C118.143 44.3596 114.589 40.7516 111.082 37.0936C110.565 36.5536 110.054 36.0076 109.463 35.3816C109.447 35.6576 109.429 35.8236 109.431 35.9916C109.461 39.2556 109.471 42.5236 109.537 45.7896C109.557 46.6496 109.692 47.5236 109.887 48.3636C110.092 49.2476 110.613 49.5896 111.52 49.6336C112.037 49.6576 112.554 49.6776 113.071 49.7056C113.121 49.7096 113.165 49.7676 113.346 49.8936C109.947 49.8936 106.685 49.8936 103.425 49.8936C103.419 49.8456 103.413 49.7956 103.407 49.7476C103.739 49.7176 104.071 49.6796 104.403 49.6576C105.229 49.6036 105.539 49.4496 105.704 48.6256C105.937 47.4696 106.15 46.2856 106.158 45.1156C106.199 38.5996 106.184 32.0816 106.168 25.5656C106.166 24.9416 106.072 24.3056 105.943 23.6916C105.792 22.9736 105.283 22.5956 104.553 22.5156C104.027 22.4576 103.502 22.4056 102.955 22.2176C103.206 22.1776 103.455 22.1036 103.703 22.1056C106.335 22.1056 108.964 22.1136 111.595 22.1296C111.818 22.1296 112.043 22.1776 112.264 22.3476C111.852 22.3916 111.438 22.4456 111.025 22.4836C110.34 22.5456 109.891 22.9256 109.77 23.5636C109.62 24.3556 109.517 25.1656 109.503 25.9696C109.455 28.9376 109.451 31.9096 109.433 34.8796C109.431 34.9716 109.445 35.0616 109.465 35.2996C110.211 34.6036 110.877 33.9976 111.528 33.3736C114.304 30.7016 117.081 28.0296 119.846 25.3416C120.327 24.8736 120.778 24.3636 121.18 23.8236C121.781 23.0156 121.528 22.5136 120.516 22.4036C120.391 22.3916 120.265 22.3636 120.142 22.3416C120.144 22.2916 120.148 22.2456 120.15 22.1956C122.855 22.1956 125.56 22.1956 128.265 22.1956C128.271 22.2396 128.277 22.2816 128.283 22.3256C128.169 22.3516 128.056 22.4016 127.943 22.3996C126.713 22.3776 125.62 22.7636 124.701 23.5536C122.37 25.5636 120.05 27.5876 117.749 29.6336C116.309 30.9156 114.915 32.2456 113.495 33.5476C113.218 33.8016 112.91 34.0256 112.6 34.2756C112.805 34.5176 112.894 34.6456 113.002 34.7516C116.45 38.1296 119.873 41.5356 123.362 44.8696C124.621 46.0756 126.019 47.1396 127.394 48.2176C128.609 49.1716 129.981 49.7536 131.58 49.6496C131.879 49.6316 132.183 49.7096 132.483 49.7436C132.483 49.8056 132.481 49.8676 132.479 49.9296C132.281 49.9456 132.082 49.9736 131.883 49.9756ZM79.2969 50.4676C79.0423 50.5036 78.7897 50.5396 78.5371 50.5736C78.3382 50.5736 78.1393 50.5736 77.9384 50.5736C76.8763 50.4556 75.8063 50.3716 74.7501 50.2116C68.8927 49.3176 64.3857 45.0036 63.0949 39.2916C61.3565 31.6116 66.4423 23.3796 74.9431 21.9296C75.7008 21.7976 76.4606 21.6916 77.2204 21.5736C78.0597 21.5736 78.8951 21.5736 79.7344 21.5736C80.7886 21.7356 81.8567 21.8336 82.8949 22.0676C87.8334 23.1836 91.6562 25.7516 93.3587 30.6776C96.0398 38.4356 92.046 47.6336 82.7636 49.9536C81.6359 50.2356 80.4524 50.3016 79.2969 50.4676ZM90.3813 36.5396C90.2242 35.2896 90.1466 34.0216 89.896 32.7896C89.2018 29.3896 87.4933 26.6136 84.5119 24.7176C81.8228 23.0076 78.8712 22.5736 75.7565 23.1116C71.9576 23.7676 69.1393 25.7256 67.6396 29.3256C66.3587 32.4056 66.313 35.5956 67.0012 38.8136C67.5859 41.5476 68.8091 43.9616 70.9115 45.8576C73.8352 48.4956 77.3079 49.4856 81.1804 48.8916C84.138 48.4376 86.5625 47.0136 88.2273 44.4716C89.8045 42.0636 90.252 39.3616 90.3813 36.5396ZM60.0617 49.9736C58.7053 49.9796 57.3488 49.9416 55.9943 49.9856C53.6613 50.0616 51.7519 49.1836 50.2622 47.4496C48.502 45.4036 46.8034 43.3056 45.0869 41.2236C44.3689 40.3496 43.6867 39.4456 42.9647 38.5756C42.8295 38.4096 42.5908 38.2296 42.3979 38.2276C40.7073 38.1996 39.0147 38.2116 37.2584 38.2116C37.2485 38.4236 37.2266 38.6336 37.2286 38.8436C37.2743 41.4956 37.3042 44.1476 37.3877 46.7976C37.4056 47.3976 37.5627 48.0096 37.7517 48.5836C37.9685 49.2396 38.4816 49.5996 39.1957 49.6316C39.6332 49.6516 40.0708 49.6616 40.5104 49.6836C40.6933 49.6916 40.8743 49.7236 41.0593 49.7436C41.0553 49.7956 41.0494 49.8496 41.0454 49.9036C37.7596 49.9036 34.4759 49.9036 31.1901 49.9036C31.1862 49.8516 31.1822 49.8016 31.1802 49.7516C31.5024 49.7216 31.8246 49.6816 32.1468 49.6596C32.9782 49.6056 33.3621 49.3576 33.5271 48.5436C33.7141 47.6176 33.8891 46.6696 33.8951 45.7316C33.9448 39.6316 33.9548 33.5316 33.9568 27.4316C33.9568 26.3456 33.919 25.2536 33.7897 24.1776C33.6584 23.0956 33.0995 22.6316 32.0255 22.5076C31.5442 22.4496 31.0628 22.4016 30.5676 22.2096C30.8202 22.1736 31.0728 22.1056 31.3254 22.1076C34.9731 22.1236 38.6208 22.1056 42.2646 22.1896C44.2516 22.2336 46.1908 22.6496 47.8396 23.8436C50.2701 25.6056 51.0498 28.4876 49.9897 31.5376C49.2796 33.5796 47.9232 35.1676 46.3797 36.6276C46.1928 36.8036 45.9999 36.9736 45.8109 37.1496C45.7831 37.1756 45.7711 37.2156 45.7075 37.3256C46.7477 38.5616 47.7481 39.8176 48.8182 41.0116C50.6878 43.0956 52.5554 45.1816 54.5086 47.1836C55.6781 48.3836 57.0624 49.3336 58.8047 49.5756C59.1568 49.6256 59.5187 49.6136 59.8748 49.6456C60.1393 49.6696 60.4038 49.7176 60.6684 49.7516C60.6684 49.8076 60.6664 49.8616 60.6664 49.9156C60.4635 49.9356 60.2646 49.9736 60.0617 49.9736ZM46.4911 33.8896C47.0799 32.3576 47.2052 30.7756 46.9506 29.1656C46.5747 26.8036 45.5086 24.9096 43.1915 23.9176C41.4213 23.1616 39.5795 23.2756 37.7318 23.5216C37.2883 23.5816 37.2266 23.8636 37.2286 24.2436C37.2385 26.1636 37.2326 28.0836 37.2326 30.0056C37.2326 31.9456 37.2485 33.8856 37.2206 35.8256C37.2127 36.3456 37.4056 36.6216 37.8969 36.6696C39.2374 36.7996 40.58 36.9796 41.9245 37.0116C44.182 37.0616 45.6816 35.9956 46.4911 33.8896ZM12.2653 50.0736C10.4553 50.0996 8.64339 49.9416 6.83146 49.9176C5.29997 49.8976 3.76649 49.9576 2.23301 49.9736C2.03212 49.9776 1.83124 49.9456 1.63035 49.9296C1.63234 49.8716 1.63234 49.8116 1.63433 49.7516C1.97245 49.7216 2.31058 49.6816 2.65069 49.6576C3.46616 49.6016 3.8003 49.3836 3.98925 48.5756C4.16627 47.8116 4.33732 47.0216 4.34527 46.2416C4.41091 39.9276 4.45069 33.6156 4.46859 27.3016C4.47256 26.2376 4.41091 25.1616 4.2498 24.1116C4.08472 23.0356 3.5656 22.6296 2.49356 22.5076C2.0003 22.4496 1.50306 22.4396 1.00781 22.4056C1.00781 22.3256 1.00781 22.2476 1.00781 22.1676C2.05997 22.1696 3.11411 22.1696 4.16627 22.1696C6.67632 22.1696 9.18638 22.1476 11.6964 22.1796C12.9594 22.1956 14.1786 22.5056 15.3183 23.0556C18.2142 24.4476 19.2664 27.3916 17.9437 30.3416C17.4007 31.5556 16.5355 32.5356 15.6186 33.4716C15.372 33.7256 15.0856 33.9376 14.8608 34.1296C16.0204 34.7576 17.1462 35.2636 18.1605 35.9396C19.9804 37.1516 21.2772 38.8056 21.5596 41.0156C21.9793 44.3016 20.5791 46.7756 17.8204 48.5176C16.1358 49.5816 14.2383 50.0456 12.2653 50.0736ZM15.2427 27.7236C14.8091 25.3216 13.3453 23.6876 11.1097 23.3136C10.1689 23.1576 9.17245 23.3236 8.20185 23.3476C7.79809 23.3556 7.68472 23.5696 7.6887 23.9616C7.70859 25.5416 7.69665 27.1276 7.69665 28.7096H7.69864C7.69864 30.2936 7.71057 31.8756 7.69069 33.4596C7.68671 33.8216 7.78814 34.0356 8.15809 34.0476C9.35146 34.0856 10.5448 34.1296 11.7382 34.1396C13.2359 34.1516 14.1488 33.2936 14.8012 32.0556C15.5311 30.6676 15.5112 29.2036 15.2427 27.7236ZM17.8423 41.3416C17.0646 38.2816 15.193 36.1176 11.9928 35.4436C10.6323 35.1556 9.19035 35.2396 7.78615 35.1556C7.78615 38.8716 7.77621 42.4316 7.79013 45.9896C7.7961 47.6856 8.12627 48.2196 10.1908 48.6296C11.3046 48.8496 12.488 48.8596 13.6257 48.7716C15.9329 48.5976 17.7249 47.0336 18.0432 44.7996C18.2023 43.6716 18.1227 42.4456 17.8423 41.3416Z" fill="#3A5E78"/>
<path fill-rule="evenodd" clip-rule="evenodd" d="M356.966 22.4956C355.962 22.5956 355.608 22.9456 355.572 23.9696C355.522 25.3356 355.488 26.6996 355.482 28.0656C355.461 34.9576 355.453 41.8476 355.433 48.7396C355.431 49.0936 355.363 49.4476 355.341 49.8016C355.307 50.3456 354.997 50.3236 354.657 50.1056C354.325 49.8936 354.015 49.6376 353.722 49.3716C347.059 43.3136 340.687 36.9636 334.384 30.5416C333.417 29.5576 332.341 28.6756 331.426 27.8476C331.426 28.3956 331.408 29.1976 331.43 29.9976C331.502 32.7276 331.589 35.4576 331.667 38.1856C331.74 40.6596 331.776 43.1336 331.898 45.6036C331.945 46.5416 332.136 47.4816 332.357 48.3976C332.552 49.2196 333.147 49.6456 334.024 49.6336C334.571 49.6296 335.118 49.6336 335.667 49.6336C335.665 49.7176 335.663 49.7996 335.661 49.8816C332.552 49.8816 329.443 49.8816 326.336 49.8816C326.33 49.8356 326.326 49.7896 326.322 49.7436C326.754 49.7056 327.184 49.6556 327.617 49.6336C328.479 49.5916 328.902 49.3056 329.119 48.4716C329.258 47.9416 329.354 47.3856 329.364 46.8396C329.405 44.1876 329.419 41.5356 329.431 38.8816C329.455 33.5356 329.465 28.1896 329.507 22.8436C329.511 22.4196 329.73 21.9956 329.849 21.5736C329.928 21.5736 330.008 21.5736 330.088 21.5736C331.567 23.0376 333.051 24.4996 334.527 25.9676C338.079 29.4976 341.633 33.0216 345.176 36.5636C347.704 39.0916 350.208 41.6436 352.726 44.1816C352.957 44.4156 353.201 44.6316 353.444 44.8596C353.444 43.8476 353.462 42.8876 353.44 41.9296C353.319 36.2696 353.193 30.6096 353.054 24.9516C353.044 24.5416 352.959 24.1276 352.853 23.7316C352.64 22.9436 352.183 22.5896 351.363 22.5176C350.685 22.4596 350.007 22.4076 349.329 22.3516C349.333 22.2996 349.335 22.2456 349.337 22.1936C352.326 22.1936 355.311 22.1936 358.299 22.1936C358.303 22.2456 358.309 22.2996 358.313 22.3536C357.863 22.4016 357.416 22.4496 356.966 22.4956ZM317.704 22.4396C316.674 22.5736 316.221 22.9936 316.089 24.0156C316.002 24.6996 315.952 25.3916 315.946 26.0836C315.908 29.9636 315.89 33.8436 315.869 37.7256C315.857 39.7736 315.652 41.7956 314.964 43.7356C313.665 47.4076 310.864 49.3476 307.191 50.1956C306.23 50.4156 305.228 50.4516 304.245 50.5736C304.084 50.5736 303.927 50.5736 303.766 50.5736C302.781 50.4536 301.789 50.3896 300.818 50.2036C296.039 49.2936 293.183 46.2496 292.544 41.4936C292.345 40.0116 292.309 38.4996 292.298 36.9996C292.262 33.3356 292.294 29.6716 292.274 26.0076C292.27 25.3216 292.198 24.6236 292.053 23.9536C291.854 23.0296 291.337 22.6236 290.402 22.5096C289.897 22.4456 289.39 22.4036 288.865 22.2216C289.093 22.1816 289.322 22.1036 289.551 22.1036C292.361 22.1056 295.172 22.1156 297.98 22.1296C298.193 22.1296 298.404 22.1696 298.614 22.1896C298.618 22.2436 298.624 22.2956 298.628 22.3496C298.422 22.3676 298.215 22.3936 298.008 22.4036C296.616 22.4676 296.12 22.8976 295.979 24.2856C295.892 25.1476 295.85 26.0196 295.85 26.8896C295.844 31.1476 295.812 35.4056 295.886 39.6636C295.921 41.8136 296.311 43.9316 297.626 45.7276C299.171 47.8396 301.29 48.9196 303.927 49.0416C306.017 49.1396 307.961 48.7316 309.709 47.5576C311.698 46.2236 312.621 44.2396 312.963 41.9836C313.193 40.4656 313.301 38.9156 313.323 37.3796C313.374 33.9736 313.359 30.5676 313.329 27.1596C313.321 26.0976 313.241 25.0276 313.09 23.9756C312.961 23.0756 312.386 22.6256 311.465 22.5116C310.948 22.4476 310.429 22.3996 309.912 22.3456C309.916 22.2936 309.918 22.2436 309.92 22.1896C312.845 22.1896 315.771 22.1896 318.697 22.1896C318.701 22.2476 318.705 22.3036 318.709 22.3596C318.375 22.3856 318.036 22.3976 317.704 22.4396ZM273.369 32.9676C275.22 34.3376 277.12 35.6396 278.697 37.3416C280.744 39.5456 281.44 42.0836 280.535 44.9496C279.598 47.9096 277.376 49.4976 274.417 50.1456C273.55 50.3336 272.657 50.3976 271.776 50.5196C271.577 50.5196 271.376 50.5196 271.177 50.5196C270.234 50.3996 269.281 50.3336 268.353 50.1436C267.561 49.9816 266.789 49.7056 266.033 49.4156C265.825 49.3376 265.562 49.0276 265.566 48.8276C265.596 47.3676 265.683 45.9076 265.765 44.4476C265.771 44.3096 265.86 44.1756 265.91 44.0396C265.962 44.0436 266.014 44.0496 266.065 44.0536C266.089 44.2936 266.151 44.5336 266.129 44.7696C265.978 46.5516 266.865 47.6276 268.46 48.2736C270.141 48.9516 271.881 49.2456 273.659 48.9296C278.09 48.1396 278.757 43.7896 277.094 41.0156C276.187 39.5056 274.783 38.4696 273.41 37.4136C271.634 36.0436 269.795 34.7496 268.329 33.0176C266.344 30.6776 265.884 27.6116 267.223 25.1796C268.341 23.1456 270.218 22.2056 272.41 21.7636C272.873 21.6676 273.343 21.5996 273.808 21.5176C274.526 21.5176 275.244 21.5176 275.962 21.5176C277.253 21.7196 278.54 21.9436 279.835 22.1036C280.278 22.1576 280.374 22.2156 280.304 22.7016C280.171 23.6556 280.189 24.6296 280.133 25.5956C280.113 25.9416 280.067 26.2836 280.032 26.6276C279.972 26.6376 279.912 26.6456 279.851 26.6536C279.793 26.4516 279.69 26.2496 279.688 26.0456C279.656 24.7716 279.033 23.9216 277.84 23.4916C276.042 22.8416 274.176 22.6416 272.332 23.1216C268.83 24.0356 268.649 27.8016 270.003 29.8036C270.884 31.1076 272.122 32.0456 273.369 32.9676ZM192.329 23.5656C192.253 24.0736 192.204 24.5896 192.202 25.1036C192.186 31.9356 192.184 38.7696 192.166 45.6036C192.162 46.9276 192.116 48.2536 192.068 49.5776C192.06 49.7936 191.981 50.1156 191.838 50.1836C191.686 50.2536 191.368 50.1336 191.213 49.9956C189.797 48.7476 188.363 47.5176 187.01 46.2056C182.408 41.7336 177.825 37.2396 173.255 32.7336C171.586 31.0876 169.977 29.3836 168.338 27.7076C168.286 27.6536 168.227 27.6056 168.149 27.5336C168.149 28.6816 168.125 29.7916 168.153 30.9036C168.229 33.8116 168.324 36.7196 168.416 39.6276C168.483 41.8036 168.523 43.9816 168.646 46.1556C168.69 46.9516 168.885 47.7516 169.108 48.5236C169.323 49.2616 169.892 49.6376 170.685 49.6336C171.254 49.6296 171.823 49.6336 172.392 49.6336C172.392 49.7156 172.39 49.7976 172.39 49.8816C169.279 49.8816 166.17 49.8816 163.061 49.8816C163.056 49.8396 163.069 49.6996 163.061 49.6576C163.354 49.6236 163.626 49.6516 163.917 49.6576C165.331 49.6856 165.759 49.3016 165.985 47.7096C166.103 46.8916 166.113 46.0536 166.117 45.2256C166.136 39.8176 166.134 34.4096 166.152 29.0036C166.16 26.8256 166.194 24.6476 166.24 22.4696C166.246 22.1696 166.24 21.8589 166.24 21.5736C166.359 21.5736 166.715 21.5736 166.835 21.5736C174.601 29.3256 182.37 37.0756 190.167 44.8576C190.167 43.4516 190.191 42.0936 190.163 40.7396C190.085 37.1156 189.994 33.4956 189.892 29.8736C189.843 28.0536 189.775 26.2356 189.69 24.4176C189.63 23.1416 189.113 22.6296 187.824 22.5036C187.227 22.4436 186.627 22.4016 186.03 22.3516C186.032 22.2996 186.034 22.2476 186.038 22.1956C189.035 22.1956 192.035 22.1956 195.032 22.1956C195.036 22.2516 195.038 22.3076 195.042 22.3636C194.523 22.4116 194.004 22.4616 193.486 22.5096C192.79 22.5776 192.43 22.8816 192.329 23.5656ZM152.663 50.0936C149.376 50.0356 146.088 49.9716 142.8 49.9376C141.169 49.9196 139.538 49.9636 137.905 49.9756C137.7 49.9776 137.498 49.9536 137.293 49.9416C137.291 49.8916 137.289 49.8396 137.287 49.7876C137.464 49.7696 137.641 49.7516 137.82 49.7356C139.011 49.6116 139.596 49.1256 139.787 47.9536C139.928 47.0796 140.023 46.1856 140.025 45.3016C140.045 38.6676 140.039 32.0336 140.029 25.3996C140.029 24.9496 139.976 24.4896 139.876 24.0496C139.652 23.0516 139.097 22.6116 138.039 22.5096C137.577 22.4656 137.118 22.4016 136.658 22.3476C136.654 22.2956 136.654 22.2456 136.652 22.1936C136.929 22.1716 137.203 22.1296 137.48 22.1316C141.406 22.1536 145.332 22.2016 149.258 22.1956C150.619 22.1936 151.977 22.0676 153.334 21.9956C153.168 23.3516 152.981 24.8536 152.797 26.3536C152.753 26.3636 152.709 26.3716 152.667 26.3796C152.612 26.2296 152.512 26.0816 152.508 25.9296C152.47 24.4316 151.848 24.0116 150.4 23.8736C148.146 23.6556 145.873 23.6516 143.55 23.5556C143.55 27.1956 143.55 30.7656 143.55 34.3536C143.584 34.3696 143.635 34.4116 143.689 34.4096C146.177 34.3736 148.667 34.3616 151.156 34.2676C151.663 34.2496 152.16 33.9316 152.689 33.7416C152.514 35.2436 152.329 36.8436 152.144 38.4436C152.098 38.4456 152.051 38.4496 152.005 38.4516C151.965 38.3776 151.886 38.2996 151.892 38.2276C152.015 36.8996 151.237 36.2456 149.857 36.1016C147.782 35.8816 145.688 35.8636 143.53 35.7556C143.514 36.0656 143.496 36.2756 143.496 36.4836C143.494 39.4936 143.492 42.5016 143.498 45.5136C143.5 45.8656 143.518 46.2256 143.58 46.5736C143.795 47.7776 144.162 48.2676 145.35 48.3816C146.869 48.5276 148.407 48.5136 149.934 48.4976C150.603 48.4896 151.269 48.3216 151.929 48.1956C153.105 47.9676 153.751 47.2396 153.92 46.0676C153.954 45.8276 154.046 45.5936 154.109 45.3556C154.161 45.3596 154.215 45.3596 154.264 45.3636C154.296 45.5176 154.372 45.6796 154.348 45.8256C154.169 46.9536 153.966 48.0756 153.777 49.2036C153.672 49.8376 153.298 50.1056 152.663 50.0936ZM131.883 49.9756C130.687 49.9796 129.488 49.9216 128.295 49.9896C125.842 50.1236 123.8 49.2536 121.98 47.6816C118.143 44.3596 114.589 40.7516 111.082 37.0936C110.565 36.5536 110.054 36.0076 109.463 35.3816C109.447 35.6576 109.429 35.8236 109.431 35.9916C109.461 39.2556 109.471 42.5236 109.537 45.7896C109.557 46.6496 109.692 47.5236 109.887 48.3636C110.092 49.2476 110.613 49.5896 111.52 49.6336C112.037 49.6576 112.554 49.6776 113.071 49.7056C113.121 49.7096 113.165 49.7676 113.346 49.8936C109.947 49.8936 106.685 49.8936 103.425 49.8936C103.419 49.8456 103.413 49.7956 103.407 49.7476C103.739 49.7176 104.071 49.6796 104.403 49.6576C105.229 49.6036 105.539 49.4496 105.704 48.6256C105.937 47.4696 106.15 46.2856 106.158 45.1156C106.199 38.5996 106.184 32.0816 106.168 25.5656C106.166 24.9416 106.072 24.3056 105.943 23.6916C105.792 22.9736 105.283 22.5956 104.553 22.5156C104.027 22.4576 103.502 22.4056 102.955 22.2176C103.206 22.1776 103.455 22.1036 103.703 22.1056C106.335 22.1056 108.964 22.1136 111.595 22.1296C111.818 22.1296 112.043 22.1776 112.264 22.3476C111.852 22.3916 111.438 22.4456 111.025 22.4836C110.34 22.5456 109.891 22.9256 109.77 23.5636C109.62 24.3556 109.517 25.1656 109.503 25.9696C109.455 28.9376 109.451 31.9096 109.433 34.8796C109.431 34.9716 109.445 35.0616 109.465 35.2996C110.211 34.6036 110.877 33.9976 111.528 33.3736C114.304 30.7016 117.081 28.0296 119.846 25.3416C120.327 24.8736 120.778 24.3636 121.18 23.8236C121.781 23.0156 121.528 22.5136 120.516 22.4036C120.391 22.3916 120.265 22.3636 120.142 22.3416C120.144 22.2916 120.148 22.2456 120.15 22.1956C122.855 22.1956 125.56 22.1956 128.265 22.1956C128.271 22.2396 128.277 22.2816 128.283 22.3256C128.169 22.3516 128.056 22.4016 127.943 22.3996C126.713 22.3776 125.62 22.7636 124.701 23.5536C122.37 25.5636 120.05 27.5876 117.749 29.6336C116.309 30.9156 114.915 32.2456 113.495 33.5476C113.218 33.8016 112.91 34.0256 112.6 34.2756C112.805 34.5176 112.894 34.6456 113.002 34.7516C116.45 38.1296 119.873 41.5356 123.362 44.8696C124.621 46.0756 126.019 47.1396 127.394 48.2176C128.609 49.1716 129.981 49.7536 131.58 49.6496C131.879 49.6316 132.183 49.7096 132.483 49.7436C132.483 49.8056 132.481 49.8676 132.479 49.9296C132.281 49.9456 132.082 49.9736 131.883 49.9756ZM79.2969 50.4676C79.0423 50.5036 78.7897 50.5396 78.5371 50.5736C78.3382 50.5736 78.1393 50.5736 77.9384 50.5736C76.8763 50.4556 75.8063 50.3716 74.7501 50.2116C68.8927 49.3176 64.3857 45.0036 63.0949 39.2916C61.3565 31.6116 66.4423 23.3796 74.9431 21.9296C75.7008 21.7976 76.4606 21.6916 77.2204 21.5736C78.0597 21.5736 78.8951 21.5736 79.7344 21.5736C80.7886 21.7356 81.8567 21.8336 82.8949 22.0676C87.8334 23.1836 91.6562 25.7516 93.3587 30.6776C96.0398 38.4356 92.046 47.6336 82.7636 49.9536C81.6359 50.2356 80.4524 50.3016 79.2969 50.4676ZM90.3813 36.5396C90.2242 35.2896 90.1466 34.0216 89.896 32.7896C89.2018 29.3896 87.4933 26.6136 84.5119 24.7176C81.8228 23.0076 78.8712 22.5736 75.7565 23.1116C71.9576 23.7676 69.1393 25.7256 67.6396 29.3256C66.3587 32.4056 66.313 35.5956 67.0012 38.8136C67.5859 41.5476 68.8091 43.9616 70.9115 45.8576C73.8352 48.4956 77.3079 49.4856 81.1804 48.8916C84.138 48.4376 86.5625 47.0136 88.2273 44.4716C89.8045 42.0636 90.252 39.3616 90.3813 36.5396ZM60.0617 49.9736C58.7053 49.9796 57.3488 49.9416 55.9943 49.9856C53.6613 50.0616 51.7519 49.1836 50.2622 47.4496C48.502 45.4036 46.8034 43.3056 45.0869 41.2236C44.3689 40.3496 43.6867 39.4456 42.9647 38.5756C42.8295 38.4096 42.5908 38.2296 42.3979 38.2276C40.7073 38.1996 39.0147 38.2116 37.2584 38.2116C37.2485 38.4236 37.2266 38.6336 37.2286 38.8436C37.2743 41.4956 37.3042 44.1476 37.3877 46.7976C37.4056 47.3976 37.5627 48.0096 37.7517 48.5836C37.9685 49.2396 38.4816 49.5996 39.1957 49.6316C39.6332 49.6516 40.0708 49.6616 40.5104 49.6836C40.6933 49.6916 40.8743 49.7236 41.0593 49.7436C41.0553 49.7956 41.0494 49.8496 41.0454 49.9036C37.7596 49.9036 34.4759 49.9036 31.1901 49.9036C31.1862 49.8516 31.1822 49.8016 31.1802 49.7516C31.5024 49.7216 31.8246 49.6816 32.1468 49.6596C32.9782 49.6056 33.3621 49.3576 33.5271 48.5436C33.7141 47.6176 33.8891 46.6696 33.8951 45.7316C33.9448 39.6316 33.9548 33.5316 33.9568 27.4316C33.9568 26.3456 33.919 25.2536 33.7897 24.1776C33.6584 23.0956 33.0995 22.6316 32.0255 22.5076C31.5442 22.4496 31.0628 22.4016 30.5676 22.2096C30.8202 22.1736 31.0728 22.1056 31.3254 22.1076C34.9731 22.1236 38.6208 22.1056 42.2646 22.1896C44.2516 22.2336 46.1908 22.6496 47.8396 23.8436C50.2701 25.6056 51.0498 28.4876 49.9897 31.5376C49.2796 33.5796 47.9232 35.1676 46.3797 36.6276C46.1928 36.8036 45.9999 36.9736 45.8109 37.1496C45.7831 37.1756 45.7711 37.2156 45.7075 37.3256C46.7477 38.5616 47.7481 39.8176 48.8182 41.0116C50.6878 43.0956 52.5554 45.1816 54.5086 47.1836C55.6781 48.3836 57.0624 49.3336 58.8047 49.5756C59.1568 49.6256 59.5187 49.6136 59.8748 49.6456C60.1393 49.6696 60.4038 49.7176 60.6684 49.7516C60.6684 49.8076 60.6664 49.8616 60.6664 49.9156C60.4635 49.9356 60.2646 49.9736 60.0617 49.9736ZM46.4911 33.8896C47.0799 32.3576 47.2052 30.7756 46.9506 29.1656C46.5747 26.8036 45.5086 24.9096 43.1915 23.9176C41.4213 23.1616 39.5795 23.2756 37.7318 23.5216C37.2883 23.5816 37.2266 23.8636 37.2286 24.2436C37.2385 26.1636 37.2326 28.0836 37.2326 30.0056C37.2326 31.9456 37.2485 33.8856 37.2206 35.8256C37.2127 36.3456 37.4056 36.6216 37.8969 36.6696C39.2374 36.7996 40.58 36.9796 41.9245 37.0116C44.182 37.0616 45.6816 35.9956 46.4911 33.8896ZM12.2653 50.0736C10.4553 50.0996 8.64339 49.9416 6.83146 49.9176C5.29997 49.8976 3.76649 49.9576 2.23301 49.9736C2.03212 49.9776 1.83124 49.9456 1.63035 49.9296C1.63234 49.8716 1.63234 49.8116 1.63433 49.7516C1.97245 49.7216 2.31058 49.6816 2.65069 49.6576C3.46616 49.6016 3.8003 49.3836 3.98925 48.5756C4.16627 47.8116 4.33732 47.0216 4.34527 46.2416C4.41091 39.9276 4.45069 33.6156 4.46859 27.3016C4.47256 26.2376 4.41091 25.1616 4.2498 24.1116C4.08472 23.0356 3.5656 22.6296 2.49356 22.5076C2.0003 22.4496 1.50306 22.4396 1.00781 22.4056C1.00781 22.3256 1.00781 22.2476 1.00781 22.1676C2.05997 22.1696 3.11411 22.1696 4.16627 22.1696C6.67632 22.1696 9.18638 22.1476 11.6964 22.1796C12.9594 22.1956 14.1786 22.5056 15.3183 23.0556C18.2142 24.4476 19.2664 27.3916 17.9437 30.3416C17.4007 31.5556 16.5355 32.5356 15.6186 33.4716C15.372 33.7256 15.0856 33.9376 14.8608 34.1296C16.0204 34.7576 17.1462 35.2636 18.1605 35.9396C19.9804 37.1516 21.2772 38.8056 21.5596 41.0156C21.9793 44.3016 20.5791 46.7756 17.8204 48.5176C16.1358 49.5816 14.2383 50.0456 12.2653 50.0736ZM15.2427 27.7236C14.8091 25.3216 13.3453 23.6876 11.1097 23.3136C10.1689 23.1576 9.17245 23.3236 8.20185 23.3476C7.79809 23.3556 7.68472 23.5696 7.6887 23.9616C7.70859 25.5416 7.69665 27.1276 7.69665 28.7096H7.69864C7.69864 30.2936 7.71057 31.8756 7.69069 33.4596C7.68671 33.8216 7.78814 34.0356 8.15809 34.0476C9.35146 34.0856 10.5448 34.1296 11.7382 34.1396C13.2359 34.1516 14.1488 33.2936 14.8012 32.0556C15.5311 30.6676 15.5112 29.2036 15.2427 27.7236ZM17.8423 41.3416C17.0646 38.2816 15.193 36.1176 11.9928 35.4436C10.6323 35.1556 9.19035 35.2396 7.78615 35.1556C7.78615 38.8716 7.77621 42.4316 7.79013 45.9896C7.7961 47.6856 8.12627 48.2196 10.1908 48.6296C11.3046 48.8496 12.488 48.8596 13.6257 48.7716C15.9329 48.5976 17.7249 47.0336 18.0432 44.7996C18.2023 43.6716 18.1227 42.4456 17.8423 41.3416Z" stroke="#1E2533" mask="url(#path-1-outside-1_875_12653)"/>
<g filter="url(#filter0_d_875_12653)">
<path fill-rule="evenodd" clip-rule="evenodd" d="M259.999 26.01C258.978 26.3788 256.596 26.8908 254.89 26.8476C253.182 26.8064 249.513 27.0438 247.974 27.3263C246.435 27.6087 244.065 28.9662 243.922 29.2409C243.781 29.5155 244.039 30.9573 244.11 31.1555C244.182 31.3516 245.214 31.8715 245.792 32.4109C246.372 32.9504 247.758 34.9827 248.224 36.0596C248.687 37.1366 249.841 37.7938 249.781 37.9134C249.718 38.035 249.565 37.9997 249.033 37.6741C248.5 37.3504 247.224 36.2382 246.602 35.8792C245.979 35.5221 245.125 35.016 244.92 35.0435C244.716 35.069 245.044 35.9007 245.169 36.4775C245.121 36.2597 245.331 38.3568 245.669 39.3494C246.096 40.6048 248.596 41.7505 250.403 45.6895C251.32 47.6865 251.302 49.6697 252.958 53.3459C253.57 54.7034 255.587 57.385 255.513 57.4733C255.438 57.5615 254.952 57.0495 253.893 56.157C252.833 55.2644 250.692 52.8869 249.781 51.1331C248.87 49.3774 246.777 46.5114 245.419 45.6895C244.059 44.8695 243.127 44.4046 242.927 44.434C242.726 44.4615 242.603 44.6459 242.178 44.9715C241.755 45.2991 241.368 45.4502 241.368 45.4502C241.368 45.4502 241.344 45.5306 241.243 46.6468C241.144 47.763 240.685 49.1087 239.563 50.5937C238.438 52.0826 238.253 53.5813 238.128 53.646C238.003 53.7088 238.003 53.905 237.943 53.2262C237.878 52.5475 238.092 51.9433 238.253 50.7742C238.414 49.605 238.342 48.1259 238.128 48.1416C237.917 48.1592 237.705 48.6163 237.006 49.1597C236.309 49.7011 235.898 49.6462 234.826 51.0135C233.94 52.1434 233.843 54.6818 231.897 57.4733C230.388 59.6409 228.696 60.1372 225.79 63.9939C224.193 66.1164 223.536 68.031 223.423 67.9996C223.31 67.9702 223.687 66.8717 223.983 65.369C224.282 63.8664 225.156 62.4795 225.978 60.763C226.762 59.1289 228.085 57.2045 228.657 55.2605C229.02 54.0305 229.008 51.4882 228.782 51.2528C228.557 51.0174 227.239 50.4583 227.038 50.474C226.836 50.4897 226.403 50.7212 224.981 51.192C223.56 51.6648 221.318 51.4156 220.369 51.4313C219.422 51.447 218.153 51.906 218.002 51.7903C217.853 51.6765 218.59 51.2724 220.309 50.7133C222.027 50.1562 223.012 49.299 223.051 49.1597C223.085 49.0204 222.726 49.0008 222.176 48.8596C221.628 48.7203 220.571 48.1377 219.249 47.7826C217.925 47.4295 216.483 48.1749 213.453 48.5614C210.425 48.9478 206.389 46.9528 202.612 46.7076C199.987 46.535 197.966 46.941 198 46.7076C198.037 46.4722 201.006 45.8052 202.487 45.511C203.968 45.2148 208.845 45.1343 211.21 44.9127C213.578 44.689 215.512 42.9706 215.635 42.8196C215.758 42.6685 215.562 42.5037 215.51 41.9819C215.459 41.4582 215.385 40.9638 215.385 40.9638C215.385 40.9638 214.851 40.8167 213.515 39.5279C212.182 38.241 211.561 36.654 211.086 35.8203C210.612 34.9866 209.716 34.2059 209.716 34.2059C209.716 34.2059 210.068 34.2471 210.588 34.5648C211.148 34.9062 211.891 35.5359 212.208 35.8792C212.816 36.5422 214.502 37.1444 214.637 37.0758C214.774 37.0091 214.539 36.6893 214.39 35.94C214.238 35.1906 214.752 35.3495 213.828 33.0681C213.332 31.842 210.636 29.7136 209.341 26.9673C207.894 23.8973 208.321 22.6084 206.974 19.4913C206.031 17.31 203.734 14.6303 203.859 14.5263C203.98 14.4224 206.339 16.6646 207.161 17.5767C207.981 18.4909 211.718 24.3092 212.83 25.4136C213.942 26.5161 216.422 27.7539 216.569 27.7461C216.714 27.7363 217.055 27.4185 217.317 27.2066C217.581 26.9947 218.189 26.6083 218.189 26.6083C218.189 26.6083 218.151 25.2135 218.689 23.858C219.223 22.5005 220.222 21.4079 220.806 20.2093C221.294 19.2089 221.473 17.8671 221.554 18.893C221.6 19.4658 221.264 20.6154 221.181 21.6433C221.096 22.6712 220.994 23.5069 221.243 23.9169C221.304 24.0169 221.312 24.1013 221.306 24.1621C221.346 24.0797 221.431 23.9443 221.679 23.6795C222.446 22.8517 224.298 22.4103 224.981 20.686C225.666 18.9636 226.042 17.7062 227.225 15.4248C228.408 13.1414 230.612 11.7643 232.332 10.04C234.057 8.31568 236.196 4 236.196 4C236.196 4 236.007 5.27509 235.58 6.70711C235.241 7.84684 234.705 9.08466 234.329 9.85952C233.474 11.6133 230.962 16.133 230.714 17.3374C230.464 18.5439 230.543 20.6527 230.652 20.9273C230.706 21.0646 231.123 21.149 231.552 21.3137C231.977 21.4766 232.413 21.7218 232.521 21.7041C232.735 21.6708 233.561 21.0038 235.449 20.7468C237.336 20.4918 237.79 20.7468 239.125 20.7468C240.266 20.7488 241.42 20.1897 241.493 20.2682C241.642 20.429 241.519 20.4231 241.057 20.7468C240.594 21.0724 239.313 21.3785 238.316 21.8238C237.32 22.2691 236.462 22.8144 236.446 22.9596C236.412 23.2597 237.772 23.2342 239.063 23.9777C239.964 24.4956 240.131 24.3465 241.057 24.3955C242.536 24.474 245.399 23.4539 247.414 23.6167C248.975 23.7442 250.526 23.9581 252.521 24.576C254.517 25.192 257.487 25.6176 259.189 25.5333C260.89 25.447 262.098 25.19 261.994 25.3528C261.887 25.5156 261.021 25.6432 259.999 26.01ZM241.692 31.8107C240.586 28.98 237.757 25.551 233.027 24.2347C227.835 22.787 223.504 25.4333 221.888 26.5259C220.274 27.6166 216.459 30.7631 217.266 38.2783C218.006 45.1559 225.242 48.6006 230.259 48.2848C236.794 47.8728 241.34 42.7136 241.902 39.9124C242.383 37.5132 242.74 34.4903 241.692 31.8107ZM230.215 47.3648C225.396 47.3373 219.188 44.3752 218.377 38.0919C217.454 30.9495 221.072 28.3875 222.551 27.3871C224.03 26.3866 227.461 23.758 232.521 25.2351C237.999 26.83 239.951 29.9059 240.683 32.1716C241.414 34.4373 241.374 37.3916 240.933 39.5887C240.417 42.1526 235.801 47.3981 230.215 47.3648ZM239.748 33.1877C238.942 30.2413 237.431 28.7897 235.324 28.2836C232.961 27.7166 230.446 28.2894 228.47 30.4375C226.796 32.256 226.995 32.7621 226.725 32.5894C226.457 32.4188 226.623 30.2629 227.785 28.4032C228.947 26.5455 230.511 26.0767 230.527 25.8903C230.543 25.7059 228.142 25.6216 226.6 26.3709C225.061 27.1183 223.619 27.5107 221.991 29.4194C220.363 31.33 219.112 32.5463 220.059 35.7007C220.337 36.6285 221.529 38.8609 224.108 39.7084C226.53 40.5048 228.142 40.0497 228.283 40.3655C228.426 40.6833 225.619 41.7093 222.863 41.4425C220.587 41.2208 220.341 40.0595 219.996 40.4263C219.652 40.7912 222.684 44.1751 226.165 45.3894C227.988 46.0269 230.487 46.5232 232.397 45.7503C234.131 45.0461 235.425 43.2158 235.823 41.3228C236.52 37.9978 234.314 35.5692 234.389 35.3417C234.466 35.1141 236.267 35.9086 237.506 38.1527C238.743 40.3969 238.414 41.3463 238.44 41.4425C238.465 41.5386 238.773 41.4346 239.063 40.903C239.353 40.3734 240.554 36.1361 239.748 33.1877Z" fill="url(#paint0_linear_875_12653)"/>
</g>
<defs>
<filter id="filter0_d_875_12653" x="194" y="0" width="72" height="72" filterUnits="userSpaceOnUse" color-interpolation-filters="sRGB">
<feFlood flood-opacity="0" result="BackgroundImageFix"/>
<feColorMatrix in="SourceAlpha" type="matrix" values="0 0 0 0 0 0 0 0 0 0 0 0 0 0 0 0 0 0 127 0" result="hardAlpha"/>
<feOffset/>
<feGaussianBlur stdDeviation="2"/>
<feColorMatrix type="matrix" values="0 0 0 0 0 0 0 0 0 0 0 0 0 0 0 0 0 0 0.2 0"/>
<feBlend mode="normal" in2="BackgroundImageFix" result="effect1_dropShadow_875_12653"/>
<feBlend mode="normal" in="SourceGraphic" in2="effect1_dropShadow_875_12653" result="shape"/>
</filter>
<linearGradient id="paint0_linear_875_12653" x1="198.598" y1="69.2429" x2="198.598" y2="2.54598" gradientUnits="userSpaceOnUse">
<stop stop-color="#7D5C2C"/>
<stop offset="1" stop-color="#C6B073"/>
</linearGradient>
</defs>
</svg>
