<svg width="32" height="33" viewBox="0 0 32 33" fill="none" xmlns="http://www.w3.org/2000/svg">
<g id="Opera">
<path id="Shape" fill-rule="evenodd" clip-rule="evenodd" d="M10.8608 25.3013C9.12744 23.2627 8.0166 20.2476 7.94336 16.8662V16.1338C8.0166 12.7524 9.13965 9.7373 10.8608 7.69873C13.1069 4.79346 16.4028 3.4873 20.126 3.4873C22.4209 3.4873 24.5815 3.646 26.4126 4.8667C23.666 2.38867 20.0405 0.887207 16.061 0.875H16C7.36963 0.875 0.375 7.86963 0.375 16.5C0.375 24.874 6.9668 31.7222 15.2554 32.1128C15.4995 32.125 15.7559 32.125 16 32.125C20.0039 32.125 23.6538 30.6235 26.4126 28.1455C24.5815 29.3662 22.543 29.415 20.248 29.415C16.5371 29.4272 13.0947 28.2188 10.8608 25.3013Z" fill="url(#paint0_linear_8050_6340)"/>
<path id="Shape_2" fill-rule="evenodd" clip-rule="evenodd" d="M10.8613 7.69873C12.2896 6.00195 14.145 4.98877 16.1714 4.98877C20.7246 4.98877 24.4111 10.1401 24.4111 16.5122C24.4111 22.8843 20.7246 28.0356 16.1714 28.0356C14.145 28.0356 12.3018 27.0103 10.8613 25.3257C13.1074 28.231 16.4399 30.0864 20.1509 30.0864C22.4336 30.0864 24.582 29.3906 26.4131 28.1699C29.6113 25.2891 31.6255 21.1265 31.6255 16.5C31.6255 11.8735 29.6113 7.71094 26.4131 4.85449C24.582 3.63379 22.4458 2.93799 20.1509 2.93799C16.4277 2.93799 13.0952 4.78125 10.8613 7.69873Z" fill="url(#paint1_linear_8050_6340)"/>
</g>
<defs>
<linearGradient id="paint0_linear_8050_6340" x1="0.777373" y1="1.3845" x2="0.777373" y2="31.6703" gradientUnits="userSpaceOnUse">
<stop offset="0.3" stop-color="#FF1B2D"/>
<stop offset="0.4381" stop-color="#FA1A2C"/>
<stop offset="0.5939" stop-color="#ED1528"/>
<stop offset="0.7581" stop-color="#D60E21"/>
<stop offset="0.9272" stop-color="#B70519"/>
<stop offset="1" stop-color="#A70014"/>
</linearGradient>
<linearGradient id="paint1_linear_8050_6340" x1="10.9978" y1="3.16956" x2="10.9978" y2="29.9558" gradientUnits="userSpaceOnUse">
<stop stop-color="#9C0000"/>
<stop offset="0.7" stop-color="#FF4B4B"/>
</linearGradient>
</defs>
</svg>
