<svg width="32" height="33" viewBox="0 0 32 33" fill="none" xmlns="http://www.w3.org/2000/svg">
<g id="Group">
<path id="Vector" d="M16 32.5C24.8366 32.5 32 25.3366 32 16.5C32 7.66344 24.8366 0.5 16 0.5C7.16344 0.5 0 7.66344 0 16.5C0 25.3366 7.16344 32.5 16 32.5Z" fill="url(#paint0_linear_8050_6337)"/>
<path id="Vector_2" fill-rule="evenodd" clip-rule="evenodd" d="M26.2998 9.90003L17.7369 18.2746V28.6891C17.7369 28.8768 16.9238 29.0266 15.9987 29.0382C15.1114 29.0266 14.2605 28.8768 14.2605 28.6891V18.2746L5.70126 9.90076C5.56308 9.76258 6.0009 9.11312 6.67581 8.43894C7.35072 7.76258 8.01399 7.32621 8.13762 7.46294L15.9878 15.1255L23.8373 7.46149C23.9754 7.3233 24.6242 7.76185 25.2991 8.43603C25.9754 9.1124 26.4242 9.76185 26.2998 9.8993V9.90003Z" fill="#EC1C24"/>
</g>
<defs>
<linearGradient id="paint0_linear_8050_6337" x1="16" y1="0.5" x2="16" y2="32.5" gradientUnits="userSpaceOnUse">
<stop stop-color="white"/>
<stop offset="1" stop-color="#EDEDEE"/>
</linearGradient>
</defs>
</svg>
