<svg width="32" height="33" viewBox="0 0 32 33" fill="none" xmlns="http://www.w3.org/2000/svg">
<g id="Google Chrome">
<path id="Shape" fill-rule="evenodd" clip-rule="evenodd" d="M15.9764 0.879227C15.9764 0.879227 25.1351 0.468179 29.9906 9.67397H15.1972C15.1972 9.67397 12.4055 9.58405 10.0205 12.9709C9.33543 14.3925 8.59897 15.8568 9.42535 18.7427C8.23502 16.726 3.10547 7.79427 3.10547 7.79427C3.10547 7.79427 6.72356 1.24318 15.9764 0.879227Z" fill="#EF3F36"/>
<path id="Shape_2" fill-rule="evenodd" clip-rule="evenodd" d="M29.5148 24.2494C29.5148 24.2494 25.2887 32.389 14.8926 31.9865C16.1771 29.7643 22.2915 19.1755 22.2915 19.1755C22.2915 19.1755 23.7687 16.8034 22.026 13.044C21.1397 11.7381 20.2362 10.3722 17.3246 9.64428C19.6667 9.62287 29.9644 9.64428 29.9644 9.64428C29.9644 9.64428 33.8222 16.0541 29.5148 24.2494Z" fill="#FCD900"/>
<path id="Shape_3" fill-rule="evenodd" clip-rule="evenodd" d="M2.50192 24.3131C2.50192 24.3131 -2.43495 16.5846 3.11421 7.78125C4.39446 10.0035 10.5088 20.5923 10.5088 20.5923C10.5088 20.5923 11.8276 23.0586 15.9509 23.4268C17.5223 23.3112 19.158 23.2127 21.2475 21.059C20.0957 23.0971 14.9276 32.0032 14.9276 32.0032C14.9276 32.0032 7.44307 32.1402 2.50192 24.3131Z" fill="#61BC5B"/>
<path id="Shape_4" fill-rule="evenodd" clip-rule="evenodd" d="M14.8887 32.0632L16.9696 23.3798C16.9696 23.3798 19.2561 23.2 21.1743 21.0977C19.984 23.1914 14.8887 32.0632 14.8887 32.0632Z" fill="#5AB055"/>
<path id="Shape_5" fill-rule="evenodd" clip-rule="evenodd" d="M9.00586 16.5679C9.00586 12.74 12.1101 9.63574 15.938 9.63574C19.7659 9.63574 22.8702 12.74 22.8702 16.5679C22.8702 20.3958 19.7659 23.5001 15.938 23.5001C12.1101 23.4958 9.00586 20.3958 9.00586 16.5679Z" fill="white"/>
<path id="Shape_6" fill-rule="evenodd" clip-rule="evenodd" d="M10.166 16.5677C10.166 13.3821 12.7479 10.7959 15.9378 10.7959C19.1235 10.7959 21.7096 13.3778 21.7096 16.5677C21.7096 19.7533 19.1277 22.3395 15.9378 22.3395C12.7522 22.3395 10.166 19.7533 10.166 16.5677Z" fill="url(#paint0_linear_8050_6336)"/>
<path id="Shape_7" fill-rule="evenodd" clip-rule="evenodd" d="M29.9601 9.64829L21.3923 12.1617C21.3923 12.1617 20.0992 10.2649 17.3203 9.64829C19.7309 9.63544 29.9601 9.64829 29.9601 9.64829Z" fill="#EACA05"/>
<path id="Shape_8" fill-rule="evenodd" clip-rule="evenodd" d="M9.25836 18.426C8.05518 16.3408 3.10547 7.79443 3.10547 7.79443L9.45104 14.0715C9.45104 14.0715 8.80021 15.4117 9.04427 17.3299L9.25836 18.426Z" fill="#DF3A32"/>
</g>
<defs>
<linearGradient id="paint0_linear_8050_6336" x1="10.3802" y1="10.8774" x2="10.3802" y2="21.992" gradientUnits="userSpaceOnUse">
<stop stop-color="#86BBE5"/>
<stop offset="1" stop-color="#1072BA"/>
</linearGradient>
</defs>
</svg>
