<svg width="375" height="18" viewBox="0 0 375 18" fill="none" xmlns="http://www.w3.org/2000/svg">
<path fill-rule="evenodd" clip-rule="evenodd" d="M89.6293 4.6764C86.4289 3.21061 83.4862 3.82697 80.8489 6.08877C78.858 7.79602 77.0079 9.69528 74.9879 11.6104C74.058 10.9576 73.0773 10.2694 71.9336 9.46642C75.7062 6.04911 78.652 1.67436 83.6801 0.425764C86.9167 -0.378171 89.9369 0.261524 92.8622 2.25783C92.0054 3.10283 91.2609 3.88296 90.4617 4.59055C90.2788 4.75269 89.8616 4.78278 89.6293 4.6764ZM74.3563 4.66287C71.2345 3.2386 68.3495 3.81461 65.7396 5.97702C64.1757 7.27274 62.7599 8.77866 61.281 10.1943C60.7995 10.6551 60.3291 11.1296 59.787 11.6634C58.7701 10.932 57.7994 10.2337 56.6429 9.40226C59.172 7.04994 61.4471 4.65494 63.9805 2.6402C68.1824 -0.701752 73.5109 -0.747711 77.5866 2.28559C76.7848 3.07903 76.0201 3.8825 75.1989 4.61154C75.0194 4.77065 74.596 4.77228 74.3563 4.66287ZM59.1944 4.6883C55.7212 3.10166 52.6447 3.97815 49.8745 6.47977C48.2765 7.9227 46.7563 9.46968 45.2468 11.0216C44.764 11.5178 44.3718 11.5824 43.8481 11.1881C43.1134 10.635 42.364 10.1042 41.478 9.46012C45.2636 5.98939 48.2737 1.57638 53.412 0.357175C56.4171 -0.355775 59.8374 0.36814 62.3236 2.30402C61.5092 3.11216 60.7907 3.8706 60.0191 4.55905C59.8316 4.72633 59.4194 4.79095 59.1944 4.6883ZM43.8207 4.64561C40.961 3.35642 38.2078 3.66483 35.7633 5.62241C33.7535 7.23238 31.9232 9.11274 30.0758 10.9467C29.5186 11.4996 29.1079 11.5966 28.5147 11.1328C27.8192 10.5888 27.0964 10.0856 26.2247 9.44705C29.9632 6.05727 32.906 1.70119 37.9224 0.430896C41.1048 -0.374905 44.2051 0.239594 47.1138 2.27719C46.2641 3.11449 45.4946 3.92076 44.6665 4.64911C44.4941 4.80098 44.0685 4.75735 43.8207 4.64561ZM27.0552 4.21564C24.5274 3.21294 22.0672 4.21611 20.0035 5.97865C18.2588 7.46871 16.6144 9.10644 15.0073 10.771C14.3067 11.4968 13.7581 11.6242 13.0038 10.9665C12.4194 10.4572 11.7776 10.0252 11.005 9.44029C14.7321 6.02765 17.6962 1.69256 22.7221 0.413632C25.8178 -0.374439 29.1001 0.281354 31.8587 2.28186C31.5694 2.57301 31.338 2.76105 31.1572 2.99504C30.0478 4.43237 28.9312 4.95985 27.0552 4.21564ZM13.4149 4.67267C10.1619 3.18821 7.19286 3.865 4.52793 6.16109C2.78885 7.65955 1.17703 9.33507 -0.446003 10.984C-0.958538 11.5047 -1.37249 11.5964 -1.93551 11.1599C-2.6629 10.5963 -3.41251 10.0662 -4.34137 9.38266C-1.7597 7.00679 0.59697 4.53129 3.2358 2.48039C7.36716 -0.72998 12.4774 -0.701752 16.6116 2.28116C15.7884 3.09933 15.0472 3.88273 14.2502 4.59311C14.0683 4.75525 13.649 4.77952 13.4149 4.67267ZM-1.85915 4.6715C-4.97104 3.24607 -7.85255 3.80458 -10.4612 5.96839C-12.0225 7.26318 -13.4454 8.75393 -14.9241 10.1644C-15.4062 10.6245 -15.8685 11.1093 -16.4138 11.6571C-17.4193 10.9478 -18.4016 10.255 -19.6034 9.40716C-16.9982 7.00049 -14.692 4.58868 -12.1252 2.56321C-7.96472 -0.720182 -2.77118 -0.729747 1.36772 2.28023C0.539165 3.09886 -0.257038 3.92356 -1.10178 4.6848C-1.2517 4.81988 -1.63718 4.77345 -1.85915 4.6715ZM-17.086 4.67453C-20.2917 3.20314 -23.2349 3.83864 -25.8768 6.10207C-27.6475 7.61918 -29.2937 9.31057 -30.9493 10.9779C-31.4547 11.487 -31.8462 11.6202 -32.4183 11.1629C-33.136 10.5895 -33.8907 10.0697 -34.8015 9.40039C-32.3145 7.07094 -30.1138 4.76015 -27.6801 2.78531C-23.4139 -0.676556 -18.1126 -0.801135 -13.8759 2.27836C-14.7006 3.09559 -15.4897 3.91562 -16.3273 4.67267C-16.4796 4.81008 -16.8653 4.77578 -17.086 4.67453ZM-32.4427 4.63534C-33.5191 4.42281 -34.5922 4.19068 -35.6665 3.75605C-35.6665 2.64393 -35.6665 1.32208 -35.6665 0C-33.3717 0.239127 -31.146 0.711317 -29.131 2.27976C-29.9568 3.10562 -30.7389 3.93779 -31.5826 4.68877C-31.7463 4.83457 -32.1551 4.69203 -32.4427 4.63534ZM-24.8989 13.4551C-24.6711 13.3601 -24.2697 13.4733 -24.0632 13.6478C-23.2727 14.3155 -22.5291 15.0478 -21.6475 15.8683C-22.0116 16.1051 -22.316 16.3381 -22.6467 16.5126C-26.4359 18.5131 -30.1895 18.4012 -33.8987 16.2581C-34.4973 15.9124 -35.0776 15.5298 -35.6665 14.9542C-35.6665 13.6088 -35.6665 12.0537 -35.6665 10.2883C-35.0101 10.9457 -34.3241 11.3503 -33.7022 11.8484C-31.014 14.0017 -28.1364 14.8056 -24.8989 13.4551ZM-24.6485 6.99909C-24.4125 6.85584 -23.862 7.05228 -23.5936 7.28137C-21.737 8.86708 -19.9658 10.5734 -18.0729 12.105C-15.551 14.1451 -12.7613 14.7053 -9.73422 13.4961C-9.47299 13.3918 -9.03164 13.4812 -8.80601 13.6676C-8.01153 14.3234 -7.27465 15.0606 -6.36822 15.9042C-10.2219 18.3022 -14.0256 18.6389 -17.9173 16.6461C-21.4766 14.8236 -24.2796 11.9218 -27.1702 8.86101C-26.2914 8.19402 -25.509 7.52143 -24.6485 6.99909ZM-11.8247 9.01266C-11.7194 8.81646 -11.6966 8.73504 -11.6465 8.68628C-9.29416 6.39929 -9.2946 6.43475 -6.93339 8.63262C-5.54829 9.92204 -4.09567 11.137 -2.60358 12.2788C-0.127609 14.1734 2.56731 14.6605 5.46737 13.5029C5.71695 13.403 6.1281 13.4112 6.3203 13.5715C7.16374 14.2735 7.95412 15.0499 8.864 15.8921C5.22274 18.2245 1.48895 18.7546 -2.20904 16.8075C-4.53271 15.5841 -6.60184 13.7639 -8.70483 12.0936C-9.82547 11.2035 -10.7755 10.0627 -11.8247 9.01266ZM5.96545 6.92187C6.16067 6.79985 6.66566 7.06628 6.92732 7.29094C8.86249 8.95177 10.7116 10.7374 12.7052 12.3094C15.1184 14.2121 17.8058 14.6348 20.6681 13.5302C20.963 13.4163 21.4447 13.4791 21.6899 13.6769C22.4909 14.3232 23.2224 15.0697 24.1223 15.9098C19.8911 18.5043 15.7962 18.6202 11.6407 16.137C8.52425 14.2749 5.99349 11.6417 3.30375 8.87595C4.2173 8.18749 5.05665 7.48994 5.96545 6.92187ZM21.1627 6.94636C21.3666 6.81898 21.8761 7.04365 22.1289 7.26294C23.8346 8.7418 25.4774 10.3067 27.201 11.7604C29.8663 14.008 32.7919 14.8317 36.0752 13.4532C36.3018 13.358 36.7034 13.4772 36.9111 13.6527C37.7015 14.3197 38.4455 15.0506 39.3621 15.9021C35.3248 18.414 31.374 18.6256 27.3513 16.403C24.0125 14.5578 21.3476 11.7837 18.5524 8.87128C19.4635 8.18189 20.2785 7.49927 21.1627 6.94636ZM34.0892 8.67671C36.4635 6.40862 36.4307 6.45131 38.8081 8.64055C40.3082 10.0219 41.8706 11.3428 43.5036 12.5324C45.8473 14.2396 48.4059 14.58 51.1094 13.5474C51.4285 13.4257 51.9451 13.519 52.2225 13.7348C53.0058 14.3444 53.7125 15.0697 54.5678 15.8587C53.215 16.8616 51.7706 17.4178 50.2285 17.7297C46.2084 18.5425 42.7874 16.9862 39.6943 14.4405C37.6718 12.7759 35.8022 10.8939 33.8553 9.10108C34.0158 8.80619 34.0389 8.72477 34.0892 8.67671ZM49.3831 8.64265C51.7165 6.41725 51.6811 6.46274 53.9994 8.60742C55.4943 9.99063 57.0623 11.298 58.6881 12.4953C61.058 14.2403 63.6433 14.5795 66.3807 13.5418C66.6954 13.4226 67.2069 13.5299 67.4837 13.7469C68.2641 14.3584 68.9699 15.0816 69.8019 15.8503C68.0098 17.1876 66.0586 17.7957 63.9658 17.9122C61.6126 18.0433 59.438 17.384 57.3798 16.1489C54.2675 14.2812 51.7348 11.6517 49.1255 8.97253C49.2467 8.81575 49.305 8.71707 49.3831 8.64265ZM66.5895 7.07957C67.0889 6.66781 67.4239 6.81432 67.8825 7.23588C69.7126 8.91724 71.5415 10.6098 73.4669 12.1584C75.9632 14.1664 78.7282 14.6869 81.7132 13.5017C81.9775 13.3967 82.4203 13.4723 82.6447 13.6569C83.4422 14.3122 84.181 15.0513 85.0978 15.9033C81.251 18.2978 77.4503 18.6386 73.5592 16.6538C69.9954 14.8357 67.1916 11.9279 64.3051 8.87595C65.1028 8.25142 65.858 7.68264 66.5895 7.07957ZM79.4534 8.91491C80.4319 8.17956 81.251 7.49857 82.1386 6.94636C82.342 6.81992 82.8494 7.04668 83.1013 7.26621C84.7503 8.70074 86.3394 10.2165 88.0013 11.633C90.7132 13.9445 93.6849 14.8716 97.0613 13.4511C97.2854 13.3566 97.6853 13.4854 97.8944 13.662C98.6854 14.3297 99.4313 15.0599 100.278 15.8438C99.0167 16.8539 97.6191 17.3989 96.1507 17.6978C93.2537 18.2871 90.4954 17.7965 87.948 16.176C86.8054 15.449 85.6565 14.6992 84.6305 13.7996C82.9055 12.2872 81.2762 10.6469 79.4534 8.91491Z" fill="url(#paint0_linear_11443_13491)" fill-opacity="0.3"/>
<path fill-rule="evenodd" clip-rule="evenodd" d="M333.629 4.6764C330.429 3.21061 327.486 3.82697 324.849 6.08877C322.858 7.79602 321.008 9.69528 318.988 11.6104C318.058 10.9576 317.077 10.2694 315.934 9.46642C319.706 6.04911 322.652 1.67436 327.68 0.425764C330.917 -0.378171 333.937 0.261524 336.862 2.25783C336.005 3.10283 335.261 3.88296 334.462 4.59055C334.279 4.75269 333.862 4.78278 333.629 4.6764ZM318.356 4.66287C315.234 3.2386 312.35 3.81461 309.74 5.97702C308.176 7.27274 306.76 8.77866 305.281 10.1943C304.8 10.6551 304.329 11.1296 303.787 11.6634C302.77 10.932 301.799 10.2337 300.643 9.40226C303.172 7.04994 305.447 4.65494 307.98 2.6402C312.182 -0.701752 317.511 -0.747711 321.587 2.28559C320.785 3.07903 320.02 3.8825 319.199 4.61154C319.019 4.77065 318.596 4.77228 318.356 4.66287ZM303.194 4.6883C299.721 3.10166 296.645 3.97815 293.874 6.47977C292.276 7.9227 290.756 9.46968 289.247 11.0216C288.764 11.5178 288.372 11.5824 287.848 11.1881C287.113 10.635 286.364 10.1042 285.478 9.46012C289.264 5.98939 292.274 1.57638 297.412 0.357175C300.417 -0.355775 303.837 0.36814 306.324 2.30402C305.509 3.11216 304.791 3.8706 304.019 4.55905C303.832 4.72633 303.419 4.79095 303.194 4.6883ZM287.821 4.64561C284.961 3.35642 282.208 3.66483 279.763 5.62241C277.754 7.23238 275.923 9.11274 274.076 10.9467C273.519 11.4996 273.108 11.5966 272.515 11.1328C271.819 10.5888 271.096 10.0856 270.225 9.44705C273.963 6.05727 276.906 1.70119 281.922 0.430896C285.105 -0.374905 288.205 0.239594 291.114 2.27719C290.264 3.11449 289.495 3.92076 288.667 4.64911C288.494 4.80098 288.069 4.75735 287.821 4.64561ZM271.055 4.21564C268.527 3.21294 266.067 4.21611 264.003 5.97865C262.259 7.46871 260.614 9.10644 259.007 10.771C258.307 11.4968 257.758 11.6242 257.004 10.9665C256.419 10.4572 255.778 10.0252 255.005 9.44029C258.732 6.02765 261.696 1.69256 266.722 0.413632C269.818 -0.374439 273.1 0.281354 275.859 2.28186C275.569 2.57301 275.338 2.76105 275.157 2.99504C274.048 4.43237 272.931 4.95985 271.055 4.21564ZM257.415 4.67267C254.162 3.18821 251.193 3.865 248.528 6.16109C246.789 7.65955 245.177 9.33507 243.554 10.984C243.041 11.5047 242.628 11.5964 242.064 11.1599C241.337 10.5963 240.587 10.0662 239.659 9.38266C242.24 7.00679 244.597 4.53129 247.236 2.48039C251.367 -0.72998 256.477 -0.701752 260.612 2.28116C259.788 3.09933 259.047 3.88273 258.25 4.59311C258.068 4.75525 257.649 4.77952 257.415 4.67267ZM242.141 4.6715C239.029 3.24607 236.147 3.80458 233.539 5.96839C231.977 7.26318 230.555 8.75393 229.076 10.1644C228.594 10.6245 228.132 11.1093 227.586 11.6571C226.581 10.9478 225.598 10.255 224.397 9.40716C227.002 7.00049 229.308 4.58868 231.875 2.56321C236.035 -0.720182 241.229 -0.729747 245.368 2.28023C244.539 3.09886 243.743 3.92356 242.898 4.6848C242.748 4.81988 242.363 4.77345 242.141 4.6715ZM226.914 4.67453C223.708 3.20314 220.765 3.83864 218.123 6.10207C216.352 7.61918 214.706 9.31057 213.051 10.9779C212.545 11.487 212.154 11.6202 211.582 11.1629C210.864 10.5895 210.109 10.0697 209.199 9.40039C211.685 7.07094 213.886 4.76015 216.32 2.78531C220.586 -0.676556 225.887 -0.801135 230.124 2.27836C229.299 3.09559 228.51 3.91562 227.673 4.67267C227.52 4.81008 227.135 4.77578 226.914 4.67453ZM219.352 6.99909C219.588 6.85584 220.138 7.05228 220.406 7.28137C222.263 8.86708 224.034 10.5734 225.927 12.105C228.449 14.1451 231.239 14.7053 234.266 13.4961C234.527 13.3918 234.968 13.4812 235.194 13.6676C235.988 14.3234 236.725 15.0606 237.632 15.9042C233.778 18.3022 229.974 18.6389 226.083 16.6461C222.523 14.8236 219.72 11.9218 216.83 8.86101C217.709 8.19402 218.491 7.52143 219.352 6.99909ZM232.175 9.01266C232.281 8.81646 232.303 8.73504 232.353 8.68628C234.706 6.39929 234.705 6.43475 237.067 8.63262C238.452 9.92204 239.904 11.137 241.396 12.2788C243.872 14.1734 246.567 14.6605 249.467 13.5029C249.717 13.403 250.128 13.4112 250.32 13.5715C251.164 14.2735 251.954 15.0499 252.864 15.8921C249.223 18.2245 245.489 18.7546 241.791 16.8075C239.467 15.5841 237.398 13.7639 235.295 12.0936C234.175 11.2035 233.225 10.0627 232.175 9.01266ZM249.965 6.92187C250.161 6.79985 250.666 7.06628 250.927 7.29094C252.862 8.95177 254.712 10.7374 256.705 12.3094C259.118 14.2121 261.806 14.6348 264.668 13.5302C264.963 13.4163 265.445 13.4791 265.69 13.6769C266.491 14.3232 267.222 15.0697 268.122 15.9098C263.891 18.5043 259.796 18.6202 255.641 16.137C252.524 14.2749 249.993 11.6417 247.304 8.87595C248.217 8.18749 249.057 7.48994 249.965 6.92187ZM265.163 6.94636C265.367 6.81898 265.876 7.04365 266.129 7.26294C267.835 8.7418 269.477 10.3067 271.201 11.7604C273.866 14.008 276.792 14.8317 280.075 13.4532C280.302 13.358 280.703 13.4772 280.911 13.6527C281.702 14.3197 282.446 15.0506 283.362 15.9021C279.325 18.414 275.374 18.6256 271.351 16.403C268.013 14.5578 265.348 11.7837 262.552 8.87128C263.464 8.18189 264.279 7.49927 265.163 6.94636ZM278.089 8.67671C280.464 6.40862 280.431 6.45131 282.808 8.64055C284.308 10.0219 285.871 11.3428 287.504 12.5324C289.847 14.2396 292.406 14.58 295.109 13.5474C295.428 13.4257 295.945 13.519 296.223 13.7348C297.006 14.3444 297.712 15.0697 298.568 15.8587C297.215 16.8616 295.771 17.4178 294.228 17.7297C290.208 18.5425 286.787 16.9862 283.694 14.4405C281.672 12.7759 279.802 10.8939 277.855 9.10108C278.016 8.80619 278.039 8.72477 278.089 8.67671ZM293.383 8.64265C295.716 6.41725 295.681 6.46274 297.999 8.60742C299.494 9.99063 301.062 11.298 302.688 12.4953C305.058 14.2403 307.643 14.5795 310.381 13.5418C310.695 13.4226 311.207 13.5299 311.484 13.7469C312.264 14.3584 312.97 15.0816 313.802 15.8503C312.01 17.1876 310.059 17.7957 307.966 17.9122C305.613 18.0433 303.438 17.384 301.38 16.1489C298.267 14.2812 295.735 11.6517 293.126 8.97253C293.247 8.81575 293.305 8.71707 293.383 8.64265ZM310.59 7.07957C311.089 6.66781 311.424 6.81432 311.883 7.23588C313.713 8.91724 315.541 10.6098 317.467 12.1584C319.963 14.1664 322.728 14.6869 325.713 13.5017C325.977 13.3967 326.42 13.4723 326.645 13.6569C327.442 14.3122 328.181 15.0513 329.098 15.9033C325.251 18.2978 321.45 18.6386 317.559 16.6538C313.995 14.8357 311.192 11.9279 308.305 8.87595C309.103 8.25142 309.858 7.68264 310.59 7.07957ZM323.453 8.91491C324.432 8.17956 325.251 7.49857 326.139 6.94636C326.342 6.81992 326.849 7.04668 327.101 7.26621C328.75 8.70074 330.339 10.2165 332.001 11.633C334.713 13.9445 337.685 14.8716 341.061 13.4511C341.285 13.3566 341.685 13.4854 341.894 13.662C342.685 14.3297 343.431 15.0599 344.278 15.8438C343.017 16.8539 341.619 17.3989 340.151 17.6978C337.254 18.2871 334.495 17.7965 331.948 16.176C330.805 15.449 329.656 14.6992 328.631 13.7996C326.905 12.2872 325.276 10.6469 323.453 8.91491Z" fill="url(#paint1_linear_11443_13491)" fill-opacity="0.3"/>
<path fill-rule="evenodd" clip-rule="evenodd" d="M211.629 4.6764C208.429 3.21061 205.486 3.82697 202.849 6.08877C200.858 7.79602 199.008 9.69528 196.988 11.6104C196.058 10.9576 195.077 10.2694 193.934 9.46642C197.706 6.04911 200.652 1.67436 205.68 0.425764C208.917 -0.378171 211.937 0.261524 214.862 2.25783C214.005 3.10283 213.261 3.88296 212.462 4.59055C212.279 4.75269 211.862 4.78278 211.629 4.6764ZM196.356 4.66287C193.234 3.2386 190.35 3.81461 187.74 5.97702C186.176 7.27274 184.76 8.77866 183.281 10.1943C182.8 10.6551 182.329 11.1296 181.787 11.6634C180.77 10.932 179.799 10.2337 178.643 9.40226C181.172 7.04994 183.447 4.65494 185.98 2.6402C190.182 -0.701752 195.511 -0.747711 199.587 2.28559C198.785 3.07903 198.02 3.8825 197.199 4.61154C197.019 4.77065 196.596 4.77228 196.356 4.66287ZM181.194 4.6883C177.721 3.10166 174.645 3.97815 171.874 6.47977C170.276 7.9227 168.756 9.46968 167.247 11.0216C166.764 11.5178 166.372 11.5824 165.848 11.1881C165.113 10.635 164.364 10.1042 163.478 9.46012C167.264 5.98939 170.274 1.57638 175.412 0.357175C178.417 -0.355775 181.837 0.36814 184.324 2.30402C183.509 3.11216 182.791 3.8706 182.019 4.55905C181.832 4.72633 181.419 4.79095 181.194 4.6883ZM165.821 4.64561C162.961 3.35642 160.208 3.66483 157.763 5.62241C155.754 7.23238 153.923 9.11274 152.076 10.9467C151.519 11.4996 151.108 11.5966 150.515 11.1328C149.819 10.5888 149.096 10.0856 148.225 9.44705C151.963 6.05727 154.906 1.70119 159.922 0.430896C163.105 -0.374905 166.205 0.239594 169.114 2.27719C168.264 3.11449 167.495 3.92076 166.666 4.64911C166.494 4.80098 166.069 4.75735 165.821 4.64561ZM149.055 4.21564C146.527 3.21294 144.067 4.21611 142.003 5.97865C140.259 7.46871 138.614 9.10644 137.007 10.771C136.307 11.4968 135.758 11.6242 135.004 10.9665C134.419 10.4572 133.778 10.0252 133.005 9.44029C136.732 6.02765 139.696 1.69256 144.722 0.413632C147.818 -0.374439 151.1 0.281354 153.859 2.28186C153.569 2.57301 153.338 2.76105 153.157 2.99504C152.048 4.43237 150.931 4.95985 149.055 4.21564ZM135.415 4.67267C132.162 3.18821 129.193 3.865 126.528 6.16109C124.789 7.65955 123.177 9.33507 121.554 10.984C121.041 11.5047 120.628 11.5964 120.064 11.1599C119.337 10.5963 118.587 10.0662 117.659 9.38266C120.24 7.00679 122.597 4.53129 125.236 2.48039C129.367 -0.72998 134.477 -0.701752 138.612 2.28116C137.788 3.09933 137.047 3.88273 136.25 4.59311C136.068 4.75525 135.649 4.77952 135.415 4.67267ZM120.141 4.6715C117.029 3.24607 114.147 3.80458 111.539 5.96839C109.977 7.26318 108.555 8.75393 107.076 10.1644C106.594 10.6245 106.132 11.1093 105.586 11.6571C104.581 10.9478 103.598 10.255 102.397 9.40716C105.002 7.00049 107.308 4.58868 109.875 2.56321C114.035 -0.720182 119.229 -0.729747 123.368 2.28023C122.539 3.09886 121.743 3.92356 120.898 4.6848C120.748 4.81988 120.363 4.77345 120.141 4.6715ZM104.914 4.67453C101.708 3.20314 98.7651 3.83864 96.1232 6.10207C94.3524 7.61918 92.7063 9.31057 91.0507 10.9779C90.5453 11.487 90.1538 11.6202 89.5817 11.1629C88.864 10.5895 88.1093 10.0697 87.1985 9.40039C89.6855 7.07094 91.8862 4.76015 94.3199 2.78531C98.5861 -0.676556 103.887 -0.801135 108.124 2.27836C107.299 3.09559 106.51 3.91562 105.673 4.67267C105.52 4.81008 105.135 4.77578 104.914 4.67453ZM97.3515 6.99909C97.5875 6.85584 98.138 7.05228 98.4064 7.28137C100.263 8.86708 102.034 10.5734 103.927 12.105C106.449 14.1451 109.239 14.7053 112.266 13.4961C112.527 13.3918 112.968 13.4812 113.194 13.6676C113.988 14.3234 114.725 15.0606 115.632 15.9042C111.778 18.3022 107.974 18.6389 104.083 16.6461C100.523 14.8236 97.7204 11.9218 94.8298 8.86101C95.7086 8.19402 96.491 7.52143 97.3515 6.99909ZM110.175 9.01266C110.281 8.81646 110.303 8.73504 110.353 8.68628C112.706 6.39929 112.705 6.43475 115.067 8.63262C116.452 9.92204 117.904 11.137 119.396 12.2788C121.872 14.1734 124.567 14.6605 127.467 13.5029C127.717 13.403 128.128 13.4112 128.32 13.5715C129.164 14.2735 129.954 15.0499 130.864 15.8921C127.223 18.2245 123.489 18.7546 119.791 16.8075C117.467 15.5841 115.398 13.7639 113.295 12.0936C112.175 11.2035 111.225 10.0627 110.175 9.01266ZM127.965 6.92187C128.161 6.79985 128.666 7.06628 128.927 7.29094C130.862 8.95177 132.712 10.7374 134.705 12.3094C137.118 14.2121 139.806 14.6348 142.668 13.5302C142.963 13.4163 143.445 13.4791 143.69 13.6769C144.491 14.3232 145.222 15.0697 146.122 15.9098C141.891 18.5043 137.796 18.6202 133.641 16.137C130.524 14.2749 127.993 11.6417 125.304 8.87595C126.217 8.18749 127.057 7.48994 127.965 6.92187ZM143.163 6.94636C143.367 6.81898 143.876 7.04365 144.129 7.26294C145.835 8.7418 147.477 10.3067 149.201 11.7604C151.866 14.008 154.792 14.8317 158.075 13.4532C158.302 13.358 158.703 13.4772 158.911 13.6527C159.702 14.3197 160.446 15.0506 161.362 15.9021C157.325 18.414 153.374 18.6256 149.351 16.403C146.013 14.5578 143.348 11.7837 140.552 8.87128C141.464 8.18189 142.279 7.49927 143.163 6.94636ZM156.089 8.67671C158.464 6.40862 158.431 6.45131 160.808 8.64055C162.308 10.0219 163.871 11.3428 165.504 12.5324C167.847 14.2396 170.406 14.58 173.109 13.5474C173.428 13.4257 173.945 13.519 174.223 13.7348C175.006 14.3444 175.712 15.0697 176.568 15.8587C175.215 16.8616 173.771 17.4178 172.228 17.7297C168.208 18.5425 164.787 16.9862 161.694 14.4405C159.672 12.7759 157.802 10.8939 155.855 9.10108C156.016 8.80619 156.039 8.72477 156.089 8.67671ZM171.383 8.64265C173.716 6.41725 173.681 6.46274 175.999 8.60742C177.494 9.99063 179.062 11.298 180.688 12.4953C183.058 14.2403 185.643 14.5795 188.381 13.5418C188.695 13.4226 189.207 13.5299 189.484 13.7469C190.264 14.3584 190.97 15.0816 191.802 15.8503C190.01 17.1876 188.059 17.7957 185.966 17.9122C183.613 18.0433 181.438 17.384 179.38 16.1489C176.268 14.2812 173.735 11.6517 171.126 8.97253C171.247 8.81575 171.305 8.71707 171.383 8.64265ZM188.59 7.07957C189.089 6.66781 189.424 6.81432 189.883 7.23588C191.713 8.91724 193.541 10.6098 195.467 12.1584C197.963 14.1664 200.728 14.6869 203.713 13.5017C203.977 13.3967 204.42 13.4723 204.645 13.6569C205.442 14.3122 206.181 15.0513 207.098 15.9033C203.251 18.2978 199.45 18.6386 195.559 16.6538C191.995 14.8357 189.192 11.9279 186.305 8.87595C187.103 8.25142 187.858 7.68264 188.59 7.07957ZM201.453 8.91491C202.432 8.17956 203.251 7.49857 204.139 6.94636C204.342 6.81992 204.849 7.04668 205.101 7.26621C206.75 8.70074 208.339 10.2165 210.001 11.633C212.713 13.9445 215.685 14.8716 219.061 13.4511C219.285 13.3566 219.685 13.4854 219.894 13.662C220.685 14.3297 221.431 15.0599 222.278 15.8438C221.017 16.8539 219.619 17.3989 218.151 17.6978C215.254 18.2871 212.495 17.7965 209.948 16.176C208.805 15.449 207.656 14.6992 206.631 13.7996C204.905 12.2872 203.276 10.6469 201.453 8.91491Z" fill="url(#paint2_linear_11443_13491)" fill-opacity="0.3"/>
<path fill-rule="evenodd" clip-rule="evenodd" d="M393.055 4.21564C390.527 3.21294 388.067 4.21611 386.003 5.97865C384.259 7.46871 382.614 9.10644 381.007 10.771C380.307 11.4968 379.758 11.6242 379.004 10.9665C378.419 10.4572 377.778 10.0252 377.005 9.44029C380.732 6.02765 383.696 1.69256 388.722 0.413632C391.818 -0.374439 395.1 0.281354 397.859 2.28186C397.569 2.57301 397.338 2.76105 397.157 2.99504C396.048 4.43237 394.931 4.95985 393.055 4.21564ZM379.415 4.67267C376.162 3.18821 373.193 3.865 370.528 6.16109C368.789 7.65955 367.177 9.33507 365.554 10.984C365.041 11.5047 364.628 11.5964 364.064 11.1599C363.337 10.5963 362.587 10.0662 361.659 9.38266C364.24 7.00679 366.597 4.53129 369.236 2.48039C373.367 -0.72998 378.477 -0.701752 382.612 2.28116C381.788 3.09933 381.047 3.88273 380.25 4.59311C380.068 4.75525 379.649 4.77952 379.415 4.67267ZM364.141 4.6715C361.029 3.24607 358.147 3.80458 355.539 5.96839C353.977 7.26318 352.555 8.75393 351.076 10.1644C350.594 10.6245 350.132 11.1093 349.586 11.6571C348.581 10.9478 347.598 10.255 346.397 9.40716C349.002 7.00049 351.308 4.58868 353.875 2.56321C358.035 -0.720182 363.229 -0.729747 367.368 2.28023C366.539 3.09886 365.743 3.92356 364.898 4.6848C364.748 4.81988 364.363 4.77345 364.141 4.6715ZM348.914 4.67453C345.708 3.20314 342.765 3.83864 340.123 6.10207C338.352 7.61918 336.706 9.31057 335.051 10.9779C334.545 11.487 334.154 11.6202 333.582 11.1629C332.864 10.5895 332.109 10.0697 331.199 9.40039C333.685 7.07094 335.886 4.76015 338.32 2.78531C342.586 -0.676556 347.887 -0.801135 352.124 2.27836C351.299 3.09559 350.51 3.91562 349.673 4.67267C349.52 4.81008 349.135 4.77578 348.914 4.67453ZM341.352 6.99909C341.588 6.85584 342.138 7.05228 342.406 7.28137C344.263 8.86708 346.034 10.5734 347.927 12.105C350.449 14.1451 353.239 14.7053 356.266 13.4961C356.527 13.3918 356.968 13.4812 357.194 13.6676C357.988 14.3234 358.725 15.0606 359.632 15.9042C355.778 18.3022 351.974 18.6389 348.083 16.6461C344.523 14.8236 341.72 11.9218 338.83 8.86101C339.709 8.19402 340.491 7.52143 341.352 6.99909ZM354.175 9.01266C354.281 8.81646 354.303 8.73504 354.353 8.68628C356.706 6.39929 356.705 6.43475 359.067 8.63262C360.452 9.92204 361.904 11.137 363.396 12.2788C365.872 14.1734 368.567 14.6605 371.467 13.5029C371.717 13.403 372.128 13.4112 372.32 13.5715C373.164 14.2735 373.954 15.0499 374.864 15.8921C371.223 18.2245 367.489 18.7546 363.791 16.8075C361.467 15.5841 359.398 13.7639 357.295 12.0936C356.175 11.2035 355.225 10.0627 354.175 9.01266ZM371.965 6.92187C372.161 6.79985 372.666 7.06628 372.927 7.29094C374.862 8.95177 376.712 10.7374 378.705 12.3094C381.118 14.2121 383.806 14.6348 386.668 13.5302C386.963 13.4163 387.445 13.4791 387.69 13.6769C388.491 14.3232 389.222 15.0697 390.122 15.9098C385.891 18.5043 381.796 18.6202 377.641 16.137C374.524 14.2749 371.993 11.6417 369.304 8.87595C370.217 8.18749 371.057 7.48994 371.965 6.92187ZM387.163 6.94636C387.367 6.81898 387.876 7.04365 388.129 7.26294C389.835 8.7418 391.477 10.3067 393.201 11.7604C395.866 14.008 398.792 14.8317 402.075 13.4532C402.302 13.358 402.703 13.4772 402.911 13.6527C403.702 14.3197 404.446 15.0506 405.362 15.9021C401.325 18.414 397.374 18.6256 393.351 16.403C390.013 14.5578 387.348 11.7837 384.552 8.87128C385.464 8.18189 386.279 7.49927 387.163 6.94636Z" fill="url(#paint3_linear_11443_13491)" fill-opacity="0.3"/>
<defs>
<linearGradient id="paint0_linear_11443_13491" x1="375" y1="8.99996" x2="-1" y2="8.99996" gradientUnits="userSpaceOnUse">
<stop stop-color="#A98950" stop-opacity="0"/>
<stop offset="0.33" stop-color="#99783B"/>
<stop offset="0.66" stop-color="#99783B"/>
<stop offset="1" stop-color="#A98950" stop-opacity="0"/>
</linearGradient>
<linearGradient id="paint1_linear_11443_13491" x1="375" y1="8.99996" x2="-1" y2="8.99996" gradientUnits="userSpaceOnUse">
<stop stop-color="#A98950" stop-opacity="0"/>
<stop offset="0.33" stop-color="#99783B"/>
<stop offset="0.66" stop-color="#99783B"/>
<stop offset="1" stop-color="#A98950" stop-opacity="0"/>
</linearGradient>
<linearGradient id="paint2_linear_11443_13491" x1="375" y1="8.99996" x2="-1" y2="8.99996" gradientUnits="userSpaceOnUse">
<stop stop-color="#A98950" stop-opacity="0"/>
<stop offset="0.33" stop-color="#99783B"/>
<stop offset="0.66" stop-color="#99783B"/>
<stop offset="1" stop-color="#A98950" stop-opacity="0"/>
</linearGradient>
<linearGradient id="paint3_linear_11443_13491" x1="375" y1="8.99996" x2="-1" y2="8.99996" gradientUnits="userSpaceOnUse">
<stop stop-color="#A98950" stop-opacity="0"/>
<stop offset="0.33" stop-color="#99783B"/>
<stop offset="0.66" stop-color="#99783B"/>
<stop offset="1" stop-color="#A98950" stop-opacity="0"/>
</linearGradient>
</defs>
</svg>
