<svg width="950" height="18" viewBox="0 0 950 18" fill="none" xmlns="http://www.w3.org/2000/svg">
<path fill-rule="evenodd" clip-rule="evenodd" d="M895.332 4.6764C898.533 3.21061 901.475 3.82697 904.113 6.08877C906.103 7.79602 907.954 9.69528 909.974 11.6104C910.904 10.9576 911.884 10.2694 913.028 9.46642C909.255 6.04911 906.309 1.67436 901.281 0.425764C898.045 -0.378171 895.025 0.261524 892.099 2.25783C892.956 3.10283 893.701 3.88296 894.5 4.59055C894.683 4.75269 895.1 4.78278 895.332 4.6764ZM910.605 4.66287C913.727 3.2386 916.612 3.81461 919.222 5.97702C920.786 7.27274 922.202 8.77866 923.68 10.1943C924.162 10.6551 924.632 11.1296 925.175 11.6634C926.191 10.932 927.162 10.2337 928.319 9.40226C925.79 7.04994 923.514 4.65494 920.981 2.6402C916.779 -0.701752 911.451 -0.747711 907.375 2.28559C908.177 3.07903 908.941 3.8825 909.763 4.61154C909.942 4.77065 910.366 4.77228 910.605 4.66287ZM925.767 4.6883C929.24 3.10166 932.317 3.97815 935.087 6.47977C936.685 7.9227 938.205 9.46968 939.715 11.0216C940.197 11.5178 940.59 11.5824 941.113 11.1881C941.848 10.635 942.598 10.1042 943.483 9.46012C939.698 5.98939 936.688 1.57638 931.55 0.357175C928.544 -0.355775 925.124 0.36814 922.638 2.30402C923.452 3.11216 924.171 3.8706 924.942 4.55905C925.13 4.72633 925.542 4.79095 925.767 4.6883ZM941.141 4.64561C944.001 3.35642 946.754 3.66483 949.198 5.62241C951.208 7.23238 953.038 9.11274 954.886 10.9467C955.443 11.4996 955.854 11.5966 956.447 11.1328C957.142 10.5888 957.865 10.0856 958.737 9.44705C954.998 6.05727 952.056 1.70119 947.039 0.430896C943.857 -0.374905 940.756 0.239594 937.848 2.27719C938.697 3.11449 939.467 3.92076 940.295 4.64911C940.467 4.80098 940.893 4.75735 941.141 4.64561ZM957.906 4.21564C960.434 3.21294 962.894 4.21611 964.958 5.97865C966.703 7.46871 968.347 9.10644 969.954 10.771C970.655 11.4968 971.203 11.6242 971.958 10.9665C972.542 10.4572 973.184 10.0252 973.957 9.44029C970.229 6.02765 967.265 1.69256 962.239 0.413632C959.144 -0.374439 955.861 0.281354 953.103 2.28186C953.392 2.57301 953.624 2.76105 953.804 2.99504C954.914 4.43237 956.03 4.95985 957.906 4.21564ZM971.547 4.67267C974.8 3.18821 977.769 3.865 980.434 6.16109C982.173 7.65955 983.784 9.33507 985.407 10.984C985.92 11.5047 986.334 11.5964 986.897 11.1599C987.624 10.5963 988.374 10.0662 989.303 9.38266C986.721 7.00679 984.365 4.53129 981.726 2.48039C977.594 -0.72998 972.484 -0.701752 968.35 2.28116C969.173 3.09933 969.914 3.88273 970.711 4.59311C970.893 4.75525 971.313 4.77952 971.547 4.67267ZM986.821 4.6715C989.933 3.24607 992.814 3.80458 995.423 5.96839C996.984 7.26318 998.407 8.75393 999.886 10.1644C1000.37 10.6245 1000.83 11.1093 1001.38 11.6571C1002.38 10.9478 1003.36 10.255 1004.56 9.40716C1001.96 7.00049 999.653 4.58868 997.087 2.56321C992.926 -0.720182 987.733 -0.729747 983.594 2.28023C984.422 3.09886 985.219 3.92356 986.063 4.6848C986.213 4.81988 986.599 4.77345 986.821 4.6715ZM1002.05 4.67453C1005.25 3.20314 1008.2 3.83864 1010.84 6.10207C1012.61 7.61918 1014.26 9.31057 1015.91 10.9779C1016.42 11.487 1016.81 11.6202 1017.38 11.1629C1018.1 10.5895 1018.85 10.0697 1019.76 9.40039C1017.28 7.07094 1015.08 4.76015 1012.64 2.78531C1008.38 -0.676556 1003.07 -0.801135 998.837 2.27836C999.662 3.09559 1000.45 3.91562 1001.29 4.67267C1001.44 4.81008 1001.83 4.77578 1002.05 4.67453ZM1017.4 4.63534C1018.48 4.42281 1019.55 4.19068 1020.63 3.75605C1020.63 2.64393 1020.63 1.32208 1020.63 0C1018.33 0.239127 1016.11 0.711317 1014.09 2.27976C1014.92 3.10562 1015.7 3.93779 1016.54 4.68877C1016.71 4.83457 1017.12 4.69203 1017.4 4.63534ZM1009.86 13.4551C1009.63 13.3601 1009.23 13.4733 1009.02 13.6478C1008.23 14.3155 1007.49 15.0478 1006.61 15.8683C1006.97 16.1051 1007.28 16.3381 1007.61 16.5126C1011.4 18.5131 1015.15 18.4012 1018.86 16.2581C1019.46 15.9124 1020.04 15.5298 1020.63 14.9542C1020.63 13.6088 1020.63 12.0537 1020.63 10.2883C1019.97 10.9457 1019.29 11.3503 1018.66 11.8484C1015.98 14.0017 1013.1 14.8056 1009.86 13.4551ZM1009.61 6.99909C1009.37 6.85584 1008.82 7.05228 1008.56 7.28137C1006.7 8.86708 1004.93 10.5734 1003.03 12.105C1000.51 14.1451 997.723 14.7053 994.696 13.4961C994.434 13.3918 993.993 13.4812 993.767 13.6676C992.973 14.3234 992.236 15.0606 991.33 15.9042C995.183 18.3022 998.987 18.6389 1002.88 16.6461C1006.44 14.8236 1009.24 11.9218 1012.13 8.86101C1011.25 8.19402 1010.47 7.52143 1009.61 6.99909ZM996.786 9.01266C996.681 8.81646 996.658 8.73504 996.608 8.68628C994.256 6.39929 994.256 6.43475 991.895 8.63262C990.51 9.92204 989.057 11.137 987.565 12.2788C985.089 14.1734 982.394 14.6605 979.494 13.5029C979.245 13.403 978.833 13.4112 978.641 13.5715C977.798 14.2735 977.007 15.0499 976.097 15.8921C979.739 18.2245 983.473 18.7546 987.171 16.8075C989.494 15.5841 991.563 13.7639 993.666 12.0936C994.787 11.2035 995.737 10.0627 996.786 9.01266ZM978.996 6.92187C978.801 6.79985 978.296 7.06628 978.034 7.29094C976.099 8.95177 974.25 10.7374 972.256 12.3094C969.843 14.2121 967.156 14.6348 964.293 13.5302C963.999 13.4163 963.517 13.4791 963.272 13.6769C962.471 14.3232 961.739 15.0697 960.839 15.9098C965.07 18.5043 969.165 18.6202 973.321 16.137C976.437 14.2749 978.968 11.6417 981.658 8.87595C980.744 8.18749 979.905 7.48994 978.996 6.92187ZM963.799 6.94636C963.595 6.81898 963.085 7.04365 962.833 7.26294C961.127 8.7418 959.484 10.3067 957.76 11.7604C955.095 14.008 952.17 14.8317 948.886 13.4532C948.66 13.358 948.258 13.4772 948.05 13.6527C947.26 14.3197 946.516 15.0506 945.599 15.9021C949.637 18.414 953.588 18.6256 957.61 16.403C960.949 14.5578 963.614 11.7837 966.409 8.87128C965.498 8.18189 964.683 7.49927 963.799 6.94636ZM950.872 8.67671C948.498 6.40862 948.531 6.45131 946.153 8.64055C944.653 10.0219 943.091 11.3428 941.458 12.5324C939.114 14.2396 936.556 14.58 933.852 13.5474C933.533 13.4257 933.016 13.519 932.739 13.7348C931.956 14.3444 931.249 15.0697 930.394 15.8587C931.746 16.8616 933.191 17.4178 934.733 17.7297C938.753 18.5425 942.174 16.9862 945.267 14.4405C947.29 12.7759 949.159 10.8939 951.106 9.10108C950.946 8.80619 950.923 8.72477 950.872 8.67671ZM935.578 8.64265C933.245 6.41725 933.28 6.46274 930.962 8.60742C929.467 9.99063 927.899 11.298 926.273 12.4953C923.904 14.2403 921.318 14.5795 918.581 13.5418C918.266 13.4226 917.755 13.5299 917.478 13.7469C916.697 14.3584 915.992 15.0816 915.16 15.8503C916.952 17.1876 918.903 17.7957 920.996 17.9122C923.349 18.0433 925.524 17.384 927.582 16.1489C930.694 14.2812 933.227 11.6517 935.836 8.97253C935.715 8.81575 935.656 8.71707 935.578 8.64265ZM918.372 7.07957C917.873 6.66781 917.538 6.81432 917.079 7.23588C915.249 8.91724 913.42 10.6098 911.495 12.1584C908.998 14.1664 906.233 14.6869 903.248 13.5017C902.984 13.3967 902.541 13.4723 902.317 13.6569C901.519 14.3122 900.78 15.0513 899.864 15.9033C903.711 18.2978 907.511 18.6386 911.402 16.6538C914.966 14.8357 917.77 11.9279 920.656 8.87595C919.859 8.25142 919.103 7.68264 918.372 7.07957ZM905.508 8.91491C904.53 8.17956 903.711 7.49857 902.823 6.94636C902.619 6.81992 902.112 7.04668 901.86 7.26621C900.211 8.70074 898.622 10.2165 896.96 11.633C894.248 13.9445 891.277 14.8716 887.9 13.4511C887.676 13.3566 887.276 13.4854 887.067 13.662C886.276 14.3297 885.53 15.0599 884.684 15.8438C885.945 16.8539 887.342 17.3989 888.811 17.6978C891.708 18.2871 894.466 17.7965 897.013 16.176C898.156 15.449 899.305 14.6992 900.331 13.7996C902.056 12.2872 903.685 10.6469 905.508 8.91491Z" fill="url(#paint0_linear_11504_51072)" fill-opacity="0.3"/>
<path fill-rule="evenodd" clip-rule="evenodd" d="M-50.233 4.6883C-46.7597 3.10166 -43.6832 3.97815 -40.913 6.47977C-39.315 7.9227 -37.7947 9.46968 -36.2852 11.0216C-35.8024 11.5178 -35.4103 11.5824 -34.8865 11.1881C-34.1518 10.635 -33.4025 10.1042 -32.5165 9.46012C-36.3021 5.98939 -39.3122 1.57638 -44.4505 0.357175C-47.4556 -0.355775 -50.876 0.36814 -53.3621 2.30402C-52.5478 3.11216 -51.8292 3.8706 -51.0576 4.55905C-50.8701 4.72633 -50.4579 4.79095 -50.233 4.6883ZM-34.8592 4.64561C-31.9995 3.35642 -29.2463 3.66483 -26.8018 5.62241C-24.7921 7.23238 -22.9617 9.11274 -21.1143 10.9467C-20.5572 11.4996 -20.1464 11.5966 -19.5532 11.1328C-18.8577 10.5888 -18.1348 10.0856 -17.2631 9.44705C-21.0016 6.05727 -23.9444 1.70119 -28.9609 0.430896C-32.1432 -0.374905 -35.2436 0.239594 -38.1523 2.27719C-37.3026 3.11449 -36.5331 3.92076 -35.705 4.64911C-35.5327 4.80098 -35.107 4.75735 -34.8592 4.64561ZM-18.0937 4.21564C-15.566 3.21294 -13.1057 4.21611 -11.0419 5.97865C-9.29718 7.46871 -7.65289 9.10644 -6.04584 10.771C-5.34515 11.4968 -4.79669 11.6242 -4.0423 10.9665C-3.45795 10.4572 -2.81616 10.0252 -2.04346 9.44029C-5.77057 6.02765 -8.7348 1.69256 -13.7607 0.413632C-16.8564 -0.374439 -20.1386 0.281354 -22.8972 2.28186C-22.6078 2.57301 -22.3765 2.76105 -22.1957 2.99504C-21.0864 4.43237 -19.9698 4.95985 -18.0937 4.21564ZM-4.45343 4.67267C-1.20044 3.18821 1.76862 3.865 4.43353 6.16109C6.17261 7.65955 7.78442 9.33507 9.40747 10.984C9.91998 11.5047 10.334 11.5964 10.897 11.1599C11.6244 10.5963 12.374 10.0662 13.3029 9.38266C10.7212 7.00679 8.36456 4.53129 5.72571 2.48039C1.59436 -0.72998 -3.51593 -0.701752 -7.65009 2.28116C-6.82697 3.09933 -6.08575 3.88273 -5.28864 4.59311C-5.10675 4.75525 -4.68744 4.77952 -4.45343 4.67267ZM10.8206 4.6715C13.9325 3.24607 16.814 3.80458 19.4227 5.96839C20.984 7.26318 22.4069 8.75393 23.8856 10.1644C24.3677 10.6245 24.83 11.1093 25.3753 11.6571C26.3807 10.9478 27.3631 10.255 28.5648 9.40716C25.9597 7.00049 23.6534 4.58868 21.0867 2.56321C16.9262 -0.720182 11.7327 -0.729747 7.59375 2.28023C8.4223 3.09886 9.21857 3.92356 10.0633 4.6848C10.2132 4.81988 10.5986 4.77345 10.8206 4.6715ZM26.0475 4.67453C29.2532 3.20314 32.1964 3.83864 34.8383 6.10207C36.6091 7.61918 38.2552 9.31057 39.9108 10.9779C40.4162 11.487 40.8077 11.6202 41.3798 11.1629C42.0974 10.5895 42.8522 10.0697 43.763 9.40039C41.2761 7.07094 39.0753 4.76015 36.6416 2.78531C32.3754 -0.676556 27.074 -0.801135 22.8374 2.27836C23.662 3.09559 24.4512 3.91562 25.2888 4.67267C25.4411 4.81008 25.8268 4.77578 26.0475 4.67453ZM33.61 6.99909C33.374 6.85584 32.8235 7.05228 32.5551 7.28137C30.6985 8.86708 28.9272 10.5734 27.0344 12.105C24.5125 14.1451 21.7228 14.7053 18.6957 13.4961C18.4344 13.3918 17.9932 13.4812 17.7675 13.6676C16.973 14.3234 16.2361 15.0606 15.3297 15.9042C19.1835 18.3022 22.9871 18.6389 26.8788 16.6461C30.4381 14.8236 33.2411 11.9218 36.1317 8.86101C35.2528 8.19402 34.4705 7.52143 33.61 6.99909ZM20.7862 9.01266C20.6809 8.81646 20.6581 8.73504 20.608 8.68628C18.2557 6.39929 18.2561 6.43475 15.8949 8.63262C14.5098 9.92204 13.0571 11.137 11.5651 12.2788C9.08911 14.1734 6.39423 14.6605 3.49414 13.5029C3.24457 13.403 2.83337 13.4112 2.64117 13.5715C1.79773 14.2735 1.00739 15.0499 0.0974731 15.8921C3.73871 18.2245 7.47253 18.7546 11.1705 16.8075C13.4942 15.5841 15.5634 13.7639 17.6663 12.0936C18.7869 11.2035 19.7369 10.0627 20.7862 9.01266ZM2.99603 6.92187C2.80078 6.79985 2.29584 7.06628 2.03418 7.29094C0.098999 8.95177 -1.75006 10.7374 -3.74371 12.3094C-6.15692 14.2121 -8.8443 14.6348 -11.7066 13.5302C-12.0015 13.4163 -12.4832 13.4791 -12.7285 13.6769C-13.5294 14.3232 -14.2609 15.0697 -15.1608 15.9098C-10.9296 18.5043 -6.83466 18.6202 -2.6792 16.137C0.437195 14.2749 2.96796 11.6417 5.65771 8.87595C4.74414 8.18749 3.90485 7.48994 2.99603 6.92187ZM-12.2012 6.94636C-12.4051 6.81898 -12.9146 7.04365 -13.1674 7.26294C-14.8731 8.7418 -16.5159 10.3067 -18.2394 11.7604C-20.9048 14.008 -23.8304 14.8317 -27.1137 13.4532C-27.3401 13.358 -27.7419 13.4772 -27.9496 13.6527C-28.7401 14.3197 -29.4839 15.0506 -30.4006 15.9021C-26.3632 18.414 -22.4124 18.6256 -18.3898 16.403C-15.051 14.5578 -12.386 11.7837 -9.59088 8.87128C-10.502 8.18189 -11.3171 7.49927 -12.2012 6.94636ZM-25.1276 8.67671C-27.502 6.40862 -27.4692 6.45131 -29.8466 8.64055C-31.3467 10.0219 -32.9091 11.3428 -34.5421 12.5324C-36.8858 14.2396 -39.4445 14.58 -42.148 13.5474C-42.4671 13.4257 -42.9836 13.519 -43.261 13.7348C-44.0443 14.3444 -44.7509 15.0697 -45.6063 15.8587C-44.2535 16.8616 -42.8091 17.4178 -41.267 17.7297C-37.247 18.5425 -33.826 16.9862 -30.7328 14.4405C-28.7103 12.7759 -26.8406 10.8939 -24.8939 9.10108C-25.0544 8.80619 -25.0773 8.72477 -25.1276 8.67671Z" fill="url(#paint1_linear_11504_51072)" fill-opacity="0.3"/>
<path fill-rule="evenodd" clip-rule="evenodd" d="M407.332 4.6764C410.533 3.21061 413.475 3.82697 416.113 6.08877C418.103 7.79602 419.954 9.69528 421.974 11.6104C422.904 10.9576 423.884 10.2694 425.028 9.46642C421.255 6.04911 418.309 1.67436 413.281 0.425764C410.045 -0.378171 407.025 0.261524 404.099 2.25783C404.956 3.10283 405.701 3.88296 406.5 4.59055C406.683 4.75269 407.1 4.78278 407.332 4.6764ZM422.605 4.66287C425.727 3.2386 428.612 3.81461 431.222 5.97702C432.786 7.27274 434.202 8.77866 435.68 10.1943C436.162 10.6551 436.632 11.1296 437.174 11.6634C438.191 10.932 439.162 10.2337 440.319 9.40226C437.789 7.04994 435.514 4.65494 432.981 2.6402C428.779 -0.701752 423.451 -0.747711 419.375 2.28559C420.177 3.07903 420.941 3.8825 421.763 4.61154C421.942 4.77065 422.365 4.77228 422.605 4.66287ZM437.767 4.6883C441.24 3.10166 444.317 3.97815 447.087 6.47977C448.685 7.9227 450.205 9.46968 451.715 11.0216C452.198 11.5178 452.59 11.5824 453.113 11.1881C453.848 10.635 454.598 10.1042 455.483 9.46012C451.698 5.98939 448.688 1.57638 443.549 0.357175C440.544 -0.355775 437.124 0.36814 434.638 2.30402C435.452 3.11216 436.171 3.8706 436.942 4.55905C437.13 4.72633 437.542 4.79095 437.767 4.6883ZM453.141 4.64561C456.001 3.35642 458.754 3.66483 461.198 5.62241C463.208 7.23238 465.038 9.11274 466.886 10.9467C467.443 11.4996 467.854 11.5966 468.447 11.1328C469.142 10.5888 469.865 10.0856 470.737 9.44705C466.998 6.05727 464.055 1.70119 459.039 0.430896C455.857 -0.374905 452.756 0.239594 449.848 2.27719C450.697 3.11449 451.467 3.92076 452.295 4.64911C452.467 4.80098 452.893 4.75735 453.141 4.64561ZM469.906 4.21564C472.434 3.21294 474.894 4.21611 476.958 5.97865C478.703 7.46871 480.347 9.10644 481.954 10.771C482.655 11.4968 483.203 11.6242 483.958 10.9665C484.542 10.4572 485.184 10.0252 485.957 9.44029C482.229 6.02765 479.265 1.69256 474.239 0.413632C471.144 -0.374439 467.861 0.281354 465.103 2.28186C465.392 2.57301 465.624 2.76105 465.804 2.99504C466.914 4.43237 468.03 4.95985 469.906 4.21564ZM483.547 4.67267C486.8 3.18821 489.769 3.865 492.434 6.16109C494.173 7.65955 495.784 9.33507 497.407 10.984C497.92 11.5047 498.334 11.5964 498.897 11.1599C499.624 10.5963 500.374 10.0662 501.303 9.38266C498.721 7.00679 496.365 4.53129 493.726 2.48039C489.594 -0.72998 484.484 -0.701752 480.35 2.28116C481.173 3.09933 481.914 3.88273 482.711 4.59311C482.893 4.75525 483.312 4.77952 483.547 4.67267ZM498.821 4.6715C501.932 3.24607 504.814 3.80458 507.423 5.96839C508.984 7.26318 510.407 8.75393 511.886 10.1644C512.368 10.6245 512.83 11.1093 513.375 11.6571C514.381 10.9478 515.363 10.255 516.565 9.40716C513.96 7.00049 511.653 4.58868 509.087 2.56321C504.926 -0.720182 499.733 -0.729747 495.594 2.28023C496.422 3.09886 497.219 3.92356 498.063 4.6848C498.213 4.81988 498.599 4.77345 498.821 4.6715ZM514.047 4.67453C517.253 3.20314 520.196 3.83864 522.838 6.10207C524.609 7.61918 526.255 9.31057 527.911 10.9779C528.416 11.487 528.808 11.6202 529.38 11.1629C530.097 10.5895 530.852 10.0697 531.763 9.40039C529.276 7.07094 527.075 4.76015 524.642 2.78531C520.375 -0.676556 515.074 -0.801135 510.837 2.27836C511.662 3.09559 512.451 3.91562 513.289 4.67267C513.441 4.81008 513.827 4.77578 514.047 4.67453ZM521.61 6.99909C521.374 6.85584 520.823 7.05228 520.555 7.28137C518.698 8.86708 516.927 10.5734 515.034 12.105C512.512 14.1451 509.723 14.7053 506.696 13.4961C506.434 13.3918 505.993 13.4812 505.768 13.6676C504.973 14.3234 504.236 15.0606 503.33 15.9042C507.183 18.3022 510.987 18.6389 514.879 16.6461C518.438 14.8236 521.241 11.9218 524.132 8.86101C523.253 8.19402 522.47 7.52143 521.61 6.99909ZM508.786 9.01266C508.681 8.81646 508.658 8.73504 508.608 8.68628C506.256 6.39929 506.256 6.43475 503.895 8.63262C502.51 9.92204 501.057 11.137 499.565 12.2788C497.089 14.1734 494.394 14.6605 491.494 13.5029C491.245 13.403 490.833 13.4112 490.641 13.5715C489.798 14.2735 489.007 15.0499 488.097 15.8921C491.739 18.2245 495.473 18.7546 499.171 16.8075C501.494 15.5841 503.563 13.7639 505.666 12.0936C506.787 11.2035 507.737 10.0627 508.786 9.01266ZM490.996 6.92187C490.801 6.79985 490.296 7.06628 490.034 7.29094C488.099 8.95177 486.25 10.7374 484.256 12.3094C481.843 14.2121 479.156 14.6348 476.293 13.5302C475.999 13.4163 475.517 13.4791 475.272 13.6769C474.471 14.3232 473.739 15.0697 472.839 15.9098C477.07 18.5043 481.165 18.6202 485.321 16.137C488.437 14.2749 490.968 11.6417 493.658 8.87595C492.744 8.18749 491.905 7.48994 490.996 6.92187ZM475.799 6.94636C475.595 6.81898 475.085 7.04365 474.833 7.26294C473.127 8.7418 471.484 10.3067 469.76 11.7604C467.095 14.008 464.17 14.8317 460.886 13.4532C460.66 13.358 460.258 13.4772 460.05 13.6527C459.26 14.3197 458.516 15.0506 457.599 15.9021C461.637 18.414 465.588 18.6256 469.61 16.403C472.949 14.5578 475.614 11.7837 478.409 8.87128C477.498 8.18189 476.683 7.49927 475.799 6.94636ZM462.872 8.67671C460.498 6.40862 460.531 6.45131 458.153 8.64055C456.653 10.0219 455.091 11.3428 453.458 12.5324C451.114 14.2396 448.556 14.58 445.852 13.5474C445.533 13.4257 445.016 13.519 444.739 13.7348C443.956 14.3444 443.249 15.0697 442.394 15.8587C443.746 16.8616 445.191 17.4178 446.733 17.7297C450.753 18.5425 454.174 16.9862 457.267 14.4405C459.29 12.7759 461.159 10.8939 463.106 9.10108C462.946 8.80619 462.923 8.72477 462.872 8.67671ZM447.578 8.64265C445.245 6.41725 445.28 6.46274 442.962 8.60742C441.467 9.99063 439.899 11.298 438.273 12.4953C435.904 14.2403 433.318 14.5795 430.581 13.5418C430.266 13.4226 429.755 13.5299 429.478 13.7469C428.697 14.3584 427.992 15.0816 427.16 15.8503C428.952 17.1876 430.903 17.7957 432.996 17.9122C435.349 18.0433 437.524 17.384 439.582 16.1489C442.694 14.2812 445.227 11.6517 447.836 8.97253C447.715 8.81575 447.656 8.71707 447.578 8.64265ZM430.372 7.07957C429.873 6.66781 429.538 6.81432 429.079 7.23588C427.249 8.91724 425.42 10.6098 423.495 12.1584C420.998 14.1664 418.233 14.6869 415.248 13.5017C414.984 13.3967 414.541 13.4723 414.317 13.6569C413.519 14.3122 412.781 15.0513 411.864 15.9033C415.711 18.2978 419.511 18.6386 423.402 16.6538C426.966 14.8357 429.77 11.9279 432.656 8.87595C431.859 8.25142 431.103 7.68264 430.372 7.07957ZM417.508 8.91491C416.53 8.17956 415.711 7.49857 414.823 6.94636C414.619 6.81992 414.112 7.04668 413.86 7.26621C412.211 8.70074 410.622 10.2165 408.96 11.633C406.248 13.9445 403.277 14.8716 399.9 13.4511C399.676 13.3566 399.276 13.4854 399.067 13.662C398.276 14.3297 397.53 15.0599 396.684 15.8438C397.945 16.8539 399.342 17.3989 400.811 17.6978C403.708 18.2871 406.466 17.7965 409.013 16.176C410.156 15.449 411.305 14.6992 412.331 13.7996C414.056 12.2872 415.685 10.6469 417.508 8.91491Z" fill="url(#paint2_linear_11504_51072)" fill-opacity="0.3"/>
<path fill-rule="evenodd" clip-rule="evenodd" d="M651.332 4.6764C654.533 3.21061 657.475 3.82697 660.113 6.08877C662.103 7.79602 663.954 9.69528 665.974 11.6104C666.904 10.9576 667.884 10.2694 669.028 9.46642C665.255 6.04911 662.309 1.67436 657.281 0.425764C654.045 -0.378171 651.025 0.261524 648.099 2.25783C648.956 3.10283 649.701 3.88296 650.5 4.59055C650.683 4.75269 651.1 4.78278 651.332 4.6764ZM666.605 4.66287C669.727 3.2386 672.612 3.81461 675.222 5.97702C676.786 7.27274 678.202 8.77866 679.68 10.1943C680.162 10.6551 680.632 11.1296 681.175 11.6634C682.191 10.932 683.162 10.2337 684.319 9.40226C681.79 7.04994 679.514 4.65494 676.981 2.6402C672.779 -0.701752 667.451 -0.747711 663.375 2.28559C664.177 3.07903 664.941 3.8825 665.763 4.61154C665.942 4.77065 666.366 4.77228 666.605 4.66287ZM681.767 4.6883C685.24 3.10166 688.317 3.97815 691.087 6.47977C692.685 7.9227 694.205 9.46968 695.715 11.0216C696.197 11.5178 696.59 11.5824 697.113 11.1881C697.848 10.635 698.598 10.1042 699.483 9.46012C695.698 5.98939 692.688 1.57638 687.55 0.357175C684.544 -0.355775 681.124 0.36814 678.638 2.30402C679.452 3.11216 680.171 3.8706 680.942 4.55905C681.13 4.72633 681.542 4.79095 681.767 4.6883ZM697.141 4.64561C700.001 3.35642 702.754 3.66483 705.198 5.62241C707.208 7.23238 709.038 9.11274 710.886 10.9467C711.443 11.4996 711.854 11.5966 712.447 11.1328C713.142 10.5888 713.865 10.0856 714.737 9.44705C710.998 6.05727 708.056 1.70119 703.039 0.430896C699.857 -0.374905 696.756 0.239594 693.848 2.27719C694.697 3.11449 695.467 3.92076 696.295 4.64911C696.467 4.80098 696.893 4.75735 697.141 4.64561ZM713.906 4.21564C716.434 3.21294 718.894 4.21611 720.958 5.97865C722.703 7.46871 724.347 9.10644 725.954 10.771C726.655 11.4968 727.203 11.6242 727.958 10.9665C728.542 10.4572 729.184 10.0252 729.957 9.44029C726.229 6.02765 723.265 1.69256 718.239 0.413632C715.144 -0.374439 711.861 0.281354 709.103 2.28186C709.392 2.57301 709.624 2.76105 709.804 2.99504C710.914 4.43237 712.03 4.95985 713.906 4.21564ZM727.547 4.67267C730.8 3.18821 733.769 3.865 736.434 6.16109C738.173 7.65955 739.784 9.33507 741.408 10.984C741.92 11.5047 742.334 11.5964 742.897 11.1599C743.624 10.5963 744.374 10.0662 745.303 9.38266C742.721 7.00679 740.365 4.53129 737.726 2.48039C733.594 -0.72998 728.484 -0.701752 724.35 2.28116C725.173 3.09933 725.914 3.88273 726.711 4.59311C726.893 4.75525 727.313 4.77952 727.547 4.67267ZM742.821 4.6715C745.933 3.24607 748.814 3.80458 751.423 5.96839C752.984 7.26318 754.407 8.75393 755.886 10.1644C756.368 10.6245 756.83 11.1093 757.375 11.6571C758.381 10.9478 759.363 10.255 760.565 9.40716C757.96 7.00049 755.653 4.58868 753.087 2.56321C748.926 -0.720182 743.733 -0.729747 739.594 2.28023C740.422 3.09886 741.219 3.92356 742.063 4.6848C742.213 4.81988 742.599 4.77345 742.821 4.6715ZM758.047 4.67453C761.253 3.20314 764.196 3.83864 766.838 6.10207C768.609 7.61918 770.255 9.31057 771.911 10.9779C772.416 11.487 772.808 11.6202 773.38 11.1629C774.097 10.5895 774.852 10.0697 775.763 9.40039C773.276 7.07094 771.075 4.76015 768.642 2.78531C764.375 -0.676556 759.074 -0.801135 754.837 2.27836C755.662 3.09559 756.451 3.91562 757.289 4.67267C757.441 4.81008 757.827 4.77578 758.047 4.67453ZM765.61 6.99909C765.374 6.85584 764.823 7.05228 764.555 7.28137C762.698 8.86708 760.927 10.5734 759.034 12.105C756.512 14.1451 753.723 14.7053 750.696 13.4961C750.434 13.3918 749.993 13.4812 749.767 13.6676C748.973 14.3234 748.236 15.0606 747.33 15.9042C751.183 18.3022 754.987 18.6389 758.879 16.6461C762.438 14.8236 765.241 11.9218 768.132 8.86101C767.253 8.19402 766.47 7.52143 765.61 6.99909ZM752.786 9.01266C752.681 8.81646 752.658 8.73504 752.608 8.68628C750.256 6.39929 750.256 6.43475 747.895 8.63262C746.51 9.92204 745.057 11.137 743.565 12.2788C741.089 14.1734 738.394 14.6605 735.494 13.5029C735.245 13.403 734.833 13.4112 734.641 13.5715C733.798 14.2735 733.007 15.0499 732.098 15.8921C735.739 18.2245 739.473 18.7546 743.171 16.8075C745.494 15.5841 747.563 13.7639 749.666 12.0936C750.787 11.2035 751.737 10.0627 752.786 9.01266ZM734.996 6.92187C734.801 6.79985 734.296 7.06628 734.034 7.29094C732.099 8.95177 730.25 10.7374 728.256 12.3094C725.843 14.2121 723.156 14.6348 720.293 13.5302C719.999 13.4163 719.517 13.4791 719.272 13.6769C718.471 14.3232 717.739 15.0697 716.839 15.9098C721.07 18.5043 725.165 18.6202 729.321 16.137C732.437 14.2749 734.968 11.6417 737.658 8.87595C736.744 8.18749 735.905 7.48994 734.996 6.92187ZM719.799 6.94636C719.595 6.81898 719.085 7.04365 718.833 7.26294C717.127 8.7418 715.484 10.3067 713.76 11.7604C711.095 14.008 708.17 14.8317 704.886 13.4532C704.66 13.358 704.258 13.4772 704.05 13.6527C703.26 14.3197 702.516 15.0506 701.599 15.9021C705.637 18.414 709.587 18.6256 713.61 16.403C716.949 14.5578 719.614 11.7837 722.409 8.87128C721.498 8.18189 720.683 7.49927 719.799 6.94636ZM706.872 8.67671C704.498 6.40862 704.531 6.45131 702.153 8.64055C700.653 10.0219 699.091 11.3428 697.458 12.5324C695.114 14.2396 692.556 14.58 689.852 13.5474C689.533 13.4257 689.016 13.519 688.739 13.7348C687.956 14.3444 687.249 15.0697 686.394 15.8587C687.746 16.8616 689.191 17.4178 690.733 17.7297C694.753 18.5425 698.174 16.9862 701.267 14.4405C703.29 12.7759 705.159 10.8939 707.106 9.10108C706.946 8.80619 706.923 8.72477 706.872 8.67671ZM691.578 8.64265C689.245 6.41725 689.28 6.46274 686.962 8.60742C685.467 9.99063 683.899 11.298 682.273 12.4953C679.904 14.2403 677.318 14.5795 674.581 13.5418C674.266 13.4226 673.755 13.5299 673.478 13.7469C672.697 14.3584 671.992 15.0816 671.16 15.8503C672.952 17.1876 674.903 17.7957 676.996 17.9122C679.349 18.0433 681.524 17.384 683.582 16.1489C686.694 14.2812 689.227 11.6517 691.836 8.97253C691.715 8.81575 691.656 8.71707 691.578 8.64265ZM674.372 7.07957C673.873 6.66781 673.538 6.81432 673.079 7.23588C671.249 8.91724 669.42 10.6098 667.495 12.1584C664.998 14.1664 662.233 14.6869 659.248 13.5017C658.984 13.3967 658.541 13.4723 658.317 13.6569C657.519 14.3122 656.78 15.0513 655.864 15.9033C659.711 18.2978 663.511 18.6386 667.402 16.6538C670.966 14.8357 673.77 11.9279 676.656 8.87595C675.859 8.25142 675.103 7.68264 674.372 7.07957ZM661.508 8.91491C660.53 8.17956 659.711 7.49857 658.823 6.94636C658.619 6.81992 658.112 7.04668 657.86 7.26621C656.211 8.70074 654.622 10.2165 652.96 11.633C650.248 13.9445 647.277 14.8716 643.9 13.4511C643.676 13.3566 643.276 13.4854 643.067 13.662C642.276 14.3297 641.53 15.0599 640.684 15.8438C641.945 16.8539 643.342 17.3989 644.811 17.6978C647.708 18.2871 650.466 17.7965 653.013 16.176C654.156 15.449 655.305 14.6992 656.331 13.7996C658.056 12.2872 659.685 10.6469 661.508 8.91491Z" fill="url(#paint3_linear_11504_51072)" fill-opacity="0.3"/>
<path fill-rule="evenodd" clip-rule="evenodd" d="M163.332 4.6764C166.533 3.21061 169.475 3.82697 172.113 6.08877C174.103 7.79602 175.954 9.69528 177.974 11.6104C178.904 10.9576 179.884 10.2694 181.028 9.46642C177.255 6.04911 174.309 1.67436 169.281 0.425764C166.045 -0.378171 163.025 0.261524 160.099 2.25783C160.956 3.10283 161.701 3.88296 162.5 4.59055C162.683 4.75269 163.1 4.78278 163.332 4.6764ZM178.605 4.66287C181.727 3.2386 184.612 3.81461 187.222 5.97702C188.786 7.27274 190.202 8.77866 191.68 10.1943C192.162 10.6551 192.632 11.1296 193.174 11.6634C194.191 10.932 195.162 10.2337 196.319 9.40226C193.789 7.04994 191.514 4.65494 188.981 2.6402C184.779 -0.701752 179.451 -0.747711 175.375 2.28559C176.177 3.07903 176.941 3.8825 177.763 4.61154C177.942 4.77065 178.365 4.77228 178.605 4.66287ZM193.767 4.6883C197.24 3.10166 200.317 3.97815 203.087 6.47977C204.685 7.9227 206.205 9.46968 207.715 11.0216C208.198 11.5178 208.59 11.5824 209.113 11.1881C209.848 10.635 210.598 10.1042 211.483 9.46012C207.698 5.98939 204.688 1.57638 199.549 0.357175C196.544 -0.355775 193.124 0.36814 190.638 2.30402C191.452 3.11216 192.171 3.8706 192.942 4.55905C193.13 4.72633 193.542 4.79095 193.767 4.6883ZM209.141 4.64561C212.001 3.35642 214.754 3.66483 217.198 5.62241C219.208 7.23238 221.038 9.11274 222.886 10.9467C223.443 11.4996 223.854 11.5966 224.447 11.1328C225.142 10.5888 225.865 10.0856 226.737 9.44705C222.998 6.05727 220.055 1.70119 215.039 0.430896C211.857 -0.374905 208.756 0.239594 205.848 2.27719C206.697 3.11449 207.467 3.92076 208.295 4.64911C208.467 4.80098 208.893 4.75735 209.141 4.64561ZM225.906 4.21564C228.434 3.21294 230.894 4.21611 232.958 5.97865C234.703 7.46871 236.347 9.10644 237.954 10.771C238.655 11.4968 239.203 11.6242 239.958 10.9665C240.542 10.4572 241.184 10.0252 241.957 9.44029C238.229 6.02765 235.265 1.69256 230.239 0.413632C227.144 -0.374439 223.861 0.281354 221.103 2.28186C221.392 2.57301 221.624 2.76105 221.804 2.99504C222.914 4.43237 224.03 4.95985 225.906 4.21564ZM239.547 4.67267C242.8 3.18821 245.769 3.865 248.434 6.16109C250.173 7.65955 251.784 9.33507 253.407 10.984C253.92 11.5047 254.334 11.5964 254.897 11.1599C255.624 10.5963 256.374 10.0662 257.303 9.38266C254.721 7.00679 252.365 4.53129 249.726 2.48039C245.594 -0.72998 240.484 -0.701752 236.35 2.28116C237.173 3.09933 237.914 3.88273 238.711 4.59311C238.893 4.75525 239.312 4.77952 239.547 4.67267ZM254.821 4.6715C257.932 3.24607 260.814 3.80458 263.423 5.96839C264.984 7.26318 266.407 8.75393 267.886 10.1644C268.368 10.6245 268.83 11.1093 269.375 11.6571C270.381 10.9478 271.363 10.255 272.565 9.40716C269.96 7.00049 267.653 4.58868 265.087 2.56321C260.926 -0.720182 255.733 -0.729747 251.594 2.28023C252.422 3.09886 253.219 3.92356 254.063 4.6848C254.213 4.81988 254.599 4.77345 254.821 4.6715ZM270.047 4.67453C273.253 3.20314 276.196 3.83864 278.838 6.10207C280.609 7.61918 282.255 9.31057 283.911 10.9779C284.416 11.487 284.808 11.6202 285.38 11.1629C286.097 10.5895 286.852 10.0697 287.763 9.40039C285.276 7.07094 283.075 4.76015 280.642 2.78531C276.375 -0.676556 271.074 -0.801135 266.837 2.27836C267.662 3.09559 268.451 3.91562 269.289 4.67267C269.441 4.81008 269.827 4.77578 270.047 4.67453ZM277.61 6.99909C277.374 6.85584 276.823 7.05228 276.555 7.28137C274.698 8.86708 272.927 10.5734 271.034 12.105C268.512 14.1451 265.723 14.7053 262.696 13.4961C262.434 13.3918 261.993 13.4812 261.768 13.6676C260.973 14.3234 260.236 15.0606 259.33 15.9042C263.183 18.3022 266.987 18.6389 270.879 16.6461C274.438 14.8236 277.241 11.9218 280.132 8.86101C279.253 8.19402 278.47 7.52143 277.61 6.99909ZM264.786 9.01266C264.681 8.81646 264.658 8.73504 264.608 8.68628C262.256 6.39929 262.256 6.43475 259.895 8.63262C258.51 9.92204 257.057 11.137 255.565 12.2788C253.089 14.1734 250.394 14.6605 247.494 13.5029C247.245 13.403 246.833 13.4112 246.641 13.5715C245.798 14.2735 245.007 15.0499 244.097 15.8921C247.739 18.2245 251.473 18.7546 255.171 16.8075C257.494 15.5841 259.563 13.7639 261.666 12.0936C262.787 11.2035 263.737 10.0627 264.786 9.01266ZM246.996 6.92187C246.801 6.79985 246.296 7.06628 246.034 7.29094C244.099 8.95177 242.25 10.7374 240.256 12.3094C237.843 14.2121 235.156 14.6348 232.293 13.5302C231.999 13.4163 231.517 13.4791 231.272 13.6769C230.471 14.3232 229.739 15.0697 228.839 15.9098C233.07 18.5043 237.165 18.6202 241.321 16.137C244.437 14.2749 246.968 11.6417 249.658 8.87595C248.744 8.18749 247.905 7.48994 246.996 6.92187ZM231.799 6.94636C231.595 6.81898 231.085 7.04365 230.833 7.26294C229.127 8.7418 227.484 10.3067 225.76 11.7604C223.095 14.008 220.17 14.8317 216.886 13.4532C216.66 13.358 216.258 13.4772 216.05 13.6527C215.26 14.3197 214.516 15.0506 213.599 15.9021C217.637 18.414 221.588 18.6256 225.61 16.403C228.949 14.5578 231.614 11.7837 234.409 8.87128C233.498 8.18189 232.683 7.49927 231.799 6.94636ZM218.872 8.67671C216.498 6.40862 216.531 6.45131 214.153 8.64055C212.653 10.0219 211.091 11.3428 209.458 12.5324C207.114 14.2396 204.556 14.58 201.852 13.5474C201.533 13.4257 201.016 13.519 200.739 13.7348C199.956 14.3444 199.249 15.0697 198.394 15.8587C199.746 16.8616 201.191 17.4178 202.733 17.7297C206.753 18.5425 210.174 16.9862 213.267 14.4405C215.29 12.7759 217.159 10.8939 219.106 9.10108C218.946 8.80619 218.923 8.72477 218.872 8.67671ZM203.578 8.64265C201.245 6.41725 201.28 6.46274 198.962 8.60742C197.467 9.99063 195.899 11.298 194.273 12.4953C191.904 14.2403 189.318 14.5795 186.581 13.5418C186.266 13.4226 185.755 13.5299 185.478 13.7469C184.697 14.3584 183.992 15.0816 183.16 15.8503C184.952 17.1876 186.903 17.7957 188.996 17.9122C191.349 18.0433 193.524 17.384 195.582 16.1489C198.694 14.2812 201.227 11.6517 203.836 8.97253C203.715 8.81575 203.656 8.71707 203.578 8.64265ZM186.372 7.07957C185.873 6.66781 185.538 6.81432 185.079 7.23588C183.249 8.91724 181.42 10.6098 179.495 12.1584C176.998 14.1664 174.233 14.6869 171.248 13.5017C170.984 13.3967 170.541 13.4723 170.317 13.6569C169.519 14.3122 168.781 15.0513 167.864 15.9033C171.711 18.2978 175.511 18.6386 179.402 16.6538C182.966 14.8357 185.77 11.9279 188.656 8.87595C187.859 8.25142 187.103 7.68264 186.372 7.07957ZM173.508 8.91491C172.53 8.17956 171.711 7.49857 170.823 6.94636C170.619 6.81992 170.112 7.04668 169.86 7.26621C168.211 8.70074 166.622 10.2165 164.96 11.633C162.248 13.9445 159.277 14.8716 155.9 13.4511C155.676 13.3566 155.276 13.4854 155.067 13.662C154.276 14.3297 153.53 15.0599 152.684 15.8438C153.945 16.8539 155.342 17.3989 156.811 17.6978C159.708 18.2871 162.466 17.7965 165.013 16.176C166.156 15.449 167.305 14.6992 168.331 13.7996C170.056 12.2872 171.685 10.6469 173.508 8.91491Z" fill="url(#paint4_linear_11504_51072)" fill-opacity="0.3"/>
<path fill-rule="evenodd" clip-rule="evenodd" d="M773.332 4.6764C776.533 3.21061 779.475 3.82697 782.113 6.08877C784.103 7.79602 785.954 9.69528 787.974 11.6104C788.904 10.9576 789.884 10.2694 791.028 9.46642C787.255 6.04911 784.309 1.67436 779.281 0.425764C776.045 -0.378171 773.025 0.261524 770.099 2.25783C770.956 3.10283 771.701 3.88296 772.5 4.59055C772.683 4.75269 773.1 4.78278 773.332 4.6764ZM788.605 4.66287C791.727 3.2386 794.612 3.81461 797.222 5.97702C798.786 7.27274 800.202 8.77866 801.68 10.1943C802.162 10.6551 802.632 11.1296 803.175 11.6634C804.191 10.932 805.162 10.2337 806.319 9.40226C803.79 7.04994 801.514 4.65494 798.981 2.6402C794.779 -0.701752 789.451 -0.747711 785.375 2.28559C786.177 3.07903 786.941 3.8825 787.763 4.61154C787.942 4.77065 788.366 4.77228 788.605 4.66287ZM803.767 4.6883C807.24 3.10166 810.317 3.97815 813.087 6.47977C814.685 7.9227 816.205 9.46968 817.715 11.0216C818.197 11.5178 818.59 11.5824 819.113 11.1881C819.848 10.635 820.598 10.1042 821.483 9.46012C817.698 5.98939 814.688 1.57638 809.55 0.357175C806.544 -0.355775 803.124 0.36814 800.638 2.30402C801.452 3.11216 802.171 3.8706 802.942 4.55905C803.13 4.72633 803.542 4.79095 803.767 4.6883ZM819.141 4.64561C822.001 3.35642 824.754 3.66483 827.198 5.62241C829.208 7.23238 831.038 9.11274 832.886 10.9467C833.443 11.4996 833.854 11.5966 834.447 11.1328C835.142 10.5888 835.865 10.0856 836.737 9.44705C832.998 6.05727 830.056 1.70119 825.039 0.430896C821.857 -0.374905 818.756 0.239594 815.848 2.27719C816.697 3.11449 817.467 3.92076 818.295 4.64911C818.467 4.80098 818.893 4.75735 819.141 4.64561ZM835.906 4.21564C838.434 3.21294 840.894 4.21611 842.958 5.97865C844.703 7.46871 846.347 9.10644 847.954 10.771C848.655 11.4968 849.203 11.6242 849.958 10.9665C850.542 10.4572 851.184 10.0252 851.957 9.44029C848.229 6.02765 845.265 1.69256 840.239 0.413632C837.144 -0.374439 833.861 0.281354 831.103 2.28186C831.392 2.57301 831.624 2.76105 831.804 2.99504C832.914 4.43237 834.03 4.95985 835.906 4.21564ZM849.547 4.67267C852.8 3.18821 855.769 3.865 858.434 6.16109C860.173 7.65955 861.784 9.33507 863.407 10.984C863.92 11.5047 864.334 11.5964 864.897 11.1599C865.624 10.5963 866.374 10.0662 867.303 9.38266C864.721 7.00679 862.365 4.53129 859.726 2.48039C855.594 -0.72998 850.484 -0.701752 846.35 2.28116C847.173 3.09933 847.914 3.88273 848.711 4.59311C848.893 4.75525 849.313 4.77952 849.547 4.67267ZM864.821 4.6715C867.933 3.24607 870.814 3.80458 873.423 5.96839C874.984 7.26318 876.407 8.75393 877.886 10.1644C878.368 10.6245 878.83 11.1093 879.375 11.6571C880.381 10.9478 881.363 10.255 882.565 9.40716C879.96 7.00049 877.653 4.58868 875.087 2.56321C870.926 -0.720182 865.733 -0.729747 861.594 2.28023C862.422 3.09886 863.219 3.92356 864.063 4.6848C864.213 4.81988 864.599 4.77345 864.821 4.6715ZM880.047 4.67453C883.253 3.20314 886.196 3.83864 888.838 6.10207C890.609 7.61918 892.255 9.31057 893.911 10.9779C894.416 11.487 894.808 11.6202 895.38 11.1629C896.097 10.5895 896.852 10.0697 897.763 9.40039C895.276 7.07094 893.075 4.76015 890.642 2.78531C886.375 -0.676556 881.074 -0.801135 876.837 2.27836C877.662 3.09559 878.451 3.91562 879.289 4.67267C879.441 4.81008 879.827 4.77578 880.047 4.67453ZM887.61 6.99909C887.374 6.85584 886.823 7.05228 886.555 7.28137C884.698 8.86708 882.927 10.5734 881.034 12.105C878.512 14.1451 875.723 14.7053 872.696 13.4961C872.434 13.3918 871.993 13.4812 871.767 13.6676C870.973 14.3234 870.236 15.0606 869.33 15.9042C873.183 18.3022 876.987 18.6389 880.879 16.6461C884.438 14.8236 887.241 11.9218 890.132 8.86101C889.253 8.19402 888.47 7.52143 887.61 6.99909ZM874.786 9.01266C874.681 8.81646 874.658 8.73504 874.608 8.68628C872.256 6.39929 872.256 6.43475 869.895 8.63262C868.51 9.92204 867.057 11.137 865.565 12.2788C863.089 14.1734 860.394 14.6605 857.494 13.5029C857.245 13.403 856.833 13.4112 856.641 13.5715C855.798 14.2735 855.007 15.0499 854.097 15.8921C857.739 18.2245 861.473 18.7546 865.171 16.8075C867.494 15.5841 869.563 13.7639 871.666 12.0936C872.787 11.2035 873.737 10.0627 874.786 9.01266ZM856.996 6.92187C856.801 6.79985 856.296 7.06628 856.034 7.29094C854.099 8.95177 852.25 10.7374 850.256 12.3094C847.843 14.2121 845.156 14.6348 842.293 13.5302C841.999 13.4163 841.517 13.4791 841.272 13.6769C840.471 14.3232 839.739 15.0697 838.839 15.9098C843.07 18.5043 847.165 18.6202 851.321 16.137C854.437 14.2749 856.968 11.6417 859.658 8.87595C858.744 8.18749 857.905 7.48994 856.996 6.92187ZM841.799 6.94636C841.595 6.81898 841.085 7.04365 840.833 7.26294C839.127 8.7418 837.484 10.3067 835.76 11.7604C833.095 14.008 830.17 14.8317 826.886 13.4532C826.66 13.358 826.258 13.4772 826.05 13.6527C825.26 14.3197 824.516 15.0506 823.599 15.9021C827.637 18.414 831.588 18.6256 835.61 16.403C838.949 14.5578 841.614 11.7837 844.409 8.87128C843.498 8.18189 842.683 7.49927 841.799 6.94636ZM828.872 8.67671C826.498 6.40862 826.531 6.45131 824.153 8.64055C822.653 10.0219 821.091 11.3428 819.458 12.5324C817.114 14.2396 814.556 14.58 811.852 13.5474C811.533 13.4257 811.016 13.519 810.739 13.7348C809.956 14.3444 809.249 15.0697 808.394 15.8587C809.746 16.8616 811.191 17.4178 812.733 17.7297C816.753 18.5425 820.174 16.9862 823.267 14.4405C825.29 12.7759 827.159 10.8939 829.106 9.10108C828.946 8.80619 828.923 8.72477 828.872 8.67671ZM813.578 8.64265C811.245 6.41725 811.28 6.46274 808.962 8.60742C807.467 9.99063 805.899 11.298 804.273 12.4953C801.904 14.2403 799.318 14.5795 796.581 13.5418C796.266 13.4226 795.755 13.5299 795.478 13.7469C794.697 14.3584 793.992 15.0816 793.16 15.8503C794.952 17.1876 796.903 17.7957 798.996 17.9122C801.349 18.0433 803.524 17.384 805.582 16.1489C808.694 14.2812 811.227 11.6517 813.836 8.97253C813.715 8.81575 813.657 8.71707 813.578 8.64265ZM796.372 7.07957C795.873 6.66781 795.538 6.81432 795.079 7.23588C793.249 8.91724 791.42 10.6098 789.495 12.1584C786.998 14.1664 784.233 14.6869 781.248 13.5017C780.984 13.3967 780.541 13.4723 780.317 13.6569C779.519 14.3122 778.78 15.0513 777.864 15.9033C781.711 18.2978 785.511 18.6386 789.402 16.6538C792.966 14.8357 795.77 11.9279 798.656 8.87595C797.859 8.25142 797.103 7.68264 796.372 7.07957ZM783.508 8.91491C782.53 8.17956 781.711 7.49857 780.823 6.94636C780.619 6.81992 780.112 7.04668 779.86 7.26621C778.211 8.70074 776.622 10.2165 774.96 11.633C772.248 13.9445 769.277 14.8716 765.9 13.4511C765.676 13.3566 765.276 13.4854 765.067 13.662C764.276 14.3297 763.53 15.0599 762.684 15.8438C763.945 16.8539 765.342 17.3989 766.811 17.6978C769.708 18.2871 772.466 17.7965 775.013 16.176C776.156 15.449 777.305 14.6992 778.331 13.7996C780.056 12.2872 781.685 10.6469 783.508 8.91491Z" fill="url(#paint5_linear_11504_51072)" fill-opacity="0.3"/>
<path fill-rule="evenodd" clip-rule="evenodd" d="M285.332 4.6764C288.533 3.21061 291.475 3.82697 294.113 6.08877C296.103 7.79602 297.954 9.69528 299.974 11.6104C300.904 10.9576 301.884 10.2694 303.028 9.46642C299.255 6.04911 296.309 1.67436 291.281 0.425764C288.045 -0.378171 285.025 0.261524 282.099 2.25783C282.956 3.10283 283.701 3.88296 284.5 4.59055C284.683 4.75269 285.1 4.78278 285.332 4.6764ZM300.605 4.66287C303.727 3.2386 306.612 3.81461 309.222 5.97702C310.786 7.27274 312.202 8.77866 313.68 10.1943C314.162 10.6551 314.632 11.1296 315.174 11.6634C316.191 10.932 317.162 10.2337 318.319 9.40226C315.789 7.04994 313.514 4.65494 310.981 2.6402C306.779 -0.701752 301.451 -0.747711 297.375 2.28559C298.177 3.07903 298.941 3.8825 299.763 4.61154C299.942 4.77065 300.365 4.77228 300.605 4.66287ZM315.767 4.6883C319.24 3.10166 322.317 3.97815 325.087 6.47977C326.685 7.9227 328.205 9.46968 329.715 11.0216C330.198 11.5178 330.59 11.5824 331.113 11.1881C331.848 10.635 332.598 10.1042 333.483 9.46012C329.698 5.98939 326.688 1.57638 321.549 0.357175C318.544 -0.355775 315.124 0.36814 312.638 2.30402C313.452 3.11216 314.171 3.8706 314.942 4.55905C315.13 4.72633 315.542 4.79095 315.767 4.6883ZM331.141 4.64561C334.001 3.35642 336.754 3.66483 339.198 5.62241C341.208 7.23238 343.038 9.11274 344.886 10.9467C345.443 11.4996 345.854 11.5966 346.447 11.1328C347.142 10.5888 347.865 10.0856 348.737 9.44705C344.998 6.05727 342.055 1.70119 337.039 0.430896C333.857 -0.374905 330.756 0.239594 327.848 2.27719C328.697 3.11449 329.467 3.92076 330.295 4.64911C330.467 4.80098 330.893 4.75735 331.141 4.64561ZM347.906 4.21564C350.434 3.21294 352.894 4.21611 354.958 5.97865C356.703 7.46871 358.347 9.10644 359.954 10.771C360.655 11.4968 361.203 11.6242 361.958 10.9665C362.542 10.4572 363.184 10.0252 363.957 9.44029C360.229 6.02765 357.265 1.69256 352.239 0.413632C349.144 -0.374439 345.861 0.281354 343.103 2.28186C343.392 2.57301 343.624 2.76105 343.804 2.99504C344.914 4.43237 346.03 4.95985 347.906 4.21564ZM361.547 4.67267C364.8 3.18821 367.769 3.865 370.434 6.16109C372.173 7.65955 373.784 9.33507 375.407 10.984C375.92 11.5047 376.334 11.5964 376.897 11.1599C377.624 10.5963 378.374 10.0662 379.303 9.38266C376.721 7.00679 374.365 4.53129 371.726 2.48039C367.594 -0.72998 362.484 -0.701752 358.35 2.28116C359.173 3.09933 359.914 3.88273 360.711 4.59311C360.893 4.75525 361.312 4.77952 361.547 4.67267ZM376.821 4.6715C379.932 3.24607 382.814 3.80458 385.423 5.96839C386.984 7.26318 388.407 8.75393 389.886 10.1644C390.368 10.6245 390.83 11.1093 391.375 11.6571C392.381 10.9478 393.363 10.255 394.565 9.40716C391.96 7.00049 389.653 4.58868 387.087 2.56321C382.926 -0.720182 377.733 -0.729747 373.594 2.28023C374.422 3.09886 375.219 3.92356 376.063 4.6848C376.213 4.81988 376.599 4.77345 376.821 4.6715ZM392.047 4.67453C395.253 3.20314 398.196 3.83864 400.838 6.10207C402.609 7.61918 404.255 9.31057 405.911 10.9779C406.416 11.487 406.808 11.6202 407.38 11.1629C408.097 10.5895 408.852 10.0697 409.763 9.40039C407.276 7.07094 405.075 4.76015 402.642 2.78531C398.375 -0.676556 393.074 -0.801135 388.837 2.27836C389.662 3.09559 390.451 3.91562 391.289 4.67267C391.441 4.81008 391.827 4.77578 392.047 4.67453ZM399.61 6.99909C399.374 6.85584 398.823 7.05228 398.555 7.28137C396.698 8.86708 394.927 10.5734 393.034 12.105C390.512 14.1451 387.723 14.7053 384.696 13.4961C384.434 13.3918 383.993 13.4812 383.768 13.6676C382.973 14.3234 382.236 15.0606 381.33 15.9042C385.183 18.3022 388.987 18.6389 392.879 16.6461C396.438 14.8236 399.241 11.9218 402.132 8.86101C401.253 8.19402 400.47 7.52143 399.61 6.99909ZM386.786 9.01266C386.681 8.81646 386.658 8.73504 386.608 8.68628C384.256 6.39929 384.256 6.43475 381.895 8.63262C380.51 9.92204 379.057 11.137 377.565 12.2788C375.089 14.1734 372.394 14.6605 369.494 13.5029C369.245 13.403 368.833 13.4112 368.641 13.5715C367.798 14.2735 367.007 15.0499 366.097 15.8921C369.739 18.2245 373.473 18.7546 377.171 16.8075C379.494 15.5841 381.563 13.7639 383.666 12.0936C384.787 11.2035 385.737 10.0627 386.786 9.01266ZM368.996 6.92187C368.801 6.79985 368.296 7.06628 368.034 7.29094C366.099 8.95177 364.25 10.7374 362.256 12.3094C359.843 14.2121 357.156 14.6348 354.293 13.5302C353.999 13.4163 353.517 13.4791 353.272 13.6769C352.471 14.3232 351.739 15.0697 350.839 15.9098C355.07 18.5043 359.165 18.6202 363.321 16.137C366.437 14.2749 368.968 11.6417 371.658 8.87595C370.744 8.18749 369.905 7.48994 368.996 6.92187ZM353.799 6.94636C353.595 6.81898 353.085 7.04365 352.833 7.26294C351.127 8.7418 349.484 10.3067 347.76 11.7604C345.095 14.008 342.17 14.8317 338.886 13.4532C338.66 13.358 338.258 13.4772 338.05 13.6527C337.26 14.3197 336.516 15.0506 335.599 15.9021C339.637 18.414 343.588 18.6256 347.61 16.403C350.949 14.5578 353.614 11.7837 356.409 8.87128C355.498 8.18189 354.683 7.49927 353.799 6.94636ZM340.872 8.67671C338.498 6.40862 338.531 6.45131 336.153 8.64055C334.653 10.0219 333.091 11.3428 331.458 12.5324C329.114 14.2396 326.556 14.58 323.852 13.5474C323.533 13.4257 323.016 13.519 322.739 13.7348C321.956 14.3444 321.249 15.0697 320.394 15.8587C321.746 16.8616 323.191 17.4178 324.733 17.7297C328.753 18.5425 332.174 16.9862 335.267 14.4405C337.29 12.7759 339.159 10.8939 341.106 9.10108C340.946 8.80619 340.923 8.72477 340.872 8.67671ZM325.578 8.64265C323.245 6.41725 323.28 6.46274 320.962 8.60742C319.467 9.99063 317.899 11.298 316.273 12.4953C313.904 14.2403 311.318 14.5795 308.581 13.5418C308.266 13.4226 307.755 13.5299 307.478 13.7469C306.697 14.3584 305.992 15.0816 305.16 15.8503C306.952 17.1876 308.903 17.7957 310.996 17.9122C313.349 18.0433 315.524 17.384 317.582 16.1489C320.694 14.2812 323.227 11.6517 325.836 8.97253C325.715 8.81575 325.656 8.71707 325.578 8.64265ZM308.372 7.07957C307.873 6.66781 307.538 6.81432 307.079 7.23588C305.249 8.91724 303.42 10.6098 301.495 12.1584C298.998 14.1664 296.233 14.6869 293.248 13.5017C292.984 13.3967 292.541 13.4723 292.317 13.6569C291.519 14.3122 290.781 15.0513 289.864 15.9033C293.711 18.2978 297.511 18.6386 301.402 16.6538C304.966 14.8357 307.77 11.9279 310.656 8.87595C309.859 8.25142 309.103 7.68264 308.372 7.07957ZM295.508 8.91491C294.53 8.17956 293.711 7.49857 292.823 6.94636C292.619 6.81992 292.112 7.04668 291.86 7.26621C290.211 8.70074 288.622 10.2165 286.96 11.633C284.248 13.9445 281.277 14.8716 277.9 13.4511C277.676 13.3566 277.276 13.4854 277.067 13.662C276.276 14.3297 275.53 15.0599 274.684 15.8438C275.945 16.8539 277.342 17.3989 278.811 17.6978C281.708 18.2871 284.466 17.7965 287.013 16.176C288.156 15.449 289.305 14.6992 290.331 13.7996C292.056 12.2872 293.685 10.6469 295.508 8.91491Z" fill="url(#paint6_linear_11504_51072)" fill-opacity="0.3"/>
<path fill-rule="evenodd" clip-rule="evenodd" d="M529.332 4.6764C532.533 3.21061 535.475 3.82697 538.113 6.08877C540.103 7.79602 541.954 9.69528 543.974 11.6104C544.904 10.9576 545.884 10.2694 547.028 9.46642C543.255 6.04911 540.309 1.67436 535.281 0.425764C532.045 -0.378171 529.025 0.261524 526.099 2.25783C526.956 3.10283 527.701 3.88296 528.5 4.59055C528.683 4.75269 529.1 4.78278 529.332 4.6764ZM544.605 4.66287C547.727 3.2386 550.612 3.81461 553.222 5.97702C554.786 7.27274 556.202 8.77866 557.68 10.1943C558.162 10.6551 558.632 11.1296 559.175 11.6634C560.191 10.932 561.162 10.2337 562.319 9.40226C559.79 7.04994 557.514 4.65494 554.981 2.6402C550.779 -0.701752 545.451 -0.747711 541.375 2.28559C542.177 3.07903 542.941 3.8825 543.763 4.61154C543.942 4.77065 544.366 4.77228 544.605 4.66287ZM559.767 4.6883C563.24 3.10166 566.317 3.97815 569.087 6.47977C570.685 7.9227 572.205 9.46968 573.715 11.0216C574.197 11.5178 574.59 11.5824 575.113 11.1881C575.848 10.635 576.598 10.1042 577.483 9.46012C573.698 5.98939 570.688 1.57638 565.55 0.357175C562.544 -0.355775 559.124 0.36814 556.638 2.30402C557.452 3.11216 558.171 3.8706 558.942 4.55905C559.13 4.72633 559.542 4.79095 559.767 4.6883ZM575.141 4.64561C578.001 3.35642 580.754 3.66483 583.198 5.62241C585.208 7.23238 587.038 9.11274 588.886 10.9467C589.443 11.4996 589.854 11.5966 590.447 11.1328C591.142 10.5888 591.865 10.0856 592.737 9.44705C588.998 6.05727 586.056 1.70119 581.039 0.430896C577.857 -0.374905 574.756 0.239594 571.848 2.27719C572.697 3.11449 573.467 3.92076 574.295 4.64911C574.467 4.80098 574.893 4.75735 575.141 4.64561ZM591.906 4.21564C594.434 3.21294 596.894 4.21611 598.958 5.97865C600.703 7.46871 602.347 9.10644 603.954 10.771C604.655 11.4968 605.203 11.6242 605.958 10.9665C606.542 10.4572 607.184 10.0252 607.957 9.44029C604.229 6.02765 601.265 1.69256 596.239 0.413632C593.144 -0.374439 589.861 0.281354 587.103 2.28186C587.392 2.57301 587.624 2.76105 587.804 2.99504C588.914 4.43237 590.03 4.95985 591.906 4.21564ZM605.547 4.67267C608.8 3.18821 611.769 3.865 614.434 6.16109C616.173 7.65955 617.784 9.33507 619.408 10.984C619.92 11.5047 620.334 11.5964 620.897 11.1599C621.624 10.5963 622.374 10.0662 623.303 9.38266C620.721 7.00679 618.365 4.53129 615.726 2.48039C611.594 -0.72998 606.484 -0.701752 602.35 2.28116C603.173 3.09933 603.914 3.88273 604.711 4.59311C604.893 4.75525 605.313 4.77952 605.547 4.67267ZM620.821 4.6715C623.933 3.24607 626.814 3.80458 629.423 5.96839C630.984 7.26318 632.407 8.75393 633.886 10.1644C634.368 10.6245 634.83 11.1093 635.375 11.6571C636.381 10.9478 637.363 10.255 638.565 9.40716C635.96 7.00049 633.653 4.58868 631.087 2.56321C626.926 -0.720182 621.733 -0.729747 617.594 2.28023C618.422 3.09886 619.219 3.92356 620.063 4.6848C620.213 4.81988 620.599 4.77345 620.821 4.6715ZM636.047 4.67453C639.253 3.20314 642.196 3.83864 644.838 6.10207C646.609 7.61918 648.255 9.31057 649.911 10.9779C650.416 11.487 650.808 11.6202 651.38 11.1629C652.097 10.5895 652.852 10.0697 653.763 9.40039C651.276 7.07094 649.075 4.76015 646.642 2.78531C642.375 -0.676556 637.074 -0.801135 632.837 2.27836C633.662 3.09559 634.451 3.91562 635.289 4.67267C635.441 4.81008 635.827 4.77578 636.047 4.67453ZM643.61 6.99909C643.374 6.85584 642.823 7.05228 642.555 7.28137C640.698 8.86708 638.927 10.5734 637.034 12.105C634.512 14.1451 631.723 14.7053 628.696 13.4961C628.434 13.3918 627.993 13.4812 627.767 13.6676C626.973 14.3234 626.236 15.0606 625.33 15.9042C629.183 18.3022 632.987 18.6389 636.879 16.6461C640.438 14.8236 643.241 11.9218 646.132 8.86101C645.253 8.19402 644.47 7.52143 643.61 6.99909ZM630.786 9.01266C630.681 8.81646 630.658 8.73504 630.608 8.68628C628.256 6.39929 628.256 6.43475 625.895 8.63262C624.51 9.92204 623.057 11.137 621.565 12.2788C619.089 14.1734 616.394 14.6605 613.494 13.5029C613.245 13.403 612.833 13.4112 612.641 13.5715C611.798 14.2735 611.007 15.0499 610.098 15.8921C613.739 18.2245 617.473 18.7546 621.171 16.8075C623.494 15.5841 625.563 13.7639 627.666 12.0936C628.787 11.2035 629.737 10.0627 630.786 9.01266ZM612.996 6.92187C612.801 6.79985 612.296 7.06628 612.034 7.29094C610.099 8.95177 608.25 10.7374 606.256 12.3094C603.843 14.2121 601.156 14.6348 598.293 13.5302C597.999 13.4163 597.517 13.4791 597.272 13.6769C596.471 14.3232 595.739 15.0697 594.839 15.9098C599.07 18.5043 603.165 18.6202 607.321 16.137C610.437 14.2749 612.968 11.6417 615.658 8.87595C614.744 8.18749 613.905 7.48994 612.996 6.92187ZM597.799 6.94636C597.595 6.81898 597.085 7.04365 596.833 7.26294C595.127 8.7418 593.484 10.3067 591.76 11.7604C589.095 14.008 586.17 14.8317 582.886 13.4532C582.66 13.358 582.258 13.4772 582.05 13.6527C581.26 14.3197 580.516 15.0506 579.599 15.9021C583.637 18.414 587.587 18.6256 591.61 16.403C594.949 14.5578 597.614 11.7837 600.409 8.87128C599.498 8.18189 598.683 7.49927 597.799 6.94636ZM584.872 8.67671C582.498 6.40862 582.531 6.45131 580.153 8.64055C578.653 10.0219 577.091 11.3428 575.458 12.5324C573.114 14.2396 570.556 14.58 567.852 13.5474C567.533 13.4257 567.016 13.519 566.739 13.7348C565.956 14.3444 565.249 15.0697 564.394 15.8587C565.746 16.8616 567.191 17.4178 568.733 17.7297C572.753 18.5425 576.174 16.9862 579.267 14.4405C581.29 12.7759 583.159 10.8939 585.106 9.10108C584.946 8.80619 584.923 8.72477 584.872 8.67671ZM569.578 8.64265C567.245 6.41725 567.28 6.46274 564.962 8.60742C563.467 9.99063 561.899 11.298 560.273 12.4953C557.904 14.2403 555.318 14.5795 552.581 13.5418C552.266 13.4226 551.755 13.5299 551.478 13.7469C550.697 14.3584 549.992 15.0816 549.16 15.8503C550.952 17.1876 552.903 17.7957 554.996 17.9122C557.349 18.0433 559.524 17.384 561.582 16.1489C564.694 14.2812 567.227 11.6517 569.836 8.97253C569.715 8.81575 569.656 8.71707 569.578 8.64265ZM552.372 7.07957C551.873 6.66781 551.538 6.81432 551.079 7.23588C549.249 8.91724 547.42 10.6098 545.495 12.1584C542.998 14.1664 540.233 14.6869 537.248 13.5017C536.984 13.3967 536.541 13.4723 536.317 13.6569C535.519 14.3122 534.78 15.0513 533.864 15.9033C537.711 18.2978 541.511 18.6386 545.402 16.6538C548.966 14.8357 551.77 11.9279 554.656 8.87595C553.859 8.25142 553.103 7.68264 552.372 7.07957ZM539.508 8.91491C538.53 8.17956 537.711 7.49857 536.823 6.94636C536.619 6.81992 536.112 7.04668 535.86 7.26621C534.211 8.70074 532.622 10.2165 530.96 11.633C528.248 13.9445 525.277 14.8716 521.9 13.4511C521.676 13.3566 521.276 13.4854 521.067 13.662C520.276 14.3297 519.53 15.0599 518.684 15.8438C519.945 16.8539 521.342 17.3989 522.811 17.6978C525.708 18.2871 528.466 17.7965 531.013 16.176C532.156 15.449 533.305 14.6992 534.331 13.7996C536.056 12.2872 537.685 10.6469 539.508 8.91491Z" fill="url(#paint7_linear_11504_51072)" fill-opacity="0.3"/>
<path fill-rule="evenodd" clip-rule="evenodd" d="M41.3322 4.6764C44.5325 3.21061 47.4753 3.82697 50.1126 6.08877C52.1035 7.79602 53.9536 9.69528 55.9736 11.6104C56.9035 10.9576 57.8842 10.2694 59.0279 9.46642C55.2552 6.04911 52.3094 1.67436 47.2814 0.425764C44.0448 -0.378171 41.0246 0.261524 38.0993 2.25783C38.9561 3.10283 39.7006 3.88296 40.4998 4.59055C40.6827 4.75269 41.0999 4.78278 41.3322 4.6764ZM56.6052 4.66287C59.727 3.2386 62.6119 3.81461 65.2219 5.97702C66.7858 7.27274 68.2015 8.77866 69.6805 10.1943C70.1619 10.6551 70.6324 11.1296 71.1745 11.6634C72.1913 10.932 73.1621 10.2337 74.3185 9.40226C71.7895 7.04994 69.5143 4.65494 66.981 2.6402C62.7791 -0.701752 57.4506 -0.747711 53.3749 2.28559C54.1767 3.07903 54.9414 3.8825 55.7626 4.61154C55.9421 4.77065 56.3655 4.77228 56.6052 4.66287ZM71.7671 4.6883C75.2403 3.10166 78.3168 3.97815 81.087 6.47977C82.6851 7.9227 84.2051 9.46968 85.7147 11.0216C86.1975 11.5178 86.5897 11.5824 87.1134 11.1881C87.8481 10.635 88.5975 10.1042 89.4835 9.46012C85.6979 5.98939 82.6878 1.57638 77.5495 0.357175C74.5444 -0.355775 71.124 0.36814 68.6379 2.30402C69.4523 3.11216 70.1708 3.8706 70.9424 4.55905C71.1298 4.72633 71.5421 4.79095 71.7671 4.6883ZM87.1408 4.64561C90.0005 3.35642 92.7537 3.66483 95.1982 5.62241C97.208 7.23238 99.0383 9.11274 100.886 10.9467C101.443 11.4996 101.854 11.5966 102.447 11.1328C103.142 10.5888 103.865 10.0856 104.737 9.44705C100.998 6.05727 98.0555 1.70119 93.0391 0.430896C89.8566 -0.374905 86.7564 0.239594 83.8477 2.27719C84.6974 3.11449 85.4669 3.92076 86.295 4.64911C86.4673 4.80098 86.8929 4.75735 87.1408 4.64561ZM103.906 4.21564C106.434 3.21294 108.894 4.21611 110.958 5.97865C112.703 7.46871 114.347 9.10644 115.954 10.771C116.655 11.4968 117.203 11.6242 117.958 10.9665C118.542 10.4572 119.184 10.0252 119.957 9.44029C116.229 6.02765 113.265 1.69256 108.239 0.413632C105.144 -0.374439 101.861 0.281354 99.1028 2.28186C99.392 2.57301 99.6235 2.76105 99.8043 2.99504C100.914 4.43237 102.03 4.95985 103.906 4.21564ZM117.547 4.67267C120.8 3.18821 123.769 3.865 126.434 6.16109C128.173 7.65955 129.784 9.33507 131.407 10.984C131.92 11.5047 132.334 11.5964 132.897 11.1599C133.624 10.5963 134.374 10.0662 135.303 9.38266C132.721 7.00679 130.365 4.53129 127.726 2.48039C123.594 -0.72998 118.484 -0.701752 114.35 2.28116C115.173 3.09933 115.914 3.88273 116.711 4.59311C116.893 4.75525 117.312 4.77952 117.547 4.67267ZM132.821 4.6715C135.932 3.24607 138.814 3.80458 141.423 5.96839C142.984 7.26318 144.407 8.75393 145.886 10.1644C146.368 10.6245 146.83 11.1093 147.375 11.6571C148.381 10.9478 149.363 10.255 150.565 9.40716C147.96 7.00049 145.653 4.58868 143.087 2.56321C138.926 -0.720182 133.733 -0.729747 129.594 2.28023C130.422 3.09886 131.219 3.92356 132.063 4.6848C132.213 4.81988 132.599 4.77345 132.821 4.6715ZM148.047 4.67453C151.253 3.20314 154.196 3.83864 156.838 6.10207C158.609 7.61918 160.255 9.31057 161.911 10.9779C162.416 11.487 162.808 11.6202 163.38 11.1629C164.097 10.5895 164.852 10.0697 165.763 9.40039C163.276 7.07094 161.075 4.76015 158.642 2.78531C154.375 -0.676556 149.074 -0.801135 144.837 2.27836C145.662 3.09559 146.451 3.91562 147.289 4.67267C147.441 4.81008 147.827 4.77578 148.047 4.67453ZM155.61 6.99909C155.374 6.85584 154.823 7.05228 154.555 7.28137C152.698 8.86708 150.927 10.5734 149.034 12.105C146.512 14.1451 143.723 14.7053 140.696 13.4961C140.434 13.3918 139.993 13.4812 139.768 13.6676C138.973 14.3234 138.236 15.0606 137.33 15.9042C141.183 18.3022 144.987 18.6389 148.879 16.6461C152.438 14.8236 155.241 11.9218 158.132 8.86101C157.253 8.19402 156.47 7.52143 155.61 6.99909ZM142.786 9.01266C142.681 8.81646 142.658 8.73504 142.608 8.68628C140.256 6.39929 140.256 6.43475 137.895 8.63262C136.51 9.92204 135.057 11.137 133.565 12.2788C131.089 14.1734 128.394 14.6605 125.494 13.5029C125.245 13.403 124.833 13.4112 124.641 13.5715C123.798 14.2735 123.007 15.0499 122.097 15.8921C125.739 18.2245 129.473 18.7546 133.171 16.8075C135.494 15.5841 137.563 13.7639 139.666 12.0936C140.787 11.2035 141.737 10.0627 142.786 9.01266ZM124.996 6.92187C124.801 6.79985 124.296 7.06628 124.034 7.29094C122.099 8.95177 120.25 10.7374 118.256 12.3094C115.843 14.2121 113.156 14.6348 110.293 13.5302C109.999 13.4163 109.517 13.4791 109.272 13.6769C108.471 14.3232 107.739 15.0697 106.839 15.9098C111.07 18.5043 115.165 18.6202 119.321 16.137C122.437 14.2749 124.968 11.6417 127.658 8.87595C126.744 8.18749 125.905 7.48994 124.996 6.92187ZM109.799 6.94636C109.595 6.81898 109.085 7.04365 108.833 7.26294C107.127 8.7418 105.484 10.3067 103.76 11.7604C101.095 14.008 98.1696 14.8317 94.8862 13.4532C94.6597 13.358 94.2581 13.4772 94.0504 13.6527C93.2599 14.3197 92.516 15.0506 91.5994 15.9021C95.6367 18.414 99.5875 18.6256 103.61 16.403C106.949 14.5578 109.614 11.7837 112.409 8.87128C111.498 8.18189 110.683 7.49927 109.799 6.94636ZM96.8723 8.67671C94.4979 6.40862 94.5308 6.45131 92.1534 8.64055C90.6533 10.0219 89.0908 11.3428 87.4579 12.5324C85.1141 14.2396 82.5556 14.58 79.8521 13.5474C79.533 13.4257 79.0164 13.519 78.739 13.7348C77.9557 14.3444 77.249 15.0697 76.3937 15.8587C77.7465 16.8616 79.1909 17.4178 80.733 17.7297C84.7531 18.5425 88.1741 16.9862 91.2672 14.4405C93.2897 12.7759 95.1593 10.8939 97.1061 9.10108C96.9457 8.80619 96.9225 8.72477 96.8723 8.67671ZM81.5784 8.64265C79.2451 6.41725 79.2804 6.46274 76.9621 8.60742C75.4672 9.99063 73.8992 11.298 72.2734 12.4953C69.9036 14.2403 67.3182 14.5795 64.5808 13.5418C64.2661 13.4226 63.7546 13.5299 63.4778 13.7469C62.6974 14.3584 61.9916 15.0816 61.1595 15.8503C62.9517 17.1876 64.9029 17.7957 66.9957 17.9122C69.3489 18.0433 71.5236 17.384 73.5817 16.1489C76.694 14.2812 79.2267 11.6517 81.836 8.97253C81.7148 8.81575 81.6565 8.71707 81.5784 8.64265ZM64.3719 7.07957C63.8726 6.66781 63.5376 6.81432 63.079 7.23588C61.2488 8.91724 59.42 10.6098 57.4946 12.1584C54.9984 14.1664 52.2333 14.6869 49.2482 13.5017C48.984 13.3967 48.5412 13.4723 48.3168 13.6569C47.5193 14.3122 46.7805 15.0513 45.8637 15.9033C49.7105 18.2978 53.5112 18.6386 57.4022 16.6538C60.966 14.8357 63.7699 11.9279 66.6564 8.87595C65.8586 8.25142 65.1035 7.68264 64.3719 7.07957ZM51.5081 8.91491C50.5296 8.17956 49.7105 7.49857 48.8229 6.94636C48.6194 6.81992 48.1121 7.04668 47.8601 7.26621C46.2112 8.70074 44.6221 10.2165 42.9602 11.633C40.2482 13.9445 37.2766 14.8716 33.9002 13.4511C33.6761 13.3566 33.2762 13.4854 33.0671 13.662C32.2761 14.3297 31.5302 15.0599 30.6839 15.8438C31.9448 16.8539 33.3423 17.3989 34.8107 17.6978C37.7078 18.2871 40.4661 17.7965 43.0135 16.176C44.1561 15.449 45.305 14.6992 46.3309 13.7996C48.056 12.2872 49.6853 10.6469 51.5081 8.91491Z" fill="url(#paint8_linear_11504_51072)" fill-opacity="0.3"/>
<defs>
<linearGradient id="paint0_linear_11504_51072" x1="-2.45367e-05" y1="8.99988" x2="1020.63" y2="8.99988" gradientUnits="userSpaceOnUse">
<stop stop-color="#99783B"/>
<stop offset="1" stop-color="#A98950" stop-opacity="0"/>
</linearGradient>
<linearGradient id="paint1_linear_11504_51072" x1="-2.45367e-05" y1="8.99988" x2="1020.63" y2="8.99988" gradientUnits="userSpaceOnUse">
<stop stop-color="#99783B"/>
<stop offset="1" stop-color="#A98950" stop-opacity="0"/>
</linearGradient>
<linearGradient id="paint2_linear_11504_51072" x1="-2.45367e-05" y1="8.99988" x2="1020.63" y2="8.99988" gradientUnits="userSpaceOnUse">
<stop stop-color="#99783B"/>
<stop offset="1" stop-color="#A98950" stop-opacity="0"/>
</linearGradient>
<linearGradient id="paint3_linear_11504_51072" x1="-2.45367e-05" y1="8.99988" x2="1020.63" y2="8.99988" gradientUnits="userSpaceOnUse">
<stop stop-color="#99783B"/>
<stop offset="1" stop-color="#A98950" stop-opacity="0"/>
</linearGradient>
<linearGradient id="paint4_linear_11504_51072" x1="-2.45367e-05" y1="8.99988" x2="1020.63" y2="8.99988" gradientUnits="userSpaceOnUse">
<stop stop-color="#99783B"/>
<stop offset="1" stop-color="#A98950" stop-opacity="0"/>
</linearGradient>
<linearGradient id="paint5_linear_11504_51072" x1="-2.45367e-05" y1="8.99988" x2="1020.63" y2="8.99988" gradientUnits="userSpaceOnUse">
<stop stop-color="#99783B"/>
<stop offset="1" stop-color="#A98950" stop-opacity="0"/>
</linearGradient>
<linearGradient id="paint6_linear_11504_51072" x1="-2.45367e-05" y1="8.99988" x2="1020.63" y2="8.99988" gradientUnits="userSpaceOnUse">
<stop stop-color="#99783B"/>
<stop offset="1" stop-color="#A98950" stop-opacity="0"/>
</linearGradient>
<linearGradient id="paint7_linear_11504_51072" x1="-2.45367e-05" y1="8.99988" x2="1020.63" y2="8.99988" gradientUnits="userSpaceOnUse">
<stop stop-color="#99783B"/>
<stop offset="1" stop-color="#A98950" stop-opacity="0"/>
</linearGradient>
<linearGradient id="paint8_linear_11504_51072" x1="-2.45367e-05" y1="8.99988" x2="1020.63" y2="8.99988" gradientUnits="userSpaceOnUse">
<stop stop-color="#99783B"/>
<stop offset="1" stop-color="#A98950" stop-opacity="0"/>
</linearGradient>
</defs>
</svg>
