<svg width="48" height="48" viewBox="0 0 48 48" fill="none" xmlns="http://www.w3.org/2000/svg">
<g id="Subclasses">
<g id="Vector" filter="url(#filter0_d_4447_3935)">
<path fill-rule="evenodd" clip-rule="evenodd" d="M38.0353 28.0921C37.3386 29.774 36.3556 31.1898 34.947 32.4017C33.2544 33.858 31.3957 34.95 29.2599 35.614C28.4962 35.8509 28.2442 36.1477 28.2358 36.9556C28.229 37.6092 28.2952 38.2642 28.3272 38.9193C28.3325 39.0137 28.328 39.1082 28.328 39.2026C28.2922 39.2138 28.2572 39.2258 28.2214 39.2378C28.0706 38.947 27.8985 38.666 27.7736 38.3654C27.1287 36.8177 26.5843 35.2445 26.7754 33.5334C26.8356 32.9975 26.8508 32.3957 27.367 32.0764C27.6709 31.8883 28.1018 31.9085 28.4597 31.7901C31.6759 30.7243 34.2465 28.9233 35.4023 25.6547C36.4082 22.8112 36.0648 20.0118 34.899 17.2716C34.4384 16.1894 33.9001 15.1633 33.0861 14.2887C32.9232 14.114 32.8272 13.8794 32.7435 13.6426C33.8726 14.0548 34.727 14.8051 35.5303 15.6153C37.3524 17.453 38.4572 19.6738 38.876 22.1733C39.2163 24.2015 38.8303 26.1764 38.0353 28.0921ZM30.7318 24.4653C30.8391 25.699 30.3503 26.725 29.5759 27.6387C28.7802 28.5785 27.7691 29.1939 26.5371 29.4584C26.046 29.5649 25.5701 29.7395 24.9983 29.9089C25.2069 30.115 25.3577 30.3271 25.564 30.4508C25.8206 30.6051 25.8488 30.755 25.7231 31.0001C24.9457 32.5141 24.9945 34.133 25.133 35.7534C25.2259 36.8364 25.3241 37.9247 25.896 38.9051C25.9478 38.9927 25.8731 39.2019 25.7909 39.3015C25.6813 39.4334 25.4901 39.4964 25.363 39.6186C25.1018 39.8674 24.7782 40.075 25.2389 40.488C25.5503 40.7675 25.5343 41.182 25.1901 41.5163C24.5741 42.1136 23.7975 42.1706 23.1419 41.6152C22.6736 41.2195 22.6447 40.82 23.0734 40.3726C23.3163 40.1192 23.317 39.9731 22.979 39.8509C22.9637 39.8457 22.9477 39.8412 22.934 39.8329C22.0417 39.291 22.1201 39.2775 22.3919 38.2957C23.0642 35.8689 23.3559 33.4195 22.299 31.0046C22.1894 30.7543 22.1894 30.5939 22.4604 30.4583C22.6889 30.3443 22.896 30.1884 23.1122 30.0513C23.0604 29.9928 23.0087 29.9351 22.9569 29.8766C22.4741 29.7395 21.9868 29.6151 21.5087 29.4629C19.5617 28.8446 18.1812 27.6574 17.6086 25.6832C17.5295 25.4089 17.4876 25.1174 17.4815 24.8325C17.4746 24.52 17.5675 24.2195 17.2637 23.9519C17.1716 23.8709 17.2211 23.5299 17.3208 23.3815C17.3901 23.2773 17.6627 23.2481 17.8295 23.2751C18.0495 23.3111 18.2612 23.4212 18.463 23.5239C19.0546 23.8237 19.0089 23.826 18.6922 24.3604C18.5307 24.6332 18.4744 25.0596 18.5665 25.3587C18.6937 25.7694 18.9251 26.2266 19.2579 26.4799C19.8434 26.9259 20.5165 27.2849 21.1972 27.5832C21.8665 27.8755 22.1033 27.6866 22.1231 26.9851C22.1703 25.3205 22.2069 23.6558 22.2579 21.9912C22.2701 21.5887 22.2084 21.241 21.8772 20.9524C21.5528 20.6699 21.4538 20.3985 21.8186 19.9908C22.0713 19.7083 22.1962 19.2413 22.2191 18.8486C22.3508 16.6263 22.3485 14.3943 22.5594 12.1803C22.7589 10.0862 23.0627 7.98766 24.083 6C24.3198 6.71202 24.613 7.4113 24.7851 8.13906C25.4483 10.9407 25.7323 13.785 25.7132 16.6608C25.7079 17.4455 25.6972 18.24 25.813 19.012C25.8868 19.5066 26.1876 19.9691 26.3863 20.4458C26.4328 20.439 26.4792 20.433 26.5257 20.4255C26.4275 20.5702 26.3566 20.7456 26.2272 20.8535C25.7894 21.2185 25.7513 21.6869 25.7696 22.2033C25.8259 23.787 25.8579 25.3707 25.9013 26.9551C25.9211 27.6484 26.0346 27.805 26.7115 27.6446C27.8262 27.3816 28.8572 26.8899 29.4632 25.8773C29.799 25.3175 29.9704 24.6774 29.3346 24.1273C29.282 24.0816 29.3506 23.7788 29.445 23.7188C29.7297 23.5374 30.0435 23.3815 30.3678 23.2878C30.5323 23.2399 30.8658 23.2976 30.9077 23.3958C30.9876 23.5839 30.9343 23.838 30.8978 24.0591C30.8749 24.2 30.7204 24.3364 30.7318 24.4653ZM12.3259 19.7862C11.7053 22.4626 12.0168 25.0312 13.4886 27.4198C14.6734 29.3423 16.4307 30.5662 18.517 31.3906C19.0614 31.6057 19.5998 31.877 20.1678 31.9767C20.5279 32.0389 20.8417 32.0367 20.9665 32.4152C21.0815 32.7629 21.2064 33.119 21.2422 33.4795C21.3724 34.8091 21.1653 36.0959 20.6406 37.3326C20.4153 37.8625 20.1998 38.3976 19.9729 38.9275C19.9272 39.034 19.8526 39.1284 19.8 39.2138C19.8 38.5528 19.8008 37.9067 19.7993 37.2614C19.7985 37.101 19.8046 36.9384 19.7802 36.781C19.6889 36.1994 19.4779 35.7857 18.7866 35.6043C15.9609 34.86 13.6881 33.1992 11.7693 31.1231C10.9926 30.2821 10.5175 29.1466 10.0173 28.0943C9.07385 26.1112 8.75329 23.9886 9.19644 21.8541C9.85888 18.6627 11.5348 16.0395 14.2637 14.1118C14.4069 14.0106 14.582 13.9529 14.7381 13.8689C14.8934 13.7865 15.0442 13.6966 15.1965 13.6096C15.2376 13.6463 15.2795 13.6831 15.3206 13.7205C15.1036 14.0211 14.9056 14.3381 14.6657 14.6207C13.385 16.1264 12.7576 17.926 12.3259 19.7862Z" fill="url(#paint0_linear_4447_3935)"/>
</g>
</g>
<defs>
<filter id="filter0_d_4447_3935" x="6.879" y="5.379" width="34.242" height="40.242" filterUnits="userSpaceOnUse" color-interpolation-filters="sRGB">
<feFlood flood-opacity="0" result="BackgroundImageFix"/>
<feColorMatrix in="SourceAlpha" type="matrix" values="0 0 0 0 0 0 0 0 0 0 0 0 0 0 0 0 0 0 127 0" result="hardAlpha"/>
<feOffset dy="1.5"/>
<feGaussianBlur stdDeviation="1.0605"/>
<feColorMatrix type="matrix" values="0 0 0 0 0 0 0 0 0 0 0 0 0 0 0 0 0 0 0.3 0"/>
<feBlend mode="normal" in2="BackgroundImageFix" result="effect1_dropShadow_4447_3935"/>
<feBlend mode="normal" in="SourceGraphic" in2="effect1_dropShadow_4447_3935" result="shape"/>
</filter>
<linearGradient id="paint0_linear_4447_3935" x1="8.93225" y1="43.0487" x2="8.99836" y2="6" gradientUnits="userSpaceOnUse">
<stop offset="0.496356" stop-color="#C6B073"/>
<stop offset="1" stop-color="#E0D1A9"/>
</linearGradient>
</defs>
</svg>
