<svg width="48" height="48" viewBox="0 0 48 48" fill="none" xmlns="http://www.w3.org/2000/svg">
<g id="Subclasses">
<g id="Vector" filter="url(#filter0_d_4447_3926)">
<path fill-rule="evenodd" clip-rule="evenodd" d="M39 27.8652C38.9659 27.9148 38.9311 27.9643 38.8971 28.0139C38.229 27.7016 37.5589 27.3953 36.8937 27.0754C36.2001 26.7428 35.5136 26.393 34.8208 26.0581C34.3806 25.8449 34.0328 25.9328 33.6906 26.3367C33.1724 26.9463 32.6101 27.5176 32.0294 28.0619C31.7128 28.3585 31.5609 28.6355 31.7802 29.4186C32.3262 31.3668 32.8948 33.3083 33.4535 35.2536C33.4748 35.3279 33.4854 35.4067 33.5003 35.484C33.4648 35.5163 33.4294 35.5494 33.3939 35.5816C33.2909 35.436 33.193 35.2851 33.0829 35.1447C31.9442 33.6912 30.8027 32.24 29.6633 30.7872C29.3389 30.3736 29.1252 30.3375 28.6503 30.5748C28.3116 30.7437 27.9574 30.8788 27.5293 31.0635C27.4718 29.8458 27.4093 28.7226 27.3781 27.598C27.3745 27.4711 27.5208 27.2699 27.6408 27.2203C29.6051 26.4125 30.9901 24.8389 32.3411 23.233C33.5827 21.7577 34.015 19.9859 33.9029 18.0414C33.8077 16.4025 33.4947 14.8424 32.4788 13.5293C32.3446 13.3566 32.2168 13.1787 32.0855 13.0038C32.121 12.961 32.1565 12.9189 32.192 12.8761C32.3325 12.967 32.4802 13.0481 32.613 13.1509C34.1748 14.3491 34.7938 16.0894 35.136 18.0061C35.3944 19.4559 35.3958 20.8966 35.1196 22.3351C35.0011 22.9515 35.1736 23.4057 35.5711 23.8569C36.7318 25.1752 37.8592 26.5266 39 27.8652ZM29.4801 22.3396C29.5149 21.805 29.5398 21.4041 29.5682 21.004C29.6079 20.4409 29.6675 19.8778 29.6775 19.314C29.6803 19.1683 29.5533 18.9176 29.4439 18.8875C28.6772 18.6803 27.8963 18.3613 27.1261 18.38C26.0016 18.407 24.8132 18.5099 24.0806 19.7149C23.4722 18.841 22.6444 18.5782 21.6988 18.4356C20.6084 18.2712 19.6295 18.6946 18.6065 18.8823C18.4922 18.9033 18.3339 19.1788 18.341 19.3297C18.3772 20.1676 18.4581 21.0025 18.5234 21.8388C18.5334 21.9619 18.5412 22.0851 18.5497 22.2082C18.5184 22.2172 18.4872 22.227 18.4567 22.236C17.8561 21.3853 17.2576 20.5325 16.6535 19.6856C16.4327 19.3763 16.2176 19.0587 15.9635 18.7824C15.6859 18.4791 15.6873 18.2884 16.0295 18.0279C17.0859 17.2261 18.2515 16.6743 19.4967 16.3252C20.2748 16.1059 21.0798 15.9933 21.8742 15.8402C22.6011 15.7005 22.5976 15.693 22.6366 14.9212C22.7467 12.729 22.8581 10.5367 22.9973 8.34675C23.0257 7.90304 22.8751 7.69583 22.5053 7.5667C22.0013 7.38952 21.5072 7.1838 21.0138 6.99311C21.2885 5.75134 22.6565 4.54035 23.901 4.50131C25.1653 4.46227 26.3601 5.29787 27.0515 6.97509C26.539 7.17404 26.0328 7.38351 25.5174 7.5667C25.1497 7.69733 24.9985 7.89553 25.0276 8.34599C25.171 10.6006 25.2846 12.8574 25.3854 15.1149C25.4038 15.5294 25.5465 15.7178 25.9278 15.7951C26.9593 16.0038 28.0213 16.1352 29.0045 16.5001C30.0282 16.8792 30.9766 17.4904 31.952 18.0121C32.0954 18.088 32.2055 18.2321 32.3389 18.3522C31.4004 19.6616 30.4839 20.9401 29.4801 22.3396ZM14.335 17.0181C14.1348 18.9769 14.3201 20.8876 15.282 22.6354C15.6469 23.2968 16.1048 23.8659 16.7536 24.2525C16.9865 24.3907 17.1789 24.6197 17.3613 24.8329C18.226 25.8449 19.2766 26.5694 20.4395 27.137C20.5857 27.2083 20.7752 27.4193 20.7703 27.5582C20.7326 28.6828 20.6531 29.806 20.5814 31.0185C20.1676 30.824 19.7885 30.6941 19.4591 30.4787C19.0729 30.2264 18.8116 30.3263 18.5582 30.6656C17.8866 31.5643 17.2236 32.4705 16.5321 33.3519C15.9429 34.1041 15.3189 34.8264 14.6196 35.5021C14.7169 35.1499 14.8156 34.7986 14.9128 34.4472C15.3821 32.7602 15.8797 31.0815 16.3035 29.3818C16.4427 28.8232 16.3639 28.2429 15.8897 27.7812C15.3643 27.2691 14.9107 26.6745 14.3974 26.1482C14.2597 26.0071 13.9765 25.8629 13.8302 25.9207C12.9755 26.2556 12.1399 26.6452 11.3029 27.0266C10.5554 27.3675 9.81426 27.7226 9 27.9809C9.37625 27.4838 9.73334 26.9688 10.133 26.4936C11.0445 25.411 11.9987 24.3667 12.8818 23.2593C13.0465 23.0521 13.0365 22.6084 12.9819 22.2983C12.5652 19.9191 12.9045 17.6383 13.7301 15.4175C14.1546 14.2741 15.0612 13.5954 15.8925 12.8476C15.928 12.8716 15.9635 12.8972 15.9997 12.9219C15.9727 13.0173 15.9741 13.1442 15.9152 13.2035C14.8823 14.2418 14.4812 15.5879 14.335 17.0181ZM20.2953 24.7998C20.7078 24.3907 21.0777 23.986 21.4852 23.6301C21.757 23.3937 21.7968 23.1264 21.7918 22.7825C21.7727 21.561 21.784 20.338 21.784 19.0925C23.1421 19.1368 23.5162 20.323 24.0564 21.4912C24.2403 21.1331 24.3794 20.9439 24.4405 20.7299C24.7053 19.8035 25.4841 19.1188 26.3636 19.106C26.3636 20.3125 26.3835 21.519 26.3523 22.724C26.3416 23.1294 26.4119 23.4259 26.7172 23.6902C27.0806 24.0063 27.4058 24.3719 27.809 24.7781C27.5236 25.1062 27.2631 25.4267 26.9813 25.7263C26.6213 26.1077 26.3317 26.4816 26.3338 27.0904C26.348 32.4644 26.336 37.8392 26.3338 43.2132C26.3338 43.3086 26.3516 43.4039 26.3608 43.5C24.8345 43.5 23.3082 43.5 21.7812 43.5C21.7869 43.0646 21.7961 42.6299 21.7961 42.1952C21.7975 37.1598 21.7933 32.1243 21.8032 27.0889C21.8046 26.4628 21.5412 26.0641 21.0727 25.7135C20.7731 25.4898 20.5665 25.1272 20.2953 24.7998Z" fill="url(#paint0_linear_4447_3926)"/>
</g>
</g>
<defs>
<filter id="filter0_d_4447_3926" x="6.879" y="3.879" width="34.242" height="43.242" filterUnits="userSpaceOnUse" color-interpolation-filters="sRGB">
<feFlood flood-opacity="0" result="BackgroundImageFix"/>
<feColorMatrix in="SourceAlpha" type="matrix" values="0 0 0 0 0 0 0 0 0 0 0 0 0 0 0 0 0 0 127 0" result="hardAlpha"/>
<feOffset dy="1.5"/>
<feGaussianBlur stdDeviation="1.0605"/>
<feColorMatrix type="matrix" values="0 0 0 0 0 0 0 0 0 0 0 0 0 0 0 0 0 0 0.3 0"/>
<feBlend mode="normal" in2="BackgroundImageFix" result="effect1_dropShadow_4447_3926"/>
<feBlend mode="normal" in="SourceGraphic" in2="effect1_dropShadow_4447_3926" result="shape"/>
</filter>
<linearGradient id="paint0_linear_4447_3926" x1="8.93225" y1="44.636" x2="9.00984" y2="4.50002" gradientUnits="userSpaceOnUse">
<stop offset="0.496356" stop-color="#C6B073"/>
<stop offset="1" stop-color="#E0D1A9"/>
</linearGradient>
</defs>
</svg>
