<svg width="49" height="48" viewBox="0 0 49 48" fill="none" xmlns="http://www.w3.org/2000/svg">
<g id="Subclasses">
<g id="Vector" filter="url(#filter0_d_4396_823)">
<path fill-rule="evenodd" clip-rule="evenodd" d="M44.5365 24.4016C42.5152 27.0054 40.1391 29.1846 37.4289 30.9612C34.4692 32.9015 31.2853 34.212 27.8181 34.7149C27.0941 34.8191 26.3678 34.9052 25.6422 35C24.9376 35 24.2322 35 23.5269 35C22.7834 34.9052 22.0384 34.8214 21.2964 34.7133C17.5864 34.1759 14.2254 32.697 11.1432 30.4935C8.79464 28.8165 6.73081 26.8119 4.97335 24.4596C4.70883 24.1063 4.71481 23.8267 4.97858 23.4836C8.87384 18.4116 13.736 14.9313 19.8363 13.4853C20.1756 13.4046 20.5223 13.3623 20.8212 13.3098C21.2284 14.3218 21.6185 15.2916 22.0182 16.2864C20.9923 16.7204 20.0082 17.34 19.2079 18.2392C17.1187 20.5853 16.4432 23.3442 17.3406 26.3999C18.2455 29.4838 20.3138 31.4014 23.3176 32.0328C27.8077 32.9759 32.1431 29.5598 32.5369 24.7925C32.693 22.9094 32.504 21.0365 31.3861 19.4432C30.6389 18.3771 29.8005 17.3823 29.0197 16.3413C28.1469 15.1796 27.2054 14.061 26.4522 12.8171C25.4749 11.205 25.2156 9.37673 25.4823 7.4803C25.5018 7.33931 25.5653 7.20457 25.6422 6.96018C25.7461 7.61973 25.7596 8.19156 25.9307 8.70464C26.5262 10.4828 27.2876 12.1685 28.8389 13.2738C29.1049 13.4633 29.4501 13.5487 29.7706 13.6317C35.7424 15.1741 40.5314 18.645 44.4364 23.5604C44.5641 23.7209 44.6643 23.905 44.7778 24.0781C44.7778 24.111 44.7778 24.1455 44.7778 24.1792C44.6971 24.2528 44.6037 24.3155 44.5365 24.4016ZM15.4673 23.9732C15.4658 21.0161 16.5986 18.5314 18.6714 16.5089C14.3614 17.882 10.8301 20.467 7.77991 23.97C10.836 27.4746 14.3652 30.0706 18.6737 31.4296C16.5882 29.4173 15.4681 26.931 15.4673 23.9732ZM31.0947 16.7885C33.0681 18.7625 34.0926 21.1744 34.0873 23.9967C34.0821 26.8307 33.0367 29.2465 31.088 31.2346C35.1783 29.8042 38.5983 27.3219 41.57 24.057C39.4382 21.2315 33.3962 17.04 31.0947 16.7885ZM24.2621 11.2896C24.7822 12.3722 25.5854 13.302 26.243 14.3132C27.3347 15.9919 28.8837 17.3079 29.74 19.169C30.8735 21.6334 30.9243 24.1627 29.7041 26.5566C28.4167 29.082 25.4128 30.499 22.7781 29.429C22.7639 29.4227 22.746 29.422 22.7326 29.4149C21.6483 28.7561 20.6269 28.0198 19.9977 26.8323C19.2176 25.3604 18.9329 23.8102 19.4044 22.1645C19.7213 21.0561 20.2959 20.1623 21.3554 19.6876C21.6035 19.5764 21.8277 19.404 22.0586 19.2544C22.616 18.8918 22.7468 18.5228 22.5644 17.8515C22.5405 17.7614 22.5383 17.6659 22.5263 17.5726C22.5704 17.5499 22.6145 17.5272 22.6578 17.5045C23.0486 17.8123 23.2003 18.2776 23.2108 18.7711C23.2175 19.0758 23.086 19.3845 23.006 19.6884C22.9298 19.979 22.805 20.2586 22.7639 20.554C22.6593 21.3091 23.0225 21.9577 23.6539 22.2107C24.4586 22.5319 25.1924 22.311 25.6475 21.6107C26.3678 20.5007 26.1018 19.4103 25.5047 18.3904C25.1573 17.7967 24.7075 17.2491 24.2248 16.7682C21.998 14.5506 21.1895 11.8763 21.7395 8.71325C22.001 7.20849 22.6317 5.90896 23.6001 4.79272C23.8766 4.47391 24.2644 4.26085 24.6006 4C24.6357 4.03603 24.6708 4.07128 24.706 4.10732C24.6029 4.28591 24.4997 4.46294 24.3974 4.64232C23.148 6.83015 23.2033 9.08768 24.2621 11.2896Z" fill="#999999"/>
</g>
</g>
<defs>
<filter id="filter0_d_4396_823" x="2.65683" y="3.379" width="44.242" height="35.242" filterUnits="userSpaceOnUse" color-interpolation-filters="sRGB">
<feFlood flood-opacity="0" result="BackgroundImageFix"/>
<feColorMatrix in="SourceAlpha" type="matrix" values="0 0 0 0 0 0 0 0 0 0 0 0 0 0 0 0 0 0 127 0" result="hardAlpha"/>
<feOffset dy="1.5"/>
<feGaussianBlur stdDeviation="1.0605"/>
<feColorMatrix type="matrix" values="0 0 0 0 0 0 0 0 0 0 0 0 0 0 0 0 0 0 0.3 0"/>
<feBlend mode="normal" in2="BackgroundImageFix" result="effect1_dropShadow_4396_823"/>
<feBlend mode="normal" in="SourceGraphic" in2="effect1_dropShadow_4396_823" result="shape"/>
</filter>
</defs>
</svg>
