<svg width="49" height="48" viewBox="0 0 49 48" fill="none" xmlns="http://www.w3.org/2000/svg">
<g id="Subclasses">
<g id="Vector" filter="url(#filter0_d_4396_832)">
<path fill-rule="evenodd" clip-rule="evenodd" d="M43.809 25.0338C39.9673 29.5858 35.3897 32.8785 29.7504 34.3068C23.6389 35.8538 17.8913 34.7773 12.4963 31.4189C9.531 29.5729 6.99675 27.1868 4.86595 24.31C4.60222 23.9542 4.59923 23.6696 4.86371 23.3193C8.75772 18.1678 13.6155 14.629 19.7143 13.1614C20.1603 13.054 20.6161 12.9915 21.228 12.8777C20.436 14.3974 19.7502 15.8057 18.9844 17.1619C18.0251 18.8596 17.2548 20.6246 16.9589 22.5971C16.3836 26.4333 18.4726 30.2254 21.9243 31.6193C26.5669 33.4933 31.5981 30.3272 32.3728 25.0442C32.5618 23.7554 32.4498 22.4954 32.1016 21.2482C31.6548 19.6451 30.9339 18.1879 30.1247 16.7643C29.4531 15.5829 28.8688 14.3453 28.1658 12.9779C28.8427 13.1238 29.3783 13.2111 29.8998 13.357C35.7498 14.9905 40.4858 18.4572 44.3253 23.3915C44.4531 23.555 44.5532 23.7409 44.6667 23.9173C44.6667 23.9509 44.6667 23.9854 44.6667 24.0199C44.3806 24.3581 44.0944 24.6956 43.809 25.0338ZM18.3844 31.1383C15.1539 27.8064 14.4545 23.2528 16.5084 19.0079C16.8939 18.2111 17.2443 17.3936 17.653 16.4934C13.6977 18.046 10.4597 20.5292 7.70876 23.7698C9.70134 26.7251 15.8098 30.9885 18.6041 31.3283C18.5533 31.2409 18.4524 31.2081 18.3844 31.1383ZM31.861 16.883C32.2085 17.6468 32.5581 18.4091 32.9025 19.1738C34.6202 22.9891 34.3139 26.6032 31.9402 30.001C31.6518 30.4146 31.2992 30.7769 30.8875 31.2674C35.0811 29.7244 38.5089 27.202 41.4788 23.8676C38.7406 20.7616 35.6243 18.3538 31.861 16.883ZM30.3474 25.3248C30.0328 26.8116 29.3836 28.0821 27.9357 28.7345C27.2759 29.0319 26.6603 29.4014 25.9378 29.5489C24.5161 29.8415 23.1854 29.5962 21.8862 28.967C19.544 27.8328 18.8133 25.3504 19.1315 22.9594C19.4296 20.7183 20.324 18.7225 21.1675 16.6938C22.1977 14.2139 23.3827 11.8012 24.1171 9.189C24.2501 8.7177 24.3196 8.22555 24.4204 7.74303C24.4727 7.49615 24.5303 7.25168 24.5855 7.00561C24.6416 7.00401 24.6969 7.0024 24.7522 7C24.8597 7.54024 24.9262 8.0949 25.0824 8.61751C25.4305 9.78695 25.6614 11.043 26.2307 12.0818C27.6674 14.7052 28.7269 17.5042 29.7833 20.3007C30.3817 21.8862 30.7105 23.6047 30.3474 25.3248Z" fill="#999999"/>
</g>
</g>
<defs>
<filter id="filter0_d_4396_832" x="2.54575" y="6.379" width="44.242" height="32.242" filterUnits="userSpaceOnUse" color-interpolation-filters="sRGB">
<feFlood flood-opacity="0" result="BackgroundImageFix"/>
<feColorMatrix in="SourceAlpha" type="matrix" values="0 0 0 0 0 0 0 0 0 0 0 0 0 0 0 0 0 0 127 0" result="hardAlpha"/>
<feOffset dy="1.5"/>
<feGaussianBlur stdDeviation="1.0605"/>
<feColorMatrix type="matrix" values="0 0 0 0 0 0 0 0 0 0 0 0 0 0 0 0 0 0 0.3 0"/>
<feBlend mode="normal" in2="BackgroundImageFix" result="effect1_dropShadow_4396_832"/>
<feBlend mode="normal" in="SourceGraphic" in2="effect1_dropShadow_4396_832" result="shape"/>
</filter>
</defs>
</svg>
