<svg width="48" height="48" viewBox="0 0 48 48" fill="none" xmlns="http://www.w3.org/2000/svg">
<g id="Subclasses">
<g id="Vector" filter="url(#filter0_d_4447_3953)">
<path fill-rule="evenodd" clip-rule="evenodd" d="M42.8363 23.7413C42.7025 23.7839 42.5926 23.9024 42.4647 23.9706C42.227 24.0984 41.8973 24.3803 41.7597 24.3036C41.4375 24.1231 41.1975 23.7762 40.9462 23.4772C40.9059 23.4292 40.9537 23.2619 41.0053 23.1783C41.0965 23.0296 41.2214 22.9033 41.35 22.7453C39.6304 21.7501 37.8973 20.9679 35.9578 20.7541C33.741 20.5102 31.5616 20.6929 29.4105 21.2785C29.1347 21.3536 28.8633 21.4744 28.6128 21.6169C28.2726 21.8098 28.135 21.6642 28.0894 21.3334C28.0663 21.17 28.073 21.0004 28.0775 20.8347C28.1178 19.5026 28.159 18.1704 28.2031 16.8399C28.2083 16.6788 28.2307 16.5185 28.2434 16.3814C31.7141 16.74 34.9425 17.8281 38.0378 19.3206C39.4711 20.0122 40.8019 20.9292 42.1896 21.7246C42.4565 21.8779 42.7646 21.9956 43.0659 22.0336C43.3447 22.07 43.4576 22.1529 43.4846 22.4448C43.5376 23.0311 43.4838 23.533 42.8363 23.7413ZM40.8804 20.3003C40.8879 20.2546 40.8954 20.2089 40.9036 20.164C41.2356 20.1795 41.6087 20.1074 41.8831 20.2461C42.0326 20.3212 42.0139 20.7534 42.0715 21.0252C42.0161 21.0608 41.9601 21.0972 41.9047 21.1329C41.5638 20.8556 41.2221 20.5775 40.8804 20.3003ZM26.5537 36.4863C27.6393 35.333 28.7205 34.1752 29.8083 33.0235C32.1126 30.5854 34.4176 28.1474 36.7279 25.7147C37.6289 24.766 38.5477 23.835 39.4524 22.8894C39.7403 22.5889 40.0102 22.5339 40.393 22.9606C35.7485 27.7942 31.1302 32.6007 26.4737 37.4474C26.2337 37.0036 26.319 36.7364 26.5537 36.4863ZM26.852 21.0175C26.6016 24.4368 26.3534 27.8554 26.1156 31.2755C25.9646 33.451 25.8285 35.6274 25.6962 37.8037C25.6595 38.414 26.0319 38.9623 26.6263 39.0568C27.1833 39.1466 27.3582 39.4216 27.276 39.9567C27.261 40.0535 27.2655 40.1581 27.2805 40.2557C27.3777 40.8784 27.4105 41.4112 26.5724 41.5351C26.3354 41.5708 26.1148 41.9735 25.9519 42.25C25.4995 43.0175 24.87 43.4985 23.9975 43.5C23.1227 43.5015 22.4834 43.026 22.0543 42.243C21.818 41.8116 21.5399 41.4329 21.0135 41.3717C20.698 41.3345 20.6263 41.1425 20.6816 40.8435C20.7152 40.6654 20.7287 40.4764 20.7107 40.296C20.6412 39.6082 20.7085 39.0831 21.5661 38.9964C21.9952 38.953 22.3294 38.3195 22.3003 37.8401C22.1515 35.3811 22.0057 32.9213 21.8345 30.4639C21.6027 27.1266 21.3515 23.7917 21.1033 20.456C21.0091 19.1943 20.9066 17.9335 20.7922 16.6734C20.7563 16.283 20.796 16.022 21.2401 15.9004C21.6049 15.8013 21.9242 15.5341 22.2823 15.3931C22.5949 15.27 22.8304 15.3172 22.8498 15.7773C22.9134 17.2906 23.0091 18.8017 23.0928 20.3134C23.0786 20.3142 23.0651 20.315 23.0509 20.3158C23.1676 23.1605 23.2812 26.0059 23.4008 28.8506C23.4442 29.8814 23.4995 30.9123 23.5526 31.9431C23.5586 32.0593 23.5459 32.2049 23.6064 32.2824C23.7141 32.4194 23.8741 32.6069 24.0072 32.603C24.1418 32.5991 24.2853 32.4008 24.3945 32.2614C24.4468 32.1956 24.4378 32.0701 24.4423 31.971C24.5612 29.2092 24.6771 26.4474 24.7975 23.6856C24.9126 21.0422 25.0412 18.3989 25.1451 15.7548C25.1623 15.318 25.3934 15.2715 25.6782 15.3838C26.156 15.572 26.6285 15.7905 27.0666 16.0592C27.181 16.1297 27.2064 16.4418 27.1922 16.637C27.0898 18.0976 26.959 19.5568 26.852 21.0175ZM24.713 12.5632C24.6554 13.5259 24.5956 14.4885 24.562 15.452C24.5066 17.0482 24.4834 18.6468 24.4244 20.243C24.3145 23.2379 24.1881 26.2328 24.0685 29.2278C24.0648 29.3099 24.0535 29.3912 24.0461 29.4733C24.002 29.4748 23.9578 29.4772 23.9137 29.4795C23.8524 28.1551 23.7717 26.8307 23.735 25.5056C23.652 22.4588 23.6087 19.4104 23.513 16.3643C23.4696 14.9687 23.3455 13.5762 23.2461 12.1829C23.2124 11.7074 23.1182 11.6547 22.7077 11.8979C22.2651 12.1604 21.8435 12.4602 21.4038 12.7498C21.0846 11.6299 22.7414 6.38897 24.0094 4.5C25.5055 7.04264 26.322 9.78432 26.7399 12.8218C26.0663 12.4021 25.5025 12.0505 24.8281 11.6299C24.778 12.0241 24.7287 12.2929 24.713 12.5632ZM12.9507 27.6083C14.9545 29.6994 16.9926 31.7557 19.0023 33.8414C19.8397 34.7104 20.6532 35.6049 21.4464 36.5165C21.6064 36.7 21.6281 37.0129 21.7134 37.2662C21.6371 37.315 21.5608 37.363 21.4853 37.411C16.87 32.6069 12.2547 27.802 7.61467 22.9723C7.98701 22.4983 8.26888 22.5966 8.56047 22.9103C10.0207 24.4794 11.4681 26.0617 12.9507 27.6083ZM19.2356 21.5449C18.5949 21.297 17.9197 21.129 17.2476 20.9857C14.6651 20.4343 12.0932 20.4916 9.58103 21.3396C8.5814 21.6765 7.64458 22.2109 6.64421 22.671C7.13841 23.478 7.12645 23.4656 6.49991 24.1371C6.28084 24.3725 6.11038 24.3601 5.87636 24.2045C5.55187 23.9892 5.22066 23.7847 4.8872 23.5841C4.62028 23.423 4.47748 23.2395 4.5029 22.8731C4.55299 22.1567 4.53131 22.1954 5.23561 22.0289C5.56084 21.9515 5.85991 21.7036 6.14028 21.4907C7.96084 20.1098 10.0139 19.2005 12.0992 18.3757C14.0633 17.5981 16.064 16.9212 18.1575 16.6029C18.6629 16.5262 19.1683 16.4519 19.7134 16.3705C19.7335 16.4519 19.7806 16.5556 19.7844 16.6594C19.8315 18.141 19.8823 19.6218 19.9107 21.1042C19.9227 21.7393 19.7963 21.7617 19.2356 21.5449ZM5.9429 21.0469C5.98701 20.7766 5.95038 20.3483 6.09318 20.2701C6.36458 20.1214 6.73841 20.1717 7.06888 20.14C7.08159 20.1965 7.0943 20.253 7.10626 20.3096C6.77206 20.583 6.4371 20.8556 6.1029 21.1298C6.04907 21.1019 5.99598 21.0748 5.9429 21.0469Z" fill="url(#paint0_linear_4447_3953)"/>
</g>
</g>
<defs>
<filter id="filter0_d_4447_3953" x="2.379" y="3.879" width="43.242" height="43.242" filterUnits="userSpaceOnUse" color-interpolation-filters="sRGB">
<feFlood flood-opacity="0" result="BackgroundImageFix"/>
<feColorMatrix in="SourceAlpha" type="matrix" values="0 0 0 0 0 0 0 0 0 0 0 0 0 0 0 0 0 0 127 0" result="hardAlpha"/>
<feOffset dy="1.5"/>
<feGaussianBlur stdDeviation="1.0605"/>
<feColorMatrix type="matrix" values="0 0 0 0 0 0 0 0 0 0 0 0 0 0 0 0 0 0 0.3 0"/>
<feBlend mode="normal" in2="BackgroundImageFix" result="effect1_dropShadow_4447_3953"/>
<feBlend mode="normal" in="SourceGraphic" in2="effect1_dropShadow_4447_3953" result="shape"/>
</filter>
<linearGradient id="paint0_linear_4447_3953" x1="4.41193" y1="44.636" x2="4.47161" y2="4.49996" gradientUnits="userSpaceOnUse">
<stop offset="0.496356" stop-color="#C6B073"/>
<stop offset="1" stop-color="#E0D1A9"/>
</linearGradient>
</defs>
</svg>
