<svg width="49" height="48" viewBox="0 0 49 48" fill="none" xmlns="http://www.w3.org/2000/svg">
<g id="Subclasses">
<g id="Vector" filter="url(#filter0_d_4396_796)">
<path fill-rule="evenodd" clip-rule="evenodd" d="M40.6111 24.0399C39.0529 25.2824 35.0724 26.9574 32.9276 27.2933C33.1703 26.3641 33.8567 25.604 33.9177 24.5178C32.6752 24.5178 31.499 24.4627 30.3317 24.5442C29.8582 24.5774 29.6744 24.4015 29.4935 24.0716C29.6989 23.6308 29.9573 23.4504 30.4873 23.4882C31.607 23.5674 32.7355 23.5123 34.0406 23.5123C33.6214 22.5205 33.2581 21.6607 32.8651 20.73C35.6382 21.4297 38.2006 22.4586 40.6111 24.0399ZM28.8383 23.067C28.7356 23.2949 28.5063 23.4708 28.3165 23.6497C28.0686 23.8814 27.9912 24.1826 28.2919 24.3328C28.7557 24.5638 28.8897 24.9986 29.0654 25.3949C29.5582 26.503 30.0146 27.6292 30.456 28.7592C30.529 28.9464 30.5208 29.2181 30.4441 29.4053C29.1026 32.6806 27.575 35.8471 25.2635 38.557C24.7952 39.1058 24.3821 39.7074 23.983 40.3128C23.6227 40.8593 23.4627 41.4896 23.7158 42.1176C23.8364 42.4158 24.1438 42.6324 24.3575 42.8936C24.4751 43.037 24.5749 43.1955 24.6821 43.3472C24.5012 43.4008 24.3084 43.5239 24.1401 43.4959C23.412 43.3752 22.8262 42.5479 22.7912 41.596C22.7577 40.6909 22.8597 39.8327 23.418 39.0499C24.1654 38.003 24.8712 36.9198 25.5263 35.8102C26.7308 33.7668 27.1849 31.58 26.3318 29.2876C25.9223 28.1901 25.3528 27.1469 24.7818 26.1225C24.5406 25.6908 24.1066 25.37 23.7098 24.945C23.992 24.7835 24.2659 24.6317 24.5339 24.4717C25.0126 24.1879 25.0163 23.8497 24.5436 23.5651C24.2741 23.4036 23.9979 23.2534 23.6957 23.0813C23.7947 22.9462 23.8401 22.8624 23.9056 22.799C26.0266 20.7194 26.9981 18.1831 26.6377 15.2068C26.4814 13.9175 25.9313 12.7408 25.1235 11.687C24.5377 10.9239 24.0843 10.055 23.5699 9.23452C23.4046 8.97108 23.2029 8.72727 23.0703 8.44873C22.544 7.34667 22.7033 5.67772 23.4463 4.91533C23.6607 4.69567 24.0158 4.60056 24.3233 4.50394C24.4171 4.47526 24.6136 4.60886 24.6746 4.71832C24.7096 4.78248 24.5942 5.02252 24.5027 5.05422C23.9868 5.23236 23.7552 5.60827 23.6503 6.12534C23.5245 6.7428 23.6786 7.30817 24.018 7.78749C24.7156 8.77407 25.4958 9.70026 26.1918 10.6883C27.9376 13.1665 29.3081 15.856 30.4382 18.6745C30.5052 18.8406 30.5394 19.0746 30.4761 19.2301C29.9491 20.5171 29.4064 21.7981 28.8383 23.067ZM12.5304 20.5488C12.0763 21.0462 11.6274 21.1474 10.9179 21.1029C14.7638 16.9633 18.5359 12.9023 22.3438 8.80351C22.7376 9.4723 22.7331 9.53872 22.2782 10.0286C19.0235 13.5303 15.7539 17.0177 12.5304 20.5488ZM13.2421 21.7128C13.3932 21.7181 13.6173 21.8034 13.6769 21.9211C14.3499 23.2428 15.5186 23.5078 16.8259 23.4972C18.5954 23.4836 20.3658 23.4368 22.1346 23.4738C22.6587 23.4851 23.179 23.732 23.6979 23.9645C23.1962 24.2385 22.8001 24.6015 22.1911 24.5917C20.1357 24.5585 18.0803 24.5789 16.0249 24.5947C15.0757 24.6023 14.3364 25.0363 13.8533 25.8682C13.6516 26.2154 13.4252 26.3445 13.0113 26.3347C11.5008 26.3007 9.98886 26.3392 8.47837 26.3082C8.18952 26.3022 7.89174 26.6706 7.61108 26.3014C7.61108 26.2697 7.61108 26.2365 7.61108 26.2041C7.69074 26.1112 7.78454 26.0267 7.84856 25.9233C8.07413 25.5609 8.2662 25.173 8.51708 24.8295C8.73074 24.5374 9.00767 24.2928 9.17145 24.1192C8.67267 23.35 8.20143 22.6231 7.72722 21.8977C7.7034 21.8615 7.65054 21.8456 7.61108 21.82C7.61108 21.7875 7.61108 21.755 7.61108 21.7226C7.77486 21.7052 7.9379 21.6803 8.10242 21.6728C8.19548 21.6682 8.29002 21.7037 8.38457 21.7045C9.50943 21.7143 10.635 21.7248 11.7607 21.7279C12.255 21.7286 12.7493 21.6947 13.2421 21.7128ZM20.7387 36.4201C21.2546 36.9741 21.7437 37.5538 22.2782 38.0868C22.6616 38.4702 22.7361 38.8318 22.3378 39.3164C18.5366 35.2244 14.763 31.1634 10.912 27.0185C11.6199 26.9831 12.0666 27.0684 12.5245 27.5718C15.2313 30.5504 17.9954 33.4754 20.7387 36.4201Z" fill="#999999"/>
</g>
</g>
<defs>
<filter id="filter0_d_4396_796" x="5.49008" y="3.879" width="37.242" height="43.242" filterUnits="userSpaceOnUse" color-interpolation-filters="sRGB">
<feFlood flood-opacity="0" result="BackgroundImageFix"/>
<feColorMatrix in="SourceAlpha" type="matrix" values="0 0 0 0 0 0 0 0 0 0 0 0 0 0 0 0 0 0 127 0" result="hardAlpha"/>
<feOffset dy="1.5"/>
<feGaussianBlur stdDeviation="1.0605"/>
<feColorMatrix type="matrix" values="0 0 0 0 0 0 0 0 0 0 0 0 0 0 0 0 0 0 0.3 0"/>
<feBlend mode="normal" in2="BackgroundImageFix" result="effect1_dropShadow_4396_796"/>
<feBlend mode="normal" in="SourceGraphic" in2="effect1_dropShadow_4396_796" result="shape"/>
</filter>
</defs>
</svg>
