<svg width="49" height="48" viewBox="0 0 49 48" fill="none" xmlns="http://www.w3.org/2000/svg">
<g id="Subclasses">
<g id="Vector" filter="url(#filter0_d_4396_814)">
<path fill-rule="evenodd" clip-rule="evenodd" d="M44.715 24.3604C42.7037 26.9719 40.334 29.1624 37.6224 30.9343C32.7039 34.1495 27.3756 35.6258 21.5933 34.7524C14.7434 33.7183 9.36348 30.0021 5.06391 24.4215C4.82052 24.1055 4.83545 23.8374 5.08108 23.5442C5.68133 22.8237 6.24276 22.0648 6.87736 21.3795C10.6036 17.3536 15.0024 14.5633 20.2912 13.4571C21.2752 13.2509 22.2794 13.1497 23.2746 13C24.2026 13 25.1313 13 26.0601 13C26.1661 13.0282 26.2714 13.0729 26.3789 13.0823C30.6911 13.4304 34.6032 14.9773 38.1741 17.4932C40.7491 19.3082 43.0784 21.4156 44.8889 24.0969C44.8889 24.1306 44.8889 24.1643 44.8889 24.1981C44.8307 24.2514 44.7635 24.2976 44.715 24.3604ZM7.98454 23.9495C10.4468 27.1044 14.9203 30.3416 18.8115 31.4227C14.5239 27.3725 14.5343 20.5163 18.8847 16.4873C14.5022 17.9346 10.9783 20.5132 7.98454 23.9495ZM24.9268 15.8264C20.6459 15.8193 17.1496 19.4548 17.1265 23.9378C17.1041 28.4576 20.5734 32.148 24.864 32.1668C29.1666 32.1856 32.6756 28.536 32.6882 24.0295C32.7009 19.5128 29.2204 15.8342 24.9268 15.8264ZM31.3638 16.8103C35.2199 21.6273 35.2244 26.3823 31.3332 31.2189C35.3886 29.7261 38.746 27.2714 41.6898 24.0483C38.7595 20.8017 35.4066 18.3101 31.3638 16.8103ZM30.5299 29.0166C29.8565 30.2593 28.3252 30.8402 27.0224 30.4239C25.8719 30.0562 25.2754 28.8143 25.6942 27.6587C26.0153 26.7743 26.8694 26.4333 27.654 26.8778C28.2252 27.2 28.3521 27.6297 28.1005 28.6418C28.3991 28.4388 28.6537 28.3298 28.8232 28.1377C29.2905 27.6093 29.3615 26.3988 29.0001 25.7528C28.6298 25.0926 27.7466 24.6771 27.0075 24.8707C26.4976 25.004 25.975 25.1546 25.5188 25.4149C25.2769 25.5513 25.1149 25.9174 25.0022 26.2161C24.3302 27.9966 22.6049 29.0762 20.8534 28.7171C19.1915 28.3761 17.2601 26.7226 17.7364 24.4819C17.8663 23.8727 18.1896 23.2447 18.586 22.7774C19.4095 21.8053 20.8206 21.908 21.5828 22.8935C22.1345 23.6053 22.0211 24.5015 21.3163 25.0009C20.6944 25.4415 20.1815 25.2925 19.6499 24.5179C19.4222 24.9813 19.5058 25.5685 19.9284 26.0005C20.5115 26.5964 21.1826 27.044 22.0397 26.721C22.8102 26.4301 23.2455 25.8116 23.3679 24.9586C23.4231 24.5767 23.5321 24.191 23.5083 23.8147C23.4918 23.5473 23.3403 23.2518 23.1708 23.0385C21.8949 21.4336 21.9621 19.0267 23.3828 17.6962C24.2309 16.902 25.2299 16.4465 26.4035 16.4975C27.8093 16.5579 29.1091 17.8029 29.2764 19.2713C29.4167 20.5038 28.4506 21.6085 27.2688 21.5677C26.4513 21.5395 25.8764 20.8339 25.9697 19.9738C26.0377 19.3442 26.4162 19.0471 27.0105 19.1474C27.1165 19.1663 27.2262 19.1616 27.3494 19.1686C27.0904 18.6104 26.3886 18.3164 25.7614 18.5202C24.9977 18.7696 24.3138 19.1639 24.1727 20.0836C24.0458 20.9091 24.3422 21.5998 24.9708 22.1236C25.209 22.3219 25.4203 22.5791 25.6883 22.7077C25.9757 22.8449 26.3244 22.9507 26.6297 22.9154C28.2379 22.728 29.6258 23.1459 30.5224 24.6159C31.3922 26.0405 31.3175 27.5646 30.5299 29.0166Z" fill="#999999"/>
</g>
</g>
<defs>
<filter id="filter0_d_4396_814" x="2.76792" y="12.379" width="44.242" height="26.242" filterUnits="userSpaceOnUse" color-interpolation-filters="sRGB">
<feFlood flood-opacity="0" result="BackgroundImageFix"/>
<feColorMatrix in="SourceAlpha" type="matrix" values="0 0 0 0 0 0 0 0 0 0 0 0 0 0 0 0 0 0 127 0" result="hardAlpha"/>
<feOffset dy="1.5"/>
<feGaussianBlur stdDeviation="1.0605"/>
<feColorMatrix type="matrix" values="0 0 0 0 0 0 0 0 0 0 0 0 0 0 0 0 0 0 0.3 0"/>
<feBlend mode="normal" in2="BackgroundImageFix" result="effect1_dropShadow_4396_814"/>
<feBlend mode="normal" in="SourceGraphic" in2="effect1_dropShadow_4396_814" result="shape"/>
</filter>
</defs>
</svg>
