<svg width="48" height="48" viewBox="0 0 48 48" fill="none" xmlns="http://www.w3.org/2000/svg">
<g id="Subclasses">
<g id="Vector" filter="url(#filter0_d_4447_3989)">
<path fill-rule="evenodd" clip-rule="evenodd" d="M43.7912 24.0779C39.5829 28.9112 34.4346 32.2162 28.0176 33.4739C27.6878 33.5387 27.3519 33.5727 27.0182 33.6169C26.6854 33.6619 26.3517 33.7017 25.8974 33.7592C25.6785 32.89 25.4671 32.0466 25.2526 31.1936C27.5191 30.8302 29.3342 29.8711 30.7339 28.1732C31.6583 27.0504 32.0992 25.7463 32.2154 24.3463C32.3488 22.7436 32.4575 21.1047 31.7295 19.6037C30.8531 17.7968 29.8702 16.037 28.5005 14.5265C28.2193 14.2161 27.8767 13.9603 27.5618 13.6794C27.5805 13.6359 27.5993 13.5939 27.618 13.5504C28.4345 13.7354 29.2629 13.8792 30.0651 14.1099C35.5951 15.7038 40.1003 18.8061 43.7702 23.1284C44.0393 23.4447 44.1038 23.7189 43.7912 24.0779ZM31.836 17.2741C32.1621 17.8786 32.4973 18.3998 32.7357 18.9616C33.2807 20.2495 33.5806 21.6046 33.6826 22.9935C33.7703 24.1841 33.6616 25.3541 33.1 26.4444C32.3751 27.8547 31.5886 29.2238 30.4078 30.3333C34.5178 28.9871 37.9545 26.6686 40.9339 23.598C38.3249 20.8769 35.3612 18.7242 31.836 17.2741ZM28.391 27.8621C27.2477 28.9377 25.8037 29.4715 24.2772 29.7833C23.9174 29.857 23.8184 30.003 23.8889 30.3215C24.0876 31.2261 24.278 32.1329 24.4917 33.0337C24.5591 33.3176 24.8163 33.6604 24.4887 33.8469C24.2143 34.0032 23.8199 34.0098 23.4825 33.9943C23.1009 33.9767 22.8505 33.7606 22.8025 33.3382C22.6511 31.9987 22.4554 30.6628 22.3175 29.3218C22.0363 26.5948 22.3422 23.9224 23.1654 21.3045C23.2074 21.1718 23.2396 21.0362 23.1706 20.8511C22.8273 21.522 22.4412 22.1759 22.151 22.8682C21.8549 23.5774 21.603 24.3116 21.423 25.057C21.2476 25.7876 21.1426 26.5417 21.0879 27.2915C21.0324 28.0582 21.0759 28.8308 21.0759 29.6971C20.86 29.5319 20.6988 29.4184 20.5481 29.2916C18.7915 27.8245 17.7389 25.9925 17.6227 23.7079C17.5432 22.142 18.0035 20.7066 19.0044 19.488C19.8913 18.4102 20.8315 17.3699 21.8091 16.3688C22.9517 15.1988 23.7982 13.9079 23.9624 12.2566C23.9714 12.1688 24.0306 12.0855 24.0658 12C24.1303 12 24.1948 12 24.2593 12C25.1724 12.8795 26.1351 13.7148 26.9875 14.6474C28.5777 16.3887 29.8672 18.3305 30.3733 20.6521C30.9648 23.365 30.5165 25.8606 28.391 27.8621ZM17.1406 19.2683C16.0092 20.728 15.7911 22.442 16.0325 24.2121C16.1404 25.0017 16.3511 25.7817 16.5655 26.5528C16.8917 27.7265 17.6264 28.6753 18.4953 29.498C19.1866 30.1527 20.045 30.5891 20.9747 30.8737C21.1104 30.915 21.2821 31.0602 21.3106 31.1855C21.498 32.0164 21.6509 32.8539 21.8339 33.7879C20.8952 33.6397 19.9933 33.5446 19.1139 33.3515C12.9953 32.0105 8.12061 28.749 4.20778 24.0116C3.94313 23.6909 3.92363 23.427 4.19354 23.0989C8.10711 18.3357 12.9968 15.0698 19.1334 13.7273C20.0068 13.5364 20.905 13.4553 21.7926 13.33C21.9164 13.3123 22.0453 13.327 22.1713 13.327C22.2072 13.3764 22.2432 13.4265 22.2792 13.4759C21.4448 14.4048 20.6066 15.3315 19.7759 16.2641C18.8889 17.2594 17.9533 18.2185 17.1406 19.2683ZM7.01776 23.5464C10.0879 26.8293 13.6289 29.2518 17.951 30.5287C15.8571 28.6532 14.734 26.3294 14.7265 23.57C14.719 20.7885 15.8526 18.4522 17.9495 16.5553C13.6116 17.8462 10.0512 20.2672 7.01776 23.5464Z" fill="url(#paint0_linear_4447_3989)"/>
</g>
</g>
<defs>
<filter id="filter0_d_4447_3989" x="1.879" y="11.379" width="44.242" height="26.242" filterUnits="userSpaceOnUse" color-interpolation-filters="sRGB">
<feFlood flood-opacity="0" result="BackgroundImageFix"/>
<feColorMatrix in="SourceAlpha" type="matrix" values="0 0 0 0 0 0 0 0 0 0 0 0 0 0 0 0 0 0 127 0" result="hardAlpha"/>
<feOffset dy="1.5"/>
<feGaussianBlur stdDeviation="1.0605"/>
<feColorMatrix type="matrix" values="0 0 0 0 0 0 0 0 0 0 0 0 0 0 0 0 0 0 0.3 0"/>
<feBlend mode="normal" in2="BackgroundImageFix" result="effect1_dropShadow_4447_3989"/>
<feBlend mode="normal" in="SourceGraphic" in2="effect1_dropShadow_4447_3989" result="shape"/>
</filter>
<linearGradient id="paint0_linear_4447_3989" x1="3.90967" y1="34.6408" x2="3.92819" y2="11.9999" gradientUnits="userSpaceOnUse">
<stop offset="0.496356" stop-color="#C6B073"/>
<stop offset="1" stop-color="#E0D1A9"/>
</linearGradient>
</defs>
</svg>
