<svg width="49" height="48" viewBox="0 0 49 48" fill="none" xmlns="http://www.w3.org/2000/svg">
<g id="Subclasses">
<g id="Vector" filter="url(#filter0_d_4396_787)">
<path fill-rule="evenodd" clip-rule="evenodd" d="M38.2576 28.0921C37.5609 29.774 36.5779 31.1898 35.1692 32.4017C33.4766 33.858 31.618 34.95 29.4822 35.614C28.7185 35.8509 28.4664 36.1477 28.4581 36.9556C28.4512 37.6092 28.5175 38.2642 28.5494 38.9193C28.5548 39.0137 28.5502 39.1082 28.5502 39.2026C28.5144 39.2138 28.4794 39.2258 28.4436 39.2378C28.2928 38.947 28.1207 38.666 27.9959 38.3654C27.351 36.8177 26.8065 35.2445 26.9977 33.5334C27.0578 32.9975 27.073 32.3957 27.5893 32.0764C27.8931 31.8883 28.3241 31.9085 28.6819 31.7901C31.8982 30.7243 34.4687 28.9233 35.6246 25.6547C36.6304 22.8112 36.287 20.0118 35.1213 17.2716C34.6606 16.1894 34.1223 15.1633 33.3083 14.2887C33.1454 14.114 33.0494 13.8794 32.9657 13.6426C34.0949 14.0548 34.9492 14.8051 35.7525 15.6153C37.5746 17.453 38.6794 19.6738 39.0982 22.1733C39.4385 24.2015 39.0525 26.1764 38.2576 28.0921ZM30.954 24.4653C31.0614 25.699 30.5725 26.725 29.7982 27.6387C29.0025 28.5785 27.9913 29.1939 26.7593 29.4584C26.2682 29.5649 25.7923 29.7395 25.2205 29.9089C25.4291 30.115 25.5799 30.3271 25.7862 30.4508C26.0428 30.6051 26.071 30.755 25.9454 31.0001C25.168 32.5141 25.2167 34.133 25.3553 35.7534C25.4482 36.8364 25.5464 37.9247 26.1182 38.9051C26.17 38.9927 26.0954 39.2019 26.0131 39.3015C25.9035 39.4334 25.7124 39.4964 25.5852 39.6186C25.324 39.8674 25.0004 40.075 25.4611 40.488C25.7725 40.7675 25.7565 41.182 25.4124 41.5163C24.7964 42.1136 24.0197 42.1706 23.3641 41.6152C22.8959 41.2195 22.8669 40.82 23.2956 40.3726C23.5385 40.1192 23.5393 39.9731 23.2012 39.8509C23.186 39.8457 23.17 39.8412 23.1563 39.8329C22.2639 39.291 22.3423 39.2775 22.6141 38.2957C23.2865 35.8689 23.5781 33.4195 22.5212 31.0046C22.4116 30.7543 22.4116 30.5939 22.6827 30.4583C22.9111 30.3443 23.1182 30.1884 23.3344 30.0513C23.2827 29.9928 23.2309 29.9351 23.1791 29.8766C22.6964 29.7395 22.2091 29.6151 21.7309 29.4629C19.7839 28.8446 18.4035 27.6574 17.8309 25.6832C17.7517 25.4089 17.7098 25.1174 17.7037 24.8325C17.6969 24.52 17.7898 24.2195 17.486 23.9519C17.3938 23.8709 17.4433 23.5299 17.5431 23.3815C17.6123 23.2773 17.8849 23.2481 18.0517 23.2751C18.2717 23.3111 18.4834 23.4212 18.6852 23.5239C19.2768 23.8237 19.2311 23.826 18.9144 24.3604C18.753 24.6332 18.6966 25.0596 18.7887 25.3587C18.9159 25.7694 19.1474 26.2266 19.4801 26.4799C20.0657 26.9259 20.7388 27.2849 21.4195 27.5832C22.0888 27.8755 22.3256 27.6866 22.3454 26.9851C22.3926 25.3205 22.4291 23.6558 22.4801 21.9912C22.4923 21.5887 22.4306 21.241 22.0994 20.9524C21.775 20.6699 21.6761 20.3985 22.0408 19.9908C22.2936 19.7083 22.4185 19.2413 22.4413 18.8486C22.573 16.6263 22.5707 14.3943 22.7816 12.1803C22.9811 10.0862 23.285 7.98766 24.3053 6C24.5421 6.71202 24.8352 7.4113 25.0073 8.13906C25.6705 10.9407 25.9545 13.785 25.9355 16.6608C25.9301 17.4455 25.9195 18.24 26.0352 19.012C26.1091 19.5066 26.4098 19.9691 26.6086 20.4458C26.655 20.439 26.7015 20.433 26.7479 20.4255C26.6497 20.5702 26.5789 20.7456 26.4494 20.8535C26.0116 21.2185 25.9735 21.6869 25.9918 22.2033C26.0482 23.787 26.0801 25.3707 26.1235 26.9551C26.1433 27.6484 26.2568 27.805 26.9337 27.6446C28.0484 27.3816 29.0794 26.8899 29.6855 25.8773C30.0213 25.3175 30.1926 24.6774 29.5568 24.1273C29.5043 24.0816 29.5728 23.7788 29.6672 23.7188C29.952 23.5374 30.2657 23.3815 30.59 23.2878C30.7545 23.2399 31.088 23.2976 31.1299 23.3958C31.2098 23.5839 31.1565 23.838 31.12 24.0591C31.0972 24.2 30.9426 24.3364 30.954 24.4653ZM12.5481 19.7862C11.9276 22.4626 12.239 25.0312 13.7108 27.4198C14.8956 29.3423 16.653 30.5662 18.7393 31.3906C19.2837 31.6057 19.822 31.877 20.39 31.9767C20.7502 32.0389 21.0639 32.0367 21.1888 32.4152C21.3037 32.7629 21.4286 33.119 21.4644 33.4795C21.5946 34.8091 21.3875 36.0959 20.8629 37.3326C20.6375 37.8625 20.422 38.3976 20.1951 38.9275C20.1494 39.034 20.0748 39.1284 20.0223 39.2138C20.0223 38.5528 20.023 37.9067 20.0215 37.2614C20.0207 37.101 20.0268 36.9384 20.0025 36.781C19.9111 36.1994 19.7002 35.7857 19.0088 35.6043C16.1832 34.86 13.9103 33.1992 11.9915 31.1231C11.2149 30.2821 10.7397 29.1466 10.2395 28.0943C9.29608 26.1112 8.97552 23.9886 9.41867 21.8541C10.0811 18.6627 11.757 16.0395 14.4859 14.1118C14.6291 14.0106 14.8042 13.9529 14.9603 13.8689C15.1156 13.7865 15.2664 13.6966 15.4187 13.6096C15.4598 13.6463 15.5017 13.6831 15.5428 13.7205C15.3258 14.0211 15.1278 14.3381 14.888 14.6207C13.6073 16.1264 12.9798 17.926 12.5481 19.7862Z" fill="#999999"/>
</g>
</g>
<defs>
<filter id="filter0_d_4396_787" x="7.10123" y="5.379" width="34.242" height="40.242" filterUnits="userSpaceOnUse" color-interpolation-filters="sRGB">
<feFlood flood-opacity="0" result="BackgroundImageFix"/>
<feColorMatrix in="SourceAlpha" type="matrix" values="0 0 0 0 0 0 0 0 0 0 0 0 0 0 0 0 0 0 127 0" result="hardAlpha"/>
<feOffset dy="1.5"/>
<feGaussianBlur stdDeviation="1.0605"/>
<feColorMatrix type="matrix" values="0 0 0 0 0 0 0 0 0 0 0 0 0 0 0 0 0 0 0.3 0"/>
<feBlend mode="normal" in2="BackgroundImageFix" result="effect1_dropShadow_4396_787"/>
<feBlend mode="normal" in="SourceGraphic" in2="effect1_dropShadow_4396_787" result="shape"/>
</filter>
</defs>
</svg>
