<svg width="48" height="48" viewBox="0 0 48 48" fill="none" xmlns="http://www.w3.org/2000/svg">
<g id="Subclasses">
<g id="Vector" filter="url(#filter0_d_4447_3917)">
<path fill-rule="evenodd" clip-rule="evenodd" d="M35.7247 17.9425C35.7218 19.1692 35.7433 20.3959 35.7369 21.6219C35.734 22.2108 36.1988 22.391 36.522 22.6759C36.9682 23.0701 37.4587 23.4069 38 23.8209C37.5753 24.2181 37.2192 24.6496 36.7801 24.9406C35.9128 25.5166 35.7226 26.372 35.729 27.3536C35.7361 28.5153 35.7269 29.6763 35.7419 30.8381C35.744 31.0023 35.8127 31.1841 35.8977 31.3262C36.0536 31.5874 36.2403 31.8288 36.4226 32.0717C36.9274 32.7408 36.901 32.7056 36.3332 33.2571C35.3157 34.2455 34.3053 35.2469 33.3464 36.2986C31.5045 38.3159 29.6975 40.3706 27.8842 42.4168C27.5795 42.7598 27.3221 43.1494 27.0254 43.4992C26.5821 44.0232 25.9314 44.14 25.2378 43.8307C25.9578 42.452 26.562 41.0534 26.8509 39.5418C27.029 38.6054 27.6603 38.0593 28.2195 37.4574C29.2771 36.3185 30.3933 35.2408 31.4773 34.1294C31.7197 33.8804 31.9428 33.6062 32.1502 33.3236C32.5048 32.8385 32.7201 32.3237 32.7079 31.6638C32.6671 29.4564 32.68 27.2481 32.6836 25.0407C32.6879 21.9411 32.7158 18.8415 32.6907 15.7427C32.6879 15.4013 32.4719 14.9911 32.2374 14.7345C31.4566 13.8775 30.6264 13.0724 29.8055 12.2582C29.719 12.1726 29.571 12.1153 29.4516 12.1153C28.6371 12.1169 27.8234 12.1474 27.0097 12.1398C26.8895 12.139 26.6686 11.9855 26.6664 11.8992C26.6435 10.7603 26.6514 9.62071 26.6514 8.41311C27.3593 8.41311 28.0865 8.49331 28.7923 8.39554C30.0343 8.22369 30.8945 8.70413 31.7269 9.69327C33.2628 11.5188 34.9424 13.2084 36.5563 14.9606C36.7351 15.1538 36.8767 15.3868 37.0018 15.5548C36.5906 16.1941 36.1988 16.7769 35.8377 17.3819C35.7469 17.5339 35.7254 17.7539 35.7247 17.9425ZM26.2238 13.6361C27.5595 13.7973 28.8423 14.1677 30.0715 14.7429C30.3439 14.8704 30.63 15.0049 30.8495 15.2096C30.9846 15.3356 31.1126 15.645 31.0583 15.7977C30.675 16.8831 30.2438 17.9502 29.8212 19.0401C29.6575 18.9859 29.5152 18.9317 29.3693 18.8904C29.0683 18.8064 28.971 18.6536 29.029 18.2885C29.172 17.3857 28.444 16.4615 27.4466 16.2743C27.0576 16.2018 26.645 16.2323 26.2481 16.2721C26.1359 16.2835 25.9542 16.4928 25.9521 16.615C25.9263 17.7386 25.9263 18.8637 25.9399 19.988C25.9421 20.1316 26.0522 20.2859 26.1416 20.4127C26.4276 20.8168 26.7236 21.2132 27.024 21.6066C27.212 21.8533 27.1684 22.0504 26.9374 22.2245C26.8123 22.3192 26.6814 22.4063 26.5649 22.5125C26.1409 22.8997 25.902 23.3412 25.9092 23.9897C25.9399 26.8181 25.9764 29.6496 25.897 32.4757C25.8477 34.2501 25.6646 36.0275 25.4179 37.785C25.1784 39.4891 24.7916 41.1711 24.4448 42.8576C24.3697 43.2273 24.1931 43.5725 23.9471 43.9262C23.8284 43.6168 23.6932 43.3128 23.5931 42.9966C22.9296 40.9114 22.7143 38.7383 22.4283 36.5721C21.8806 32.4192 22.1366 28.2495 22.098 24.0875C22.0908 23.3007 21.8034 22.7874 21.2563 22.3605C20.7479 21.9633 20.7465 21.9656 21.1233 21.4118C21.1684 21.3453 21.197 21.2598 21.2542 21.2109C22.0822 20.5013 22.1587 19.5443 22.088 18.5123C22.0522 17.996 22.1044 17.472 22.1309 16.9519C22.158 16.4134 22.0379 16.3515 21.5066 16.2415C20.7823 16.0918 20.1902 16.3316 19.631 16.7533C19.1784 17.0939 18.8688 17.5705 18.976 18.1709C19.0676 18.6796 18.8788 18.8561 18.4741 18.9408C18.3861 18.9592 18.3025 18.9997 18.1266 19.0615C17.9464 18.4818 17.7991 17.9349 17.6074 17.4056C17.433 16.9259 17.2041 16.4691 17.0111 15.9963C16.8209 15.5327 16.9389 15.3127 17.3922 15.1141C17.7948 14.9369 18.1609 14.6444 18.5742 14.5176C19.6453 14.1891 20.7258 13.8844 21.8177 13.6476C22.6121 13.4749 22.6893 13.4704 22.7372 12.6157C22.838 10.8199 22.9253 9.02417 23.0175 7.22843C23.0483 6.62348 22.8359 6.27442 22.2925 6.03992C22.1516 5.97882 22.0107 5.92 21.8742 5.86272C22.0029 4.87739 22.8259 4.09906 23.8105 4.00969C24.9103 3.91039 25.7926 4.5795 26.1494 5.77182C25.8355 5.99409 25.5023 6.18658 25.2242 6.44551C25.0883 6.57154 24.9782 6.82513 24.9861 7.01456C25.0611 8.86071 25.1598 10.7061 25.2606 12.55C25.3107 13.4551 25.3858 13.5353 26.2238 13.6361ZM20.9889 12.1551C20.1759 12.1299 19.3622 12.1161 18.5484 12.1146C18.429 12.1146 18.2817 12.1749 18.1952 12.2612C17.3858 13.0632 16.5806 13.8714 15.7876 14.6917C15.463 15.027 15.2792 15.412 15.2871 15.9413C15.3271 18.5727 15.3371 21.2056 15.3364 23.8369C15.3357 26.576 15.2814 29.3158 15.3264 32.0533C15.3336 32.5185 15.6346 33.0639 15.9499 33.4229C16.9989 34.6144 18.1158 35.7388 19.2063 36.8883C19.7183 37.4276 20.2388 37.9577 20.7358 38.5122C20.8666 38.6589 20.961 38.8704 21.0082 39.0698C21.4036 40.7349 21.9621 42.3321 22.7673 43.8261C22.0951 44.1416 21.4272 44.014 20.9739 43.503C18.4247 40.6272 15.8834 37.7423 13.3178 34.8825C12.6464 34.134 11.8999 33.4603 11.1248 32.6904C11.3665 32.3535 11.6453 31.9159 11.9743 31.5248C12.2095 31.2445 12.2817 30.9511 12.2731 30.5906C12.2381 29.1714 12.2074 27.7515 12.2038 26.3323C12.2024 25.7633 11.7976 25.5196 11.4895 25.2072C11.0282 24.7398 10.5284 24.3166 10 23.8323C10.5034 23.4397 10.9546 23.0861 11.4072 22.7332C11.5052 22.6561 11.6031 22.5782 11.7054 22.5071C12.1652 22.194 12.2996 21.7586 12.2753 21.1796C12.2353 20.1843 12.2581 19.1845 12.291 18.1877C12.3068 17.718 12.1866 17.3361 11.9199 16.9671C11.6132 16.5432 11.3464 16.0857 11.0168 15.5709C11.1305 15.4066 11.2656 15.1561 11.4494 14.956C13.3507 12.8853 15.2635 10.8275 17.1605 8.75378C17.3829 8.51088 17.6031 8.40242 17.9206 8.40624C19.0568 8.42304 20.1931 8.41235 21.3579 8.41235C21.3743 8.5506 21.3986 8.65753 21.3972 8.76447C21.3836 9.76202 21.355 10.7588 21.3557 11.7556C21.3557 12.0542 21.2699 12.1635 20.9889 12.1551Z" fill="url(#paint0_linear_4447_3917)"/>
</g>
</g>
<defs>
<filter id="filter0_d_4447_3917" x="7.879" y="3.379" width="32.242" height="44.242" filterUnits="userSpaceOnUse" color-interpolation-filters="sRGB">
<feFlood flood-opacity="0" result="BackgroundImageFix"/>
<feColorMatrix in="SourceAlpha" type="matrix" values="0 0 0 0 0 0 0 0 0 0 0 0 0 0 0 0 0 0 127 0" result="hardAlpha"/>
<feOffset dy="1.5"/>
<feGaussianBlur stdDeviation="1.0605"/>
<feColorMatrix type="matrix" values="0 0 0 0 0 0 0 0 0 0 0 0 0 0 0 0 0 0 0.3 0"/>
<feBlend mode="normal" in2="BackgroundImageFix" result="effect1_dropShadow_4447_3917"/>
<feBlend mode="normal" in="SourceGraphic" in2="effect1_dropShadow_4447_3917" result="shape"/>
</filter>
<linearGradient id="paint0_linear_4447_3917" x1="9.93677" y1="45.1652" x2="10.0242" y2="4.00005" gradientUnits="userSpaceOnUse">
<stop offset="0.496356" stop-color="#C6B073"/>
<stop offset="1" stop-color="#E0D1A9"/>
</linearGradient>
</defs>
</svg>
