<svg width="49" height="48" viewBox="0 0 49 48" fill="none" xmlns="http://www.w3.org/2000/svg">
<g id="Subclasses">
<g id="Vector" filter="url(#filter0_d_4396_778)">
<path fill-rule="evenodd" clip-rule="evenodd" d="M39.3334 27.8652C39.2993 27.9148 39.2645 27.9643 39.2304 28.0139C38.5624 27.7016 37.8923 27.3953 37.2271 27.0754C36.5335 26.7428 35.847 26.393 35.1541 26.0581C34.714 25.8449 34.3661 25.9328 34.024 26.3367C33.5057 26.9463 32.9435 27.5176 32.3628 28.0619C32.0462 28.3585 31.8942 28.6355 32.1136 29.4186C32.6595 31.3668 33.2282 33.3083 33.7869 35.2536C33.8082 35.3279 33.8188 35.4067 33.8337 35.484C33.7982 35.5163 33.7627 35.5494 33.7272 35.5816C33.6243 35.436 33.5263 35.2851 33.4163 35.1447C32.2776 33.6912 31.1361 32.24 29.9967 30.7872C29.6722 30.3736 29.4586 30.3375 28.9836 30.5748C28.645 30.7437 28.2908 30.8788 27.8627 31.0635C27.8052 29.8458 27.7427 28.7226 27.7115 27.598C27.7079 27.4711 27.8542 27.2699 27.9741 27.2203C29.9385 26.4125 31.3235 24.8389 32.6744 23.233C33.9161 21.7577 34.3484 19.9859 34.2362 18.0414C34.1411 16.4025 33.828 14.8424 32.8122 13.5293C32.678 13.3566 32.5502 13.1787 32.4189 13.0038C32.4544 12.961 32.4899 12.9189 32.5254 12.8761C32.6659 12.967 32.8136 13.0481 32.9463 13.1509C34.5081 14.3491 35.1272 16.0894 35.4693 18.0061C35.7278 19.4559 35.7292 20.8966 35.453 22.3351C35.3345 22.9515 35.507 23.4057 35.9045 23.8569C37.0652 25.1752 38.1926 26.5266 39.3334 27.8652ZM29.8135 22.3396C29.8483 21.805 29.8731 21.4041 29.9015 21.004C29.9413 20.4409 30.0009 19.8778 30.0109 19.314C30.0137 19.1683 29.8866 18.9176 29.7773 18.8875C29.0106 18.6803 28.2297 18.3613 27.4595 18.38C26.335 18.407 25.1466 18.5099 24.4139 19.7149C23.8056 18.841 22.9778 18.5782 22.0322 18.4356C20.9418 18.2712 19.9628 18.6946 18.9398 18.8823C18.8256 18.9033 18.6672 19.1788 18.6743 19.3297C18.7105 20.1676 18.7915 21.0025 18.8568 21.8388C18.8667 21.9619 18.8745 22.0851 18.8831 22.2082C18.8518 22.2172 18.8206 22.227 18.7901 22.236C18.1895 21.3853 17.591 20.5325 16.9869 19.6856C16.7661 19.3763 16.551 19.0587 16.2969 18.7824C16.0193 18.4791 16.0207 18.2884 16.3629 18.0279C17.4192 17.2261 18.5849 16.6743 19.8301 16.3252C20.6081 16.1059 21.4132 15.9933 22.2076 15.8402C22.9345 15.7005 22.931 15.693 22.97 14.9212C23.08 12.729 23.1915 10.5367 23.3306 8.34675C23.359 7.90304 23.2085 7.69583 22.8387 7.5667C22.3346 7.38952 21.8405 7.1838 21.3471 6.99311C21.6219 5.75134 22.9899 4.54035 24.2343 4.50131C25.4987 4.46227 26.6935 5.29787 27.3849 6.97509C26.8724 7.17404 26.3662 7.38351 25.8508 7.5667C25.4831 7.69733 25.3319 7.89553 25.361 8.34599C25.5044 10.6006 25.618 12.8574 25.7188 15.1149C25.7372 15.5294 25.8799 15.7178 26.2611 15.7951C27.2926 16.0038 28.3546 16.1352 29.3379 16.5001C30.3616 16.8792 31.31 17.4904 32.2854 18.0121C32.4288 18.088 32.5388 18.2321 32.6723 18.3522C31.7338 19.6616 30.8173 20.9401 29.8135 22.3396ZM14.6683 17.0181C14.4681 18.9769 14.6534 20.8876 15.6153 22.6354C15.9802 23.2968 16.4381 23.8659 17.087 24.2525C17.3198 24.3907 17.5122 24.6197 17.6947 24.8329C18.5593 25.8449 19.61 26.5694 20.7728 27.137C20.9191 27.2083 21.1086 27.4193 21.1036 27.5582C21.066 28.6828 20.9865 29.806 20.9148 31.0185C20.5009 30.824 20.1218 30.6941 19.7924 30.4787C19.4063 30.2264 19.145 30.3263 18.8916 30.6656C18.22 31.5643 17.5569 32.4705 16.8655 33.3519C16.2763 34.1041 15.6523 34.8264 14.953 35.5021C15.0503 35.1499 15.1489 34.7986 15.2462 34.4472C15.7154 32.7602 16.2131 31.0815 16.6369 29.3818C16.776 28.8232 16.6972 28.2429 16.223 27.7812C15.6977 27.2691 15.2441 26.6745 14.7308 26.1482C14.5931 26.0071 14.3098 25.8629 14.1636 25.9207C13.3089 26.2556 12.4733 26.6452 11.6363 27.0266C10.8888 27.3675 10.1476 27.7226 9.33337 27.9809C9.70963 27.4838 10.0667 26.9688 10.4664 26.4936C11.3779 25.411 12.332 24.3667 13.2152 23.2593C13.3798 23.0521 13.3699 22.6084 13.3152 22.2983C12.8985 19.9191 13.2379 17.6383 14.0635 15.4175C14.488 14.2741 15.3946 13.5954 16.2259 12.8476C16.2614 12.8716 16.2969 12.8972 16.3331 12.9219C16.3061 13.0173 16.3075 13.1442 16.2486 13.2035C15.2157 14.2418 14.8146 15.5879 14.6683 17.0181ZM20.6287 24.7998C21.0412 24.3907 21.411 23.986 21.8185 23.6301C22.0904 23.3937 22.1302 23.1264 22.1252 22.7825C22.106 21.561 22.1174 20.338 22.1174 19.0925C23.4754 19.1368 23.8496 20.323 24.3898 21.4912C24.5737 21.1331 24.7128 20.9439 24.7739 20.7299C25.0387 19.8035 25.8174 19.1188 26.697 19.106C26.697 20.3125 26.7169 21.519 26.6857 22.724C26.675 23.1294 26.7453 23.4259 27.0505 23.6902C27.414 24.0063 27.7392 24.3719 28.1424 24.7781C27.857 25.1062 27.5965 25.4267 27.3146 25.7263C26.9547 26.1077 26.6651 26.4816 26.6672 27.0904C26.6814 32.4644 26.6693 37.8392 26.6672 43.2132C26.6672 43.3086 26.6849 43.4039 26.6942 43.5C25.1679 43.5 23.6416 43.5 22.1146 43.5C22.1202 43.0646 22.1295 42.6299 22.1295 42.1952C22.1309 37.1598 22.1266 32.1243 22.1366 27.0889C22.138 26.4628 21.8746 26.0641 21.4061 25.7135C21.1065 25.4898 20.8999 25.1272 20.6287 24.7998Z" fill="#999999"/>
</g>
</g>
<defs>
<filter id="filter0_d_4396_778" x="7.21237" y="3.879" width="34.242" height="43.242" filterUnits="userSpaceOnUse" color-interpolation-filters="sRGB">
<feFlood flood-opacity="0" result="BackgroundImageFix"/>
<feColorMatrix in="SourceAlpha" type="matrix" values="0 0 0 0 0 0 0 0 0 0 0 0 0 0 0 0 0 0 127 0" result="hardAlpha"/>
<feOffset dy="1.5"/>
<feGaussianBlur stdDeviation="1.0605"/>
<feColorMatrix type="matrix" values="0 0 0 0 0 0 0 0 0 0 0 0 0 0 0 0 0 0 0.3 0"/>
<feBlend mode="normal" in2="BackgroundImageFix" result="effect1_dropShadow_4396_778"/>
<feBlend mode="normal" in="SourceGraphic" in2="effect1_dropShadow_4396_778" result="shape"/>
</filter>
</defs>
</svg>
