<svg width="49" height="48" viewBox="0 0 49 48" fill="none" xmlns="http://www.w3.org/2000/svg">
<g id="Subclasses">
<g id="Vector" filter="url(#filter0_d_4396_841)">
<path fill-rule="evenodd" clip-rule="evenodd" d="M44.3468 24.0779C40.1386 28.9112 34.9902 32.2162 28.5733 33.4739C28.2434 33.5387 27.9075 33.5727 27.5739 33.6169C27.241 33.6619 26.9074 33.7017 26.4531 33.7592C26.2341 32.89 26.0227 32.0466 25.8083 31.1936C28.0747 30.8302 29.8898 29.8711 31.2896 28.1732C32.214 27.0504 32.6548 25.7463 32.771 24.3463C32.9045 22.7436 33.0132 21.1047 32.2852 19.6037C31.4088 17.7968 30.4259 16.037 29.0561 14.5265C28.775 14.2161 28.4324 13.9603 28.1175 13.6794C28.1362 13.6359 28.155 13.5939 28.1737 13.5504C28.9901 13.7354 29.8186 13.8792 30.6208 14.1099C36.1508 15.7038 40.6559 18.8061 44.3258 23.1284C44.595 23.4447 44.6595 23.7189 44.3468 24.0779ZM32.3917 17.2741C32.7178 17.8786 33.0529 18.3998 33.2913 18.9616C33.8364 20.2495 34.1363 21.6046 34.2382 22.9935C34.326 24.1841 34.2172 25.3541 33.6557 26.4444C32.9307 27.8547 32.1443 29.2238 30.9634 30.3333C35.0734 28.9871 38.5102 26.6686 41.4896 23.598C38.8806 20.8769 35.9169 18.7242 32.3917 17.2741ZM28.9467 27.8621C27.8033 28.9377 26.3594 29.4715 24.8329 29.7833C24.473 29.857 24.3741 30.003 24.4445 30.3215C24.6432 31.2261 24.8337 32.1329 25.0473 33.0337C25.1148 33.3176 25.372 33.6604 25.0443 33.8469C24.7699 34.0032 24.3756 34.0098 24.0382 33.9943C23.6566 33.9767 23.4062 33.7606 23.3582 33.3382C23.2067 31.9987 23.0111 30.6628 22.8731 29.3218C22.592 26.5948 22.8979 23.9224 23.7211 21.3045C23.763 21.1718 23.7953 21.0362 23.7263 20.8511C23.3829 21.522 22.9968 22.1759 22.7067 22.8682C22.4105 23.5774 22.1586 24.3116 21.9787 25.057C21.8033 25.7876 21.6983 26.5417 21.6436 27.2915C21.5881 28.0582 21.6316 28.8308 21.6316 29.6971C21.4156 29.5319 21.2545 29.4184 21.1038 29.2916C19.3471 27.8245 18.2945 25.9925 18.1783 23.7079C18.0989 22.142 18.5592 20.7066 19.5601 19.488C20.447 18.4102 21.3872 17.3699 22.3648 16.3688C23.5074 15.1988 24.3538 13.9079 24.518 12.2566C24.527 12.1688 24.5862 12.0855 24.6215 12C24.686 12 24.7504 12 24.8149 12C25.7281 12.8795 26.6907 13.7148 27.5432 14.6474C29.1333 16.3887 30.4229 18.3305 30.9289 20.6521C31.5205 23.365 31.0721 25.8606 28.9467 27.8621ZM17.6962 19.2683C16.5649 20.728 16.3467 22.442 16.5882 24.2121C16.6961 25.0017 16.9068 25.7817 17.1212 26.5528C17.4473 27.7265 18.1821 28.6753 19.051 29.498C19.7423 30.1527 20.6007 30.5891 21.5304 30.8737C21.6661 30.915 21.8377 31.0602 21.8662 31.1855C22.0537 32.0164 22.2066 32.8539 22.3895 33.7879C21.4509 33.6397 20.549 33.5446 19.6695 33.3515C13.551 32.0105 8.67627 28.749 4.76344 24.0116C4.49879 23.6909 4.4793 23.427 4.7492 23.0989C8.66278 18.3357 13.5525 15.0698 19.689 13.7273C20.5625 13.5364 21.4606 13.4553 22.3483 13.33C22.472 13.3123 22.601 13.327 22.7269 13.327C22.7629 13.3764 22.7989 13.4265 22.8349 13.4759C22.0004 14.4048 21.1622 15.3315 20.3315 16.2641C19.4446 17.2594 18.509 18.2185 17.6962 19.2683ZM7.57342 23.5464C10.6436 26.8293 14.1845 29.2518 18.5067 30.5287C16.4127 28.6532 15.2896 26.3294 15.2821 23.57C15.2746 20.7885 16.4082 18.4522 18.5052 16.5553C14.1673 17.8462 10.6068 20.2672 7.57342 23.5464Z" fill="#999999"/>
</g>
</g>
<defs>
<filter id="filter0_d_4396_841" x="2.43466" y="11.379" width="44.242" height="26.242" filterUnits="userSpaceOnUse" color-interpolation-filters="sRGB">
<feFlood flood-opacity="0" result="BackgroundImageFix"/>
<feColorMatrix in="SourceAlpha" type="matrix" values="0 0 0 0 0 0 0 0 0 0 0 0 0 0 0 0 0 0 127 0" result="hardAlpha"/>
<feOffset dy="1.5"/>
<feGaussianBlur stdDeviation="1.0605"/>
<feColorMatrix type="matrix" values="0 0 0 0 0 0 0 0 0 0 0 0 0 0 0 0 0 0 0.3 0"/>
<feBlend mode="normal" in2="BackgroundImageFix" result="effect1_dropShadow_4396_841"/>
<feBlend mode="normal" in="SourceGraphic" in2="effect1_dropShadow_4396_841" result="shape"/>
</filter>
</defs>
</svg>
