<svg width="49" height="48" viewBox="0 0 49 48" fill="none" xmlns="http://www.w3.org/2000/svg">
<g id="Subclasses">
<g id="Vector" filter="url(#filter0_d_4396_769)">
<path fill-rule="evenodd" clip-rule="evenodd" d="M36.1692 17.9425C36.1663 19.1692 36.1878 20.3959 36.1813 21.6219C36.1785 22.2108 36.6432 22.391 36.9664 22.6759C37.4126 23.0701 37.9032 23.4069 38.4445 23.8209C38.0197 24.2181 37.6636 24.6496 37.2246 24.9406C36.3572 25.5166 36.167 26.372 36.1735 27.3536C36.1806 28.5153 36.1713 29.6763 36.1863 30.8381C36.1885 31.0023 36.2571 31.1841 36.3422 31.3262C36.4981 31.5874 36.6847 31.8288 36.8671 32.0717C37.3719 32.7408 37.3454 32.7056 36.7777 33.2571C35.7602 34.2455 34.7498 35.2469 33.7909 36.2986C31.9489 38.3159 30.142 40.3706 28.3286 42.4168C28.024 42.7598 27.7666 43.1494 27.4698 43.4992C27.0265 44.0232 26.3758 44.14 25.6822 43.8307C26.4023 42.452 27.0065 41.0534 27.2954 39.5418C27.4734 38.6054 28.1048 38.0593 28.664 37.4574C29.7215 36.3185 30.8377 35.2408 31.9218 34.1294C32.1642 33.8804 32.3873 33.6062 32.5946 33.3236C32.9493 32.8385 33.1645 32.3237 33.1524 31.6638C33.1116 29.4564 33.1245 27.2481 33.128 25.0407C33.1323 21.9411 33.1602 18.8415 33.1352 15.7427C33.1323 15.4013 32.9164 14.9911 32.6819 14.7345C31.901 13.8775 31.0708 13.0724 30.25 12.2582C30.1634 12.1726 30.0154 12.1153 29.896 12.1153C29.0816 12.1169 28.2678 12.1474 27.4541 12.1398C27.334 12.139 27.113 11.9855 27.1109 11.8992C27.088 10.7603 27.0959 9.62071 27.0959 8.41311C27.8038 8.41311 28.531 8.49331 29.2367 8.39554C30.4788 8.22369 31.339 8.70413 32.1713 9.69327C33.7072 11.5188 35.3869 13.2084 37.0008 14.9606C37.1795 15.1538 37.3211 15.3868 37.4462 15.5548C37.0351 16.1941 36.6432 16.7769 36.2821 17.3819C36.1913 17.5339 36.1699 17.7539 36.1692 17.9425ZM26.6683 13.6361C28.004 13.7973 29.2868 14.1677 30.516 14.7429C30.7884 14.8704 31.0744 15.0049 31.2939 15.2096C31.4291 15.3356 31.5571 15.645 31.5027 15.7977C31.1195 16.8831 30.6883 17.9502 30.2657 19.0401C30.1019 18.9859 29.9597 18.9317 29.8138 18.8904C29.5127 18.8064 29.4155 18.6536 29.4734 18.2885C29.6164 17.3857 28.8885 16.4615 27.891 16.2743C27.502 16.2018 27.0894 16.2323 26.6926 16.2721C26.5803 16.2835 26.3987 16.4928 26.3965 16.615C26.3708 17.7386 26.3708 18.8637 26.3844 19.988C26.3865 20.1316 26.4967 20.2859 26.586 20.4127C26.8721 20.8168 27.1681 21.2132 27.4684 21.6066C27.6565 21.8533 27.6129 22.0504 27.3819 22.2245C27.2568 22.3192 27.1259 22.4063 27.0093 22.5125C26.5853 22.8997 26.3465 23.3412 26.3536 23.9897C26.3844 26.8181 26.4209 29.6496 26.3415 32.4757C26.2922 34.2501 26.1091 36.0275 25.8624 37.785C25.6229 39.4891 25.236 41.1711 24.8892 42.8576C24.8141 43.2273 24.6375 43.5725 24.3915 43.9262C24.2728 43.6168 24.1377 43.3128 24.0376 42.9966C23.374 40.9114 23.1588 38.7383 22.8728 36.5721C22.325 32.4192 22.581 28.2495 22.5424 24.0875C22.5353 23.3007 22.2478 22.7874 21.7008 22.3605C21.1924 21.9633 21.191 21.9656 21.5678 21.4118C21.6129 21.3453 21.6415 21.2598 21.6987 21.2109C22.5267 20.5013 22.6032 19.5443 22.5324 18.5123C22.4967 17.996 22.5489 17.472 22.5753 16.9519C22.6025 16.4134 22.4824 16.3515 21.9511 16.2415C21.2267 16.0918 20.6347 16.3316 20.0755 16.7533C19.6229 17.0939 19.3132 17.5705 19.4205 18.1709C19.512 18.6796 19.3233 18.8561 18.9185 18.9408C18.8306 18.9592 18.7469 18.9997 18.571 19.0615C18.3908 18.4818 18.2435 17.9349 18.0519 17.4056C17.8774 16.9259 17.6486 16.4691 17.4555 15.9963C17.2653 15.5327 17.3833 15.3127 17.8367 15.1141C18.2392 14.9369 18.6053 14.6444 19.0186 14.5176C20.0898 14.1891 21.1702 13.8844 22.2621 13.6476C23.0565 13.4749 23.1338 13.4704 23.1817 12.6157C23.2825 10.8199 23.3697 9.02417 23.462 7.22843C23.4927 6.62348 23.2804 6.27442 22.7369 6.03992C22.596 5.97882 22.4552 5.92 22.3186 5.86272C22.4473 4.87739 23.2703 4.09906 24.255 4.00969C25.3547 3.91039 26.2371 4.5795 26.5939 5.77182C26.28 5.99409 25.9468 6.18658 25.6686 6.44551C25.5328 6.57154 25.4226 6.82513 25.4305 7.01456C25.5056 8.86071 25.6043 10.7061 25.7051 12.55C25.7551 13.4551 25.8302 13.5353 26.6683 13.6361ZM21.4334 12.1551C20.6204 12.1299 19.8066 12.1161 18.9929 12.1146C18.8735 12.1146 18.7262 12.1749 18.6397 12.2612C17.8302 13.0632 17.0251 13.8714 16.2321 14.6917C15.9075 15.027 15.7237 15.412 15.7316 15.9413C15.7716 18.5727 15.7816 21.2056 15.7809 23.8369C15.7802 26.576 15.7258 29.3158 15.7709 32.0533C15.778 32.5185 16.0791 33.0639 16.3944 33.4229C17.4434 34.6144 18.5603 35.7388 19.6508 36.8883C20.1627 37.4276 20.6833 37.9577 21.1802 38.5122C21.3111 38.6589 21.4055 38.8704 21.4527 39.0698C21.8481 40.7349 22.4066 42.3321 23.2117 43.8261C22.5396 44.1416 21.8717 44.014 21.4184 43.503C18.8692 40.6272 16.3279 37.7423 13.7623 34.8825C13.0909 34.134 12.3444 33.4603 11.5692 32.6904C11.8109 32.3535 12.0898 31.9159 12.4187 31.5248C12.654 31.2445 12.7262 30.9511 12.7176 30.5906C12.6826 29.1714 12.6518 27.7515 12.6482 26.3323C12.6468 25.7633 12.2421 25.5196 11.9339 25.2072C11.4727 24.7398 10.9729 24.3166 10.4445 23.8323C10.9479 23.4397 11.3991 23.0861 11.8517 22.7332C11.9496 22.6561 12.0476 22.5782 12.1499 22.5071C12.6096 22.194 12.7441 21.7586 12.7198 21.1796C12.6797 20.1843 12.7026 19.1845 12.7355 18.1877C12.7512 17.718 12.6311 17.3361 12.3644 16.9671C12.0576 16.5432 11.7909 16.0857 11.4613 15.5709C11.575 15.4066 11.7101 15.1561 11.8939 14.956C13.7952 12.8853 15.708 10.8275 17.605 8.75378C17.8274 8.51088 18.0476 8.40242 18.3651 8.40624C19.5013 8.42304 20.6375 8.41235 21.8023 8.41235C21.8188 8.5506 21.8431 8.65753 21.8417 8.76447C21.8281 9.76202 21.7995 10.7588 21.8002 11.7556C21.8002 12.0542 21.7144 12.1635 21.4334 12.1551Z" fill="#999999"/>
</g>
</g>
<defs>
<filter id="filter0_d_4396_769" x="8.32346" y="3.379" width="32.242" height="44.242" filterUnits="userSpaceOnUse" color-interpolation-filters="sRGB">
<feFlood flood-opacity="0" result="BackgroundImageFix"/>
<feColorMatrix in="SourceAlpha" type="matrix" values="0 0 0 0 0 0 0 0 0 0 0 0 0 0 0 0 0 0 127 0" result="hardAlpha"/>
<feOffset dy="1.5"/>
<feGaussianBlur stdDeviation="1.0605"/>
<feColorMatrix type="matrix" values="0 0 0 0 0 0 0 0 0 0 0 0 0 0 0 0 0 0 0.3 0"/>
<feBlend mode="normal" in2="BackgroundImageFix" result="effect1_dropShadow_4396_769"/>
<feBlend mode="normal" in="SourceGraphic" in2="effect1_dropShadow_4396_769" result="shape"/>
</filter>
</defs>
</svg>
