<svg>
	<symbol id="subclass-1" width="49" height="48" viewBox="0 0 49 48" fill="none" xmlns="http://www.w3.org/2000/svg">
		<g id="Subclasses">
		<g id="Vector" filter="url(#filter0_d_4396_769)">
		<path fill-rule="evenodd" clip-rule="evenodd" d="M36.1692 17.9425C36.1663 19.1692 36.1878 20.3959 36.1813 21.6219C36.1785 22.2108 36.6432 22.391 36.9664 22.6759C37.4126 23.0701 37.9032 23.4069 38.4445 23.8209C38.0197 24.2181 37.6636 24.6496 37.2246 24.9406C36.3572 25.5166 36.167 26.372 36.1735 27.3536C36.1806 28.5153 36.1713 29.6763 36.1863 30.8381C36.1885 31.0023 36.2571 31.1841 36.3422 31.3262C36.4981 31.5874 36.6847 31.8288 36.8671 32.0717C37.3719 32.7408 37.3454 32.7056 36.7777 33.2571C35.7602 34.2455 34.7498 35.2469 33.7909 36.2986C31.9489 38.3159 30.142 40.3706 28.3286 42.4168C28.024 42.7598 27.7666 43.1494 27.4698 43.4992C27.0265 44.0232 26.3758 44.14 25.6822 43.8307C26.4023 42.452 27.0065 41.0534 27.2954 39.5418C27.4734 38.6054 28.1048 38.0593 28.664 37.4574C29.7215 36.3185 30.8377 35.2408 31.9218 34.1294C32.1642 33.8804 32.3873 33.6062 32.5946 33.3236C32.9493 32.8385 33.1645 32.3237 33.1524 31.6638C33.1116 29.4564 33.1245 27.2481 33.128 25.0407C33.1323 21.9411 33.1602 18.8415 33.1352 15.7427C33.1323 15.4013 32.9164 14.9911 32.6819 14.7345C31.901 13.8775 31.0708 13.0724 30.25 12.2582C30.1634 12.1726 30.0154 12.1153 29.896 12.1153C29.0816 12.1169 28.2678 12.1474 27.4541 12.1398C27.334 12.139 27.113 11.9855 27.1109 11.8992C27.088 10.7603 27.0959 9.62071 27.0959 8.41311C27.8038 8.41311 28.531 8.49331 29.2367 8.39554C30.4788 8.22369 31.339 8.70413 32.1713 9.69327C33.7072 11.5188 35.3869 13.2084 37.0008 14.9606C37.1795 15.1538 37.3211 15.3868 37.4462 15.5548C37.0351 16.1941 36.6432 16.7769 36.2821 17.3819C36.1913 17.5339 36.1699 17.7539 36.1692 17.9425ZM26.6683 13.6361C28.004 13.7973 29.2868 14.1677 30.516 14.7429C30.7884 14.8704 31.0744 15.0049 31.2939 15.2096C31.4291 15.3356 31.5571 15.645 31.5027 15.7977C31.1195 16.8831 30.6883 17.9502 30.2657 19.0401C30.1019 18.9859 29.9597 18.9317 29.8138 18.8904C29.5127 18.8064 29.4155 18.6536 29.4734 18.2885C29.6164 17.3857 28.8885 16.4615 27.891 16.2743C27.502 16.2018 27.0894 16.2323 26.6926 16.2721C26.5803 16.2835 26.3987 16.4928 26.3965 16.615C26.3708 17.7386 26.3708 18.8637 26.3844 19.988C26.3865 20.1316 26.4967 20.2859 26.586 20.4127C26.8721 20.8168 27.1681 21.2132 27.4684 21.6066C27.6565 21.8533 27.6129 22.0504 27.3819 22.2245C27.2568 22.3192 27.1259 22.4063 27.0093 22.5125C26.5853 22.8997 26.3465 23.3412 26.3536 23.9897C26.3844 26.8181 26.4209 29.6496 26.3415 32.4757C26.2922 34.2501 26.1091 36.0275 25.8624 37.785C25.6229 39.4891 25.236 41.1711 24.8892 42.8576C24.8141 43.2273 24.6375 43.5725 24.3915 43.9262C24.2728 43.6168 24.1377 43.3128 24.0376 42.9966C23.374 40.9114 23.1588 38.7383 22.8728 36.5721C22.325 32.4192 22.581 28.2495 22.5424 24.0875C22.5353 23.3007 22.2478 22.7874 21.7008 22.3605C21.1924 21.9633 21.191 21.9656 21.5678 21.4118C21.6129 21.3453 21.6415 21.2598 21.6987 21.2109C22.5267 20.5013 22.6032 19.5443 22.5324 18.5123C22.4967 17.996 22.5489 17.472 22.5753 16.9519C22.6025 16.4134 22.4824 16.3515 21.9511 16.2415C21.2267 16.0918 20.6347 16.3316 20.0755 16.7533C19.6229 17.0939 19.3132 17.5705 19.4205 18.1709C19.512 18.6796 19.3233 18.8561 18.9185 18.9408C18.8306 18.9592 18.7469 18.9997 18.571 19.0615C18.3908 18.4818 18.2435 17.9349 18.0519 17.4056C17.8774 16.9259 17.6486 16.4691 17.4555 15.9963C17.2653 15.5327 17.3833 15.3127 17.8367 15.1141C18.2392 14.9369 18.6053 14.6444 19.0186 14.5176C20.0898 14.1891 21.1702 13.8844 22.2621 13.6476C23.0565 13.4749 23.1338 13.4704 23.1817 12.6157C23.2825 10.8199 23.3697 9.02417 23.462 7.22843C23.4927 6.62348 23.2804 6.27442 22.7369 6.03992C22.596 5.97882 22.4552 5.92 22.3186 5.86272C22.4473 4.87739 23.2703 4.09906 24.255 4.00969C25.3547 3.91039 26.2371 4.5795 26.5939 5.77182C26.28 5.99409 25.9468 6.18658 25.6686 6.44551C25.5328 6.57154 25.4226 6.82513 25.4305 7.01456C25.5056 8.86071 25.6043 10.7061 25.7051 12.55C25.7551 13.4551 25.8302 13.5353 26.6683 13.6361ZM21.4334 12.1551C20.6204 12.1299 19.8066 12.1161 18.9929 12.1146C18.8735 12.1146 18.7262 12.1749 18.6397 12.2612C17.8302 13.0632 17.0251 13.8714 16.2321 14.6917C15.9075 15.027 15.7237 15.412 15.7316 15.9413C15.7716 18.5727 15.7816 21.2056 15.7809 23.8369C15.7802 26.576 15.7258 29.3158 15.7709 32.0533C15.778 32.5185 16.0791 33.0639 16.3944 33.4229C17.4434 34.6144 18.5603 35.7388 19.6508 36.8883C20.1627 37.4276 20.6833 37.9577 21.1802 38.5122C21.3111 38.6589 21.4055 38.8704 21.4527 39.0698C21.8481 40.7349 22.4066 42.3321 23.2117 43.8261C22.5396 44.1416 21.8717 44.014 21.4184 43.503C18.8692 40.6272 16.3279 37.7423 13.7623 34.8825C13.0909 34.134 12.3444 33.4603 11.5692 32.6904C11.8109 32.3535 12.0898 31.9159 12.4187 31.5248C12.654 31.2445 12.7262 30.9511 12.7176 30.5906C12.6826 29.1714 12.6518 27.7515 12.6482 26.3323C12.6468 25.7633 12.2421 25.5196 11.9339 25.2072C11.4727 24.7398 10.9729 24.3166 10.4445 23.8323C10.9479 23.4397 11.3991 23.0861 11.8517 22.7332C11.9496 22.6561 12.0476 22.5782 12.1499 22.5071C12.6096 22.194 12.7441 21.7586 12.7198 21.1796C12.6797 20.1843 12.7026 19.1845 12.7355 18.1877C12.7512 17.718 12.6311 17.3361 12.3644 16.9671C12.0576 16.5432 11.7909 16.0857 11.4613 15.5709C11.575 15.4066 11.7101 15.1561 11.8939 14.956C13.7952 12.8853 15.708 10.8275 17.605 8.75378C17.8274 8.51088 18.0476 8.40242 18.3651 8.40624C19.5013 8.42304 20.6375 8.41235 21.8023 8.41235C21.8188 8.5506 21.8431 8.65753 21.8417 8.76447C21.8281 9.76202 21.7995 10.7588 21.8002 11.7556C21.8002 12.0542 21.7144 12.1635 21.4334 12.1551Z" fill="#999999"/>
		</g>
		</g>
		<defs>
		<filter id="filter0_d_4396_769" x="8.32346" y="3.379" width="32.242" height="44.242" filterUnits="userSpaceOnUse" color-interpolation-filters="sRGB">
		<feFlood flood-opacity="0" result="BackgroundImageFix"/>
		<feColorMatrix in="SourceAlpha" type="matrix" values="0 0 0 0 0 0 0 0 0 0 0 0 0 0 0 0 0 0 127 0" result="hardAlpha"/>
		<feOffset dy="1.5"/>
		<feGaussianBlur stdDeviation="1.0605"/>
		<feColorMatrix type="matrix" values="0 0 0 0 0 0 0 0 0 0 0 0 0 0 0 0 0 0 0.3 0"/>
		<feBlend mode="normal" in2="BackgroundImageFix" result="effect1_dropShadow_4396_769"/>
		<feBlend mode="normal" in="SourceGraphic" in2="effect1_dropShadow_4396_769" result="shape"/>
		</filter>
		</defs>
	</symbol>
	<symbol id="subclass-2" width="49" height="48" viewBox="0 0 49 48" fill="none" xmlns="http://www.w3.org/2000/svg">
		<g id="Subclasses">
		<g id="Vector" filter="url(#filter0_d_4396_778)">
		<path fill-rule="evenodd" clip-rule="evenodd" d="M39.3334 27.8652C39.2993 27.9148 39.2645 27.9643 39.2304 28.0139C38.5624 27.7016 37.8923 27.3953 37.2271 27.0754C36.5335 26.7428 35.847 26.393 35.1541 26.0581C34.714 25.8449 34.3661 25.9328 34.024 26.3367C33.5057 26.9463 32.9435 27.5176 32.3628 28.0619C32.0462 28.3585 31.8942 28.6355 32.1136 29.4186C32.6595 31.3668 33.2282 33.3083 33.7869 35.2536C33.8082 35.3279 33.8188 35.4067 33.8337 35.484C33.7982 35.5163 33.7627 35.5494 33.7272 35.5816C33.6243 35.436 33.5263 35.2851 33.4163 35.1447C32.2776 33.6912 31.1361 32.24 29.9967 30.7872C29.6722 30.3736 29.4586 30.3375 28.9836 30.5748C28.645 30.7437 28.2908 30.8788 27.8627 31.0635C27.8052 29.8458 27.7427 28.7226 27.7115 27.598C27.7079 27.4711 27.8542 27.2699 27.9741 27.2203C29.9385 26.4125 31.3235 24.8389 32.6744 23.233C33.9161 21.7577 34.3484 19.9859 34.2362 18.0414C34.1411 16.4025 33.828 14.8424 32.8122 13.5293C32.678 13.3566 32.5502 13.1787 32.4189 13.0038C32.4544 12.961 32.4899 12.9189 32.5254 12.8761C32.6659 12.967 32.8136 13.0481 32.9463 13.1509C34.5081 14.3491 35.1272 16.0894 35.4693 18.0061C35.7278 19.4559 35.7292 20.8966 35.453 22.3351C35.3345 22.9515 35.507 23.4057 35.9045 23.8569C37.0652 25.1752 38.1926 26.5266 39.3334 27.8652ZM29.8135 22.3396C29.8483 21.805 29.8731 21.4041 29.9015 21.004C29.9413 20.4409 30.0009 19.8778 30.0109 19.314C30.0137 19.1683 29.8866 18.9176 29.7773 18.8875C29.0106 18.6803 28.2297 18.3613 27.4595 18.38C26.335 18.407 25.1466 18.5099 24.4139 19.7149C23.8056 18.841 22.9778 18.5782 22.0322 18.4356C20.9418 18.2712 19.9628 18.6946 18.9398 18.8823C18.8256 18.9033 18.6672 19.1788 18.6743 19.3297C18.7105 20.1676 18.7915 21.0025 18.8568 21.8388C18.8667 21.9619 18.8745 22.0851 18.8831 22.2082C18.8518 22.2172 18.8206 22.227 18.7901 22.236C18.1895 21.3853 17.591 20.5325 16.9869 19.6856C16.7661 19.3763 16.551 19.0587 16.2969 18.7824C16.0193 18.4791 16.0207 18.2884 16.3629 18.0279C17.4192 17.2261 18.5849 16.6743 19.8301 16.3252C20.6081 16.1059 21.4132 15.9933 22.2076 15.8402C22.9345 15.7005 22.931 15.693 22.97 14.9212C23.08 12.729 23.1915 10.5367 23.3306 8.34675C23.359 7.90304 23.2085 7.69583 22.8387 7.5667C22.3346 7.38952 21.8405 7.1838 21.3471 6.99311C21.6219 5.75134 22.9899 4.54035 24.2343 4.50131C25.4987 4.46227 26.6935 5.29787 27.3849 6.97509C26.8724 7.17404 26.3662 7.38351 25.8508 7.5667C25.4831 7.69733 25.3319 7.89553 25.361 8.34599C25.5044 10.6006 25.618 12.8574 25.7188 15.1149C25.7372 15.5294 25.8799 15.7178 26.2611 15.7951C27.2926 16.0038 28.3546 16.1352 29.3379 16.5001C30.3616 16.8792 31.31 17.4904 32.2854 18.0121C32.4288 18.088 32.5388 18.2321 32.6723 18.3522C31.7338 19.6616 30.8173 20.9401 29.8135 22.3396ZM14.6683 17.0181C14.4681 18.9769 14.6534 20.8876 15.6153 22.6354C15.9802 23.2968 16.4381 23.8659 17.087 24.2525C17.3198 24.3907 17.5122 24.6197 17.6947 24.8329C18.5593 25.8449 19.61 26.5694 20.7728 27.137C20.9191 27.2083 21.1086 27.4193 21.1036 27.5582C21.066 28.6828 20.9865 29.806 20.9148 31.0185C20.5009 30.824 20.1218 30.6941 19.7924 30.4787C19.4063 30.2264 19.145 30.3263 18.8916 30.6656C18.22 31.5643 17.5569 32.4705 16.8655 33.3519C16.2763 34.1041 15.6523 34.8264 14.953 35.5021C15.0503 35.1499 15.1489 34.7986 15.2462 34.4472C15.7154 32.7602 16.2131 31.0815 16.6369 29.3818C16.776 28.8232 16.6972 28.2429 16.223 27.7812C15.6977 27.2691 15.2441 26.6745 14.7308 26.1482C14.5931 26.0071 14.3098 25.8629 14.1636 25.9207C13.3089 26.2556 12.4733 26.6452 11.6363 27.0266C10.8888 27.3675 10.1476 27.7226 9.33337 27.9809C9.70963 27.4838 10.0667 26.9688 10.4664 26.4936C11.3779 25.411 12.332 24.3667 13.2152 23.2593C13.3798 23.0521 13.3699 22.6084 13.3152 22.2983C12.8985 19.9191 13.2379 17.6383 14.0635 15.4175C14.488 14.2741 15.3946 13.5954 16.2259 12.8476C16.2614 12.8716 16.2969 12.8972 16.3331 12.9219C16.3061 13.0173 16.3075 13.1442 16.2486 13.2035C15.2157 14.2418 14.8146 15.5879 14.6683 17.0181ZM20.6287 24.7998C21.0412 24.3907 21.411 23.986 21.8185 23.6301C22.0904 23.3937 22.1302 23.1264 22.1252 22.7825C22.106 21.561 22.1174 20.338 22.1174 19.0925C23.4754 19.1368 23.8496 20.323 24.3898 21.4912C24.5737 21.1331 24.7128 20.9439 24.7739 20.7299C25.0387 19.8035 25.8174 19.1188 26.697 19.106C26.697 20.3125 26.7169 21.519 26.6857 22.724C26.675 23.1294 26.7453 23.4259 27.0505 23.6902C27.414 24.0063 27.7392 24.3719 28.1424 24.7781C27.857 25.1062 27.5965 25.4267 27.3146 25.7263C26.9547 26.1077 26.6651 26.4816 26.6672 27.0904C26.6814 32.4644 26.6693 37.8392 26.6672 43.2132C26.6672 43.3086 26.6849 43.4039 26.6942 43.5C25.1679 43.5 23.6416 43.5 22.1146 43.5C22.1202 43.0646 22.1295 42.6299 22.1295 42.1952C22.1309 37.1598 22.1266 32.1243 22.1366 27.0889C22.138 26.4628 21.8746 26.0641 21.4061 25.7135C21.1065 25.4898 20.8999 25.1272 20.6287 24.7998Z" fill="#999999"/>
		</g>
		</g>
		<defs>
		<filter id="filter0_d_4396_778" x="7.21237" y="3.879" width="34.242" height="43.242" filterUnits="userSpaceOnUse" color-interpolation-filters="sRGB">
		<feFlood flood-opacity="0" result="BackgroundImageFix"/>
		<feColorMatrix in="SourceAlpha" type="matrix" values="0 0 0 0 0 0 0 0 0 0 0 0 0 0 0 0 0 0 127 0" result="hardAlpha"/>
		<feOffset dy="1.5"/>
		<feGaussianBlur stdDeviation="1.0605"/>
		<feColorMatrix type="matrix" values="0 0 0 0 0 0 0 0 0 0 0 0 0 0 0 0 0 0 0.3 0"/>
		<feBlend mode="normal" in2="BackgroundImageFix" result="effect1_dropShadow_4396_778"/>
		<feBlend mode="normal" in="SourceGraphic" in2="effect1_dropShadow_4396_778" result="shape"/>
		</filter>
		</defs>
	</symbol>
	<symbol id="subclass-3" width="49" height="48" viewBox="0 0 49 48" fill="none" xmlns="http://www.w3.org/2000/svg">
		<g id="Subclasses">
		<g id="Vector" filter="url(#filter0_d_4396_787)">
		<path fill-rule="evenodd" clip-rule="evenodd" d="M38.2576 28.0921C37.5609 29.774 36.5779 31.1898 35.1692 32.4017C33.4766 33.858 31.618 34.95 29.4822 35.614C28.7185 35.8509 28.4664 36.1477 28.4581 36.9556C28.4512 37.6092 28.5175 38.2642 28.5494 38.9193C28.5548 39.0137 28.5502 39.1082 28.5502 39.2026C28.5144 39.2138 28.4794 39.2258 28.4436 39.2378C28.2928 38.947 28.1207 38.666 27.9959 38.3654C27.351 36.8177 26.8065 35.2445 26.9977 33.5334C27.0578 32.9975 27.073 32.3957 27.5893 32.0764C27.8931 31.8883 28.3241 31.9085 28.6819 31.7901C31.8982 30.7243 34.4687 28.9233 35.6246 25.6547C36.6304 22.8112 36.287 20.0118 35.1213 17.2716C34.6606 16.1894 34.1223 15.1633 33.3083 14.2887C33.1454 14.114 33.0494 13.8794 32.9657 13.6426C34.0949 14.0548 34.9492 14.8051 35.7525 15.6153C37.5746 17.453 38.6794 19.6738 39.0982 22.1733C39.4385 24.2015 39.0525 26.1764 38.2576 28.0921ZM30.954 24.4653C31.0614 25.699 30.5725 26.725 29.7982 27.6387C29.0025 28.5785 27.9913 29.1939 26.7593 29.4584C26.2682 29.5649 25.7923 29.7395 25.2205 29.9089C25.4291 30.115 25.5799 30.3271 25.7862 30.4508C26.0428 30.6051 26.071 30.755 25.9454 31.0001C25.168 32.5141 25.2167 34.133 25.3553 35.7534C25.4482 36.8364 25.5464 37.9247 26.1182 38.9051C26.17 38.9927 26.0954 39.2019 26.0131 39.3015C25.9035 39.4334 25.7124 39.4964 25.5852 39.6186C25.324 39.8674 25.0004 40.075 25.4611 40.488C25.7725 40.7675 25.7565 41.182 25.4124 41.5163C24.7964 42.1136 24.0197 42.1706 23.3641 41.6152C22.8959 41.2195 22.8669 40.82 23.2956 40.3726C23.5385 40.1192 23.5393 39.9731 23.2012 39.8509C23.186 39.8457 23.17 39.8412 23.1563 39.8329C22.2639 39.291 22.3423 39.2775 22.6141 38.2957C23.2865 35.8689 23.5781 33.4195 22.5212 31.0046C22.4116 30.7543 22.4116 30.5939 22.6827 30.4583C22.9111 30.3443 23.1182 30.1884 23.3344 30.0513C23.2827 29.9928 23.2309 29.9351 23.1791 29.8766C22.6964 29.7395 22.2091 29.6151 21.7309 29.4629C19.7839 28.8446 18.4035 27.6574 17.8309 25.6832C17.7517 25.4089 17.7098 25.1174 17.7037 24.8325C17.6969 24.52 17.7898 24.2195 17.486 23.9519C17.3938 23.8709 17.4433 23.5299 17.5431 23.3815C17.6123 23.2773 17.8849 23.2481 18.0517 23.2751C18.2717 23.3111 18.4834 23.4212 18.6852 23.5239C19.2768 23.8237 19.2311 23.826 18.9144 24.3604C18.753 24.6332 18.6966 25.0596 18.7887 25.3587C18.9159 25.7694 19.1474 26.2266 19.4801 26.4799C20.0657 26.9259 20.7388 27.2849 21.4195 27.5832C22.0888 27.8755 22.3256 27.6866 22.3454 26.9851C22.3926 25.3205 22.4291 23.6558 22.4801 21.9912C22.4923 21.5887 22.4306 21.241 22.0994 20.9524C21.775 20.6699 21.6761 20.3985 22.0408 19.9908C22.2936 19.7083 22.4185 19.2413 22.4413 18.8486C22.573 16.6263 22.5707 14.3943 22.7816 12.1803C22.9811 10.0862 23.285 7.98766 24.3053 6C24.5421 6.71202 24.8352 7.4113 25.0073 8.13906C25.6705 10.9407 25.9545 13.785 25.9355 16.6608C25.9301 17.4455 25.9195 18.24 26.0352 19.012C26.1091 19.5066 26.4098 19.9691 26.6086 20.4458C26.655 20.439 26.7015 20.433 26.7479 20.4255C26.6497 20.5702 26.5789 20.7456 26.4494 20.8535C26.0116 21.2185 25.9735 21.6869 25.9918 22.2033C26.0482 23.787 26.0801 25.3707 26.1235 26.9551C26.1433 27.6484 26.2568 27.805 26.9337 27.6446C28.0484 27.3816 29.0794 26.8899 29.6855 25.8773C30.0213 25.3175 30.1926 24.6774 29.5568 24.1273C29.5043 24.0816 29.5728 23.7788 29.6672 23.7188C29.952 23.5374 30.2657 23.3815 30.59 23.2878C30.7545 23.2399 31.088 23.2976 31.1299 23.3958C31.2098 23.5839 31.1565 23.838 31.12 24.0591C31.0972 24.2 30.9426 24.3364 30.954 24.4653ZM12.5481 19.7862C11.9276 22.4626 12.239 25.0312 13.7108 27.4198C14.8956 29.3423 16.653 30.5662 18.7393 31.3906C19.2837 31.6057 19.822 31.877 20.39 31.9767C20.7502 32.0389 21.0639 32.0367 21.1888 32.4152C21.3037 32.7629 21.4286 33.119 21.4644 33.4795C21.5946 34.8091 21.3875 36.0959 20.8629 37.3326C20.6375 37.8625 20.422 38.3976 20.1951 38.9275C20.1494 39.034 20.0748 39.1284 20.0223 39.2138C20.0223 38.5528 20.023 37.9067 20.0215 37.2614C20.0207 37.101 20.0268 36.9384 20.0025 36.781C19.9111 36.1994 19.7002 35.7857 19.0088 35.6043C16.1832 34.86 13.9103 33.1992 11.9915 31.1231C11.2149 30.2821 10.7397 29.1466 10.2395 28.0943C9.29608 26.1112 8.97552 23.9886 9.41867 21.8541C10.0811 18.6627 11.757 16.0395 14.4859 14.1118C14.6291 14.0106 14.8042 13.9529 14.9603 13.8689C15.1156 13.7865 15.2664 13.6966 15.4187 13.6096C15.4598 13.6463 15.5017 13.6831 15.5428 13.7205C15.3258 14.0211 15.1278 14.3381 14.888 14.6207C13.6073 16.1264 12.9798 17.926 12.5481 19.7862Z" fill="#999999"/>
		</g>
		</g>
		<defs>
		<filter id="filter0_d_4396_787" x="7.10123" y="5.379" width="34.242" height="40.242" filterUnits="userSpaceOnUse" color-interpolation-filters="sRGB">
		<feFlood flood-opacity="0" result="BackgroundImageFix"/>
		<feColorMatrix in="SourceAlpha" type="matrix" values="0 0 0 0 0 0 0 0 0 0 0 0 0 0 0 0 0 0 127 0" result="hardAlpha"/>
		<feOffset dy="1.5"/>
		<feGaussianBlur stdDeviation="1.0605"/>
		<feColorMatrix type="matrix" values="0 0 0 0 0 0 0 0 0 0 0 0 0 0 0 0 0 0 0.3 0"/>
		<feBlend mode="normal" in2="BackgroundImageFix" result="effect1_dropShadow_4396_787"/>
		<feBlend mode="normal" in="SourceGraphic" in2="effect1_dropShadow_4396_787" result="shape"/>
		</filter>
		</defs>
	</symbol>
	<symbol id="subclass-4" width="49" height="48" viewBox="0 0 49 48" fill="none" xmlns="http://www.w3.org/2000/svg">
		<g id="Subclasses">
		<g id="Vector" filter="url(#filter0_d_4396_796)">
		<path fill-rule="evenodd" clip-rule="evenodd" d="M40.6111 24.0399C39.0529 25.2824 35.0724 26.9574 32.9276 27.2933C33.1703 26.3641 33.8567 25.604 33.9177 24.5178C32.6752 24.5178 31.499 24.4627 30.3317 24.5442C29.8582 24.5774 29.6744 24.4015 29.4935 24.0716C29.6989 23.6308 29.9573 23.4504 30.4873 23.4882C31.607 23.5674 32.7355 23.5123 34.0406 23.5123C33.6214 22.5205 33.2581 21.6607 32.8651 20.73C35.6382 21.4297 38.2006 22.4586 40.6111 24.0399ZM28.8383 23.067C28.7356 23.2949 28.5063 23.4708 28.3165 23.6497C28.0686 23.8814 27.9912 24.1826 28.2919 24.3328C28.7557 24.5638 28.8897 24.9986 29.0654 25.3949C29.5582 26.503 30.0146 27.6292 30.456 28.7592C30.529 28.9464 30.5208 29.2181 30.4441 29.4053C29.1026 32.6806 27.575 35.8471 25.2635 38.557C24.7952 39.1058 24.3821 39.7074 23.983 40.3128C23.6227 40.8593 23.4627 41.4896 23.7158 42.1176C23.8364 42.4158 24.1438 42.6324 24.3575 42.8936C24.4751 43.037 24.5749 43.1955 24.6821 43.3472C24.5012 43.4008 24.3084 43.5239 24.1401 43.4959C23.412 43.3752 22.8262 42.5479 22.7912 41.596C22.7577 40.6909 22.8597 39.8327 23.418 39.0499C24.1654 38.003 24.8712 36.9198 25.5263 35.8102C26.7308 33.7668 27.1849 31.58 26.3318 29.2876C25.9223 28.1901 25.3528 27.1469 24.7818 26.1225C24.5406 25.6908 24.1066 25.37 23.7098 24.945C23.992 24.7835 24.2659 24.6317 24.5339 24.4717C25.0126 24.1879 25.0163 23.8497 24.5436 23.5651C24.2741 23.4036 23.9979 23.2534 23.6957 23.0813C23.7947 22.9462 23.8401 22.8624 23.9056 22.799C26.0266 20.7194 26.9981 18.1831 26.6377 15.2068C26.4814 13.9175 25.9313 12.7408 25.1235 11.687C24.5377 10.9239 24.0843 10.055 23.5699 9.23452C23.4046 8.97108 23.2029 8.72727 23.0703 8.44873C22.544 7.34667 22.7033 5.67772 23.4463 4.91533C23.6607 4.69567 24.0158 4.60056 24.3233 4.50394C24.4171 4.47526 24.6136 4.60886 24.6746 4.71832C24.7096 4.78248 24.5942 5.02252 24.5027 5.05422C23.9868 5.23236 23.7552 5.60827 23.6503 6.12534C23.5245 6.7428 23.6786 7.30817 24.018 7.78749C24.7156 8.77407 25.4958 9.70026 26.1918 10.6883C27.9376 13.1665 29.3081 15.856 30.4382 18.6745C30.5052 18.8406 30.5394 19.0746 30.4761 19.2301C29.9491 20.5171 29.4064 21.7981 28.8383 23.067ZM12.5304 20.5488C12.0763 21.0462 11.6274 21.1474 10.9179 21.1029C14.7638 16.9633 18.5359 12.9023 22.3438 8.80351C22.7376 9.4723 22.7331 9.53872 22.2782 10.0286C19.0235 13.5303 15.7539 17.0177 12.5304 20.5488ZM13.2421 21.7128C13.3932 21.7181 13.6173 21.8034 13.6769 21.9211C14.3499 23.2428 15.5186 23.5078 16.8259 23.4972C18.5954 23.4836 20.3658 23.4368 22.1346 23.4738C22.6587 23.4851 23.179 23.732 23.6979 23.9645C23.1962 24.2385 22.8001 24.6015 22.1911 24.5917C20.1357 24.5585 18.0803 24.5789 16.0249 24.5947C15.0757 24.6023 14.3364 25.0363 13.8533 25.8682C13.6516 26.2154 13.4252 26.3445 13.0113 26.3347C11.5008 26.3007 9.98886 26.3392 8.47837 26.3082C8.18952 26.3022 7.89174 26.6706 7.61108 26.3014C7.61108 26.2697 7.61108 26.2365 7.61108 26.2041C7.69074 26.1112 7.78454 26.0267 7.84856 25.9233C8.07413 25.5609 8.2662 25.173 8.51708 24.8295C8.73074 24.5374 9.00767 24.2928 9.17145 24.1192C8.67267 23.35 8.20143 22.6231 7.72722 21.8977C7.7034 21.8615 7.65054 21.8456 7.61108 21.82C7.61108 21.7875 7.61108 21.755 7.61108 21.7226C7.77486 21.7052 7.9379 21.6803 8.10242 21.6728C8.19548 21.6682 8.29002 21.7037 8.38457 21.7045C9.50943 21.7143 10.635 21.7248 11.7607 21.7279C12.255 21.7286 12.7493 21.6947 13.2421 21.7128ZM20.7387 36.4201C21.2546 36.9741 21.7437 37.5538 22.2782 38.0868C22.6616 38.4702 22.7361 38.8318 22.3378 39.3164C18.5366 35.2244 14.763 31.1634 10.912 27.0185C11.6199 26.9831 12.0666 27.0684 12.5245 27.5718C15.2313 30.5504 17.9954 33.4754 20.7387 36.4201Z" fill="#999999"/>
		</g>
		</g>
		<defs>
		<filter id="filter0_d_4396_796" x="5.49008" y="3.879" width="37.242" height="43.242" filterUnits="userSpaceOnUse" color-interpolation-filters="sRGB">
		<feFlood flood-opacity="0" result="BackgroundImageFix"/>
		<feColorMatrix in="SourceAlpha" type="matrix" values="0 0 0 0 0 0 0 0 0 0 0 0 0 0 0 0 0 0 127 0" result="hardAlpha"/>
		<feOffset dy="1.5"/>
		<feGaussianBlur stdDeviation="1.0605"/>
		<feColorMatrix type="matrix" values="0 0 0 0 0 0 0 0 0 0 0 0 0 0 0 0 0 0 0.3 0"/>
		<feBlend mode="normal" in2="BackgroundImageFix" result="effect1_dropShadow_4396_796"/>
		<feBlend mode="normal" in="SourceGraphic" in2="effect1_dropShadow_4396_796" result="shape"/>
		</filter>
		</defs>
	</symbol>
	<symbol id="subclass-5" width="48" height="48" viewBox="0 0 48 48" fill="none" xmlns="http://www.w3.org/2000/svg">
		<g id="Subclasses">
		<g id="Vector" filter="url(#filter0_d_4396_805)">
		<path fill-rule="evenodd" clip-rule="evenodd" d="M42.8363 23.7413C42.7025 23.7839 42.5926 23.9024 42.4647 23.9706C42.227 24.0984 41.8973 24.3803 41.7597 24.3036C41.4375 24.1231 41.1975 23.7762 40.9462 23.4772C40.9059 23.4292 40.9537 23.2619 41.0053 23.1783C41.0965 23.0296 41.2214 22.9033 41.35 22.7453C39.6304 21.7501 37.8973 20.9679 35.9578 20.7541C33.741 20.5102 31.5616 20.6929 29.4105 21.2785C29.1347 21.3536 28.8633 21.4744 28.6128 21.6169C28.2726 21.8098 28.135 21.6642 28.0894 21.3334C28.0663 21.17 28.073 21.0004 28.0775 20.8347C28.1178 19.5026 28.159 18.1704 28.2031 16.8399C28.2083 16.6788 28.2307 16.5185 28.2434 16.3814C31.7141 16.74 34.9425 17.8281 38.0378 19.3206C39.4711 20.0122 40.8019 20.9292 42.1896 21.7246C42.4565 21.8779 42.7646 21.9956 43.0659 22.0336C43.3447 22.07 43.4576 22.1529 43.4846 22.4448C43.5376 23.0311 43.4838 23.533 42.8363 23.7413ZM40.8804 20.3003C40.8879 20.2546 40.8954 20.2089 40.9036 20.164C41.2356 20.1795 41.6087 20.1074 41.8831 20.2461C42.0326 20.3212 42.0139 20.7534 42.0715 21.0252C42.0161 21.0608 41.9601 21.0972 41.9047 21.1329C41.5638 20.8556 41.2221 20.5775 40.8804 20.3003ZM26.5537 36.4863C27.6393 35.333 28.7205 34.1752 29.8083 33.0235C32.1126 30.5854 34.4176 28.1474 36.7279 25.7147C37.6289 24.766 38.5477 23.835 39.4524 22.8894C39.7403 22.5889 40.0102 22.5339 40.393 22.9606C35.7485 27.7942 31.1302 32.6007 26.4737 37.4474C26.2337 37.0036 26.319 36.7364 26.5537 36.4863ZM26.852 21.0175C26.6016 24.4368 26.3534 27.8554 26.1156 31.2755C25.9646 33.451 25.8285 35.6274 25.6962 37.8037C25.6595 38.414 26.0319 38.9623 26.6263 39.0568C27.1833 39.1466 27.3582 39.4216 27.276 39.9567C27.261 40.0535 27.2655 40.1581 27.2805 40.2557C27.3777 40.8784 27.4105 41.4112 26.5724 41.5351C26.3354 41.5708 26.1148 41.9735 25.9519 42.25C25.4995 43.0175 24.87 43.4985 23.9975 43.5C23.1227 43.5015 22.4834 43.026 22.0543 42.243C21.818 41.8116 21.5399 41.4329 21.0135 41.3717C20.698 41.3345 20.6263 41.1425 20.6816 40.8435C20.7152 40.6654 20.7287 40.4764 20.7107 40.296C20.6412 39.6082 20.7085 39.0831 21.5661 38.9964C21.9952 38.953 22.3294 38.3195 22.3003 37.8401C22.1515 35.3811 22.0057 32.9213 21.8345 30.4639C21.6027 27.1266 21.3515 23.7917 21.1033 20.456C21.0091 19.1943 20.9066 17.9335 20.7922 16.6734C20.7563 16.283 20.796 16.022 21.2401 15.9004C21.6049 15.8013 21.9242 15.5341 22.2823 15.3931C22.5949 15.27 22.8304 15.3172 22.8498 15.7773C22.9134 17.2906 23.0091 18.8017 23.0928 20.3134C23.0786 20.3142 23.0651 20.315 23.0509 20.3158C23.1676 23.1605 23.2812 26.0059 23.4008 28.8506C23.4442 29.8814 23.4995 30.9123 23.5526 31.9431C23.5586 32.0593 23.5459 32.2049 23.6064 32.2824C23.7141 32.4194 23.8741 32.6069 24.0072 32.603C24.1418 32.5991 24.2853 32.4008 24.3945 32.2614C24.4468 32.1956 24.4378 32.0701 24.4423 31.971C24.5612 29.2092 24.6771 26.4474 24.7975 23.6856C24.9126 21.0422 25.0412 18.3989 25.1451 15.7548C25.1623 15.318 25.3934 15.2715 25.6782 15.3838C26.156 15.572 26.6285 15.7905 27.0666 16.0592C27.181 16.1297 27.2064 16.4418 27.1922 16.637C27.0898 18.0976 26.959 19.5568 26.852 21.0175ZM24.713 12.5632C24.6554 13.5259 24.5956 14.4885 24.562 15.452C24.5066 17.0482 24.4834 18.6468 24.4244 20.243C24.3145 23.2379 24.1881 26.2328 24.0685 29.2278C24.0648 29.3099 24.0535 29.3912 24.0461 29.4733C24.002 29.4748 23.9578 29.4772 23.9137 29.4795C23.8524 28.1551 23.7717 26.8307 23.735 25.5056C23.652 22.4588 23.6087 19.4104 23.513 16.3643C23.4696 14.9687 23.3455 13.5762 23.2461 12.1829C23.2124 11.7074 23.1182 11.6547 22.7077 11.8979C22.2651 12.1604 21.8435 12.4602 21.4038 12.7498C21.0846 11.6299 22.7414 6.38897 24.0094 4.5C25.5055 7.04264 26.322 9.78432 26.7399 12.8218C26.0663 12.4021 25.5025 12.0505 24.8281 11.6299C24.778 12.0241 24.7287 12.2929 24.713 12.5632ZM12.9507 27.6083C14.9545 29.6994 16.9926 31.7557 19.0023 33.8414C19.8397 34.7104 20.6532 35.6049 21.4464 36.5165C21.6064 36.7 21.6281 37.0129 21.7134 37.2662C21.6371 37.315 21.5608 37.363 21.4853 37.411C16.87 32.6069 12.2547 27.802 7.61467 22.9723C7.98701 22.4983 8.26888 22.5966 8.56047 22.9103C10.0207 24.4794 11.4681 26.0617 12.9507 27.6083ZM19.2356 21.5449C18.5949 21.297 17.9197 21.129 17.2476 20.9857C14.6651 20.4343 12.0932 20.4916 9.58103 21.3396C8.5814 21.6765 7.64458 22.2109 6.64421 22.671C7.13841 23.478 7.12645 23.4656 6.49991 24.1371C6.28084 24.3725 6.11038 24.3601 5.87636 24.2045C5.55187 23.9892 5.22066 23.7847 4.8872 23.5841C4.62028 23.423 4.47748 23.2395 4.5029 22.8731C4.55299 22.1567 4.53131 22.1954 5.23561 22.0289C5.56084 21.9515 5.85991 21.7036 6.14028 21.4907C7.96084 20.1098 10.0139 19.2005 12.0992 18.3757C14.0633 17.5981 16.064 16.9212 18.1575 16.6029C18.6629 16.5262 19.1683 16.4519 19.7134 16.3705C19.7335 16.4519 19.7806 16.5556 19.7844 16.6594C19.8315 18.141 19.8823 19.6218 19.9107 21.1042C19.9227 21.7393 19.7963 21.7617 19.2356 21.5449ZM5.9429 21.0469C5.98701 20.7766 5.95038 20.3483 6.09318 20.2701C6.36458 20.1214 6.73841 20.1717 7.06888 20.14C7.08159 20.1965 7.0943 20.253 7.10626 20.3096C6.77206 20.583 6.4371 20.8556 6.1029 21.1298C6.04907 21.1019 5.99598 21.0748 5.9429 21.0469Z" fill="#999999"/>
		</g>
		</g>
		<defs>
		<filter id="filter0_d_4396_805" x="2.379" y="3.879" width="43.242" height="43.242" filterUnits="userSpaceOnUse" color-interpolation-filters="sRGB">
		<feFlood flood-opacity="0" result="BackgroundImageFix"/>
		<feColorMatrix in="SourceAlpha" type="matrix" values="0 0 0 0 0 0 0 0 0 0 0 0 0 0 0 0 0 0 127 0" result="hardAlpha"/>
		<feOffset dy="1.5"/>
		<feGaussianBlur stdDeviation="1.0605"/>
		<feColorMatrix type="matrix" values="0 0 0 0 0 0 0 0 0 0 0 0 0 0 0 0 0 0 0.3 0"/>
		<feBlend mode="normal" in2="BackgroundImageFix" result="effect1_dropShadow_4396_805"/>
		<feBlend mode="normal" in="SourceGraphic" in2="effect1_dropShadow_4396_805" result="shape"/>
		</filter>
		</defs>
	</symbol>
	<symbol id="subclass-6" width="49" height="48" viewBox="0 0 49 48" fill="none" xmlns="http://www.w3.org/2000/svg">
		<g id="Subclasses">
		<g id="Vector" filter="url(#filter0_d_4396_814)">
		<path fill-rule="evenodd" clip-rule="evenodd" d="M44.715 24.3604C42.7037 26.9719 40.334 29.1624 37.6224 30.9343C32.7039 34.1495 27.3756 35.6258 21.5933 34.7524C14.7434 33.7183 9.36348 30.0021 5.06391 24.4215C4.82052 24.1055 4.83545 23.8374 5.08108 23.5442C5.68133 22.8237 6.24276 22.0648 6.87736 21.3795C10.6036 17.3536 15.0024 14.5633 20.2912 13.4571C21.2752 13.2509 22.2794 13.1497 23.2746 13C24.2026 13 25.1313 13 26.0601 13C26.1661 13.0282 26.2714 13.0729 26.3789 13.0823C30.6911 13.4304 34.6032 14.9773 38.1741 17.4932C40.7491 19.3082 43.0784 21.4156 44.8889 24.0969C44.8889 24.1306 44.8889 24.1643 44.8889 24.1981C44.8307 24.2514 44.7635 24.2976 44.715 24.3604ZM7.98454 23.9495C10.4468 27.1044 14.9203 30.3416 18.8115 31.4227C14.5239 27.3725 14.5343 20.5163 18.8847 16.4873C14.5022 17.9346 10.9783 20.5132 7.98454 23.9495ZM24.9268 15.8264C20.6459 15.8193 17.1496 19.4548 17.1265 23.9378C17.1041 28.4576 20.5734 32.148 24.864 32.1668C29.1666 32.1856 32.6756 28.536 32.6882 24.0295C32.7009 19.5128 29.2204 15.8342 24.9268 15.8264ZM31.3638 16.8103C35.2199 21.6273 35.2244 26.3823 31.3332 31.2189C35.3886 29.7261 38.746 27.2714 41.6898 24.0483C38.7595 20.8017 35.4066 18.3101 31.3638 16.8103ZM30.5299 29.0166C29.8565 30.2593 28.3252 30.8402 27.0224 30.4239C25.8719 30.0562 25.2754 28.8143 25.6942 27.6587C26.0153 26.7743 26.8694 26.4333 27.654 26.8778C28.2252 27.2 28.3521 27.6297 28.1005 28.6418C28.3991 28.4388 28.6537 28.3298 28.8232 28.1377C29.2905 27.6093 29.3615 26.3988 29.0001 25.7528C28.6298 25.0926 27.7466 24.6771 27.0075 24.8707C26.4976 25.004 25.975 25.1546 25.5188 25.4149C25.2769 25.5513 25.1149 25.9174 25.0022 26.2161C24.3302 27.9966 22.6049 29.0762 20.8534 28.7171C19.1915 28.3761 17.2601 26.7226 17.7364 24.4819C17.8663 23.8727 18.1896 23.2447 18.586 22.7774C19.4095 21.8053 20.8206 21.908 21.5828 22.8935C22.1345 23.6053 22.0211 24.5015 21.3163 25.0009C20.6944 25.4415 20.1815 25.2925 19.6499 24.5179C19.4222 24.9813 19.5058 25.5685 19.9284 26.0005C20.5115 26.5964 21.1826 27.044 22.0397 26.721C22.8102 26.4301 23.2455 25.8116 23.3679 24.9586C23.4231 24.5767 23.5321 24.191 23.5083 23.8147C23.4918 23.5473 23.3403 23.2518 23.1708 23.0385C21.8949 21.4336 21.9621 19.0267 23.3828 17.6962C24.2309 16.902 25.2299 16.4465 26.4035 16.4975C27.8093 16.5579 29.1091 17.8029 29.2764 19.2713C29.4167 20.5038 28.4506 21.6085 27.2688 21.5677C26.4513 21.5395 25.8764 20.8339 25.9697 19.9738C26.0377 19.3442 26.4162 19.0471 27.0105 19.1474C27.1165 19.1663 27.2262 19.1616 27.3494 19.1686C27.0904 18.6104 26.3886 18.3164 25.7614 18.5202C24.9977 18.7696 24.3138 19.1639 24.1727 20.0836C24.0458 20.9091 24.3422 21.5998 24.9708 22.1236C25.209 22.3219 25.4203 22.5791 25.6883 22.7077C25.9757 22.8449 26.3244 22.9507 26.6297 22.9154C28.2379 22.728 29.6258 23.1459 30.5224 24.6159C31.3922 26.0405 31.3175 27.5646 30.5299 29.0166Z" fill="#999999"/>
		</g>
		</g>
		<defs>
		<filter id="filter0_d_4396_814" x="2.76792" y="12.379" width="44.242" height="26.242" filterUnits="userSpaceOnUse" color-interpolation-filters="sRGB">
		<feFlood flood-opacity="0" result="BackgroundImageFix"/>
		<feColorMatrix in="SourceAlpha" type="matrix" values="0 0 0 0 0 0 0 0 0 0 0 0 0 0 0 0 0 0 127 0" result="hardAlpha"/>
		<feOffset dy="1.5"/>
		<feGaussianBlur stdDeviation="1.0605"/>
		<feColorMatrix type="matrix" values="0 0 0 0 0 0 0 0 0 0 0 0 0 0 0 0 0 0 0.3 0"/>
		<feBlend mode="normal" in2="BackgroundImageFix" result="effect1_dropShadow_4396_814"/>
		<feBlend mode="normal" in="SourceGraphic" in2="effect1_dropShadow_4396_814" result="shape"/>
		</filter>
		</defs>
	</symbol>
	<symbol id="subclass-7" width="49" height="48" viewBox="0 0 49 48" fill="none" xmlns="http://www.w3.org/2000/svg">
		<g id="Subclasses">
		<g id="Vector" filter="url(#filter0_d_4396_823)">
		<path fill-rule="evenodd" clip-rule="evenodd" d="M44.5365 24.4016C42.5152 27.0054 40.1391 29.1846 37.4289 30.9612C34.4692 32.9015 31.2853 34.212 27.8181 34.7149C27.0941 34.8191 26.3678 34.9052 25.6422 35C24.9376 35 24.2322 35 23.5269 35C22.7834 34.9052 22.0384 34.8214 21.2964 34.7133C17.5864 34.1759 14.2254 32.697 11.1432 30.4935C8.79464 28.8165 6.73081 26.8119 4.97335 24.4596C4.70883 24.1063 4.71481 23.8267 4.97858 23.4836C8.87384 18.4116 13.736 14.9313 19.8363 13.4853C20.1756 13.4046 20.5223 13.3623 20.8212 13.3098C21.2284 14.3218 21.6185 15.2916 22.0182 16.2864C20.9923 16.7204 20.0082 17.34 19.2079 18.2392C17.1187 20.5853 16.4432 23.3442 17.3406 26.3999C18.2455 29.4838 20.3138 31.4014 23.3176 32.0328C27.8077 32.9759 32.1431 29.5598 32.5369 24.7925C32.693 22.9094 32.504 21.0365 31.3861 19.4432C30.6389 18.3771 29.8005 17.3823 29.0197 16.3413C28.1469 15.1796 27.2054 14.061 26.4522 12.8171C25.4749 11.205 25.2156 9.37673 25.4823 7.4803C25.5018 7.33931 25.5653 7.20457 25.6422 6.96018C25.7461 7.61973 25.7596 8.19156 25.9307 8.70464C26.5262 10.4828 27.2876 12.1685 28.8389 13.2738C29.1049 13.4633 29.4501 13.5487 29.7706 13.6317C35.7424 15.1741 40.5314 18.645 44.4364 23.5604C44.5641 23.7209 44.6643 23.905 44.7778 24.0781C44.7778 24.111 44.7778 24.1455 44.7778 24.1792C44.6971 24.2528 44.6037 24.3155 44.5365 24.4016ZM15.4673 23.9732C15.4658 21.0161 16.5986 18.5314 18.6714 16.5089C14.3614 17.882 10.8301 20.467 7.77991 23.97C10.836 27.4746 14.3652 30.0706 18.6737 31.4296C16.5882 29.4173 15.4681 26.931 15.4673 23.9732ZM31.0947 16.7885C33.0681 18.7625 34.0926 21.1744 34.0873 23.9967C34.0821 26.8307 33.0367 29.2465 31.088 31.2346C35.1783 29.8042 38.5983 27.3219 41.57 24.057C39.4382 21.2315 33.3962 17.04 31.0947 16.7885ZM24.2621 11.2896C24.7822 12.3722 25.5854 13.302 26.243 14.3132C27.3347 15.9919 28.8837 17.3079 29.74 19.169C30.8735 21.6334 30.9243 24.1627 29.7041 26.5566C28.4167 29.082 25.4128 30.499 22.7781 29.429C22.7639 29.4227 22.746 29.422 22.7326 29.4149C21.6483 28.7561 20.6269 28.0198 19.9977 26.8323C19.2176 25.3604 18.9329 23.8102 19.4044 22.1645C19.7213 21.0561 20.2959 20.1623 21.3554 19.6876C21.6035 19.5764 21.8277 19.404 22.0586 19.2544C22.616 18.8918 22.7468 18.5228 22.5644 17.8515C22.5405 17.7614 22.5383 17.6659 22.5263 17.5726C22.5704 17.5499 22.6145 17.5272 22.6578 17.5045C23.0486 17.8123 23.2003 18.2776 23.2108 18.7711C23.2175 19.0758 23.086 19.3845 23.006 19.6884C22.9298 19.979 22.805 20.2586 22.7639 20.554C22.6593 21.3091 23.0225 21.9577 23.6539 22.2107C24.4586 22.5319 25.1924 22.311 25.6475 21.6107C26.3678 20.5007 26.1018 19.4103 25.5047 18.3904C25.1573 17.7967 24.7075 17.2491 24.2248 16.7682C21.998 14.5506 21.1895 11.8763 21.7395 8.71325C22.001 7.20849 22.6317 5.90896 23.6001 4.79272C23.8766 4.47391 24.2644 4.26085 24.6006 4C24.6357 4.03603 24.6708 4.07128 24.706 4.10732C24.6029 4.28591 24.4997 4.46294 24.3974 4.64232C23.148 6.83015 23.2033 9.08768 24.2621 11.2896Z" fill="#999999"/>
		</g>
		</g>
		<defs>
		<filter id="filter0_d_4396_823" x="2.65683" y="3.379" width="44.242" height="35.242" filterUnits="userSpaceOnUse" color-interpolation-filters="sRGB">
		<feFlood flood-opacity="0" result="BackgroundImageFix"/>
		<feColorMatrix in="SourceAlpha" type="matrix" values="0 0 0 0 0 0 0 0 0 0 0 0 0 0 0 0 0 0 127 0" result="hardAlpha"/>
		<feOffset dy="1.5"/>
		<feGaussianBlur stdDeviation="1.0605"/>
		<feColorMatrix type="matrix" values="0 0 0 0 0 0 0 0 0 0 0 0 0 0 0 0 0 0 0.3 0"/>
		<feBlend mode="normal" in2="BackgroundImageFix" result="effect1_dropShadow_4396_823"/>
		<feBlend mode="normal" in="SourceGraphic" in2="effect1_dropShadow_4396_823" result="shape"/>
		</filter>
		</defs>
	</symbol>
	<symbol id="subclass-8" width="49" height="48" viewBox="0 0 49 48" fill="none" xmlns="http://www.w3.org/2000/svg">
		<g id="Subclasses">
		<g id="Vector" filter="url(#filter0_d_4396_832)">
		<path fill-rule="evenodd" clip-rule="evenodd" d="M43.809 25.0338C39.9673 29.5858 35.3897 32.8785 29.7504 34.3068C23.6389 35.8538 17.8913 34.7773 12.4963 31.4189C9.531 29.5729 6.99675 27.1868 4.86595 24.31C4.60222 23.9542 4.59923 23.6696 4.86371 23.3193C8.75772 18.1678 13.6155 14.629 19.7143 13.1614C20.1603 13.054 20.6161 12.9915 21.228 12.8777C20.436 14.3974 19.7502 15.8057 18.9844 17.1619C18.0251 18.8596 17.2548 20.6246 16.9589 22.5971C16.3836 26.4333 18.4726 30.2254 21.9243 31.6193C26.5669 33.4933 31.5981 30.3272 32.3728 25.0442C32.5618 23.7554 32.4498 22.4954 32.1016 21.2482C31.6548 19.6451 30.9339 18.1879 30.1247 16.7643C29.4531 15.5829 28.8688 14.3453 28.1658 12.9779C28.8427 13.1238 29.3783 13.2111 29.8998 13.357C35.7498 14.9905 40.4858 18.4572 44.3253 23.3915C44.4531 23.555 44.5532 23.7409 44.6667 23.9173C44.6667 23.9509 44.6667 23.9854 44.6667 24.0199C44.3806 24.3581 44.0944 24.6956 43.809 25.0338ZM18.3844 31.1383C15.1539 27.8064 14.4545 23.2528 16.5084 19.0079C16.8939 18.2111 17.2443 17.3936 17.653 16.4934C13.6977 18.046 10.4597 20.5292 7.70876 23.7698C9.70134 26.7251 15.8098 30.9885 18.6041 31.3283C18.5533 31.2409 18.4524 31.2081 18.3844 31.1383ZM31.861 16.883C32.2085 17.6468 32.5581 18.4091 32.9025 19.1738C34.6202 22.9891 34.3139 26.6032 31.9402 30.001C31.6518 30.4146 31.2992 30.7769 30.8875 31.2674C35.0811 29.7244 38.5089 27.202 41.4788 23.8676C38.7406 20.7616 35.6243 18.3538 31.861 16.883ZM30.3474 25.3248C30.0328 26.8116 29.3836 28.0821 27.9357 28.7345C27.2759 29.0319 26.6603 29.4014 25.9378 29.5489C24.5161 29.8415 23.1854 29.5962 21.8862 28.967C19.544 27.8328 18.8133 25.3504 19.1315 22.9594C19.4296 20.7183 20.324 18.7225 21.1675 16.6938C22.1977 14.2139 23.3827 11.8012 24.1171 9.189C24.2501 8.7177 24.3196 8.22555 24.4204 7.74303C24.4727 7.49615 24.5303 7.25168 24.5855 7.00561C24.6416 7.00401 24.6969 7.0024 24.7522 7C24.8597 7.54024 24.9262 8.0949 25.0824 8.61751C25.4305 9.78695 25.6614 11.043 26.2307 12.0818C27.6674 14.7052 28.7269 17.5042 29.7833 20.3007C30.3817 21.8862 30.7105 23.6047 30.3474 25.3248Z" fill="#999999"/>
		</g>
		</g>
		<defs>
		<filter id="filter0_d_4396_832" x="2.54575" y="6.379" width="44.242" height="32.242" filterUnits="userSpaceOnUse" color-interpolation-filters="sRGB">
		<feFlood flood-opacity="0" result="BackgroundImageFix"/>
		<feColorMatrix in="SourceAlpha" type="matrix" values="0 0 0 0 0 0 0 0 0 0 0 0 0 0 0 0 0 0 127 0" result="hardAlpha"/>
		<feOffset dy="1.5"/>
		<feGaussianBlur stdDeviation="1.0605"/>
		<feColorMatrix type="matrix" values="0 0 0 0 0 0 0 0 0 0 0 0 0 0 0 0 0 0 0.3 0"/>
		<feBlend mode="normal" in2="BackgroundImageFix" result="effect1_dropShadow_4396_832"/>
		<feBlend mode="normal" in="SourceGraphic" in2="effect1_dropShadow_4396_832" result="shape"/>
		</filter>
		</defs>
	</symbol>
	<symbol id="subclass-9" width="49" height="48" viewBox="0 0 49 48" fill="none" xmlns="http://www.w3.org/2000/svg">
		<g id="Subclasses">
		<g id="Vector" filter="url(#filter0_d_4396_841)">
		<path fill-rule="evenodd" clip-rule="evenodd" d="M44.3468 24.0779C40.1386 28.9112 34.9902 32.2162 28.5733 33.4739C28.2434 33.5387 27.9075 33.5727 27.5739 33.6169C27.241 33.6619 26.9074 33.7017 26.4531 33.7592C26.2341 32.89 26.0227 32.0466 25.8083 31.1936C28.0747 30.8302 29.8898 29.8711 31.2896 28.1732C32.214 27.0504 32.6548 25.7463 32.771 24.3463C32.9045 22.7436 33.0132 21.1047 32.2852 19.6037C31.4088 17.7968 30.4259 16.037 29.0561 14.5265C28.775 14.2161 28.4324 13.9603 28.1175 13.6794C28.1362 13.6359 28.155 13.5939 28.1737 13.5504C28.9901 13.7354 29.8186 13.8792 30.6208 14.1099C36.1508 15.7038 40.6559 18.8061 44.3258 23.1284C44.595 23.4447 44.6595 23.7189 44.3468 24.0779ZM32.3917 17.2741C32.7178 17.8786 33.0529 18.3998 33.2913 18.9616C33.8364 20.2495 34.1363 21.6046 34.2382 22.9935C34.326 24.1841 34.2172 25.3541 33.6557 26.4444C32.9307 27.8547 32.1443 29.2238 30.9634 30.3333C35.0734 28.9871 38.5102 26.6686 41.4896 23.598C38.8806 20.8769 35.9169 18.7242 32.3917 17.2741ZM28.9467 27.8621C27.8033 28.9377 26.3594 29.4715 24.8329 29.7833C24.473 29.857 24.3741 30.003 24.4445 30.3215C24.6432 31.2261 24.8337 32.1329 25.0473 33.0337C25.1148 33.3176 25.372 33.6604 25.0443 33.8469C24.7699 34.0032 24.3756 34.0098 24.0382 33.9943C23.6566 33.9767 23.4062 33.7606 23.3582 33.3382C23.2067 31.9987 23.0111 30.6628 22.8731 29.3218C22.592 26.5948 22.8979 23.9224 23.7211 21.3045C23.763 21.1718 23.7953 21.0362 23.7263 20.8511C23.3829 21.522 22.9968 22.1759 22.7067 22.8682C22.4105 23.5774 22.1586 24.3116 21.9787 25.057C21.8033 25.7876 21.6983 26.5417 21.6436 27.2915C21.5881 28.0582 21.6316 28.8308 21.6316 29.6971C21.4156 29.5319 21.2545 29.4184 21.1038 29.2916C19.3471 27.8245 18.2945 25.9925 18.1783 23.7079C18.0989 22.142 18.5592 20.7066 19.5601 19.488C20.447 18.4102 21.3872 17.3699 22.3648 16.3688C23.5074 15.1988 24.3538 13.9079 24.518 12.2566C24.527 12.1688 24.5862 12.0855 24.6215 12C24.686 12 24.7504 12 24.8149 12C25.7281 12.8795 26.6907 13.7148 27.5432 14.6474C29.1333 16.3887 30.4229 18.3305 30.9289 20.6521C31.5205 23.365 31.0721 25.8606 28.9467 27.8621ZM17.6962 19.2683C16.5649 20.728 16.3467 22.442 16.5882 24.2121C16.6961 25.0017 16.9068 25.7817 17.1212 26.5528C17.4473 27.7265 18.1821 28.6753 19.051 29.498C19.7423 30.1527 20.6007 30.5891 21.5304 30.8737C21.6661 30.915 21.8377 31.0602 21.8662 31.1855C22.0537 32.0164 22.2066 32.8539 22.3895 33.7879C21.4509 33.6397 20.549 33.5446 19.6695 33.3515C13.551 32.0105 8.67627 28.749 4.76344 24.0116C4.49879 23.6909 4.4793 23.427 4.7492 23.0989C8.66278 18.3357 13.5525 15.0698 19.689 13.7273C20.5625 13.5364 21.4606 13.4553 22.3483 13.33C22.472 13.3123 22.601 13.327 22.7269 13.327C22.7629 13.3764 22.7989 13.4265 22.8349 13.4759C22.0004 14.4048 21.1622 15.3315 20.3315 16.2641C19.4446 17.2594 18.509 18.2185 17.6962 19.2683ZM7.57342 23.5464C10.6436 26.8293 14.1845 29.2518 18.5067 30.5287C16.4127 28.6532 15.2896 26.3294 15.2821 23.57C15.2746 20.7885 16.4082 18.4522 18.5052 16.5553C14.1673 17.8462 10.6068 20.2672 7.57342 23.5464Z" fill="#999999"/>
		</g>
		</g>
		<defs>
		<filter id="filter0_d_4396_841" x="2.43466" y="11.379" width="44.242" height="26.242" filterUnits="userSpaceOnUse" color-interpolation-filters="sRGB">
		<feFlood flood-opacity="0" result="BackgroundImageFix"/>
		<feColorMatrix in="SourceAlpha" type="matrix" values="0 0 0 0 0 0 0 0 0 0 0 0 0 0 0 0 0 0 127 0" result="hardAlpha"/>
		<feOffset dy="1.5"/>
		<feGaussianBlur stdDeviation="1.0605"/>
		<feColorMatrix type="matrix" values="0 0 0 0 0 0 0 0 0 0 0 0 0 0 0 0 0 0 0.3 0"/>
		<feBlend mode="normal" in2="BackgroundImageFix" result="effect1_dropShadow_4396_841"/>
		<feBlend mode="normal" in="SourceGraphic" in2="effect1_dropShadow_4396_841" result="shape"/>
		</filter>
		</defs>
	</symbol>
</svg>