<svg width="48" height="48" viewBox="0 0 48 48" fill="none" xmlns="http://www.w3.org/2000/svg">
<g id="Subclasses">
<g id="Vector" filter="url(#filter0_d_4447_3944)">
<path fill-rule="evenodd" clip-rule="evenodd" d="M40.5 24.0399C38.9419 25.2824 34.9613 26.9574 32.8165 27.2933C33.0592 26.3641 33.7456 25.604 33.8066 24.5178C32.5642 24.5178 31.3879 24.4627 30.2206 24.5442C29.7472 24.5774 29.5633 24.4015 29.3824 24.0716C29.5878 23.6308 29.8462 23.4504 30.3762 23.4882C31.4959 23.5674 32.6245 23.5123 33.9295 23.5123C33.5104 22.5205 33.1471 21.6607 32.754 20.73C35.5271 21.4297 38.0895 22.4586 40.5 24.0399ZM28.7273 23.067C28.6245 23.2949 28.3952 23.4708 28.2054 23.6497C27.9575 23.8814 27.8801 24.1826 28.1808 24.3328C28.6446 24.5638 28.7786 24.9986 28.9543 25.3949C29.4471 26.503 29.9035 27.6292 30.345 28.7592C30.4179 28.9464 30.4097 29.2181 30.333 29.4053C28.9915 32.6806 27.4639 35.8471 25.1524 38.557C24.6841 39.1058 24.271 39.7074 23.872 40.3128C23.5116 40.8593 23.3516 41.4896 23.6047 42.1176C23.7253 42.4158 24.0328 42.6324 24.2464 42.8936C24.364 43.037 24.4638 43.1955 24.571 43.3472C24.3901 43.4008 24.1973 43.5239 24.029 43.4959C23.301 43.3752 22.7151 42.5479 22.6801 41.596C22.6466 40.6909 22.7486 39.8327 23.3069 39.0499C24.0543 38.003 24.7601 36.9198 25.4152 35.8102C26.6197 33.7668 27.0738 31.58 26.2207 29.2876C25.8112 28.1901 25.2417 27.1469 24.6707 26.1225C24.4295 25.6908 23.9955 25.37 23.5987 24.945C23.8809 24.7835 24.1548 24.6317 24.4228 24.4717C24.9015 24.1879 24.9053 23.8497 24.4325 23.5651C24.163 23.4036 23.8868 23.2534 23.5846 23.0813C23.6836 22.9462 23.729 22.8624 23.7945 22.799C25.9155 20.7194 26.887 18.1831 26.5267 15.2068C26.3703 13.9175 25.8202 12.7408 25.0125 11.687C24.4266 10.9239 23.9732 10.055 23.4588 9.23452C23.2935 8.97108 23.0918 8.72727 22.9593 8.44873C22.4329 7.34667 22.5922 5.67772 23.3352 4.91533C23.5496 4.69567 23.9047 4.60056 24.2122 4.50394C24.306 4.47526 24.5025 4.60886 24.5635 4.71832C24.5985 4.78248 24.4831 5.02252 24.3916 5.05422C23.8757 5.23236 23.6442 5.60827 23.5392 6.12534C23.4134 6.7428 23.5675 7.30817 23.9069 7.78749C24.6045 8.77407 25.3847 9.70026 26.0807 10.6883C27.8265 13.1665 29.197 15.856 30.3271 18.6745C30.3941 18.8406 30.4283 19.0746 30.3651 19.2301C29.838 20.5171 29.2953 21.7981 28.7273 23.067ZM12.4193 20.5488C11.9652 21.0462 11.5163 21.1474 10.8068 21.1029C14.6527 16.9633 18.4248 12.9023 22.2327 8.80351C22.6265 9.4723 22.622 9.53872 22.1672 10.0286C18.9124 13.5303 15.6428 17.0177 12.4193 20.5488ZM13.131 21.7128C13.2821 21.7181 13.5062 21.8034 13.5658 21.9211C14.2388 23.2428 15.4076 23.5078 16.7148 23.4972C18.4844 23.4836 20.2547 23.4368 22.0235 23.4738C22.5476 23.4851 23.0679 23.732 23.5868 23.9645C23.0851 24.2385 22.689 24.6015 22.0801 24.5917C20.0246 24.5585 17.9692 24.5789 15.9138 24.5947C14.9646 24.6023 14.2254 25.0363 13.7422 25.8682C13.5405 26.2154 13.3142 26.3445 12.9002 26.3347C11.3898 26.3007 9.87777 26.3392 8.36728 26.3082C8.07844 26.3022 7.78066 26.6706 7.5 26.3014C7.5 26.2697 7.5 26.2365 7.5 26.2041C7.57966 26.1112 7.67346 26.0267 7.73748 25.9233C7.96305 25.5609 8.15512 25.173 8.406 24.8295C8.61965 24.5374 8.89659 24.2928 9.06037 24.1192C8.56159 23.35 8.09035 22.6231 7.61613 21.8977C7.59231 21.8615 7.53946 21.8456 7.5 21.82C7.5 21.7875 7.5 21.755 7.5 21.7226C7.66378 21.7052 7.82681 21.6803 7.99134 21.6728C8.08439 21.6682 8.17894 21.7037 8.27348 21.7045C9.39835 21.7143 10.524 21.7248 11.6496 21.7279C12.1439 21.7286 12.6382 21.6947 13.131 21.7128ZM20.6276 36.4201C21.1435 36.9741 21.6326 37.5538 22.1672 38.0868C22.5506 38.4702 22.625 38.8318 22.2267 39.3164C18.4256 35.2244 14.6519 31.1634 10.8009 27.0185C11.5089 26.9831 11.9555 27.0684 12.4134 27.5718C15.1202 30.5504 17.8843 33.4754 20.6276 36.4201Z" fill="url(#paint0_linear_4447_3944)"/>
</g>
</g>
<defs>
<filter id="filter0_d_4447_3944" x="5.379" y="3.879" width="37.242" height="43.242" filterUnits="userSpaceOnUse" color-interpolation-filters="sRGB">
<feFlood flood-opacity="0" result="BackgroundImageFix"/>
<feColorMatrix in="SourceAlpha" type="matrix" values="0 0 0 0 0 0 0 0 0 0 0 0 0 0 0 0 0 0 127 0" result="hardAlpha"/>
<feOffset dy="1.5"/>
<feGaussianBlur stdDeviation="1.0605"/>
<feColorMatrix type="matrix" values="0 0 0 0 0 0 0 0 0 0 0 0 0 0 0 0 0 0 0.3 0"/>
<feBlend mode="normal" in2="BackgroundImageFix" result="effect1_dropShadow_4447_3944"/>
<feBlend mode="normal" in="SourceGraphic" in2="effect1_dropShadow_4447_3944" result="shape"/>
</filter>
<linearGradient id="paint0_linear_4447_3944" x1="7.42548" y1="44.636" x2="7.49601" y2="4.49999" gradientUnits="userSpaceOnUse">
<stop offset="0.496356" stop-color="#C6B073"/>
<stop offset="1" stop-color="#E0D1A9"/>
</linearGradient>
</defs>
</svg>
