<svg width="48" height="48" viewBox="0 0 48 48" fill="none" xmlns="http://www.w3.org/2000/svg">
<g id="Subclasses">
<g id="Vector" filter="url(#filter0_d_4447_3971)">
<path fill-rule="evenodd" clip-rule="evenodd" d="M43.7586 24.4016C41.7374 27.0054 39.3612 29.1846 36.6511 30.9612C33.6913 32.9015 30.5074 34.212 27.0403 34.7149C26.3163 34.8191 25.59 34.9052 24.8644 35C24.1598 35 23.4544 35 22.749 35C22.0055 34.9052 21.2606 34.8214 20.5186 34.7133C16.8086 34.1759 13.4476 32.697 10.3653 30.4935C8.0168 28.8165 5.95298 26.8119 4.19551 24.4596C3.931 24.1063 3.93698 23.8267 4.20074 23.4836C8.09601 18.4116 12.9582 14.9313 19.0585 13.4853C19.3977 13.4046 19.7444 13.3623 20.0433 13.3098C20.4506 14.3218 20.8406 15.2916 21.2404 16.2864C20.2144 16.7204 19.2304 17.34 18.4301 18.2392C16.3409 20.5853 15.6654 23.3442 16.5628 26.3999C17.4677 29.4838 19.536 31.4014 22.5398 32.0328C27.0299 32.9759 31.3652 29.5598 31.759 24.7925C31.9152 22.9094 31.7261 21.0365 30.6083 19.4432C29.8611 18.3771 29.0227 17.3823 28.2418 16.3413C27.3691 15.1796 26.4276 14.061 25.6744 12.8171C24.697 11.205 24.4377 9.37673 24.7045 7.4803C24.7239 7.33931 24.7874 7.20457 24.8644 6.96018C24.9683 7.61973 24.9817 8.19156 25.1528 8.70464C25.7484 10.4828 26.5098 12.1685 28.061 13.2738C28.327 13.4633 28.6722 13.5487 28.9928 13.6317C34.9646 15.1741 39.7535 18.645 43.6585 23.5604C43.7863 23.7209 43.8864 23.905 44 24.0781C44 24.111 44 24.1455 44 24.1792C43.9193 24.2528 43.8259 24.3155 43.7586 24.4016ZM14.6895 23.9732C14.688 21.0161 15.8208 18.5314 17.8936 16.5089C13.5836 17.882 10.0522 20.467 7.00208 23.97C10.0582 27.4746 13.5873 30.0706 17.8958 31.4296C15.8103 29.4173 14.6902 26.931 14.6895 23.9732ZM30.3169 16.7885C32.2903 18.7625 33.3147 21.1744 33.3095 23.9967C33.3043 26.8307 32.2589 29.2465 30.3102 31.2346C34.4004 29.8042 37.8205 27.3219 40.7922 24.057C38.6604 21.2315 32.6183 17.04 30.3169 16.7885ZM23.4843 11.2896C24.0044 12.3722 24.8076 13.302 25.4652 14.3132C26.5569 15.9919 28.1059 17.3079 28.9622 19.169C30.0957 21.6334 30.1465 24.1627 28.9263 26.5566C27.6388 29.082 24.635 30.499 22.0003 29.429C21.9861 29.4227 21.9682 29.422 21.9547 29.4149C20.8705 28.7561 19.8491 28.0198 19.2199 26.8323C18.4398 25.3604 18.1551 23.8102 18.6266 22.1645C18.9434 21.0561 19.518 20.1623 20.5776 19.6876C20.8257 19.5764 21.0498 19.404 21.2807 19.2544C21.8382 18.8918 21.9689 18.5228 21.7866 17.8515C21.7627 17.7614 21.7604 17.6659 21.7485 17.5726C21.7926 17.5499 21.8367 17.5272 21.88 17.5045C22.2708 17.8123 22.4225 18.2776 22.4329 18.7711C22.4397 19.0758 22.3082 19.3845 22.2282 19.6884C22.152 19.979 22.0272 20.2586 21.9861 20.554C21.8815 21.3091 22.2446 21.9577 22.876 22.2107C23.6808 22.5319 24.4146 22.311 24.8696 21.6107C25.59 20.5007 25.3239 19.4103 24.7269 18.3904C24.3795 17.7967 23.9296 17.2491 23.4469 16.7682C21.2202 14.5506 20.4117 11.8763 20.9617 8.71325C21.2232 7.20849 21.8539 5.90896 22.8223 4.79272C23.0987 4.47391 23.4865 4.26085 23.8228 4C23.8579 4.03603 23.893 4.07128 23.9281 4.10732C23.825 4.28591 23.7219 4.46294 23.6195 4.64232C22.3702 6.83015 22.4255 9.08768 23.4843 11.2896Z" fill="url(#paint0_linear_4447_3971)"/>
</g>
</g>
<defs>
<filter id="filter0_d_4447_3971" x="1.879" y="3.379" width="44.242" height="35.242" filterUnits="userSpaceOnUse" color-interpolation-filters="sRGB">
<feFlood flood-opacity="0" result="BackgroundImageFix"/>
<feColorMatrix in="SourceAlpha" type="matrix" values="0 0 0 0 0 0 0 0 0 0 0 0 0 0 0 0 0 0 127 0" result="hardAlpha"/>
<feOffset dy="1.5"/>
<feGaussianBlur stdDeviation="1.0605"/>
<feColorMatrix type="matrix" values="0 0 0 0 0 0 0 0 0 0 0 0 0 0 0 0 0 0 0.3 0"/>
<feBlend mode="normal" in2="BackgroundImageFix" result="effect1_dropShadow_4447_3971"/>
<feBlend mode="normal" in="SourceGraphic" in2="effect1_dropShadow_4447_3971" result="shape"/>
</filter>
<linearGradient id="paint0_linear_4447_3971" x1="3.90967" y1="35.903" x2="3.94644" y2="3.99994" gradientUnits="userSpaceOnUse">
<stop offset="0.496356" stop-color="#C6B073"/>
<stop offset="1" stop-color="#E0D1A9"/>
</linearGradient>
</defs>
</svg>
