<svg width="48" height="48" viewBox="0 0 48 48" fill="none" xmlns="http://www.w3.org/2000/svg">
<g id="Subclasses">
<g id="Vector" filter="url(#filter0_d_4447_3980)">
<path fill-rule="evenodd" clip-rule="evenodd" d="M43.1423 25.0338C39.3006 29.5858 34.723 32.8785 29.0837 34.3068C22.9722 35.8538 17.2246 34.7773 11.8296 31.4189C8.86425 29.5729 6.33 27.1868 4.19921 24.31C3.93547 23.9542 3.93248 23.6696 4.19697 23.3193C8.09098 18.1678 12.9488 14.629 19.0475 13.1614C19.4936 13.054 19.9493 12.9915 20.5612 12.8777C19.7693 14.3974 19.0834 15.8057 18.3176 17.1619C17.3583 18.8596 16.588 20.6246 16.2922 22.5971C15.7169 26.4333 17.8058 30.2254 21.2575 31.6193C25.9002 33.4933 30.9313 30.3272 31.7061 25.0442C31.8951 23.7554 31.783 22.4954 31.4349 21.2482C30.9881 19.6451 30.2671 18.1879 29.458 16.7643C28.7863 15.5829 28.2021 14.3453 27.499 12.9779C28.1759 13.1238 28.7116 13.2111 29.2331 13.357C35.0831 14.9905 39.8191 18.4572 43.6586 23.3915C43.7863 23.555 43.8864 23.7409 44 23.9173C44 23.9509 44 23.9854 44 24.0199C43.7139 24.3581 43.4277 24.6956 43.1423 25.0338ZM17.7177 31.1383C14.4871 27.8064 13.7878 23.2528 15.8416 19.0079C16.2272 18.2111 16.5776 17.3936 16.9862 16.4934C13.031 18.046 9.79292 20.5292 7.04201 23.7698C9.03459 26.7251 15.1431 30.9885 17.9373 31.3283C17.8865 31.2409 17.7857 31.2081 17.7177 31.1383ZM31.1943 16.883C31.5417 17.6468 31.8914 18.4091 32.2358 19.1738C33.9534 22.9891 33.6471 26.6032 31.2735 30.001C30.9851 30.4146 30.6325 30.7769 30.2208 31.2674C34.4144 29.7244 37.8422 27.202 40.812 23.8676C38.0738 20.7616 34.9576 18.3538 31.1943 16.883ZM29.6806 25.3248C29.3661 26.8116 28.7168 28.0821 27.2689 28.7345C26.6092 29.0319 25.9936 29.4014 25.2711 29.5489C23.8493 29.8415 22.5187 29.5962 21.2194 28.967C18.8772 27.8328 18.1465 25.3504 18.4648 22.9594C18.7629 20.7183 19.6572 18.7225 20.5007 16.6938C21.531 14.2139 22.7159 11.8012 23.4504 9.189C23.5833 8.7177 23.6528 8.22555 23.7537 7.74303C23.806 7.49615 23.8635 7.25168 23.9188 7.00561C23.9748 7.00401 24.0301 7.0024 24.0854 7C24.193 7.54024 24.2595 8.0949 24.4156 8.61751C24.7638 9.78695 24.9947 11.043 25.564 12.0818C27.0007 14.7052 28.0601 17.5042 29.1165 20.3007C29.715 21.8862 30.0437 23.6047 29.6806 25.3248Z" fill="url(#paint0_linear_4447_3980)"/>
</g>
</g>
<defs>
<filter id="filter0_d_4447_3980" x="1.879" y="6.379" width="44.242" height="32.242" filterUnits="userSpaceOnUse" color-interpolation-filters="sRGB">
<feFlood flood-opacity="0" result="BackgroundImageFix"/>
<feColorMatrix in="SourceAlpha" type="matrix" values="0 0 0 0 0 0 0 0 0 0 0 0 0 0 0 0 0 0 127 0" result="hardAlpha"/>
<feOffset dy="1.5"/>
<feGaussianBlur stdDeviation="1.0605"/>
<feColorMatrix type="matrix" values="0 0 0 0 0 0 0 0 0 0 0 0 0 0 0 0 0 0 0.3 0"/>
<feBlend mode="normal" in2="BackgroundImageFix" result="effect1_dropShadow_4447_3980"/>
<feBlend mode="normal" in="SourceGraphic" in2="effect1_dropShadow_4447_3980" result="shape"/>
</filter>
<linearGradient id="paint0_linear_4447_3980" x1="3.90967" y1="35.8156" x2="3.93967" y2="6.99994" gradientUnits="userSpaceOnUse">
<stop offset="0.496356" stop-color="#C6B073"/>
<stop offset="1" stop-color="#E0D1A9"/>
</linearGradient>
</defs>
</svg>
