<svg width="48" height="48" viewBox="0 0 48 48" fill="none" xmlns="http://www.w3.org/2000/svg">
<g id="Subclasses">
<g id="Vector" filter="url(#filter0_d_4447_3962)">
<path fill-rule="evenodd" clip-rule="evenodd" d="M43.826 24.3604C41.8147 26.9719 39.4451 29.1624 36.7335 30.9343C31.815 34.1495 26.4866 35.6258 20.7044 34.7524C13.8544 33.7183 8.47457 30.0021 4.17499 24.4215C3.93161 24.1055 3.94654 23.8374 4.19216 23.5442C4.79242 22.8237 5.35385 22.0648 5.98844 21.3795C9.71464 17.3536 14.1135 14.5633 19.4023 13.4571C20.3863 13.2509 21.3905 13.1497 22.3857 13C23.3137 13 24.2424 13 25.1712 13C25.2772 13.0282 25.3824 13.0729 25.49 13.0823C29.8022 13.4304 33.7143 14.9773 37.2852 17.4932C39.8602 19.3082 42.1895 21.4156 44 24.0969C44 24.1306 44 24.1643 44 24.1981C43.9418 24.2514 43.8746 24.2976 43.826 24.3604ZM7.09563 23.9495C9.55786 27.1044 14.0314 30.3416 17.9226 31.4227C13.6349 27.3725 13.6454 20.5163 17.9957 16.4873C13.6133 17.9346 10.0894 20.5132 7.09563 23.9495ZM24.0378 15.8264C19.7569 15.8193 16.2607 19.4548 16.2375 23.9378C16.2151 28.4576 19.6845 32.148 23.9751 32.1668C28.2777 32.1856 31.7866 28.536 31.7993 24.0295C31.812 19.5128 28.3314 15.8342 24.0378 15.8264ZM30.4749 16.8103C34.331 21.6273 34.3355 26.3823 30.4443 31.2189C34.4997 29.7261 37.8571 27.2714 40.8009 24.0483C37.8705 20.8017 34.5176 18.3101 30.4749 16.8103ZM29.641 29.0166C28.9675 30.2593 27.4363 30.8402 26.1335 30.4239C24.983 30.0562 24.3865 28.8143 24.8053 27.6587C25.1264 26.7743 25.9805 26.4333 26.7651 26.8778C27.3363 27.2 27.4632 27.6297 27.2116 28.6418C27.5102 28.4388 27.7648 28.3298 27.9343 28.1377C28.4016 27.6093 28.4726 26.3988 28.1112 25.7528C27.7409 25.0926 26.8577 24.6771 26.1186 24.8707C25.6087 25.004 25.086 25.1546 24.6299 25.4149C24.388 25.5513 24.226 25.9174 24.1133 26.2161C23.4413 27.9966 21.716 29.0762 19.9645 28.7171C18.3026 28.3761 16.3712 26.7226 16.8475 24.4819C16.9774 23.8727 17.3007 23.2447 17.6971 22.7774C18.5206 21.8053 19.9316 21.908 20.6939 22.8935C21.2456 23.6053 21.1321 24.5015 20.4274 25.0009C19.8055 25.4415 19.2926 25.2925 18.761 24.5179C18.5333 24.9813 18.6169 25.5685 19.0395 26.0005C19.6226 26.5964 20.2937 27.044 21.1508 26.721C21.9213 26.4301 22.3565 25.8116 22.479 24.9586C22.5342 24.5767 22.6432 24.191 22.6193 23.8147C22.6029 23.5473 22.4514 23.2518 22.2819 23.0385C21.006 21.4336 21.0732 19.0267 22.4939 17.6962C23.342 16.902 24.341 16.4465 25.5146 16.4975C26.9204 16.5579 28.2202 17.8029 28.3874 19.2713C28.5278 20.5038 27.5617 21.6085 26.3799 21.5677C25.5624 21.5395 24.9875 20.8339 25.0808 19.9738C25.1488 19.3442 25.5273 19.0471 26.1216 19.1474C26.2276 19.1663 26.3373 19.1616 26.4605 19.1686C26.2014 18.6104 25.4997 18.3164 24.8725 18.5202C24.1088 18.7696 23.4249 19.1639 23.2838 20.0836C23.1569 20.9091 23.4533 21.5998 24.0819 22.1236C24.3201 22.3219 24.5313 22.5791 24.7994 22.7077C25.0868 22.8449 25.4355 22.9507 25.7408 22.9154C27.3489 22.728 28.7368 23.1459 29.6335 24.6159C30.5033 26.0405 30.4286 27.5646 29.641 29.0166Z" fill="url(#paint0_linear_4447_3962)"/>
</g>
</g>
<defs>
<filter id="filter0_d_4447_3962" x="1.879" y="12.379" width="44.242" height="26.242" filterUnits="userSpaceOnUse" color-interpolation-filters="sRGB">
<feFlood flood-opacity="0" result="BackgroundImageFix"/>
<feColorMatrix in="SourceAlpha" type="matrix" values="0 0 0 0 0 0 0 0 0 0 0 0 0 0 0 0 0 0 127 0" result="hardAlpha"/>
<feOffset dy="1.5"/>
<feGaussianBlur stdDeviation="1.0605"/>
<feColorMatrix type="matrix" values="0 0 0 0 0 0 0 0 0 0 0 0 0 0 0 0 0 0 0.3 0"/>
<feBlend mode="normal" in2="BackgroundImageFix" result="effect1_dropShadow_4447_3962"/>
<feBlend mode="normal" in="SourceGraphic" in2="effect1_dropShadow_4447_3962" result="shape"/>
</filter>
<linearGradient id="paint0_linear_4447_3962" x1="3.90967" y1="35.6408" x2="3.92819" y2="12.9999" gradientUnits="userSpaceOnUse">
<stop offset="0.496356" stop-color="#C6B073"/>
<stop offset="1" stop-color="#E0D1A9"/>
</linearGradient>
</defs>
</svg>
