<svg width="31" height="28" viewBox="0 0 31 28" fill="none" xmlns="http://www.w3.org/2000/svg">
<path id="Vector" fill-rule="evenodd" clip-rule="evenodd" d="M0.972621 27.3301C1.33898 25.5529 2.21262 23.8172 2.79739 22.0715C3.04821 21.4258 2.98199 20.8858 2.66212 20.2772C-4.1607 7.60721 10.9729 -4.0585 22.6585 1.89007C37.9514 9.6215 29.4475 30.1458 13.4332 27.6029C5.67335 26.0944 10.5826 24.2186 2.06467 27.6515C1.52076 27.8601 1.31362 27.7986 0.972621 27.3301ZM13.3642 14.0601C13.3797 17.3072 18.3214 17.2858 18.3044 14.0344C18.2889 10.7872 13.3473 10.8101 13.3642 14.0601ZM23.263 16.5286C26.518 16.4915 26.549 11.6372 23.2856 11.5658C20.0447 11.5529 20.032 16.5144 23.263 16.5286ZM8.40417 16.5286C11.6366 16.5158 11.6225 11.5544 8.38303 11.5658C5.11958 11.6358 5.14917 16.4886 8.40417 16.5286Z" fill="#938254"/>
</svg>
