<svg width="28" height="29" viewBox="0 0 28 29" fill="none" xmlns="http://www.w3.org/2000/svg">
<path id="Vector" fill-rule="evenodd" clip-rule="evenodd" d="M26.8978 15.5186C26.8507 15.5576 26.8138 15.6078 26.7746 15.6491C27.7266 17.2947 27.5642 18.378 26.1518 19.9142C27.0971 21.5296 26.8888 22.9599 25.5056 24.2061C25.5593 24.2942 25.6075 24.3734 25.6568 24.4526C26.415 25.6676 26.1507 27.3444 25.0721 28.2726C24.6218 28.6608 24.1033 28.8728 23.5421 29C20.1193 29 16.6964 29 13.2747 29C13.184 28.9855 13.0944 28.9632 13.0037 28.9576C12.046 28.8951 11.1007 28.7401 10.1935 28.421C8.89984 27.9647 7.62299 27.4582 6.33495 26.9863C6.13782 26.9149 6.15462 26.7866 6.15462 26.6359C6.15462 22.0473 6.1535 17.4587 6.16134 12.87C6.16134 12.7272 6.22518 12.5543 6.31703 12.4494C7.39899 11.2256 8.50671 10.0262 9.57634 8.79123C10.6572 7.54283 11.7089 6.26764 12.7595 4.99135C12.8648 4.86305 12.9208 4.65219 12.923 4.47927C12.9376 3.40379 12.9208 2.32608 12.9353 1.2506C12.9454 0.490842 13.4741 -0.0268165 14.2133 0.00107457C14.5784 0.0144623 14.9503 0.0512785 15.3042 0.142761C17.6216 0.737399 19.1258 2.63176 19.249 5.08395C19.3005 6.09584 19.2759 7.09322 18.922 8.06606C18.7013 8.67409 18.5635 9.31224 18.3899 9.93811C18.3687 10.0151 18.3552 10.0943 18.3339 10.1958C18.5367 10.1958 18.7103 10.1958 18.8839 10.1958C20.9537 10.1958 23.0247 10.1858 25.0945 10.2014C26.3501 10.2103 27.4499 11.0426 27.8453 12.2319C28.2385 13.4156 27.8677 14.7008 26.8978 15.5186ZM0 13.5952C1.49749 13.5952 2.97595 13.5952 4.4768 13.5952C4.4768 17.9094 4.4768 22.2236 4.4768 26.5545C2.98939 26.5545 1.50533 26.5545 0 26.5545C0 22.2425 0 17.9362 0 13.5952Z" fill="#938254"/>
</svg>
