<svg width="26" height="29" viewBox="0 0 26 29" fill="none" xmlns="http://www.w3.org/2000/svg">
<path id="Vector" fill-rule="evenodd" clip-rule="evenodd" d="M14.012 18.4352C14.0081 17.4025 14.0158 16.3711 14.0234 15.3385C14.0234 15.1115 14.017 15.0169 13.7472 15.0598C11.0312 15.2943 8.09632 15.8252 6.10832 17.7959C4.14323 19.8309 3.83523 22.8129 3.88486 25.4859C3.89505 26.1113 3.90141 26.738 3.98032 27.3621C3.98668 27.7505 4.21959 28.2863 3.76777 28.5057C3.00032 28.8348 2.78523 27.8148 2.51032 27.3319C2.10177 26.4253 1.6945 25.5175 1.32796 24.5933C0.480319 22.2455 -0.274408 19.7578 0.0972283 17.2474C0.321228 14.4105 1.27196 11.4651 3.52596 9.54477C5.75577 7.47695 8.85486 6.71286 11.814 6.22995C12.4783 6.13412 13.1529 6.09503 13.821 6.02695C13.9967 6.01056 14.0247 5.97903 14.0247 5.78738C14.0247 4.83038 14.0247 3.87212 14.0247 2.91386C14.0921 1.92534 13.6467 0.384555 15.067 0.21812C15.4209 0.179033 15.6932 0.307642 15.9312 0.539642C16.9252 1.50799 17.9167 2.4776 18.9107 3.44469C21.0336 5.53773 23.215 7.57656 25.31 9.69608C25.7109 10.0958 25.6905 10.8246 25.2667 11.2041C23.3932 13.0336 21.5185 14.8606 19.6438 16.6876C18.4143 17.8867 17.1785 19.0795 15.9592 20.2899C15.5329 20.7136 14.871 20.6795 14.5007 20.4311C13.7981 19.9999 14.0781 19.1148 14.0247 18.4352C14.0196 18.4352 14.0158 18.4352 14.012 18.4352Z" fill="#938254"/>
</svg>
