<svg width="412" height="232" viewBox="0 0 412 232" fill="none" xmlns="http://www.w3.org/2000/svg">
<path d="M402.981 231L410.665 224.317M402.981 231V214.709L410.665 209.07M402.981 231H386.215M410.665 224.317V209.07M410.665 224.317L392.968 224.526L386.215 231M410.665 209.07V31.1257M380.859 227.658H399.488L407.172 220.557V204.267M380.859 227.658L78.4416 228.055H29.7737M380.859 227.658L377.366 231M377.366 231L67.73 230.77H33.0337M377.366 231H386.215M407.172 204.267L410.665 201.265M407.172 204.267V28.4105M410.665 31.1257L407.172 28.4105M410.665 31.1257V24.0246M407.172 28.4105V12.1199L403.447 8.46496M410.665 8.56939L403.447 8.46496M410.665 8.56939V24.0246M410.665 8.56939L403.447 2.30376M403.447 8.46496L399.721 4.81001H380.626M403.447 8.46496H392.735L385.982 2.30376M410.665 24.0246L403.447 18.1767V2.30376M403.447 2.30376C389.475 2.30376 380.238 2.16453 377.366 2.09491M377.366 2.09491L380.626 4.81001M377.366 2.09491L208.278 2.7817M380.626 4.81001L208.743 5.4968L206.182 7.44373L203.853 5.4968L29.7737 5.43545M208.278 2.7817L206.182 1L204.086 2.7817M208.278 2.7817L206.182 4.68213L204.086 2.7817M204.086 2.7817L32.8009 2.19393M32.8009 2.19393L29.7737 5.43545M32.8009 2.19393H24.8836M29.7737 5.43545L11.6264 5.57666L3.55032 12.4626L3.69321 28.9273M24.8836 2.19393L18.3635 8.45955H0.666016M24.8836 2.19393L7.58834 2.1337M0.666016 8.45955L7.58834 2.1337M0.666016 8.45955V24.3325M7.58834 2.1337L7.65185 18.0669L0.666016 24.3325M0.666016 24.3325V31.6424M0.666016 31.6424L3.69321 28.9273M0.666016 31.6424V201.74M3.69321 28.9273L3.69321 204.246M0.666016 201.74L3.69321 204.246M0.666016 201.74V209.05M3.69321 204.246V221.372L11.6105 228.055H29.7737M0.666016 209.05L7.41899 214.897V230.77M0.666016 209.05V224.505M7.41899 230.77L0.666016 224.505M7.41899 230.77H25.3493M0.666016 224.505H18.3635L25.3493 230.77M25.3493 230.77H33.0337M33.0337 230.77L29.7737 228.055" stroke="#B19F63"/>
</svg>
