<svg>
	<symbol id="music-icon" viewBox="0 0 16 16" fill="none" xmlns="http://www.w3.org/2000/svg">
		<path d="M15.2857 0H9.57137C9.17688 0 8.85707 0.31981 8.85707 0.714294C8.85707 1.10878 9.17688 1.42859 9.57137 1.42859H13.5612L6.20917 8.78067C5.93028 9.05957 5.93028 9.51184 6.20917 9.7908C6.34861 9.93024 6.53141 10 6.71421 10C6.89701 10 7.07985 9.93024 7.21925 9.79077L14.5714 2.43872V6.42859C14.5714 6.82307 14.8912 7.14288 15.2857 7.14288C15.6802 7.14288 16 6.82307 16 6.42859V0.714294C16 0.31981 15.6802 0 15.2857 0Z" fill="currentColor"/>
		<path d="M12.2777 7.33332C11.8789 7.33332 11.5555 7.65669 11.5555 8.05555V14.5556H1.44443V4.44443H7.94443C8.34329 4.44443 8.66666 4.12107 8.66666 3.7222C8.66666 3.32333 8.34329 3 7.94443 3H0.722229C0.323363 3 0 3.32336 0 3.72223V15.2778C0 15.6766 0.323363 16 0.722229 16H12.2778C12.6766 16 13 15.6766 13 15.2778V8.05555C13 7.65669 12.6766 7.33332 12.2777 7.33332Z" fill="currentColor"/>
	</symbol>
</svg>
