<svg width="40" height="40" viewBox="0 0 40 40" fill="none" xmlns="http://www.w3.org/2000/svg">
<g id="download 9" clip-path="url(#clip0_11393_21198)">
<g id="Mask group">
<mask id="mask0_11393_21198" style="mask-type:alpha" maskUnits="userSpaceOnUse" x="0" y="0" width="40" height="40">
<g id="Group">
<path id="Vector" d="M20 40C31.0457 40 40 31.0457 40 20C40 8.95431 31.0457 0 20 0C8.95431 0 0 8.95431 0 20C0 31.0457 8.95431 40 20 40Z" fill="#5C40F4"/>
</g>
</mask>
<g mask="url(#mask0_11393_21198)">
<g id="Group_2">
<path id="Vector_2" fill-rule="evenodd" clip-rule="evenodd" d="M2.8117 2.81177C0.0840405 5.53945 0.0024392 9.87982 0 18.3998C7.63519 18.3998 12.4023 15.1218 16.5837 12.2465C19.8505 10.0003 22.7597 7.99977 26.4 7.99977C31.8182 7.99977 36.549 11.8308 39.0575 13.8621C39.4113 14.1485 39.7208 14.3992 39.9819 14.5983C39.9028 8.52378 39.4766 5.10021 37.1882 2.81177C34.3764 1.46719e-06 29.851 9.31137e-07 20.7999 1.39876e-07L19.1999 0C10.149 2.2605e-06 5.62347 1.95626e-06 2.8117 2.81177ZM18.024 39.9998C18.4073 40.0001 18.7992 40.0001 19.2 40.0001H20.7999C21.2006 40.0001 21.5926 40.0001 21.9759 39.9998H18.024Z" fill="#0077FF"/>
<path id="Vector_3" fill-rule="evenodd" clip-rule="evenodd" d="M7.64022e-05 18.3998C7.63528 18.3997 12.4024 15.1218 16.5838 12.2465C19.8505 10.0003 22.7598 7.99976 26.4 7.99976C31.8183 7.99976 36.549 11.8307 39.0575 13.8621C39.4113 14.1485 39.7209 14.3992 39.9819 14.5983C40 15.9875 40 17.5154 40 19.2V20.8C40 29.851 40 34.3764 37.1883 37.1882C34.5009 39.8756 30.2483 39.9945 21.9757 39.9998H18.0243C9.75172 39.9945 5.49908 39.8756 2.81177 37.1882C-9.78128e-07 34.3764 -7.99148e-07 29.851 8.52915e-10 20.8L4.06165e-07 19.2C4.06165e-07 18.9293 4.02088e-07 18.6625 7.64022e-05 18.3998Z" fill="#F45FFF"/>
<path id="Vector_4" d="M31.0002 20.39C31.0002 19.4014 31.8117 18.6001 32.8002 18.6001C33.7889 18.6001 34.6002 19.4014 34.6002 20.39V27.61C34.6002 28.5987 33.7889 29.4001 32.8002 29.4001C31.8117 29.4001 31.0002 28.5987 31.0002 27.61V20.39Z" fill="white"/>
<path id="Vector_5" d="M24.6003 15.7901C24.6003 14.8016 25.4117 14.0001 26.4003 14.0001C27.3889 14.0001 28.2003 14.8016 28.2003 15.7901V32.2102C28.2003 33.1987 27.3889 34.0001 26.4003 34.0001C25.4117 34.0001 24.6003 33.1987 24.6003 32.2102V15.7901Z" fill="white"/>
<path id="Vector_6" d="M18.2002 20.39C18.2002 19.4014 19.0116 18.6001 20.0002 18.6001C20.9888 18.6001 21.8002 19.4014 21.8002 20.39V27.61C21.8002 28.5987 20.9888 29.4001 20.0002 29.4001C19.0116 29.4001 18.2002 28.5987 18.2002 27.61V20.39Z" fill="white"/>
<path id="Vector_7" d="M11.7996 22.99C11.7996 22.0014 12.611 21.2 13.5996 21.2C14.5882 21.2 15.3996 22.0014 15.3996 22.99V25.01C15.3996 25.9986 14.5882 26.8 13.5996 26.8C12.611 26.8 11.7996 25.9986 11.7996 25.01V22.99Z" fill="white"/>
<path id="Vector_8" d="M5.39941 22.99C5.39941 22.0014 6.21086 21.2 7.19942 21.2C8.18802 21.2 8.99942 22.0014 8.99942 22.99V25.01C8.99942 25.9986 8.18802 26.8 7.19942 26.8C6.21086 26.8 5.39941 25.9986 5.39941 25.01V22.99Z" fill="white"/>
</g>
</g>
</g>
</g>
<defs>
<clipPath id="clip0_11393_21198">
<rect width="40" height="40" fill="white"/>
</clipPath>
</defs>
</svg>
