<svg width="40" height="40" viewBox="0 0 40 40" fill="none" xmlns="http://www.w3.org/2000/svg">
<g id="download 1" clip-path="url(#clip0_11393_21154)">
<g id="Clip path group">
<mask id="mask0_11393_21154" style="mask-type:luminance" maskUnits="userSpaceOnUse" x="0" y="0" width="40" height="40">
<g id="clip0_3560_9558">
<path id="Vector" d="M40 0H0V40H40V0Z" fill="white"/>
</g>
</mask>
<g mask="url(#mask0_11393_21154)">
<g id="Group">
<path id="Vector_2" d="M40 20C40 8.95431 31.0457 0 20 0C8.95431 0 0 8.95431 0 20C0 31.0457 8.95431 40 20 40C31.0457 40 40 31.0457 40 20Z" fill="white"/>
<path id="Vector_3" fill-rule="evenodd" clip-rule="evenodd" d="M17.9938 29.4768C18.0595 29.7945 18.0924 29.9534 17.993 30.0649C17.8936 30.1765 17.7279 30.1618 17.3964 30.1323C15.5409 29.967 14.5032 29.6269 13.6915 29.2907C12.3414 28.7314 11.2688 27.6588 10.7095 26.3086C10.3733 25.4969 10.0331 24.4591 9.86781 22.6036C9.83825 22.2721 9.8235 22.1064 9.93506 22.007C10.0467 21.9076 10.2055 21.9405 10.5233 22.0062C14.2688 22.7814 17.2186 25.7313 17.9938 29.4768ZM21.5803 30.2006C21.3225 30.2126 21.1936 30.2186 21.1051 30.1452C21.0166 30.0719 20.9976 29.9379 20.9597 29.6699C20.1819 24.1696 15.8304 19.8181 10.3301 19.0403C10.0621 19.0024 9.92813 18.9834 9.85475 18.8949C9.78137 18.8064 9.78737 18.6775 9.79944 18.4197C9.84981 17.3402 9.95187 16.4919 10.0831 15.8002C10.1262 15.5726 10.1479 15.4588 10.2379 15.3898C10.3279 15.3208 10.4444 15.3296 10.6776 15.3471C18.1373 15.9079 24.0922 21.8628 24.6529 29.3225C24.6704 29.5557 24.6792 29.6722 24.6102 29.7622C24.5412 29.8522 24.4274 29.8738 24.1998 29.917C23.5081 30.0482 22.6597 30.1502 21.5803 30.2006ZM28.2673 27.9175C27.9739 28.2385 27.8271 28.399 27.6485 28.3456C27.4699 28.2922 27.4316 28.0548 27.3551 27.5801C26.1213 19.9243 20.0759 13.8788 12.4202 12.6449C11.9454 12.5684 11.708 12.5301 11.6546 12.3515C11.6013 12.1729 11.7618 12.0262 12.0828 11.7327C12.5511 11.3047 13.0942 10.9567 13.6915 10.7093C14.8223 10.241 16.3918 9.76494 20 9.76494C23.6083 9.76494 25.1781 10.241 26.3088 10.7093C27.6589 11.2686 28.7316 12.3413 29.2908 13.6914C29.7591 14.822 30.2351 16.3916 30.2351 20C30.2351 23.6084 29.7591 25.178 29.2908 26.3086C29.0434 26.9061 28.6954 27.4491 28.2673 27.9175ZM6.875 20C6.875 16.0861 7.40013 14.1291 8.03956 12.5854C8.89213 10.5272 10.5274 8.89194 12.5856 8.03944C14.1293 7.4 16.0861 6.875 20 6.875C23.9139 6.875 25.871 7.4 27.4147 8.03944C29.4729 8.89194 31.1082 10.5272 31.9608 12.5854C32.6001 14.1291 33.125 16.0861 33.125 20C33.125 23.9139 32.6001 25.8709 31.9608 27.4146C31.1082 29.4727 29.4729 31.1081 27.4147 31.9606C25.871 32.6 23.9139 33.125 20 33.125C16.0861 33.125 14.1293 32.6 12.5856 31.9606C10.5274 31.1081 8.89213 29.4727 8.03956 27.4146C7.40013 25.8709 6.875 23.9139 6.875 20Z" fill="#08090A"/>
</g>
</g>
</g>
</g>
<defs>
<clipPath id="clip0_11393_21154">
<rect width="40" height="40" fill="white"/>
</clipPath>
</defs>
</svg>
