<svg width="40" height="40" viewBox="0 0 40 40" fill="none" xmlns="http://www.w3.org/2000/svg">
<g id="download 6" clip-path="url(#clip0_11393_21180)">
<g id="Symbols">
<g id="icon/services/apple-music">
<g id="apple">
<path id="Oval-2" d="M20 40C31.0457 40 40 31.0457 40 20C40 8.95431 31.0457 0 20 0C8.95431 0 0 8.95431 0 20C0 31.0457 8.95431 40 20 40Z" fill="#F8F8F8"/>
<g id="Apple_Store_logo">
<g id="Group">
<path id="Shape" d="M19.9541 14.0858C20.3722 14.0858 21.7281 13.8205 22.7799 12.292C23.6796 10.9656 23.5782 9.48756 23.5782 9.48756C23.5782 9.48756 22.0196 9.37386 20.651 11.0666C19.6626 12.3046 19.7387 14.0732 19.7387 14.0732C19.7387 14.0732 19.8147 14.0858 19.9541 14.0858Z" fill="#3C3C3C"/>
<path id="Shape_2" d="M27.7724 23.8002C27.8485 23.5855 27.8992 23.4592 27.8992 23.4592C27.8992 23.4592 27.8992 23.4592 27.8865 23.4592C27.8865 23.4592 27.8738 23.4592 27.8611 23.4465C27.7851 23.4213 27.6077 23.3455 27.3796 23.2065C26.9234 22.9412 26.2898 22.4486 25.8337 21.6527C25.5422 21.1474 25.3395 20.5158 25.2888 19.7326C25.2634 19.341 25.3014 18.962 25.3775 18.6209V18.6083C25.4028 18.4946 25.4282 18.3935 25.4662 18.2798C25.8717 16.9661 26.8221 16.107 27.2022 15.8165C27.3036 15.7407 27.3543 15.7028 27.3543 15.7028C27.3543 15.7028 26.1378 13.8206 23.8442 13.8206C21.8674 13.8206 21.1324 14.7048 20.0807 14.7048C18.7882 14.7048 18.5854 13.8837 16.672 13.8837C15.6836 13.8837 14.3024 14.2627 13.276 15.5891C12.465 16.625 12.1609 17.8503 12.0341 18.7472C11.9581 19.3536 11.9328 20.0105 12.0088 20.7432C12.0088 20.7937 12.0215 20.8442 12.0215 20.9074C12.0975 21.6401 12.2876 22.4233 12.5537 23.2065C12.5537 23.2191 12.5664 23.2444 12.579 23.257C12.6044 23.3455 12.6424 23.4465 12.6804 23.535C12.6931 23.5728 12.7184 23.6234 12.7311 23.6613C12.7438 23.6992 12.7564 23.7497 12.7818 23.7876C13.0352 24.4445 13.3267 25.0761 13.6688 25.6698C14.6572 27.4131 15.937 28.7269 17.1409 28.7269C18.5094 28.7269 18.9402 27.8426 20.3088 27.8553C22.0448 27.8679 22.5263 28.9669 23.9836 28.6764C24.9593 28.4869 26.1251 27.11 26.8727 25.7962C26.8981 25.7456 26.9234 25.7077 26.9488 25.6698C27.3036 24.9119 27.6077 24.2045 27.7724 23.8002Z" fill="#3C3C3C"/>
</g>
</g>
</g>
</g>
</g>
</g>
<defs>
<clipPath id="clip0_11393_21180">
<rect width="40" height="40" fill="white"/>
</clipPath>
</defs>
</svg>
