<svg width="40" height="40" viewBox="0 0 40 40" fill="none" xmlns="http://www.w3.org/2000/svg">
<g id="download 3" clip-path="url(#clip0_11393_21166)">
<path id="Vector" d="M39.6212 15.2465L39.4652 14.4709L32.8692 13.3185L36.702 8.13297L36.2563 7.64543L30.6183 10.349L31.3315 3.16897L30.7522 2.83657L27.3203 8.64265L23.4652 0H22.7967L23.7103 8.35457L14.0167 0.598338L13.1922 0.842105L20.6573 10.2161L5.883 5.2964L5.21448 6.04987L18.4067 13.5623L0.200548 15.0692L0 16.1994L18.9192 18.2603L3.14207 31.313L3.81058 32.2217L22.5962 22.0055L18.8747 40H20.0112L27.2088 23.0692L31.5988 36.3213L32.3788 35.723L30.5738 22.2493L37.415 30.0055L37.8607 29.2963L32.624 19.6787L39.9332 22.3823L40 21.5623L33.4485 16.7313L39.6212 15.2465Z" fill="#FFBC0D"/>
</g>
<defs>
<clipPath id="clip0_11393_21166">
<rect width="40" height="40" fill="white"/>
</clipPath>
</defs>
</svg>
