<svg width="40" height="40" viewBox="0 0 40 40" fill="none" xmlns="http://www.w3.org/2000/svg">
<g id="download 8">
<g id="Page-1">
<g id="spotify">
<g id="Group-3">
<path id="Oval" d="M20.6295 39.1609C31.2503 39.1609 39.8602 30.551 39.8602 19.9301C39.8602 9.30925 31.2503 0.699341 20.6295 0.699341C10.0086 0.699341 1.39868 9.30925 1.39868 19.9301C1.39868 30.551 10.0086 39.1609 20.6295 39.1609Z" fill="#40DD78"/>
</g>
<path id="Spotify" d="M28.1831 27.2075C27.8798 27.7486 27.4286 27.8157 26.9387 27.5134C24.7976 26.1882 22.3534 25.3117 19.712 25.0235C16.9998 24.728 14.3684 25.0858 11.9564 25.9678C11.6977 26.0628 11.1515 26.0572 10.9818 25.3048C10.812 24.5511 11.2384 24.1826 11.4706 24.0999C14.1003 23.1579 16.9593 22.7723 19.9074 23.0933C22.8042 23.4092 25.5337 24.2835 27.8316 25.8181C28.1939 26.0602 28.486 26.666 28.1831 27.2075ZM30.0749 22.8887C29.8745 23.1233 29.5839 23.2699 29.2602 23.2347C29.1705 23.2249 29.092 23.186 29.0127 23.1531C26.3826 21.5895 23.4095 20.5486 20.2006 20.1988C17.0155 19.8523 13.9196 20.2206 11.0513 21.1671C10.9485 21.1929 10.8429 21.2131 10.7318 21.2009C10.4021 21.165 10.1435 20.9522 9.99614 20.6712L9.87146 20.0832C9.90437 19.7887 10.063 19.5477 10.28 19.388C13.4437 18.3119 16.8696 17.8842 20.3966 18.2683C23.9225 18.6523 27.1856 19.8061 30.0639 21.5422C30.2484 21.7428 30.351 22.0198 30.3264 22.3149L30.0749 22.8887ZM9.63472 13.5079C13.2188 12.4443 17.0496 12.0491 20.9833 12.478C24.8813 12.9027 28.518 14.0947 31.7861 15.8798C32.2231 16.1738 32.4978 16.6889 32.44 17.2628C32.3575 18.0762 31.6541 18.6653 30.8707 18.5802C30.7611 18.568 30.6602 18.5316 30.561 18.4952C27.5783 16.8549 24.2534 15.7604 20.6904 15.3722C17.1245 14.9833 13.6501 15.3378 10.4024 16.3026C10.2998 16.3148 10.197 16.3278 10.0897 16.3159C9.30645 16.2304 8.73677 15.5025 8.81921 14.6894C8.87342 14.1541 9.19791 13.7203 9.63472 13.5079Z" fill="white"/>
</g>
</g>
</g>
</svg>
