<svg width="40" height="40" viewBox="0 0 40 40" fill="none" xmlns="http://www.w3.org/2000/svg">
<g id="download 2" clip-path="url(#clip0_11393_21161)">
<g id="icon/services/youtube-music">
<path id="Oval-9" d="M20 40C31.0457 40 40 31.0457 40 20C40 8.95431 31.0457 0 20 0C8.95431 0 0 8.95431 0 20C0 31.0457 8.95431 40 20 40Z" fill="#E83323"/>
<path id="Oval-9-Copy" d="M19.9999 29.7436C25.3812 29.7436 29.7435 25.3813 29.7435 20.0001C29.7435 14.6188 25.3812 10.2565 19.9999 10.2565C14.6187 10.2565 10.2563 14.6188 10.2563 20.0001C10.2563 25.3813 14.6187 29.7436 19.9999 29.7436Z" stroke="white" stroke-width="0.81"/>
<path id="Rectangle-32" fill-rule="evenodd" clip-rule="evenodd" d="M17.4358 16.4103L23.5896 20.5128L17.4358 24.6154V16.4103Z" fill="white"/>
</g>
</g>
<defs>
<clipPath id="clip0_11393_21161">
<rect width="40" height="40" fill="white"/>
</clipPath>
</defs>
</svg>
