<svg width="16" height="13" viewBox="0 0 16 13" fill="none" xmlns="http://www.w3.org/2000/svg">
<path d="M1.44072 2.77367H14.5593C15.3548 2.77367 16 2.15254 16 1.38697C16 0.621126 15.3548 0 14.5593 0H1.44072C0.645193 0 0 0.621126 0 1.38697C0 2.15254 0.645193 2.77367 1.44072 2.77367Z" fill="black"/>
<path d="M14.5593 7.88655H1.44072C0.645193 7.88655 0 7.26599 0 6.49986C0 5.73401 0.645193 5.11317 1.44072 5.11317H14.5593C15.3548 5.11317 16 5.73401 16 6.49986C16 7.26599 15.3548 7.88655 14.5593 7.88655Z" fill="black"/>
<path d="M14.5593 13H5.83687C5.04164 13 4.39674 12.3789 4.39674 11.6133C4.39674 10.8472 5.04164 10.2263 5.83687 10.2263H14.5593C15.3548 10.2263 16 10.8472 16 11.6133C16 12.3789 15.3548 13 14.5593 13Z" fill="black"/>
</svg>
