<svg width="86" height="16" viewBox="0 0 86 16" fill="none" xmlns="http://www.w3.org/2000/svg">
<g id="Group">
<g id="Group_2">
<g id="Vector">
<path d="M25.758 6.98116C25.5991 7.14849 25.443 7.31872 25.2766 7.49717C25.2269 7.42727 25.238 7.38068 25.2385 7.33646C25.2382 6.77041 25.239 6.2041 25.2393 5.63778C25.2393 5.47283 25.266 5.31106 25.2914 5.14877C25.3409 4.8337 25.5316 4.64758 25.8268 4.55412C25.9128 4.52685 26.0001 4.50144 26.0824 4.46517C26.1355 4.4416 26.217 4.42201 26.2032 4.34391C26.1882 4.25892 26.1046 4.28407 26.0477 4.28407C25.1197 4.28248 24.192 4.28248 23.2641 4.28407C23.217 4.28407 23.1456 4.26183 23.131 4.32405C23.1144 4.39474 23.1937 4.38362 23.2339 4.40691C23.554 4.59225 23.7955 4.83 23.8368 5.22793C23.8849 5.69099 23.8775 6.15537 23.891 6.6187C23.9265 7.85274 23.8733 9.08651 23.8569 10.3203C23.8537 10.5567 23.8132 10.7931 23.7818 11.0282C23.7648 11.1529 23.7278 11.2795 23.6088 11.3454C23.4617 11.427 23.3543 11.5752 23.1744 11.6014C23.1398 11.6065 23.1123 11.6314 23.1133 11.6719C23.1149 11.724 23.1538 11.7349 23.1953 11.7381C23.2292 11.7407 23.2633 11.741 23.2972 11.741C24.2024 11.7407 25.1076 11.7407 26.0128 11.7391C26.0527 11.7389 26.1046 11.7606 26.1318 11.7015C26.0509 11.6266 25.9559 11.5776 25.8562 11.5371C25.497 11.3915 25.306 11.1312 25.2658 10.7399C25.2229 10.3211 25.2636 9.90169 25.2324 9.4847C25.2094 9.1744 25.2946 8.93718 25.5186 8.71637C25.799 8.44023 25.8035 8.42461 26.0535 8.72299C26.8352 9.65573 27.6322 10.5744 28.5028 11.4264C28.6088 11.5302 28.7142 11.6346 28.8195 11.7391C29.3625 11.7431 29.7605 11.7516 30.3036 11.7604C30.2261 11.6858 30.1131 11.5886 30.0373 11.5114C29.8124 11.2826 29.7333 11.0534 29.5096 10.8235C28.577 9.86517 27.6558 8.89629 26.7561 7.90675C26.6037 7.73916 26.5926 7.58136 26.749 7.41139C27.3849 6.72011 28.0028 6.01082 28.6821 5.36163C29.1432 4.92108 29.6344 4.5152 30.3232 4.49561C30.3915 4.49376 30.4246 4.45193 30.4214 4.38362C30.4187 4.32299 30.3851 4.29043 30.3254 4.28672C30.2801 4.28407 30.2349 4.28354 30.1897 4.28354C29.3408 4.28354 28.4922 4.28301 27.6436 4.28566C27.5769 4.28593 27.4783 4.247 27.4529 4.34099C27.4312 4.42042 27.523 4.44372 27.5767 4.48211C27.7317 4.59278 27.7597 4.74634 27.6584 4.90493C27.5391 5.09158 27.4002 5.26102 27.246 5.42094C26.7468 5.93774 26.253 6.46012 25.758 6.98116Z" fill="#3A5E78"/>
<path d="M28.5028 11.4264C28.1857 11.1162 27.8785 10.797 27.5781 10.4716C27.886 10.8913 28.2335 11.2459 28.5824 11.6327C28.6462 11.7034 28.7187 11.7383 28.8195 11.7391C28.7142 11.6346 28.6088 11.5302 28.5028 11.4264Z" fill="#3A5E78"/>
<path d="M30.0373 11.5114C30.1131 11.5886 30.2261 11.6858 30.3036 11.7604C30.3504 11.7612 30.3972 11.762 30.444 11.7627L30.5227 11.764C30.5915 11.7653 30.6484 11.7571 30.6629 11.6766C30.6793 11.5869 30.6097 11.5739 30.5508 11.5583C30.0995 11.4388 29.837 11.1517 29.5096 10.8235C29.7333 11.0534 29.8124 11.2826 30.0373 11.5114Z" fill="#3A5E78"/>
</g>
<path id="Vector_2" d="M18.1619 4.04456C18.7886 4.02735 19.3888 4.14437 19.9602 4.40198C21.1997 4.96115 21.9359 5.92328 22.2129 7.24495C22.2457 7.40195 22.2928 7.52719 22.4316 7.62356C22.5888 7.73264 22.7263 7.87004 22.8763 7.99024C22.9745 8.06914 22.9594 8.13004 22.8557 8.17902C22.6755 8.26401 22.5137 8.37706 22.3507 8.48984C22.275 8.542 22.2367 8.60766 22.2184 8.69608C21.8547 10.4692 20.6067 11.659 18.7809 11.8991C17.2752 12.0969 15.9703 11.6627 14.9627 10.484C14.5313 9.97936 14.2668 9.38631 14.152 8.73262C14.1226 8.5645 14.0478 8.45992 13.9038 8.37944C13.7763 8.30795 13.6634 8.21079 13.5399 8.13136C13.4571 8.07814 13.4608 8.02466 13.5081 7.94841C13.5671 7.8531 13.6483 7.78823 13.7428 7.73343C13.9747 7.59867 14.116 7.42869 14.1776 7.13667C14.5263 5.4859 15.8672 4.28311 17.5363 4.07713C17.7448 4.05197 17.953 4.04324 18.1619 4.04456ZM18.1998 11.2727C18.3429 11.251 18.4799 11.2634 18.6127 11.228C18.9645 11.134 19.2565 10.9375 19.533 10.7061C20.1797 10.1639 20.586 9.4893 20.7133 8.6487C20.7329 8.52029 20.689 8.46919 20.5816 8.41915C20.4033 8.33654 20.2313 8.23858 20.0604 8.14089C19.9522 8.0792 19.9514 8.02095 20.0625 7.94285C20.2662 7.79988 20.4937 7.69372 20.6831 7.52904C20.744 7.47635 20.7829 7.42658 20.7702 7.34238C20.6712 6.69002 20.4112 6.09961 19.9443 5.6445C19.3589 5.07394 18.6341 4.79356 17.7998 4.84492C17.353 4.87246 16.9501 5.00616 16.6541 5.35379C16.1989 5.88833 15.9415 6.51607 15.841 7.20974C15.8283 7.29711 15.8584 7.3588 15.9296 7.4136C16.0957 7.54095 16.2544 7.6781 16.4454 7.76864C16.534 7.81074 16.5385 7.86793 16.4936 7.94656C16.4385 8.04267 16.3597 8.11283 16.2732 8.17822C16.1558 8.26665 16.0415 8.35905 15.9259 8.44986C15.8277 8.52691 15.8013 8.61931 15.8172 8.74798C15.8793 9.25076 16.1277 9.6794 16.3497 10.117C16.7335 10.8742 17.4123 11.165 18.1998 11.2727Z" fill="#3A5E78"/>
<path id="Vector_3" d="M43.8323 9.28118C43.8752 9.22611 43.8551 9.16151 43.8546 9.10247C43.8501 8.28172 43.8405 7.46097 43.8379 6.64023C43.8366 6.17611 43.8485 5.71145 43.8432 5.24813C43.8379 4.77448 43.6824 4.60266 43.294 4.50602C43.2438 4.49357 43.1959 4.47901 43.1562 4.44486C43.1298 4.42209 43.1086 4.39561 43.1139 4.35775C43.121 4.30877 43.1594 4.29527 43.1996 4.2905C43.2443 4.28521 43.2898 4.28415 43.335 4.28388C44.1553 4.28362 44.9756 4.28362 45.7959 4.28388C45.8356 4.28388 45.875 4.2852 45.9144 4.28812C45.9586 4.29129 45.9893 4.31301 45.997 4.35881C46.0052 4.40806 45.9925 4.44962 45.9433 4.4708C45.9176 4.48192 45.8901 4.49304 45.8626 4.49595C45.4576 4.53805 45.2716 4.81393 45.164 5.16314C45.0886 5.40804 45.0759 5.66459 45.0727 5.91876C45.0666 6.42815 45.0822 6.93755 45.087 7.44694C45.0978 8.60181 45.0947 9.75722 45.0862 10.9121C45.0833 11.3214 45.1444 11.7244 45.1608 12.1313C45.1632 12.1882 45.1962 12.2727 45.1246 12.2981C45.0701 12.3174 45.0373 12.239 44.9949 12.2041C44.413 11.7244 44.0239 11.0725 43.5086 10.5324C42.9189 9.91448 42.356 9.27112 41.7725 8.64709C41.1117 7.94019 40.4477 7.23646 39.8078 6.51023C39.7758 6.4737 39.7512 6.42498 39.6867 6.41306C39.6473 6.5653 39.6917 6.71542 39.6917 6.865C39.6907 7.99737 39.6922 9.12974 39.6933 10.2624C39.6933 10.3813 39.693 10.5001 39.6967 10.619C39.7134 11.1509 40.0054 11.4908 40.5303 11.5915C40.584 11.6018 40.6588 11.5952 40.662 11.669C40.6657 11.7487 40.5885 11.7418 40.5356 11.7477C40.4459 11.7577 40.3544 11.7715 40.2652 11.7643C39.4515 11.6992 38.6368 11.7538 37.8228 11.7373C37.8001 11.7368 37.7773 11.7392 37.7551 11.736C37.6919 11.7275 37.5946 11.7598 37.5832 11.673C37.57 11.5719 37.6744 11.6031 37.7334 11.5854C38.1604 11.4559 38.4963 11.215 38.5334 10.735C38.5878 10.0278 38.5537 9.32037 38.5598 8.6132C38.5701 7.44694 38.5688 6.28042 38.5601 5.1139C38.5569 4.68393 38.5315 4.25397 38.5392 3.82374C38.5402 3.76973 38.5127 3.69321 38.5669 3.66673C38.627 3.63761 38.6603 3.71439 38.6979 3.75093C39.3351 4.37099 39.9216 5.03897 40.5229 5.69292C41.2659 6.5007 42.0002 7.31668 42.7396 8.12816C43.0636 8.48373 43.3901 8.83692 43.7162 9.19037C43.7493 9.22479 43.7683 9.27959 43.8323 9.28118Z" fill="#3A5E78"/>
<path id="Vector_4" d="M10.9354 8.54622C11.1328 8.76438 11.3269 8.98281 11.5253 9.197C12.0099 9.72016 12.4927 10.2449 12.9834 10.762C13.3223 11.1191 13.705 11.4154 14.1933 11.5459C14.2523 11.5615 14.3219 11.5745 14.3055 11.6643C14.291 11.7448 14.2341 11.753 14.1653 11.7516C13.5492 11.7416 12.9329 11.7313 12.3168 11.7268C12.216 11.726 12.1435 11.691 12.0798 11.6203C11.7309 11.2335 11.3886 10.8403 11.0807 10.4207C10.6119 9.78185 10.0162 9.26425 9.47763 8.6921C9.41229 8.62274 9.33214 8.61692 9.24485 8.61586C9.15279 8.6148 9.1073 8.64895 9.11073 8.74453C9.13851 9.52847 9.03825 10.3169 9.23189 11.0958C9.29008 11.3301 9.3996 11.4519 9.61863 11.5022C9.70142 11.521 9.78369 11.5414 9.86622 11.5615C9.91516 11.5735 9.94823 11.6013 9.94479 11.6561C9.94135 11.7111 9.90458 11.7344 9.85405 11.7376C9.80882 11.7405 9.76359 11.7405 9.71835 11.7405C8.83007 11.7408 7.94179 11.741 7.05351 11.7413C7.00828 11.7413 6.96305 11.7408 6.91781 11.7379C6.86596 11.7344 6.83263 11.7074 6.83052 11.6532C6.82893 11.6076 6.85485 11.5796 6.89718 11.5666C6.91887 11.56 6.94135 11.5565 6.96304 11.5507C7.51538 11.4077 7.72382 11.1599 7.76456 10.5883C7.77541 10.4361 7.77752 10.2828 7.77752 10.13C7.77832 8.67463 7.77832 7.21926 7.77646 5.76388C7.7762 5.57167 7.77223 5.37999 7.74049 5.18857C7.67991 4.82558 7.46538 4.61775 7.11806 4.53224C7.0469 4.51476 6.97389 4.50391 6.903 4.48537C6.84533 4.47028 6.82205 4.42739 6.82946 4.36861C6.83634 4.31381 6.8739 4.29183 6.92337 4.28918C6.98553 4.28574 7.04769 4.28522 7.10986 4.28575C7.91217 4.29051 8.715 4.29581 9.51599 4.23968C10.1458 4.19546 10.7709 4.2095 11.388 4.35141C11.7946 4.44486 12.179 4.5918 12.4951 4.87748C13.0474 5.37681 13.1993 6.24363 12.8625 6.99342C12.517 7.76228 11.9094 8.22507 11.1201 8.47129C11.0624 8.48983 10.9976 8.48956 10.9354 8.54622ZM9.10888 6.8396C9.10888 7.0657 9.11285 7.29206 9.1073 7.51817C9.10412 7.64075 9.14883 7.6855 9.27421 7.68974C9.79136 7.70721 10.2789 7.61136 10.7553 7.39903C11.2209 7.19172 11.4801 6.69875 11.4523 6.19835C11.423 5.67202 10.9995 5.02892 10.4228 5.00271C10.1662 4.99106 9.91622 5.01251 9.66439 5.04137C9.39272 5.07261 9.20993 5.25131 9.17554 5.51978C9.1192 5.95769 9.09698 6.39798 9.10888 6.8396Z" fill="#3A5E78"/>
<path id="Vector_5" d="M3.98255 7.81011C4.37908 7.82891 4.75074 7.92793 5.11049 8.08731C6.38657 8.6523 6.3461 10.3505 5.47871 11.0518C4.92744 11.4977 4.27856 11.6851 3.59211 11.7288C2.44592 11.8019 1.29734 11.6983 0.149828 11.7301C0.0836965 11.732 0.00671948 11.7333 0.000370845 11.6343C-0.00571326 11.54 0.064122 11.5265 0.132105 11.5117C0.165171 11.5045 0.198501 11.4977 0.231567 11.4905C0.650841 11.4 0.8495 11.1932 0.907696 10.7725C0.930181 10.6105 0.944995 10.4458 0.945524 10.2824C0.948434 8.75953 0.948434 7.23665 0.945524 5.71376C0.94526 5.54458 0.927272 5.37487 0.905845 5.20675C0.854262 4.80009 0.610898 4.57742 0.219134 4.49058C0.141099 4.47337 -0.0139132 4.50832 0.0114813 4.35741C0.0321144 4.23615 0.160938 4.28725 0.242412 4.28699C1.23783 4.28381 2.23324 4.28063 3.22865 4.28725C3.63179 4.2899 4.02831 4.35344 4.4087 4.49429C5.7443 4.98938 5.76572 6.34785 5.01447 7.18025C4.75788 7.4646 4.43992 7.65311 4.07461 7.76404C4.04366 7.77331 4.00662 7.7696 3.98255 7.81011ZM3.02893 8.33433C2.81625 8.33433 2.64643 8.34068 2.47713 8.33248C2.33878 8.32559 2.28852 8.37484 2.28958 8.51728C2.29382 9.20723 2.29143 9.89746 2.28535 10.5877C2.28429 10.7103 2.33614 10.7555 2.44698 10.7807C2.68796 10.8352 2.93106 10.8215 3.1731 10.8148C3.98149 10.7931 4.63011 10.0727 4.53779 9.27263C4.49388 8.8927 4.15661 8.45215 3.76881 8.37034C3.52862 8.31951 3.27309 8.32586 3.02893 8.33433ZM2.32053 6.26552C2.31762 6.26552 2.31471 6.26552 2.31154 6.26552C2.31154 6.58164 2.31471 6.89802 2.30995 7.21414C2.3081 7.34387 2.35704 7.4098 2.48877 7.39365C2.5967 7.38041 2.70224 7.39285 2.80911 7.40186C3.11279 7.42727 3.3834 7.33567 3.60031 7.12545C3.98943 6.74817 4.04445 6.25969 3.93229 5.77466C3.81881 5.28406 3.66221 5.2229 3.27124 5.16968C3.012 5.13447 2.75277 5.15115 2.4938 5.13712C2.36206 5.12997 2.31524 5.18425 2.31815 5.31663C2.32529 5.63275 2.32053 5.94913 2.32053 6.26552Z" fill="#3A5E78"/>
<path id="Vector_6" d="M83.8151 9.22897C83.8151 9.17919 83.8151 9.12968 83.8151 9.07991C83.8156 7.772 83.8162 6.4641 83.8162 5.1562C83.8162 4.78554 83.7061 4.63807 83.349 4.53244C83.2617 4.50676 83.1758 4.48107 83.1033 4.42256C83.0734 4.39847 83.0231 4.38364 83.0345 4.33651C83.0483 4.2788 83.1046 4.28965 83.148 4.28938C83.5271 4.287 83.9059 4.28833 84.2849 4.2833C84.4529 4.28118 84.6211 4.30448 84.7878 4.23988C84.8891 4.20043 84.9878 4.29309 85.0997 4.28779C85.3481 4.27588 85.5972 4.2825 85.8462 4.28383C85.9128 4.28409 85.9922 4.27535 85.9988 4.37411C86.0051 4.46677 85.9313 4.48636 85.8641 4.49537C85.256 4.57532 85.029 4.81122 85.0264 5.56763C85.0198 7.57767 85.0235 9.58745 85.0195 11.5975C85.0192 11.6894 85.0745 11.8212 84.9362 11.8604C84.8034 11.898 84.6796 11.8879 84.573 11.7587C83.349 10.2798 82.0097 8.90543 80.7051 7.49957C80.4205 7.19272 80.144 6.87818 79.8649 6.56603C79.8239 6.52023 79.7893 6.46861 79.7509 6.4183C79.6684 6.49058 79.6957 6.55677 79.6954 6.61343C79.6941 7.24752 79.6964 7.88162 79.6964 8.51571C79.6964 9.25147 79.7229 9.98671 79.765 10.7211C79.7914 11.1834 79.9131 11.3325 80.3607 11.4603C80.4123 11.4752 80.4591 11.4958 80.4728 11.5517C80.4879 11.6128 80.4406 11.6406 80.4003 11.6735C80.3443 11.7195 80.2808 11.7325 80.2107 11.7325C79.3962 11.7325 78.5815 11.7341 77.767 11.7328C77.6935 11.7328 77.5927 11.7561 77.5802 11.6399C77.567 11.5165 77.6723 11.5173 77.7522 11.4982C77.84 11.4773 77.9297 11.4633 78.0172 11.4405C78.2635 11.3762 78.4177 11.2162 78.4865 10.9735C78.5407 10.7818 78.5592 10.5856 78.5592 10.386C78.5598 8.2401 78.5616 6.09424 78.5656 3.94838C78.5659 3.86763 78.523 3.7506 78.6069 3.71327C78.7047 3.66959 78.7579 3.78873 78.8164 3.84936C79.7039 4.77019 80.5546 5.7249 81.4193 6.66664C82.0774 7.38361 82.7314 8.10428 83.3871 8.82336C83.5159 8.96474 83.6456 9.10532 83.7749 9.24617C83.7884 9.24035 83.8016 9.23479 83.8151 9.22897Z" fill="#3A5E78"/>
<path id="Vector_7" d="M73.2032 11.9095C72.5977 11.9357 72.0117 11.861 71.4676 11.5862C70.577 11.1361 70.131 10.3988 70.0976 9.40671C70.09 9.17478 70.0931 8.94233 70.0966 8.71013C70.0979 8.62117 70.0651 8.56637 69.9897 8.5166C69.7916 8.38581 69.6027 8.24125 69.4051 8.10966C69.3064 8.044 69.3083 7.99317 69.3911 7.91454C69.5678 7.74669 69.7532 7.58915 69.9476 7.44274C70.0511 7.3649 70.1016 7.2778 70.0979 7.14277C70.0818 6.54865 70.1151 5.95401 70.0714 5.3599C70.0328 4.83753 69.8379 4.60931 69.3255 4.49837C69.2384 4.47958 69.0845 4.50896 69.102 4.3554C69.1189 4.20767 69.2609 4.25956 69.3519 4.2593C70.2339 4.25533 71.1161 4.25691 71.998 4.25718C72.0377 4.25718 72.0773 4.25744 72.1168 4.25956C72.1768 4.263 72.2305 4.27836 72.2411 4.34958C72.2509 4.41709 72.2173 4.45575 72.1549 4.4756C72.0131 4.52088 71.8924 4.60745 71.7631 4.67682C71.5941 4.76737 71.5023 4.9114 71.4785 5.09514C71.3872 5.79913 71.3856 6.50761 71.4139 7.21425C71.4216 7.40514 71.6239 7.52667 71.7776 7.63257C71.926 7.73477 72.0498 7.86873 72.2141 7.95081C72.3167 8.00217 72.2633 8.06518 72.2027 8.12211C72.0173 8.29632 71.8385 8.47741 71.6491 8.64712C71.5425 8.74244 71.4959 8.84648 71.5113 8.98998C71.5488 9.34449 71.5652 9.70165 71.6144 10.0543C71.6605 10.3845 71.8747 10.6249 72.107 10.8457C72.4543 11.1758 72.8871 11.228 73.3375 11.2147C73.8679 11.1994 74.33 11.0339 74.6925 10.6233C74.867 10.4252 74.9207 10.1835 74.9811 9.94444C75.0927 9.50176 75.1022 9.04876 75.0924 8.5947C75.0906 8.51183 75.0591 8.45994 74.9908 8.41467C74.7655 8.26455 74.5448 8.10728 74.3197 7.95663C74.2182 7.88859 74.2203 7.83802 74.324 7.77316C74.5208 7.65058 74.7136 7.52137 74.907 7.39376C74.9747 7.34901 75.031 7.2958 75.0287 7.2034C75.012 6.54786 75.072 5.88967 74.9609 5.23731C74.9408 5.11949 74.9065 5.00723 74.8594 4.89683C74.779 4.70806 74.6406 4.60322 74.4409 4.56456C74.3308 4.54338 74.2134 4.54232 74.1155 4.47719C74.0748 4.45019 74.0179 4.42609 74.0245 4.36573C74.0314 4.30245 74.0909 4.29345 74.1404 4.28604C74.224 4.27333 74.3084 4.25797 74.3922 4.25877C74.7938 4.263 75.1951 4.26247 75.5966 4.27571C76.0368 4.29027 76.4785 4.26539 76.9195 4.25824C76.9761 4.25718 77.0335 4.25162 77.0891 4.25877C77.1756 4.26989 77.3076 4.21085 77.324 4.35276C77.3406 4.49731 77.1983 4.47534 77.1155 4.49519C76.5328 4.63419 76.3513 4.86188 76.3362 5.52854C76.3248 6.02655 76.3315 6.52509 76.3346 7.02363C76.336 7.22511 76.4584 7.3551 76.6158 7.45942C76.7856 7.57194 76.9563 7.68288 77.1129 7.81446C77.2039 7.89098 77.1999 7.94737 77.0941 8.0035C76.8822 8.11628 76.7124 8.28811 76.5349 8.44247C76.418 8.54413 76.3278 8.70087 76.3307 8.887C76.3357 9.20894 76.3484 9.53194 76.2801 9.85124C76.0505 10.9248 75.3215 11.6201 74.1959 11.8433C73.8663 11.9081 73.5344 11.9206 73.2032 11.9095Z" fill="#3A5E78"/>
<path id="Vector_8" d="M31.0587 11.7124C31.2277 11.6436 31.374 11.5745 31.5145 11.4911C31.8298 11.3036 31.9562 11.019 31.9763 10.6716C31.9861 10.5022 31.989 10.3322 31.989 10.1622C31.9901 8.72991 31.9904 7.29731 31.9888 5.86497C31.9885 5.65025 31.9898 5.43526 31.9605 5.22108C31.9049 4.81388 31.6663 4.59069 31.2751 4.50279C31.188 4.4832 31.0317 4.51603 31.0436 4.36697C31.0566 4.20653 31.206 4.28516 31.2904 4.28463C32.5009 4.2796 33.7116 4.29098 34.9221 4.27748C35.362 4.27245 35.8043 4.27113 36.2426 4.21421C36.4413 4.18826 36.4574 4.19858 36.4357 4.40351C36.3945 4.7935 36.405 5.18375 36.4124 5.57426C36.414 5.65899 36.4259 5.74345 36.4283 5.82843C36.4299 5.88933 36.4389 5.96187 36.3558 5.97934C36.282 5.99497 36.263 5.93169 36.2384 5.88112C36.1738 5.74901 36.1164 5.61265 36.0429 5.48583C35.9167 5.26741 35.7432 5.15092 35.4689 5.13794C34.8515 5.10909 34.238 5.14245 33.6238 5.18507C33.4646 5.19619 33.3749 5.27218 33.3659 5.43871C33.332 6.0556 33.3442 6.67248 33.355 7.28936C33.3566 7.37382 33.3945 7.41486 33.4791 7.41327C33.9989 7.404 34.5205 7.44716 35.0382 7.37276C35.2967 7.33543 35.5022 7.22397 35.5485 6.93274C35.5588 6.86761 35.5821 6.80592 35.6638 6.81386C35.7527 6.82233 35.7416 6.89196 35.7413 6.9555C35.7397 7.49322 35.7395 8.03122 35.739 8.56894C35.739 8.6293 35.7609 8.70211 35.6678 8.7135C35.5977 8.72197 35.5646 8.67564 35.5511 8.61527C35.4879 8.33119 35.2752 8.22872 35.021 8.18875C34.5153 8.10932 34.0052 8.1485 33.4968 8.14241C33.3807 8.14109 33.3778 8.2229 33.3789 8.3063C33.3831 8.64016 33.377 8.97481 33.3945 9.30814C33.4122 9.64782 33.414 9.98618 33.3934 10.3259C33.3749 10.6343 33.5288 10.8226 33.8418 10.8506C34.3721 10.898 34.9036 10.894 35.4332 10.8284C35.5734 10.8112 35.7157 10.7802 35.8548 10.7892C36.1823 10.8106 36.4193 10.6682 36.6103 10.4201C36.669 10.3439 36.7293 10.2689 36.7899 10.1943C36.8225 10.154 36.8568 10.1114 36.9169 10.1482C36.9783 10.1858 36.9521 10.2337 36.9309 10.2814C36.7759 10.6285 36.6608 10.9896 36.5603 11.3555C36.5304 11.4646 36.5018 11.5745 36.482 11.6857C36.4646 11.7849 36.4127 11.8162 36.3167 11.8067C34.8263 11.66 33.3323 11.7627 31.8401 11.7452C31.6481 11.7431 31.456 11.7603 31.264 11.7643C31.2039 11.7651 31.1391 11.781 31.0587 11.7124Z" fill="#3A5E78"/>
<path id="Vector_9" d="M65.245 11.9425C64.9614 11.9626 64.6705 11.9449 64.3938 11.8639C64.1451 11.7908 63.9663 11.8824 63.7938 12.033C63.7303 12.0886 63.6742 12.1712 63.5774 12.117C63.4751 12.0595 63.5079 11.9613 63.5298 11.8734C63.6584 11.3606 63.7274 10.8408 63.7182 10.3111C63.7163 10.2099 63.7266 10.1077 63.7401 10.0071C63.7473 9.95231 63.765 9.88506 63.8338 9.88215C63.9055 9.87897 63.9174 9.94701 63.9311 10.0013C63.9586 10.1112 63.9872 10.2208 64.0081 10.332C64.0441 10.5239 64.1173 10.7018 64.2131 10.8686C64.3567 11.1188 64.616 11.2134 64.8702 11.2372C65.3794 11.2846 65.8619 11.1975 66.3031 10.8896C66.733 10.5896 66.8351 10.1826 66.7555 9.71588C66.6557 9.1305 66.2767 8.7421 65.7624 8.48238C65.2984 8.24807 64.8199 8.0442 64.3975 7.73073C63.3613 6.96187 63.2928 5.17635 64.7448 4.47792C65.1881 4.26479 65.6587 4.15571 66.1489 4.11388C66.4584 4.08767 66.7703 4.11123 67.0782 4.05139C67.2594 4.01618 67.4287 3.96561 67.5742 3.84859C67.6334 3.80093 67.6953 3.75725 67.7726 3.80941C67.84 3.85494 67.8302 3.92246 67.8223 3.99288C67.7659 4.48718 67.6593 4.9754 67.6437 5.4742C67.6408 5.57004 67.6535 5.66615 67.6541 5.76199C67.6543 5.84407 67.6133 5.91396 67.5342 5.92667C67.4377 5.94229 67.4639 5.84433 67.4445 5.7935C67.367 5.5891 67.3231 5.37597 67.1911 5.18852C67.0054 4.92509 66.7806 4.76889 66.4515 4.7493C65.9952 4.72229 65.5968 4.85519 65.2781 5.17502C64.9421 5.51206 64.9109 6.18481 65.1588 6.62139C65.4098 7.06328 65.8066 7.31321 66.2399 7.53746C66.7012 7.77601 67.161 8.01879 67.5633 8.35768C68.3664 9.0336 68.499 10.2443 67.8339 11.0566C67.5022 11.4617 67.0419 11.6764 66.5452 11.7958C66.1227 11.8977 65.691 11.9663 65.245 11.9425Z" fill="#3A5E78"/>
</g>
<g id="Group_3">
<path id="Vector_10" fill-rule="evenodd" clip-rule="evenodd" d="M61.854 5.50649C61.5992 5.59863 61.0051 5.72651 60.5795 5.71566C60.1533 5.70533 59.2383 5.76464 58.8542 5.83506C58.4704 5.90549 57.8792 6.24438 57.8438 6.31295C57.8086 6.38152 57.8729 6.74159 57.8906 6.79083C57.9086 6.83981 58.1659 6.96955 58.3101 7.10431C58.4548 7.23907 58.8005 7.74634 58.9167 8.01534C59.0323 8.28407 59.3201 8.44821 59.305 8.47813C59.2894 8.50858 59.2513 8.49958 59.1185 8.4183C58.9854 8.33755 58.6672 8.05982 58.5119 7.97006C58.3567 7.88084 58.1437 7.75455 58.0924 7.76144C58.0416 7.76779 58.1236 7.97536 58.1548 8.11939C58.1427 8.06512 58.195 8.58854 58.2794 8.83635C58.386 9.14982 59.0095 9.43576 59.4603 10.4191C59.6888 10.9176 59.6843 11.4127 60.0975 12.3306C60.2504 12.6695 60.7533 13.3391 60.7348 13.3611C60.7162 13.383 60.5951 13.2552 60.3308 13.0325C60.0666 12.8096 59.5322 12.216 59.3053 11.7783C59.078 11.3399 58.5559 10.6245 58.2173 10.4193C57.8781 10.2147 57.6454 10.0984 57.5956 10.1059C57.5454 10.1127 57.5147 10.1588 57.4086 10.2401C57.3031 10.3219 57.2065 10.3595 57.2065 10.3595C57.2065 10.3595 57.2004 10.3796 57.1753 10.6581C57.1507 10.9369 57.0361 11.2729 56.7563 11.6436C56.4759 12.0153 56.4296 12.3894 56.3984 12.4055C56.3672 12.4212 56.3672 12.4701 56.3521 12.3007C56.3359 12.1313 56.3894 11.9803 56.4296 11.6886C56.4698 11.3968 56.4518 11.0275 56.3984 11.0315C56.3455 11.036 56.2928 11.1501 56.1185 11.2856C55.9447 11.4206 55.8421 11.4071 55.5749 11.7484C55.3538 12.0307 55.3297 12.6642 54.8443 13.3611C54.4679 13.9022 54.0457 14.0261 53.3211 14.9891C52.9228 15.5188 52.7588 15.997 52.7307 15.989C52.7027 15.9816 52.7966 15.7073 52.8704 15.3322C52.9447 14.957 53.163 14.6107 53.368 14.1823C53.5635 13.7743 53.8936 13.2941 54.0364 12.8085C54.1269 12.5014 54.1237 11.8668 54.0676 11.808C54.0113 11.7492 53.6828 11.6097 53.6325 11.6137C53.5822 11.6176 53.4743 11.6754 53.1193 11.7929C52.7651 11.911 52.2056 11.8488 51.9691 11.8527C51.7329 11.8567 51.4163 11.9713 51.3787 11.9422C51.3414 11.9139 51.5255 11.813 51.9541 11.6735C52.3826 11.5345 52.6283 11.3203 52.6379 11.2856C52.6463 11.2509 52.5569 11.2459 52.4199 11.2107C52.2831 11.176 52.0194 11.0304 51.6898 10.942C51.3597 10.8538 50.9999 11.0399 50.2439 11.1363C49.4887 11.2327 48.4822 10.7347 47.5399 10.6735C46.8852 10.6304 46.381 10.7318 46.3898 10.6735C46.3988 10.6147 47.1394 10.4482 47.509 10.3749C47.8783 10.301 49.0951 10.2809 49.685 10.2255C50.2754 10.1697 50.7579 9.74076 50.7886 9.7029C50.8193 9.66531 50.7706 9.62401 50.7574 9.49374C50.7449 9.36296 50.7261 9.23958 50.7261 9.23958C50.7261 9.23958 50.5931 9.20278 50.2598 8.8811C49.927 8.55968 49.7723 8.1636 49.6537 7.9555C49.5358 7.7474 49.312 7.55254 49.312 7.55254C49.312 7.55254 49.3998 7.56287 49.5297 7.6423C49.6694 7.72755 49.8548 7.88481 49.9339 7.97033C50.0857 8.1358 50.5063 8.28619 50.5399 8.26898C50.574 8.2523 50.5153 8.17261 50.478 7.98542C50.4402 7.79824 50.5685 7.83795 50.3378 7.26846C50.2143 6.9624 49.5419 6.43103 49.2186 5.74531C48.8578 4.97883 48.9644 4.65715 48.6282 3.87876C48.393 3.33416 47.8201 2.66512 47.8513 2.63917C47.8814 2.61323 48.47 3.17293 48.675 3.40062C48.8795 3.62884 49.8117 5.08156 50.0892 5.35717C50.3667 5.63252 50.9851 5.94149 51.0219 5.93937C51.0581 5.93699 51.143 5.85756 51.2084 5.80461C51.2742 5.75166 51.4261 5.65529 51.4261 5.65529C51.4261 5.65529 51.4166 5.30714 51.5507 4.96878C51.684 4.62989 51.9332 4.35718 52.0789 4.05774C52.2006 3.80807 52.2453 3.47289 52.2654 3.72918C52.2771 3.87215 52.1929 4.15914 52.1726 4.41569C52.1514 4.67224 52.1257 4.88087 52.1882 4.98333C52.2033 5.00822 52.2054 5.0294 52.2038 5.04449C52.2138 5.02384 52.235 4.99022 52.2966 4.92403C52.4882 4.71752 52.95 4.60711 53.1204 4.17662C53.2913 3.74665 53.3852 3.43265 53.6801 2.86316C53.9751 2.29313 54.525 1.94921 54.9541 1.51872C55.3842 1.08822 55.918 0.0109253 55.918 0.0109253C55.918 0.0109253 55.8706 0.329165 55.7643 0.686852C55.6799 0.971467 55.5463 1.28044 55.4522 1.47398C55.2392 1.91188 54.6126 3.04028 54.5507 3.34078C54.4882 3.64208 54.5078 4.16841 54.5351 4.23698C54.5485 4.2714 54.6525 4.29232 54.7596 4.33336C54.8657 4.37413 54.9742 4.43529 55.0014 4.43079C55.0546 4.42258 55.2606 4.25605 55.7315 4.19171C56.2024 4.12817 56.3156 4.19171 56.6486 4.19171C56.933 4.19224 57.2211 4.05271 57.239 4.0723C57.2763 4.11255 57.2457 4.11096 57.1306 4.19171C57.015 4.27299 56.6954 4.3495 56.4465 4.4607C56.1984 4.5719 55.9841 4.70799 55.9802 4.74426C55.9717 4.81919 56.3108 4.81283 56.633 4.99843C56.8576 5.12763 56.8994 5.09056 57.1306 5.10274C57.4993 5.12233 58.2136 4.86764 58.7162 4.90841C59.1055 4.94018 59.4925 4.99366 59.9901 5.14802C60.4882 5.30184 61.2289 5.408 61.6535 5.38709C62.0775 5.36564 62.3791 5.30131 62.3529 5.34208C62.3248 5.38312 62.1087 5.41489 61.854 5.50649ZM57.2875 6.95472C57.0116 6.24808 56.3061 5.39185 55.126 5.06329C53.8309 4.7019 52.7506 5.36247 52.3477 5.63543C51.9451 5.9076 50.9933 6.69314 51.1949 8.56948C51.3793 10.2864 53.1844 11.1466 54.4356 11.0677C56.0659 10.9647 57.1994 9.67696 57.3396 8.97747C57.4599 8.37832 57.5488 7.62376 57.2875 6.95472ZM54.4245 10.8379C53.2225 10.831 51.6742 10.0916 51.4716 8.52288C51.2414 6.73974 52.144 6.10008 52.5128 5.85041C52.8815 5.60075 53.7375 4.94442 54.9998 5.31323C56.3661 5.71142 56.8531 6.47922 57.0356 7.045C57.2181 7.61052 57.2081 8.34814 57.0981 8.89672C56.9692 9.53663 55.818 10.8461 54.4245 10.8379ZM56.8026 7.29864C56.6015 6.56315 56.2246 6.20069 55.699 6.07414C55.1096 5.93276 54.4824 6.07572 53.9893 6.61186C53.5717 7.06592 53.6214 7.19221 53.5542 7.14905C53.4873 7.10642 53.5285 6.56817 53.8185 6.10405C54.1084 5.6402 54.4983 5.52318 54.5023 5.47658C54.5062 5.43051 53.9073 5.4096 53.5227 5.59652C53.1389 5.78317 52.7789 5.88113 52.3728 6.35743C51.9668 6.83452 51.6546 7.1382 51.8909 7.92559C51.9602 8.15725 52.2577 8.71457 52.9011 8.92611C53.5053 9.12494 53.9071 9.01136 53.9423 9.09025C53.978 9.16968 53.278 9.4257 52.5905 9.35898C52.0226 9.30365 51.9615 9.01374 51.8755 9.10535C51.7895 9.19642 52.5458 10.0413 53.4143 10.3444C53.869 10.5035 54.4922 10.6274 54.9686 10.4344C55.4014 10.2586 55.7238 9.80166 55.8236 9.32907C55.9974 8.49905 55.4471 7.89275 55.4657 7.83583C55.4847 7.77891 55.9341 7.97721 56.2431 8.5377C56.5515 9.09793 56.4698 9.33489 56.4762 9.35898C56.4822 9.38307 56.5589 9.35713 56.6314 9.22422C56.7039 9.09237 57.0036 8.03467 56.8026 7.29864Z" fill="url(#paint0_linear_11961_11566)"/>
</g>
</g>
<defs>
<linearGradient id="paint0_linear_11961_11566" x1="54.371" y1="16.2999" x2="54.371" y2="-0.351388" gradientUnits="userSpaceOnUse">
<stop stop-color="#7D5C2C"/>
<stop offset="1" stop-color="#C6B073"/>
</linearGradient>
</defs>
</svg>
