<svg>
	<symbol id="tag-icon-1" viewBox="0 0 16 16" fill="none" xmlns="http://www.w3.org/2000/svg">
		<path fill-rule="evenodd" clip-rule="evenodd" d="M6.53333 1.4947L5.27451 2.75378L4.54026 2.01938C4.36643 1.84551 4.08455 1.84551 3.91072 2.01938C3.73694 2.1932 3.73694 2.47497 3.91072 2.64879L4.12059 2.8587C4.41028 3.14846 4.41028 3.61818 4.12059 3.90793L3.38627 4.6424L2.65203 3.908C2.47819 3.73413 2.19632 3.73413 2.02248 3.908C1.8487 4.08182 1.8487 4.36359 2.02248 4.53741L2.75686 5.27194L1.49415 6.53102L0.760156 5.79688C0.586321 5.623 0.30432 5.62339 0.130958 5.79773C-0.0414877 5.97115 -0.0413351 6.25134 0.1313 6.42457L0.800377 7.09597C0.835965 7.13168 0.835985 7.18945 0.800422 7.22518C0.373966 7.65371 0.373997 8.3464 0.800331 8.77505C0.835924 8.81084 0.83586 8.86869 0.800173 8.90438L0.130322 9.57437C-0.0434402 9.74817 -0.0434407 10.0299 0.130321 10.2037C0.304162 10.3776 0.586062 10.3776 0.759864 10.2036L1.49415 9.46887L2.75345 10.7284L2.01907 11.463C1.84529 11.6368 1.84529 11.9185 2.01907 12.0924C2.1929 12.2662 2.47478 12.2662 2.64861 12.0924L3.38286 11.358L4.64168 12.617L3.9073 13.3516C3.73352 13.5254 3.73352 13.8072 3.9073 13.981C4.08114 14.1548 4.36301 14.1548 4.53684 13.981L5.27109 13.2466L6.52992 14.5057L5.79554 15.2402C5.62175 15.414 5.62176 15.6958 5.79554 15.8696C5.96937 16.0435 6.25125 16.0435 6.42508 15.8696L7.09466 15.1999C7.1304 15.1641 7.18847 15.1642 7.22429 15.1999C7.65306 15.6268 8.34826 15.6277 8.77604 15.1999C8.81174 15.1642 8.86964 15.1642 8.90535 15.1999L9.57487 15.8695C9.74874 16.0434 10.0307 16.0434 10.2046 15.8695C10.3783 15.6957 10.3784 15.414 10.2047 15.2401L9.47058 14.5052L10.7294 13.2461L11.4632 13.9807C11.637 14.1547 11.919 14.1548 12.0929 13.9808C12.2666 13.8071 12.2667 13.5254 12.093 13.3516L11.3588 12.6166L12.6176 11.3575L13.3514 12.0921C13.5252 12.2661 13.8072 12.2661 13.9811 12.0922C14.1548 11.9185 14.1549 11.6368 13.9812 11.463L13.2471 10.7279L14.5059 9.46935L15.2401 10.2037C15.414 10.3776 15.6958 10.3776 15.8697 10.2037C16.0434 10.0299 16.0434 9.74815 15.8697 9.57433L15.1999 8.90439C15.1642 8.86872 15.1642 8.81087 15.1999 8.77518C15.6276 8.34709 15.6277 7.65311 15.1999 7.22514C15.1642 7.18947 15.1642 7.13164 15.1999 7.09597L15.8697 6.42603C16.0434 6.25221 16.0434 5.97044 15.8697 5.79662C15.6958 5.62275 15.414 5.62275 15.2401 5.79662L14.5059 6.53102L13.2432 5.27194L13.9802 4.53715C14.1543 4.36356 14.1545 4.08162 13.9807 3.90774C13.807 3.73402 13.5254 3.73402 13.3517 3.90774L12.6172 4.6424L11.3583 3.38332L12.0927 2.64879C12.2665 2.47497 12.2665 2.1932 12.0927 2.01938C11.9189 1.84551 11.637 1.84551 11.4632 2.01938L10.7289 2.75378L9.47011 1.4947L10.2042 0.760427C10.3781 0.586469 10.3781 0.304465 10.2042 0.130507C10.0305 -0.0433026 9.74874 -0.0435313 9.57469 0.129996L8.90169 0.800943C8.86613 0.836399 8.80854 0.836286 8.77312 0.800689C8.34753 0.373033 7.65388 0.373924 7.2273 0.800589C7.19173 0.83617 7.1339 0.836312 7.09833 0.80073L6.42849 0.130763C6.25466 -0.0431054 5.97278 -0.0431054 5.79895 0.130763C5.62517 0.30458 5.62517 0.586354 5.79895 0.760171L6.53333 1.4947ZM8.64115 2.55761C8.286 2.20239 7.71012 2.20239 7.35498 2.55761L2.55698 7.35658C2.20178 7.71185 2.20197 8.28784 2.5574 8.64289L7.35887 13.4392C7.71408 13.794 8.28965 13.7938 8.64463 13.4388L13.4396 8.64289C13.7946 8.28778 13.7946 7.7121 13.4396 7.35699L8.64115 2.55761Z" fill="currentColor"/>
		<path d="M7.35498 3.81669C7.71012 3.46147 8.286 3.46147 8.64115 3.81669L12.1807 7.35699C12.5358 7.7121 12.5358 8.28778 12.1807 8.64289L8.64452 12.1798C8.28958 12.5348 7.7141 12.5351 7.35887 12.1803L3.81643 8.64289C3.4609 8.28786 3.46067 7.71179 3.81591 7.35647L7.35498 3.81669Z" fill="currentColor"/>
	</symbol>
	<symbol id="tag-icon-2" viewBox="0 0 11 16" fill="none" xmlns="http://www.w3.org/2000/svg">
		<path d="M3.99422 3.01652C3.99422 3.01652 4.44765 1.50413 3.69193 1C5.65681 1.16804 7.6217 3.3526 8.07513 6.37737C8.54425 5.32649 8.95952 5.0373 9.88887 4.86499C9.67283 6.15174 10.0665 6.86661 10.6439 8.0578C11.3502 9.5147 10.9843 11.6149 9.73773 13.0991C7.79951 15.1397 5.50498 15.4517 2.78506 14.4434L4.29651 12.931C8.22628 14.2754 9.13315 8.56193 7.92399 8.56193C7.25298 9.30758 6.83948 9.7673 6.59269 10.0418C6.38529 10.2724 6.07722 10.3848 5.76997 10.3421C5.34769 10.2834 5.01891 9.94594 4.97127 9.52226L4.95121 9.34378C4.91933 9.06022 5.00966 8.77712 5.20044 8.56492C5.44291 8.29523 5.86284 7.82835 6.56368 7.04954C6.56368 5.7052 0.820175 7.04954 2.63391 11.0826L0.971321 12.763C-0.0870713 11.5867 -0.540759 8.89802 0.971321 6.37737C0.970918 7.72172 1.27321 7.72172 1.5759 7.72172C2.18048 5.03303 3.99422 4.02477 3.99422 3.01652Z" fill="currentColor"/>
	</symbol>
	<symbol id="tag-icon-3" viewBox="0 0 16 16" fill="none" xmlns="http://www.w3.org/2000/svg">
		<path d="M11.0425 4.58349C11.0959 4.77031 11.2293 4.90376 11.4162 4.95714L12.0033 5.11727C12.1101 5.14396 12.2435 5.09058 12.2969 4.98382L13.5513 2.82202C13.8448 2.31493 13.6847 2.12811 13.1509 2.42169L10.9891 3.67607C10.8824 3.72945 10.829 3.86289 10.8557 3.96965L11.0425 4.58349Z" fill="currentColor"/>
		<path d="M3.70276 4.9841C3.75613 5.09086 3.88958 5.14424 3.99633 5.11755L4.58349 4.95741C4.77031 4.90404 4.90376 4.77059 4.95714 4.58377L5.11727 3.99661C5.14396 3.88986 5.09058 3.75641 4.98382 3.70304L2.82202 2.44866C2.31493 2.15508 2.12811 2.31521 2.42169 2.84899L3.70276 4.9841Z" fill="currentColor"/>
		<path d="M12.2963 11.016C12.2429 10.9093 12.1094 10.8559 12.0027 10.8826L11.4155 11.0427C11.2287 11.0961 11.0953 11.2295 11.0419 11.4163L10.8817 12.0035C10.8551 12.1103 10.9084 12.2437 11.0152 12.2971L13.177 13.5515C13.6841 13.845 13.8709 13.6849 13.5773 13.1511L12.2963 11.016Z" fill="currentColor"/>
		<path d="M4.95746 11.4162C4.90409 11.2294 4.77064 11.0959 4.58382 11.0425L3.99666 10.8824C3.88991 10.8557 3.75646 10.9091 3.70309 11.0158L2.44871 13.1776C2.15513 13.6847 2.31526 13.8716 2.84904 13.578L5.01084 12.3236C5.1176 12.2702 5.17098 12.1368 5.14429 12.03L4.95746 11.4162Z" fill="currentColor"/>
		<path d="M15.5796 7.73311L10.1084 6.26522C9.9216 6.21184 9.78816 6.0784 9.73478 5.89158L8.26689 0.42035C8.10676 -0.140117 7.86656 -0.140117 7.70642 0.42035L6.23853 5.89158C6.18515 6.0784 6.05171 6.21184 5.86489 6.26522L0.42035 7.73311C-0.140117 7.89324 -0.140117 8.13344 0.42035 8.29358L5.89158 9.76147C6.0784 9.81485 6.21184 9.94829 6.26522 10.1351L7.73311 15.5796C7.89324 16.1401 8.13344 16.1401 8.29358 15.5796L9.76147 10.1084C9.81485 9.9216 9.94829 9.78816 10.1351 9.73478L15.5796 8.26689C16.1401 8.13344 16.1401 7.86656 15.5796 7.73311ZM8 9.33444C7.25271 9.33444 6.66556 8.74729 6.66556 8C6.66556 7.25271 7.25271 6.66556 8 6.66556C8.74729 6.66556 9.33444 7.25271 9.33444 8C9.33444 8.74729 8.74729 9.33444 8 9.33444Z" fill="currentColor"/>
	</symbol>
	<symbol id="tag-icon-4" viewBox="0 0 16 16" fill="none" xmlns="http://www.w3.org/2000/svg">
		<g id="Icon Button">
		<path d="M15.528 7.66398L8.33201 0.468C8.03999 0.18 7.63998 0 7.19999 0H1.60001C0.715987 0 0 0.715987 0 1.60001V7.19999C0 7.64399 0.18 8.04401 0.472012 8.33201L7.67201 15.532C7.96001 15.82 8.36002 16 8.80001 16C9.23999 16 9.64402 15.82 9.93202 15.532L15.532 9.93202C15.82 9.64001 16 9.24003 16 8.80001C16 8.35601 15.82 7.95599 15.528 7.66398ZM2.80001 4.00001C2.136 4.00001 1.60001 3.46402 1.60001 2.80001C1.60001 2.136 2.136 1.60001 2.80001 1.60001C3.46402 1.60001 4.00001 2.136 4.00001 2.80001C4.00001 3.46402 3.46398 4.00001 2.80001 4.00001Z" fill="currentColor"/>
		</g>
	</symbol>
	<symbol id="tag-icon-5" viewBox="0 0 10 14" fill="none" xmlns="http://www.w3.org/2000/svg">
		<path fill-rule="evenodd" clip-rule="evenodd" d="M9.48807 6.4605C9.47371 6.78086 9.47687 7.10189 9.45678 7.42195C9.4372 7.73424 9.33294 8.02736 9.08406 8.26747C9.03228 8.31743 8.93129 8.35745 8.85285 8.35758C6.36681 8.36225 3.88083 8.36191 1.39479 8.35898C1.31962 8.35889 1.23605 8.33489 1.17067 8.30184C0.467855 7.94665 0.141131 7.40114 0.0457652 6.73128C-0.00771787 6.35557 -0.0380501 5.98534 0.0926697 5.61621C0.254776 5.15847 0.590288 4.81402 1.03412 4.52693C1.27342 4.37217 1.50176 4.19791 1.69867 4.00584C1.92134 3.78863 2.00325 3.52044 1.9015 3.23497C1.8653 3.13335 1.79082 3.0415 1.728 2.9353C1.80232 2.95463 1.88237 2.97251 1.96001 2.99609C3.1161 3.34691 3.58082 4.49226 2.9571 5.31259C2.78852 5.53435 2.61622 5.76061 2.61245 6.04214C2.60838 6.34393 2.74408 6.52388 3.02395 6.57524C3.40983 6.64606 3.75513 6.52257 3.8846 6.2554C4.00803 6.00055 4.02159 5.72972 4.00738 5.45869C3.98694 5.06836 3.85291 4.70421 3.63852 4.35934C3.3807 3.94454 3.21407 3.51199 3.23667 3.03381C3.2654 2.42411 3.53206 1.90464 4.03385 1.4712C4.29925 1.24196 4.58028 1.02564 4.8497 0.79964C5.12073 0.572233 5.35757 0.323331 5.49743 0.017715C5.5022 0.00739187 5.52048 0 5.52048 0C5.54393 0.190574 5.55091 0.386842 5.5955 0.576864C5.66169 0.859072 5.84323 1.08635 6.10317 1.27714C6.69474 1.71139 7.23475 2.18702 7.66779 2.74251C8.0394 3.21925 8.30757 3.72997 8.34629 4.30827C8.38652 4.9094 8.11835 5.42589 7.7057 5.89859C7.59632 6.02391 7.47625 6.14269 7.37024 6.26988C7.22581 6.44312 7.1323 6.63022 7.20627 6.84887C7.2701 7.03758 7.45521 7.13414 7.6817 7.08358C8.10062 6.99012 8.30642 6.72746 8.41595 6.39665C8.44497 6.30897 8.45708 6.21737 8.47807 6.12774C8.60377 5.59038 9.15231 5.26718 9.7929 5.35316C9.8505 5.36089 9.90755 5.37143 9.99643 5.38575C9.61557 5.69064 9.506 6.06181 9.48807 6.4605ZM9.81725 9.70396C9.61362 10.3908 9.40551 11.0768 9.20945 11.7651C9.17917 11.8715 9.12443 11.8907 9.01134 11.8897C8.54998 11.8855 8.08847 11.8853 7.62721 11.8915C7.57463 11.8923 7.49127 11.9336 7.47575 11.9717C7.21019 12.6239 6.95292 13.2786 6.69505 13.9331C6.68701 13.9535 6.69248 13.9776 6.69163 14C5.56226 14 4.43289 14 3.30351 14C3.27313 13.9041 3.24792 13.8067 3.21151 13.7124C2.99346 13.1478 2.77039 12.5845 2.55545 12.019C2.51854 11.9219 2.46878 11.883 2.34112 11.885C1.87986 11.8923 1.41835 11.887 0.956936 11.8886C0.874276 11.8889 0.819588 11.883 0.794378 11.7967C0.539467 10.9229 0.278228 10.0505 0.019551 9.17752C0.0107627 9.14787 0.0102103 9.11648 0.00478663 9.07875C3.3347 9.07875 6.65497 9.07875 10 9.07875C9.93768 9.29227 9.87827 9.49826 9.81725 9.70396Z" fill="currentColor"/>
	</symbol>
	<symbol id="tag-icon-6" viewBox="0 0 14 14" fill="none" xmlns="http://www.w3.org/2000/svg">
		<path fill-rule="evenodd" clip-rule="evenodd" d="M13.5147 8.9135C12.9271 11.2973 10.7438 12 10.7438 12L10.5088 9.9732C10.5088 9.9732 12.947 9.21483 12.5279 4.23885C12.5007 3.91599 10.0276 4.00008 10.0276 4.00008L9.84851 2.00004C9.84851 2.00004 12.101 1.99219 13.2508 2.00004C14.3139 2.00731 14.0973 6.54991 13.5147 8.9135ZM0.895282 2.00004H9.31135L9.4904 4.00008H0.716225L0.895282 2.00004ZM1.48014 0L5.11336 5.77104e-05L8.74659 0L9.0004 1.33338H1.20005L1.48014 0ZM1.20005 4.66674H3.20011L3.00012 9.33337H0.800013L1.20005 4.66674ZM3.80013 4.66674H5.20022H6.40026L6.60025 9.33337H5.20022H3.60014L3.80013 4.66674ZM9.0004 4.66674L9.40038 9.33337H7.20028L7.00029 4.66674H9.0004ZM10.2067 12H0L0.19999 10H10.0004L10.2067 12ZM10.0004 12.6667L10.2258 14H5.11336H0.000883085L0.19999 12.6667H10.0004Z" fill="currentColor"/>
	</symbol>
	<symbol id="tag-icon-7" viewBox="0 0 10 14" fill="none" xmlns="http://www.w3.org/2000/svg">
		<path fill-rule="evenodd" clip-rule="evenodd" d="M9.44445 5.34057e-06H8.88889C8.58206 5.34057e-06 8.33333 0.248736 8.33333 0.555561V7.98355C8.33333 8.21367 8.14679 8.40022 7.91667 8.40022C7.68655 8.40022 7.5 8.21367 7.5 7.98355V1C7.5 0.44772 7.05229 4.86236e-06 6.5 4.27246e-06L3.5 1.06812e-06C2.94772 4.78212e-07 2.5 0.447716 2.5 1V7.98355C2.5 8.21367 2.31345 8.40022 2.08334 8.40022C1.85322 8.40022 1.66667 8.21367 1.66667 7.98355V0.555561C1.66667 0.248736 1.41794 5.34057e-06 1.11111 5.34057e-06H0.555556C0.408213 5.34057e-06 0.266905 0.0670505 0.162718 0.186392C0.0585315 0.305733 0 0.467595 0 0.636369V13.3636C-2.33889e-07 13.4772 0.0265447 13.5888 0.0768789 13.6866C0.127213 13.7845 0.199502 13.8652 0.286239 13.9202C0.372977 13.9753 0.471002 14.0028 0.570138 13.9998C0.669273 13.9968 0.765905 13.9635 0.85 13.9033L5 10.9321L9.15 13.9033C9.2341 13.9635 9.33073 13.9968 9.42986 13.9998C9.529 14.0028 9.62702 13.9753 9.71376 13.9202C9.8005 13.8652 9.87279 13.7845 9.92312 13.6866C9.97346 13.5888 10 13.4772 10 13.3636V0.636369C10 0.467595 9.94147 0.305733 9.83728 0.186392C9.7331 0.0670505 9.59179 5.34057e-06 9.44445 5.34057e-06Z" fill="currentColor"/>
	</symbol>
	<symbol id="detail-link" viewBox="0 0 10 24" fill="none" xmlns="http://www.w3.org/2000/svg">
		<path id="Vector 2" fill-rule="evenodd" clip-rule="evenodd" d="M9.99992 12.0013L2.8072 20L1.44434 18.5108L7.40331 11.9997L1.44434 5.48862L2.8072 4L9.9993 12.0029L9.99992 12.0013Z" fill="currentColor"/>
		<path id="Vector 1" fill-rule="evenodd" clip-rule="evenodd" d="M0.00046792 16.1953V14.8906L2.64462 12.0008L0.00046792 9.11207L0 7.84766L3.8158 12.0013L0.00046792 16.1953Z" fill="currentColor"/>
	</symbol>
	<symbol id="comments" viewBox="0 0 21 19" fill="none" xmlns="http://www.w3.org/2000/svg">
		<path fill-rule="evenodd" clip-rule="evenodd" d="M2.86364 0H18.1364L21 2.85388V13.3181L18.1364 16.172H13.755L11.1777 18.75H9.82227L7.245 16.172H2.86364L0 13.3181V2.85388L2.86364 0Z" fill="currentColor"/>
	</symbol>
	<symbol id="separator" viewBox="0 0 5 6" fill="none" xmlns="http://www.w3.org/2000/svg">
		<path fill-rule="evenodd" clip-rule="evenodd" d="M3.53523 0.878677L4.94945 2.29289V3.7071L3.53523 5.12132H2.12102L0.706805 3.7071V2.29289L2.12102 0.878677H3.53523Z" fill="#C9CCCF"/>
	</symbol>
	<symbol id="more-button" viewBox="0 0 33 32" fill="none" xmlns="http://www.w3.org/2000/svg">
		<path fill-rule="evenodd" clip-rule="evenodd" d="M16.5 29L31.5 13.6154L27.75 9.76923L16.5 21.3077L5.25 9.76923L1.5 13.6154L16.5 29Z" fill="currentColor"/>
		<path d="M22.125 4L24.9375 6.88462L16.5 15.5385L8.0625 6.88462L10.875 4L16.5 9.76923L22.125 4Z" fill="currentColor"/>
	</symbol>
</svg>
