<svg>
	<symbol id="tag-icon-1" viewBox="0 0 16 16" fill="none" xmlns="http://www.w3.org/2000/svg">
		<path fill-rule="evenodd" clip-rule="evenodd" d="M6.53333 1.4947L5.27451 2.75378L4.54026 2.01938C4.36643 1.84551 4.08455 1.84551 3.91072 2.01938C3.73694 2.1932 3.73694 2.47497 3.91072 2.64879L4.12059 2.8587C4.41028 3.14846 4.41028 3.61818 4.12059 3.90793L3.38627 4.6424L2.65203 3.908C2.47819 3.73413 2.19632 3.73413 2.02248 3.908C1.8487 4.08182 1.8487 4.36359 2.02248 4.53741L2.75686 5.27194L1.49415 6.53102L0.760156 5.79688C0.586321 5.623 0.30432 5.62339 0.130958 5.79773C-0.0414877 5.97115 -0.0413351 6.25134 0.1313 6.42457L0.800377 7.09597C0.835965 7.13168 0.835985 7.18945 0.800422 7.22518C0.373966 7.65371 0.373997 8.3464 0.800331 8.77505C0.835924 8.81084 0.83586 8.86869 0.800173 8.90438L0.130322 9.57437C-0.0434402 9.74817 -0.0434407 10.0299 0.130321 10.2037C0.304162 10.3776 0.586062 10.3776 0.759864 10.2036L1.49415 9.46887L2.75345 10.7284L2.01907 11.463C1.84529 11.6368 1.84529 11.9185 2.01907 12.0924C2.1929 12.2662 2.47478 12.2662 2.64861 12.0924L3.38286 11.358L4.64168 12.617L3.9073 13.3516C3.73352 13.5254 3.73352 13.8072 3.9073 13.981C4.08114 14.1548 4.36301 14.1548 4.53684 13.981L5.27109 13.2466L6.52992 14.5057L5.79554 15.2402C5.62175 15.414 5.62176 15.6958 5.79554 15.8696C5.96937 16.0435 6.25125 16.0435 6.42508 15.8696L7.09466 15.1999C7.1304 15.1641 7.18847 15.1642 7.22429 15.1999C7.65306 15.6268 8.34826 15.6277 8.77604 15.1999C8.81174 15.1642 8.86964 15.1642 8.90535 15.1999L9.57487 15.8695C9.74874 16.0434 10.0307 16.0434 10.2046 15.8695C10.3783 15.6957 10.3784 15.414 10.2047 15.2401L9.47058 14.5052L10.7294 13.2461L11.4632 13.9807C11.637 14.1547 11.919 14.1548 12.0929 13.9808C12.2666 13.8071 12.2667 13.5254 12.093 13.3516L11.3588 12.6166L12.6176 11.3575L13.3514 12.0921C13.5252 12.2661 13.8072 12.2661 13.9811 12.0922C14.1548 11.9185 14.1549 11.6368 13.9812 11.463L13.2471 10.7279L14.5059 9.46935L15.2401 10.2037C15.414 10.3776 15.6958 10.3776 15.8697 10.2037C16.0434 10.0299 16.0434 9.74815 15.8697 9.57433L15.1999 8.90439C15.1642 8.86872 15.1642 8.81087 15.1999 8.77518C15.6276 8.34709 15.6277 7.65311 15.1999 7.22514C15.1642 7.18947 15.1642 7.13164 15.1999 7.09597L15.8697 6.42603C16.0434 6.25221 16.0434 5.97044 15.8697 5.79662C15.6958 5.62275 15.414 5.62275 15.2401 5.79662L14.5059 6.53102L13.2432 5.27194L13.9802 4.53715C14.1543 4.36356 14.1545 4.08162 13.9807 3.90774C13.807 3.73402 13.5254 3.73402 13.3517 3.90774L12.6172 4.6424L11.3583 3.38332L12.0927 2.64879C12.2665 2.47497 12.2665 2.1932 12.0927 2.01938C11.9189 1.84551 11.637 1.84551 11.4632 2.01938L10.7289 2.75378L9.47011 1.4947L10.2042 0.760427C10.3781 0.586469 10.3781 0.304465 10.2042 0.130507C10.0305 -0.0433026 9.74874 -0.0435313 9.57469 0.129996L8.90169 0.800943C8.86613 0.836399 8.80854 0.836286 8.77312 0.800689C8.34753 0.373033 7.65388 0.373924 7.2273 0.800589C7.19173 0.83617 7.1339 0.836312 7.09833 0.80073L6.42849 0.130763C6.25466 -0.0431054 5.97278 -0.0431054 5.79895 0.130763C5.62517 0.30458 5.62517 0.586354 5.79895 0.760171L6.53333 1.4947ZM8.64115 2.55761C8.286 2.20239 7.71012 2.20239 7.35498 2.55761L2.55698 7.35658C2.20178 7.71185 2.20197 8.28784 2.5574 8.64289L7.35887 13.4392C7.71408 13.794 8.28965 13.7938 8.64463 13.4388L13.4396 8.64289C13.7946 8.28778 13.7946 7.7121 13.4396 7.35699L8.64115 2.55761Z" fill="currentColor"/>
		<path d="M7.35498 3.81669C7.71012 3.46147 8.286 3.46147 8.64115 3.81669L12.1807 7.35699C12.5358 7.7121 12.5358 8.28778 12.1807 8.64289L8.64452 12.1798C8.28958 12.5348 7.7141 12.5351 7.35887 12.1803L3.81643 8.64289C3.4609 8.28786 3.46067 7.71179 3.81591 7.35647L7.35498 3.81669Z" fill="currentColor"/>
	</symbol>
	<symbol id="tag-icon-2" viewBox="0 0 16 16" fill="none" xmlns="http://www.w3.org/2000/svg">
		<g id="Icon Button">
		<path id="Vector 107" d="M6.08355 2.30459C6.08355 2.30459 6.66065 0.576147 5.69882 0C8.19958 0.192049 10.7003 2.68869 11.2774 6.14557C11.8745 4.94456 12.403 4.61406 13.5858 4.41713C13.3109 5.88771 13.8119 6.70469 14.5468 8.06606C15.4457 9.73109 14.98 12.1313 13.3935 13.8275C10.9266 16.1597 8.00634 16.5162 4.54462 15.3639L6.46828 13.6355C11.4698 15.1719 12.624 8.64221 11.0851 8.64221C10.1581 9.56714 9.61732 10.1071 9.3148 10.4093C9.09643 10.6274 8.78991 10.7324 8.48366 10.6942L8.20191 10.659C7.74795 10.6024 7.39032 10.2449 7.33349 9.79095L7.2985 9.51153C7.26017 9.20537 7.36509 8.89896 7.58341 8.68092C7.8859 8.37879 8.42675 7.8388 9.35378 6.91377C9.35378 5.37737 2.04386 6.91377 4.35226 11.5229L2.23623 13.4434C0.889182 12.0991 0.311762 9.02631 2.23623 6.14557C2.23571 7.68196 2.62045 7.68196 3.00569 7.68196C3.77516 4.60918 6.08355 3.45688 6.08355 2.30459Z" fill="currentColor"/>
		</g>
	</symbol>
	<symbol id="tag-icon-3" viewBox="0 0 16 16" fill="none" xmlns="http://www.w3.org/2000/svg">
		<path d="M11.0425 4.58349C11.0959 4.77031 11.2293 4.90376 11.4162 4.95714L12.0033 5.11727C12.1101 5.14396 12.2435 5.09058 12.2969 4.98382L13.5513 2.82202C13.8448 2.31493 13.6847 2.12811 13.1509 2.42169L10.9891 3.67607C10.8824 3.72945 10.829 3.86289 10.8557 3.96965L11.0425 4.58349Z" fill="currentColor"/>
		<path d="M3.70276 4.9841C3.75613 5.09086 3.88958 5.14424 3.99633 5.11755L4.58349 4.95741C4.77031 4.90404 4.90376 4.77059 4.95714 4.58377L5.11727 3.99661C5.14396 3.88986 5.09058 3.75641 4.98382 3.70304L2.82202 2.44866C2.31493 2.15508 2.12811 2.31521 2.42169 2.84899L3.70276 4.9841Z" fill="currentColor"/>
		<path d="M12.2963 11.016C12.2429 10.9093 12.1094 10.8559 12.0027 10.8826L11.4155 11.0427C11.2287 11.0961 11.0953 11.2295 11.0419 11.4163L10.8817 12.0035C10.8551 12.1103 10.9084 12.2437 11.0152 12.2971L13.177 13.5515C13.6841 13.845 13.8709 13.6849 13.5773 13.1511L12.2963 11.016Z" fill="currentColor"/>
		<path d="M4.95746 11.4162C4.90409 11.2294 4.77064 11.0959 4.58382 11.0425L3.99666 10.8824C3.88991 10.8557 3.75646 10.9091 3.70309 11.0158L2.44871 13.1776C2.15513 13.6847 2.31526 13.8716 2.84904 13.578L5.01084 12.3236C5.1176 12.2702 5.17098 12.1368 5.14429 12.03L4.95746 11.4162Z" fill="currentColor"/>
		<path d="M15.5796 7.73311L10.1084 6.26522C9.9216 6.21184 9.78816 6.0784 9.73478 5.89158L8.26689 0.42035C8.10676 -0.140117 7.86656 -0.140117 7.70642 0.42035L6.23853 5.89158C6.18515 6.0784 6.05171 6.21184 5.86489 6.26522L0.42035 7.73311C-0.140117 7.89324 -0.140117 8.13344 0.42035 8.29358L5.89158 9.76147C6.0784 9.81485 6.21184 9.94829 6.26522 10.1351L7.73311 15.5796C7.89324 16.1401 8.13344 16.1401 8.29358 15.5796L9.76147 10.1084C9.81485 9.9216 9.94829 9.78816 10.1351 9.73478L15.5796 8.26689C16.1401 8.13344 16.1401 7.86656 15.5796 7.73311ZM8 9.33444C7.25271 9.33444 6.66556 8.74729 6.66556 8C6.66556 7.25271 7.25271 6.66556 8 6.66556C8.74729 6.66556 9.33444 7.25271 9.33444 8C9.33444 8.74729 8.74729 9.33444 8 9.33444Z" fill="currentColor"/>
	</symbol>
	<symbol id="tag-icon-4" viewBox="0 0 16 16" fill="none" xmlns="http://www.w3.org/2000/svg">
		<g id="Icon Button">
		<path d="M15.528 7.66398L8.33201 0.468C8.03999 0.18 7.63998 0 7.19999 0H1.60001C0.715987 0 0 0.715987 0 1.60001V7.19999C0 7.64399 0.18 8.04401 0.472012 8.33201L7.67201 15.532C7.96001 15.82 8.36002 16 8.80001 16C9.23999 16 9.64402 15.82 9.93202 15.532L15.532 9.93202C15.82 9.64001 16 9.24003 16 8.80001C16 8.35601 15.82 7.95599 15.528 7.66398ZM2.80001 4.00001C2.136 4.00001 1.60001 3.46402 1.60001 2.80001C1.60001 2.136 2.136 1.60001 2.80001 1.60001C3.46402 1.60001 4.00001 2.136 4.00001 2.80001C4.00001 3.46402 3.46398 4.00001 2.80001 4.00001Z" fill="currentColor"/>
		</g>
	</symbol>
	<symbol id="tag-icon-5" viewBox="0 0 12 18" fill="none" xmlns="http://www.w3.org/2000/svg">
		<path fill-rule="evenodd" clip-rule="evenodd" d="M11.3857 8.30636C11.3684 8.71824 11.3722 9.13101 11.3481 9.54251C11.3246 9.94402 11.1995 10.3209 10.9009 10.6296C10.8387 10.6938 10.7176 10.7453 10.6234 10.7455C7.64018 10.7515 4.657 10.751 1.67375 10.7473C1.58354 10.7471 1.48326 10.7163 1.4048 10.6738C0.561426 10.2171 0.169357 9.51575 0.0549183 8.6545C-0.00926144 8.17144 -0.0456601 7.69543 0.111204 7.22084C0.305731 6.63231 0.708346 6.18946 1.24095 5.82034C1.5281 5.62136 1.80211 5.39731 2.0384 5.15037C2.30561 4.8711 2.4039 4.52629 2.2818 4.15924C2.23835 4.02859 2.14898 3.9105 2.0736 3.77395C2.16279 3.7988 2.25884 3.8218 2.35201 3.85211C3.73932 4.30316 4.29699 5.77577 3.54852 6.83048C3.34622 7.11559 3.13946 7.4065 3.13494 7.76846C3.13006 8.15648 3.29289 8.38785 3.62873 8.45389C4.09179 8.54494 4.50616 8.38616 4.66152 8.04265C4.80964 7.71499 4.82591 7.36679 4.80886 7.01831C4.78433 6.51647 4.62349 6.04827 4.36623 5.60486C4.05684 5.07156 3.85689 4.51542 3.88401 3.90062C3.91848 3.11671 4.23847 2.44882 4.84062 1.89154C5.1591 1.59681 5.49633 1.31869 5.81964 1.02811C6.14488 0.735728 6.42908 0.415711 6.59691 0.0227764C6.60264 0.00950383 6.62288 0.00131087 6.62457 0C6.65271 0.245024 6.66109 0.497368 6.7146 0.741682C6.79403 1.10452 7.01188 1.39674 7.3238 1.64203C8.03369 2.20036 8.6817 2.81188 9.20134 3.52609C9.64729 4.13903 9.96909 4.79567 10.0156 5.53921C10.0638 6.31208 9.74202 6.97615 9.24684 7.5839C9.11559 7.74503 8.9715 7.89775 8.84429 8.06128C8.67097 8.28402 8.55876 8.52456 8.64753 8.80569C8.72412 9.04831 8.94625 9.17246 9.21803 9.10746C9.72075 8.9873 9.9677 8.64959 10.0991 8.22426C10.134 8.11153 10.1485 7.99377 10.1737 7.87852C10.3245 7.18763 10.9828 6.77209 11.7515 6.88264C11.8206 6.89258 11.8891 6.90612 11.9957 6.92453C11.5387 7.31654 11.4072 7.79375 11.3857 8.30636ZM11.7807 12.4765C11.5363 13.3596 11.2866 14.2416 11.0513 15.1266C11.015 15.2634 10.9493 15.288 10.8136 15.2867C10.26 15.2813 9.70616 15.2811 9.15265 15.2891C9.08955 15.29 8.98952 15.3432 8.9709 15.3921C8.65223 16.2308 8.3435 17.0725 8.03405 17.914C8.02441 17.9402 8.03098 17.9712 8.02996 18C6.67471 18 5.31946 18 3.96422 18C3.92776 17.8767 3.89751 17.7515 3.85382 17.6303C3.59215 16.9043 3.32447 16.1801 3.06654 15.453C3.02225 15.3281 2.96253 15.2781 2.80934 15.2808C2.25583 15.2901 1.70202 15.2833 1.14832 15.2854C1.04913 15.2858 0.983505 15.2782 0.953254 15.1671C0.64736 14.0438 0.333874 12.9221 0.0234612 11.7997C0.0129152 11.7615 0.0122523 11.7212 0.00574396 11.6727C4.00164 11.6727 7.98597 11.6727 12 11.6727C11.9252 11.9472 11.8539 12.2121 11.7807 12.4765Z" fill="currentColor"/>
	</symbol>
	<symbol id="tag-icon-6" viewBox="0 0 16 16" fill="none" xmlns="http://www.w3.org/2000/svg">
		<g id="Icon Button">
		<path fill-rule="evenodd" clip-rule="evenodd" d="M15.4454 10.1869C14.7738 12.9112 12.2787 13.7143 12.2787 13.7143L12.0101 11.3979C12.0101 11.3979 14.7966 10.5312 14.3176 4.8444C14.2865 4.47542 11.4601 4.57152 11.4601 4.57152L11.2554 2.28576C11.2554 2.28576 13.8297 2.27679 15.1438 2.28576C16.3587 2.29407 16.1112 7.48561 15.4454 10.1869ZM1.02318 2.28576H10.6415L10.8462 4.57152H0.818543L1.02318 2.28576ZM1.69158 0L5.84384 6.59548e-05L9.99611 0L10.2862 1.52386H1.37148L1.69158 0ZM1.37148 5.33342H3.65726L3.4287 10.6667H0.914301L1.37148 5.33342ZM4.343 5.33342H5.94311H7.31459L7.54315 10.6667H5.94311H4.11444L4.343 5.33342ZM10.2862 5.33342L10.7433 10.6667H8.22889L8.00033 5.33342H10.2862ZM11.6648 13.7143H0L0.22856 11.4286H11.429L11.6648 13.7143ZM11.429 14.4763L11.6866 16H5.84384H0.00100924L0.22856 14.4763H11.429Z" fill="currentColor"/>
		</g>
	</symbol>
	<symbol id="tag-icon-7" viewBox="0 0 17 20" fill="none" xmlns="http://www.w3.org/2000/svg">
		<path fill-rule="evenodd" clip-rule="evenodd" d="M15.6111 7.62939e-06H15C14.4477 7.62939e-06 14 0.447723 14 1.00001V11.7503C14 11.8884 13.8881 12.0003 13.75 12.0003C13.6119 12.0003 13.5 11.8884 13.5 11.7503V7.62939e-06L4.5 7.6294e-07C3.94772 3.4158e-07 3.5 0.447716 3.5 1V11.7503C3.5 11.8884 3.38807 12.0003 3.25 12.0003C3.11193 12.0003 3 11.8884 3 11.7503V1.00001C3 0.447724 2.55228 7.62939e-06 2 7.62939e-06H1.38889C1.15314 7.62939e-06 0.927049 0.0957865 0.760349 0.266274C0.59365 0.436762 0.5 0.667993 0.5 0.909098V19.0909C0.5 19.2532 0.542471 19.4125 0.623006 19.5523C0.703541 19.6922 0.819202 19.8074 0.957983 19.886C1.09676 19.9647 1.2536 20.004 1.41222 19.9997C1.57084 19.9954 1.72545 19.9478 1.86 19.8618L8.5 15.6173L15.14 19.8618C15.2746 19.9478 15.4292 19.9954 15.5878 19.9997C15.7464 20.004 15.9032 19.9647 16.042 19.886C16.1808 19.8074 16.2965 19.6922 16.377 19.5523C16.4575 19.4125 16.5 19.2532 16.5 19.0909V0.909098C16.5 0.667993 16.4064 0.436762 16.2397 0.266274C16.073 0.0957865 15.8469 7.62939e-06 15.6111 7.62939e-06Z" fill="currentColor"/>
	</symbol>
	<symbol id="detail-link" viewBox="0 0 10 24" fill="none" xmlns="http://www.w3.org/2000/svg">
		<path id="Vector 2" fill-rule="evenodd" clip-rule="evenodd" d="M9.99992 12.0013L2.8072 20L1.44434 18.5108L7.40331 11.9997L1.44434 5.48862L2.8072 4L9.9993 12.0029L9.99992 12.0013Z" fill="currentColor"/>
		<path id="Vector 1" fill-rule="evenodd" clip-rule="evenodd" d="M0.00046792 16.1953V14.8906L2.64462 12.0008L0.00046792 9.11207L0 7.84766L3.8158 12.0013L0.00046792 16.1953Z" fill="currentColor"/>
	</symbol>
	<symbol id="comments" viewBox="0 0 21 19" fill="none" xmlns="http://www.w3.org/2000/svg">
		<path fill-rule="evenodd" clip-rule="evenodd" d="M2.86364 0H18.1364L21 2.85388V13.3181L18.1364 16.172H13.755L11.1777 18.75H9.82227L7.245 16.172H2.86364L0 13.3181V2.85388L2.86364 0Z" fill="currentColor"/>
	</symbol>
	<symbol id="separator" viewBox="0 0 5 6" fill="none" xmlns="http://www.w3.org/2000/svg">
		<path fill-rule="evenodd" clip-rule="evenodd" d="M3.53523 0.878677L4.94945 2.29289V3.7071L3.53523 5.12132H2.12102L0.706805 3.7071V2.29289L2.12102 0.878677H3.53523Z" fill="#C9CCCF"/>
	</symbol>
	<symbol id="more-button" viewBox="0 0 33 32" fill="none" xmlns="http://www.w3.org/2000/svg">
		<path fill-rule="evenodd" clip-rule="evenodd" d="M16.5 29L31.5 13.6154L27.75 9.76923L16.5 21.3077L5.25 9.76923L1.5 13.6154L16.5 29Z" fill="currentColor"/>
		<path d="M22.125 4L24.9375 6.88462L16.5 15.5385L8.0625 6.88462L10.875 4L16.5 9.76923L22.125 4Z" fill="currentColor"/>
	</symbol>
</svg>
