<svg width="16" height="16" viewBox="0 0 16 16" fill="none" xmlns="http://www.w3.org/2000/svg">
<g id="Icon">
<path id="Vector" fill-rule="evenodd" clip-rule="evenodd" d="M13.6429 7.25784C13.7559 7.60641 13.8332 7.96978 13.879 8.34277L13.9889 8.27873L16 8.68093L15.1329 10.8916L14.1699 11.3258L13.5443 11.1089C13.3828 11.5319 13.1719 11.9309 12.9211 12.3015L13.655 12.4944L14.7889 14.1564L12.5898 14.9416L11.6641 14.6979L10.8991 13.5769L10.8149 13.4873L11.3806 13.2179L11.3337 12.5968C12.2974 11.7072 12.9005 10.4458 12.9005 9.04431C12.9005 8.69414 12.8593 8.35357 12.7875 8.02421L13.1327 7.60721L13.0993 7.05334L12.3751 6.87365C11.9724 6.08007 11.3601 5.40734 10.6036 4.93231V4.92631L10.5403 4.77984L10.4363 4.89549L9.91943 4.38604L9.21775 3.37115V2.35506L10.4363 1L11.6552 2.69362V3.54043L11.1624 4.0879C11.6633 4.40365 12.1122 4.79104 12.4963 5.23366L12.9032 4.52171L14.7632 3.8806L14.9597 6.1541L14.4976 6.9633L13.6429 7.25784ZM12.4174 7.3839L10.5221 9.6554L10.7481 12.6312L8.0466 11.4919L5.34511 12.6312L5.5715 9.6554L3.67576 7.3839L6.51665 6.68396L8.0466 4.14073L9.57655 6.68396L12.4174 7.3839ZM5.56373 4.9115L5.46005 4.79584L5.39676 4.94271V4.94872C4.64072 5.42535 4.02912 6.10008 3.62606 6.89606L2.96631 7.05974L2.97447 7.62762L3.23658 7.94377C3.14804 8.30795 3.0995 8.68733 3.0995 9.07832C3.0995 10.5242 3.73672 11.8221 4.7475 12.7189L4.71527 13.1467L5.1696 13.5453L5.18668 13.5381L5.10086 13.6297L4.33589 14.7555L3.41015 15L1.21153 14.2112L2.3454 12.5428L3.07931 12.3487C2.82807 11.9769 2.61722 11.5759 2.45568 11.1513L1.8305 11.369L0.8671 10.9332L0 8.71294L2.01146 8.30915L2.12135 8.37358C2.16717 7.999 2.24444 7.63402 2.35744 7.28425L1.50277 6.98851L1.04029 6.17571L1.23677 3.8926L3.09718 4.53612L3.50374 5.25166C3.88817 4.80665 4.33667 4.41766 4.83759 4.10111L4.34521 3.55124V2.70083L5.56373 1L6.78264 2.36066V3.38116L6.08057 4.40005L5.56373 4.9115Z" fill="#AD9963"/>
</g>
</svg>
