<svg width="11" height="13" viewBox="0 0 11 13" fill="none" xmlns="http://www.w3.org/2000/svg">
<g id="Frame">
<path id="Vector" fill-rule="evenodd" clip-rule="evenodd" d="M10 10.1875C10 10.1875 9.27851 10.7408 8.1815 11C6.76935 11.3333 4.23022 11.3333 2.81807 11C1.72106 10.7408 1 10.1875 1 10.1875L2.38646 4.96888C2.38646 4.96888 3.4338 4.67137 4.2375 4.65662C3.8243 4.30138 3.56225 3.77547 3.56225 3.18761C3.56225 2.11725 4.42975 1.25 5.49979 1.25C6.56982 1.25 7.43732 2.11725 7.43732 3.18761C7.43732 3.77547 7.17527 4.30138 6.76207 4.65662C7.56577 4.67137 8.61311 4.96888 8.61311 4.96888L10 10.1875ZM5.5152 2.33511C5.05319 2.33511 4.67853 2.70974 4.67853 3.17202C4.67853 3.6343 5.05319 4.0085 5.5152 4.0085C5.97721 4.0085 6.3523 3.6343 6.3523 3.17202C6.3523 2.70974 5.97721 2.33511 5.5152 2.33511Z" fill="#B8A672"/>
</g>
</svg>
