<svg width="26" height="25" viewBox="0 0 26 25" fill="none" xmlns="http://www.w3.org/2000/svg">
<path id="Vector" fill-rule="evenodd" clip-rule="evenodd" d="M25.1673 21.8965L22.7823 24.2805L21.3293 23.8985L16.0273 17.8425C12.2433 20.3605 7.08433 19.9535 3.74633 16.6175C-0.058672 12.8155 -0.058672 6.6525 3.74633 2.8515C7.55033 -0.9505 13.7193 -0.9505 17.5243 2.8515C20.8623 6.1865 21.2703 11.3405 18.7503 15.1225L24.8313 20.4385L25.1673 21.8965ZM15.6833 4.6925C12.8953 1.9085 8.37733 1.9085 5.59033 4.6925C2.80233 7.4775 2.80233 11.9925 5.59033 14.7775C8.37733 17.5615 12.8953 17.5615 15.6833 14.7775C18.4703 11.9925 18.4703 7.4775 15.6833 4.6925Z" fill="#566474"/>
</svg>
