<svg width="54" height="54" viewBox="0 0 54 54" fill="none" xmlns="http://www.w3.org/2000/svg">
<g id="Group 1">
<path id="Vector" d="M14.1552 26.8771C11.6874 27.7576 8.8241 27.2098 6.84819 25.2339C4.11452 22.5003 4.11451 18.0681 6.84818 15.3344C9.58185 12.6008 14.014 12.6008 16.7477 15.3344C18.7236 17.3103 19.2713 20.1736 18.3908 22.6415" stroke="white" stroke-width="2" stroke-miterlimit="10" stroke-linecap="round" stroke-linejoin="round"/>
<path id="Vector_2" d="M20.9902 33.7188C19.8185 32.5471 17.9192 32.5471 16.7475 33.7188C15.5759 34.8904 15.5759 36.7897 16.7475 37.9614L21.6973 42.9111C27.5549 48.7688 37.0528 48.7688 42.9105 42.9111C48.7682 37.0535 48.7682 27.5556 42.9105 21.6979L37.9607 16.7482C36.7891 15.5765 34.8898 15.5765 33.7181 16.7482C32.5464 17.9199 32.5464 19.8192 33.7181 20.9908L32.3039 19.5766C31.1322 18.4049 29.2329 18.4049 28.0612 19.5766C26.8896 20.7483 26.8896 22.6476 28.0612 23.8193L26.647 22.405C25.4753 21.2334 23.5761 21.2334 22.4044 22.405C21.2327 23.5767 21.2327 25.476 22.4044 26.6477L13.9191 18.1624C12.7474 16.9907 10.8481 16.9907 9.67646 18.1624C8.50479 19.3341 8.50479 21.2334 9.67646 22.405L25.2328 37.9614L20.9902 33.7188Z" stroke="#F9DF94" stroke-width="4" stroke-miterlimit="10" stroke-linecap="round" stroke-linejoin="round"/>
</g>
</svg>
