<svg width="48" height="48" viewBox="0 0 48 48" fill="none" xmlns="http://www.w3.org/2000/svg">
<g id="Icon Social Media">
<path id="Vector" d="M39.9156 14.5268C39.9769 14.3053 40.0062 14.1 39.9982 13.9167C39.9782 13.3857 39.6462 13 38.8649 13H35.3743C34.493 13 34.0863 13.5867 33.849 14.1748C33.849 14.1748 31.673 19.1013 29.1651 22.35C28.3517 23.2901 27.9384 23.2667 27.4984 23.2667C27.2624 23.2667 26.6664 22.9528 26.6664 22.0919V14.4872C26.6664 13.4693 26.4358 13 25.6904 13H19.4918C18.9492 13 18.6665 13.4693 18.6665 13.9401C18.6665 14.9184 19.8638 15.1531 19.9998 17.8943V23.208C19.9998 24.4987 19.7958 24.7333 19.3558 24.7333C18.1692 24.7333 15.8332 20.3333 14.2692 14.5664C13.9306 13.4312 13.5919 13 12.7106 13H9.18665C8.16933 13 8 13.5485 8 14.1352C8 15.1927 8.79999 20.9097 13.1666 27.4833C16.3332 32.25 20.5052 35 24.1985 35C26.4358 35 26.6651 34.3737 26.6651 33.3955V29.0365C26.6664 27.8617 26.9104 27.6667 27.6224 27.6667C28.1304 27.6667 29.1664 28.0333 31.1664 30.6C33.473 33.5597 33.8917 35 35.2143 35H38.7049C39.5156 35 39.9809 34.626 39.9996 33.9C40.0036 33.7152 39.9796 33.5084 39.9249 33.2781C39.6662 32.4333 38.4796 30.3683 36.9996 28.4C36.1796 27.3103 35.3703 26.2308 34.9983 25.6441C34.749 25.2613 34.6543 24.9915 34.6663 24.7333C34.6783 24.462 34.8063 24.2039 34.9983 23.8431C34.9636 23.8431 39.4756 16.8749 39.9156 14.5268Z" fill="#B19F63"/>
</g>
</svg>
