<svg>
	<symbol id="external-link" viewBox="0 0 16 16" fill="none" xmlns="http://www.w3.org/2000/svg">
		<path d="M15.2857 0H9.57137C9.17688 0 8.85707 0.31981 8.85707 0.714294C8.85707 1.10878 9.17688 1.42859 9.57137 1.42859H13.5612L6.20917 8.78067C5.93028 9.05957 5.93028 9.51184 6.20917 9.7908C6.34861 9.93024 6.53141 10 6.71421 10C6.89701 10 7.07985 9.93024 7.21925 9.79077L14.5714 2.43872V6.42859C14.5714 6.82307 14.8912 7.14288 15.2857 7.14288C15.6802 7.14288 16 6.82307 16 6.42859V0.714294C16 0.31981 15.6802 0 15.2857 0Z" fill="currentColor"/>
		<path d="M12.2777 7.33332C11.8789 7.33332 11.5555 7.65669 11.5555 8.05555V14.5556H1.44443V4.44443H7.94443C8.34329 4.44443 8.66666 4.12107 8.66666 3.7222C8.66666 3.32333 8.34329 3 7.94443 3H0.722229C0.323363 3 0 3.32336 0 3.72223V15.2778C0 15.6766 0.323363 16 0.722229 16H12.2778C12.6766 16 13 15.6766 13 15.2778V8.05555C13 7.65669 12.6766 7.33332 12.2777 7.33332Z" fill="currentColor"/>
	</symbol>
	<symbol id="download" viewBox="0 0 36 36" fill="none" xmlns="http://www.w3.org/2000/svg">
		<path fill-rule="evenodd" clip-rule="evenodd" d="M35.9966 22.1831C35.9967 25.6738 35.9974 29.1644 35.9964 32.6552C35.9958 34.702 34.701 35.9994 32.6578 35.9996C22.8853 36.0001 13.1126 36.0001 3.34002 35.9996C1.29619 35.9994 0.00143158 34.7026 0.00112071 32.6559C0.000498982 27.7948 -0.00178069 22.9337 0.00277867 18.0725C0.00402213 16.7405 1.19443 15.8396 2.42359 16.2237C3.21785 16.4718 3.72228 17.186 3.72332 18.0879C3.72653 20.8417 3.72456 23.5955 3.72456 26.3493C3.72456 28.1722 3.72456 29.9951 3.72456 31.818C3.72456 31.957 3.72456 32.0961 3.72456 32.2688C13.2613 32.2688 22.7357 32.2688 32.273 32.2688C32.273 32.1153 32.273 31.9671 32.273 31.8188C32.273 27.2421 32.2715 22.6654 32.2742 18.0887C32.2749 17.0449 32.978 16.2383 33.952 16.1445C35.0421 16.0396 35.9815 16.878 35.9926 17.9942C36.0065 19.3905 35.9965 20.7868 35.9966 22.1831ZM23.8058 23.5165C22.3708 24.9522 20.9361 26.3882 19.4998 27.8226C18.5151 28.8061 17.4823 28.8037 16.4937 27.8156C14.244 25.5671 11.9936 23.3193 9.74789 21.067C8.97404 20.2909 8.90804 19.2104 9.57184 18.4511C10.2974 17.6212 11.5059 17.5814 12.3232 18.3851C13.4938 19.5365 14.6481 20.7045 15.8102 21.8645C15.8973 21.9515 15.991 22.0321 16.1369 22.1667C16.1369 21.9563 16.1369 21.819 16.1369 21.6818C16.1369 15.1132 16.136 8.54457 16.1378 1.97602C16.1382 0.828912 16.9464 -0.0117684 18.0234 0.000124612C18.9932 0.01088 19.801 0.782374 19.8561 1.75388C19.8648 1.90859 19.8604 2.06413 19.8604 2.21925C19.8607 8.69742 19.8607 15.1755 19.8607 21.6537C19.8607 21.7954 19.8607 21.9372 19.8607 22.1725C20.0058 22.0372 20.1028 21.9521 20.1939 21.8611C21.3556 20.7007 22.5075 19.5301 23.6803 18.381C24.7217 17.3607 26.3992 17.7676 26.7961 19.1318C27.0043 19.8479 26.8289 20.4871 26.2999 21.0189C25.4702 21.853 24.6376 22.6844 23.8058 23.5165Z" fill="currentColor"/>
	</symbol>
	<symbol id="dropdown-lang" xmlns="http://www.w3.org/2000/svg" viewBox="0 0 9 6" fill="none">
		<path d="M5.20711 4.79289C4.81658 5.18342 4.18342 5.18342 3.79289 4.79289L1.20711 2.20711C0.577144 1.57714 1.02331 0.5 1.91421 0.5L7.08579 0.500001C7.97669 0.500001 8.42286 1.57714 7.79289 2.20711L5.20711 4.79289Z" fill="currentColor"/>
	</symbol>
	<symbol id="mobile-submenu" viewBox="0 0 32 32" fill="none" xmlns="http://www.w3.org/2000/svg">
		<path fill-rule="evenodd" clip-rule="evenodd" d="M25.658 9L28 11.2913L18.2858 20.7951L16.0832 23L16.0573 22.9753L16.0436 22.9887L14.8448 21.816L4 11.4466L6.31306 9.13117L16.0287 18.4207L25.658 9Z" fill="currentColor"/>
	</symbol>
	<symbol id="progressbar-toggler" viewBox="0 0 16 16" fill="none" xmlns="http://www.w3.org/2000/svg">
		<path fill-rule="evenodd" clip-rule="evenodd" d="M8.02949 2L4.83823 5.20267L8.02949 8.40534L11.2207 5.20267L8.02949 2ZM12.829 6.81944L14 7.99464L9.1429 12.8691L8.0416 14L8.02867 13.9873L8.0218 13.9942L7.42242 13.3927L2 8.07431L3.15653 6.88671L8.01433 11.6513L12.829 6.81944Z" fill="currentColor"/>
	</symbol>
	<symbol id="scroll-down" viewBox="0 0 40 40" fill="none" xmlns="http://www.w3.org/2000/svg">
		<path fill-rule="evenodd" clip-rule="evenodd" d="M13.1384 10.6759L20.1881 3.60719L27.2378 10.6759L20.1881 17.7445L13.1384 10.6759ZM9.5409 10.6759L11.3397 8.87227L18.3894 1.8036L20.1881 0L21.9869 1.8036L29.0366 8.87227L30.8354 10.6759L29.0366 12.4795L21.9869 19.5481L20.1881 21.3517L18.3894 19.5481L11.3397 12.4795L9.5409 10.6759ZM36.0931 16.1709L40 20.0883L23.9526 36.1789L20.2282 40L20.1844 39.9572L20.161 39.9806L18.1205 37.9346L0 20.1775L3.85863 16.2187L20.1366 32.1702L36.0931 16.1709Z" fill="currentColor"/>
	</symbol>
	<symbol id="support-arrow" viewBox="0 0 16 16" fill="none" xmlns="http://www.w3.org/2000/svg">
		<path fill-rule="evenodd" clip-rule="evenodd" d="M3 1.56135L4.63664 -7.154e-08L11.4251 6.47613L13 7.94454L12.9823 7.96177L12.992 7.97094L12.1543 8.7701L4.7476 16L3.09369 14.458L9.7291 7.98089L3 1.56135Z" fill="currentColor"/>
	</symbol>
</svg>
