<svg width="64" height="64" viewBox="0 0 64 64" fill="none" xmlns="http://www.w3.org/2000/svg">
<g filter="url(#filter0_d_347_10282)">
<path fill-rule="evenodd" clip-rule="evenodd" d="M57.8421 37.4745C52.6558 43.6521 46.476 48.1208 38.863 50.0593C30.6125 52.1587 22.8532 50.6978 15.5699 46.1399C11.5667 43.6347 8.14551 40.3963 5.26893 36.4922C4.91289 36.0092 4.90885 35.623 5.2659 35.1477C10.5228 28.1564 17.0808 23.3537 25.3142 21.3619C25.9163 21.2162 26.5316 21.1313 27.3577 20.9769C26.2885 23.0393 25.3626 24.9506 24.3288 26.7912C23.0337 29.0951 21.9938 31.4905 21.5944 34.1676C20.8178 39.3738 23.6379 44.5202 28.2977 46.4119C34.5652 48.9552 41.3573 44.6583 42.4032 37.4886C42.6584 35.7394 42.5071 34.0294 42.0371 32.3368C41.4339 30.1612 40.4606 28.1836 39.3683 26.2516C38.4615 24.6482 37.6728 22.9686 36.7237 21.1128C37.6375 21.3108 38.3607 21.4294 39.0647 21.6274C46.9621 23.8443 53.3558 28.5491 58.5391 35.2456C58.7115 35.4675 58.8467 35.7199 59 35.9592C59 36.0049 59 36.0516 59 36.0984C58.6137 36.5575 58.2274 37.0154 57.8421 37.4745ZM23.5189 45.7592C19.1576 41.2372 18.2135 35.0574 20.9862 29.2964C21.5067 28.2151 21.9797 27.1055 22.5314 25.8839C17.1918 27.991 12.8204 31.361 9.10672 35.759C11.7967 39.7697 20.0432 45.5558 23.8154 46.017C23.7468 45.8984 23.6106 45.8538 23.5189 45.7592ZM41.7123 26.4126C42.1813 27.4493 42.6533 28.4838 43.1183 29.5216C45.4371 34.6995 45.0236 39.6044 41.8192 44.2156C41.4299 44.7769 40.9538 45.2686 40.3981 45.9343C46.0594 43.8403 50.687 40.417 54.6962 35.8917C50.9996 31.6765 46.7927 28.4087 41.7123 26.4126ZM39.6688 37.8694C39.2442 39.8872 38.3677 41.6114 36.413 42.4969C35.5224 42.9004 34.6913 43.4019 33.716 43.6021C31.7966 43.9991 30.0002 43.6663 28.2462 42.8123C25.0842 41.2731 24.0978 37.9042 24.5275 34.6592C24.9299 31.6177 26.1372 28.9091 27.276 26.1559C28.6668 22.7902 30.2665 19.5159 31.258 15.9708C31.4375 15.3312 31.5313 14.6633 31.6675 14.0084C31.7381 13.6733 31.8157 13.3416 31.8904 13.0076C31.966 13.0054 32.0407 13.0033 32.1153 13C32.2605 13.7332 32.3503 14.4859 32.5611 15.1952C33.0311 16.7823 33.3428 18.4869 34.1114 19.8967C36.0509 23.4571 37.4811 27.2557 38.9073 31.051C39.7152 33.2027 40.159 35.5349 39.6688 37.8694Z" fill="#B19F63"/>
</g>
<defs>
<filter id="filter0_d_347_10282" x="2.172" y="12.172" width="59.656" height="43.656" filterUnits="userSpaceOnUse" color-interpolation-filters="sRGB">
<feFlood flood-opacity="0" result="BackgroundImageFix"/>
<feColorMatrix in="SourceAlpha" type="matrix" values="0 0 0 0 0 0 0 0 0 0 0 0 0 0 0 0 0 0 127 0" result="hardAlpha"/>
<feOffset dy="2"/>
<feGaussianBlur stdDeviation="1.414"/>
<feColorMatrix type="matrix" values="0 0 0 0 0 0 0 0 0 0 0 0 0 0 0 0 0 0 0.3 0"/>
<feBlend mode="normal" in2="BackgroundImageFix" result="effect1_dropShadow_347_10282"/>
<feBlend mode="normal" in="SourceGraphic" in2="effect1_dropShadow_347_10282" result="shape"/>
</filter>
</defs>
</svg>
