<svg width="64" height="64" viewBox="0 0 64 64" fill="none" xmlns="http://www.w3.org/2000/svg">
<g id="Subclasses" clip-path="url(#clip0_1533_1142)">
<g id="Vector" filter="url(#filter0_d_1533_1142)">
<path fill-rule="evenodd" clip-rule="evenodd" d="M48.7496 23.5195C48.7455 25.2369 48.7761 26.9543 48.7669 28.6706C48.7629 29.4951 49.4268 29.7474 49.8886 30.1463C50.526 30.6981 51.2267 31.1697 52 31.7492C51.3932 32.3053 50.8845 32.9095 50.2573 33.3169C49.0182 34.1232 48.7465 35.3209 48.7557 36.695C48.7659 38.3215 48.7526 39.9469 48.7741 41.5733C48.7772 41.8033 48.8752 42.0578 48.9968 42.2567C49.2195 42.6224 49.4861 42.9603 49.7466 43.3003C50.4677 44.2371 50.43 44.1879 49.6189 44.96C48.1653 46.3437 46.7219 47.7456 45.3521 49.2181C42.7207 52.0423 40.1393 54.9188 37.5488 57.7836C37.1136 58.2637 36.7459 58.8091 36.322 59.2989C35.6886 60.0324 34.7591 60.196 33.7682 59.763C34.7969 57.8328 35.66 55.8748 36.0727 53.7586C36.3271 52.4475 37.2291 51.683 38.0279 50.8403C39.5387 49.2459 41.1333 47.7371 42.6819 46.1812C43.0281 45.8326 43.3468 45.4487 43.6431 45.053C44.1497 44.374 44.4572 43.6532 44.4399 42.7293C44.3816 39.6389 44.4 36.5474 44.4051 33.457C44.4113 29.1176 44.4511 24.7782 44.4153 20.4398C44.4113 19.9618 44.1028 19.3876 43.7677 19.0283C42.6522 17.8285 41.4663 16.7014 40.2936 15.5615C40.17 15.4417 39.9585 15.3615 39.7879 15.3615C38.6244 15.3636 37.462 15.4064 36.2995 15.3957C36.1279 15.3946 35.8122 15.1797 35.8092 15.0589C35.7765 13.4645 35.7877 11.869 35.7877 10.1784C36.799 10.1784 37.8379 10.2906 38.8461 10.1538C40.6205 9.91316 41.8493 10.5858 43.0384 11.9706C45.2325 14.5263 47.6321 16.8917 49.9376 19.3448C50.193 19.6154 50.3952 19.9415 50.574 20.1768C49.9866 21.0718 49.4268 21.8877 48.911 22.7346C48.7812 22.9474 48.7506 23.2554 48.7496 23.5195ZM35.1769 17.4906C37.085 17.7162 38.9176 18.2348 40.6736 19.04C41.0628 19.2186 41.4714 19.4068 41.785 19.6934C41.978 19.8699 42.1609 20.3029 42.0833 20.5168C41.5357 22.0364 40.9198 23.5302 40.3161 25.0562C40.0821 24.9803 39.8788 24.9043 39.6705 24.8466C39.2404 24.729 39.1015 24.5151 39.1842 24.004C39.3885 22.74 38.3486 21.4461 36.9236 21.1841C36.3679 21.0825 35.7785 21.1253 35.2116 21.1809C35.0512 21.1969 34.7918 21.4899 34.7887 21.661C34.7519 23.234 34.7519 24.8092 34.7713 26.3833C34.7744 26.5843 34.9317 26.8003 35.0594 26.9778C35.468 27.5435 35.8909 28.0985 36.3199 28.6492C36.5886 28.9946 36.5263 29.2705 36.1963 29.5143C36.0176 29.6469 35.8306 29.7688 35.6641 29.9175C35.0584 30.4596 34.7172 31.0777 34.7274 31.9856C34.7713 35.9454 34.8234 39.9094 34.71 43.866C34.6396 46.3501 34.3781 48.8385 34.0256 51.2991C33.6834 53.6848 33.1308 56.0395 32.6354 58.4006C32.5281 58.9182 32.2758 59.4015 31.9244 59.8966C31.7548 59.4635 31.5618 59.0379 31.4188 58.5952C30.4708 55.6759 30.1633 52.6336 29.7547 49.6009C28.9723 43.7869 29.338 37.9493 29.2828 32.1224C29.2726 31.021 28.8619 30.3024 28.0805 29.7047C27.3542 29.1486 27.3522 29.1518 27.8905 28.3765C27.9548 28.2835 27.9957 28.1637 28.0774 28.0953C29.2603 27.1019 29.3696 25.762 29.2685 24.3173C29.2174 23.5944 29.292 22.8608 29.3298 22.1326C29.3686 21.3787 29.197 21.2921 28.438 21.1381C27.4032 20.9285 26.5574 21.2643 25.7586 21.8546C25.112 22.3315 24.6697 22.9988 24.8229 23.8393C24.9537 24.5515 24.684 24.7985 24.1058 24.9172C23.9802 24.9428 23.8607 24.9995 23.6094 25.0861C23.352 24.2745 23.1415 23.5088 22.8678 22.7678C22.6185 22.0962 22.2916 21.4568 22.0158 20.7948C21.7441 20.1458 21.9127 19.8378 22.5603 19.5597C23.1354 19.3117 23.6584 18.9021 24.2488 18.7246C25.779 18.2648 27.3225 17.8381 28.8824 17.5066C30.0173 17.2649 30.1276 17.2585 30.196 16.0619C30.3401 13.5479 30.4647 11.0338 30.5965 8.5198C30.6404 7.67288 30.337 7.18418 29.5607 6.85589C29.3594 6.77035 29.1582 6.68801 28.9631 6.60781C29.1469 5.22835 30.3227 4.13868 31.7293 4.01357C33.3004 3.87455 34.5609 4.8113 35.0706 6.48055C34.6222 6.79173 34.1462 7.06121 33.7488 7.42372C33.5547 7.60016 33.3974 7.95518 33.4087 8.22038C33.5159 10.805 33.6569 13.3885 33.8009 15.9699C33.8724 17.2371 33.9797 17.3494 35.1769 17.4906ZM27.6985 15.4171C26.537 15.3818 25.3745 15.3626 24.2121 15.3604C24.0415 15.3604 23.831 15.4449 23.7074 15.5657C22.5511 16.6885 21.4009 17.8199 20.268 18.9684C19.8043 19.4378 19.5418 19.9768 19.553 20.7179C19.6102 24.4018 19.6245 28.0878 19.6235 31.7717C19.6225 35.6064 19.5448 39.4421 19.6092 43.2747C19.6194 43.9259 20.0494 44.6894 20.4999 45.192C21.9985 46.8602 23.5941 48.4343 25.1518 50.0436C25.8832 50.7986 26.6269 51.5407 27.3368 52.3171C27.5238 52.5224 27.6586 52.8186 27.726 53.0977C28.2909 55.4289 29.0887 57.6649 30.2389 59.7565C29.2787 60.1982 28.3246 60.0196 27.677 59.3042C24.0353 55.2781 20.4049 51.2392 16.7398 47.2355C15.7806 46.1876 14.7141 45.2444 13.6068 44.1665C13.9521 43.6949 14.3505 43.0822 14.8204 42.5347C15.1564 42.1422 15.2596 41.7316 15.2474 41.2269C15.1973 39.24 15.1534 37.2521 15.1483 35.2653C15.1462 34.4686 14.5681 34.1275 14.1278 33.6901C13.4689 33.0357 12.7549 32.4433 12 31.7653C12.7191 31.2156 13.3637 30.7205 14.0103 30.2265C14.1503 30.1185 14.2902 30.0094 14.4363 29.91C15.0931 29.4715 15.2852 28.862 15.2504 28.0514C15.1932 26.6581 15.2259 25.2583 15.2729 23.8628C15.2954 23.2052 15.1238 22.6705 14.7427 22.154C14.3045 21.5605 13.9235 20.92 13.4526 20.1992C13.615 19.9693 13.8081 19.6186 14.0706 19.3384C16.7868 16.4394 19.5193 13.5586 22.2293 10.6553C22.547 10.3152 22.8616 10.1634 23.3152 10.1687C24.9384 10.1923 26.5615 10.1773 28.2255 10.1773C28.249 10.3708 28.2838 10.5205 28.2817 10.6703C28.2623 12.0668 28.2215 13.4623 28.2225 14.8578C28.2225 15.2759 28.0999 15.4289 27.6985 15.4171Z" fill="#B19F63"/>
</g>
</g>
<defs>
<filter id="filter0_d_1533_1142" x="9.172" y="3.172" width="45.656" height="61.656" filterUnits="userSpaceOnUse" color-interpolation-filters="sRGB">
<feFlood flood-opacity="0" result="BackgroundImageFix"/>
<feColorMatrix in="SourceAlpha" type="matrix" values="0 0 0 0 0 0 0 0 0 0 0 0 0 0 0 0 0 0 127 0" result="hardAlpha"/>
<feOffset dy="2"/>
<feGaussianBlur stdDeviation="1.414"/>
<feColorMatrix type="matrix" values="0 0 0 0 0 0 0 0 0 0 0 0 0 0 0 0 0 0 0.3 0"/>
<feBlend mode="normal" in2="BackgroundImageFix" result="effect1_dropShadow_1533_1142"/>
<feBlend mode="normal" in="SourceGraphic" in2="effect1_dropShadow_1533_1142" result="shape"/>
</filter>
<clipPath id="clip0_1533_1142">
<rect width="64" height="64" fill="white"/>
</clipPath>
</defs>
</svg>
