<svg width="64" height="64" viewBox="0 0 64 64" fill="none" xmlns="http://www.w3.org/2000/svg">
<g id="Subclasses">
<g id="Vector" filter="url(#filter0_d_1533_1146)">
<path fill-rule="evenodd" clip-rule="evenodd" d="M52 37.1536C51.9546 37.2197 51.9082 37.2858 51.8628 37.3518C50.9721 36.9354 50.0785 36.527 49.1916 36.1006C48.2668 35.6571 47.3515 35.1906 46.4277 34.7442C45.8408 34.4599 45.377 34.577 44.9208 35.1156C44.2298 35.9284 43.4802 36.6902 42.7059 37.4159C42.2837 37.8113 42.0812 38.1807 42.3736 39.2248C43.1015 41.8224 43.8597 44.4111 44.6047 47.0047C44.633 47.1038 44.6472 47.2089 44.6671 47.312C44.6198 47.3551 44.5725 47.3991 44.5251 47.4422C44.3879 47.248 44.2573 47.0468 44.1106 46.8596C42.5923 44.9216 41.0703 42.9866 39.5511 41.0496C39.1185 40.4981 38.8336 40.45 38.2003 40.7663C37.7488 40.9916 37.2765 41.1718 36.7057 41.418C36.6291 39.7943 36.5458 38.2968 36.5041 36.7973C36.4994 36.6281 36.6944 36.3598 36.8543 36.2938C39.4734 35.2167 41.3201 33.1185 43.1214 30.9773C44.7769 29.0103 45.3534 26.6479 45.2038 24.0552C45.077 21.87 44.6595 19.7899 43.305 18.0391C43.1261 17.8088 42.9558 17.5716 42.7807 17.3384C42.828 17.2813 42.8753 17.2252 42.9226 17.1682C43.1101 17.2893 43.3069 17.3974 43.4839 17.5346C45.5663 19.1322 46.3917 21.4526 46.848 24.0082C47.1925 25.9412 47.1944 27.8621 46.8262 29.7801C46.6681 30.6019 46.8981 31.2076 47.4282 31.8092C48.9758 33.567 50.4789 35.3688 52 37.1536ZM39.3068 29.7861C39.3532 29.0734 39.3864 28.5388 39.4242 28.0053C39.4772 27.2545 39.5567 26.5037 39.57 25.752C39.5738 25.5578 39.4043 25.2234 39.2586 25.1834C38.2363 24.9071 37.1951 24.4817 36.1681 24.5067C34.6688 24.5427 33.0843 24.6799 32.1074 26.2865C31.2962 25.1213 30.1926 24.771 28.9318 24.5808C27.4779 24.3615 26.1726 24.9261 24.8086 25.1764C24.6562 25.2044 24.4452 25.5718 24.4546 25.773C24.5029 26.8901 24.6108 28.0033 24.6979 29.1184C24.7111 29.2826 24.7216 29.4468 24.7329 29.6109C24.6913 29.6229 24.6496 29.6359 24.6089 29.648C23.8081 28.5138 23.0102 27.3766 22.2047 26.2475C21.9103 25.8351 21.6235 25.4116 21.2846 25.0432C20.9146 24.6388 20.9164 24.3846 21.3727 24.0372C22.7811 22.9681 24.3354 22.2324 25.9956 21.7669C27.033 21.4746 28.1064 21.3244 29.1656 21.1202C30.1348 20.934 30.1301 20.924 30.1822 19.895C30.3289 16.972 30.4775 14.049 30.663 11.129C30.7009 10.5374 30.5002 10.2611 30.007 10.0889C29.335 9.85269 28.6762 9.57841 28.0184 9.32415C28.3847 7.66845 30.2087 6.0538 31.868 6.00174C33.5538 5.94969 35.1468 7.06383 36.0687 9.30012C35.3853 9.56539 34.7104 9.84468 34.0232 10.0889C33.5329 10.2631 33.3313 10.5274 33.3701 11.128C33.5613 14.1341 33.7128 17.1432 33.8472 20.1532C33.8718 20.7058 34.062 20.9571 34.5703 21.0602C35.9457 21.3385 37.3617 21.5136 38.6727 22.0001C40.0376 22.5056 41.3022 23.3205 42.6027 24.0162C42.7939 24.1173 42.9406 24.3095 43.1186 24.4697C41.8672 26.2154 40.6453 27.9202 39.3068 29.7861ZM19.1133 22.6908C18.8464 25.3025 19.0934 27.8501 20.376 30.1805C20.8625 31.0624 21.473 31.8212 22.3382 32.3367C22.6486 32.5209 22.9051 32.8262 23.1484 33.1105C24.3013 34.4599 25.7022 35.4259 27.2526 36.1827C27.4476 36.2778 27.7003 36.559 27.6937 36.7442C27.6435 38.2438 27.5375 39.7413 27.4419 41.358C26.8901 41.0987 26.3846 40.9255 25.9454 40.6382C25.4305 40.3019 25.0822 40.435 24.7443 40.8875C23.8488 42.0857 22.9648 43.2939 22.0428 44.4691C21.2572 45.4722 20.4252 46.4352 19.4928 47.3361C19.6225 46.8666 19.7541 46.3981 19.8838 45.9296C20.5094 43.6803 21.173 41.442 21.738 39.1757C21.9236 38.431 21.8185 37.6572 21.1862 37.0415C20.4858 36.3588 19.8809 35.566 19.1966 34.8643C19.0129 34.6761 18.6353 34.4839 18.4403 34.561C17.3006 35.0075 16.1866 35.527 15.0706 36.0355C14.0739 36.49 13.0857 36.9635 12 37.3078C12.5017 36.6451 12.9778 35.9584 13.5107 35.3248C14.726 33.8813 15.9982 32.4889 17.1757 31.0124C17.3953 30.7361 17.382 30.1445 17.3092 29.731C16.7535 26.5588 17.206 23.5177 18.3068 20.5566C18.8729 19.0321 20.0816 18.1272 21.19 17.1301C21.2373 17.1622 21.2846 17.1962 21.3329 17.2292C21.297 17.3564 21.2988 17.5255 21.2203 17.6046C19.8431 18.989 19.3083 20.7839 19.1133 22.6908ZM27.0605 33.0665C27.6104 32.5209 28.1036 31.9813 28.6469 31.5069C29.0094 31.1915 29.0624 30.8352 29.0558 30.3767C29.0302 28.748 29.0454 27.1174 29.0454 25.4567C30.8561 25.5157 31.3549 27.0973 32.0753 28.6549C32.3204 28.1775 32.5059 27.9252 32.5873 27.6399C32.9404 26.4046 33.9788 25.4917 35.1515 25.4747C35.1515 27.0833 35.178 28.692 35.1364 30.2986C35.1222 30.8392 35.2159 31.2346 35.6229 31.5869C36.1075 32.0084 36.541 32.4959 37.0787 33.0374C36.6982 33.4749 36.3508 33.9023 35.975 34.3017C35.4951 34.8102 35.1089 35.3088 35.1118 36.1206C35.1307 43.2859 35.1146 50.4523 35.1118 57.6176C35.1118 57.7447 35.1354 57.8719 35.1477 58C33.1127 58 31.0776 58 29.0416 58C29.0492 57.4194 29.0615 56.8398 29.0615 56.2602C29.0633 49.5463 29.0577 42.8325 29.0709 36.1186C29.0728 35.2837 28.7216 34.7522 28.0969 34.2847C27.6975 33.9864 27.422 33.5029 27.0605 33.0665Z" fill="#B19F63"/>
</g>
</g>
<defs>
<filter id="filter0_d_1533_1146" x="9.172" y="5.172" width="45.656" height="57.656" filterUnits="userSpaceOnUse" color-interpolation-filters="sRGB">
<feFlood flood-opacity="0" result="BackgroundImageFix"/>
<feColorMatrix in="SourceAlpha" type="matrix" values="0 0 0 0 0 0 0 0 0 0 0 0 0 0 0 0 0 0 127 0" result="hardAlpha"/>
<feOffset dy="2"/>
<feGaussianBlur stdDeviation="1.414"/>
<feColorMatrix type="matrix" values="0 0 0 0 0 0 0 0 0 0 0 0 0 0 0 0 0 0 0.3 0"/>
<feBlend mode="normal" in2="BackgroundImageFix" result="effect1_dropShadow_1533_1146"/>
<feBlend mode="normal" in="SourceGraphic" in2="effect1_dropShadow_1533_1146" result="shape"/>
</filter>
</defs>
</svg>
