<svg width="64" height="64" viewBox="0 0 64 64" fill="none" xmlns="http://www.w3.org/2000/svg">
<g filter="url(#filter0_d_346_10177)">
<path fill-rule="evenodd" clip-rule="evenodd" d="M58.7652 32.4914C56.0499 36.0526 52.8509 39.0397 49.1902 41.4559C42.5503 45.8403 35.357 47.8534 27.5509 46.6624C18.3035 45.2523 11.0407 40.1847 5.23624 32.5748C4.90767 32.1439 4.92782 31.7783 5.25942 31.3784C6.06976 30.3959 6.82769 29.361 7.6844 28.4266C12.7148 22.9368 18.6532 19.1318 25.7931 17.6233C27.1215 17.3421 28.4771 17.2042 29.8206 17C31.0734 17 32.3273 17 33.5811 17C33.7242 17.0385 33.8663 17.0994 34.0114 17.1123C39.833 17.5869 45.1143 19.6963 49.9351 23.1271C53.4113 25.602 56.5559 28.4758 59 32.1322C59 32.1781 59 32.2241 59 32.2701C58.9214 32.3428 58.8307 32.4059 58.7652 32.4914ZM9.1791 31.9312C12.5031 36.2333 18.5424 40.6476 23.7955 42.1219C18.0072 36.5989 18.0213 27.2495 23.8943 21.7554C17.978 23.729 13.2207 27.2453 9.1791 31.9312ZM32.0511 20.8541C26.2719 20.8445 21.5519 25.802 21.5207 31.9151C21.4904 38.0786 26.1741 43.1108 31.9664 43.1365C37.7749 43.1622 42.512 38.1855 42.5291 32.0402C42.5462 25.8811 37.8475 20.8648 32.0511 20.8541ZM40.7411 22.1959C45.9468 28.7645 45.9529 35.2486 40.6998 41.844C46.1746 39.8084 50.7071 36.461 54.6812 32.0659C50.7252 27.6387 46.1988 24.2411 40.7411 22.1959ZM39.6153 38.8408C38.7062 40.5354 36.639 41.3276 34.8802 40.7599C33.3271 40.2585 32.5218 38.565 33.0872 36.9891C33.5206 35.7832 34.6736 35.3181 35.7329 35.9243C36.5039 36.3637 36.6753 36.9496 36.3356 38.3298C36.7388 38.0529 37.0825 37.9043 37.3113 37.6424C37.9422 36.9218 38.0379 35.2711 37.5501 34.3901C37.0502 33.4899 35.8579 32.9233 34.8601 33.1874C34.1717 33.3691 33.4662 33.5744 32.8503 33.9293C32.5238 34.1154 32.3051 34.6146 32.1529 35.022C31.2458 37.4499 28.9166 38.9221 26.5521 38.4324C24.3085 37.9674 21.7011 35.7126 22.3441 32.6571C22.5195 31.8264 22.9559 30.97 23.4911 30.3329C24.6028 29.0072 26.5077 29.1472 27.5368 30.4911C28.2816 31.4618 28.1284 32.6838 27.1769 33.3649C26.3374 33.9657 25.645 33.7626 24.9273 32.7063C24.6199 33.3381 24.7328 34.1389 25.3033 34.728C26.0904 35.5405 26.9965 36.1509 28.1536 35.7105C29.1937 35.3138 29.7813 34.4703 29.9466 33.3071C30.0212 32.7865 30.1684 32.2605 30.1361 31.7473C30.1139 31.3827 29.9093 30.9797 29.6805 30.6889C27.9581 28.5004 28.0488 25.2182 29.9668 23.404C31.1117 22.321 32.4603 21.6998 34.0447 21.7693C35.9425 21.8516 37.6973 23.5494 37.923 25.5518C38.1125 27.2324 36.8083 28.7388 35.2128 28.6832C34.1092 28.6447 33.3331 27.6825 33.4591 26.5097C33.5508 25.6512 34.0618 25.246 34.8641 25.3829C35.0072 25.4085 35.1554 25.4021 35.3217 25.4117C34.972 24.6505 34.0245 24.2496 33.1779 24.5276C32.1468 24.8676 31.2236 25.4053 31.0331 26.6594C30.8618 27.7852 31.2619 28.7271 32.1106 29.4412C32.4321 29.7117 32.7173 30.0624 33.0791 30.2377C33.4672 30.4248 33.9379 30.5691 34.3501 30.521C36.5211 30.2655 38.3947 30.8353 39.6052 32.8399C40.7794 34.7825 40.6786 36.8608 39.6153 38.8408Z" fill="#B19F63"/>
</g>
<defs>
<filter id="filter0_d_346_10177" x="2.172" y="16.172" width="59.656" height="35.656" filterUnits="userSpaceOnUse" color-interpolation-filters="sRGB">
<feFlood flood-opacity="0" result="BackgroundImageFix"/>
<feColorMatrix in="SourceAlpha" type="matrix" values="0 0 0 0 0 0 0 0 0 0 0 0 0 0 0 0 0 0 127 0" result="hardAlpha"/>
<feOffset dy="2"/>
<feGaussianBlur stdDeviation="1.414"/>
<feColorMatrix type="matrix" values="0 0 0 0 0 0 0 0 0 0 0 0 0 0 0 0 0 0 0.3 0"/>
<feBlend mode="normal" in2="BackgroundImageFix" result="effect1_dropShadow_346_10177"/>
<feBlend mode="normal" in="SourceGraphic" in2="effect1_dropShadow_346_10177" result="shape"/>
</filter>
</defs>
</svg>
