<svg width="64" height="64" viewBox="0 0 64 64" fill="none" xmlns="http://www.w3.org/2000/svg">
<g filter="url(#filter0_d_347_10282)">
<path fill-rule="evenodd" clip-rule="evenodd" d="M57.8421 33.4745C52.6558 39.6521 46.476 44.1208 38.863 46.0593C30.6125 48.1587 22.8532 46.6978 15.5699 42.1399C11.5667 39.6347 8.14551 36.3963 5.26893 32.4922C4.91289 32.0092 4.90885 31.623 5.2659 31.1477C10.5228 24.1564 17.0808 19.3537 25.3142 17.3619C25.9163 17.2162 26.5316 17.1313 27.3577 16.9769C26.2885 19.0393 25.3626 20.9506 24.3288 22.7912C23.0337 25.0951 21.9938 27.4905 21.5944 30.1676C20.8178 35.3738 23.6379 40.5202 28.2977 42.4119C34.5652 44.9552 41.3573 40.6583 42.4032 33.4886C42.6584 31.7394 42.5071 30.0294 42.0371 28.3368C41.4339 26.1612 40.4606 24.1836 39.3683 22.2516C38.4615 20.6482 37.6728 18.9686 36.7237 17.1128C37.6375 17.3108 38.3607 17.4294 39.0647 17.6274C46.9621 19.8443 53.3558 24.5491 58.5391 31.2456C58.7115 31.4675 58.8467 31.7199 59 31.9592C59 32.0049 59 32.0516 59 32.0984C58.6137 32.5575 58.2274 33.0154 57.8421 33.4745ZM23.5189 41.7592C19.1576 37.2372 18.2135 31.0574 20.9862 25.2964C21.5067 24.2151 21.9797 23.1055 22.5314 21.8839C17.1918 23.991 12.8204 27.361 9.10672 31.759C11.7967 35.7697 20.0432 41.5558 23.8154 42.017C23.7468 41.8984 23.6106 41.8538 23.5189 41.7592ZM41.7123 22.4126C42.1813 23.4493 42.6533 24.4838 43.1183 25.5216C45.4371 30.6995 45.0236 35.6044 41.8192 40.2156C41.4299 40.7769 40.9538 41.2686 40.3981 41.9343C46.0594 39.8403 50.687 36.417 54.6962 31.8917C50.9996 27.6765 46.7927 24.4087 41.7123 22.4126ZM39.6688 33.8694C39.2442 35.8872 38.3677 37.6114 36.413 38.4969C35.5224 38.9004 34.6913 39.4019 33.716 39.6021C31.7966 39.9991 30.0002 39.6663 28.2462 38.8123C25.0842 37.2731 24.0978 33.9042 24.5275 30.6592C24.9299 27.6177 26.1372 24.9091 27.276 22.1559C28.6668 18.7902 30.2665 15.5159 31.258 11.9708C31.4375 11.3312 31.5313 10.6633 31.6675 10.0084C31.7381 9.67335 31.8157 9.34157 31.8904 9.00761C31.966 9.00544 32.0407 9.00326 32.1153 9C32.2605 9.73318 32.3503 10.4859 32.5611 11.1952C33.0311 12.7823 33.3428 14.4869 34.1114 15.8967C36.0509 19.4571 37.4811 23.2557 38.9073 27.051C39.7152 29.2027 40.159 31.5349 39.6688 33.8694Z" fill="#B19F63"/>
</g>
<defs>
<filter id="filter0_d_347_10282" x="2.172" y="8.172" width="59.656" height="43.656" filterUnits="userSpaceOnUse" color-interpolation-filters="sRGB">
<feFlood flood-opacity="0" result="BackgroundImageFix"/>
<feColorMatrix in="SourceAlpha" type="matrix" values="0 0 0 0 0 0 0 0 0 0 0 0 0 0 0 0 0 0 127 0" result="hardAlpha"/>
<feOffset dy="2"/>
<feGaussianBlur stdDeviation="1.414"/>
<feColorMatrix type="matrix" values="0 0 0 0 0 0 0 0 0 0 0 0 0 0 0 0 0 0 0.3 0"/>
<feBlend mode="normal" in2="BackgroundImageFix" result="effect1_dropShadow_347_10282"/>
<feBlend mode="normal" in="SourceGraphic" in2="effect1_dropShadow_347_10282" result="shape"/>
</filter>
</defs>
</svg>
