<svg width="42" height="43" viewBox="0 0 42 43" fill="none" xmlns="http://www.w3.org/2000/svg">
<rect y="0.834473" width="42" height="42" rx="10" fill="#071629"/>
<path d="M24.0012 14.4819H8.2085V31.5215H12.6041V25.978H21.0268L24.8698 31.5215H29.7917L25.5541 25.9525C26.8702 25.7481 27.8177 25.2627 28.3968 24.4963C28.9757 23.73 29.2654 22.5036 29.2654 20.8687V19.5914C29.2654 18.6205 29.1602 17.8542 28.9759 17.2666C28.7916 16.6791 28.4757 16.1681 28.0283 15.7082C27.5545 15.274 27.0281 14.9674 26.3964 14.7631C25.7646 14.5843 24.975 14.4819 24.0012 14.4819ZM23.2906 22.2228H12.6041V18.2373H23.2906C23.8958 18.2373 24.317 18.3394 24.5275 18.5183C24.7381 18.6971 24.8698 19.0292 24.8698 19.5146V20.9453C24.8698 21.4561 24.7381 21.7882 24.5275 21.967C24.317 22.1458 23.8959 22.2225 23.2906 22.2225V22.2228Z" fill="white"/>
<path d="M30.7919 15.2729C31.8959 15.2729 32.7915 14.3775 32.7915 13.2729C32.7915 12.1683 31.8959 11.2729 30.7919 11.2729C29.6871 11.2729 28.7915 12.1683 28.7915 13.2729C28.7915 14.3775 29.6871 15.2729 30.7919 15.2729Z" fill="#F71140"/>
</svg>
