<svg>
	<symbol id="twch" viewBox="0 0 32 32" fill="none" xmlns="http://www.w3.org/2000/svg">
		<path id="vector" d="M27.0894 5.15526C25.0498 4.15768 22.8626 3.42271 20.5759 3.00177C20.5342 2.99364 20.4926 3.01394 20.4712 3.05455C20.1899 3.58784 19.8783 4.28356 19.6601 4.83039C17.2005 4.43787 14.7536 4.43787 12.3444 4.83039C12.1262 4.2714 11.8033 3.58784 11.5208 3.05455C11.4993 3.0153 11.4577 2.995 11.4161 3.00177C9.13055 3.42137 6.94341 4.15634 4.90258 5.15526C4.88491 5.16338 4.86977 5.17693 4.85972 5.19451C0.711189 11.8012 -0.425267 18.2454 0.13224 24.6098C0.134763 24.6409 0.15116 24.6707 0.173864 24.6896C2.91095 26.8323 5.56228 28.1331 8.16437 28.9953C8.20602 29.0088 8.25014 28.9926 8.27664 28.956C8.89217 28.06 9.44086 27.1152 9.9113 26.1217C9.93906 26.0635 9.91256 25.9945 9.85582 25.9715C8.98551 25.6195 8.1568 25.1905 7.35964 24.7032C7.29659 24.6639 7.29154 24.5678 7.34954 24.5218C7.5173 24.3878 7.68509 24.2484 7.84527 24.1076C7.87425 24.0819 7.91464 24.0765 7.94871 24.0927C13.1857 26.6415 18.8554 26.6415 24.0306 24.0927C24.0647 24.0751 24.1051 24.0806 24.1353 24.1063C24.2955 24.247 24.4633 24.3878 24.6323 24.5218C24.6903 24.5678 24.6865 24.6639 24.6235 24.7032C23.8263 25.1999 22.9976 25.6195 22.126 25.9701C22.0693 25.9931 22.044 26.0635 22.0718 26.1217C22.5523 27.1138 23.101 28.0586 23.7052 28.9547C23.7304 28.9926 23.7758 29.0088 23.8175 28.9953C26.4322 28.1331 29.0835 26.8323 31.8206 24.6896C31.8446 24.6707 31.8597 24.6423 31.8622 24.6111C32.5294 17.2532 30.7447 10.8618 27.131 5.19585C27.1221 5.17693 27.107 5.16338 27.0894 5.15526ZM10.6934 20.7346C9.11666 20.7346 7.81751 19.1916 7.81751 17.2966C7.81751 15.4016 9.09147 13.8586 10.6934 13.8586C12.3078 13.8586 13.5944 15.4151 13.5692 17.2966C13.5692 19.1916 12.2952 20.7346 10.6934 20.7346ZM21.3263 20.7346C19.7497 20.7346 18.4505 19.1916 18.4505 17.2966C18.4505 15.4016 19.7244 13.8586 21.3263 13.8586C22.9408 13.8586 24.2274 15.4151 24.2022 17.2966C24.2022 19.1916 22.9408 20.7346 21.3263 20.7346Z" fill="#B19F63"/>
	</symbol>
	<symbol id="twch-hovered" viewBox="0 0 42 36" fill="none" xmlns="http://www.w3.org/2000/svg">
		<g filter="url(#filter0_d_413_400)">
		<path d="M32.0894 7.15526C30.0498 6.15768 27.8626 5.42271 25.5759 5.00177C25.5342 4.99364 25.4926 5.01394 25.4712 5.05455C25.1899 5.58784 24.8783 6.28356 24.6601 6.83039C22.2005 6.43787 19.7536 6.43787 17.3444 6.83039C17.1262 6.2714 16.8033 5.58784 16.5208 5.05455C16.4993 5.0153 16.4577 4.995 16.4161 5.00177C14.1305 5.42137 11.9434 6.15634 9.90258 7.15526C9.88491 7.16338 9.86977 7.17693 9.85972 7.19451C5.71119 13.8012 4.57473 20.2454 5.13224 26.6098C5.13476 26.6409 5.15116 26.6707 5.17386 26.6896C7.91095 28.8323 10.5623 30.1331 13.1644 30.9953C13.206 31.0088 13.2501 30.9926 13.2766 30.956C13.8922 30.06 14.4409 29.1152 14.9113 28.1217C14.9391 28.0635 14.9126 27.9945 14.8558 27.9715C13.9855 27.6195 13.1568 27.1905 12.3596 26.7032C12.2966 26.6639 12.2915 26.5678 12.3495 26.5218C12.5173 26.3878 12.6851 26.2484 12.8453 26.1076C12.8743 26.0819 12.9146 26.0765 12.9487 26.0927C18.1857 28.6415 23.8554 28.6415 29.0306 26.0927C29.0647 26.0751 29.1051 26.0806 29.1353 26.1063C29.2955 26.247 29.4633 26.3878 29.6323 26.5218C29.6903 26.5678 29.6865 26.6639 29.6235 26.7032C28.8263 27.1999 27.9976 27.6195 27.126 27.9701C27.0693 27.9931 27.044 28.0635 27.0718 28.1217C27.5523 29.1138 28.101 30.0586 28.7052 30.9547C28.7304 30.9926 28.7758 31.0088 28.8175 30.9953C31.4322 30.1331 34.0835 28.8323 36.8206 26.6896C36.8446 26.6707 36.8597 26.6423 36.8622 26.6111C37.5294 19.2532 35.7447 12.8618 32.131 7.19585C32.1221 7.17693 32.107 7.16338 32.0894 7.15526ZM15.6934 22.7346C14.1167 22.7346 12.8175 21.1916 12.8175 19.2966C12.8175 17.4016 14.0915 15.8586 15.6934 15.8586C17.3078 15.8586 18.5944 17.4151 18.5692 19.2966C18.5692 21.1916 17.2952 22.7346 15.6934 22.7346ZM26.3263 22.7346C24.7497 22.7346 23.4505 21.1916 23.4505 19.2966C23.4505 17.4016 24.7244 15.8586 26.3263 15.8586C27.9408 15.8586 29.2274 17.4151 29.2022 19.2966C29.2022 21.1916 27.9408 22.7346 26.3263 22.7346Z" fill="#F9DF94"/>
		</g>
		<defs>
		<filter id="filter0_d_413_400" x="0" y="0" width="42" height="36" filterUnits="userSpaceOnUse" color-interpolation-filters="sRGB">
		<feFlood flood-opacity="0" result="BackgroundImageFix"/>
		<feColorMatrix in="SourceAlpha" type="matrix" values="0 0 0 0 0 0 0 0 0 0 0 0 0 0 0 0 0 0 127 0" result="hardAlpha"/>
		<feOffset/>
		<feGaussianBlur stdDeviation="2.5"/>
		<feComposite in2="hardAlpha" operator="out"/>
		<feColorMatrix type="matrix" values="0 0 0 0 1 0 0 0 0 0.87451 0 0 0 0 0.533333 0 0 0 0.8 0"/>
		<feBlend mode="normal" in2="BackgroundImageFix" result="effect1_dropShadow_413_400"/>
		<feBlend mode="normal" in="SourceGraphic" in2="effect1_dropShadow_413_400" result="shape"/>
		</filter>
		</defs>
	</symbol>

	<symbol id="tg" viewBox="0 0 32 32" fill="none" xmlns="http://www.w3.org/2000/svg">
		<path d="M17.3334 23.7929L12.7654 28.4522C12.7654 28.4522 12.5668 28.611 12.3014 28.618C12.2094 28.6207 12.1108 28.6055 12.0094 28.5586L13.2948 20.3212L17.3334 23.7929Z" fill="#B19F63"/>
		<path d="M26.9388 28.793L31.9333 2.38096C31.9333 2.38096 32 2.03572 32 1.69048C32 1.17262 31.556 1 31.1667 1C30.5332 0.998656 29.6654 1.32299 29.6654 1.32299L1.24414 13.0173C1.24414 13.0173 0 13.4286 0 14.2917C0 15.3274 1.20931 15.6895 1.20931 15.6895L8.0026 17.5606L8.01074 17.5647L25.5947 6.66609C25.7962 6.50763 26.056 6.48403 26.2718 6.58315C26.3698 6.62833 26.459 6.69913 26.5293 6.7942C26.752 7.09831 26.6973 7.53053 26.404 7.76114L13.2959 20.3239L24.1146 29.6217C24.1146 29.6217 24.5107 30 25.2786 30C26.724 30 26.9388 28.793 26.9388 28.793Z" fill="#B19F63"/>
	</symbol>
	<symbol id="tg-hovered" viewBox="0 0 42 39" fill="none" xmlns="http://www.w3.org/2000/svg">
		<g filter="url(#filter0_d_413_390)">
		<path d="M22.3334 27.7929L17.7654 32.4522C17.7654 32.4522 17.5668 32.611 17.3014 32.618C17.2094 32.6207 17.1108 32.6055 17.0094 32.5586L18.2948 24.3212L22.3334 27.7929Z" fill="#F9DF94"/>
		<path d="M31.9388 32.793L36.9333 6.38096C36.9333 6.38096 37 6.03572 37 5.69048C37 5.17262 36.556 5 36.1667 5C35.5332 4.99866 34.6654 5.32299 34.6654 5.32299L6.24414 17.0173C6.24414 17.0173 5 17.4286 5 18.2917C5 19.3274 6.20931 19.6895 6.20931 19.6895L13.0026 21.5606L13.0107 21.5647L30.5947 10.6661C30.7962 10.5076 31.056 10.484 31.2718 10.5832C31.3698 10.6283 31.459 10.6991 31.5293 10.7942C31.752 11.0983 31.6973 11.5305 31.404 11.7611L18.2959 24.3239L29.1146 33.6217C29.1146 33.6217 29.5107 34 30.2786 34C31.724 34 31.9388 32.793 31.9388 32.793Z" fill="#F9DF94"/>
		</g>
		<defs>
		<filter id="filter0_d_413_390" x="0" y="0" width="42" height="39" filterUnits="userSpaceOnUse" color-interpolation-filters="sRGB">
		<feFlood flood-opacity="0" result="BackgroundImageFix"/>
		<feColorMatrix in="SourceAlpha" type="matrix" values="0 0 0 0 0 0 0 0 0 0 0 0 0 0 0 0 0 0 127 0" result="hardAlpha"/>
		<feOffset/>
		<feGaussianBlur stdDeviation="2.5"/>
		<feComposite in2="hardAlpha" operator="out"/>
		<feColorMatrix type="matrix" values="0 0 0 0 1 0 0 0 0 0.87451 0 0 0 0 0.533333 0 0 0 0.8 0"/>
		<feBlend mode="normal" in2="BackgroundImageFix" result="effect1_dropShadow_413_390"/>
		<feBlend mode="normal" in="SourceGraphic" in2="effect1_dropShadow_413_390" result="shape"/>
		</filter>
		</defs>
	</symbol>

	<symbol id="vk" viewBox="0 0 32 32" fill="none" xmlns="http://www.w3.org/2000/svg">
		<path id="Vector" d="M31.9156 6.4574C31.9769 6.246 32.0062 6.05 31.9982 5.875C31.9782 5.3682 31.6462 5 30.8649 5H27.3743C26.493 5 26.0863 5.56 25.849 6.1214C25.849 6.1214 23.673 10.824 21.1651 13.925C20.3517 14.8224 19.9384 14.8 19.4984 14.8C19.2624 14.8 18.6664 14.5004 18.6664 13.6786V6.4196C18.6664 5.448 18.4358 5 17.6904 5H11.4918C10.9492 5 10.6665 5.448 10.6665 5.8974C10.6665 6.8312 11.8638 7.0552 11.9998 9.6718V14.744C11.9998 15.976 11.7958 16.2 11.3558 16.2C10.1692 16.2 7.83323 12 6.26925 6.4952C5.93059 5.4116 5.59193 5 4.7106 5H1.18665C0.169332 5 0 5.5236 0 6.0836C0 7.093 0.799989 12.5502 5.1666 18.825C8.33322 23.375 12.5052 26 16.1985 26C18.4358 26 18.6651 25.4022 18.6651 24.4684V20.3076C18.6664 19.1862 18.9104 19 19.6224 19C20.1304 19 21.1664 19.35 23.1664 21.8C25.473 24.6252 25.8917 26 27.2143 26H30.7049C31.5156 26 31.9809 25.643 31.9996 24.95C32.0036 24.7736 31.9796 24.5762 31.9249 24.3564C31.6662 23.55 30.4796 21.5788 28.9996 19.7C28.1796 18.6598 27.3703 17.6294 26.9983 17.0694C26.749 16.704 26.6543 16.4464 26.6663 16.2C26.6783 15.941 26.8063 15.6946 26.9983 15.3502C26.9636 15.3502 31.4756 8.6988 31.9156 6.4574Z" fill="#B19F63"/>
	</symbol>
	<symbol id="vk-hovered" viewBox="0 0 42 32" fill="none" xmlns="http://www.w3.org/2000/svg">
		<g filter="url(#filter0_d_413_386)">
		<path d="M36.9156 6.4574C36.9769 6.246 37.0062 6.05 36.9982 5.875C36.9782 5.3682 36.6462 5 35.8649 5H32.3743C31.493 5 31.0863 5.56 30.849 6.1214C30.849 6.1214 28.673 10.824 26.1651 13.925C25.3517 14.8224 24.9384 14.8 24.4984 14.8C24.2624 14.8 23.6664 14.5004 23.6664 13.6786V6.4196C23.6664 5.448 23.4358 5 22.6904 5H16.4918C15.9492 5 15.6665 5.448 15.6665 5.8974C15.6665 6.8312 16.8638 7.0552 16.9998 9.6718V14.744C16.9998 15.976 16.7958 16.2 16.3558 16.2C15.1692 16.2 12.8332 12 11.2692 6.4952C10.9306 5.4116 10.5919 5 9.7106 5H6.18665C5.16933 5 5 5.5236 5 6.0836C5 7.093 5.79999 12.5502 10.1666 18.825C13.3332 23.375 17.5052 26 21.1985 26C23.4358 26 23.6651 25.4022 23.6651 24.4684V20.3076C23.6664 19.1862 23.9104 19 24.6224 19C25.1304 19 26.1664 19.35 28.1664 21.8C30.473 24.6252 30.8917 26 32.2143 26H35.7049C36.5156 26 36.9809 25.643 36.9996 24.95C37.0036 24.7736 36.9796 24.5762 36.9249 24.3564C36.6662 23.55 35.4796 21.5788 33.9996 19.7C33.1796 18.6598 32.3703 17.6294 31.9983 17.0694C31.749 16.704 31.6543 16.4464 31.6663 16.2C31.6783 15.941 31.8063 15.6946 31.9983 15.3502C31.9636 15.3502 36.4756 8.6988 36.9156 6.4574Z" fill="#F9DF94"/>
		</g>
		<defs>
		<filter id="filter0_d_413_386" x="0" y="0" width="42" height="31" filterUnits="userSpaceOnUse" color-interpolation-filters="sRGB">
		<feFlood flood-opacity="0" result="BackgroundImageFix"/>
		<feColorMatrix in="SourceAlpha" type="matrix" values="0 0 0 0 0 0 0 0 0 0 0 0 0 0 0 0 0 0 127 0" result="hardAlpha"/>
		<feOffset/>
		<feGaussianBlur stdDeviation="2.5"/>
		<feComposite in2="hardAlpha" operator="out"/>
		<feColorMatrix type="matrix" values="0 0 0 0 1 0 0 0 0 0.87451 0 0 0 0 0.533333 0 0 0 0.8 0"/>
		<feBlend mode="normal" in2="BackgroundImageFix" result="effect1_dropShadow_413_386"/>
		<feBlend mode="normal" in="SourceGraphic" in2="effect1_dropShadow_413_386" result="shape"/>
		</filter>
		</defs>
	</symbol>


	<symbol id="tg-black" viewBox="0 0 28 25" fill="none" xmlns="http://www.w3.org/2000/svg">
		<path d="M15.1668 19.6491L11.1698 23.6657C11.1698 23.6657 10.9959 23.8026 10.7638 23.8086C10.6833 23.811 10.5969 23.7979 10.5083 23.7574L11.6329 16.6562L15.1668 19.6491Z" fill="#25201B"/>
		<path d="M23.5715 23.9595L27.9416 1.19048C27.9416 1.19048 28 0.892861 28 0.595242C28 0.148813 27.6115 3.61547e-06 27.2708 3.61547e-06C26.7166 -0.00115896 25.9572 0.27844 25.9572 0.27844L1.08862 10.3597C1.08862 10.3597 0 10.7143 0 11.4583C0 12.3512 1.05815 12.6633 1.05815 12.6633L7.00228 14.2764L7.0094 14.2799L22.3954 4.88456C22.5717 4.74796 22.799 4.72761 22.9878 4.81306C23.0736 4.85201 23.1516 4.91304 23.2131 4.995C23.408 5.25716 23.3601 5.62977 23.1035 5.82857L11.6339 16.6585L21.1003 24.6739C21.1003 24.6739 21.4469 25 22.1188 25C23.3835 25 23.5715 23.9595 23.5715 23.9595Z" fill="#25201B"/>
	</symbol>
	<symbol id="youtube"  viewBox="0 0 32 32" fill="none" xmlns="http://www.w3.org/2000/svg">
		<path d="M12.8 20.7143L21.104 16L12.8 11.2857V20.7143ZM31.296 8.41C31.504 9.14857 31.648 10.1386 31.744 11.3957C31.856 12.6529 31.904 13.7371 31.904 14.68L32 16C32 19.4414 31.744 21.9714 31.296 23.59C30.896 25.0043 29.968 25.9157 28.528 26.3086C27.776 26.5129 26.4 26.6543 24.288 26.7486C22.208 26.8586 20.304 26.9057 18.544 26.9057L16 27C9.296 27 5.12 26.7486 3.472 26.3086C2.032 25.9157 1.104 25.0043 0.704 23.59C0.496 22.8514 0.352 21.8614 0.256 20.6043C0.144 19.3471 0.0959999 18.2629 0.0959999 17.32L0 16C0 12.5586 0.256 10.0286 0.704 8.41C1.104 6.99571 2.032 6.08429 3.472 5.69143C4.224 5.48714 5.6 5.34571 7.712 5.25143C9.792 5.14143 11.696 5.09429 13.456 5.09429L16 5C22.704 5 26.88 5.25143 28.528 5.69143C29.968 6.08429 30.896 6.99571 31.296 8.41Z" fill="#B19F63"/>
	</symbol>
	<symbol id="youtube-hovered" viewBox="0 0 42 32" fill="none" xmlns="http://www.w3.org/2000/svg">
		<g filter="url(#filter0_d_413_396)">
		<path d="M17.8 20.7143L26.104 16L17.8 11.2857V20.7143ZM36.296 8.41C36.504 9.14857 36.648 10.1386 36.744 11.3957C36.856 12.6529 36.904 13.7371 36.904 14.68L37 16C37 19.4414 36.744 21.9714 36.296 23.59C35.896 25.0043 34.968 25.9157 33.528 26.3086C32.776 26.5129 31.4 26.6543 29.288 26.7486C27.208 26.8586 25.304 26.9057 23.544 26.9057L21 27C14.296 27 10.12 26.7486 8.472 26.3086C7.032 25.9157 6.104 25.0043 5.704 23.59C5.496 22.8514 5.352 21.8614 5.256 20.6043C5.144 19.3471 5.096 18.2629 5.096 17.32L5 16C5 12.5586 5.256 10.0286 5.704 8.41C6.104 6.99571 7.032 6.08429 8.472 5.69143C9.224 5.48714 10.6 5.34571 12.712 5.25143C14.792 5.14143 16.696 5.09429 18.456 5.09429L21 5C27.704 5 31.88 5.25143 33.528 5.69143C34.968 6.08429 35.896 6.99571 36.296 8.41Z" fill="#F9DF94"/>
		</g>
		<defs>
		<filter id="filter0_d_413_396" x="0" y="0" width="42" height="32" filterUnits="userSpaceOnUse" color-interpolation-filters="sRGB">
		<feFlood flood-opacity="0" result="BackgroundImageFix"/>
		<feColorMatrix in="SourceAlpha" type="matrix" values="0 0 0 0 0 0 0 0 0 0 0 0 0 0 0 0 0 0 127 0" result="hardAlpha"/>
		<feOffset/>
		<feGaussianBlur stdDeviation="2.5"/>
		<feComposite in2="hardAlpha" operator="out"/>
		<feColorMatrix type="matrix" values="0 0 0 0 1 0 0 0 0 0.87451 0 0 0 0 0.533333 0 0 0 0.8 0"/>
		<feBlend mode="normal" in2="BackgroundImageFix" result="effect1_dropShadow_413_396"/>
		<feBlend mode="normal" in="SourceGraphic" in2="effect1_dropShadow_413_396" result="shape"/>
		</filter>
		</defs>
	</symbol>
	<symbol id="rutube" xmlns="http://www.w3.org/2000/svg" viewBox="0 0 32 32" fill="none">
		<path d="M21.2197 7H0V30H5.90605V22.5173H17.2232L22.3868 30H29L23.3062 22.4829C25.0746 22.2071 26.3477 21.5518 27.1258 20.5174C27.9037 19.4829 28.2928 17.8277 28.2928 15.6208V13.8967C28.2928 12.5863 28.1515 11.5519 27.9039 10.7588C27.6562 9.96567 27.2318 9.27593 26.6306 8.65527C25.994 8.06907 25.2868 7.6553 24.438 7.37952C23.5891 7.13819 22.5281 7 21.2197 7ZM20.2649 17.4486H5.90605V12.069H20.2649C21.078 12.069 21.6439 12.2068 21.9269 12.4483C22.2098 12.6896 22.3868 13.1378 22.3868 13.7931V15.7242C22.3868 16.4137 22.2098 16.862 21.9269 17.1033C21.6439 17.3446 21.0782 17.4482 20.2649 17.4482V17.4486Z" fill="#B19F63"/>
		<path d="M29.5005 7C30.8805 7 32 5.88075 32 4.5C32 3.11925 30.8805 2 29.5005 2C28.1195 2 27 3.11925 27 4.5C27 5.88075 28.1195 7 29.5005 7Z" fill="#B19F63"/>
	</symbol>
	<symbol id="rutube-hovered" viewBox="0 0 42 38" fill="none" xmlns="http://www.w3.org/2000/svg">
		<g id="State=Hover, Name=RuTube, Size=32px" filter="url(#filter0_d_5098_25213)">
		<path id="Vector" d="M26.2197 10H5V33H10.906V25.5173H22.2232L27.3868 33H34L28.3062 25.4829C30.0746 25.2071 31.3477 24.5518 32.1258 23.5174C32.9037 22.4829 33.2928 20.8277 33.2928 18.6208V16.8967C33.2928 15.5863 33.1515 14.5519 32.9039 13.7588C32.6562 12.9657 32.2318 12.2759 31.6306 11.6553C30.994 11.0691 30.2868 10.6553 29.438 10.3795C28.5891 10.1382 27.5281 10 26.2197 10ZM25.2649 20.4486H10.906V15.069H25.2649C26.078 15.069 26.6439 15.2068 26.9269 15.4483C27.2098 15.6896 27.3868 16.1378 27.3868 16.7931V18.7242C27.3868 19.4137 27.2098 19.862 26.9269 20.1033C26.6439 20.3446 26.0782 20.4482 25.2649 20.4482V20.4486Z" fill="#F9DF94"/>
		<path id="Vector_2" d="M34.5005 10C35.8805 10 37 8.88075 37 7.5C37 6.11925 35.8805 5 34.5005 5C33.1195 5 32 6.11925 32 7.5C32 8.88075 33.1195 10 34.5005 10Z" fill="#F9DF94"/>
		</g>
		<defs>
		<filter id="filter0_d_5098_25213" x="0" y="-2" width="42" height="42" filterUnits="userSpaceOnUse" color-interpolation-filters="sRGB">
		<feFlood flood-opacity="0" result="BackgroundImageFix"/>
		<feColorMatrix in="SourceAlpha" type="matrix" values="0 0 0 0 0 0 0 0 0 0 0 0 0 0 0 0 0 0 127 0" result="hardAlpha"/>
		<feOffset/>
		<feGaussianBlur stdDeviation="2.5"/>
		<feComposite in2="hardAlpha" operator="out"/>
		<feColorMatrix type="matrix" values="0 0 0 0 1 0 0 0 0 0.87451 0 0 0 0 0.533333 0 0 0 0.8 0"/>
		<feBlend mode="normal" in2="BackgroundImageFix" result="effect1_dropShadow_5098_25213"/>
		<feBlend mode="normal" in="SourceGraphic" in2="effect1_dropShadow_5098_25213" result="shape"/>
		</filter>
		</defs>
	</symbol>

</svg>