<svg>
	<symbol id="twch" viewBox="0 0 32 32" fill="none" xmlns="http://www.w3.org/2000/svg">
		<path id="vector" d="M27.0894 5.15526C25.0498 4.15768 22.8626 3.42271 20.5759 3.00177C20.5342 2.99364 20.4926 3.01394 20.4712 3.05455C20.1899 3.58784 19.8783 4.28356 19.6601 4.83039C17.2005 4.43787 14.7536 4.43787 12.3444 4.83039C12.1262 4.2714 11.8033 3.58784 11.5208 3.05455C11.4993 3.0153 11.4577 2.995 11.4161 3.00177C9.13055 3.42137 6.94341 4.15634 4.90258 5.15526C4.88491 5.16338 4.86977 5.17693 4.85972 5.19451C0.711189 11.8012 -0.425267 18.2454 0.13224 24.6098C0.134763 24.6409 0.15116 24.6707 0.173864 24.6896C2.91095 26.8323 5.56228 28.1331 8.16437 28.9953C8.20602 29.0088 8.25014 28.9926 8.27664 28.956C8.89217 28.06 9.44086 27.1152 9.9113 26.1217C9.93906 26.0635 9.91256 25.9945 9.85582 25.9715C8.98551 25.6195 8.1568 25.1905 7.35964 24.7032C7.29659 24.6639 7.29154 24.5678 7.34954 24.5218C7.5173 24.3878 7.68509 24.2484 7.84527 24.1076C7.87425 24.0819 7.91464 24.0765 7.94871 24.0927C13.1857 26.6415 18.8554 26.6415 24.0306 24.0927C24.0647 24.0751 24.1051 24.0806 24.1353 24.1063C24.2955 24.247 24.4633 24.3878 24.6323 24.5218C24.6903 24.5678 24.6865 24.6639 24.6235 24.7032C23.8263 25.1999 22.9976 25.6195 22.126 25.9701C22.0693 25.9931 22.044 26.0635 22.0718 26.1217C22.5523 27.1138 23.101 28.0586 23.7052 28.9547C23.7304 28.9926 23.7758 29.0088 23.8175 28.9953C26.4322 28.1331 29.0835 26.8323 31.8206 24.6896C31.8446 24.6707 31.8597 24.6423 31.8622 24.6111C32.5294 17.2532 30.7447 10.8618 27.131 5.19585C27.1221 5.17693 27.107 5.16338 27.0894 5.15526ZM10.6934 20.7346C9.11666 20.7346 7.81751 19.1916 7.81751 17.2966C7.81751 15.4016 9.09147 13.8586 10.6934 13.8586C12.3078 13.8586 13.5944 15.4151 13.5692 17.2966C13.5692 19.1916 12.2952 20.7346 10.6934 20.7346ZM21.3263 20.7346C19.7497 20.7346 18.4505 19.1916 18.4505 17.2966C18.4505 15.4016 19.7244 13.8586 21.3263 13.8586C22.9408 13.8586 24.2274 15.4151 24.2022 17.2966C24.2022 19.1916 22.9408 20.7346 21.3263 20.7346Z" fill="#B19F63"/>
	</symbol>
	<symbol id="tg" viewBox="0 0 32 32" fill="none" xmlns="http://www.w3.org/2000/svg">
		<path d="M17.3334 23.7929L12.7654 28.4522C12.7654 28.4522 12.5668 28.611 12.3014 28.618C12.2094 28.6207 12.1108 28.6055 12.0094 28.5586L13.2948 20.3212L17.3334 23.7929Z" fill="#B19F63"/>
		<path d="M26.9388 28.793L31.9333 2.38096C31.9333 2.38096 32 2.03572 32 1.69048C32 1.17262 31.556 1 31.1667 1C30.5332 0.998656 29.6654 1.32299 29.6654 1.32299L1.24414 13.0173C1.24414 13.0173 0 13.4286 0 14.2917C0 15.3274 1.20931 15.6895 1.20931 15.6895L8.0026 17.5606L8.01074 17.5647L25.5947 6.66609C25.7962 6.50763 26.056 6.48403 26.2718 6.58315C26.3698 6.62833 26.459 6.69913 26.5293 6.7942C26.752 7.09831 26.6973 7.53053 26.404 7.76114L13.2959 20.3239L24.1146 29.6217C24.1146 29.6217 24.5107 30 25.2786 30C26.724 30 26.9388 28.793 26.9388 28.793Z" fill="#B19F63"/>
	</symbol>
	<symbol id="vk" viewBox="0 0 32 32" fill="none" xmlns="http://www.w3.org/2000/svg">
		<path id="Vector" d="M31.9156 6.4574C31.9769 6.246 32.0062 6.05 31.9982 5.875C31.9782 5.3682 31.6462 5 30.8649 5H27.3743C26.493 5 26.0863 5.56 25.849 6.1214C25.849 6.1214 23.673 10.824 21.1651 13.925C20.3517 14.8224 19.9384 14.8 19.4984 14.8C19.2624 14.8 18.6664 14.5004 18.6664 13.6786V6.4196C18.6664 5.448 18.4358 5 17.6904 5H11.4918C10.9492 5 10.6665 5.448 10.6665 5.8974C10.6665 6.8312 11.8638 7.0552 11.9998 9.6718V14.744C11.9998 15.976 11.7958 16.2 11.3558 16.2C10.1692 16.2 7.83323 12 6.26925 6.4952C5.93059 5.4116 5.59193 5 4.7106 5H1.18665C0.169332 5 0 5.5236 0 6.0836C0 7.093 0.799989 12.5502 5.1666 18.825C8.33322 23.375 12.5052 26 16.1985 26C18.4358 26 18.6651 25.4022 18.6651 24.4684V20.3076C18.6664 19.1862 18.9104 19 19.6224 19C20.1304 19 21.1664 19.35 23.1664 21.8C25.473 24.6252 25.8917 26 27.2143 26H30.7049C31.5156 26 31.9809 25.643 31.9996 24.95C32.0036 24.7736 31.9796 24.5762 31.9249 24.3564C31.6662 23.55 30.4796 21.5788 28.9996 19.7C28.1796 18.6598 27.3703 17.6294 26.9983 17.0694C26.749 16.704 26.6543 16.4464 26.6663 16.2C26.6783 15.941 26.8063 15.6946 26.9983 15.3502C26.9636 15.3502 31.4756 8.6988 31.9156 6.4574Z" fill="#B19F63"/>
	</symbol>
	<symbol id="tg-black" viewBox="0 0 28 25" fill="none" xmlns="http://www.w3.org/2000/svg">
		<path d="M15.1668 19.6491L11.1698 23.6657C11.1698 23.6657 10.9959 23.8026 10.7638 23.8086C10.6833 23.811 10.5969 23.7979 10.5083 23.7574L11.6329 16.6562L15.1668 19.6491Z" fill="#25201B"/>
		<path d="M23.5715 23.9595L27.9416 1.19048C27.9416 1.19048 28 0.892861 28 0.595242C28 0.148813 27.6115 3.61547e-06 27.2708 3.61547e-06C26.7166 -0.00115896 25.9572 0.27844 25.9572 0.27844L1.08862 10.3597C1.08862 10.3597 0 10.7143 0 11.4583C0 12.3512 1.05815 12.6633 1.05815 12.6633L7.00228 14.2764L7.0094 14.2799L22.3954 4.88456C22.5717 4.74796 22.799 4.72761 22.9878 4.81306C23.0736 4.85201 23.1516 4.91304 23.2131 4.995C23.408 5.25716 23.3601 5.62977 23.1035 5.82857L11.6339 16.6585L21.1003 24.6739C21.1003 24.6739 21.4469 25 22.1188 25C23.3835 25 23.5715 23.9595 23.5715 23.9595Z" fill="#25201B"/>
	</symbol>
</svg>