<svg width="32" height="32" viewBox="0 0 32 32" fill="none" xmlns="http://www.w3.org/2000/svg">
<g filter="url(#filter0_d_5341_28489)">
<path d="M15.2527 6.09774C15.0343 6.00201 14.7935 5.97585 14.5608 6.02258C14.328 6.0693 14.1138 6.1868 13.9451 6.36027L9.5064 10.9982H6.3993C5.76297 10.9982 5.1527 11.2616 4.70274 11.7305C4.25278 12.1994 4 12.8353 4 13.4985V18.4989C4 19.162 4.25278 19.798 4.70274 20.2669C5.1527 20.7358 5.76297 20.9992 6.3993 20.9992H9.5064L13.9451 25.6371C14.0572 25.753 14.1902 25.8446 14.3363 25.9069C14.4825 25.9691 14.639 26.0006 14.7969 25.9996C14.9542 26.0039 15.1104 25.9696 15.2527 25.8996C15.4718 25.8059 15.6594 25.6466 15.7917 25.4419C15.9241 25.2373 15.9953 24.9963 15.9965 24.7495V7.24785C15.9953 7.00105 15.9241 6.76013 15.7917 6.55546C15.6594 6.35079 15.4718 6.19153 15.2527 6.09774Z" fill="#F9DF94"/>
<path d="M20.7951 20.3741C20.6372 20.3751 20.4807 20.3435 20.3346 20.2813C20.1884 20.2191 20.0555 20.1274 19.9434 20.0116C19.8309 19.8954 19.7417 19.7571 19.6808 19.6048C19.6199 19.4524 19.5885 19.289 19.5885 19.124C19.5885 18.959 19.6199 18.7956 19.6808 18.6432C19.7417 18.4909 19.8309 18.3526 19.9434 18.2364L25.9416 11.9858C26.0535 11.8692 26.1863 11.7768 26.3324 11.7137C26.4786 11.6506 26.6352 11.6182 26.7934 11.6182C26.9516 11.6182 27.1082 11.6506 27.2544 11.7137C27.4005 11.7768 27.5333 11.8692 27.6451 11.9858C27.757 12.1024 27.8457 12.2407 27.9063 12.393C27.9668 12.5453 27.998 12.7086 27.998 12.8734C27.998 13.0382 27.9668 13.2015 27.9063 13.3537C27.8457 13.506 27.757 13.6444 27.6451 13.761L21.6469 20.0116C21.5348 20.1274 21.4018 20.2191 21.2557 20.2813C21.1095 20.3435 20.953 20.3751 20.7951 20.3741Z" fill="#F9DF94"/>
<path d="M26.7934 20.3741C26.6355 20.3751 26.479 20.3435 26.3328 20.2813C26.1867 20.2191 26.0537 20.1274 25.9416 20.0116L19.9434 13.761C19.8315 13.6444 19.7428 13.506 19.6823 13.3537C19.6217 13.2015 19.5906 13.0382 19.5906 12.8734C19.5906 12.7086 19.6217 12.5453 19.6823 12.393C19.7428 12.2407 19.8315 12.1024 19.9434 11.9858C20.0552 11.8692 20.188 11.7768 20.3342 11.7137C20.4803 11.6506 20.6369 11.6182 20.7951 11.6182C20.9533 11.6182 21.11 11.6506 21.2561 11.7137C21.4022 11.7768 21.535 11.8692 21.6469 11.9858L27.6451 18.2364C27.7576 18.3526 27.8468 18.4909 27.9077 18.6432C27.9686 18.7956 28 18.959 28 19.124C28 19.289 27.9686 19.4524 27.9077 19.6048C27.8468 19.7571 27.7576 19.8954 27.6451 20.0116C27.533 20.1274 27.4001 20.2191 27.2539 20.2813C27.1078 20.3435 26.9513 20.3751 26.7934 20.3741Z" fill="#F9DF94"/>
</g>
<defs>
<filter id="filter0_d_5341_28489" x="-4" y="-4" width="40" height="40" filterUnits="userSpaceOnUse" color-interpolation-filters="sRGB">
<feFlood flood-opacity="0" result="BackgroundImageFix"/>
<feColorMatrix in="SourceAlpha" type="matrix" values="0 0 0 0 0 0 0 0 0 0 0 0 0 0 0 0 0 0 127 0" result="hardAlpha"/>
<feOffset/>
<feGaussianBlur stdDeviation="2"/>
<feComposite in2="hardAlpha" operator="out"/>
<feColorMatrix type="matrix" values="0 0 0 0 1 0 0 0 0 0.87451 0 0 0 0 0.533333 0 0 0 0.8 0"/>
<feBlend mode="normal" in2="BackgroundImageFix" result="effect1_dropShadow_5341_28489"/>
<feBlend mode="normal" in="SourceGraphic" in2="effect1_dropShadow_5341_28489" result="shape"/>
</filter>
</defs>
</svg>
