<svg width="32" height="32" viewBox="0 0 32 32" fill="none" xmlns="http://www.w3.org/2000/svg">
<g filter="url(#filter0_d_5341_28487)">
<path d="M23.6341 25.1996C23.3193 25.1982 23.0175 25.068 22.794 24.837C22.5705 24.6028 22.445 24.286 22.445 23.9557C22.445 23.6254 22.5705 23.3086 22.794 23.0744C23.6867 22.1455 24.3948 21.0426 24.878 19.8285C25.3612 18.6144 25.6099 17.313 25.6099 15.9987C25.6099 14.6844 25.3612 13.383 24.878 12.1689C24.3948 10.9548 23.6867 9.85183 22.794 8.92301C22.5974 8.68386 22.4947 8.37624 22.5063 8.06161C22.518 7.74699 22.6432 7.44854 22.8569 7.2259C23.0707 7.00326 23.3572 6.87283 23.6592 6.86068C23.9613 6.84852 24.2566 6.95554 24.4862 7.16034C26.7361 9.50466 28 12.6838 28 15.9987C28 19.3136 26.7361 22.4927 24.4862 24.837C24.374 24.9529 24.2411 25.0446 24.0948 25.1068C23.9486 25.169 23.792 25.2005 23.6341 25.1996Z" fill="#F9DF94"/>
<path d="M20.2497 21.6742C20.091 21.6735 19.9339 21.64 19.7876 21.5757C19.6413 21.5113 19.5088 21.4173 19.3976 21.2992C19.1741 21.065 19.0487 20.7481 19.0487 20.4179C19.0487 20.0876 19.1741 19.7708 19.3976 19.5365C19.844 19.0721 20.1981 18.5206 20.4396 17.9136C20.6812 17.3065 20.8056 16.6558 20.8056 15.9987C20.8056 15.3416 20.6812 14.6909 20.4396 14.0838C20.1981 13.4768 19.844 12.9253 19.3976 12.4609C19.201 12.2217 19.0983 11.9141 19.11 11.5995C19.1216 11.2848 19.2468 10.9864 19.4606 10.7637C19.6743 10.5411 19.9608 10.4107 20.2629 10.3985C20.5649 10.3864 20.8602 10.4934 21.0898 10.6982C22.4383 12.1046 23.1957 14.011 23.1957 15.9987C23.1957 17.9864 22.4383 19.8928 21.0898 21.2992C20.8682 21.5347 20.5663 21.6695 20.2497 21.6742Z" fill="#F9DF94"/>
<path d="M15.2572 6.09774C15.0386 6.00201 14.7978 5.97585 14.565 6.02258C14.3321 6.0693 14.1178 6.1868 13.9491 6.36027L9.50859 10.9982H6.40026C5.76367 10.9982 5.15315 11.2616 4.70302 11.7305C4.25288 12.1994 4 12.8353 4 13.4985V18.4989C4 19.162 4.25288 19.798 4.70302 20.2669C5.15315 20.7358 5.76367 20.9992 6.40026 20.9992H9.50859L13.9491 25.6371C14.0612 25.753 14.1942 25.8446 14.3404 25.9069C14.4866 25.9691 14.6432 26.0006 14.8012 25.9996C14.9586 26.0039 15.1148 25.9696 15.2572 25.8996C15.4764 25.8059 15.664 25.6466 15.7964 25.4419C15.9288 25.2373 16.0001 24.9963 16.0013 24.7495V7.24785C16.0001 7.00105 15.9288 6.76013 15.7964 6.55546C15.664 6.35079 15.4764 6.19153 15.2572 6.09774Z" fill="#F9DF94"/>
</g>
<defs>
<filter id="filter0_d_5341_28487" x="-4" y="-4" width="40" height="40" filterUnits="userSpaceOnUse" color-interpolation-filters="sRGB">
<feFlood flood-opacity="0" result="BackgroundImageFix"/>
<feColorMatrix in="SourceAlpha" type="matrix" values="0 0 0 0 0 0 0 0 0 0 0 0 0 0 0 0 0 0 127 0" result="hardAlpha"/>
<feOffset/>
<feGaussianBlur stdDeviation="2"/>
<feComposite in2="hardAlpha" operator="out"/>
<feColorMatrix type="matrix" values="0 0 0 0 1 0 0 0 0 0.87451 0 0 0 0 0.533333 0 0 0 0.8 0"/>
<feBlend mode="normal" in2="BackgroundImageFix" result="effect1_dropShadow_5341_28487"/>
<feBlend mode="normal" in="SourceGraphic" in2="effect1_dropShadow_5341_28487" result="shape"/>
</filter>
</defs>
</svg>
