<svg width="40" height="40" viewBox="0 0 40 40" fill="none" xmlns="http://www.w3.org/2000/svg">
<g id="Icon Button">
<path id="Union" fill-rule="evenodd" clip-rule="evenodd" d="M26.8616 29.3241L19.8119 36.3928L12.7622 29.3241L19.8119 22.2555L26.8616 29.3241ZM30.4591 29.3241L28.6603 31.1277L21.6106 38.1964L19.8119 40L18.0131 38.1964L10.9634 31.1277L9.16465 29.3241L10.9634 27.5205L18.0131 20.4519L19.8119 18.6483L21.6106 20.4519L28.6603 27.5205L30.4591 29.3241ZM3.90695 23.8291L1.75618e-06 19.9117L16.0474 3.82114L19.7718 -1.7684e-06L19.8156 0.0428335L19.839 0.0193655L21.8795 2.06544L40 19.8225L36.1414 23.7813L19.8634 7.82977L3.90695 23.8291Z" fill="#B19F63"/>
</g>
</svg>
