<svg xmlns="http://www.w3.org/2000/svg" width="721" height="4" viewBox="0 0 721 4" fill="none">
<path fill-rule="evenodd" clip-rule="evenodd" d="M717.28 2.99861L717.094 2.819L717.28 2.63914L717.73 2.20464L3.27051 2.20464L3.71985 2.63914L3.90582 2.819L3.71954 2.99861L2.68103 4L2.27112 3.64027L3.12341 2.81849L2.60571 2.31786L1.71912 3.14478L1.52148 3.32905L1.31989 3.14853L0.201477 2.14714L-8.59703e-08 1.96674L0.19458 1.78006L1.31299 0.707138L1.51825 0.510245L1.72266 0.707888L2.61304 1.56891L3.04767 1.16354L2.26355 0.344425L2.68866 -1.76206e-06L3.64728 1.00139L3.82178 1.18366L3.63635 1.35658L3.28583 1.68351L717.714 1.68351L717.364 1.35658L717.178 1.18366L717.353 1.00139L718.311 -1.17524e-07L718.736 0.344426L717.952 1.16354L718.387 1.56891L719.277 0.707892L719.482 0.510248L719.687 0.707142L720.805 1.78006L721 1.96674L720.799 2.14714L719.68 3.14853L719.478 3.32905L719.281 3.14478L718.394 2.31786L717.877 2.81849L718.729 3.64026L718.319 4L717.28 2.99861ZM719.483 1.26473L718.785 1.94011L719.487 2.59455L720.202 1.95408L719.483 1.26473ZM2.21509 1.94011L1.5166 1.26474L0.798035 1.95408L1.51337 2.59455L2.21509 1.94011Z" fill="#776030"/>
</svg>