<svg width="28" height="25" viewBox="0 0 28 25" fill="none" xmlns="http://www.w3.org/2000/svg">
<g id="Vector">
<path d="M15.1668 19.6491L11.1698 23.6657C11.1698 23.6657 10.9959 23.8026 10.7638 23.8086C10.6833 23.811 10.5969 23.7979 10.5083 23.7574L11.6329 16.6562L15.1668 19.6491Z" fill="#25201B"/>
<path d="M23.5715 23.9595L27.9416 1.19048C27.9416 1.19048 28 0.892861 28 0.595242C28 0.148813 27.6115 3.61547e-06 27.2708 3.61547e-06C26.7166 -0.00115896 25.9572 0.27844 25.9572 0.27844L1.08862 10.3597C1.08862 10.3597 0 10.7143 0 11.4583C0 12.3512 1.05815 12.6633 1.05815 12.6633L7.00228 14.2764L7.0094 14.2799L22.3954 4.88456C22.5717 4.74796 22.799 4.72761 22.9878 4.81306C23.0736 4.85201 23.1516 4.91304 23.2131 4.995C23.408 5.25716 23.3601 5.62977 23.1035 5.82857L11.6339 16.6585L21.1003 24.6739C21.1003 24.6739 21.4469 25 22.1188 25C23.3835 25 23.5715 23.9595 23.5715 23.9595Z" fill="#25201B"/>
</g>
</svg>
