<svg width="32" height="32" viewBox="0 0 32 32" fill="none" xmlns="http://www.w3.org/2000/svg">
<g id="Icon Social Media">
<g id="Vector">
<path d="M17.3334 23.7929L12.7654 28.4522C12.7654 28.4522 12.5668 28.611 12.3014 28.618C12.2094 28.6207 12.1108 28.6055 12.0094 28.5586L13.2948 20.3212L17.3334 23.7929Z" fill="#B19F63"/>
<path d="M26.9388 28.793L31.9333 2.38096C31.9333 2.38096 32 2.03572 32 1.69048C32 1.17262 31.556 1 31.1667 1C30.5332 0.998656 29.6654 1.32299 29.6654 1.32299L1.24414 13.0173C1.24414 13.0173 0 13.4286 0 14.2917C0 15.3274 1.20931 15.6895 1.20931 15.6895L8.0026 17.5606L8.01074 17.5647L25.5947 6.66609C25.7962 6.50763 26.056 6.48403 26.2718 6.58315C26.3698 6.62833 26.459 6.69913 26.5293 6.7942C26.752 7.09831 26.6973 7.53053 26.404 7.76114L13.2959 20.3239L24.1146 29.6217C24.1146 29.6217 24.5107 30 25.2786 30C26.724 30 26.9388 28.793 26.9388 28.793Z" fill="#B19F63"/>
</g>
</g>
</svg>
