<svg width="42" height="42" viewBox="0 0 42 42" fill="none" xmlns="http://www.w3.org/2000/svg">
<path fill-rule="evenodd" clip-rule="evenodd" d="M33 0H16C11.0294 0 7 4.02944 7 9V33C7 37.9706 11.0294 42 16 42H33C37.9706 42 42 37.9706 42 33V9C42 4.02944 37.9706 0 33 0ZM19.5054 28.6215L30.4249 22.6491C32.525 21.5005 32.525 18.4995 30.4249 17.3509L19.5054 11.3786C17.4792 10.2703 15 11.7281 15 14.0277V25.9723C15 28.2719 17.4792 29.7297 19.5054 28.6215Z" fill="#FF2B42"/>
<path d="M30.4249 22.6491L19.5054 28.6215C17.4792 29.7297 15 28.2719 15 25.9723V14.0277C15 11.7281 17.4792 10.2703 19.5054 11.3786L30.4249 17.3509C32.525 18.4995 32.525 21.5005 30.4249 22.6491Z" fill="white"/>
<path d="M16 0H9C4.02944 0 0 4.02944 0 9V33C0 37.9706 4.02944 42 9 42H16C11.0294 42 7 37.9706 7 33V9C7 4.02944 11.0294 0 16 0Z" fill="#0177FF"/>
</svg>
