<svg width="32" height="32" viewBox="0 0 32 32" fill="none" xmlns="http://www.w3.org/2000/svg">
<g id="Icon Social Media">
<path id="Vector" d="M31.9156 6.4574C31.9769 6.246 32.0062 6.05 31.9982 5.875C31.9782 5.3682 31.6462 5 30.8649 5H27.3743C26.493 5 26.0863 5.56 25.849 6.1214C25.849 6.1214 23.673 10.824 21.1651 13.925C20.3517 14.8224 19.9384 14.8 19.4984 14.8C19.2624 14.8 18.6664 14.5004 18.6664 13.6786V6.4196C18.6664 5.448 18.4358 5 17.6904 5H11.4918C10.9492 5 10.6665 5.448 10.6665 5.8974C10.6665 6.8312 11.8638 7.0552 11.9998 9.6718V14.744C11.9998 15.976 11.7958 16.2 11.3558 16.2C10.1692 16.2 7.83323 12 6.26925 6.4952C5.93059 5.4116 5.59193 5 4.7106 5H1.18665C0.169332 5 0 5.5236 0 6.0836C0 7.093 0.799989 12.5502 5.1666 18.825C8.33322 23.375 12.5052 26 16.1985 26C18.4358 26 18.6651 25.4022 18.6651 24.4684V20.3076C18.6664 19.1862 18.9104 19 19.6224 19C20.1304 19 21.1664 19.35 23.1664 21.8C25.473 24.6252 25.8917 26 27.2143 26H30.7049C31.5156 26 31.9809 25.643 31.9996 24.95C32.0036 24.7736 31.9796 24.5762 31.9249 24.3564C31.6662 23.55 30.4796 21.5788 28.9996 19.7C28.1796 18.6598 27.3703 17.6294 26.9983 17.0694C26.749 16.704 26.6543 16.4464 26.6663 16.2C26.6783 15.941 26.8063 15.6946 26.9983 15.3502C26.9636 15.3502 31.4756 8.6988 31.9156 6.4574Z" fill="#B19F63"/>
</g>
</svg>
