<svg width="42" height="43" viewBox="0 0 42 43" fill="none" xmlns="http://www.w3.org/2000/svg">
<rect y="0.834473" width="42" height="42" rx="10" fill="white"/>
<path fill-rule="evenodd" clip-rule="evenodd" d="M7.5 24.1264C7.5 22.6008 7.5 21.0756 7.5 19.5503C7.51259 19.6386 7.52545 19.727 7.53804 19.8153C7.57687 19.2947 7.59156 18.7731 7.638 18.2537C7.69467 17.6151 7.75318 16.9751 7.85602 16.3422C7.96464 15.675 8.19708 15.0332 8.60453 14.4752C9.18565 13.6799 10.0302 13.2613 11.0337 13.1428C11.6292 13.0726 12.2311 13.0396 12.8311 13.0107C13.8661 12.9612 14.9016 12.9206 15.9374 12.89C16.9121 12.8611 17.8875 12.8337 18.8624 12.8345C21.0589 12.8362 23.2556 12.8382 25.4516 12.8743C26.9307 12.8987 28.4096 12.9724 29.8875 13.044C30.3896 13.0684 30.8981 13.1145 31.3866 13.221C32.4043 13.4432 33.1866 13.9805 33.6463 14.8901C34.0663 15.7218 34.2361 16.6107 34.3064 17.5193C34.356 18.1591 34.3835 18.8005 34.4218 19.441C34.4252 19.494 34.4378 19.5463 34.446 19.5988C34.4499 19.5976 34.4536 19.5966 34.4572 19.5953C34.4714 19.4475 34.4856 19.2999 34.5 19.1524C34.5 20.8021 34.5 22.4518 34.5 24.1015C34.4866 24.0373 34.4732 23.9733 34.4599 23.9091C34.4174 24.3956 34.4042 24.8837 34.3636 25.3697C34.3142 25.9595 34.2523 26.5485 34.1763 27.1359C34.0863 27.8307 33.8312 28.4797 33.4708 29.0862C33.1394 29.6437 32.5887 29.9739 31.9942 30.2409C31.4357 30.492 30.8265 30.5363 30.2246 30.5819C29.4155 30.6433 28.6035 30.6772 27.7923 30.7105C27.0068 30.7429 26.221 30.7683 25.435 30.781C23.8929 30.8061 22.3507 30.8377 20.8086 30.8342C19.2977 30.831 17.7865 30.7877 16.2756 30.7613C15.7441 30.7518 15.212 30.7546 14.6815 30.7269C13.6431 30.6729 12.6052 30.6105 11.5686 30.5338C11.0883 30.4982 10.61 30.4288 10.1537 30.2656C9.39606 29.9948 8.78608 29.5628 8.41143 28.8672C8.09634 28.2819 7.88803 27.6592 7.80538 27.0137C7.69624 26.1598 7.64692 25.299 7.57844 24.4409C7.56323 24.2478 7.57635 24.0525 7.57635 23.8583C7.5648 23.8583 7.55326 23.8586 7.54171 23.8588C7.52781 23.9479 7.5139 24.037 7.5 24.1264ZM18.2052 25.1634C18.2525 25.1472 18.2771 25.1415 18.2992 25.1305C19.4116 24.5828 20.5232 24.0338 21.6358 23.4868C22.8883 22.8709 24.1421 22.2567 25.3944 21.6405C25.4303 21.6228 25.4576 21.59 25.4888 21.5641C25.4573 21.5389 25.4295 21.5071 25.3938 21.4892C24.7259 21.1584 24.0574 20.8287 23.3881 20.5002C22.4622 20.0455 21.534 19.5948 20.61 19.1369C19.872 18.7711 19.139 18.3968 18.4036 18.0273C18.3448 17.9976 18.2824 17.9745 18.2052 17.9414C18.2052 20.3586 18.2052 22.7512 18.2052 25.1634Z" fill="#FF0000"/>
<path d="M18.2052 25.1634C18.2525 25.1472 18.2771 25.1415 18.2992 25.1305C19.4116 24.5828 20.5232 24.0338 21.6358 23.4868C22.8883 22.8709 24.1421 22.2567 25.3944 21.6405C25.4303 21.6228 25.4576 21.59 25.4888 21.5641C25.4573 21.5389 25.4295 21.5071 25.3938 21.4892C24.7259 21.1584 24.0574 20.8287 23.3881 20.5002C22.4622 20.0455 21.534 19.5948 20.61 19.1369C19.872 18.7711 19.139 18.3968 18.4036 18.0273C18.3448 17.9976 18.2824 17.9745 18.2052 17.9414V25.1634Z" fill="white"/>
</svg>
