<svg width="33" height="32" viewBox="0 0 33 32" fill="none" xmlns="http://www.w3.org/2000/svg">
<g id="Icon">
<path id="Vector" fill-rule="evenodd" clip-rule="evenodd" d="M28.6945 17.5873C27.5193 18.5475 26.342 19.5066 25.1548 20.4529C22.6342 22.4627 19.7497 23.4732 17.2854 23.5C13.639 23.5046 10.8783 22.6746 8.56629 20.9785C7.06605 19.8779 5.63289 18.6848 4.20649 17.4911C3.21586 16.6626 3.28398 15.2494 4.30425 14.4137C5.4644 13.4623 6.6334 12.5222 7.80135 11.5811C9.85697 9.92611 12.1955 8.91093 14.8314 8.60493C18.289 8.20379 21.4876 8.9459 24.3201 10.95C25.8745 12.0501 27.3305 13.2905 28.7938 14.5104C29.786 15.3374 29.7143 16.7547 28.6945 17.5873ZM16.5111 8.81938C12.5096 8.81013 9.25895 12.0002 9.24023 15.9555C9.22099 19.9551 12.4498 23.1672 16.5028 23.1806C20.4923 23.1935 23.746 19.988 23.7601 16.0306C23.7741 12.0455 20.5412 8.82916 16.5111 8.81938ZM16.5132 20.6288C13.9282 20.6288 11.8325 18.5562 11.8325 15.9997C11.8325 13.4433 13.9282 11.3707 16.5132 11.3707C19.0981 11.3707 21.1938 13.4433 21.1938 15.9997C21.1938 18.5562 19.0981 20.6288 16.5132 20.6288Z" fill="#6393D2"/>
</g>
</svg>
