<svg width="23" height="26" viewBox="0 0 23 26" fill="none" xmlns="http://www.w3.org/2000/svg">
<g clip-path="url(#clip0_16712_14001)">
<path d="M14.2518 25.9999C15.1327 25.9999 15.9009 25.2418 15.9009 24.3725V20.5717H17.002C17.6627 20.5717 18.1031 20.137 18.1031 19.4851V8.62958H4.90039V19.4852C4.90039 20.1371 5.34083 20.5718 6.00149 20.5718H7.10267V24.3726C7.10267 25.2419 7.87067 26 8.75172 26C9.63251 26 10.4006 25.2419 10.4006 24.3726V20.5718H12.6029V24.3726C12.6028 25.2418 13.371 25.9999 14.2518 25.9999Z" fill="#F9DF94"/>
<path d="M20.8502 19.4852C21.7311 19.4852 22.4991 18.7271 22.4991 17.8577V10.2563C22.4991 9.39158 21.7311 8.62958 20.8502 8.62958C19.9693 8.62958 19.2012 9.39158 19.2012 10.2563V17.8577C19.2012 18.727 19.9692 19.4852 20.8502 19.4852Z" fill="#F9DF94"/>
<path d="M2.14985 19.4852C3.03082 19.4852 3.7989 18.7271 3.7989 17.8577V10.2563C3.7989 9.39158 3.0309 8.62958 2.14985 8.62958C1.26897 8.62958 0.500977 9.39158 0.500977 10.2563V17.8577C0.500977 18.727 1.26897 19.4852 2.14985 19.4852Z" fill="#F9DF94"/>
<path d="M16.7817 0.163975C16.5615 -0.0546583 16.2338 -0.0546583 16.0137 0.163975L14.5368 1.61658L14.4687 1.68374C13.593 1.25098 12.6112 1.03486 11.5179 1.03278C11.5125 1.03278 11.5072 1.03261 11.5019 1.03261H11.5017C11.4962 1.03261 11.4911 1.03278 11.4855 1.03278C10.3922 1.03486 9.41044 1.25098 8.53484 1.68374L8.46653 1.61658L6.98979 0.163975C6.76948 -0.0546583 6.44192 -0.0546583 6.22179 0.163975C6.00149 0.381393 6.00149 0.704051 6.22179 0.921296L7.65036 2.33139C7.19005 2.6347 6.77265 3.00586 6.40966 3.43037C5.54065 4.44693 4.98637 5.76992 4.91015 7.20336C4.90945 7.21828 4.90795 7.23303 4.90725 7.24795C4.90259 7.34556 4.90039 7.44368 4.90039 7.54215H18.1031C18.1031 7.44368 18.1007 7.34556 18.0962 7.24795C18.0955 7.23303 18.094 7.21828 18.0931 7.20336C18.0171 5.76992 17.4626 4.44684 16.5936 3.43046C16.2308 3.00595 15.8132 2.63479 15.3529 2.33148L16.7817 0.921383C17.002 0.704051 17.002 0.381393 16.7817 0.163975ZM8.74961 5.64481C8.29405 5.64481 7.92473 5.28034 7.92473 4.83075C7.92473 4.38117 8.29405 4.01669 8.74961 4.01669C9.20517 4.01669 9.57449 4.38117 9.57449 4.83075C9.57449 5.28034 9.20517 5.64481 8.74961 5.64481ZM14.2539 5.64481C13.7983 5.64481 13.429 5.28034 13.429 4.83075C13.429 4.38117 13.7983 4.01669 14.2539 4.01669C14.7094 4.01669 15.0787 4.38117 15.0787 4.83075C15.0787 5.28034 14.7094 5.64481 14.2539 5.64481Z" fill="#F9DF94"/>
</g>
<defs>
<clipPath id="clip0_16712_14001">
<rect width="22" height="26" fill="white" transform="translate(0.5)"/>
</clipPath>
</defs>
</svg>
