<svg width="33" height="32" viewBox="0 0 33 32" fill="none" xmlns="http://www.w3.org/2000/svg">
<g clip-path="url(#clip0_16712_14014)">
<path d="M3.70098 3.2H10.117V0H0.500977V9.60001H3.70098V3.2ZM3.70098 22.4H0.500977V32H10.117V28.8H3.70098V22.4ZM29.301 28.8H22.901V32H32.501V22.4H29.301V28.8ZM22.901 3.2H29.301V9.60001H32.501V0H22.901V3.2Z" fill="#F9DF94"/>
<path d="M5.30273 14.4H14.9027V4.79999H5.30273V14.4ZM8.50274 7.99999H11.7027V11.2H8.50274V7.99999ZM5.30273 27.2H14.9027V17.6H5.30273V27.2ZM8.50274 20.8H11.7027V24H8.50274V20.8ZM27.7027 4.79999H18.1027V14.4H27.7027V4.79999ZM24.5027 11.2H21.3027V7.99999H24.5027V11.2ZM18.1187 17.6H21.3187V20.8H18.1187V17.6ZM21.3187 20.8H24.5187V24H21.3187V20.8ZM24.5187 24H27.7188V27.2H24.5187V24ZM24.5187 17.6H27.7188V20.8H24.5187V17.6Z" fill="#F9DF94"/>
</g>
<defs>
<clipPath id="clip0_16712_14014">
<rect width="32" height="32" fill="white" transform="translate(0.500977)"/>
</clipPath>
</defs>
</svg>
