<svg width="38" height="38" viewBox="0 0 38 38" fill="none" xmlns="http://www.w3.org/2000/svg">
<g id="Group">
<path id="Vector" d="M3.8 3.8H11.419V0H0V11.4H3.8V3.8ZM3.8 26.6H0V38H11.419V34.2H3.8V26.6ZM34.2 34.2H26.6V38H38V26.6H34.2V34.2ZM26.6 3.8H34.2V11.4H38V0H26.6V3.8Z" fill="#FAFAFA"/>
<path id="Vector_2" d="M5.70117 17.1H17.1012V5.69998H5.70117V17.1ZM9.50117 9.49998H13.3012V13.3H9.50117V9.49998ZM5.70117 32.3H17.1012V20.9H5.70117V32.3ZM9.50117 24.7H13.3012V28.5H9.50117V24.7ZM32.3012 5.69998H20.9012V17.1H32.3012V5.69998ZM28.5012 13.3H24.7012V9.49998H28.5012V13.3ZM20.9202 20.9H24.7202V24.7H20.9202V20.9ZM24.7202 24.7H28.5202V28.5H24.7202V24.7ZM28.5202 28.5H32.3202V32.3H28.5202V28.5ZM28.5202 20.9H32.3202V24.7H28.5202V20.9Z" fill="#FAFAFA"/>
</g>
</svg>
