<svg width="22" height="22" viewBox="0 0 22 22" fill="none" xmlns="http://www.w3.org/2000/svg">
<g id="X">
<circle id="Ellipse 1898" cx="11" cy="11" r="11" fill="black" fill-opacity="0.55"/>
<g id="Vector">
<path d="M5.76246 5.76185C6.34105 5.18327 7.27912 5.18327 7.8577 5.76185L16.2387 14.1428C16.8172 14.7214 16.8172 15.6595 16.2387 16.238C15.6601 16.8166 14.722 16.8166 14.1434 16.238L5.76246 7.85709C5.18388 7.27851 5.18388 6.34044 5.76246 5.76185Z" fill="#B19F63"/>
<path d="M16.2387 5.76185C16.8172 6.34044 16.8172 7.27851 16.2387 7.85709L7.8577 16.238C7.27912 16.8166 6.34105 16.8166 5.76246 16.238C5.18388 15.6595 5.18388 14.7214 5.76246 14.1428L14.1434 5.76185C14.722 5.18327 15.6601 5.18327 16.2387 5.76185Z" fill="#B19F63"/>
</g>
</g>
</svg>
