<?xml version="1.0" encoding="UTF-8"?>
<svg xmlns="http://www.w3.org/2000/svg" viewBox="188.181 215.97 280 32.005" width="280px" height="32.005px">
  <path fill="#FF5959" d="M 191.202 218.97 L 191.186 215.97 L 192.686 215.97 L 192.686 216.72 L 191.936 216.72 L 191.936 219.72 L 188.936 219.72 L 188.936 220.47 L 188.186 220.47 L 188.186 218.97 L 191.202 218.97 Z" transform="matrix(1, 0, 0, 1, -1.7763568394002505e-15, -2.842170943040401e-14)"/>
  <path fill="#FF5959" d="M 190.431 218.225 L 190.431 215.975 L 189.681 216.725 L 189.681 217.475 L 188.931 217.475 L 188.181 218.225 L 190.431 218.225 Z" transform="matrix(1, 0, 0, 1, -1.7763568394002505e-15, -2.842170943040401e-14)"/>
  <path fill="#FF5959" d="M 188.181 220.475 L 188.931 220.475 L 188.931 243.475 L 188.181 243.475 L 188.181 220.475 Z" transform="matrix(1, 0, 0, 1, -1.7763568394002505e-15, -2.842170943040401e-14)"/>
  <path fill="#FF5959" d="M 191.181 244.959 L 188.181 244.975 L 188.181 243.475 L 188.931 243.475 L 188.931 244.225 L 191.931 244.225 L 191.931 247.225 L 192.681 247.225 L 192.681 247.975 L 191.181 247.975 L 191.181 244.959 Z" transform="matrix(1, 0, 0, 1, -1.7763568394002505e-15, -2.842170943040401e-14)"/>
  <path fill="#FF5959" d="M 190.431 245.725 L 188.181 245.725 L 188.931 246.475 L 189.681 246.475 L 189.681 247.225 L 190.431 247.975 L 190.431 245.725 Z M 192.681 215.975 L 463.681 215.975 L 463.681 216.725 L 192.681 216.725 L 192.681 215.975 Z M 192.681 247.225 L 463.681 247.225 L 463.681 247.975 L 192.681 247.975 L 192.681 247.225 Z" transform="matrix(1, 0, 0, 1, -1.7763568394002505e-15, -2.842170943040401e-14)"/>
  <path fill="#FF5959" d="M 465.165 218.975 L 465.181 215.975 L 463.681 215.975 L 463.681 216.725 L 464.431 216.725 L 464.431 219.725 L 467.431 219.725 L 467.431 220.475 L 468.181 220.475 L 468.181 218.975 L 465.165 218.975 Z" transform="matrix(1, 0, 0, 1, -1.7763568394002505e-15, -2.842170943040401e-14)"/>
  <path fill="#FF5959" d="M 465.931 218.225 L 465.931 215.975 L 466.681 216.725 L 466.681 217.475 L 467.431 217.475 L 468.181 218.225 L 465.931 218.225 Z" transform="matrix(1, 0, 0, 1, -1.7763568394002505e-15, -2.842170943040401e-14)"/>
  <path fill="#FF5959" d="M 468.181 220.475 L 467.431 220.475 L 467.431 243.475 L 468.181 243.475 L 468.181 220.475 Z" transform="matrix(1, 0, 0, 1, -1.7763568394002505e-15, -2.842170943040401e-14)"/>
  <path fill="#FF5959" d="M 465.181 244.959 L 468.181 244.975 L 468.181 243.475 L 467.431 243.475 L 467.431 244.225 L 464.431 244.225 L 464.431 247.225 L 463.681 247.225 L 463.681 247.975 L 465.181 247.975 L 465.181 244.959 Z" transform="matrix(1, 0, 0, 1, -1.7763568394002505e-15, -2.842170943040401e-14)"/>
  <path fill="#FF5959" d="M 465.931 245.725 L 468.181 245.725 L 467.431 246.475 L 466.681 246.475 L 466.681 247.225 L 465.931 247.975 L 465.931 245.725 Z" transform="matrix(1, 0, 0, 1, -1.7763568394002505e-15, -2.842170943040401e-14)"/>
</svg>