<?xml version="1.0" encoding="UTF-8"?>
<svg xmlns="http://www.w3.org/2000/svg" viewBox="-13.228 50.514 280 32" width="280px" height="32px">
  <path fill="#6393D2" d="M -10.212 53.514 L -10.228 50.514 L -8.728 50.514 L -8.728 51.264 L -9.478 51.264 L -9.478 54.264 L -12.478 54.264 L -12.478 55.014 L -13.228 55.014 L -13.228 53.514 L -10.212 53.514 Z"/>
  <path fill="#6393D2" d="M -10.978 52.764 L -10.978 50.514 L -11.728 51.264 L -11.728 52.014 L -12.478 52.014 L -13.228 52.764 L -10.978 52.764 Z"/>
  <path fill="#6393D2" d="M -13.228 55.014 L -12.478 55.014 L -12.478 78.014 L -13.228 78.014 L -13.228 55.014 Z"/>
  <path fill="#6393D2" d="M -10.228 79.498 L -13.228 79.514 L -13.228 78.014 L -12.478 78.014 L -12.478 78.764 L -9.478 78.764 L -9.478 81.764 L -8.728 81.764 L -8.728 82.514 L -10.228 82.514 L -10.228 79.498 Z"/>
  <path fill="#6393D2" d="M -10.978 80.264 L -13.228 80.264 L -12.478 81.014 L -11.728 81.014 L -11.728 81.764 L -10.978 82.514 L -10.978 80.264 Z M -8.728 50.514 L 262.272 50.514 L 262.272 51.264 L -8.728 51.264 L -8.728 50.514 Z M -8.728 81.764 L 262.272 81.764 L 262.272 82.514 L -8.728 82.514 L -8.728 81.764 Z"/>
  <path fill="#6393D2" d="M 263.756 53.514 L 263.772 50.514 L 262.272 50.514 L 262.272 51.264 L 263.022 51.264 L 263.022 54.264 L 266.022 54.264 L 266.022 55.014 L 266.772 55.014 L 266.772 53.514 L 263.756 53.514 Z"/>
  <path fill="#6393D2" d="M 264.522 52.764 L 264.522 50.514 L 265.272 51.264 L 265.272 52.014 L 266.022 52.014 L 266.772 52.764 L 264.522 52.764 Z"/>
  <path fill="#6393D2" d="M 266.772 55.014 L 266.022 55.014 L 266.022 78.014 L 266.772 78.014 L 266.772 55.014 Z"/>
  <path fill="#6393D2" d="M 263.772 79.498 L 266.772 79.514 L 266.772 78.014 L 266.022 78.014 L 266.022 78.764 L 263.022 78.764 L 263.022 81.764 L 262.272 81.764 L 262.272 82.514 L 263.772 82.514 L 263.772 79.498 Z"/>
  <path fill="#6393D2" d="M 264.522 80.264 L 266.772 80.264 L 266.022 81.014 L 265.272 81.014 L 265.272 81.764 L 264.522 82.514 L 264.522 80.264 Z"/>
</svg>