<svg width="65" height="64" viewBox="0 0 65 64" fill="none" xmlns="http://www.w3.org/2000/svg">
<g id="Subclasses">
<g id="Vector" filter="url(#filter0_d_1533_1150)">
<path fill-rule="evenodd" clip-rule="evenodd" d="M51.2138 37.4561C50.2849 39.6986 48.9742 41.5863 47.096 43.2022C44.8392 45.1439 42.361 46.6 39.5133 47.4854C38.495 47.8011 38.1589 48.1969 38.1478 49.2742C38.1386 50.1456 38.227 51.019 38.2696 51.8924C38.2767 52.0183 38.2706 52.1442 38.2706 52.2701C38.2229 52.2851 38.1762 52.3011 38.1285 52.3171C37.9275 51.9294 37.698 51.5546 37.5315 51.1539C36.6716 49.0903 35.9457 46.9927 36.2006 44.7112C36.2808 43.9967 36.3011 43.1943 36.9894 42.7685C37.3945 42.5177 37.9691 42.5447 38.4463 42.3868C42.7346 40.9658 46.162 38.5644 47.7031 34.2063C49.0442 30.4149 48.5864 26.6824 47.0321 23.0289C46.4178 21.5858 45.7001 20.2178 44.6148 19.0515C44.3975 18.8187 44.2696 18.5059 44.1579 18.1901C45.6635 18.7398 46.8026 19.7401 47.8737 20.8204C50.3031 23.2707 51.7762 26.2317 52.3346 29.5645C52.7884 32.2686 52.2737 34.9018 51.2138 37.4561ZM41.4757 32.6204C41.6189 34.2653 40.9671 35.6334 39.9346 36.8515C38.8737 38.1047 37.5254 38.9251 35.8828 39.2779C35.228 39.4198 34.5935 39.6526 33.831 39.8785C34.1092 40.1533 34.3102 40.4361 34.5853 40.601C34.9275 40.8069 34.965 41.0067 34.7975 41.3335C33.761 43.3521 33.8259 45.5107 34.0107 47.6712C34.1346 49.1153 34.2655 50.5663 35.028 51.8734C35.097 51.9903 34.9975 52.2691 34.8879 52.402C34.7417 52.5779 34.4869 52.6619 34.3173 52.8248C33.9691 53.1565 33.5376 53.4333 34.1518 53.984C34.5671 54.3567 34.5457 54.9094 34.0868 55.355C33.2655 56.1515 32.23 56.2275 31.3559 55.487C30.7315 54.9593 30.6929 54.4267 31.2645 53.8301C31.5884 53.4923 31.5894 53.2974 31.1386 53.1345C31.1183 53.1276 31.097 53.1216 31.0787 53.1106C29.8889 52.3881 29.9934 52.3701 30.3559 51.061C31.2523 47.8251 31.6412 44.5593 30.232 41.3395C30.0858 41.0057 30.0858 40.7919 30.4472 40.611C30.7518 40.4591 31.028 40.2512 31.3163 40.0684C31.2472 39.9904 31.1782 39.9135 31.1092 39.8355C30.4655 39.6526 29.8158 39.4868 29.1782 39.2839C26.5823 38.4595 24.7416 36.8765 23.9782 34.2443C23.8726 33.8785 23.8168 33.4898 23.8087 33.1101C23.7995 32.6933 23.9234 32.2926 23.5183 31.9359C23.3955 31.8279 23.4614 31.3732 23.5944 31.1754C23.6868 31.0365 24.0503 30.9975 24.2726 31.0335C24.566 31.0814 24.8482 31.2283 25.1173 31.3652C25.9061 31.765 25.8452 31.768 25.4229 32.4805C25.2076 32.8442 25.1325 33.4129 25.2554 33.8116C25.4249 34.3592 25.7335 34.9688 26.1772 35.3066C26.9579 35.9012 27.8554 36.3799 28.763 36.7776C29.6554 37.1673 29.9711 36.9155 29.9975 35.9801C30.0604 33.7606 30.1092 31.5411 30.1772 29.3216C30.1934 28.785 30.1112 28.3213 29.6696 27.9366C29.2371 27.5598 29.1051 27.198 29.5914 26.6544C29.9285 26.2777 30.095 25.6551 30.1254 25.1314C30.3011 22.1684 30.298 19.1924 30.5792 16.2404C30.8452 13.4483 31.2503 10.6502 32.6107 8C32.9264 8.94936 33.3173 9.88173 33.5467 10.8521C34.431 14.5876 34.8097 18.38 34.7843 22.2144C34.7772 23.2607 34.763 24.32 34.9173 25.3493C35.0158 26.0089 35.4168 26.6254 35.6818 27.261C35.7437 27.252 35.8056 27.244 35.8676 27.234C35.7366 27.4269 35.6422 27.6607 35.4696 27.8046C34.8858 28.2913 34.8351 28.9159 34.8594 29.6044C34.9346 31.716 34.9772 33.8276 35.0351 35.9402C35.0615 36.8645 35.2127 37.0734 36.1153 36.8595C37.6016 36.5088 38.9762 35.8532 39.7843 34.5031C40.232 33.7566 40.4605 32.9032 39.6128 32.1697C39.5427 32.1087 39.6341 31.705 39.76 31.6251C40.1397 31.3832 40.5579 31.1754 40.9904 31.0504C41.2097 30.9865 41.6544 31.0634 41.7102 31.1944C41.8168 31.4452 41.7458 31.784 41.697 32.0788C41.6666 32.2666 41.4605 32.4485 41.4757 32.6204ZM16.9345 26.3816C16.1071 29.9502 16.5223 33.3749 18.4848 36.5597C20.0645 39.123 22.4076 40.7549 25.1894 41.8542C25.9153 42.141 26.633 42.5027 27.3904 42.6356C27.8706 42.7186 28.2889 42.7156 28.4554 43.2202C28.6087 43.6839 28.7752 44.1586 28.8229 44.6393C28.9965 46.4121 28.7203 48.1279 28.0208 49.7768C27.7203 50.4833 27.433 51.1969 27.1305 51.9034C27.0696 52.0453 26.9701 52.1712 26.9 52.2851C26.9 51.4037 26.901 50.5423 26.899 49.6819C26.898 49.468 26.9061 49.2512 26.8736 49.0413C26.7518 48.2658 26.4706 47.7142 25.5488 47.4724C21.7812 46.48 18.7508 44.2655 16.1924 41.4974C15.1569 40.3762 14.5233 38.8622 13.8563 37.4591C12.5985 34.8149 12.1711 31.9848 12.7619 29.1387C13.6452 24.8836 15.8797 21.386 19.5183 18.8157C19.7091 18.6808 19.9427 18.6038 20.1508 18.4919C20.3579 18.382 20.5589 18.2621 20.7619 18.1462C20.8168 18.1951 20.8726 18.2441 20.9274 18.2941C20.6381 18.6948 20.3741 19.1175 20.0543 19.4942C18.3467 21.5019 17.5102 23.9013 16.9345 26.3816Z" fill="#B19F63"/>
</g>
</g>
<defs>
<filter id="filter0_d_1533_1150" x="9.672" y="7.172" width="45.656" height="53.656" filterUnits="userSpaceOnUse" color-interpolation-filters="sRGB">
<feFlood flood-opacity="0" result="BackgroundImageFix"/>
<feColorMatrix in="SourceAlpha" type="matrix" values="0 0 0 0 0 0 0 0 0 0 0 0 0 0 0 0 0 0 127 0" result="hardAlpha"/>
<feOffset dy="2"/>
<feGaussianBlur stdDeviation="1.414"/>
<feColorMatrix type="matrix" values="0 0 0 0 0 0 0 0 0 0 0 0 0 0 0 0 0 0 0.3 0"/>
<feBlend mode="normal" in2="BackgroundImageFix" result="effect1_dropShadow_1533_1150"/>
<feBlend mode="normal" in="SourceGraphic" in2="effect1_dropShadow_1533_1150" result="shape"/>
</filter>
</defs>
</svg>
