<svg width="65" height="64" viewBox="0 0 65 64" fill="none" xmlns="http://www.w3.org/2000/svg">
<g filter="url(#filter0_d_318_10055)">
<path fill-rule="evenodd" clip-rule="evenodd" d="M54.5 32.0533C52.4225 33.7099 47.1151 35.9432 44.2554 36.3911C44.579 35.1521 45.4941 34.1386 45.5755 32.6903C43.9189 32.6903 42.3506 32.6169 40.7942 32.7256C40.1629 32.7699 39.9177 32.5353 39.6765 32.0955C39.9505 31.5078 40.2949 31.2672 41.0016 31.3175C42.4945 31.4232 43.9993 31.3497 45.7393 31.3497C45.1805 30.0273 44.6961 28.8809 44.172 27.64C47.8694 28.5729 51.286 29.9447 54.5 32.0533ZM38.803 30.7559C38.666 31.0599 38.3603 31.2944 38.1072 31.5329C37.7767 31.8419 37.6734 32.2435 38.0744 32.4438C38.6928 32.7517 38.8715 33.3315 39.1058 33.8598C39.7629 35.3373 40.3713 36.8389 40.9599 38.3456C41.0572 38.5952 41.0463 38.9575 40.9441 39.2071C39.1554 43.5741 37.1186 47.7962 34.0365 51.4094C33.4122 52.141 32.8613 52.9432 32.3293 53.7504C31.8489 54.479 31.6354 55.3194 31.9729 56.1568C32.1337 56.5543 32.5437 56.8432 32.8286 57.1914C32.9854 57.3826 33.1184 57.594 33.2613 57.7963C33.0201 57.8678 32.763 58.0318 32.5387 57.9946C31.5679 57.8335 30.7868 56.7305 30.7401 55.4613C30.6955 54.2546 30.8314 53.1103 31.5759 52.0666C32.5725 50.6706 33.5134 49.2264 34.3869 47.7469C35.993 45.0224 36.5984 42.1067 35.4609 39.0501C34.915 37.5867 34.1557 36.1958 33.3943 34.8301C33.0727 34.2544 32.494 33.8266 31.965 33.26C32.3412 33.0446 32.7065 32.8423 33.0638 32.6289C33.702 32.2505 33.707 31.7996 33.0767 31.4202C32.7174 31.2048 32.3491 31.0045 31.9461 30.7751C32.0781 30.5949 32.1387 30.4832 32.226 30.3986C35.054 27.6259 36.3493 24.2442 35.8689 20.2757C35.6604 18.5567 34.9269 16.9877 33.8499 15.5827C33.0688 14.5651 32.4643 13.4067 31.7784 12.3127C31.558 11.9614 31.289 11.6364 31.1123 11.265C30.4106 9.79556 30.623 7.57029 31.6136 6.55377C31.8995 6.26089 32.3729 6.13408 32.7829 6.00526C32.908 5.96701 33.17 6.14515 33.2514 6.29109C33.298 6.37664 33.1442 6.69669 33.0221 6.73896C32.3342 6.97648 32.0255 7.4777 31.8856 8.16712C31.7178 8.99039 31.9233 9.74423 32.3759 10.3833C33.306 11.6988 34.3462 12.9337 35.2743 14.2511C37.602 17.5553 39.4293 21.1413 40.9361 24.8994C41.0254 25.1208 41.0711 25.4328 40.9867 25.6401C40.284 27.3561 39.5604 29.0641 38.803 30.7559ZM17.0591 27.3984C16.4536 28.0617 15.8551 28.1965 14.9091 28.1371C20.0369 22.6178 25.0664 17.203 30.1436 11.738C30.6687 12.6297 30.6627 12.7183 30.0562 13.3715C25.7166 18.0404 21.3571 22.6902 17.0591 27.3984ZM18.008 28.9504C18.2095 28.9574 18.5083 29.0711 18.5877 29.2281C19.485 30.9904 21.0434 31.3437 22.7864 31.3296C25.1458 31.3115 27.5062 31.2491 29.8646 31.2984C30.5634 31.3135 31.2573 31.6426 31.9491 31.9526C31.2801 32.318 30.752 32.8021 29.9401 32.789C27.1995 32.7447 24.4589 32.7719 21.7184 32.793C20.4528 32.8031 19.4672 33.3818 18.823 34.4909C18.554 34.9539 18.2522 35.126 17.7003 35.1129C15.6863 35.0676 13.6704 35.1189 11.6564 35.0776C11.2713 35.0696 10.8742 35.5607 10.5 35.0686C10.5 35.0263 10.5 34.982 10.5 34.9388C10.6062 34.815 10.7313 34.7022 10.8166 34.5644C11.1174 34.0813 11.3735 33.5639 11.708 33.106C11.9929 32.7165 12.3621 32.3904 12.5805 32.1589C11.9154 31.1334 11.2871 30.1641 10.6548 29.1969C10.6231 29.1486 10.5526 29.1275 10.5 29.0933C10.5 29.05 10.5 29.0067 10.5 28.9634C10.7184 28.9403 10.9358 28.9071 11.1551 28.897C11.2792 28.891 11.4053 28.9383 11.5313 28.9393C13.0311 28.9524 14.5319 28.9665 16.0328 28.9705C16.6918 28.9715 17.3509 28.9262 18.008 28.9504ZM28.0035 48.5601C28.6914 49.2988 29.3435 50.0718 30.0562 50.7823C30.5674 51.2936 30.6667 51.7757 30.1356 52.4218C25.0674 46.9659 20.0359 41.5512 14.9012 36.0247C15.8452 35.9774 16.4407 36.0911 17.0512 36.7624C20.6603 40.7339 24.3458 44.6339 28.0035 48.5601Z" fill="#B19F63"/>
</g>
<defs>
<filter id="filter0_d_318_10055" x="7.672" y="5.172" width="49.656" height="57.656" filterUnits="userSpaceOnUse" color-interpolation-filters="sRGB">
<feFlood flood-opacity="0" result="BackgroundImageFix"/>
<feColorMatrix in="SourceAlpha" type="matrix" values="0 0 0 0 0 0 0 0 0 0 0 0 0 0 0 0 0 0 127 0" result="hardAlpha"/>
<feOffset dy="2"/>
<feGaussianBlur stdDeviation="1.414"/>
<feColorMatrix type="matrix" values="0 0 0 0 0 0 0 0 0 0 0 0 0 0 0 0 0 0 0.3 0"/>
<feBlend mode="normal" in2="BackgroundImageFix" result="effect1_dropShadow_318_10055"/>
<feBlend mode="normal" in="SourceGraphic" in2="effect1_dropShadow_318_10055" result="shape"/>
</filter>
</defs>
</svg>
