<svg width="65" height="64" viewBox="0 0 65 64" fill="none" xmlns="http://www.w3.org/2000/svg">
<g filter="url(#filter0_d_318_10058)">
<path fill-rule="evenodd" clip-rule="evenodd" d="M57.6151 31.6551C57.4367 31.7119 57.2901 31.8699 57.1197 31.9608C56.8027 32.1311 56.363 32.507 56.1796 32.4048C55.7499 32.1642 55.4299 31.7016 55.095 31.303C55.0412 31.2389 55.105 31.0159 55.1737 30.9044C55.2954 30.7061 55.4618 30.5378 55.6333 30.3271C53.3405 29.0002 51.0297 27.9572 48.4438 27.6722C45.488 27.3469 42.5821 27.5906 39.7141 28.3713C39.3462 28.4714 38.9843 28.6325 38.6504 28.8225C38.1968 29.0797 38.0134 28.8855 37.9526 28.4446C37.9217 28.2267 37.9306 28.0006 37.9366 27.7796C37.9904 26.0034 38.0453 24.2273 38.1041 22.4532C38.1111 22.2384 38.141 22.0246 38.1579 21.8418C42.7855 22.32 47.09 23.7708 51.2171 25.7607C53.1281 26.6829 54.9026 27.9056 56.7528 28.9661C57.1087 29.1705 57.5194 29.3275 57.9212 29.3781C58.293 29.4266 58.4435 29.5371 58.4794 29.9264C58.5502 30.7082 58.4784 31.3773 57.6151 31.6551ZM55.0073 27.067C55.0172 27.0061 55.0272 26.9452 55.0382 26.8853C55.4808 26.9059 55.9782 26.8099 56.3441 26.9948C56.5435 27.0949 56.5185 27.6711 56.5953 28.0336C56.5215 28.0811 56.4468 28.1296 56.373 28.1771C55.9184 27.8074 55.4628 27.4367 55.0073 27.067ZM35.905 48.6483C37.3524 47.1107 38.7939 45.5669 40.2444 44.0314C43.3168 40.7806 46.3902 37.5298 49.4706 34.2863C50.6718 33.0213 51.897 31.78 53.1032 30.5192C53.487 30.1185 53.8469 30.0452 54.3573 30.6142C48.1646 37.0589 42.0069 43.4675 35.7983 49.9299C35.4783 49.3382 35.5919 48.9819 35.905 48.6483ZM36.3027 28.0233C35.9688 32.5824 35.6378 37.1405 35.3208 41.7007C35.1194 44.6014 34.938 47.5031 34.7615 50.4049C34.7127 51.2186 35.2091 51.9497 36.0017 52.0757C36.7443 52.1955 36.9776 52.5621 36.868 53.2756C36.848 53.4047 36.854 53.5441 36.8739 53.6742C37.0035 54.5045 37.0474 55.2149 35.9299 55.3802C35.6139 55.4277 35.3198 55.9646 35.1025 56.3333C34.4994 57.3567 33.66 57.9979 32.4966 58C31.3303 58.0021 30.4779 57.368 29.9057 56.324C29.5907 55.7488 29.2199 55.2439 28.5181 55.1623C28.0974 55.1127 28.0017 54.8566 28.0754 54.458C28.1203 54.2205 28.1382 53.9685 28.1143 53.7279C28.0216 52.8109 28.1113 52.1108 29.2548 51.9952C29.827 51.9373 30.2726 51.0926 30.2337 50.4534C30.0353 47.1748 29.8409 43.8951 29.6126 40.6185C29.3036 36.1688 28.9687 31.7222 28.6377 27.2746C28.5121 25.5924 28.3755 23.9113 28.223 22.2312C28.1751 21.7107 28.228 21.3627 28.8201 21.2006C29.3066 21.0684 29.7323 20.7121 30.2098 20.5242C30.6265 20.36 30.9405 20.423 30.9664 21.0364C31.0511 23.0542 31.1787 25.0689 31.2904 27.0846C31.2715 27.0856 31.2535 27.0867 31.2346 27.0877C31.3901 30.8806 31.5416 34.6746 31.7011 38.4675C31.7589 39.8419 31.8327 41.2164 31.9035 42.5908C31.9115 42.7457 31.8945 42.9399 31.9753 43.0431C32.1188 43.2259 32.3321 43.4758 32.5096 43.4706C32.689 43.4655 32.8804 43.2011 33.026 43.0153C33.0958 42.9275 33.0838 42.7602 33.0898 42.628C33.2483 38.9456 33.4028 35.2632 33.5633 31.5807C33.7168 28.0563 33.8883 24.5319 34.0268 21.0064C34.0498 20.424 34.3578 20.3621 34.7376 20.5118C35.3746 20.7627 36.0047 21.0539 36.5888 21.4123C36.7414 21.5062 36.7752 21.9224 36.7563 22.1826C36.6197 24.1302 36.4453 26.0757 36.3027 28.0233ZM33.4506 16.7509C33.3739 18.0345 33.2941 19.3181 33.2493 20.6027C33.1755 22.731 33.1446 24.8623 33.0658 26.9906C32.9193 30.9839 32.7508 34.9771 32.5913 38.9704C32.5863 39.0798 32.5714 39.1883 32.5614 39.2977C32.5026 39.2998 32.4438 39.3029 32.385 39.306C32.3032 37.5401 32.1956 35.7743 32.1467 34.0075C32.0361 29.945 31.9782 25.8805 31.8506 21.8191C31.7928 19.9583 31.6273 18.1016 31.4948 16.2439C31.4499 15.6098 31.3243 15.5396 30.777 15.8638C30.1868 16.2139 29.6246 16.6136 29.0384 16.9998C28.6128 15.5066 30.8219 8.51863 32.5126 6C34.5073 9.39018 35.5959 13.0458 36.1532 17.0958C35.255 16.5361 34.5034 16.0673 33.6042 15.5066C33.5374 16.0322 33.4716 16.3905 33.4506 16.7509ZM17.7677 36.8111C20.4393 39.5993 23.1568 42.3409 25.8364 45.1218C26.953 46.2805 28.0376 47.4732 29.0953 48.6886C29.3086 48.9334 29.3375 49.3505 29.4511 49.6882C29.3495 49.7533 29.2478 49.8173 29.1471 49.8813C22.9933 43.4758 16.8396 37.0693 10.6529 30.6297C11.1493 29.9977 11.5252 30.1288 11.914 30.5471C13.8609 32.6392 15.7908 34.7489 17.7677 36.8111ZM26.1475 28.7265C25.2931 28.3961 24.393 28.172 23.4968 27.9809C20.0535 27.2457 16.6242 27.3221 13.2747 28.4529C11.9419 28.9021 10.6928 29.6146 9.35894 30.228C10.0179 31.304 10.0019 31.2875 9.16654 32.1828C8.87446 32.4967 8.64717 32.4802 8.33514 32.2726C7.9025 31.9855 7.46088 31.7129 7.01627 31.4455C6.66038 31.2307 6.46997 30.9859 6.50387 30.4975C6.57066 29.5423 6.54175 29.5939 7.48081 29.3719C7.91446 29.2686 8.31321 28.9382 8.68704 28.6542C11.1145 26.813 13.8519 25.6007 16.6322 24.5009C19.251 23.4641 21.9187 22.5616 24.71 22.1372C25.3839 22.035 26.0577 21.9358 26.7845 21.8274C26.8114 21.9358 26.8742 22.0742 26.8792 22.2126C26.942 24.188 27.0098 26.1624 27.0477 28.1389C27.0636 28.9857 26.8951 29.0156 26.1475 28.7265ZM8.42387 28.0625C8.48268 27.7021 8.43383 27.1311 8.62424 27.0268C8.98611 26.8285 9.48455 26.8956 9.92517 26.8533C9.94212 26.9287 9.95907 27.004 9.97502 27.0794C9.52941 27.444 9.08281 27.8074 8.6372 28.173C8.56542 28.1358 8.49464 28.0997 8.42387 28.0625Z" fill="#B19F63"/>
</g>
<defs>
<filter id="filter0_d_318_10058" x="3.672" y="5.172" width="57.656" height="57.656" filterUnits="userSpaceOnUse" color-interpolation-filters="sRGB">
<feFlood flood-opacity="0" result="BackgroundImageFix"/>
<feColorMatrix in="SourceAlpha" type="matrix" values="0 0 0 0 0 0 0 0 0 0 0 0 0 0 0 0 0 0 127 0" result="hardAlpha"/>
<feOffset dy="2"/>
<feGaussianBlur stdDeviation="1.414"/>
<feColorMatrix type="matrix" values="0 0 0 0 0 0 0 0 0 0 0 0 0 0 0 0 0 0 0.3 0"/>
<feBlend mode="normal" in2="BackgroundImageFix" result="effect1_dropShadow_318_10058"/>
<feBlend mode="normal" in="SourceGraphic" in2="effect1_dropShadow_318_10058" result="shape"/>
</filter>
</defs>
</svg>
