<svg width="64" height="64" viewBox="0 0 64 64" fill="none" xmlns="http://www.w3.org/2000/svg">
<g filter="url(#filter0_d_346_10180)">
<path fill-rule="evenodd" clip-rule="evenodd" d="M58.6742 32.6409C55.9455 36.1686 52.7377 39.1211 49.079 41.5281C45.0833 44.1568 40.785 45.9324 36.1044 46.6137C35.1269 46.7548 34.1464 46.8716 33.1669 47C32.2157 47 31.2634 47 30.3112 47C29.3075 46.8716 28.3018 46.758 27.3001 46.6116C22.2916 45.8835 17.7543 43.8799 13.5932 40.8945C10.4227 38.6223 7.63652 35.9065 5.26394 32.7195C4.90685 32.2408 4.91492 31.862 5.27101 31.3971C10.5296 24.5254 17.0935 19.8101 25.329 17.851C25.7869 17.7417 26.255 17.6844 26.6585 17.6133C27.2083 18.9844 27.7348 20.2983 28.2745 21.6461C26.8895 22.2341 25.561 23.0735 24.4806 24.2919C21.6601 27.4704 20.7482 31.2082 21.9597 35.3483C23.1813 39.5265 25.9736 42.1245 30.0287 42.9799C36.0903 44.2577 41.9431 39.6294 42.4747 33.1705C42.6855 30.6192 42.4303 28.0817 40.9212 25.9231C39.9125 24.4787 38.7806 23.1308 37.7265 21.7204C36.5483 20.1465 35.2773 18.631 34.2604 16.9457C32.941 14.7616 32.591 12.2846 32.9511 9.71525C32.9773 9.52422 33.063 9.34168 33.1669 9.01056C33.3072 9.90416 33.3253 10.6789 33.5563 11.374C34.3603 13.7831 35.3882 16.067 37.4824 17.5644C37.8415 17.8213 38.3075 17.937 38.7403 18.0495C46.8022 20.1391 53.2673 24.8416 58.539 31.5011C58.7115 31.7187 58.8467 31.9681 59 32.2026C59 32.2472 59 32.2939 59 32.3395C58.8911 32.4393 58.765 32.5242 58.6742 32.6409ZM19.4308 32.0604C19.4288 28.0541 20.9581 24.6877 23.7563 21.9475C17.9379 23.8079 13.1705 27.3102 9.0528 32.0562C13.1786 36.8043 17.9429 40.3214 23.7594 42.1627C20.9439 39.4363 19.4318 36.0678 19.4308 32.0604ZM40.5278 22.3264C43.1919 25.0008 44.5749 28.2685 44.5678 32.0923C44.5608 35.932 43.1495 39.2049 40.5187 41.8984C46.0406 39.9606 50.6576 36.5974 54.6694 32.174C51.7915 28.346 43.6347 22.6671 40.5278 22.3264ZM31.3038 14.8762C32.0059 16.3429 33.0903 17.6027 33.978 18.9728C35.4518 21.2471 37.5429 23.03 38.6989 25.5516C40.2292 28.8904 40.2978 32.3172 38.6505 35.5605C36.9124 38.9821 32.8573 40.9019 29.3004 39.4522C29.2812 39.4437 29.257 39.4427 29.2389 39.4331C27.7752 38.5406 26.3962 37.543 25.5469 35.9341C24.4937 33.9399 24.1094 31.8397 24.7459 29.6099C25.1736 28.1082 25.9493 26.8973 27.3798 26.2542C27.7147 26.1035 28.0173 25.87 28.329 25.6673C29.0815 25.1759 29.258 24.6761 29.0119 23.7665C28.9796 23.6445 28.9766 23.515 28.9605 23.3887C29.02 23.358 29.0795 23.3272 29.138 23.2964C29.6656 23.7135 29.8704 24.3439 29.8845 25.0125C29.8936 25.4253 29.716 25.8435 29.6081 26.2552C29.5052 26.649 29.3367 27.0279 29.2812 27.428C29.14 28.451 29.6303 29.3298 30.4827 29.6726C31.5691 30.1077 32.5597 29.8084 33.174 28.8596C34.1464 27.3558 33.7873 25.8785 32.9813 24.4967C32.5123 23.6923 31.905 22.9504 31.2533 22.2988C28.2473 19.2943 27.1558 15.6711 27.8983 11.3857C28.2513 9.34699 29.1027 7.58633 30.41 6.07401C30.7833 5.64207 31.3068 5.3534 31.7607 5C31.8082 5.04882 31.8556 5.09658 31.903 5.14539C31.7638 5.38737 31.6246 5.62721 31.4864 5.87025C29.7997 8.83439 29.8744 11.893 31.3038 14.8762Z" fill="#B19F63"/>
</g>
<defs>
<filter id="filter0_d_346_10180" x="2.172" y="4.172" width="59.656" height="47.656" filterUnits="userSpaceOnUse" color-interpolation-filters="sRGB">
<feFlood flood-opacity="0" result="BackgroundImageFix"/>
<feColorMatrix in="SourceAlpha" type="matrix" values="0 0 0 0 0 0 0 0 0 0 0 0 0 0 0 0 0 0 127 0" result="hardAlpha"/>
<feOffset dy="2"/>
<feGaussianBlur stdDeviation="1.414"/>
<feColorMatrix type="matrix" values="0 0 0 0 0 0 0 0 0 0 0 0 0 0 0 0 0 0 0.3 0"/>
<feBlend mode="normal" in2="BackgroundImageFix" result="effect1_dropShadow_346_10180"/>
<feBlend mode="normal" in="SourceGraphic" in2="effect1_dropShadow_346_10180" result="shape"/>
</filter>
</defs>
</svg>
