<svg width="64" height="64" viewBox="0 0 64 64" fill="none" xmlns="http://www.w3.org/2000/svg">
<g filter="url(#filter0_d_347_10286)">
<path fill-rule="evenodd" clip-rule="evenodd" d="M58.7181 33.4699C53.037 40.0607 46.0867 44.5675 37.4238 46.2826C36.9785 46.371 36.525 46.4173 36.0746 46.4776C35.6252 46.5389 35.1749 46.5932 34.5615 46.6716C34.266 45.4863 33.9805 44.3363 33.6911 43.1731C36.7507 42.6775 39.2011 41.3696 41.0908 39.0544C42.3387 37.5233 42.9339 35.7449 43.0907 33.8359C43.2709 31.6503 43.4177 29.4155 42.4349 27.3687C41.2517 24.9047 39.9248 22.5051 38.0756 20.4452C37.6961 20.0219 37.2335 19.6731 36.8084 19.2901C36.8337 19.2308 36.859 19.1735 36.8843 19.1142C37.9866 19.3665 39.105 19.5625 40.1879 19.8772C47.6534 22.0507 53.7353 26.281 58.6897 32.1751C59.0531 32.6064 59.1401 32.9803 58.7181 33.4699ZM42.5786 24.192C43.0189 25.0163 43.4713 25.7271 43.7932 26.4931C44.529 28.2494 44.9338 30.0971 45.0715 31.9911C45.1899 33.6147 45.0431 35.2101 44.2851 36.697C43.3063 38.6201 42.2446 40.487 40.6505 41.9999C46.199 40.1643 50.8386 37.0026 54.8608 32.8155C51.3386 29.1049 47.3377 26.1694 42.5786 24.192ZM37.9279 38.6302C36.3843 40.0969 34.435 40.8247 32.3743 41.25C31.8885 41.3505 31.7549 41.5496 31.85 41.9839C32.1182 43.2174 32.3753 44.4539 32.6637 45.6824C32.7548 46.0694 33.102 46.5369 32.6597 46.7912C32.2893 47.0044 31.7569 47.0134 31.3014 46.9923C30.7862 46.9682 30.4482 46.6736 30.3834 46.0976C30.179 44.2709 29.9148 42.4493 29.7286 40.6207C29.349 36.902 29.762 33.2578 30.8733 29.688C30.93 29.507 30.9735 29.322 30.8804 29.0697C30.4168 29.9845 29.8956 30.8762 29.5039 31.8202C29.1041 32.7873 28.764 33.7886 28.5211 34.805C28.2843 35.8012 28.1426 36.8297 28.0687 37.8521C27.9938 38.8976 28.0525 39.9511 28.0525 41.1324C27.761 40.9072 27.5434 40.7524 27.3399 40.5794C24.9685 38.5789 23.5475 36.0807 23.3906 32.9653C23.2833 30.83 23.9048 28.8727 25.256 27.2109C26.4533 25.7411 27.7225 24.3226 29.0423 22.9574C30.5848 21.362 31.7275 19.6017 31.9492 17.3498C31.9613 17.2302 32.0413 17.1166 32.0889 17C32.1759 17 32.2629 17 32.35 17C33.5828 18.1993 34.8823 19.3383 36.0331 20.6101C38.1799 22.9846 39.9207 25.6326 40.6039 28.7983C41.4025 32.4978 40.7972 35.9008 37.9279 38.6302ZM22.7398 26.9113C21.2125 28.9018 20.918 31.2392 21.2439 33.6529C21.3896 34.7296 21.674 35.7932 21.9635 36.8447C22.4038 38.4452 23.3957 39.739 24.5687 40.8609C25.5019 41.7536 26.6608 42.3488 27.9158 42.7368C28.099 42.7931 28.3308 42.9912 28.3693 43.1621C28.6223 44.2951 28.8288 45.4371 29.0757 46.7108C27.8085 46.5087 26.591 46.3791 25.4037 46.1157C17.1437 44.287 10.5628 39.8395 5.2805 33.3794C4.92322 32.9421 4.89691 32.5822 5.26127 32.1349C10.5446 25.6396 17.1457 21.1861 25.43 19.3554C26.6092 19.0951 27.8217 18.9845 29.0201 18.8136C29.1871 18.7894 29.3612 18.8096 29.5312 18.8096C29.5798 18.8769 29.6284 18.9453 29.6769 19.0126C28.5504 20.2793 27.4189 21.543 26.2974 22.8147C25.1001 24.1719 23.8369 25.4798 22.7398 26.9113ZM9.07398 32.7451C13.2187 37.2217 17.999 40.5252 23.8339 42.2664C21.007 39.7089 19.4908 36.5401 19.4807 32.7773C19.4706 28.9843 21.0009 25.7984 23.8319 23.2118C17.9757 24.9721 13.1691 28.2735 9.07398 32.7451Z" fill="#B19F63"/>
</g>
<defs>
<filter id="filter0_d_347_10286" x="2.172" y="16.172" width="59.656" height="35.656" filterUnits="userSpaceOnUse" color-interpolation-filters="sRGB">
<feFlood flood-opacity="0" result="BackgroundImageFix"/>
<feColorMatrix in="SourceAlpha" type="matrix" values="0 0 0 0 0 0 0 0 0 0 0 0 0 0 0 0 0 0 127 0" result="hardAlpha"/>
<feOffset dy="2"/>
<feGaussianBlur stdDeviation="1.414"/>
<feColorMatrix type="matrix" values="0 0 0 0 0 0 0 0 0 0 0 0 0 0 0 0 0 0 0.3 0"/>
<feBlend mode="normal" in2="BackgroundImageFix" result="effect1_dropShadow_347_10286"/>
<feBlend mode="normal" in="SourceGraphic" in2="effect1_dropShadow_347_10286" result="shape"/>
</filter>
</defs>
</svg>
