<svg width="40" height="40" viewBox="0 0 40 40" fill="none" xmlns="http://www.w3.org/2000/svg">
<g id="Icon Button">
<path id="Union" fill-rule="evenodd" clip-rule="evenodd" d="M29.3241 13.1384L36.3928 20.1881L29.3241 27.2378L22.2555 20.1881L29.3241 13.1384ZM29.3241 9.5409L31.1277 11.3397L38.1964 18.3894L40 20.1881L38.1964 21.9869L31.1277 29.0366L29.3241 30.8354L27.5205 29.0366L20.4519 21.9869L18.6483 20.1881L20.4519 18.3894L27.5205 11.3397L29.3241 9.5409ZM23.8291 36.0931L19.9117 40L3.82114 23.9526L-8.84201e-07 20.2282L0.0428344 20.1844L0.0193663 20.161L2.06544 18.1205L19.8225 -8.81984e-07L23.7813 3.85863L7.82977 20.1366L23.8291 36.0931Z" fill="#B19F63"/>
</g>
</svg>
