<svg width="48" height="48" viewBox="0 0 48 48" fill="none" xmlns="http://www.w3.org/2000/svg">
<g filter="url(#filter0_d_422_10338)">
<path fill-rule="evenodd" clip-rule="evenodd" d="M33.3241 17.1386L40.3928 24.1884L33.3241 31.2383L26.2555 24.1884L33.3241 17.1386ZM33.3241 13.541L35.1277 15.3398L42.1964 22.3897L44 24.1884L42.1964 25.9872L35.1277 33.037L33.3241 34.8358L31.5205 33.037L24.4519 25.9872L22.6483 24.1884L24.4519 22.3897L31.5205 15.3398L33.3241 13.541ZM27.8291 40.093L23.9117 44L7.8487 27.9798L4 24.2285L4.04315 24.1844L4.01937 24.1607L6.09223 22.0934L23.8226 4L27.7813 7.85869L11.8301 24.1366L27.8291 40.093Z" fill="#F9DF94"/>
</g>
<defs>
<filter id="filter0_d_422_10338" x="0" y="0" width="48" height="48" filterUnits="userSpaceOnUse" color-interpolation-filters="sRGB">
<feFlood flood-opacity="0" result="BackgroundImageFix"/>
<feColorMatrix in="SourceAlpha" type="matrix" values="0 0 0 0 0 0 0 0 0 0 0 0 0 0 0 0 0 0 127 0" result="hardAlpha"/>
<feOffset/>
<feGaussianBlur stdDeviation="2"/>
<feComposite in2="hardAlpha" operator="out"/>
<feColorMatrix type="matrix" values="0 0 0 0 1 0 0 0 0 0.87451 0 0 0 0 0.533333 0 0 0 0.8 0"/>
<feBlend mode="normal" in2="BackgroundImageFix" result="effect1_dropShadow_422_10338"/>
<feBlend mode="normal" in="SourceGraphic" in2="effect1_dropShadow_422_10338" result="shape"/>
</filter>
</defs>
</svg>
