<svg width="40" height="41" viewBox="0 0 40 41" fill="none" xmlns="http://www.w3.org/2000/svg">
<g id="Icon Button">
<path id="Union" fill-rule="evenodd" clip-rule="evenodd" d="M29.3241 13.6386L36.3928 20.6884L29.3241 27.7383L22.2555 20.6884L29.3241 13.6386ZM29.3241 10.041L31.1277 11.8398L38.1964 18.8897L40 20.6884L38.1964 22.4872L31.1277 29.537L29.3241 31.3358L27.5205 29.537L20.4519 22.4872L18.6483 20.6884L20.4519 18.8897L27.5205 11.8398L29.3241 10.041ZM23.8291 36.593L19.9117 40.5L3.8487 24.4798L2.93048e-06 20.7285L0.0431472 20.6844L0.019374 20.6607L2.09223 18.5934L19.8226 0.499999L23.7813 4.35869L7.83008 20.6366L23.8291 36.593Z" fill="#082945"/>
</g>
</svg>
