<svg width="44" height="30" viewBox="0 0 44 30" fill="none" xmlns="http://www.w3.org/2000/svg">
<path fill-rule="evenodd" clip-rule="evenodd" d="M11 21L0 10L2 10L11 19L17 13L22 18L27 13L34 20L42 10L44 10L34 21.8768L27 15L23 19L28 24L22 30L16 24L21 19L17 15L11 21ZM18 24L22 28L26 24L22 20L18 24Z" fill="#433421"/>
<path fill-rule="evenodd" clip-rule="evenodd" d="M10 10L0 0L2 4.37114e-08L10 8L16 2L22 8L28 2L34 8.12318L42 -1.8297e-06L44 -1.8297e-06L34 10L28 4L23 9L28 14L22 20L16 14L21 9L16 4L10 10ZM18 14L22 18L26 14L22 10L18 14Z" fill="#776030"/>
</svg>
