<svg width="48" height="48" viewBox="0 0 48 48" fill="none" xmlns="http://www.w3.org/2000/svg">
<path fill-rule="evenodd" clip-rule="evenodd" d="M43.7836 24.2436C43.8331 24.3641 44.04 24.4801 44.1819 24.4911C44.7859 24.5368 45.3938 24.5428 46 24.5632C46 31.7086 46 38.8546 46 46C31.3385 46 16.6765 46 2.01507 46C2.01012 45.8933 2.00077 45.7866 2.00077 45.6799C1.99967 38.7495 1.99967 31.8186 2.00132 24.8876C2.00132 24.7716 2.02442 24.6556 2.04037 24.5021C2.62954 24.5021 3.1923 24.4922 3.75396 24.5065C4.00041 24.5126 4.12638 24.4427 4.2243 24.1958C5.01646 22.1929 6.45939 20.8912 8.52064 20.2697C8.65707 20.2285 8.78744 20.1669 8.96843 20.096C8.83365 19.909 8.73793 19.7748 8.64001 19.6417C6.5001 16.7259 4.35743 13.8123 2.22631 10.8899C2.10199 10.7194 2.01177 10.4802 2.00902 10.2718C1.95621 5.74077 5.5088 2.04349 10.0444 2.02534C19.3435 1.98849 28.643 1.99509 37.9426 2.02424C41.707 2.03579 44.8651 4.62163 45.7508 8.29361C45.8504 8.70497 45.918 9.12347 46 9.53923C46 9.9055 46 10.2718 46 10.6386C45.9175 10.7222 45.8229 10.797 45.7547 10.891C43.574 13.8838 41.3956 16.8788 39.2177 19.8743C39.1583 19.9557 39.111 20.0459 39.0543 20.1378C39.1171 20.1708 39.1545 20.201 39.1974 20.212C41.4011 20.7889 42.9216 22.1363 43.7836 24.2436ZM18.2102 35.8392C18.2102 35.9718 18.2768 36.1483 18.3747 36.2308C20.2324 37.7904 22.1 39.3396 23.9996 40.9196C24.131 40.819 24.2301 40.7502 24.3214 40.6721C26.0223 39.2324 27.7282 37.7976 29.4137 36.3397C29.5793 36.1967 29.7064 35.9124 29.708 35.6929C29.7273 32.7617 29.7212 29.8311 29.7196 26.8999C29.7196 26.753 29.7025 26.6068 29.6921 26.4434C25.8556 26.4434 22.0604 26.4434 18.2487 26.4434C18.2311 26.5358 18.2064 26.6079 18.2058 26.6799C18.2036 29.7332 18.2014 32.7859 18.2102 35.8392ZM43.2236 8.8584C43.1802 8.68462 43.1532 8.53723 43.1059 8.3959C42.3561 6.15377 40.2844 4.59853 37.9162 4.59468C28.6331 4.57873 19.3495 4.58313 10.0659 4.59248C8.47278 4.59468 7.13162 5.23262 6.04791 6.39135C5.40428 7.07988 4.96144 7.88445 4.73865 8.8584C17.6062 8.8584 30.3957 8.8584 43.2236 8.8584ZM37.8469 22.6307C36.6443 22.5949 35.713 22.1055 35.0479 21.0908C33.9714 19.4481 32.4068 18.8778 30.4886 19.3629C30.0837 19.4652 29.6415 19.5053 29.2267 19.4668C28.3091 19.3816 27.6286 18.8795 27.0675 18.1541C25.6697 16.3453 23.1271 16.0335 21.4883 17.5525C20.332 18.6238 18.7268 18.869 17.2607 17.9748C15.282 16.7677 12.9303 17.6058 12.0017 19.7292C11.8983 19.9662 11.8471 20.2291 11.7228 20.4529C11.4654 20.9143 11.2189 21.3938 10.8867 21.7991C10.4389 22.3458 9.78919 22.596 9.11916 22.7923C8.19718 23.0624 7.48534 23.6118 6.94403 24.4779C18.3258 24.4779 29.6294 24.4779 41.0413 24.4779C40.2178 23.2917 39.1924 22.6703 37.8469 22.6307ZM24.0062 29.406C25.8611 29.423 27.3277 30.9183 27.32 32.7843C27.3129 34.6398 25.8226 36.1208 23.9633 36.1208C22.0824 36.1208 20.5955 34.625 20.6032 32.7414C20.6109 30.8655 22.1176 29.3884 24.0062 29.406Z" fill="#B2C3E9" fill-opacity="0.3"/>
</svg>
