<svg width="56" height="54" viewBox="0 0 56 54" fill="none" xmlns="http://www.w3.org/2000/svg">
<path fill-rule="evenodd" clip-rule="evenodd" d="M45.8955 25.9476L56 24.7459L47.7446 30.9795C48.0608 32.4018 48.2328 33.8784 48.2328 35.3967C48.2328 41.4665 45.5666 46.9082 41.3499 50.6171C44.5551 47.2802 46.5298 42.7473 46.5298 37.7487C46.5298 27.4995 38.2423 19.1907 27.6828 19.1907C17.7962 19.1907 9.5087 27.4995 9.5087 37.7487C9.5087 42.4367 11.246 46.7149 14.1059 49.9818C10.2903 46.2999 7.91227 41.1287 7.91227 35.3967C7.91227 33.8807 8.08383 32.4059 8.39931 30.9855L0 24.8272L10.2716 25.9019C11.1231 24.2986 12.1801 22.822 13.4125 21.5117L8.63741 8.65831L19.115 17.2649C20.338 16.6551 21.6313 16.1659 22.9799 15.8138L28.2289 0L33.5105 15.9123C34.7818 16.2689 36.0003 16.7495 37.1568 17.3365L47.8975 8.72349L42.903 21.6982C44.0737 22.9737 45.0791 24.4024 45.8955 25.9476ZM12.8305 41.0642C12.8832 40.8297 12.9314 40.5941 12.9901 40.3611C13.6084 37.9064 15.6672 36.2646 18.1865 36.2331C19.3878 36.2178 20.5892 36.2305 21.7905 36.2305C21.9011 36.2305 22.0118 36.2305 22.0604 36.2305C22.2503 36.913 22.3613 37.5846 22.6267 38.1877C22.8883 38.783 23.3058 39.3093 23.6598 39.8727C22.1643 40.3671 20.9525 41.3111 20.0954 42.7154C19.2372 44.1216 19.1202 49.4056 19.2177 51.0336C18.8802 51.0156 18.5461 50.9868 18.2134 50.9534C15.9849 49.4146 14.1335 47.3671 12.8305 44.975C12.8305 43.3668 12.8305 41.8254 12.8305 41.0642ZM25.9418 40.6128C27.4092 40.5447 28.8853 40.5548 30.3528 40.6241C32.4359 40.723 34.4513 42.4371 34.9657 44.4914C35.1006 45.03 35.1473 49.3307 35.1839 49.8877C35.2198 50.4373 35.1918 50.9913 35.1918 51.5431C35.1918 51.8371 35.1937 52.1308 35.1933 52.4245C33.0018 53.4332 30.5655 54 27.9961 54C25.4592 54 23.0524 53.4475 20.883 52.4627C20.8856 51.5078 20.8889 50.5526 20.8889 49.5982C20.8889 42.9409 23.1238 40.744 25.9418 40.6128ZM35.6605 26.1499C37.8808 26.1547 39.749 27.9232 39.8432 30.1089C39.943 32.4194 38.3058 34.3377 36.0511 34.5549C35.3607 34.6216 34.6958 34.5212 34.0611 34.2467C33.9729 34.2085 33.8776 34.0893 33.8619 33.9949C33.6111 32.4771 32.8676 31.2735 31.6031 30.4052C31.4394 30.2929 31.4629 30.1621 31.4745 30.0168C31.6494 27.834 33.4784 26.145 35.6605 26.1499ZM22.2768 33.6705C22.242 33.8473 22.1703 33.9605 22.0021 34.0526C19.1953 35.5888 15.7868 33.5612 15.7928 30.3528C15.7969 28.2142 17.4318 26.3784 19.5164 26.1716C21.7187 25.9532 23.6867 27.401 24.1068 29.5508C24.1371 29.7066 24.148 29.8658 24.1734 30.0224C24.2328 30.3895 24.1252 30.6502 23.8284 30.915C23.0068 31.6485 22.4914 32.5812 22.2768 33.6705ZM28.0189 31.1769C30.3203 31.1656 32.2165 33.0555 32.2322 35.3761C32.2479 37.7015 30.3532 39.6089 28.0301 39.6063C25.707 39.6033 23.8456 37.7352 23.8407 35.4015C23.8362 33.0764 25.7037 31.1881 28.0189 31.1769ZM32.659 39.9678C32.5581 39.9285 32.4564 39.8921 32.3163 39.8401C33.3124 38.8298 33.8391 37.6356 33.9019 36.2294C34.7593 36.2294 35.5876 36.2256 36.4156 36.2305C37.196 36.235 37.9772 36.1927 38.7484 36.3931C40.9873 36.9748 42.6574 38.8976 42.7785 41.2137C42.8207 42.0232 42.8237 43.8074 42.817 45.5754C41.5233 47.7391 39.7729 49.5959 37.6973 51.0115C37.424 51.0336 37.1489 51.052 36.8723 51.0658C36.8723 50.9145 36.8712 50.7781 36.8727 50.6414C36.8828 49.6858 36.8772 44.9971 36.5711 44.0752C35.911 42.0865 34.6012 40.7234 32.659 39.9678Z" fill="#B2C3E9" fill-opacity="0.3"/>
</svg>
