<svg width="52" height="52" viewBox="0 0 52 52" fill="none" xmlns="http://www.w3.org/2000/svg">
<path fill-rule="evenodd" clip-rule="evenodd" d="M31.7713 36.0255C31.8291 36.0774 31.8868 36.1293 31.9445 36.1812C32.1409 36.3579 32.3374 36.5346 32.536 36.7088C32.5074 36.744 32.4789 36.7793 32.4503 36.8147C32.3867 36.8933 32.323 36.9721 32.2589 37.0506C32.1684 37.0225 32.0779 36.9944 31.9872 36.9663C31.6767 36.8699 31.3642 36.7729 31.0414 36.6732C31.0414 36.9469 31.0377 37.2131 31.0342 37.474C31.0264 38.0428 31.019 38.586 31.0504 39.1264C31.1103 40.1586 31.1507 41.0968 30.3802 41.9904C29.7108 42.768 29.9968 43.5849 30.9171 44.0404C31.2734 44.2167 31.6521 44.343 32.0312 44.4694C32.2534 44.5435 32.4759 44.6177 32.694 44.702C33.3506 44.9564 34.0047 45.2182 34.6585 45.4799C34.9396 45.5925 35.2207 45.705 35.5019 45.8169C35.4877 45.8513 35.4737 45.886 35.4597 45.9207C35.4456 45.9554 35.4316 45.99 35.4173 46.0245C35.2609 46.041 35.1046 46.0576 34.9409 46.075C34.7426 46.096 34.5335 46.1183 34.3001 46.1427C34.3618 46.3576 34.4194 46.5609 34.4747 46.7564C34.588 47.1566 34.6919 47.5238 34.8026 47.8889C34.8396 48.0103 34.8983 48.1361 34.9567 48.2612C35.0695 48.503 35.1809 48.7417 35.1306 48.9385C34.8887 49.8806 35.323 50.2352 36.098 50.4929C36.1374 50.3369 36.1758 50.1852 36.2141 50.0339C36.3334 49.562 36.4515 49.0951 36.5967 48.5194C37.2098 49.0793 37.1774 49.7145 37.1468 50.3135C37.125 50.7394 37.1042 51.1471 37.317 51.4963H38.614C38.7046 50.7658 38.7847 50.1163 38.864 49.466C39.0058 49.46 39.1468 49.4532 39.2878 49.4464L39.2894 49.4463C39.3052 49.581 39.321 49.7156 39.3369 49.8503C39.42 50.5565 39.5034 51.2655 39.5889 51.998H42.1101L42.4104 49.4463L42.4119 49.4464C42.5529 49.4532 42.6939 49.46 42.8357 49.466C42.863 49.6878 42.8902 49.9096 42.9179 50.1345C42.9712 50.5688 43.0261 51.015 43.0858 51.4963H44.3827C44.5956 51.1469 44.5748 50.7391 44.5531 50.313C44.5226 49.7142 44.4902 49.0791 45.1023 48.5194L45.186 48.8503C45.3386 49.4528 45.4637 49.9469 45.6017 50.4929C46.3767 50.2352 46.811 49.8806 46.5692 48.9385C46.5189 48.742 46.6299 48.5037 46.7423 48.2622C46.8007 48.1369 46.8595 48.0106 46.8964 47.8889C47.0124 47.5078 47.1208 47.1245 47.2397 46.7036C47.2903 46.5244 47.3429 46.3383 47.3988 46.1427C47.1616 46.1178 46.9491 46.0952 46.7477 46.0738C46.5879 46.0569 46.4351 46.0406 46.2824 46.0245C46.2539 45.9556 46.2255 45.8858 46.197 45.8169C46.4863 45.7018 46.7754 45.5862 47.0645 45.4705C47.7107 45.2119 48.357 44.9534 49.0058 44.702C49.2239 44.6176 49.4466 44.5433 49.6692 44.4691C50.0479 44.3428 50.4263 44.2165 50.7819 44.0404C51.7029 43.5849 51.989 42.768 51.3188 41.9904C50.549 41.0968 50.5895 40.1586 50.6494 39.1264C50.6802 38.5856 50.6729 38.042 50.6654 37.4728C50.6619 37.2123 50.6583 36.9465 50.6583 36.6732C50.2413 36.8018 49.8421 36.9258 49.443 37.0499L49.4408 37.0506L49.1637 36.7088C49.3588 36.5375 49.552 36.3638 49.7452 36.1901C50.1898 35.7902 50.6344 35.3903 51.1016 35.021C51.9028 34.3874 52.0421 33.5674 51.9905 32.589C51.7568 28.1502 48.1439 24.1645 43.5508 23.3513C42.9558 23.2466 42.3504 23.1963 41.7473 23.1462C41.722 23.1441 41.6966 23.142 41.6713 23.1399C41.5051 23.1262 41.3366 23.1443 41.1479 23.1647C41.0542 23.1748 40.9556 23.1854 40.8499 23.1929C40.7442 23.1854 40.6456 23.1748 40.5521 23.1647C40.3632 23.1444 40.1944 23.1262 40.0277 23.1399C40.0018 23.142 39.9759 23.1442 39.9499 23.1463C39.3481 23.1964 38.7434 23.2467 38.1489 23.3513C38.0091 23.3761 37.8702 23.4038 37.7323 23.4343C37.7594 24.2438 37.9395 25.0091 38.5774 25.7487C39.3895 26.6928 39.0428 27.684 37.9246 28.2378C37.493 28.4513 37.0333 28.6047 36.573 28.7583C36.3033 28.8483 36.0333 28.9384 35.7687 29.0407C34.6297 29.4828 34.3422 29.9068 33.8202 30.7905C33.532 31.2785 33.4455 31.7578 33.3627 32.2168C33.3199 32.4539 33.2781 32.6857 33.2099 32.9105C33.1651 33.0583 33.0938 33.2115 33.0229 33.3636C32.8863 33.6569 32.7516 33.9462 32.8125 34.185C33.0925 35.2733 32.6279 35.7171 31.7713 36.0255ZM47.7418 41.9085C47.7268 42.5444 47.0911 43.3644 46.5138 43.7464C45.088 44.6907 43.6047 44.2412 42.5272 42.8339C42.927 42.562 43.3206 42.2964 43.7093 42.0341C44.5806 41.4462 45.4271 40.875 46.2629 40.2874C47.3322 39.5349 48.2772 39.5091 49.3674 40.3299C48.2195 40.2738 47.7717 40.6982 47.7418 41.9085ZM41.7836 47.5584H39.9154C39.6892 47.5584 39.5275 47.3311 39.5964 47.1083L40.3766 44.5997C40.5241 44.1245 41.1756 44.1245 41.3231 44.5997L42.1033 47.1083C42.1722 47.3311 42.0112 47.5584 41.7836 47.5584ZM35.1852 43.7464C34.6086 43.3644 33.9729 42.5444 33.9579 41.9085C33.928 40.6982 33.4802 40.2738 32.333 40.3299C33.4218 39.5091 34.3675 39.5349 35.4368 40.2874C36.2726 40.875 37.1191 41.4462 37.9904 42.0341C38.3791 42.2964 38.7727 42.562 39.1726 42.8339C38.095 44.2412 36.6117 44.6907 35.1852 43.7464Z" fill="#B2C3E9" fill-opacity="0.3"/>
<path fill-rule="evenodd" clip-rule="evenodd" d="M14.0129 23.3814C13.9919 24.2105 13.8181 24.993 13.1663 25.7487C12.3541 26.6928 12.7009 27.684 13.8191 28.2378C14.2507 28.4513 14.7104 28.6047 15.1706 28.7583C15.4404 28.8483 15.7103 28.9384 15.975 29.0407C17.114 29.4828 17.4015 29.9068 17.9235 30.7905C18.2117 31.2785 18.2982 31.7577 18.381 32.2167C18.4238 32.4539 18.4656 32.6857 18.5337 32.9105C18.5786 33.0583 18.6499 33.2115 18.7208 33.3636C18.8573 33.6569 18.992 33.9462 18.9312 34.185C18.637 35.3281 19.1644 35.7604 20.1047 36.0714C20.1221 36.0783 20.1389 36.0849 20.1552 36.0914C20.1186 36.1243 20.082 36.1572 20.0454 36.1901C19.8522 36.3638 19.6591 36.5375 19.464 36.7088L19.5007 36.754C19.5807 36.8528 19.6611 36.952 19.7403 37.0506C19.8142 37.0276 19.8881 37.0047 19.9621 36.9818C20.2891 36.8803 20.6179 36.7782 20.9586 36.6732C20.9586 36.9469 20.9623 37.2131 20.9658 37.474C20.9736 38.0428 20.981 38.586 20.9496 39.1264C20.8897 40.1586 20.8493 41.0968 21.6198 41.9904C22.2892 42.768 22.0032 43.5849 21.0822 44.0404C20.7266 44.2165 20.3482 44.3428 19.9695 44.4691C19.7469 44.5433 19.5242 44.6176 19.306 44.702C18.6573 44.9534 18.011 45.2119 17.3648 45.4705C17.0757 45.5862 16.7866 45.7018 16.4973 45.8169C16.5115 45.8513 16.5257 45.886 16.54 45.9207C16.5542 45.9554 16.5684 45.99 16.5827 46.0245C16.7458 46.0417 16.9088 46.059 17.0801 46.0772C17.272 46.0976 17.4744 46.1191 17.6991 46.1427C17.6432 46.3383 17.5906 46.5243 17.54 46.7036C17.4211 47.1244 17.3127 47.5078 17.1967 47.8889C17.1598 48.0106 17.101 48.1369 17.0426 48.2622C16.9301 48.5037 16.8192 48.742 16.8694 48.9385C17.1113 49.8806 16.677 50.2352 15.902 50.4929C15.7635 49.945 15.638 49.4495 15.4848 48.8443L15.4026 48.5194C14.79 49.0792 14.8225 49.7143 14.8532 50.3132C14.875 50.7393 14.8958 51.147 14.683 51.4963H13.386C13.3263 51.0148 13.2715 50.5686 13.2181 50.1341C13.1905 49.9093 13.1633 49.6877 13.1359 49.466C12.9937 49.4599 12.8522 49.4531 12.7106 49.4463L12.4104 51.998H9.88916C9.80387 51.2674 9.72068 50.5602 9.63782 49.8559C9.62176 49.7193 9.6057 49.5828 9.58964 49.4463L9.58809 49.4464C9.44709 49.4532 9.30608 49.46 9.16433 49.466C9.1162 49.8603 9.06753 50.2542 9.01663 50.6662C8.98359 50.9337 8.94961 51.2087 8.91423 51.4963H7.61731C7.40408 51.1469 7.42495 50.7391 7.44676 50.313C7.47741 49.7141 7.50991 49.0791 6.89697 48.5194C6.7517 49.0955 6.63352 49.5628 6.51408 50.035C6.47591 50.1859 6.43762 50.3373 6.39827 50.4929C5.62327 50.2352 5.18897 49.8806 5.43008 48.9385C5.48096 48.7415 5.36954 48.5026 5.25664 48.2606C5.19842 48.1358 5.1398 48.0101 5.10286 47.8889C4.98895 47.5131 4.8822 47.1352 4.76528 46.7213C4.71311 46.5366 4.65892 46.3448 4.60116 46.1427C4.83837 46.1178 5.05089 46.0952 5.25237 46.0738C5.41213 46.0568 5.56495 46.0406 5.71762 46.0245C5.74607 45.9556 5.77453 45.8858 5.80223 45.8169C5.521 45.705 5.23991 45.5925 4.95876 45.4799C4.30495 45.2182 3.65088 44.9564 2.99424 44.702C2.77613 44.6177 2.55372 44.5435 2.33143 44.4694C1.95239 44.343 1.57371 44.2167 1.21735 44.0404C0.297078 43.5849 0.0110377 42.768 0.681211 41.9904C1.45022 41.0968 1.41054 40.1586 1.35064 39.1264C1.31981 38.5856 1.32705 38.042 1.33464 37.4727C1.33811 37.2123 1.34165 36.9465 1.34165 36.6732C1.75873 36.802 2.15934 36.9263 2.55919 37.0506C2.58779 37.0153 2.61639 36.9799 2.64501 36.9445C2.70856 36.8659 2.77223 36.7872 2.83625 36.7088C2.63766 36.5346 2.4412 36.3579 2.24479 36.1812C1.80357 35.7843 1.36262 35.3876 0.898362 35.021C0.0971492 34.3874 -0.0421268 33.5674 0.00954019 32.589C0.243165 28.1502 3.85611 24.1645 8.44923 23.3513C9.04364 23.2467 9.64837 23.1964 10.2502 23.1463C10.2761 23.1442 10.3021 23.142 10.328 23.1399C10.4949 23.1262 10.6642 23.1444 10.8533 23.1648C10.9467 23.1748 11.0449 23.1854 11.1501 23.1929C11.2558 23.1854 11.3544 23.1748 11.4479 23.1647C11.6368 23.1444 11.8056 23.1262 11.9723 23.1399C11.9982 23.142 12.0241 23.1442 12.05 23.1463C12.6519 23.1964 13.2566 23.2467 13.851 23.3513C13.9051 23.3609 13.9591 23.3709 14.0129 23.3814ZM18.0421 41.9085C18.0271 42.5444 17.3914 43.3644 16.8148 43.7464C15.3883 44.6907 13.905 44.2412 12.8274 42.8339C13.2244 42.5639 13.6153 42.3001 14.0013 42.0397C14.8755 41.4497 15.7246 40.8768 16.5624 40.2874C17.6325 39.5349 18.5782 39.5091 19.667 40.3299C18.5198 40.2738 18.072 40.6982 18.0421 41.9085ZM12.0846 47.5584H10.2164C9.98875 47.5584 9.82776 47.3311 9.89665 47.1083L10.6769 44.5997C10.8244 44.1245 11.4759 44.1245 11.6234 44.5997L12.4029 47.1083C12.4725 47.3311 12.3108 47.5584 12.0846 47.5584ZM5.48549 43.7464C4.90892 43.3644 4.27319 42.5444 4.25746 41.9085C4.22826 40.6982 3.78048 40.2738 2.63332 40.3299C3.72282 39.5091 4.6678 39.5349 5.73709 40.2874C6.57282 40.8749 7.4193 41.4461 8.29063 42.0341C8.67934 42.2964 9.07298 42.562 9.47283 42.8339C8.39531 44.2412 6.91195 44.6907 5.48549 43.7464Z" fill="#B2C3E9" fill-opacity="0.3"/>
<path fill-rule="evenodd" clip-rule="evenodd" d="M44.0715 16.3264L36.0212 19.107L32.4674 14.4506L34.8194 9.31227L38.0369 10.0732L40.7094 8.29369L40.1044 5.20992L35.4371 3.95868L32.4607 1.24853L32.1057 -0.00195312L35.8542 1.67597L42.4219 2.26105L46.6504 10.4203L44.0715 16.3264ZM30.1933 14.9243L34.2248 20.2627L34.2668 20.2483C34.3536 20.3552 34.4405 20.4621 34.5281 20.5682C34.9294 20.4446 35.3308 20.3211 35.7494 20.1923C35.7494 21.0608 35.7861 21.852 35.7404 22.6387C35.6805 23.6678 35.64 24.6038 36.4136 25.4943C37.0852 26.2696 36.7984 27.0836 35.8737 27.5383C35.3076 27.8164 34.6831 27.9703 34.0908 28.1976C33.1488 28.5607 32.2121 28.9381 31.2731 29.3094C31.3015 29.3784 31.33 29.4474 31.3584 29.5163C31.7051 29.5527 32.0518 29.5898 32.4794 29.6346C32.2907 30.2871 32.1402 30.8335 31.9747 31.3754C31.8661 31.7308 31.5696 32.1242 31.646 32.422C31.8893 33.361 31.4528 33.7157 30.6748 33.9711C30.5123 33.3307 30.3678 32.7623 30.1746 32.0037C29.1218 32.9593 29.9657 34.134 29.452 34.9722C29.0222 34.9722 28.5984 34.9722 28.1498 34.9722C28.06 34.2439 27.9791 33.5959 27.899 32.948C27.7567 32.9411 27.6144 32.9351 27.4722 32.9283C27.3726 33.7657 27.2737 34.6024 27.1712 35.4717C26.7376 35.4717 26.3213 35.4717 25.9064 35.4717C25.4909 35.4717 25.0753 35.4717 24.641 35.4717C24.5384 34.6024 24.4395 33.7657 24.34 32.9283C24.1977 32.9351 24.0554 32.9411 23.9139 32.948C23.833 33.5959 23.7529 34.2439 23.6623 34.9722C23.2138 34.9722 22.7899 34.9722 22.3609 34.9722C21.8465 34.134 22.6904 32.9593 21.6383 32.0037C21.4451 32.7623 21.3006 33.3307 21.1374 33.9711C20.3594 33.7157 19.9228 33.361 20.1662 32.422C20.2425 32.1242 19.946 31.7308 19.8374 31.3754C19.672 30.8335 19.5214 30.2871 19.3335 29.6346C19.7603 29.5898 20.107 29.5527 20.4537 29.5163C20.4822 29.4474 20.5114 29.3784 20.5391 29.3094C19.6001 28.9381 18.6633 28.5607 17.7206 28.1976C17.129 27.9703 16.5045 27.8164 15.9377 27.5383C15.0144 27.0836 14.7269 26.2696 15.3993 25.4943C16.1721 24.6038 16.1316 23.6678 16.0717 22.6387C16.0253 21.852 16.0628 21.0608 16.0628 20.1923C16.4813 20.3211 16.8827 20.4446 17.2848 20.5682C17.3717 20.4621 17.4585 20.3552 17.5454 20.2483L17.5873 20.2627L21.6188 14.9243L19.3627 8.43238C20.5076 7.6874 21.806 7.15386 23.195 6.90982C23.8173 6.80069 24.4508 6.75067 25.0813 6.69914C25.3314 6.67867 25.586 6.72869 25.9064 6.75143C26.2262 6.72869 26.4815 6.67867 26.7309 6.69914C27.3613 6.75067 27.9941 6.80069 28.6171 6.90982C30.0061 7.15386 31.3053 7.6874 32.4502 8.43238L30.1933 14.9243ZM20.4739 23.7959C19.4009 23.0464 18.4514 23.0199 17.3582 23.8384C18.5098 23.7823 18.9598 24.2059 18.9898 25.4125C19.0048 26.0468 19.642 26.8645 20.2216 27.245C21.6525 28.1863 23.1419 27.7384 24.2224 26.3356C22.9217 25.4564 21.687 24.6432 20.4739 23.7959ZM27.1637 30.5971L26.3812 28.0953C26.2329 27.6217 25.5792 27.6217 25.4309 28.0953L24.6485 30.5971C24.5796 30.8191 24.7413 31.0465 24.9689 31.0465H26.8432C27.0716 31.0465 27.2333 30.8191 27.1637 30.5971ZM27.5897 26.3356C28.671 27.7384 30.1596 28.1863 31.5906 27.245C32.1701 26.8645 32.8073 26.0468 32.8231 25.4125C32.853 24.2059 33.3023 23.7823 34.454 23.8384C33.3607 23.0199 32.412 23.0464 31.339 23.7959C30.1259 24.6432 28.8904 25.4564 27.5897 26.3356ZM16.3743 3.95868L11.7078 5.20992L11.102 8.29369L13.7744 10.0732L16.992 9.31227L19.344 14.4506L15.7902 19.107L7.73988 16.3264L5.16027 10.4203L9.38948 2.26105L15.9564 1.67597L19.7049 -0.00195312L19.35 1.24853L16.3743 3.95868Z" fill="#B2C3E9" fill-opacity="0.3"/>
</svg>
