<svg width="44" height="48" viewBox="0 0 44 48" fill="none" xmlns="http://www.w3.org/2000/svg">
<path fill-rule="evenodd" clip-rule="evenodd" d="M34.0476 48C34.0476 46.1843 31.0713 43.3548 28.2857 43.3548H15.7143C13.8715 43.3548 9.95238 46.1843 9.95238 48H0V3.09677C0 1.85084 1.87838 0 3.14286 0H40.8571C43.0645 0 44 1.85084 44 3.09677V48H34.0476ZM40.3333 5.67742C40.3333 5.00181 39.8666 3.6129 38.2381 3.6129H5.76191C5.07624 3.6129 3.66667 5.00181 3.66667 5.67742V37.6774C3.66667 39.2821 5.07624 39.7419 5.76191 39.7419H38.2381C39.8666 39.7419 40.3333 39.2821 40.3333 37.6774V5.67742ZM37.1905 38.7097H6.80952C6.12386 38.7097 4.71429 38.2498 4.71429 36.6452V6.70968C4.71429 6.03406 6.12386 4.64516 6.80952 4.64516H37.1905C38.819 4.64516 39.2857 6.03406 39.2857 6.70968V36.6452C39.2857 38.2498 38.819 38.7097 37.1905 38.7097ZM8.38095 36.129C9.72033 36.129 9.95238 35.9004 9.95238 34.5806C9.95238 34.1899 9.72033 33.0323 8.38095 33.0323C7.98443 33.0323 6.80952 34.1899 6.80952 34.5806C6.80952 35.9004 7.98443 36.129 8.38095 36.129ZM8.38095 6.70968C7.98443 6.70968 6.80952 7.86735 6.80952 8.25806C6.80952 9.57781 7.98443 9.80645 8.38095 9.80645C9.72033 9.80645 9.95238 9.57781 9.95238 8.25806C9.95238 7.86735 9.72033 6.70968 8.38095 6.70968ZM22 9.23819C15.2387 9.23819 9.37567 15.0152 9.37567 21.6774C9.37567 29.2686 15.2387 35.0457 22 35.0457C29.7037 35.0457 35.5672 29.2686 35.5672 21.6774C35.5672 15.0152 29.7037 9.23819 22 9.23819ZM35.619 6.70968C35.2225 6.70968 34.0476 7.86735 34.0476 8.25806C34.0476 9.57781 35.2225 9.80645 35.619 9.80645C36.9584 9.80645 37.1905 9.57781 37.1905 8.25806C37.1905 7.86735 36.9584 6.70968 35.619 6.70968ZM35.619 33.0323C35.2225 33.0323 34.0476 34.1899 34.0476 34.5806C34.0476 35.9004 35.2225 36.129 35.619 36.129C36.9584 36.129 37.1905 35.9004 37.1905 34.5806C37.1905 34.1899 36.9584 33.0323 35.619 33.0323ZM22 33.3626C16.182 33.3626 11.0838 28.3391 11.0838 21.6774C11.0838 15.9448 16.182 10.9213 22 10.9213C28.7608 10.9213 33.8591 15.9448 33.8591 21.6774C33.8591 28.3391 28.7608 33.3626 22 33.3626ZM26.7991 19.4648L29.7183 16.5879C30.163 16.1497 30.163 15.4395 29.7183 15.0013C29.2736 14.5631 28.5529 14.5631 28.1081 15.0013L25.1884 17.8777C23.528 16.8501 21.406 16.8397 19.746 17.8694L16.8347 15.0013C16.39 14.5631 15.6692 14.5631 15.2245 15.0013C14.7798 15.4395 14.7798 16.1497 15.2245 16.5879L18.1353 19.4565C17.0903 21.0921 17.1008 23.183 18.1437 24.8191L15.2245 27.696C14.7798 28.1342 14.7798 28.8444 15.2245 29.2826C15.6692 29.7208 16.39 29.7208 16.8347 29.2826L19.7539 26.4062C21.4144 27.4333 23.5369 27.4441 25.1968 26.4139L28.1081 29.2826C28.5529 29.7208 29.2736 29.7208 29.7183 29.2826C30.163 28.8444 30.163 28.1342 29.7183 27.696L26.807 24.8274C27.8525 23.1917 27.8415 21.1009 26.7991 19.4648ZM22 24.3861C21.2138 24.3861 20.1939 23.3812 20.1939 21.6774C20.1939 20.9027 21.2138 19.8978 22 19.8978C23.7291 19.8978 24.749 20.9027 24.749 21.6774C24.749 23.3812 23.7291 24.3861 22 24.3861Z" fill="#B2C3E9" fill-opacity="0.3"/>
</svg>
