<svg width="56" height="56" viewBox="0 0 56 56" fill="none" xmlns="http://www.w3.org/2000/svg">
<path fill-rule="evenodd" clip-rule="evenodd" d="M48.2505 13.3684C47.7102 13.5029 46.7427 11.0505 46.0922 7.89058C45.441 4.73071 45.3531 2.05977 45.8946 1.92518L53.6448 0C53.1033 0.134587 53.1919 2.80553 53.8424 5.9654C54.4929 9.12528 55.4591 11.5778 56 11.4432L48.2505 13.3684ZM45.8677 13.9106C45.3203 14.0549 41.628 15.6427 41.2492 15.8592C39.8065 16.6843 38.2009 17.4398 36.4877 17.3273C34.7456 17.2129 33.1754 16.2129 31.4445 15.9899C29.1005 15.6869 26.4788 16.0764 24.2706 15.1524C22.5036 14.4132 22.0973 12.6271 23.2552 11.4295C24.0113 10.6473 25.0025 10.6499 25.9707 10.7819C27.3426 10.9698 28.6974 11.2722 30.0693 11.464C32.265 11.7702 36.3045 10.7832 35.1873 10.7156C34.7948 10.6922 33.3868 11.0713 31.9716 10.9224C29.577 10.6701 27.0807 9.96791 24.7071 9.57C24.2063 9.48548 23.691 9.42176 23.1922 9.51863C22.155 9.72084 21.4094 10.6129 21.1113 11.6278C20.1399 11.8606 19.1251 12.0348 18.1746 12.3235C16.9845 12.6844 15.8351 13.1583 14.6864 13.6271C13.4846 14.1187 12.2577 14.6778 10.9804 14.9307C10.1868 15.0881 9.30916 14.8716 8.85492 14.1902C8.80832 14.1206 8.76631 14.0478 8.72824 13.973C8.28647 13.0946 8.53328 12.1246 9.26649 11.4841C9.70103 11.1051 10.2334 10.8535 10.7552 10.5999C11.705 10.1376 12.643 9.65322 13.5751 9.15844C14.4298 8.70526 15.2759 8.15196 16.1883 7.83727C18.0223 7.20465 19.8202 6.43938 21.6358 5.75669C23.456 5.0727 25.2769 4.39132 27.0912 3.69302C27.8421 3.40629 28.5655 3.4271 29.3138 3.68912C31.8351 4.57272 34.3648 5.43225 36.8854 6.3204C38.4772 6.88151 40.0638 6.88215 41.6457 6.32105C42.0258 6.18646 42.69 5.86462 43.202 5.62211C43.2565 6.55316 43.4351 7.7508 43.7344 9.04335C44.3757 11.8099 45.3222 13.962 45.8677 13.9106ZM8.20574 40.7208C8.20705 40.7247 8.2274 40.7201 8.24118 40.7188C8.23199 40.7214 8.22346 40.7279 8.21493 40.7318C8.21099 40.7286 8.20902 40.724 8.20574 40.7208ZM10.064 54.0852L2.34534 56C2.88491 55.8661 2.79695 53.2101 2.14907 50.0678C1.5012 46.9261 0.53891 44.4873 0 44.6206L7.71737 42.7064C7.71737 42.7064 7.71737 42.7064 7.71803 42.7064C8.25694 42.5725 9.21923 45.0113 9.8671 48.1536C10.515 51.2959 10.6029 53.9513 10.064 54.0852ZM36.0374 27.37C36.0374 31.6332 33.1059 35.0896 29.4904 35.0896C25.8749 35.0896 22.9434 31.6332 22.9434 27.37C22.9434 23.1061 25.8749 19.6497 29.4904 19.6497C33.1059 19.6497 36.0374 23.1061 36.0374 27.37ZM25.5322 19.4514C25.1633 19.6562 24.8089 19.8903 24.4767 20.1608H22.2594C22.9539 19.7739 23.7107 19.5217 24.5122 19.4547L25.5322 19.4514ZM23.4974 21.1133C23.1862 21.4722 22.9046 21.8662 22.6506 22.2849H19.96C20.2587 21.8512 20.5967 21.4611 20.963 21.1133H23.4974ZM22.1419 23.2368C21.9555 23.647 21.8012 24.0801 21.6713 24.5261H18.8684C19.0122 24.0742 19.1914 23.6444 19.3968 23.2368H22.1419ZM18.6222 25.478H21.4415C21.3385 26.0287 21.2814 26.5989 21.2709 27.1834H18.4299C18.4411 26.5963 18.5107 26.0274 18.6222 25.478ZM18.468 28.1352H21.2958C21.3312 28.6183 21.4041 29.0871 21.5032 29.5442H18.6767C18.5697 29.0917 18.5074 28.6177 18.468 28.1352ZM18.9629 30.4967H21.7592C21.8787 30.864 22.0119 31.2229 22.1701 31.5643H19.4204C19.2452 31.2262 19.0955 30.8666 18.9629 30.4967ZM25.5349 35.2885L24.5122 35.2846C23.6503 35.2124 22.8351 34.9361 22.0973 34.4985H24.3868C24.7472 34.8009 25.1312 35.0642 25.5349 35.2885ZM20.0073 32.5168H22.6907C22.9158 32.8802 23.158 33.2281 23.4265 33.546H20.8718C20.5567 33.2379 20.2711 32.8894 20.0073 32.5168ZM10.0903 42.1674C10.6364 42.0237 14.3136 40.4451 14.6904 40.2299C16.1272 39.4087 17.7263 38.6577 19.4323 38.7696C21.1671 38.8834 22.7307 39.8775 24.4551 40.0992C26.7893 40.4002 29.3998 40.0134 31.5987 40.9321C33.3592 41.6674 33.7636 43.4431 32.6096 44.6342C31.8574 45.4118 30.8701 45.4092 29.9065 45.2779C28.5399 45.0919 27.1903 44.7909 25.8243 44.6004C23.6379 44.2955 19.6147 45.2772 20.7273 45.3442C21.1179 45.3676 22.5206 44.9905 23.93 45.1387C26.314 45.3897 28.8005 46.088 31.1642 46.484C31.6631 46.5672 32.1764 46.6309 32.6733 46.5347C33.7065 46.3331 34.4489 45.4463 34.7456 44.4372C35.7131 44.2051 36.7233 44.0321 37.6705 43.7461C38.8553 43.3872 40.0001 42.9158 41.1429 42.449C42.3408 41.96 43.5624 41.4041 44.8352 41.1525C45.6255 40.9964 46.4992 41.2117 46.9514 41.8891C46.9974 41.9587 47.0401 42.0302 47.0775 42.105C47.5173 42.9788 47.2718 43.9431 46.5412 44.5796C46.1086 44.9567 45.5782 45.207 45.059 45.4599C44.1131 45.9196 43.1791 46.4007 42.2503 46.8929C41.3989 47.3435 40.5567 47.8936 39.6476 48.2069C37.8215 48.8357 36.0315 49.5964 34.2231 50.2752C32.4107 50.9559 30.5971 51.6334 28.79 52.3278C28.0423 52.6132 27.3216 52.5924 26.5766 52.3317C24.0652 51.4533 21.5459 50.5983 19.0364 49.7154C17.4506 49.1575 15.8706 49.1569 14.2946 49.7147C13.9165 49.848 13.2548 50.1685 12.7454 50.4098C12.6916 49.4832 12.5131 48.2928 12.2151 47.0074C11.577 44.2558 10.6344 42.1161 10.0903 42.1674Z" fill="#B2C3E9" fill-opacity="0.3"/>
</svg>
