<svg width="50" height="50" viewBox="0 0 50 50" fill="none" xmlns="http://www.w3.org/2000/svg">
<g clip-path="url(#clip0_15960_11445)">
<path d="M50 19.0996V30L30.3535 50H20.5303L0 30V19.0996L20.5303 0H30.3535L50 19.0996ZM35.5586 17.0947C33.1931 9.13921 23.6887 6.34982 17.6865 11.8994C14.8374 14.534 13.4978 17.9013 14.1709 21.8438C14.4748 23.624 15.1967 25.3565 15.9082 27.0273C17.5159 30.8007 19.5733 34.3287 21.7051 37.8057C22.756 39.5183 23.8458 41.2059 24.9775 43C25.1658 42.7238 25.2879 42.5567 25.3975 42.3818C26.6542 40.3828 27.9475 38.4059 29.1553 36.376C31.4649 32.4934 33.6601 28.5472 35.2217 24.2588C36.0803 21.8978 36.2806 19.5224 35.5586 17.0947ZM25.0264 15.2334C27.8053 15.2483 30.0428 17.577 30.0312 20.4424C30.0196 23.2997 27.7535 25.6096 24.9746 25.5967C22.1996 25.5837 19.9593 23.2519 19.9717 20.3887C19.9842 17.5253 22.2455 15.2185 25.0264 15.2334Z" fill="#B2C3E9" fill-opacity="0.2"/>
</g>
<defs>
<clipPath id="clip0_15960_11445">
<rect width="50" height="50" fill="white"/>
</clipPath>
</defs>
</svg>
