<svg width="48" height="50" viewBox="0 0 48 50" fill="none" xmlns="http://www.w3.org/2000/svg">
<path fill-rule="evenodd" clip-rule="evenodd" d="M46 44.6867C46 44.6867 42.4743 47.455 37.1095 48.7516C30.2081 50.4161 17.7919 50.4161 10.8905 48.7516C5.52569 47.455 2 44.6867 2 44.6867L8.77978 18.595C8.77978 18.595 13.9015 17.1082 17.8307 17.0357C15.8079 15.2585 14.5275 12.6278 14.5275 9.68925C14.5275 4.33776 18.7671 0 24 0C29.2303 0 33.4725 4.33776 33.4725 9.68925C33.4725 12.6278 32.1921 15.2585 30.1693 17.0357C34.0985 17.1082 39.2202 18.595 39.2202 18.595L46 44.6867ZM24.075 5.42658C21.8168 5.42658 19.9854 7.29885 19.9854 9.61165C19.9854 11.922 21.8168 13.7942 24.075 13.7942C26.3358 13.7942 28.1672 11.922 28.1672 9.61165C28.1672 7.29885 26.3358 5.42658 24.075 5.42658Z" fill="#B2C3E9" fill-opacity="0.3"/>
</svg>
