<svg width="55" height="48" viewBox="0 0 55 48" fill="none" xmlns="http://www.w3.org/2000/svg">
<path fill-rule="evenodd" clip-rule="evenodd" d="M52.3545 45C48.2591 45 28.8081 45 28.8081 45C28.8081 45 31.8044 42.2092 38.5891 41.2852C45.3743 40.3611 52.3545 39.9491 52.3545 39.9491V10.9608C52.3545 10.9608 54.9707 10.7693 54.9707 13.5962C54.9707 16.67 54.9707 42.5843 54.9707 42.5843C55.1595 42.537 54.4542 45 52.3545 45ZM28.8083 42.5843C28.8083 42.5843 28.8083 16.4404 28.8083 8.32556C28.8083 2.08202 49.7384 3.05493 49.7384 3.05493V37.3139C49.7384 37.3139 28.8083 36.6275 28.8083 42.5843ZM5.26185 37.3139V3.05493C5.26185 3.05493 26.1922 2.08202 26.1922 8.32556C26.1922 16.4404 26.1922 42.5843 26.1922 42.5843C26.1922 36.6275 5.26185 37.3139 5.26185 37.3139ZM26.1919 45C26.1919 45 6.74092 45 2.64547 45C0.545832 45 -0.159453 42.537 0.029333 42.5843C0.029333 42.5843 0.029333 16.67 0.029333 13.5962C0.029333 10.7693 2.64547 10.9608 2.64547 10.9608V39.9491C2.64547 39.9491 9.6262 40.3611 16.4109 41.2852C23.196 42.2092 26.1919 45 26.1919 45Z" fill="#B2C3E9" fill-opacity="0.3"/>
</svg>
