<svg width="48" height="54" viewBox="0 0 48 54" fill="none" xmlns="http://www.w3.org/2000/svg">
<path fill-rule="evenodd" clip-rule="evenodd" d="M42.7779 23.706C43.6663 24.0415 44.377 24.3705 45 25.1065C44.8245 31.5333 43.4073 38.88 38.9052 43.363C38.081 43.8262 34.8377 44.1293 34.9255 45.0644C34.6108 46.3718 34.7371 48.0451 33.8744 49.0885C30.8409 51.3938 27.3064 53.4805 23.605 54C18.8182 52.422 14.2498 50.0344 10.8524 45.993C10.6469 45.7592 10.5698 45.2722 10.6148 44.9324C10.8288 43.3695 11.1093 41.8174 11.3662 40.2589C11.4411 39.7957 11.6274 39.4147 12.0876 39.2957C12.5372 39.1809 12.824 39.4602 13.0938 39.8C15.8169 43.2288 19.2014 45.5536 23.2411 46.8199C27.2593 46.9152 31.0721 43.8912 33.8722 41.0274C41.0032 33.8494 39.6117 23.0631 39.6695 13.5668C39.8022 9.06222 34.4802 10.2484 35.5763 8.88039C36.7815 7.34999 37.9889 5.8196 39.2092 4.30219C39.3205 4.16149 39.5581 4.00563 39.693 4.04243C40.9775 4.38228 42.3411 4.50566 43.4073 5.47758C44.3235 6.31097 44.9015 7.36731 44.9122 8.67042C44.9379 12.149 44.9336 15.6276 44.9037 19.1061C44.5504 20.7621 43.4822 22.1236 42.7779 23.706ZM38.0938 13.5019C38.1067 17.79 38.2094 22.0803 38.0703 26.362C37.9397 34.9815 32.2174 42.811 24.4378 45.099C19.2443 44.441 13.2051 40.4516 12.4494 35.7933C12.0362 35.25 12.6999 34.1135 11.8735 33.9295C10.6126 32.9684 10.0646 28.9184 9.99822 27.2668C9.91687 22.7016 9.91901 18.1342 9.90188 13.5668C9.89974 12.5343 10.4264 11.8589 11.3726 11.6013C15.2881 10.5428 19.2079 9.49081 23.1233 8.42798C24.2644 8.11411 25.3669 8.54703 26.4544 8.85658C27.1138 9.05789 27.2358 9.37392 26.9125 10.0211C25.8721 12.1144 24.8424 14.214 23.7784 16.2943C23.5451 16.7488 23.6179 17.0172 23.9754 17.3116C24.6925 17.8961 25.3797 18.526 26.1055 19.1018C26.4672 19.3897 26.5186 19.6083 26.2617 20.0391C23.6864 24.4051 21.0639 28.7452 18.5421 33.1438C18.5613 33.1654 18.5785 33.1849 18.5956 33.2065C23.286 28.6283 27.8095 23.8553 32.4871 19.2641C32.8275 18.9308 32.7997 18.7057 32.5642 18.3442C32.2302 17.5541 30.1772 15.357 30.9543 14.7422C31.8706 13.6188 32.7676 12.4737 33.656 11.3243C34.3089 10.4995 35.8246 11.5667 36.7109 11.6273C37.5672 11.8719 38.0917 12.5473 38.0938 13.5019ZM22.8472 6.75472C5.77445 11.7117 8.45471 6.94521 8.33269 26.1217C8.33483 28.5331 8.76512 30.8687 9.52082 33.1351C9.84836 34.12 9.63214 34.5659 8.67093 34.83C7.44854 33.0031 4.75116 36.6764 4.40435 34.7369C3.48382 31.7606 3.04067 28.6565 3 25.5286C3.73001 24.1843 4.45787 22.8401 5.21571 21.4439C4.29945 20.8746 2.98073 20.7945 3.06422 19.3875C3.09205 15.9631 3.07493 12.5408 3.07707 9.11633C3.07707 6.79368 4.3123 5.09012 6.40812 4.52082C9.44589 3.69826 12.4879 2.88219 15.5257 2.05746C18.6769 1.37993 21.7404 -0.13531 24.9858 0.00972079C31.9241 2.34752 31.8856 -0.206743 28.4303 6.95386C28.1178 8.24615 24.9066 5.99926 22.8472 6.75472Z" fill="#B2C3E9" fill-opacity="0.3"/>
</svg>
