<svg width="85" height="100" viewBox="0 0 85 100" fill="none" xmlns="http://www.w3.org/2000/svg">
<path d="M44.1464 57.948C44.1464 57.948 44.7268 62.7394 47.0596 63.8179C49.4615 64.9283 50.9972 61.7085 53.6256 62.0585C57.9919 62.6399 58.0105 67.3319 61.2053 70.3357C63.3136 72.318 63.9414 75.2128 66.8494 75.1413C68.5109 75.1005 70.7478 73.4317 70.7478 73.4317C70.7478 73.4317 68.4423 73.817 67.0591 73.4225C64.7702 72.7698 64.3162 70.9356 62.6024 69.2964C58.8615 65.7185 58.0404 62.0354 53.3564 59.803C50.0501 58.2273 44.1464 57.948 44.1464 57.948Z" fill="#B2C3E9" fill-opacity="0.2"/>
<path fill-rule="evenodd" clip-rule="evenodd" d="M4.51476 47.4048C4.51476 47.4048 5.88808 42.184 4.51476 40.6327C3.61559 39.617 1.63234 38.6787 1.56602e-05 38.3753L1.04726e-05 46.2761C1.3619 46.503 2.82173 46.8405 4.51476 47.4048Z" fill="#B2C3E9" fill-opacity="0.2"/>
<path fill-rule="evenodd" clip-rule="evenodd" d="M50.262 73.268C39.9912 68.7046 43.1128 46.5867 43.1128 46.5867C46.233 46.9407 47.6782 47.9109 48.4008 53.8154C48.4008 53.8154 50.5579 51.6421 52.2794 50.781C52.6432 50.599 53.0068 50.4045 53.3689 50.2109C55.4921 49.0754 57.5644 47.9672 59.3243 49.5583C60.2753 50.4182 60.7809 52.4933 60.7809 52.4933C60.7809 52.4933 61.9404 52.2394 62.6569 51.9906C63.1472 51.8203 63.5184 51.5075 63.8692 51.212C64.3897 50.7735 64.8651 50.3729 65.6173 50.5323C66.947 50.8141 67.7417 51.9485 67.6992 53.2997C67.6532 54.7627 65.0714 55.9989 65.0714 55.9989C65.0714 55.9989 68.8325 56.1622 70.8656 55.1114C72.0267 54.5114 72.5964 53.6648 73.1877 52.7862C73.675 52.0621 74.177 51.3161 75.0369 50.6685C75.4422 50.3633 75.9629 50.2251 76.4496 50.0959C77.2276 49.8894 77.919 49.7059 77.9142 48.9C77.9062 47.572 75.4615 45.8078 73.3743 44.4636C71.0857 42.9896 69.0376 42.8515 66.7952 42.7004C65.4204 42.6077 63.9727 42.5101 62.3516 42.0967C61.5444 41.8909 60.8298 41.7299 60.1587 41.5788C58.4593 41.196 57.0392 40.8762 55.1008 40.0493C52.6415 39.0004 51.2871 38.2687 49.1638 36.6523C48.0812 35.8281 46.5397 34.3627 46.5397 34.3627C46.5397 34.3627 48.7337 34.0137 50.1452 34.0617C50.5377 34.075 50.9099 34.0731 51.2663 34.0713C52.7048 34.0639 53.8865 34.0578 55.1045 35.0605C55.7049 35.5548 55.9201 36.127 56.1426 36.7186C56.3302 37.2176 56.5231 37.7305 56.9569 38.2219C58.7856 40.2936 61.0223 40.1759 63.4726 40.0471C65.1076 39.9611 66.8376 39.8701 68.6049 40.4212C69.3975 40.6683 70.1276 40.8587 70.8166 41.0383C72.8912 41.5792 74.5926 42.0228 76.501 43.6258C77.7568 44.6806 78.8184 46.3532 79.489 47.4099C79.7637 47.8427 79.9728 48.1722 80.1029 48.3135C80.5936 48.8471 84.9583 47.0125 84.7149 45.4151C84.2768 42.5398 63.2102 36.5463 63.2102 36.5463C54.6304 26.6493 49.4264 22.3071 39.8222 15.5463C39.8222 15.5463 43.7932 19.1313 42.1735 20.5691C41.4172 21.2405 40.6712 21.0827 39.6721 21.2394C32.1548 22.4184 26.5241 8.46516 25.6567 7.70364C25.6567 10.4957 24.2993 11.3926 24.2993 11.3926C24.2993 11.3926 21.6584 8.07492 19.5932 6.33564C13.8014 1.45775 1.12934 0 1.12934 0C1.12934 0 12.0523 4.6962 14.4839 11.0299C15.0897 12.6081 15.8022 14.1086 14.6736 15.2372C12.9805 16.9303 13.1596 19.1458 14.5202 20.8807C15.4657 22.0864 16.9022 22.7023 18.0596 22.5737C23.1387 22.0094 24.8317 18.059 24.8317 18.059C24.8317 18.059 24.6767 24.9057 18.0596 24.8311C15.3723 24.8008 13.5449 23.138 12.4162 21.445C11.2875 19.752 11.2202 18.2955 11.2875 16.9303C11.3544 15.5735 11.7586 14.5601 10.7518 13.36C9.42919 11.7836 2.25803 11.2869 1.96915e-05 15.5463L2.1578e-05 22.5737C2.1578e-05 22.5737 1.69304 20.3164 4.51476 20.3164C9.0295 20.3164 11.9276 26.5241 10.1582 29.3458C7.09705 34.2276 1.85941 32.6629 1.74526e-05 31.0389C1.31612e-05 33.0224 6.4367e-06 36.1179 6.4367e-06 36.1179C1.65445 35.9819 4.51476 37.2466 5.64344 38.3753C5.64344 38.3753 10.2831 31.2106 14.845 29.8869C21.9364 27.8292 31.7138 29.1145 32.562 37.1105C32.9253 40.5362 32.1675 43.4544 29.4423 45.5944C26.1758 48.1595 20.3163 47.9691 18.059 45.1474C24.2667 47.9691 31.614 43.6513 29.4423 36.1179C27.6528 29.9102 20.0731 30.8631 15.8016 32.7319C6.77213 36.6823 7.90081 48.5335 11.2869 49.6622C18.059 51.9195 29.3458 58.6916 37.2466 69.9785C40.4069 74.4932 44.6833 76.5131 46.4033 77.6272C49.1946 79.4351 52.8205 77.3173 54.22 75.5327C55.6223 73.7445 56.0997 70.0412 56.0997 70.0412C56.0997 70.0412 52.6362 74.3229 50.262 73.268ZM1.30812e-05 59.8203C11.8512 63.2064 24.2667 71.1072 31.6032 86.9088C24.2667 62.642 9.59384 57.563 7.40944e-06 55.3056L8.94102e-06 50.7909C22.6067 54.0093 42.7502 76.7466 44.1464 99.3243L16.9309 99.3241C15.5343 96.0909 12.2799 92.4312 10.1588 91.9877C11.2875 93.1164 11.2875 93.6807 14.1132 99.3243H11.2875C9.03013 93.6807 5.07909 86.9086 0 84.6512L6.04914e-06 75.6219C7.90081 77.8793 15.8016 85.7801 18.6233 94.8096C17.4946 85.2158 12.5948 76.0643 1.0629e-05 72.1481L1.30812e-05 59.8203ZM2.34016e-05 26.5241C1.81175e-05 25.9598 1.60084 24.5953 2.25802 24.2667C5.64408 22.5737 9.59384 24.2668 9.0295 28.2171C8.75385 30.1467 7.58306 31.3061 5.64344 31.6032C3.28349 31.9647 2.23718 31.8726 1.74526e-05 31.0389C1.87635e-05 28.6146 2.34016e-05 26.5241 2.34016e-05 26.5241Z" fill="#B2C3E9" fill-opacity="0.2"/>
</svg>
