<svg width="53" height="48" viewBox="0 0 53 48" fill="none" xmlns="http://www.w3.org/2000/svg">
<path d="M44.2894 27.8436C44.6213 29.4146 43.8226 30.226 43.3957 30.3215C42.9688 30.4171 41.915 30.0205 41.5831 28.4495C41.2512 26.8785 42.0499 26.0672 42.4768 25.9716C42.9036 25.876 43.9575 26.2726 44.2894 27.8436Z" fill="#B2C3E9" fill-opacity="0.2"/>
<path fill-rule="evenodd" clip-rule="evenodd" d="M46.5563 38.9671L47.7719 44.1037L51.9414 42.4019C52.5666 42.1466 52.9443 41.505 52.8638 40.8344L48.2288 2.19522C48.1123 1.22369 47.1117 0.622053 46.199 0.97463L35.7672 5.00416L37.2056 30.1602C37.2466 30.1533 37.2879 30.1479 37.3292 30.1425C37.3842 30.1353 37.4393 30.1282 37.4937 30.1173C38.1256 29.9916 38.732 30.5219 38.9758 31.2859C39.2223 32.0577 38.978 32.6798 38.3207 32.8117C38.0066 32.8746 37.6877 32.9258 37.3666 32.9758L38.2256 48L45.2228 45.1443L46.5563 38.9671ZM45.874 27.4889C46.318 29.591 45.3628 31.5895 43.7403 31.9528C42.1179 32.316 40.4426 30.9064 39.9985 28.8043C39.5544 26.7022 40.5097 24.7036 42.1322 24.3404C43.7546 23.9771 45.4299 25.3868 45.874 27.4889Z" fill="#B2C3E9" fill-opacity="0.2"/>
<path fill-rule="evenodd" clip-rule="evenodd" d="M33.7591 30.0728C34.6542 30.2798 35.5115 30.3266 36.3494 30.2648L34.9099 5.09208L31.5299 4.12163L30.5397 6.54831L29.1921 3.45055L17.176 0.00111309L16.9447 24.0787C17.0333 24.0442 17.1225 24.0097 17.2117 23.9752C17.8571 23.726 18.4695 23.8606 18.8258 24.3353C19.176 24.8027 19.0339 25.3736 18.3998 25.6435C17.9391 25.8397 17.4735 26.0265 17.0081 26.2133L16.9236 26.2472L16.7787 41.3204L21.2868 42.7816L22.3473 38.7663L23.99 43.658L37.3629 47.9928L36.5115 33.1072C36.4823 33.1115 36.4532 33.1158 36.4242 33.12C36.3341 33.1333 36.2447 33.1464 36.1531 33.1611C35.9352 33.1199 35.7164 33.0812 35.497 33.0425C34.9977 32.9543 34.4951 32.8656 33.9915 32.7438C33.3283 32.583 32.8845 31.9386 32.8294 31.1562C32.7786 30.4379 33.1386 29.9293 33.7591 30.0728ZM18.8544 17.7085C18.5836 16.9239 18.3512 16.1382 18.1458 15.3608C18.0052 14.8283 17.8987 14.2885 17.835 13.7571C17.7744 13.2497 18.0609 12.8846 18.4771 12.8245C18.8885 12.7655 19.289 13.0443 19.4322 13.5379C19.6874 14.4199 19.9368 15.3213 20.1909 16.2398C20.2754 16.5452 20.3604 16.8524 20.4463 17.1615C20.4633 17.2227 20.4748 17.2853 20.4863 17.3479C20.4912 17.3746 20.4961 17.4014 20.5014 17.428C20.5398 17.8994 20.2879 18.2822 19.8717 18.3779C19.462 18.4725 19.0339 18.2288 18.8544 17.7085ZM21.4144 24.1266C20.8079 24.0687 20.3657 23.6759 20.2663 23.056C20.1641 22.425 20.4452 21.962 20.9928 21.8451C21.7173 21.6898 22.4397 21.5342 23.1604 21.379C23.5447 21.2963 23.9284 21.2137 24.3116 21.1312C24.8895 21.0066 25.3754 21.2993 25.5922 21.9064C25.8051 22.5045 25.5933 23.1033 25.0219 23.2563C24.1772 23.4834 23.3209 23.6821 22.4622 23.8814C22.1131 23.9624 21.7637 24.0435 21.4144 24.1266ZM20.1074 7.11422C20.4733 6.84768 20.9517 6.99737 21.2117 7.37576C21.4755 7.76026 21.4317 8.23325 21.0301 8.48087C20.2684 8.95107 19.7766 9.62549 19.522 10.5447C19.3998 10.9855 19.0203 11.1674 18.6306 11.0617C18.2512 10.9587 17.982 10.6032 17.9658 10.094C18.0593 9.45076 18.3274 8.79637 18.7755 8.28388C19.1668 7.83705 19.6344 7.45811 20.1074 7.11422ZM23.5803 6.48543C24.7425 6.63122 25.9051 7.04467 27.0132 7.75359C27.4013 8.00176 27.5413 8.48198 27.3813 8.83254C27.2213 9.18366 26.817 9.29829 26.3803 9.1052C26.1651 9.01002 25.9513 8.91188 25.7379 8.81396C25.3176 8.62105 24.8992 8.42901 24.4765 8.26218C24.2876 8.18754 24.0897 8.15103 23.8915 8.11447C23.7529 8.08889 23.6141 8.06329 23.4781 8.02458C23.0408 7.90049 22.7609 7.52155 22.7825 7.12869C22.8057 6.71859 23.0879 6.47653 23.5803 6.48543ZM28.7381 21.9436C28.4446 22.3042 27.9165 22.2363 27.543 21.8707C27.1495 21.4851 27.0289 20.9103 27.27 20.4523L27.324 20.3501C27.8739 19.3088 28.4132 18.2876 28.9732 17.3117C29.0615 17.1578 29.2244 17.0646 29.3436 16.9965C29.3872 16.9716 29.425 16.95 29.4511 16.93C30.2348 16.9539 30.7937 17.6823 30.6121 18.3334C30.2343 19.6883 29.5943 20.8919 28.7381 21.9436ZM29.9219 10.5336C30.4992 11.4128 30.9029 12.361 31.15 13.5563C31.1556 13.6101 31.1644 13.6767 31.1743 13.7527C31.2022 13.9651 31.2395 14.2503 31.2467 14.5306C31.2591 15.0292 30.917 15.3425 30.4781 15.2918C30.031 15.2401 29.6116 14.8522 29.5613 14.3414C29.4473 13.1829 29.1321 12.1078 28.4943 11.0901C28.2381 10.6811 28.3981 10.232 28.7629 10.0573C29.1429 9.87533 29.6111 10.0606 29.9219 10.5336ZM29.0655 26.8784C29.5579 27.3774 30.0548 27.8808 30.5608 28.3807C31.1608 28.9733 31.4164 29.7317 31.164 30.3266C30.9078 30.9298 30.2683 31.0411 29.6554 30.4379C28.4797 29.281 27.3586 28.0902 26.2684 26.9161C25.8997 26.5188 25.7478 25.954 25.9414 25.4905C26.034 25.2682 26.2047 25.1072 26.3874 24.9348C26.4724 24.8547 26.56 24.7721 26.6435 24.6797C26.77 24.7731 26.8869 24.8533 26.9955 24.9279C27.208 25.0739 27.3892 25.1984 27.5505 25.3575C28.0542 25.8537 28.5575 26.3637 29.0655 26.8784ZM29.3408 38.7885L31.0235 36.6328L33.6272 42.4566L32.2607 42.0371L31.0554 39.3427L29.5911 41.218L29.2246 41.1056L26.3976 33.6608L23.3273 38.4496L21.2825 35.2756L20.1376 38.3161L19.1906 38.0251L21.2468 32.5629L23.2927 35.7392L26.3635 30.947L29.3408 38.7885Z" fill="#B2C3E9" fill-opacity="0.2"/>
<path fill-rule="evenodd" clip-rule="evenodd" d="M12.9393 26.5978C12.715 26.0825 12.9512 25.6207 13.5485 25.3903C14.3907 25.0653 15.2355 24.7387 16.0804 24.4121L16.3155 0L3.49887 3.41783C2.87283 3.58478 2.42474 4.13482 2.38781 4.78168L0.456212 38.6132L3.99185 39.0406L0.294051 41.4511L0.126743 44.3817C0.0661327 45.4433 1.09882 46.2291 2.10588 45.8877L15.9188 41.2052L16.0593 26.5956C15.967 26.6321 15.8748 26.6686 15.7825 26.7052C15.3284 26.885 14.8745 27.0647 14.4226 27.2455C13.7263 27.3368 13.1599 27.1042 12.9393 26.5978ZM10.1194 22.987C10.5226 22.514 11.1275 22.3771 11.4745 22.6804C11.822 22.9836 11.7793 23.6147 11.3772 24.091L9.15774 26.7236L11.0777 28.4313C11.4318 28.7463 11.3875 29.4045 10.9761 29.9026C10.7421 30.1863 10.4404 30.3572 10.1577 30.3933C9.94206 30.4217 9.73774 30.3711 9.58369 30.2331L7.65722 28.5036L5.35454 31.2347C5.11238 31.5224 4.80319 31.6954 4.51671 31.7327C4.29725 31.7611 4.09185 31.7105 3.93888 31.5702C3.58645 31.2481 3.65023 30.5781 4.07888 30.0745L6.38858 27.3651L4.49293 25.6641C4.14753 25.3536 4.20861 24.7114 4.62752 24.2306C5.04427 23.7515 5.66048 23.6119 6.0048 23.919L7.89343 25.599L10.1194 22.987Z" fill="#B2C3E9" fill-opacity="0.2"/>
</svg>
