<svg width="57" height="57" viewBox="0 0 57 57" fill="none" xmlns="http://www.w3.org/2000/svg">
<path fill-rule="evenodd" clip-rule="evenodd" d="M52.9985 34.1141L50.8954 38.8362L47.4986 36.5L42.5 37.2621L46.9986 33.5L48.4985 30L51.4985 31L56.6675 29.3913L52.9985 34.1141ZM33.5799 41.4595L28.3331 45.6576L23.0857 41.4595L15.7396 38.8362L14.1655 37.2621L14.1665 37.2612L15.7396 35.6881L23.0857 34.1141L28.3331 30.9654L33.5799 34.1141L40.926 35.6881L42.5 37.2621L40.926 38.8362L33.5799 41.4595ZM28.3331 34.1141L24.6597 37.7868L28.3331 41.4595L32.0059 37.7868L28.3331 34.1141ZM52.4694 22.5699L50.8954 19.9465L55.0928 17.8478L56.6675 27.8173L54.5688 27.2926L52.4694 22.5699ZM49.3214 18.8972L45.6487 19.4218L43.6132 17.6775C43.412 16.3589 43.0302 14.7739 42.3998 12.9128L45.1233 11.551L52.4694 16.5L49.3214 18.8972ZM28.3331 46.661L30.9565 48.7597L32.5305 51.383L30.9565 54.5311L28.3331 56.6305L25.7091 54.5311L24.135 51.383L25.7091 48.7597L28.3331 46.661Z" fill="#B2C3E9" fill-opacity="0.2"/>
<path d="M14.1655 37.2621L14.1665 37.2612L9.66899 33.5L8.16899 30L5.16899 31L0 29.3913L3.66899 34.1141L5.77211 38.8362L9.16899 36.5L14.1655 37.2621Z" fill="#B2C3E9" fill-opacity="0.2"/>
<path d="M4.19808 22.5699L5.77211 19.9465L1.57471 17.8478L0 27.8173L2.0987 27.2926L4.19808 22.5699Z" fill="#B2C3E9" fill-opacity="0.2"/>
<path d="M7.34613 18.8972L11.0189 19.4218L9 16.5L8.5 12.5L4.19808 16.5L7.34613 18.8972Z" fill="#B2C3E9" fill-opacity="0.2"/>
<g clip-path="url(#clip0_15960_6779)">
<mask id="mask0_15960_6779" style="mask-type:alpha" maskUnits="userSpaceOnUse" x="1" y="-1" width="55" height="48">
<path d="M28.498 -0.686768C43.4792 -0.686557 55.6238 9.92077 55.624 23.0056C55.624 36.0906 43.4794 46.6988 28.498 46.699C13.5165 46.699 1.37109 36.0908 1.37109 23.0056C1.37133 9.92064 13.5166 -0.686768 28.498 -0.686768ZM28.4971 28.157C27.5728 28.1654 20.2561 32.6204 15.1055 33.9939C15.1055 37.9763 21.1011 42.5779 28.4971 42.5779C35.893 42.5779 42.2324 37.9763 42.2324 33.9939C33.9916 31.9337 29.4214 28.1486 28.4971 28.157Z" fill="#D9D9D9"/>
</mask>
<g mask="url(#mask0_15960_6779)">
<path fill-rule="evenodd" clip-rule="evenodd" d="M11.6716 7.24996C8.37653 11.0776 13.407 20.8879 16.6836 24.887C19.0872 27.8208 27.335 35.4592 31.9636 33.1845C34.7335 32.2689 35.2356 30.8048 35.4747 29.4104C35.735 27.8922 35.7784 24.8141 33.869 20.4289C32.5252 17.3422 30.0718 14.0512 27.5543 11.3167C24.0356 11.1889 21.2068 8.84128 20.9829 5.88947C17.405 4.15145 14.56 4.70875 14.56 4.70875C14.56 4.70875 13.5005 5.03404 12.7375 5.69583C12.0765 6.26878 11.8111 7.05278 11.8111 7.05278C11.8111 7.05278 11.8703 6.93825 12.109 6.79833C11.9605 6.93766 11.8138 7.08466 11.6716 7.24996ZM12.7369 8.5337C15.495 5.19019 20.1883 8.2155 24.7494 12.279C28.937 16.0094 36.1584 27.4778 31.4241 31.2532C27.5106 34.3735 19.5714 26.94 17.3418 24.2187C14.4552 20.6957 9.90714 11.964 12.7369 8.5337ZM15.7723 20.4224C19.9869 27.5067 26.2898 30.5692 27.0112 30.7537C27.7326 30.9382 29.4792 31.3072 30.922 30.4585C32.2033 29.7049 32.137 26.5105 32.137 26.5105C32.137 26.5105 28.4601 25.3758 23.556 19.3893C19.4751 14.4078 18.3922 8.61517 18.3922 8.61517C18.3922 8.61517 17.367 8.06171 16.152 7.87722C14.937 7.69273 13.9498 8.28309 13.2664 8.94725C12.5829 9.61141 11.5435 13.3142 15.7723 20.4224ZM22.0448 1.9246C22.1366 1.92874 22.2623 1.93789 22.4133 1.95235C22.9148 1.40833 23.5268 0.943423 24.223 0.578285C22.4072 0.474676 21.0576 0.694586 21.0576 0.694586C21.0576 0.694586 20.1716 0.891471 19.7159 1.18665C19.2603 1.48183 18.5769 2.17049 18.5769 2.17049C18.5769 2.17049 20.5005 1.85081 22.0448 1.9246ZM33.6661 8.63259C35.002 10.1235 37.9439 13.6338 39.3588 18.3561C41.1054 24.186 39.6625 27.064 39.6625 27.064C39.6625 27.064 41.0546 26.326 41.4343 24.5549C41.814 22.7838 42.2241 18.4931 39.7129 13.7808C38.2328 11.0029 36.5202 8.54256 34.6494 6.45504C34.4963 7.24612 34.157 7.98289 33.6661 8.63259Z" fill="#B2C3E9" fill-opacity="0.2"/>
<path fill-rule="evenodd" clip-rule="evenodd" d="M18.1075 4.31587C20.1345 4.68839 21.0184 5.10282 21.0184 5.10282C21.0184 5.10282 20.9932 4.51246 21.2462 3.8483C21.4992 3.18415 22.0056 2.42169 22.0056 2.42169C22.0056 2.42169 20.9148 2.35646 19.93 2.42169C18.8162 2.49549 18.2087 2.79067 18.2087 2.79067L16.1331 4.11898C16.1331 4.11898 17.1707 4.14348 18.1075 4.31587ZM31.3208 14.77C32.6673 16.7329 33.8268 18.2877 35.2189 22.0019C36.611 25.7165 36.0542 29.849 36.0542 29.849L39.0917 27.1431C39.0917 27.1431 39.4438 26.0559 39.6233 24.462C39.8004 22.8875 39.6035 20.0664 38.4083 16.8855C36.703 12.348 32.9914 9.03876 32.9914 9.03876C32.9914 9.03876 32.5513 9.85316 31.7005 10.2933C30.5107 10.9081 28.3337 11.3509 28.3337 11.3509C28.3337 11.3509 29.8525 12.6299 31.3208 14.77Z" fill="#B2C3E9" fill-opacity="0.2"/>
<path fill-rule="evenodd" clip-rule="evenodd" d="M27.8536 10.3455C31.1512 10.3455 33.8242 8.09032 33.8242 5.30883C33.8242 2.52735 31.1512 0.272461 27.8536 0.272461C24.5561 0.272461 21.8831 2.52735 21.8831 5.30883C21.8831 8.09032 24.5561 10.3455 27.8536 10.3455ZM27.8536 1.22412C30.1652 1.22412 32.0391 2.70534 32.0391 4.53251C32.0391 6.35968 30.1652 7.8406 27.8536 7.8406C25.5421 7.8406 23.9416 6.35968 23.9416 4.53251C23.9416 2.70534 25.5421 1.22412 27.8536 1.22412Z" fill="#B2C3E9" fill-opacity="0.2"/>
</g>
</g>
<defs>
<clipPath id="clip0_15960_6779">
<rect width="31.5904" height="35.0241" fill="white" transform="matrix(-1 0 0 1 41.8906 0)"/>
</clipPath>
</defs>
</svg>
