<svg width="48" height="50" viewBox="0 0 48 50" fill="none" xmlns="http://www.w3.org/2000/svg">
<path d="M15.0703 7.14258C15.0703 10.1012 17.4692 12.4998 20.4277 12.5H27.5703C30.4366 12.5 32.7776 10.2487 32.9209 7.41797L32.9277 7.14258H42.4277C44.0844 7.14265 45.4275 8.48593 45.4277 10.1426V47C45.4276 48.6567 44.0844 49.9999 42.4277 50H5.57031C3.91373 49.9998 2.57044 48.6566 2.57031 47V10.1426C2.5705 8.48602 3.91377 7.1428 5.57031 7.14258H15.0703ZM14.9688 31.25C12.6217 31.2501 10.7189 33.153 10.7188 35.5V46.4287H37.2812V35.5C37.2811 33.1529 35.3784 31.25 33.0312 31.25H32.4834C30.399 33.5779 27.3717 35.0439 24.001 35.0439C20.6303 35.0439 17.6029 33.578 15.5186 31.25H14.9688ZM23.999 16.0713C19.808 16.0716 16.4105 19.4692 16.4102 23.6602C16.4102 27.8514 19.8079 31.2497 23.999 31.25C28.1904 31.25 31.5888 27.8515 31.5889 23.6602C31.5886 19.469 28.1903 16.0713 23.999 16.0713ZM28.3545 0C28.9068 0 29.3545 0.447715 29.3545 1V7.14258H29.3564L29.3545 7.17773V7.92871C29.3544 8.48093 28.9067 8.92871 28.3545 8.92871H19.6406C19.0884 8.92871 18.6407 8.48093 18.6406 7.92871V1C18.6406 0.447716 19.0883 0 19.6406 0H28.3545Z" fill="#B2C3E9" fill-opacity="0.2"/>
</svg>
