<svg width="24" height="24" viewBox="0 0 24 24" fill="none" xmlns="http://www.w3.org/2000/svg">
<path fill-rule="evenodd" clip-rule="evenodd" d="M3.17787 14.5342C3.17787 14.5342 5.16173 8.33873 5.89221 6.20549L6.26326 5.40625C6.70063 4.30854 8.27788 4.38739 8.82528 5.13977C9.04038 5.43542 8.83087 5.53275 9.20329 5.45852C9.67372 5.36476 9.8253 4.75689 10.2577 4.55076C11.1201 4.13972 12.1585 4.30862 12.6193 5.10328C12.7788 5.37839 12.5266 5.92289 12.8295 5.88762C13.0558 5.86126 13.1347 5.48193 13.407 5.31284C14.3234 4.74384 15.6339 5.17739 16.0151 6.1421C16.2124 6.64161 15.9133 6.98388 15.9482 7.52039C15.7525 8.60626 20.4262 1.73058 21.124 0.838195C22.1534 -0.478661 24.2676 0.779995 23.127 2.38272C22.5831 3.14644 20.6952 6.66025 20.1922 7.61585C19.6892 8.57119 18.7296 10.2249 17.0211 12.2321C18.0055 11.7706 20.7058 9.63622 22.7963 10.4121C24.0124 10.8634 23.8249 12.341 21.9978 13.1073C20.8234 13.5999 19.6921 14.992 18.5386 16.2387C17.3994 17.4693 14.159 18.8676 11.3358 19.3473C12.1558 20.6311 12.247 22.6772 11.0968 22.8835C7.19482 23.583 2.08108 22.1265 0.510535 16.1418C0.0570203 14.4132 3.17787 14.5342 3.17787 14.5342Z" fill="#F9DF94"/>
</svg>
