<svg width="33" height="32" viewBox="0 0 33 32" fill="none" xmlns="http://www.w3.org/2000/svg">
<g clip-path="url(#clip0_16051_9832)">
<path fill-rule="evenodd" clip-rule="evenodd" d="M4.17787 22.5342C4.17787 22.5342 6.16173 16.3387 6.89221 14.2055L7.26326 13.4062C7.70063 12.3085 9.27788 12.3874 9.82528 13.1398C10.0404 13.4354 9.83087 13.5328 10.2033 13.4585C10.6737 13.3648 10.8253 12.7569 11.2577 12.5508C12.1201 12.1397 13.1585 12.3086 13.6193 13.1033C13.7788 13.3784 13.5266 13.9229 13.8295 13.8876C14.0558 13.8613 14.1347 13.4819 14.407 13.3128C15.3234 12.7438 16.6339 13.1774 17.0151 14.1421C17.2124 14.6416 16.9133 14.9839 16.9482 15.5204C16.7525 16.6063 21.4262 9.73058 22.124 8.83819C23.1534 7.52134 25.2676 8.77999 24.127 10.3827C23.5831 11.1464 21.6952 14.6603 21.1922 15.6159C20.6892 16.5712 19.7296 18.2249 18.0211 20.2321C19.0055 19.7706 21.7058 17.6362 23.7963 18.4121C25.0124 18.8634 24.8249 20.341 22.9978 21.1073C21.8234 21.5999 20.6921 22.992 19.5386 24.2387C18.3994 25.4693 15.159 26.8676 12.3358 27.3473C13.1558 28.6311 13.247 30.6772 12.0968 30.8835C8.19482 31.583 3.08108 30.1265 1.51053 24.1418C1.05702 22.4132 4.17787 22.5342 4.17787 22.5342Z" fill="#F9DF94"/>
<mask id="mask0_16051_9832" style="mask-type:alpha" maskUnits="userSpaceOnUse" x="15" y="0" width="19" height="17">
<path d="M21.5046 8.02656C22.3754 7.10956 23.6481 7.10753 24.5016 7.68856C24.959 7.99997 25.3221 8.49426 25.4258 9.11517C25.5178 9.66637 25.3909 10.2269 25.0837 10.7436L24.9412 10.9627C24.7109 11.2861 24.1351 12.2934 23.5194 13.4102C23.2196 13.9539 22.9208 14.5036 22.6662 14.9764L29.4892 16.5001L33.4892 7.00014L25.3043 0.000139516L16.489 1.00011L15.9883 6.00024L15.9883 11.0002L18.3912 12.3336C19.586 10.689 20.9754 8.68319 21.3357 8.22246L21.5046 8.02656Z" fill="#F9DF94"/>
</mask>
<g mask="url(#mask0_16051_9832)">
<circle cx="24" cy="8" r="5" stroke="#F9DF94" stroke-width="2"/>
</g>
</g>
<defs>
<clipPath id="clip0_16051_9832">
<rect width="32" height="32" fill="white" transform="translate(0.972656 -0.00292969)"/>
</clipPath>
</defs>
</svg>
