<svg width="13" height="12" viewBox="0 0 13 12" fill="none" xmlns="http://www.w3.org/2000/svg">
<mask id="mask0_16243_10360" style="mask-type:alpha" maskUnits="userSpaceOnUse" x="-2" y="-2" width="19" height="17">
<path d="M4.50458 6.02656C5.3754 5.10956 6.64814 5.10753 7.50164 5.68856C7.95902 5.99997 8.32209 6.49426 8.4258 7.11517C8.51782 7.66637 8.39087 8.22689 8.08366 8.74359L7.94119 8.96273C7.7109 9.28613 7.1351 10.2934 6.51936 11.4102C6.21958 11.9539 5.92082 12.5036 5.66615 12.9764L12.4892 14.5001L16.4892 5.00014L8.30433 -1.99986L-0.511038 -0.999893L-1.01172 4.00024L-1.01172 9.00024L1.39117 10.3336C2.58596 8.689 3.97545 6.68319 4.33566 6.22246L4.50458 6.02656Z" fill="#F9DF94"/>
</mask>
<g mask="url(#mask0_16243_10360)">
<circle cx="7" cy="6" r="5" stroke="#F9DF94" stroke-width="2"/>
</g>
</svg>
