<svg width="28" height="12" viewBox="0 0 28 12" fill="none" xmlns="http://www.w3.org/2000/svg">
<path d="M14.001 11.0923L5.64648 3.36572L6.40723 2.6499L13.5459 9.37061L14.0029 9.80127L14.46 9.37061L21.5996 2.6499L22.3594 3.36572L14.001 11.0923Z" stroke="url(#paint0_linear_15148_30654)" stroke-width="1.33333"/>
<mask id="path-2-inside-1_15148_30654" fill="white">
<path fill-rule="evenodd" clip-rule="evenodd" d="M9.10482 0.00104936L10.627 0.00104943L13.9984 3.17403L17.3686 0.00104972L18.8438 0.000488281L13.9978 4.57944L9.10482 0.00104936Z"/>
</mask>
<path d="M9.10482 0.00104936L9.10482 -1.33228L5.7284 -1.33228L8.19383 0.974636L9.10482 0.00104936ZM10.627 0.00104943L11.5408 -0.969902L11.1557 -1.33228L10.627 -1.33228L10.627 0.00104943ZM13.9984 3.17403L13.0846 4.14499L13.9986 5.00516L14.9124 4.14482L13.9984 3.17403ZM17.3686 0.00104972L17.3681 -1.33228L16.8395 -1.33208L16.4546 -0.969734L17.3686 0.00104972ZM18.8438 0.000488281L19.7595 0.969618L22.1976 -1.33412L18.8432 -1.33284L18.8438 0.000488281ZM13.9978 4.57944L13.0868 5.55303L14.0023 6.40963L14.9135 5.54857L13.9978 4.57944ZM9.10482 0.00104936L9.10482 1.33438L10.627 1.33438L10.627 0.00104943L10.627 -1.33228L9.10482 -1.33228L9.10482 0.00104936ZM10.627 0.00104943L9.71318 0.972001L13.0846 4.14499L13.9984 3.17403L14.9122 2.20308L11.5408 -0.969902L10.627 0.00104943ZM13.9984 3.17403L14.9124 4.14482L18.2826 0.971833L17.3686 0.00104972L16.4546 -0.969734L13.0844 2.20325L13.9984 3.17403ZM17.3686 0.00104972L17.3691 1.33438L18.8443 1.33382L18.8438 0.000488281L18.8432 -1.33284L17.3681 -1.33228L17.3686 0.00104972ZM18.8438 0.000488281L17.928 -0.968641L13.0821 3.61032L13.9978 4.57944L14.9135 5.54857L19.7595 0.969618L18.8438 0.000488281ZM13.9978 4.57944L14.9088 3.60586L10.0158 -0.972537L9.10482 0.00104936L8.19383 0.974636L13.0868 5.55303L13.9978 4.57944Z" fill="url(#paint1_linear_15148_30654)" mask="url(#path-2-inside-1_15148_30654)"/>
<defs>
<linearGradient id="paint0_linear_15148_30654" x1="23.3359" y1="54.3004" x2="4.66927" y2="54.3004" gradientUnits="userSpaceOnUse">
<stop stop-color="#6B521E"/>
<stop offset="1" stop-color="#C3A758"/>
</linearGradient>
<linearGradient id="paint1_linear_15148_30654" x1="18.8437" y1="23.4447" x2="9.10482" y2="23.4447" gradientUnits="userSpaceOnUse">
<stop stop-color="#6B521E"/>
<stop offset="1" stop-color="#C3A758"/>
</linearGradient>
</defs>
</svg>
